<svg id="组_1" data-name="组 1" xmlns="http://www.w3.org/2000/svg" width="100" height="100" viewBox="0 0 100 100">
  <g id="图层_78" data-name="图层 78" transform="translate(20.76 21.417)">
    <path id="路径_1" data-name="路径 1" d="M1.24,25.26l3.37,27.6a3.18,3.18,0,0,0,3.16,2.8H50.71a3.18,3.18,0,0,0,3.16-2.8l3.37-27.6H53.56l.73-3.9H44.88v2.12h6.51l-.45,2.13H7.19l-.46-2.13h28.6V21.36H3.83l.73,3.9Z" fill="#707070" opacity="0.5"/>
    <path id="路径_2" data-name="路径 2" d="M17.13,24,9.89,19.43a.92.92,0,0,1-.28-1.26l4.57-7.24a.92.92,0,0,1,1.26-.28l7.24,4.57A.91.91,0,0,1,23,16.47l-4.57,7.25a.92.92,0,0,1-1.3.28Zm-4.82-5.78,4.87,3.08,3.08-4.88-4.87-3.08Z" fill="#707070" opacity="0.5"/>
    <path id="路径_3" data-name="路径 3" d="M47.18,25.63H44.37a4.27,4.27,0,0,0-4.4-4.4,4.37,4.37,0,0,0-4.4,4.4H32.76a7.21,7.21,0,1,1,14.42,0Z" fill="#707070" opacity="0.5"/>
    <path id="路径_4" data-name="路径 4" d="M29.39,13.29l3-11.11a.91.91,0,0,1,1.52-.41L42,9.9a.91.91,0,0,1-.4,1.52l-11.11,3a.92.92,0,0,1-1.1-1.13ZM34,5.05l-1.8,6.54,6.54-1.75Z" fill="#707070" opacity="0.5"/>
    <path id="路径_5" data-name="路径 5" d="M42.61,32a.91.91,0,0,0-.89.72,12.73,12.73,0,0,1-25,0,.91.91,0,0,0-.89-.72H14.48a.91.91,0,0,0-.9,1.07,15.92,15.92,0,0,0,31.32,0A.91.91,0,0,0,44,32Z" fill="#f8f8f8"/>
  </g>
  <rect id="矩形_1" data-name="矩形 1" width="100" height="100" fill="#707070" opacity="0.1"/>
</svg>
