<?xml version="1.0" encoding="UTF-8"?>
<svg width="220px" height="183px" viewBox="0 0 220 183" version="1.1" xmlns="http://www.w3.org/2000/svg" xmlns:xlink="http://www.w3.org/1999/xlink">
    <!-- Generator: Sketch 52.2 (67145) - http://www.bohemiancoding.com/sketch -->
    <title>pic_success_210x190</title>
    <desc>Created with Sketch.</desc>
    <defs>
        <path d="M75.0386266,0 L210,0 L187.642586,150.077253 L75.0386266,150.077253 C33.5959375,150.077253 5.07526566e-15,116.481316 0,75.0386266 C-5.07526566e-15,33.5959375 33.5959375,7.61289849e-15 75.0386266,0 Z" id="path-1"></path>
        <path d="M75.0386266,0 L210,0 L187.642586,150.077253 L75.0386266,150.077253 C33.5959375,150.077253 5.07526566e-15,116.481316 0,75.0386266 C-5.07526566e-15,33.5959375 33.5959375,7.61289849e-15 75.0386266,0 Z" id="path-3"></path>
        <path d="M75.0386266,0 L210,0 L187.642586,150.077253 L75.0386266,150.077253 C33.5959375,150.077253 5.07526566e-15,116.481316 0,75.0386266 C-5.07526566e-15,33.5959375 33.5959375,7.61289849e-15 75.0386266,0 Z" id="path-5"></path>
        <filter x="-83.9%" y="-67.1%" width="267.7%" height="234.2%" filterUnits="objectBoundingBox" id="filter-7">
            <feGaussianBlur stdDeviation="25" in="SourceGraphic"></feGaussianBlur>
        </filter>
        <path d="M75.0386266,0 L210,0 L187.642586,150.077253 L75.0386266,150.077253 C33.5959375,150.077253 5.07526566e-15,116.481316 0,75.0386266 C-5.07526566e-15,33.5959375 33.5959375,7.61289849e-15 75.0386266,0 Z" id="path-8"></path>
        <linearGradient x1="52.4285%" y1="-92.1654709%" x2="35.7268417%" y2="82.1943036%" id="linearGradient-10">
            <stop stop-color="#FDFEFF" offset="0%"></stop>
            <stop stop-color="#C4DDFF" offset="100%"></stop>
        </linearGradient>
        <path d="M75.0386266,0 L210,0 L187.642586,150.077253 L75.0386266,150.077253 C33.5959375,150.077253 5.07526566e-15,116.481316 0,75.0386266 C-5.07526566e-15,33.5959375 33.5959375,7.61289849e-15 75.0386266,0 Z" id="path-11"></path>
        <path d="M75.0386266,0 L210,0 L187.642586,150.077253 L75.0386266,150.077253 C33.5959375,150.077253 5.07526566e-15,116.481316 0,75.0386266 C-5.07526566e-15,33.5959375 33.5959375,7.61289849e-15 75.0386266,0 Z" id="path-13"></path>
        <path d="M75.0386266,0 L210,0 L187.642586,150.077253 L75.0386266,150.077253 C33.5959375,150.077253 5.07526566e-15,116.481316 0,75.0386266 C-5.07526566e-15,33.5959375 33.5959375,7.61289849e-15 75.0386266,0 Z" id="path-15"></path>
        <path d="M75.0386266,0 L210,0 L187.642586,150.077253 L75.0386266,150.077253 C33.5959375,150.077253 5.07526566e-15,116.481316 0,75.0386266 C-5.07526566e-15,33.5959375 33.5959375,7.61289849e-15 75.0386266,0 Z" id="path-17"></path>
        <ellipse id="path-19" cx="15.8020088" cy="8.2428096" rx="15.1709905" ry="7.98289167"></ellipse>
        <path d="M75.0386266,0 L210,0 L187.642586,150.077253 L75.0386266,150.077253 C33.5959375,150.077253 5.07526566e-15,116.481316 0,75.0386266 C-5.07526566e-15,33.5959375 33.5959375,7.61289849e-15 75.0386266,0 Z" id="path-21"></path>
        <linearGradient x1="83.7684335%" y1="50%" x2="25.4792365%" y2="214.709195%" id="linearGradient-23">
            <stop stop-color="#BDC7E0" offset="0%"></stop>
            <stop stop-color="#BDC7E0" offset="100%"></stop>
        </linearGradient>
        <path d="M24.9983042,0.290575107 L2.17936882,13.5676223 C0.26461597,14.6836223 0.280585551,17.4536652 2.20971103,18.5457167 L20.4310038,28.8499571 C22.8951103,30.2453562 25.9037795,30.2693047 28.3918403,28.920206 L54.1491787,14.9342833 L24.9983042,0.290575107 Z" id="path-24"></path>
        <path d="M128.602403,67.5619056 L111.690616,141.706455 L110.812289,145.586112 C110.301262,147.789373 108.544608,149.306112 106.548411,149.673322 C105.350692,149.896841 104.057156,149.719622 102.875407,149.034695 L6.30734601,93.0750386 C2.45867681,90.8238798 0.238904943,86.6249099 0.494418251,82.2662833 C0.526357414,81.707485 0.606205323,81.132721 0.733961977,80.5579571 L1.21304943,78.3067983 L8.39936122,44.1562403 L16.6396654,5.04036052 C17.2784487,2.03881545 20.2168517,0.29855794 23.0115285,0.905253219 C23.5385247,1.00104721 24.0655209,1.19263519 24.5605779,1.48001717 L124.705825,58.7009614 C127.819894,60.4731502 129.400882,64.0813906 128.602403,67.5619056" id="path-26"></path>
        <polygon id="path-28" points="14.4598175 0.738412017 114.202631 57.7198712 98.8031635 125.813433 0.160653992 68.645176"></polygon>
        <path d="M111.690616,141.706455 L110.812289,145.586112 C110.301262,147.789373 108.544608,149.306112 106.548411,149.673322 C105.350692,149.896841 104.057156,149.719622 102.875407,149.034695 L6.30734601,93.0750386 C2.45867681,90.8238798 0.238904943,86.6249099 0.494418251,82.2662833 C0.526357414,81.707485 0.606205323,81.132721 0.733961977,80.5579571 L1.21304943,78.3067983 L8.39936122,44.1562403 L16.6396654,5.04036052 C17.2784487,2.03881545 20.2168517,0.29855794 23.0115285,0.905253219 C23.5385247,1.00104721 24.0655209,1.19263519 24.5605779,1.48001717 L124.705825,58.7009614 C127.819894,60.4731502 129.400882,64.0813906 128.602403,67.5619056 L111.690616,141.706455 Z" id="path-30"></path>
        <path d="M113.84619,63.6948618 L112.840106,68.0854197 C112.169384,71.0231021 109.310829,72.747394 106.548091,72.2524584 C105.350373,72.4759777 104.056837,72.3003554 102.875087,71.6138318 L6.30702662,15.6541751 C2.45835741,13.4030163 0.238585551,9.20404635 0.494098859,4.84541974 C0.446190114,3.8555485 0.526038023,2.84971159 0.733642586,1.84387468 L0.973186312,0.742243777 L1.21273004,0.885934764 L111.690297,64.2855914 L113.84619,63.6948618 Z" id="path-32"></path>
        <path d="M87.5673013,161.885228 L83.5851237,161.508052 C84.1670466,155.364191 87.3224621,151.432721 92.8269474,150.148913 L93.7354819,154.044367 C89.974314,154.921582 87.9930614,157.390112 87.5673013,161.885228 Z" id="path-34"></path>
    </defs>
    <g id="蓝盾服务扩展商店" stroke="none" stroke-width="1" fill="none" fill-rule="evenodd">
        <g id="Artboard-Copy-2" transform="translate(-711.000000, -419.000000)">
            <g id="Group-2-Copy">
                <g id="编组-24" transform="translate(56.000000, 0.000000)">
                    <g id="pic_success_210x190" transform="translate(655.000000, 413.000000)">
                        <g id="Group-3" transform="translate(0.000000, 36.922747)">
                            <path d="M76.0386266,0.6 L211.464003,0.6 L188.987411,151.477253 L76.0386266,151.477253 C34.3750236,151.477253 0.6,117.70223 0.6,76.0386266 C0.6,34.3750236 34.3750236,0.6 76.0386266,0.6 Z" id="路径" stroke="#AECBFF" stroke-width="0.8"></path>
                            <g id="Oval-Clipped" transform="translate(1.000000, 1.000000)">
                                <mask id="mask-2" fill="white">
                                    <use xlink:href="#path-1"></use>
                                </mask>
                                <g id="path-1"></g>
                                <ellipse id="Oval" fill="#C0D7FF" fill-rule="nonzero" mask="url(#mask-2)" cx="186.045627" cy="82.6802575" rx="101.946768" ry="157.448498"></ellipse>
                            </g>
                            <g id="Path-6-Clipped" transform="translate(1.000000, 1.000000)">
                                <mask id="mask-4" fill="white">
                                    <use xlink:href="#path-3"></use>
                                </mask>
                                <g id="path-1"></g>
                                <path d="M12.2741407,10.167382 C21.2851833,17.6180258 95.6815001,55.4551559 235.463091,123.678772 L218.97913,173.017167 L19.7399599,144.27897 C-20.2418093,88.5262275 -40.2326939,58.9897468 -40.2326939,55.6695279 C-40.2326939,52.349309 -25.8287504,37.7141159 2.97913656,11.7639485 C0.164763283,3.24892704 3.26309798,2.7167382 12.2741407,10.167382 Z" id="Path-6" stroke="#FAFCFF" stroke-width="0.8" fill="#FFFFFF" fill-rule="nonzero" mask="url(#mask-4)"></path>
                            </g>
                            <g id="Oval-Clipped" transform="translate(1.000000, 1.000000)">
                                <mask id="mask-6" fill="white">
                                    <use xlink:href="#path-5"></use>
                                </mask>
                                <g id="path-1"></g>
                                <ellipse id="Oval" fill="#EDF3FC" fill-rule="nonzero" filter="url(#filter-7)" mask="url(#mask-6)" cx="-3.99239544" cy="32.7296137" rx="44.7148289" ry="55.8798283"></ellipse>
                            </g>
                            <g id="Path-2-Clipped" transform="translate(1.000000, 1.000000)">
                                <mask id="mask-9" fill="white">
                                    <use xlink:href="#path-8"></use>
                                </mask>
                                <g id="path-1"></g>
                                <path d="M5.68599272,115.203558 L58.305009,78.8126932 C65.445111,73.8746594 74.7446828,73.3361235 82.4070647,77.4169493 L195.556526,137.702692 C199.066257,139.571902 200.396162,143.932395 198.526952,147.442125 C198.035353,148.365178 197.348573,149.170059 196.514379,149.800786 L162.126458,175.801198 C98.2040173,169.633496 52.1695481,158.237653 48.8278976,154.873586 C45.486247,151.50952 31.1056121,138.286177 5.68599272,115.203558 Z" id="Path-2" fill="url(#linearGradient-10)" fill-rule="nonzero" opacity="0.738978795" mask="url(#mask-9)" transform="translate(102.529720, 125.247544) rotate(-1.000000) translate(-102.529720, -125.247544) "></path>
                            </g>
                            <g id="Path-12-Clipped" transform="translate(1.000000, 1.000000)">
                                <mask id="mask-12" fill="white">
                                    <use xlink:href="#path-11"></use>
                                </mask>
                                <g id="path-1"></g>
                                <polygon id="Path-12" mask="url(#mask-12)" points="42.3455702 102.180258 150.104108 164.579996 76.0804269 167.639485 3.19391635 122.935622"></polygon>
                            </g>
                            <g id="Oval-Clipped" transform="translate(1.000000, 1.000000)">
                                <mask id="mask-14" fill="white">
                                    <use xlink:href="#path-13"></use>
                                </mask>
                                <g id="path-1"></g>
                                <ellipse id="Oval" fill="#C1D9FF" fill-rule="nonzero" mask="url(#mask-14)" cx="164.946768" cy="132.566524" rx="23.9467681" ry="13.5665236"></ellipse>
                            </g>
                            <g id="Group-15-Clipped" transform="translate(1.000000, 1.000000)">
                                <mask id="mask-16" fill="white">
                                    <use xlink:href="#path-15"></use>
                                </mask>
                                <g id="path-1"></g>
                                <g id="编组" mask="url(#mask-16)">
                                    <g transform="translate(-23.954373, 65.459227)">
                                        <path d="M18.365019,25.3521899 L54.9272678,4.08779742 C55.4458292,3.78620511 56.0895257,3.80002123 56.5946689,4.12358604 L87.6697374,24.0284345 C88.4138325,24.5050577 88.6306612,25.4946454 88.154038,26.2387405 C88.0341305,26.4259378 87.8765289,26.5860934 87.6912834,26.7089946 L28.6760027,65.8626609 L18.365019,25.3521899 Z" id="Path-4" stroke="#A8A6FF" stroke-width="0.8" fill="#B3B1FF" fill-rule="nonzero"></path>
                                        <path d="M0.798479087,21.7556234 L37.3607279,0.491230892 C37.8792893,0.189638587 38.5229857,0.203454705 39.0281289,0.527019517 L70.1031975,20.4318679 C70.8472925,20.9084912 71.0641213,21.8980789 70.5874981,22.642174 C70.4675906,22.8293712 70.309989,22.9895269 70.1247434,23.112428 L11.1094627,62.2660944 L0.798479087,21.7556234 Z" id="Path-4-Copy" stroke="#9694FF" stroke-width="0.8" fill="#B3B1FF" fill-rule="nonzero"></path>
                                        <polygon id="Path-10-Copy-2" stroke="none" fill="#FFFFFF" fill-rule="nonzero" opacity="0.400000006" points="27.0907864 11.1759657 50.6317066 27.0259047 28.7526937 40.8563161 20.7604563 14.4448801"></polygon>
                                        <ellipse id="Oval" stroke="none" fill="#C8DAFA" fill-rule="nonzero" cx="38.3269962" cy="5.98712446" rx="2.39543726" ry="1.99570815"></ellipse>
                                        <ellipse id="Oval-Copy-6" stroke="none" fill="#B3B1FF" fill-rule="nonzero" cx="56.2927757" cy="7.58798283" rx="1.99619772" ry="1.59656652"></ellipse>
                                        <path d="M43.1178707,9.57939914 L60.6701978,21.0387802" id="Path-10" stroke="#FBFBFE" stroke-width="0.8" fill="none" stroke-linecap="round"></path>
                                        <path d="M38.3269962,12.7725322 L55.8793233,24.2319132" id="Path-10-Copy" stroke="#FBFBFE" stroke-width="0.8" fill="none" stroke-linecap="round"></path>
                                    </g>
                                </g>
                            </g>
                            <g id="Group-8-Clipped" transform="translate(1.000000, 1.000000)">
                                <mask id="mask-18" fill="white">
                                    <use xlink:href="#path-17"></use>
                                </mask>
                                <g id="path-1"></g>
                                <g id="编组" mask="url(#mask-18)">
                                    <g transform="translate(148.524715, 120.330472)">
                                        <g id="Mask" transform="translate(17.549249, 11.548536) rotate(-10.000000) translate(-17.549249, -11.548536) translate(2.049249, 3.048536)">
                                            <ellipse id="path-6" fill="#8DAFFB" fill-rule="nonzero" cx="15.8020088" cy="8.2428096" rx="15.1709905" ry="7.98289167"></ellipse>
                                        </g>
                                        <g id="Oval-Copy-Clipped" transform="translate(2.000000, 3.000000)">
                                            <mask id="mask-20" fill="white">
                                                <use xlink:href="#path-19"></use>
                                            </mask>
                                            <g id="path-6"></g>
                                            <ellipse id="Oval-Copy" fill="#FFFFFF" fill-rule="nonzero" mask="url(#mask-20)" transform="translate(16.802009, 7.242810) rotate(-10.000000) translate(-16.802009, -7.242810) " cx="16.8020087" cy="7.24280964" rx="15.1709905" ry="7.98289167"></ellipse>
                                        </g>
                                    </g>
                                </g>
                            </g>
                            <g id="Group-4-Clipped" transform="translate(1.000000, 1.000000)">
                                <mask id="mask-22" fill="white">
                                    <use xlink:href="#path-21"></use>
                                </mask>
                                <g id="path-1"></g>
                                <g id="编组" mask="url(#mask-22)" fill-rule="nonzero">
                                    <g transform="translate(84.275457, 124.638359) rotate(-2.000000) translate(-84.275457, -124.638359) translate(48.775457, 101.138359)">
                                        <path d="M1.61138673,16.598773 L46.8069,44.9362322 C49.3843905,46.5519575 52.6613487,46.5407815 55.2260635,44.9043009 L69.2170141,35.9858802 C71.3313867,34.5952708 70.8411206,31.7645584 69.7871282,30.4793223 L21.610094,3.32811201 C20.9249989,2.91300471 20.0722232,2.89065278 19.3647708,3.26744248 L1.11792666,10.9453309 C-0.413556231,12.292833 -0.483822391,15.3374854 1.61138673,16.598773" id="Fill-45" stroke="none" fill="#8BB4E2"></path>
                                        <path d="M2.06459676,13.5982075 L47.2601101,41.9356668 C49.8376006,43.5529887 53.1145587,43.5402161 55.6792736,41.9037354 L69.6702241,32.9853148 C71.0915169,32.0800616 71.0659656,29.9997354 69.6271063,29.1296067 L22.063304,0.327546596 C21.3782089,-0.0859641335 20.5254333,-0.109912631 19.8179808,0.266877068 L2.20193516,9.67225046 C0.662467482,10.4944822 0.58581349,12.672199 2.06459676,13.5982075" id="Fill-48" stroke="#DDE4F1" stroke-width="0.5" fill="#FFFFFF"></path>
                                    </g>
                                </g>
                                <path d="M142,142 C143.666667,140.046207 145.333333,139.046207 147,139" id="Path-2" stroke="#9C73FF" stroke-width="3" fill-rule="nonzero" mask="url(#mask-22)"></path>
                            </g>
                        </g>
                        <g id="Group-11" transform="translate(7.000000, 21.000000)">
                            <path d="M26.9066241,0.62860827 L51.0136233,14.3684062 C51.9316022,14.8916088 52.3994189,15.9536212 52.1658318,16.9840887 L48.8778897,31.4888219 C48.5848625,32.7815095 47.2993866,33.5918943 46.006699,33.2988671 C45.7711614,33.2454753 45.5450319,33.156837 45.335952,33.0359476 L21.4682393,19.2356998 C20.5697062,18.7161704 20.1069501,17.6779131 20.321294,16.6623692 L23.3699495,2.21808591 C23.6436796,0.92117493 24.9169357,0.09172293 26.2138467,0.36545301 C26.4570043,0.41677461 26.6907156,0.50555112 26.9066241,0.62860827 Z" id="Fill-10-Copy-8" stroke="#FFCA46" stroke-width="0.8" fill="#FFEE6B" fill-rule="nonzero"></path>
                            <path d="M8.32302357,21.3104971 L44.2999824,41.6193263 C45.2249131,42.1414454 45.696659,43.209417 45.4596966,44.2447691 L40.3468729,66.5840738 C40.0511542,67.8761484 38.7639935,68.6838544 37.4719189,68.3881358 C37.2413863,68.3353735 37.0199181,68.2488273 36.8146935,68.1313027 L1.2074883,47.7403641 C0.302113258,47.2218891 -0.164585477,46.1778837 0.0528665588,45.1574745 L4.7959367,22.9002792 C5.07219765,21.603905 6.34707035,20.7769398 7.64344457,21.0532007 C7.88171694,21.1039772 8.1108692,21.1907369 8.32302357,21.3104971 Z" id="Fill-10-Copy-10" stroke="#6FC4CD" stroke-width="0.8" fill="#7BEBEE" fill-rule="nonzero"></path>
                            <path d="M18.3760521,38.2744514 L17.7272642,36.191133 C17.6388599,35.9083015 17.7820531,35.6658184 18.0472549,35.6494048 L21.1132492,35.4574646 C21.3794591,35.4406101 21.6627011,35.6586575 21.7456426,35.9444539 L22.6976885,39.2441323 C22.7797469,39.5302053 22.6349022,39.7734509 22.3742655,39.787416 L21.3667837,39.841109 L24.354816,41.4455693 C24.8217766,41.3655987 25.3501377,41.4656873 25.8568137,41.7429661 C26.3652598,42.0224065 26.7989237,42.4532243 27.0929437,42.9518278 L29.2321178,44.1529982 C30.1805349,44.6926316 30.7430876,45.8811123 30.4723879,46.7959747 L30.1866832,47.7740069 C30.445582,48.290879 30.533841,48.8732948 30.3889133,49.3769769 L28.6722837,55.6447378 C28.4332409,56.5680767 27.5013973,56.8548912 26.5842917,56.2889334 L14.0075803,48.9730373 C13.0309936,48.4374308 12.3850197,47.2781111 12.5729118,46.3808728 L13.9453836,40.2887243 C14.062869,39.7990919 14.4051767,39.4793764 14.8536628,39.3677984 L15.0901202,38.4146153 C15.3147839,37.5232436 16.333393,37.2262558 17.3356765,37.738403 L18.3760521,38.2744514 Z M19.5227958,38.8706106 L19.5624532,38.8913278 L21.6002951,38.7789802 L20.9366941,36.5200837 L18.8432604,36.6465165 L19.5227958,38.8706106 Z M23.0123578,42.6608302 C23.0651084,42.4675273 23.144264,42.2933544 23.2458371,42.1412365 L17.0458383,38.8539614 C16.7072572,38.6792317 16.3773683,38.7749585 16.3098197,39.0407317 L16.1757268,39.5718916 L22.9390157,43.1726373 C22.9435322,42.9962557 22.9678497,42.8243716 23.0123578,42.6608302 Z M23.9259502,43.7152844 L26.2957641,45.0369765 C26.4026786,44.9256511 26.4842155,44.7806896 26.5323412,44.6101653 C26.6206927,44.2981924 26.5835649,43.9409719 26.428823,43.5854407 C26.269391,43.1963113 25.969301,42.8544935 25.5978103,42.6492579 C25.2257124,42.4443321 24.8381168,42.4060612 24.5187258,42.5403192 C24.2430856,42.6446639 24.0420382,42.8673194 23.9563637,43.1779262 C23.9097021,43.3477035 23.9002796,43.5313357 23.9259502,43.7152844 Z M29.1683234,46.6754501 L29.325557,46.1326758 C29.4047057,45.8609836 29.2193722,45.4746619 28.898163,45.2910679 L27.545945,44.5237211 C27.5450323,44.7347171 27.5173377,44.9401651 27.4617735,45.1346977 C27.4148254,45.2994841 27.3495652,45.4511254 27.2681184,45.5870635 L29.1683234,46.6754501 Z M26.8627654,55.1791739 C27.1699366,55.3668397 27.4829272,55.2700758 27.5617989,54.9628928 L29.2538458,48.7076756 C29.3425132,48.3954941 29.1591542,47.9923225 28.8439846,47.808738 L15.8998033,40.6803498 C15.5657454,40.5064034 15.2334548,40.6130155 15.1593917,40.9177448 L13.7623372,47.022437 C13.69807,47.3221678 13.9114644,47.7100133 14.2375239,47.8880411 L26.8627654,55.1791739 Z M25.3365552,48.4822404 C25.4190236,48.1729466 25.7438576,48.0700594 26.0612538,48.2528632 C26.378187,48.4359033 26.5665911,48.8358696 26.4829044,49.145785 L25.8906136,51.3833387 C25.6524741,52.3062166 24.7031958,52.6019274 23.7636966,52.0473964 L18.0028913,48.7445012 C17.0340837,48.2049252 16.4114727,47.0336842 16.6203833,46.1257209 L17.1420848,43.9241866 C17.2160252,43.6192444 17.5434612,43.5150295 17.8725953,43.6918439 C18.2012664,43.8688945 18.4060992,44.2604777 18.3309406,44.5660416 L17.8004153,46.7720783 C17.7291467,47.0753816 17.9347469,47.4672043 18.2582152,47.6465543 L24.0410795,50.9381934 C24.3557102,51.122053 24.6745173,51.0223211 24.7530881,50.7152916 L25.3365552,48.4822404 Z M27.2681728,37.4749459 C27.548928,37.6250806 27.7820622,37.8889154 27.9005983,38.1997153 L28.8794214,40.7929542 C29.0181246,41.1635379 28.9750697,41.5416956 28.7669126,41.7836447 C28.5593663,42.0252822 28.2179027,42.0948194 27.8711166,41.9661469 L25.4289729,41.0730355 C25.374285,41.0537487 25.3188495,41.0275081 25.2655633,40.9985163 C24.987091,40.8472167 24.7514569,40.583409 24.6296353,40.275534 C24.4829459,39.909993 24.5202411,39.5360228 24.7262098,39.2951903 L26.1895462,37.5950549 C26.3992161,37.3510853 26.7482926,37.2776635 27.1013506,37.4018872 C27.1591633,37.4220764 27.2143729,37.4462162 27.2681728,37.4749459 Z M26.9903189,38.3908564 L25.5279354,40.0905057 L27.9796668,40.9796924 L26.9903189,38.3908564 Z" id="Combined-Shape" fill="#FFFFFF" fill-rule="nonzero" transform="translate(21.540400, 46.017818) rotate(-3.000000) translate(-21.540400, -46.017818) "></path>
                            <path d="M29,9 L44.3170736,17.7267877" id="Line-3" stroke="#FFFFFF" stroke-width="0.8" stroke-linecap="round" stroke-linejoin="round"></path>
                            <path d="M27,15 L42.3170736,23.7267877" id="Line-3-Copy" stroke="#FFFFFF" stroke-width="0.8" stroke-linecap="round" stroke-linejoin="round"></path>
                        </g>
                        <g id="Group-50" transform="translate(129.939418, 80.348647) rotate(-3.000000) translate(-129.939418, -80.348647) translate(63.939418, 3.348647)">
                            <path d="M60.131384,123.92693 L36.879673,135.213059 C34.9649202,136.327463 35.0208137,140.764321 37.3427909,142.180476 L55.5640837,152.486312 C58.0281901,153.880115 61.0368593,153.90566 63.5249202,152.554965 L89.2822586,138.570639 L60.131384,123.92693 Z" id="Fill-1" fill="url(#linearGradient-23)" fill-rule="nonzero"></path>
                            <g id="Group-12" transform="translate(35.133080, 121.339056)">
                                <g id="Mask" fill="#FFFFFF" fill-rule="nonzero">
                                    <path d="M24.9983042,0.290575107 L2.17936882,13.5676223 C0.26461597,14.6836223 0.280585551,17.4536652 2.20971103,18.5457167 L20.4310038,28.8499571 C22.8951103,30.2453562 25.9037795,30.2693047 28.3918403,28.920206 L54.1491787,14.9342833 L24.9983042,0.290575107 Z" id="path-9"></path>
                                </g>
                                <g id="Path-5-Clipped">
                                    <mask id="mask-25" fill="white">
                                        <use xlink:href="#path-24"></use>
                                    </mask>
                                    <g id="path-9"></g>
                                    <path d="M19.8639909,3.33951394 C38.9414508,10.6661011 43.3904322,18.6095321 33.210935,27.1698069 C23.0314379,35.7300817 36.8183352,33.5198868 74.5716271,20.5392222 L34.9316775,-5.65586392 L20.1983043,-3.038 L19.8639909,3.33951394 Z" id="Path-5" fill="#E3ECF9" fill-rule="nonzero" opacity="0.704961868" mask="url(#mask-25)"></path>
                                </g>
                            </g>
                            <path d="M130.965901,66.0576206 L113.84651,141.128179 L112.840426,145.518736 C112.169703,148.456419 109.311148,150.180711 106.548411,149.685775 C105.941567,149.589981 105.334722,149.366462 104.759817,149.031183 L6.41913308,92.0337579 C2.85791635,89.9741871 0.686053232,86.2701528 0.494418251,82.2787365 C0.446509506,81.2888652 0.526357414,80.2830283 0.733961977,79.2771914 L0.973505703,78.1755605 L8.39936122,44.1686936 L16.9430875,5.05281373 C17.4062053,2.83358627 20.1849125,1.31684807 23.0115285,0.917706438 C24.7841521,0.662255794 26.5567757,0.837878112 27.802403,1.54036738 L127.005445,57.0210541 C130.167422,58.8411399 131.78035,62.4972773 130.965901,66.0576206" id="Fill-5" fill="#666666" fill-rule="nonzero"></path>
                            <g id="Group-9" transform="translate(0.000000, 0.012773)">
                                <g id="Group-7" transform="translate(0.000000, 0.000000)">
                                    <g id="Mask" transform="translate(0.000000, 0.000000)" fill="#12091D" fill-rule="nonzero">
                                        <path d="M128.602403,67.5619056 L111.690616,141.706455 L110.812289,145.586112 C110.301262,147.789373 108.544608,149.306112 106.548411,149.673322 C105.350692,149.896841 104.057156,149.719622 102.875407,149.034695 L6.30734601,93.0750386 C2.45867681,90.8238798 0.238904943,86.6249099 0.494418251,82.2662833 C0.526357414,81.707485 0.606205323,81.132721 0.733961977,80.5579571 L1.21304943,78.3067983 L8.39936122,44.1562403 L16.6396654,5.04036052 C17.2784487,2.03881545 20.2168517,0.29855794 23.0115285,0.905253219 C23.5385247,1.00104721 24.0655209,1.19263519 24.5605779,1.48001717 L124.705825,58.7009614 C127.819894,60.4731502 129.400882,64.0813906 128.602403,67.5619056" id="path-11"></path>
                                    </g>
                                    <g id="Group-13-Clipped" transform="translate(0.000000, 0.000000)">
                                        <mask id="mask-27" fill="white">
                                            <use xlink:href="#path-26"></use>
                                        </mask>
                                        <g id="path-11"></g>
                                        <g id="Group-13" mask="url(#mask-27)">
                                            <g transform="translate(7.000000, 7.000000)" id="编组">
                                                <g transform="translate(0.186312, 0.184549)">
                                                    <g id="Mask" fill="#5EA3FA">
                                                        <polygon id="path-13" points="14.4598175 0.738412017 114.202631 57.7198712 98.8031635 125.813433 0.160653992 68.645176"></polygon>
                                                    </g>
                                                    <g id="Oval-Clipped">
                                                        <mask id="mask-29" fill="white">
                                                            <use xlink:href="#path-28"></use>
                                                        </mask>
                                                        <use id="path-13" fill="#6E9CFF" xlink:href="#path-28"></use>
                                                        <ellipse id="Oval" fill="#5EC3FA" fill-rule="nonzero" opacity="0.5" mask="url(#mask-29)" cx="97.3728913" cy="122.752017" rx="41.121673" ry="41.111588"></ellipse>
                                                    </g>
                                                </g>
                                            </g>
                                        </g>
                                    </g>
                                    <g id="Path-3-Clipped" transform="translate(0.000000, 0.000000)">
                                        <mask id="mask-31" fill="white">
                                            <use xlink:href="#path-30"></use>
                                        </mask>
                                        <g id="path-11"></g>
                                        <g id="Group-2-Copy-2" mask="url(#mask-31)" fill="#DFE9F8" fill-rule="nonzero">
                                            <g transform="translate(12.556163, 16.770786)">
                                                <path d="M15.8064246,0.277204303 L36.8958985,12.3538675 C37.698972,12.813739 38.1082309,13.7472 37.9038825,14.6529346 L35.0274993,27.4019413 C34.7711509,28.5381555 33.6465808,29.2504473 32.5157017,28.9928895 C32.3096469,28.9459605 32.1118225,28.8680514 31.9289136,28.7617951 L11.0487742,16.6319993 C10.2627124,16.1753563 9.85788052,15.2627749 10.0453945,14.3701576 L12.7124432,1.67428348 C12.9519099,0.534357248 14.0657898,-0.194693681 15.2003636,0.0459026535 C15.4130847,0.0910120271 15.6175418,0.169042658 15.8064246,0.277204303 Z" id="Fill-10" opacity="0.300000012"></path>
                                                <path d="M10.8064246,20.2772043 L31.8958985,32.3538675 C32.698972,32.813739 33.1082309,33.7472 32.9038825,34.6529346 L30.0274993,47.4019413 C29.7711509,48.5381555 28.6465808,49.2504473 27.5157017,48.9928895 C27.3096469,48.9459605 27.1118225,48.8680514 26.9289136,48.7617951 L6.0487742,36.6319993 C5.26271243,36.1753563 4.85788052,35.2627749 5.04539452,34.3701576 L7.71244321,21.6742835 C7.95190992,20.5343572 9.06578979,19.8053063 10.2003636,20.0459027 C10.4130847,20.091012 10.6175418,20.1690427 10.8064246,20.2772043 Z" id="Fill-10-Copy" opacity="0.300000012"></path>
                                                <path d="M5.80642459,40.2772043 L26.8958985,52.3538675 C27.698972,52.813739 28.1082309,53.7472 27.9038825,54.6529346 L25.0274993,67.4019413 C24.7711509,68.5381555 23.6465808,69.2504473 22.5157017,68.9928895 C22.3096469,68.9459605 22.1118225,68.8680514 21.9289136,68.7617951 L1.0487742,56.6319993 C0.262712431,56.1753563 -0.142119485,55.2627749 0.0453945247,54.3701576 L2.71244321,41.6742835 C2.95190992,40.5343572 4.06578979,39.8053063 5.20036363,40.0459027 C5.41308467,40.091012 5.61754182,40.1690427 5.80642459,40.2772043 Z" id="Fill-10-Copy-2" opacity="0.300000012"></path>
                                                <polygon id="Fill-10-Copy-4" opacity="0.5" points="11.1555148 25.815451 25.067944 33.6468281 24.6658417 35.3841997 10.813688 27.5424741"></polygon>
                                                <polygon id="Fill-10-Copy-4-Copy-2" opacity="0.5" points="6.20785076 46.8168215 20.1202799 54.6481986 19.7181776 56.3855702 5.86602396 48.5438446"></polygon>
                                                <polygon id="Fill-10-Copy-4-Copy" opacity="0.5" points="16.1555148 5.815451 30.067944 13.6468281 29.6658417 15.3841997 15.813688 7.5424741"></polygon>
                                                <polygon id="Fill-10-Copy-5" opacity="0.5" points="10.1555148 29.815451 24.067944 37.6468281 23.6658417 39.3841997 9.813688 31.542474"></polygon>
                                                <polygon id="Fill-10-Copy-5-Copy-2" opacity="0.5" points="5.20785076 50.8168215 19.1202799 58.6481986 18.7181776 60.3855702 4.86602396 52.5438445"></polygon>
                                                <polygon id="Fill-10-Copy-5-Copy" opacity="0.5" points="15.1555148 9.815451 29.067944 17.6468281 28.6658417 19.3841997 14.813688 11.542474"></polygon>
                                            </g>
                                        </g>
                                        <path d="M67.0512751,94.1314928 C57.4837475,95.818506 47.9327256,87.0061024 45.7184706,74.4484384 C43.5042156,61.8907744 49.4652209,50.3431818 59.0327484,48.6561686 C68.600276,46.9691553 78.1512979,55.7815589 80.3655529,68.339223 C82.5798079,80.896887 76.6188027,92.4444795 67.0512751,94.1314928 Z" id="Oval" fill="#37DD62" fill-rule="nonzero" mask="url(#mask-31)"></path>
                                        <path d="M66.6612921,90.8501846 C58.822127,92.2324409 50.919274,84.5740976 49.009776,73.744796 C47.1002779,62.9154945 51.9072229,53.0160709 59.746388,51.6338146 C67.5855531,50.2515582 75.4884061,57.9099016 77.3979041,68.7392031 C79.3074022,79.5685047 74.5004572,89.4679283 66.6612921,90.8501846 Z" id="Oval" fill-rule="nonzero" mask="url(#mask-31)"></path>
                                        <polyline id="Path-7" stroke="#FFFFFF" stroke-width="4" fill-rule="nonzero" mask="url(#mask-31)" points="52.8047468 67.3837162 58.0123797 79.2274776 76.390393 67.8631783"></polyline>
                                        <path d="M71.9294142,6.35209828 C119.705953,87.2967944 112.237344,127.12717 49.5235865,125.843226 C-13.1901709,124.559282 16.5296329,143.158785 138.682998,181.641734 L135.673355,47.9959128 L71.9294142,6.35209828 Z" id="Path-14" fill="#BABAFF" fill-rule="nonzero" opacity="0.219999999" mask="url(#mask-31)"></path>
                                    </g>
                                </g>
                            </g>
                            <g id="Group-14" transform="translate(-0.000000, 77.433476)">
                                <g id="Mask" fill="#D3DBED" fill-rule="nonzero">
                                    <path d="M113.84619,63.6948618 L112.840106,68.0854197 C112.169384,71.0231021 109.310829,72.747394 106.548091,72.2524584 C105.350373,72.4759777 104.056837,72.3003554 102.875087,71.6138318 L6.30702662,15.6541751 C2.45835741,13.4030163 0.238585551,9.20404635 0.494098859,4.84541974 C0.446190114,3.8555485 0.526038023,2.84971159 0.733642586,1.84387468 L0.973186312,0.742243777 L1.21273004,0.885934764 L111.690297,64.2855914 L113.84619,63.6948618 Z" id="path-18"></path>
                                </g>
                                <g id="Oval-Clipped">
                                    <mask id="mask-33" fill="white">
                                        <use xlink:href="#path-32"></use>
                                    </mask>
                                    <g id="path-18"></g>
                                </g>
                            </g>
                            <path d="M53.0749049,113.132704 C53.0749049,114.772378 52.0975665,116.102318 50.8918631,116.102318 C49.6845627,116.102318 48.7072243,114.772378 48.7072243,113.132704 C48.7072243,111.49303 49.6845627,110.16309 50.8918631,110.16309 C52.0975665,110.16309 53.0749049,111.49303 53.0749049,113.132704" id="Fill-34" fill="#9B9BCB" fill-rule="nonzero" opacity="0.638253348"></path>
                        </g>
                        <g id="Mask" transform="translate(168.000000, 101.000000)">
                            <path d="M8.32302357,0.310497097 L44.2999824,18.6193263 C45.2249131,19.1414454 45.696659,20.209417 45.4596966,21.2447691 L40.3468729,43.5840738 C40.0511542,44.8761484 38.7639935,45.6838544 37.4719189,45.3881358 C37.2413863,45.3353735 37.0199181,45.2488273 36.8146935,45.1313027 L1.2074883,26.7403641 C0.302113258,26.2218891 -0.164585477,25.1778837 0.0528665588,24.1574745 L4.7959367,1.9002792 C5.07219765,0.603904997 6.34707035,-0.223060203 7.64344457,0.053200697 C7.88171694,0.103977197 8.1108692,0.190736897 8.32302357,0.310497097 Z" id="Fill-10-Copy-10-Copy" stroke="#FFC935" stroke-width="0.8" fill="#FFEE6B" fill-rule="nonzero"></path>
                            <path d="M11,13 L36.3510551,26" id="Line-3-Copy" stroke="#FFFFFF" stroke-width="1.8" opacity="0.821219308" stroke-linecap="round" stroke-linejoin="round"></path>
                            <path d="M10,20 L35.3510551,33" id="Line-3-Copy-Copy" stroke="#FFFFFF" stroke-width="1.8" opacity="0.821219308" stroke-linecap="round" stroke-linejoin="round"></path>
                            <path d="M38.9895675,67.400535 C45.7493418,66.2346665 49.8090892,69.032938 51.1688099,75.7953497" id="Path-9" stroke="#FF6885" stroke-width="4" fill-rule="nonzero" transform="translate(45.079189, 71.469360) rotate(-70.000000) translate(-45.079189, -71.469360) "></path>
                        </g>
                        <path d="M9.96442929,172.540956 L13.3210105,166.398208 L14.6373138,167.117475 C21.349715,170.785331 26.5233288,169.55936 31.3805957,163.09861 L32.2819852,161.899654 L37.8771159,166.106138 L36.9757264,167.305095 C30.0498046,176.517404 21.0764532,178.612898 11.2807326,173.260224 L9.96442929,172.540956 Z" id="Path-8" stroke="#FFFFFF" stroke-width="3" fill="#FFDC46" fill-rule="nonzero"></path>
                        <path d="M145.392156,17.3662832 C144.601711,10.9479939 146.675846,7.21992374 151.61456,6.1820727" id="Path-10" stroke="#64FBFF" stroke-width="4" fill-rule="nonzero" transform="translate(148.421565, 11.774178) rotate(-95.000000) translate(-148.421565, -11.774178) "></path>
                        <mask id="mask-35" fill="white">
                            <use xlink:href="#path-34"></use>
                        </mask>
                        <use id="Mask" fill="#379DFF" fill-rule="nonzero" transform="translate(88.660303, 156.017071) rotate(100.000000) translate(-88.660303, -156.017071) " xlink:href="#path-34"></use>
                        <path d="M201.932435,86.6848138 C207.973064,87.1637038 211.973064,83.8333699 213.932435,76.6938121" id="Path-2-Copy" stroke="#FF73A7" stroke-width="4" fill-rule="nonzero" transform="translate(207.932435, 81.711890) rotate(7.000000) translate(-207.932435, -81.711890) "></path>
                    </g>
                </g>
            </g>
        </g>
    </g>
</svg>