<svg xmlns="http://www.w3.org/2000/svg" viewBox="0 0 440 200" class="design-iconfont">
  <defs>
    <linearGradient x1="51.9445544%" y1="48.7717092%" x2="52.6037065%" y2="51.2359262%" id="53xtui0e4__ve6xsru9la">
      <stop stop-color="#E8EAED" stop-opacity=".2" offset="0%"/>
      <stop stop-color="#E8EAED" stop-opacity=".6" offset="100%"/>
    </linearGradient>
    <linearGradient x1="49.9970998%" y1="1.17715993%" x2="49.9970998%" y2="94.7241498%" id="53xtui0e4__giw1a1o9bb">
      <stop stop-color="#EBEDF0" stop-opacity=".9917" offset="0%"/>
      <stop stop-color="#E1E3E6" offset="100%"/>
    </linearGradient>
    <linearGradient x1="50.0091292%" y1=".00333156%" x2="50.0091292%" y2="98.8006397%" id="53xtui0e4__em7tjp0ezc">
      <stop stop-color="#FFF" offset="0%"/>
      <stop stop-color="#F2F4F7" offset="100%"/>
    </linearGradient>
    <linearGradient x1="50.0021238%" y1="-.35%" x2="50.0021238%" y2="98.86%" id="53xtui0e4__dcjxwdcr6d">
      <stop stop-color="#EDEFF2" offset="0%"/>
      <stop stop-color="#E8EAED" offset="100%"/>
    </linearGradient>
    <linearGradient x1="54.9383885%" y1="49.9813333%" x2="43.0896438%" y2="78.8942222%" id="53xtui0e4__msi79zmpge">
      <stop stop-color="#D7D8DB" offset="0%"/>
      <stop stop-color="#BEBFC2" offset="100%"/>
    </linearGradient>
    <linearGradient x1="49.9981172%" y1="-.0041318%" x2="49.9981172%" y2="99.8912657%" id="53xtui0e4__79p3w4qs6f">
      <stop stop-color="#DDDEE0" offset=".1530828%"/>
      <stop stop-color="#C3C5C7" offset="99.8%"/>
    </linearGradient>
    <linearGradient x1="49.9981557%" y1="24.9933914%" x2="49.9981557%" y2="73.9860656%" id="53xtui0e4__qa0s26n9ug">
      <stop stop-color="#DDDEE0" offset="0%"/>
      <stop stop-color="#BEC0C2" offset="100%"/>
    </linearGradient>
    <linearGradient x1="49.9965659%" y1="-.22664835%" x2="49.9965659%" y2="98.4436813%" id="53xtui0e4__ezbcpkz5qh">
      <stop stop-color="#FEFEFE" offset="0%"/>
      <stop stop-color="#F2F4F7" offset="100%"/>
    </linearGradient>
    <linearGradient x1="49.9966578%" y1="24.919385%" x2="49.9966578%" y2="74.0967914%" id="53xtui0e4__yqipcmgudi">
      <stop stop-color="#F3F4F5" offset="0%"/>
      <stop stop-color="#F3F5F7" offset="100%"/>
    </linearGradient>
  </defs>
  <g fill="none" fill-rule="evenodd">
    <path d="M29.7692176,147.159088 C49.3051105,142.813947 77.288957,140.838884 96.428852,141.76058 C115.436748,142.682276 131.276661,146.10572 132.464654,145.315695 C136.292633,142.813947 144.344589,141.628909 143.948591,142.682276 C143.552594,143.603973 138.272623,146.764075 139.988613,147.159088 C141.704604,147.685771 158.600511,149.660835 165.728472,151.109215 C172.724434,152.557595 177.344408,154.005975 178.7964,154.005975 C180.380392,154.005975 182.756379,151.899241 192.920323,152.952608 C193.052322,153.347621 190.676335,153.479292 188.432348,154.66433 C186.18836,155.849368 184.472369,155.717697 184.472369,155.981039 C184.472369,156.244381 185.792362,155.586026 188.432348,157.297748 C191.072333,159.00947 195.692308,159.536154 195.692308,159.931167 C195.692308,160.326179 189.75234,162.301243 179.852395,159.141141 C177.344408,158.351115 171.53644,165.198003 144.476589,167.173067 C117.416737,169.148131 71.8769867,170.596511 71.8769867,170.596511 C71.8769867,170.596511 74.6489715,174.151626 78.6089498,175.073322 C78.8729483,175.468335 77.0249585,176.785044 69.2370012,175.336664 C61.4490439,173.888284 57.3570663,170.596511 57.3570663,170.596511 C57.3570663,170.596511 42.0451503,169.674814 36.2371821,168.621447 C30.429214,167.699751 23.8292502,165.198003 19.2092755,164.67132 C14.5893008,164.144636 -6.13458551,161.774559 1.78537106,156.376052 C1.91737033,156.376052 10.2333247,151.504228 29.7692176,147.159088 Z" fill="url(#53xtui0e4__ve6xsru9la)" transform="translate(127 12)"/>
    <path fill="#C4C6CC" fill-rule="nonzero" d="M29.4505495 151.384615L29.4505495 163.670524 41.8461538 163.670524 41.8461538 166.153846 27.0769231 166.153846 27.0769231 151.515317z" transform="translate(127 12)"/>
    <path fill="#C4C6CC" fill-rule="nonzero" d="M39.3846154 2.48332199L27.0987066 2.48332199 27.0987066 14.7692308 24.6153846 14.7692308 24.6153846 2.48332199 24.6153846 2.48332199 24.6153846 0 39.2539142 0z" transform="translate(127 12)"/>
    <path fill="#C4C6CC" fill-rule="nonzero" d="M156.285909 14.7692308L156.285909 2.37362637 144 2.37362637 144 0 156.285909 0 156.285909 0 158.769231 0 158.769231 14.7692308z" transform="translate(127 12)"/>
    <path d="M35.7893985,9.84615385 L147.595217,9.84615385 C148.391933,9.84615385 148.923077,10.3755656 148.923077,11.1696833 L148.923077,152.522624 C148.923077,153.316742 148.391933,153.846154 147.595217,153.846154 L35.7893985,153.846154 C34.9926825,153.846154 34.4615385,153.316742 34.4615385,152.522624 L34.4615385,11.1696833 C34.4615385,10.3755656 34.9926825,9.84615385 35.7893985,9.84615385 Z" fill="url(#53xtui0e4__giw1a1o9bb)" fill-rule="nonzero" transform="translate(127 12)"/>
    <path fill="url(#53xtui0e4__em7tjp0ezc)" fill-rule="nonzero" d="M44.3076923 19.6923077H139.0769231V143.9999997H44.3076923z" transform="translate(127 12)"/>
    <path fill="#DCDEE0" fill-rule="nonzero" d="M64 24.6153846H118.1538462V27.07692306H64z" transform="translate(127 12)"/>
    <path fill="#D1D3D6" fill-rule="nonzero" d="M44.3076923 144H139.0769231V146.46153845999999H44.3076923z" transform="translate(127 12)"/>
    <path fill="url(#53xtui0e4__dcjxwdcr6d)" fill-rule="nonzero" d="M64 4.92307692H118.1538462V24.61538462H64z" transform="translate(127 12)"/>
    <g fill="#C4C6CC" fill-rule="nonzero">
      <path d="M0 0H5.08959276V2.33846154H0z" transform="translate(195.923077 58.769231)"/>
      <path d="M10.0452489 0H15.134841660000001V2.33846154H10.0452489z" transform="translate(195.923077 58.769231)"/>
      <path d="M20.0904977 0H25.180090460000002V2.33846154H20.0904977z" transform="translate(195.923077 58.769231)"/>
      <path d="M30.1357466 0H35.22533936V2.33846154H30.1357466z" transform="translate(195.923077 58.769231)"/>
      <path d="M40.1809955 0H45.270588260000004V2.33846154H40.1809955z" transform="translate(195.923077 58.769231)"/>
    </g>
    <g fill-rule="nonzero">
      <path fill="#E5E7EC" d="M32.3769231 2.3857988000000034A32.3769231 32.3408284 0 1 0 32.3769231 67.0674556A32.3769231 32.3408284 0 1 0 32.3769231 2.3857988000000034Z" transform="translate(203.307692 78.461538)"/>
      <path d="M51.75,59.6449704 L55.8634615,63.8863905 C55.0673077,64.9467456 55.0673077,65.8745562 55.8634615,66.8023669 C56.6596154,67.7301775 58.7826923,70.1159763 62.1,73.8272189 L62.1,63.8863905 L54.0057692,57.2591716 L51.75,59.6449704 Z" fill="#E5E7EC" transform="translate(203.307692 78.461538)"/>
      <path fill="#DCDDE0" transform="rotate(135 106.20111501 124.29261376)" d="M3.84799946 0.0000103020957L8.75761485 0.0000103714758 8.75761502 12.459182 3.84799964 12.4591819z"/>
      <path d="M3.58269231,7.68750851 L8.89038462,7.68750851 C9.55384615,7.68750851 10.2173077,8.21768602 10.2173077,8.88040792 L12.2076923,36.0520056 C12.2076923,36.8472718 11.6769231,37.3774493 11.0134615,37.5099937 C11.0134615,37.5099937 11.0134615,37.5099937 10.8807692,37.5099937 L1.32692308,37.5099937 C0.530769231,37.5099937 -2.23875619e-12,36.9798162 -2.23875619e-12,36.1845499 L-2.23875619e-12,36.0520056 L2.25576923,8.88040792 C2.25576923,8.21768602 2.91923077,7.68750851 3.58269231,7.68750851 Z" fill="url(#53xtui0e4__msi79zmpge)" transform="rotate(-45 291.32984316 -234.94741595)"/>
      <path fill="url(#53xtui0e4__79p3w4qs6f)" d="M32.3769231 0.6627219000000011A31.7134615 31.6781065 0 1 0 32.3769231 64.0189349A31.7134615 31.6781065 0 1 0 32.3769231 0.6627219000000011Z" transform="translate(203.307692 78.461538)"/>
      <path d="M32.3769231,64.6816568 C14.4634615,64.6816568 0,50.2343195 0,32.3408284 C0,14.4473373 14.4634615,0 32.3769231,0 C50.2903846,0 64.7538462,14.4473373 64.7538462,32.3408284 C64.7538462,50.2343195 50.2903846,64.6816568 32.3769231,64.6816568 Z M32.3769231,1.32544379 C15.2596154,1.32544379 1.32692308,15.2426036 1.32692308,32.3408284 C1.32692308,49.4390533 15.2596154,63.356213 32.3769231,63.356213 C49.4942308,63.356213 63.4269231,49.4390533 63.4269231,32.3408284 C63.4269231,15.2426036 49.4942308,1.32544379 32.3769231,1.32544379 Z" fill="url(#53xtui0e4__qa0s26n9ug)" transform="translate(203.307692 78.461538)"/>
      <path fill="url(#53xtui0e4__ezbcpkz5qh)" d="M24.8134615 0.6627218999999975A24.15 24.1230769 0 1 0 24.8134615 48.908875699999996A24.15 24.1230769 0 1 0 24.8134615 0.6627218999999975Z" transform="translate(210.871154 86.016568)"/>
      <path d="M24.8134615,49.5715976 C11.1461538,49.5715976 0,38.4378698 0,24.7857988 C0,11.1337278 11.1461538,0 24.8134615,0 C38.4807692,0 49.6269231,11.1337278 49.6269231,24.7857988 C49.6269231,38.4378698 38.4807692,49.5715976 24.8134615,49.5715976 Z M24.8134615,1.32544379 C11.8096154,1.32544379 1.32692308,11.7964497 1.32692308,24.7857988 C1.32692308,37.7751479 11.8096154,48.2461538 24.8134615,48.2461538 C37.8173077,48.2461538 48.3,37.7751479 48.3,24.7857988 C48.3,11.7964497 37.8173077,1.32544379 24.8134615,1.32544379 Z" fill="url(#53xtui0e4__yqipcmgudi)" transform="translate(210.871154 86.016568)"/>
      <path d="M31.1826923,16.3029586 C38.8788462,16.3029586 45.6461538,20.6769231 48.9634615,27.1715976 C45.6461538,25.0508876 41.6653846,23.7254438 37.4192308,23.7254438 C32.1115385,23.7254438 27.2019231,25.7136095 23.4865385,29.0272189 L18.5769231,20.8094675 C22.0269231,18.0260355 26.4057692,16.3029586 31.1826923,16.3029586 Z" fill="#FFF" transform="translate(203.307692 78.461538)"/>
      <path fill="#D1D3D6" d="M62.2326923 70.7786982L62.2326923 73.6946746 72.1846154 85.3585799 72.1846154 82.5751479z" transform="translate(203.307692 78.461538)"/>
    </g>
  </g>
</svg>
