<svg viewBox="0 0 1024 1024" version="1.1" xmlns="http://www.w3.org/2000/svg"><path fill="#313238" fill-rule="evenodd" d="M768 576C874.038672 576 960 661.961328 960 768 960 874.038672 874.038672 960 768 960 661.961328 960 576 874.038672 576 768 576 661.961328 661.961328 576 768 576ZM516.4962016 816.0186336C520.7682816 838.5304768 527.9880192 859.9987488 537.7387648 880.0067968L367.2589632 880 367.2589632 816 516.4962016 816.0186336ZM325.6589632 816L325.6589632 880 305.888 880 270.56 816 325.6589632 816ZM660.5660864 678.9329472C632.6086816 708.4980352 633.2311776 755.4781728 661.9685792 784.258256L746.0582912 869.901008 747.6232864 871.388512C760.145744 882.618544 778.8331808 882.8960448 791.6706368 872.038512 792.7231328 871.4760128 793.6856288 870.7560096 794.528128 869.8985056L844.0104576 819.4908608 844.085456 819.5658592 874.6728512 788.4132672C902.2652576 760.0831872 903.200256 714.6930528 876.8003456 685.207968 850.397936 655.7203808 805.933088 652.4953728 775.6956896 677.872944 775.0356928 678.2954464 774.4181952 678.8079488 773.8306976 679.3929504L772.360704 680.8704544 770.698208 682.5204576 770.358208 682.8679616 765.9257248 678.3629472 763.9657312 676.4079424C734.6433312 648.2428576 688.5259904 649.3678624 660.5660864 678.9329472ZM714.6884 675.2229376C729.2258496 675.2229376 743.1683008 681.1029536 753.4482656 691.5729856L755.0807616 693.2354912C756.7807552 694.9679968 756.7757568 697.775504 755.0682624 699.5005088L716.4808928 738.5156224C714.7759008 740.2406272 714.7708992 743.0506368 716.4708928 744.78064 716.4708928 744.78064 722.033376 753.4481664 733.9783328 762.6131936 741.0008096 768.0007104 764.1807296 769.3107136 777.7506848 755.500672 777.7506848 755.500672 789.7531424 744.3556384 794.0006272 740.7506304 798.2481152 737.1456192 805.6905888 744.8981408 807.3805824 746.6206464L843.4879584 783.4057536C843.5504576 783.4682528 852.0004288 793.0007808 845.7504512 799.5008 838.5754752 806.9608224 835.245488 801.8033088 832.0004992 798.5007968L818.750544 787.0007648C814.2830592 782.4532512 808.0005792 782.250752 805.5005888 784.7507584 802.2506016 788.000768 806.8480832 794.4232864 811.3130688 798.9708L825.0930208 813.00584C826.788016 814.733344 827.2505152 820.750864 824.2505248 824.0008736 821.2505344 827.2508832 815.4455552 826.4758784 813.75056 824.7508736L798.7506112 808.2508256C789.9956416 799.5658016 786.380656 800.1208032 784.5006624 802.0008096 779.2506784 807.2508224 785.2506592 813.5008416 789.5006432 818.7508576L804.750592 833.0008992C806.4455872 834.7284032 805.7505888 841.2509216 802.7505984 844.0009312 799.750608 846.7509376 792.4456352 845.9784384 790.75064 844.2509312L775.0006944 830.0008896C770.5332096 825.4508768 764.1282304 819.62336 760.0007456 823.7508704 756.5007552 827.2508832 763.0357344 835.7009056 767.50072 840.2509216L779.7506784 852.5009568C781.6281696 854.4159616 780.2256768 860.9834816 778.0006816 863.2509888 775.5056928 865.7934944 768.6757152 864.8334912 766.4957216 862.7659872L766.1657248 862.4409856 675.916032 770.523216 674.0285376 768.5082112C655.5815424 747.7457984 655.231648 716.5484736 672.4765472 695.412976L675.9285312 691.5729856C686.208496 681.1029536 700.148448 675.2229376 714.6884 675.2229376ZM860.8679008 695.690496C881.4028288 717.23056 880.502832 756.9331776 859.5004032 778.0007392L858.1579392 776.6648896C857.7426336 776.2514752 857.2476352 775.7586016 856.6970816 775.210176L847.289088 765.8044896C846.7863744 765.297984 846.348784 764.8554208 846.0004512 764.5006976 846.0004512 764.5006976 811.5005696 735.0006112 811.2505696 730.5005984 811.0005696 726.0005856 821.7505344 718.5005632 821.7505344 718.5005632 823.750528 714.5005536 822.2505312 709.0005376 819.2505408 706.500528 813.64056 701.8255168 806.3930848 705.6955264 801.7506016 710.2505408L766.2507232 745.2506432C764.0007296 747.555648 764.0007296 750.250656 754.0007648 752.7506656 752.0607712 753.2356672 742.0108064 751.2956608 739.7508128 749.0006528L733.0008384 742.2506336 769.0007136 707.7505344 777.2506848 700.0005088 786.250656 692.2504864C807.5455808 671.4904256 840.3329696 674.1504352 860.8679008 695.690496ZM528.115168 678.4074624C520.5520896 698.6488896 515.477584 720.1041568 513.2639072 742.4010112L229.952 742.4 194.624 678.4 528.115168 678.4074624ZM638.3670592 547.2009184C610.226704 563.7580288 585.5302176 585.5411872 565.6115328 611.2164544L373.6589632 611.2 373.6589632 547.2 638.3670592 547.2009184ZM332.0589632 547.2L332.0589632 611.2 157.568 611.2 122.24 547.2 332.0589632 547.2ZM866.528 412.768L901.408 476.768 501.6589632 476.8 501.6589632 412.8 866.528 412.768ZM460.0589632 412.8L460.0589632 476.8 122.304 476.768 157.696 412.768 460.0589632 412.8ZM793.248 278.4L828.16 342.4 196.608 342.4 232 278.4 793.248 278.4ZM719.978528 144L754.88 208 620.0589632 208 620.0589632 144 719.978528 144ZM578.4589632 144L578.4589632 208 270.912 208 306.32455104 144 578.4589632 144Z"/></svg>