<svg width="25" height="30" viewBox="0 0 25 30" fill="none" xmlns="http://www.w3.org/2000/svg">
<g id="Group ">
<circle id="Ellipse " cx="17.143" cy="3.57143" r="3.57143" fill="url(#paint0_linear_960_7654)"/>
<g id="Group _2">
<path id="Union" fill-rule="evenodd" clip-rule="evenodd" d="M9.94655 9.97501C10.8347 9.32368 11.4117 8.27005 11.4117 7.08108C11.4117 5.10331 9.81511 3.5 7.84557 3.5C7.04283 3.5 6.30204 3.76634 5.70605 4.21581V4.21514C2.24121 6.82848 0 10.9893 0 15.6758C0 23.5869 6.38652 30.0001 14.2647 30.0001C17.4766 30.0001 20.4406 28.9341 22.8249 27.1353H22.8238C23.6898 26.4819 24.2499 25.4418 24.2499 24.2704C24.2499 22.2926 22.6533 20.6893 20.6838 20.6893C19.86 20.6893 19.1015 20.9697 18.4978 21.4407C17.3138 22.3189 15.8496 22.838 14.2647 22.838C10.3256 22.838 7.13237 19.6314 7.13237 15.6758C7.13237 13.3501 8.23624 11.2834 9.94655 9.97501Z" fill="url(#paint1_linear_960_7654)"/>
<path id="Subtract" fill-rule="evenodd" clip-rule="evenodd" d="M10.0335 29.3593C6.60453 27.4743 4.2793 23.8173 4.2793 19.615C4.2793 15.3571 6.66649 11.659 10.1702 9.79683C10.9304 9.14009 11.4117 8.16704 11.4117 7.08108C11.4117 5.10331 9.81511 3.5 7.84557 3.5C7.04275 3.5 6.30188 3.76639 5.70586 4.21596V4.21514C2.24113 6.82849 0 10.9892 0 15.6756C0 22.1074 4.22127 27.549 10.0335 29.3593Z" fill="url(#paint2_linear_960_7654)"/>
</g>
</g>
<defs>
<linearGradient id="paint0_linear_960_7654" x1="19.643" y1="1.07143" x2="14.743" y2="5.56357" gradientUnits="userSpaceOnUse">
<stop offset="0.0208188" stop-color="#0F77FF"/>
<stop offset="1" stop-color="#3AFFB8"/>
</linearGradient>
<linearGradient id="paint1_linear_960_7654" x1="24.25" y1="23.9122" x2="9.24196" y2="12.2872" gradientUnits="userSpaceOnUse">
<stop stop-color="#4ECAFC"/>
<stop offset="1" stop-color="#3B8EEC"/>
</linearGradient>
<linearGradient id="paint2_linear_960_7654" x1="7.13234" y1="30.7158" x2="16.1701" y2="6.47006" gradientUnits="userSpaceOnUse">
<stop offset="0.0208188" stop-color="#0F77FF"/>
<stop offset="1" stop-color="#3AFFB8"/>
</linearGradient>
</defs>
</svg>
