<svg viewBox="0 0 1024 1024" version="1.1" xmlns="http://www.w3.org/2000/svg"><path fill="#313238" fill-rule="evenodd" d="M755.296 816L720.384 880 367.2589632 880 367.2589632 816 755.296 816ZM325.6589632 816L325.6589632 880 305.888 880 270.56 816 325.6589632 816ZM830.304 678.4L795.424 742.4 229.952 742.4 194.624 678.4 830.304 678.4ZM693.6589632 547.2L693.6589632 611.2 373.6589632 611.2 373.6589632 547.2 693.6589632 547.2ZM901.856 547.2L866.944 611.2 738.4589632 611.2 738.4589632 547.2 901.856 547.2ZM332.0589632 547.2L332.0589632 611.2 157.568 611.2 122.24 547.2 332.0589632 547.2ZM866.528 412.768L901.408 476.768 501.6589632 476.8 501.6589632 412.8 866.528 412.768ZM460.0589632 412.8L460.0589632 476.8 122.304 476.768 157.696 412.768 460.0589632 412.8ZM793.248 278.4L828.16 342.4 196.608 342.4 232 278.4 793.248 278.4ZM719.978528 144L754.88 208 620.0589632 208 620.0589632 144 719.978528 144ZM578.4589632 144L578.4589632 208 270.912 208 306.32455104 144 578.4589632 144Z"/></svg>