<svg viewBox="0 0 1024 1024" version="1.1" xmlns="http://www.w3.org/2000/svg"><path fill="#313238" fill-rule="evenodd" d="M960 604.1239968L960 840 64 840 64 837.4762592 64 837.4762592C279.76134848 806.5590944 762.1723552 689.5729632 960 604.1239968ZM779.4562464 561.9661376C779.4562464 628.5201024 445.5270048 719.6044832 64 781.1171648L64 589.592592 64 589.592592C157.77472128 585.2147168 276.90728992 571.7556416 390.93184 559.4483104L412.9291424 557.083376C606.530688 536.3687104 779.4562464 520.9503232 779.4562464 561.9661376ZM102.4 699.2C97.09806656 699.2 92.8 703.4980672 92.8 708.8 92.8 714.1019328 97.09806656 718.4 102.4 718.4 107.70193344 718.4 112 714.1019328 112 708.8 112 703.4980672 107.70193344 699.2 102.4 699.2ZM131.2 699.2C125.89806656 699.2 121.6 703.4980672 121.6 708.8 121.6 714.1019328 125.89806656 718.4 131.2 718.4 136.50193344 718.4 140.8 714.1019328 140.8 708.8 140.8 703.4980672 136.50193344 699.2 131.2 699.2ZM102.4 641.6C97.09806656 641.6 92.8 645.8980672 92.8 651.2 92.8 656.5019328 97.09806656 660.8 102.4 660.8 107.70193344 660.8 112 656.5019328 112 651.2 112 645.8980672 107.70193344 641.6 102.4 641.6ZM131.2 641.6C125.89806656 641.6 121.6 645.8980672 121.6 651.2 121.6 656.5019328 125.89806656 660.8 131.2 660.8 136.50193344 660.8 140.8 656.5019328 140.8 651.2 140.8 645.8980672 136.50193344 641.6 131.2 641.6ZM960 235.69085664L960 414.244432 960 414.244432C899.8187488 414.244432 805.7645152 424.6693088 707.1060928 436.111008L674.0895776 439.949664 674.0895776 439.949664 640.9729056 443.786208C464.5118304 464.10448 294.0556576 481.028848 294.0556576 441.6987136 294.0556576 403.536192 458.9515936 344.6211264 630.9002368 299.44008096L653.355344 293.6276224 653.355344 293.6276224 675.8126048 287.98794368C787.9745728 260.24984448 897.2983968 239.62874304 960 235.69085664ZM927.5316128 184C644.084496 231.19949504 183.16040064 359.7803808 64 422.4248736L64 184 927.5316128 184 927.5316128 184Z"/></svg>