<svg xmlns="http://www.w3.org/2000/svg" xmlns:xlink="http://www.w3.org/1999/xlink" viewBox="0 0 64 64"><defs><style>.cls-1{fill:url(#未命名的渐变_12);}.cls-2{fill:#fff9f8;}</style><linearGradient id="未命名的渐变_12" x1="31.97" y1="6.16" x2="31.97" y2="56.22" gradientUnits="userSpaceOnUse"><stop offset="0" stop-color="#5acad3"/><stop offset="1" stop-color="#2687c8"/></linearGradient></defs><title>codecc</title><g id="小"><path class="cls-1" d="M6,53.63V8A2,2,0,0,1,8,6H56a2,2,0,0,1,2,2V53.56a3,3,0,0,1-4.07,2.8L32,48,10.05,56.43A3,3,0,0,1,6,53.63Z"/><path class="cls-2" d="M22.62,34.53a6.15,6.15,0,1,1,4.51-10.31,1,1,0,0,0,1.42.09l2.7-2.41a1,1,0,0,0,.07-1.43,11.74,11.74,0,0,0-8.76-3.92,11.78,11.78,0,0,0,0,23.56,11.73,11.73,0,0,0,8.77-3.93,1,1,0,0,0-.06-1.42l-2.62-2.41a1,1,0,0,0-1.44.09A6.07,6.07,0,0,1,22.62,34.53Z"/><path class="cls-2" d="M48.77,32.45a6.14,6.14,0,1,1-.07-8.22,1,1,0,0,0,1.41.08l2.7-2.41a1,1,0,0,0,.07-1.43,11.74,11.74,0,0,0-8.76-3.92,11.78,11.78,0,0,0,0,23.56,11.73,11.73,0,0,0,8.77-3.93,1,1,0,0,0-.06-1.42l-2.62-2.41A1,1,0,0,0,48.77,32.45Z"/></g></svg>