<?xml version="1.0" encoding="UTF-8"?>
<svg width="197px" height="44px" viewBox="0 0 197 44" version="1.1" xmlns="http://www.w3.org/2000/svg" xmlns:xlink="http://www.w3.org/1999/xlink">
    <!-- Generator: Sketch 52.2 (67145) - http://www.bohemiancoding.com/sketch -->
    <title>Group 26</title>
    <desc>Created with Sketch.</desc>
    <defs>
        <polygon id="path-1" points="0.1028 0.898 31.7628 0.898 31.7628 43.9999 0.1028 43.9999"></polygon>
        <linearGradient x1="42.0339464%" y1="16.9975375%" x2="64.3971507%" y2="62.1247446%" id="linearGradient-3">
            <stop stop-color="#298BC7" offset="0%"></stop>
            <stop stop-color="#54CAD1" offset="100%"></stop>
        </linearGradient>
        <path d="M0.843,16.29 C0.843,25.085 7.941,32.216 16.697,32.216 L16.697,25.054 C11.882,25.054 7.97,21.124 7.97,16.29 C7.97,11.456 11.882,7.524 16.697,7.524 C18.757,7.524 20.652,8.249 22.148,9.455 L27.212,4.391 C24.411,1.893 20.737,0.364 16.697,0.364 C7.941,0.364 0.843,7.495 0.843,16.29" id="path-4"></path>
        <path d="M0.959,4.278 L4.6,0.562 L10.017,4.122 L8.552,5.63 C4.83,9.262 0.959,4.278 0.959,4.278 Z" id="path-6"></path>
        <linearGradient x1="66.2284975%" y1="28.850634%" x2="18.7702451%" y2="110.879737%" id="linearGradient-8">
            <stop stop-color="#3BAFF6" offset="0%"></stop>
            <stop stop-color="#07476D" offset="100%"></stop>
        </linearGradient>
    </defs>
    <g id="交互稿" stroke="none" stroke-width="1" fill="none" fill-rule="evenodd">
        <g id="Artboard" transform="translate(-679.000000, -2028.000000)">
            <g id="Group-26" transform="translate(679.000000, 2027.000000)">
                <g id="Group-14" transform="translate(0.000000, 0.101600)">
                    <path d="M165.084,37.6386 L160.841,33.3956 L160.829,33.3956 C160.712,33.2646 160.547,33.1776 160.358,33.1776 C160.137,33.1776 159.952,33.2976 159.835,33.4656 C158.228,35.3276 155.926,36.3866 153.446,36.3866 C148.781,36.3866 144.985,32.5936 144.985,27.9276 C144.985,23.2636 148.781,19.4686 153.446,19.4686 C155.897,19.4686 158.204,20.5206 159.813,22.3636 L159.854,22.3256 L159.862,22.3266 L159.813,22.3636 C160.352,22.9246 160.868,22.4336 160.868,22.4336 C160.868,22.4336 164.765,18.6986 165.191,18.1106 C165.2,18.0986 165.205,18.0866 165.212,18.0756 C165.295,17.9846 165.343,17.8696 165.365,17.7426 C165.366,17.7296 165.37,17.7126 165.374,17.6996 C165.376,17.6796 165.385,17.6646 165.385,17.6486 C165.385,17.6366 165.378,17.6266 165.377,17.6146 C165.378,17.3366 165.188,17.1816 165.188,17.1816 C162.172,13.8816 157.943,12.0006 153.446,12.0006 C144.661,12.0006 137.518,19.1456 137.518,27.9276 C137.518,36.7096 144.661,43.8546 153.446,43.8546 C157.932,43.8546 162.099,41.9986 165.106,38.7426 C165.106,38.7426 165.671,38.2236 165.084,37.6386" id="Fill-1" fill="#404E65"></path>
                    <path d="M196.3868,37.6386 L192.1408,33.3956 L192.1298,33.3956 C192.0138,33.2646 191.8488,33.1776 191.6578,33.1776 C191.4368,33.1776 191.2528,33.2976 191.1388,33.4656 C189.5298,35.3276 187.2258,36.3866 184.7468,36.3866 C180.0828,36.3866 176.2878,32.5936 176.2878,27.9276 C176.2878,23.2636 180.0828,19.4686 184.7468,19.4686 C187.1988,19.4686 189.5068,20.5206 191.1158,22.3636 L191.1548,22.3256 L191.1618,22.3266 L191.1158,22.3636 C191.6548,22.9246 192.1718,22.4336 192.1718,22.4336 C192.1718,22.4336 196.0648,18.6986 196.4918,18.1106 C196.5028,18.0986 196.5068,18.0866 196.5138,18.0756 C196.5948,17.9846 196.6448,17.8696 196.6658,17.7426 C196.6668,17.7296 196.6728,17.7126 196.6748,17.6996 C196.6768,17.6796 196.6858,17.6646 196.6858,17.6486 C196.6858,17.6366 196.6788,17.6266 196.6788,17.6146 C196.6788,17.3366 196.4908,17.1816 196.4908,17.1816 C193.4728,13.8816 189.2438,12.0006 184.7468,12.0006 C175.9638,12.0006 168.8198,19.1456 168.8198,27.9276 C168.8198,36.7096 175.9638,43.8546 184.7468,43.8546 C189.2308,43.8546 193.4018,41.9976 196.4078,38.7426 C196.4078,38.7426 196.9738,38.2236 196.3868,37.6386" id="Fill-3" fill="#404E65"></path>
                    <path d="M27.5674,37.6386 L23.3204,33.3956 L23.3114,33.3956 C23.1924,33.2646 23.0294,33.1776 22.8384,33.1776 C22.6174,33.1776 22.4344,33.2976 22.3194,33.4656 C20.7104,35.3276 18.4064,36.3866 15.9264,36.3866 C11.2634,36.3866 7.4674,32.5936 7.4674,27.9276 C7.4674,23.2636 11.2634,19.4686 15.9264,19.4686 C18.3794,19.4686 20.6864,20.5206 22.2964,22.3636 L22.3354,22.3256 L22.3434,22.3266 L22.2964,22.3636 C22.8354,22.9246 23.3524,22.4336 23.3524,22.4336 C23.3524,22.4336 27.2454,18.6986 27.6714,18.1106 C27.6824,18.0986 27.6874,18.0866 27.6944,18.0756 C27.7754,17.9846 27.8244,17.8696 27.8454,17.7426 C27.8474,17.7296 27.8534,17.7126 27.8564,17.6996 C27.8574,17.6796 27.8664,17.6646 27.8664,17.6486 C27.8664,17.6366 27.8584,17.6266 27.8584,17.6146 C27.8584,17.3366 27.6704,17.1816 27.6704,17.1816 C24.6524,13.8816 20.4244,12.0006 15.9264,12.0006 C7.1434,12.0006 0.0004,19.1456 0.0004,27.9276 C0.0004,36.7096 7.1434,43.8546 15.9264,43.8546 C20.4104,43.8546 24.5824,41.9976 27.5874,38.7426 C27.5874,38.7426 28.1544,38.2236 27.5674,37.6386" id="Fill-5" fill="#404E65"></path>
                    <g id="Group-9" transform="translate(66.000000, 0.000000)">
                        <mask id="mask-2" fill="white">
                            <use xlink:href="#path-1"></use>
                        </mask>
                        <g id="Clip-8"></g>
                        <path d="M15.9278,36.7089 C11.2008,36.7089 7.3568,32.8469 7.3568,28.0979 C7.3568,23.3489 11.2008,19.4849 15.9278,19.4849 C20.6538,19.4849 24.5028,23.3489 24.5028,28.0979 C24.5028,32.8469 20.6538,36.7089 15.9278,36.7089 M28.1378,0.8979 C26.1308,0.8979 24.5118,2.5269 24.5118,4.5399 L24.5118,14.7479 C22.0378,13.1409 19.0948,12.1969 15.9278,12.1969 C7.1868,12.1969 0.1028,19.3159 0.1028,28.0979 C0.1028,36.8769 7.1868,43.9959 15.9278,43.9959 C19.1588,43.9959 22.1598,43.0199 24.6648,41.3529 C25.0968,42.8769 26.4768,43.9999 28.1378,43.9999 C30.1358,43.9999 31.7628,42.3699 31.7628,40.3599 L31.7628,4.5399 C31.7628,2.5269 30.1358,0.8979 28.1378,0.8979" id="Fill-7" fill="#404E65" mask="url(#mask-2)"></path>
                    </g>
                    <path d="M46.7666,36.7089 C42.0376,36.7089 38.1946,32.8469 38.1946,28.0979 C38.1946,23.3489 42.0376,19.4849 46.7666,19.4849 C51.4936,19.4849 55.3406,23.3489 55.3406,28.0979 C55.3406,32.8469 51.4936,36.7089 46.7666,36.7089 M46.7666,12.1969 C38.0266,12.1969 30.9416,19.3159 30.9416,28.0979 C30.9416,36.8769 38.0266,43.9959 46.7666,43.9959 C55.5146,43.9959 62.6026,36.8769 62.6026,28.0979 C62.6026,19.3159 55.5146,12.1969 46.7666,12.1969" id="Fill-10" fill="#404E65"></path>
                    <path d="M117.697,43.216 C117.694585,43.216 117.69217,43.2159995 117.689754,43.2159984 C108.936812,43.2122944 101.8424,36.0826766 101.8424,27.2899 C101.8424,18.4949 108.9404,11.3639 117.6964,11.3639 C118.226764,11.3639 118.750838,11.390268 119.26747,11.4417303 C120.537809,11.5681641 121.763073,11.8462745 122.926209,12.2572234 C124.323126,12.7511206 125.630541,13.436271 126.818713,14.2801409 C127.303663,14.6246834 127.768762,14.9957094 128.212,15.391 L126.6929,16.9101 L123.147612,20.4546876 C122.908035,20.2615746 122.658226,20.080797 122.399147,19.9133568 C122.334033,19.871249 122.268331,19.829983 122.202056,19.7895749 C120.885551,18.987444 119.344012,18.524 117.697,18.524 C112.882,18.524 108.97,22.456 108.97,27.29 C108.97,31.1698282 111.490058,34.4673117 114.974424,35.6179112 C115.831141,35.900847 116.746187,36.0539 117.6964,36.0539 C120.2544,36.0539 122.5514,34.9359 124.1504,33.1689 L133.2364,24.0809 C133.4474,25.1169 133.5574,26.1899 133.5574,27.2899 C133.5574,36.0846993 126.459724,43.2155745 117.697,43.2159 Z" id="Combined-Shape" fill="url(#linearGradient-3)"></path>
                </g>
                <g id="Group-17" transform="translate(101.000000, 11.101600)">
                    <mask id="mask-5" fill="white">
                        <use xlink:href="#path-4"></use>
                    </mask>
                    <g id="Clip-16"></g>
                </g>
                <g id="Group-25" transform="translate(109.000000, 12.101600)">
                    <path d="M20.6963,4.8671 C19.4533,3.6221 17.4383,3.6221 16.1913,4.8681 C16.1783,4.8821 16.1703,4.8961 16.1553,4.9111 L7.9593,13.2781 L6.3773,11.7321 L6.3763,11.7341 C5.1293,10.5171 3.1343,10.5241 1.8973,11.7591 C0.6633,12.9951 0.6563,14.9871 1.8723,16.2361 L1.8613,16.2361 L5.6583,20.0771 C5.7433,20.1831 5.5613,19.9781 5.6583,20.0771 C6.9043,21.3201 8.9213,21.3211 10.1653,20.0781 C10.2263,20.0151 10.2703,19.9451 10.3263,19.8801 L20.7163,9.3701 L20.7023,9.3701 C21.9433,8.1231 21.9403,6.1101 20.6963,4.8671" id="Fill-18" fill="#3BAFF6"></path>
                    <g id="Group-22" transform="translate(7.000000, 9.000000)">
                        <mask id="mask-7" fill="white">
                            <use xlink:href="#path-6"></use>
                        </mask>
                        <g id="Clip-21"></g>
                        <path d="M0.959,4.278 C0.959,4.278 4.83,9.262 8.552,5.63 L10.017,4.122 L4.6,0.562 L0.959,4.278 Z" id="Fill-20" fill="url(#linearGradient-8)" mask="url(#mask-7)"></path>
                    </g>
                    <path d="M13.2862,7.8398 C13.2862,7.8398 16.3372,4.7868 13.2862,0.0418 C13.2862,0.0418 17.7972,1.1448 20.9072,5.1118" id="Fill-23" fill="#3BAFF6"></path>
                </g>
            </g>
        </g>
    </g>
</svg>