<?xml version="1.0" encoding="UTF-8"?>
<svg width="14px" height="14px" viewBox="0 0 14 14" version="1.1" xmlns="http://www.w3.org/2000/svg" xmlns:xlink="http://www.w3.org/1999/xlink">
    <!-- Generator: Sketch 52.2 (67145) - http://www.bohemiancoding.com/sketch -->
    <title>标记</title>
    <desc>Created with Sketch.</desc>
    <g id="Page-1" stroke="none" stroke-width="1" fill="none" fill-rule="evenodd">
        <g id="2" transform="translate(-281.000000, -450.000000)" fill="#54CAD1">
            <g id="Group" transform="translate(220.000000, 352.000000)">
                <g id="标记" transform="translate(60.000000, 98.000000)">
                    <path d="M11.686,1.049 C14.9725766,3.08472455 15.9866062,7.3992942 13.9509039,10.6858846 C11.9152017,13.9724751 7.60063889,14.9865339 4.31403464,12.9508539 C1.02743039,10.9151739 0.0133423212,6.60061806 2.049,3.314 C3.02657497,1.7356818 4.59110268,0.610354456 6.39839639,0.185583234 C8.20569011,-0.239187988 10.1077017,0.0713929127 11.686,1.049 Z M7.371,4.258 L10.753,6.358 L8.12,10.6 L4.738,8.5 L7.371,4.258 Z M4.738,8.508 L8.12,10.608 L5.376,11.26 L4.738,8.508 Z M10.638,2.755 C11.5119436,3.16312815 11.9088546,4.18759964 11.538,5.078 C11.171,5.671 7.738,3.705 8.156,2.983 C8.78462436,2.24329914 9.88931312,2.14198416 10.642,2.755 L10.638,2.755 Z"></path>
                </g>
            </g>
        </g>
    </g>
</svg>