<?xml version="1.0" encoding="UTF-8"?>
<svg xmlns="http://www.w3.org/2000/svg" xmlns:xlink="http://www.w3.org/1999/xlink" width="12px" height="12px" viewBox="0 0 12 12" version="1.1">
  <title>Icon/3 面性图标/收藏</title>
  <defs>
    <path d="M4.41827632,6.6 C4.67864563,6.6 4.92835089,6.7034313 5.1124598,6.8875402 C5.2965687,7.07164911 5.4,7.32135437 5.4,7.58172368 L5.4,11.0182763 C5.4,11.2786456 5.2965687,11.5283509 5.1124598,11.7124598 C4.92835089,11.8965687 4.67864563,12 4.41827632,12 L0.981723682,12 C0.721354372,12 0.471649109,11.8965687 0.287540204,11.7124598 C0.1034313,11.5283509 0,11.2786456 0,11.0182763 L0,7.58172368 C0,7.32135437 0.1034313,7.07164911 0.287540204,6.8875402 C0.471649109,6.7034313 0.721354372,6.6 0.981723682,6.6 L4.41827632,6.6 Z M11.0182763,6.6 C11.2786456,6.6 11.5283509,6.7034313 11.7124598,6.8875402 C11.8965687,7.07164911 12,7.32135437 12,7.58172368 L12,11.0182763 C12,11.2786456 11.8965687,11.5283509 11.7124598,11.7124598 C11.5283509,11.8965687 11.2786456,12 11.0182763,12 L7.58172368,12 C7.32135437,12 7.07164911,11.8965687 6.8875402,11.7124598 C6.7034313,11.5283509 6.6,11.2786456 6.6,11.0182763 L6.6,7.58172368 C6.6,7.32135437 6.7034313,7.07164911 6.8875402,6.8875402 C7.07164911,6.7034313 7.32135437,6.6 7.58172368,6.6 L11.0182763,6.6 Z M4.41827632,0 C4.67864563,0 4.92835089,0.1034313 5.1124598,0.287540204 C5.2965687,0.471649109 5.4,0.721354372 5.4,0.981723682 L5.4,4.41827632 C5.4,4.67864563 5.2965687,4.92835089 5.1124598,5.1124598 C4.92835089,5.2965687 4.67864563,5.4 4.41827632,5.4 L0.981723682,5.4 C0.721354372,5.4 0.471649109,5.2965687 0.287540204,5.1124598 C0.1034313,4.92835089 0,4.67864563 0,4.41827632 L0,0.981723682 C0,0.721354372 0.1034313,0.471649109 0.287540204,0.287540204 C0.471649109,0.1034313 0.721354372,0 0.981723682,0 L4.41827632,0 Z M9.26941428,0.000173998332 C10.2412577,-0.0108357914 11.1440265,0.501326655 11.6331542,1.3411805 C12.1222819,2.18103434 12.1222819,3.21896566 11.6331542,4.0588195 C11.1440265,4.89867335 10.2412577,5.41083579 9.26941428,5.399826 C7.79027113,5.38306913 6.6,4.17923765 6.6,2.7 C6.6,1.22076235 7.79027113,0.0169308699 9.26941428,0.000173998332 L9.26941428,0.000173998332 Z" id="path-1"></path>
  </defs>
  <g id="流水线组" stroke="none" stroke-width="1" fill="none" fill-rule="evenodd">
    <g id="流水线组展示与管理-交互说明" transform="translate(-84.000000, -1988.000000)">
      <g id="编组-3备份" transform="translate(50.000000, 1848.000000)">
        <g id="Navigation/左侧二级浅色" transform="translate(0.000000, 110.000000)">
          <g id="编组" transform="translate(0.000000, 16.000000)">
            <g id="Icon/3-面性图标/收藏" transform="translate(34.000000, 14.000000)">
              <mask id="mask-2" fill="white">
                <use xlink:href="#path-1"></use>
              </mask>
              <g id="形状" fill-rule="nonzero"></g>
              <rect id="矩形" fill="currentColor" mask="url(#mask-2)" x="-2" y="-2" width="16" height="16"></rect>
              <rect id="codesign_placeholder_name" mask="url(#mask-2)" x="-2" y="-2" width="16" height="16"></rect>
            </g>
          </g>
        </g>
      </g>
    </g>
  </g>
</svg>
