<?xml version="1.0" encoding="UTF-8"?>
<svg width="213px" height="74px" viewBox="0 0 213 74" version="1.1" xmlns="http://www.w3.org/2000/svg" xmlns:xlink="http://www.w3.org/1999/xlink">
    <title>Stream 导航条logo</title>
    <g id="Stream-导航条logo" stroke="none" stroke-width="1" fill="none" fill-rule="evenodd">
        <path d="M63,12 L13,12 L13,62 L63,62 L63,12 Z M55,41.8326176 L47.5064162,41.8326176 C45.5642017,45.6241137 41.7236565,48 37.537037,48 C33.3504176,48 29.5098724,45.6241137 27.5676579,41.8326176 L20.0740741,41.8326176 L20.0740741,31.1673824 L27.5676579,31.1673824 C29.5098724,27.3758863 33.3504176,25 37.537037,25 C41.7236565,25 45.5642017,27.3758863 47.5064162,31.1673824 L55,31.1673824 L55,41.8326176 Z" id="logo" fill="#FFFFFF" fill-rule="nonzero"></path>
        <path d="M89.1404575,23.4656093 L95.5242423,23.8557143 C96.3786999,23.8557143 97.0236512,23.9941387 97.4590959,24.2709874 L97.4590959,24.2709874 C97.8945407,24.5562255 98.0670754,24.9211625 97.9767001,25.3657984 L97.9767001,25.3657984 C97.8863248,25.7433194 97.7589777,26.7080954 97.5946589,28.2601262 L97.5946589,28.2601262 C97.4385561,29.7618209 97.311209,30.6888448 97.2126178,31.0411977 L97.2126178,31.0411977 C97.0072193,31.8633546 96.4444274,32.2744331 95.5242423,32.2744331 L95.5242423,32.2744331 C94.6780005,32.2744331 94.1275326,31.8633546 93.8728385,31.0411977 L93.8728385,31.0411977 C93.8235428,30.8734106 93.6510081,29.5101403 93.3552343,26.9513867 L93.3552343,26.9513867 C89.6498457,27.1611206 86.9796655,27.3372971 85.3446936,27.4799161 L85.3446936,27.4799161 C85.1639429,30.2064568 85.0489197,31.7459036 84.9996241,32.0982566 L84.9996241,32.0982566 C85.689763,32.4254415 87.7848275,33.3398813 91.2848176,34.841576 L91.2848176,34.841576 C94.201476,36.09159 95.9391472,36.8801895 96.4978311,37.2073744 L96.4978311,37.2073744 C96.908628,37.4422764 97.2044018,37.6645943 97.3851525,37.8743282 L97.3851525,37.8743282 C97.7548698,38.2518492 97.9068646,38.6503436 97.8411371,39.0698114 L97.8411371,39.0698114 C97.7507618,39.6318983 97.5987669,41.2174866 97.3851525,43.8265763 L97.3851525,43.8265763 C97.2044018,46.318215 97.0565149,47.8702459 96.9414918,48.4826689 L96.9414918,48.4826689 C96.8921961,48.7175708 96.8470085,48.8685792 96.8059288,48.9356941 L96.8059288,48.9356941 C96.781281,49.2461003 96.6292861,49.4935863 96.3499441,49.6781521 L96.3499441,49.6781521 C96.1198978,49.8627179 95.83234,49.9927529 95.4872705,50.0682571 L95.4872705,50.0682571 L95.3147358,50.1060093 C94.9943142,50.147956 92.9156815,50.2737964 89.0788379,50.4835303 L89.0788379,50.4835303 C85.4638247,50.7016535 83.3358964,50.8694406 82.6950532,50.9868916 L82.6950532,50.9868916 C82.3664156,51.0288384 82.0993976,50.9701129 81.8939991,50.8107152 L81.8939991,50.8107152 C81.4092587,50.642928 81.0765131,50.2066815 80.8957625,49.5019756 L80.8957625,49.5019756 C80.7807393,49.0321717 80.6328524,47.7402109 80.4521018,45.6260931 L80.4521018,45.6260931 C80.2631351,43.4448606 80.1234642,42.1193423 80.0330889,41.6495384 L80.0330889,41.6495384 C79.9180657,41.1797345 80.1029243,40.7896294 80.5876647,40.4792232 L80.5876647,40.4792232 C81.0477573,40.1520384 81.7009245,39.9884459 82.5471663,39.9884459 L82.5471663,39.9884459 C83.4016239,39.9884459 84.0588991,40.1520384 84.5189917,40.4792232 L84.5189917,40.4792232 C84.9544364,40.7896294 85.1269712,41.1797345 85.0365958,41.6495384 L85.0365958,41.6495384 C84.9462205,42.136121 84.7983336,43.7678508 84.5929351,46.5447276 L84.5929351,46.5447276 C85.414529,46.6118425 86.8605343,46.7041254 88.930951,46.8215764 L88.930951,46.8215764 L93.3182626,47.1110092 C93.2525351,46.4734181 93.125188,45.0388382 92.9362214,42.8072695 L92.9362214,42.8072695 C92.7801186,40.9280538 92.6527715,39.7074025 92.5541802,39.1453156 L92.5541802,39.1453156 C86.4579533,37.2157637 83.1346059,36.1922623 82.584138,36.0748113 L82.584138,36.0748113 C82.5430583,36.0748113 82.4732228,36.0538379 82.3746315,36.0118912 L82.3746315,36.0118912 C81.8241636,35.818936 81.4585543,35.3113799 81.2778036,34.489223 L81.2778036,34.489223 C81.1627805,33.9019681 81.0107856,32.3163798 80.821819,29.7324582 L80.821819,29.7324582 C80.6164205,27.1233685 80.4562097,25.5168068 80.3411866,24.9127732 L80.3411866,24.9127732 C80.2508112,24.367465 80.4603177,23.9186345 80.9697059,23.5662815 L80.9697059,23.5662815 C81.4462304,23.1887605 82.1240454,23 83.0031509,23 L83.0031509,23 C83.3235725,23 83.5536188,23.012584 83.6932898,23.0377521 L83.6932898,23.0377521 L83.9027962,23.0755042 C84.4286163,23.1426191 86.1745034,23.2726541 89.1404575,23.4656093 L89.1404575,23.4656093 Z M113.705128,47.7172298 C114.397436,47.9782288 114.74359,48.4034046 114.74359,48.9927571 L114.74359,48.9927571 C114.74359,49.5568517 114.397436,49.9820274 113.705128,50.2682844 L113.705128,50.2682844 C113.465812,50.3188003 112.388889,50.4240418 110.474359,50.584009 L110.474359,50.584009 C108.559829,50.7523954 107.435897,50.8828949 107.102564,50.9755074 L107.102564,50.9755074 C106.794872,51.042862 106.529915,50.9712978 106.307692,50.7608147 L106.307692,50.7608147 C105.854701,50.4829771 105.594017,49.8346893 105.525641,48.8159514 L105.525641,48.8159514 C105.431624,48.0666317 105.226496,43.6254394 104.910256,35.4923744 L104.910256,35.4923744 C103.619658,35.559729 102.820513,35.6270836 102.512821,35.6944381 L102.512821,35.6944381 C102.076923,35.770212 101.717949,35.6186642 101.435897,35.2397948 L101.435897,35.2397948 C101.145299,34.8356673 101,34.30525 101,33.6485429 L101,33.6485429 C101,32.9918358 101.145299,32.4740475 101.435897,32.095178 L101.435897,32.095178 C101.74359,31.7163085 102.102564,31.5731801 102.512821,31.6657926 L102.512821,31.6657926 L104.769231,31.8425984 C104.598291,28.4748696 104.491453,26.6015705 104.448718,26.222701 L104.448718,26.222701 C104.371795,25.6080905 104.598291,25.0776732 105.128205,24.6314491 L105.128205,24.6314491 C105.632479,24.210483 106.25641,24 107,24 L107,24 C107.717949,24 108.316239,24.210483 108.794872,24.6314491 L108.794872,24.6314491 C109.273504,25.0776732 109.487179,25.6080905 109.435897,26.222701 L109.435897,26.222701 C109.367521,27.0477945 109.273504,29.0052869 109.153846,32.095178 L109.153846,32.095178 C112.068376,32.2804031 113.58547,32.3856446 113.705128,32.4109026 L113.705128,32.4109026 C114.568376,32.6466436 115,33.0591904 115,33.6485429 L115,33.6485429 C115,34.2378955 114.568376,34.6630712 113.705128,34.9240702 L113.705128,34.9240702 C113.559829,34.9493282 111.991453,35.0545697 109,35.2397948 L109,35.2397948 C108.717949,42.3372831 108.551282,46.3322514 108.5,47.2246995 L108.5,47.2246995 C112.115385,47.578311 113.850427,47.7424878 113.705128,47.7172298 L113.705128,47.7172298 Z M128.324003,31.3260474 L128.38436,31.428051 C128.794787,31.9295689 129,32.4565877 129,33.0091075 L129,33.0091075 C128.975857,33.5531269 128.770644,33.9313904 128.38436,34.143898 L128.38436,34.143898 C128.118789,34.2884032 127.084674,34.9811779 125.282014,36.2222222 L125.282014,36.2222222 C123.567878,37.3867638 122.497549,38.0752884 122.071027,38.287796 L122.071027,38.287796 C121.821552,44.8075288 121.640481,48.4499089 121.527815,49.2149362 L121.527815,49.2149362 C121.366863,50.4049787 120.940341,51 120.248248,51 L120.248248,51 C119.523965,51 119.081348,50.4049787 118.920396,49.2149362 L118.920396,49.2149362 C118.831873,48.5689132 118.687016,45.7000607 118.485827,40.6083789 L118.485827,40.6083789 C118.260494,35.4911961 118.103566,32.6010929 118.015043,31.9380692 L118.015043,31.9380692 C117.942615,31.4110504 118.131733,30.9562842 118.582398,30.5737705 L118.582398,30.5737705 C119.016967,30.1912568 119.572251,30 120.248248,30 L120.248248,30 C120.924246,30 121.475506,30.1912568 121.902028,30.5737705 L121.902028,30.5737705 C122.304407,30.9562842 122.473406,31.4110504 122.409026,31.9380692 L122.409026,31.9380692 C122.336597,32.6265938 122.292336,33.3406193 122.27624,34.0801457 L122.27624,34.0801457 L125.752798,30.7522769 C126.042512,30.420765 126.436843,30.3017608 126.935794,30.3952641 L126.935794,30.3952641 C127.450839,30.5142684 127.913576,30.8245294 128.324003,31.3260474 L128.324003,31.3260474 Z M136.255754,33.4543689 L136,38.5106796 C136.980392,38.5728155 138.651321,38.6582524 141.012788,38.7669903 L141.012788,38.7669903 L146,39 C145.923274,38.3941748 145.838022,37.392233 145.744246,35.9941748 L145.744246,35.9941748 L145.526854,33 C145.313725,33.023301 143.762148,33.0970874 140.872123,33.2213592 L140.872123,33.2213592 C138.800512,33.3145631 137.261722,33.392233 136.255754,33.4543689 L136.255754,33.4543689 Z M148.474417,41.0029127 L148.399998,41.2530805 C148.358655,41.7200602 147.920411,42.070295 147.085268,42.3037849 L147.085268,42.3037849 C146.713175,42.3454795 145.117307,42.4497161 142.297666,42.6164946 L142.297666,42.6164946 L135.897659,42.9667294 L135.699209,47.1695472 L148.610851,47.8324917 C149.53695,48.015948 150,48.4120469 150,49.0207884 L150,49.0207884 C150,49.5794963 149.53695,49.9755952 148.610851,50.2090851 L148.610851,50.2090851 C148.263564,50.2591187 145.927644,50.3758636 141.603092,50.5593199 L141.603092,50.5593199 C137.361226,50.776132 134.975694,50.9178937 134.446495,50.9846051 L134.446495,50.9846051 C134.008251,51.0513165 133.636158,50.9012158 133.330214,50.5343032 L133.330214,50.5343032 C133.03254,50.1340348 132.883702,49.6295299 132.883702,49.0207884 L132.883702,49.0207884 L132.883702,48.845671 C132.792746,48.0284564 132.652177,45.1223413 132.461996,40.1273257 L132.461996,40.1273257 C132.255278,35.2907496 132.10644,32.5472435 132.015484,31.8968074 L132.015484,31.8968074 C131.899722,30.9378312 132.433056,30.3415981 133.615486,30.1081082 L133.615486,30.1081082 C133.822204,30.01638 134.041326,29.9830243 134.272851,30.0080411 L134.272851,30.0080411 C134.777244,30.0747525 136.997402,30.2123447 140.933323,30.4208179 L140.933323,30.4208179 C144.96847,30.6126131 147.147284,30.7293581 147.469765,30.7710527 L147.469765,30.7710527 L147.53178,30.7710527 C148.788629,30.8877976 149.334366,31.3547774 149.168991,32.1719919 L149.168991,32.1719919 C149.078035,32.5722603 148.962273,34.0690972 148.821704,36.6625027 L148.821704,36.6625027 C148.656329,39.2559081 148.540567,40.7027115 148.474417,41.0029127 L148.474417,41.0029127 Z M162.512791,46.7633136 L168,47 C167.948837,46.5581854 167.816667,44.5581854 167.603488,41 L167.603488,41 L157.319767,41.5325444 L157,46.5029586 C158.074419,46.566075 159.912016,46.65286 162.512791,46.7633136 L162.512791,46.7633136 Z M161.685312,30.4100387 L169.576056,30.8052427 C170.322651,30.8052427 170.936233,30.9964705 171.4168,31.378926 L171.4168,31.378926 C171.871623,31.7528825 172.060417,32.2160787 171.983183,32.7685144 L171.983183,32.7685144 C171.888786,33.4314374 171.734318,36.0363845 171.519779,40.5833557 L171.519779,40.5833557 C171.30524,45.10483 171.150772,47.6885296 171.056375,48.3344545 L171.056375,48.3344545 C171.03063,48.5724268 170.970559,48.8188981 170.876162,49.0738685 L170.876162,49.0738685 C170.850417,49.3883319 170.691658,49.6390528 170.399885,49.826031 L170.399885,49.826031 C170.211091,49.9705142 169.957935,50.0682529 169.640417,50.1192469 L169.640417,50.1192469 L169.460205,50.144744 C169.082616,50.195738 166.752723,50.3274727 162.470525,50.539948 L162.470525,50.539948 C158.265561,50.7354253 155.901341,50.8799085 155.377866,50.9733976 L155.377866,50.9733976 C154.433894,51.1348788 153.901838,50.5611955 153.781696,49.2523477 L153.781696,49.2523477 C153.713044,48.6829139 153.592902,46.9831116 153.421271,44.1529407 L153.421271,44.1529407 C153.258221,41.509748 153.129497,39.9629279 153.0351,39.5124803 L153.0351,39.5124803 C152.837724,38.586088 153.47276,38.0633988 154.940206,37.9444126 L154.940206,37.9444126 C155.086093,37.8934185 155.231979,37.8934185 155.377866,37.9444126 L155.377866,37.9444126 L155.918504,37.9826581 C156.708008,38.0506502 158.578788,38.1568879 161.530844,38.3013711 L161.530844,38.3013711 L167.477864,38.620084 C167.340559,36.0703805 167.23329,34.3705782 167.156056,33.520677 L167.156056,33.520677 C159.561376,33.8521384 155.429355,34.0646137 154.759994,34.1581029 L154.759994,34.1581029 C154.305171,34.226095 153.910419,34.0603642 153.575739,33.6609107 L153.575739,33.6609107 C153.232476,33.2529581 153.060845,32.7302689 153.060845,32.092843 L153.060845,32.092843 C153.060845,31.4469181 153.232476,30.9199794 153.575739,30.5120268 L153.575739,30.5120268 C153.910419,30.1125733 154.305171,29.9468425 154.759994,30.0148346 L154.759994,30.0148346 C155.334958,30.0913257 157.643398,30.2230604 161.685312,30.4100387 L161.685312,30.4100387 Z M188.618091,30.5384615 L197.77368,30.8974359 C198.128744,30.8974359 198.483809,30.957265 198.838873,31.0769231 L198.838873,31.0769231 C199.413739,31.2136752 199.747669,31.4871795 199.840662,31.8974359 L199.840662,31.8974359 C199.984379,32.1367521 200.030875,32.4102564 199.980152,32.7179487 L199.980152,32.7179487 C199.91252,33.3418803 199.768804,36.1068376 199.549002,41.0128205 L199.549002,41.0128205 C199.363016,45.8931624 199.223526,48.6324786 199.130533,49.2307692 L199.130533,49.2307692 C198.961455,50.3589744 198.509171,50.9230769 197.77368,50.9230769 L197.77368,50.9230769 C197.046643,50.9230769 196.598586,50.3589744 196.429508,49.2307692 L196.429508,49.2307692 C196.336515,48.6324786 196.205479,46.2777778 196.036401,42.1666667 L196.036401,42.1666667 C195.825053,37.4059829 195.685563,34.5683761 195.617932,33.6538462 L195.617932,33.6538462 L190.139795,33.8717949 C190.072164,34.6581197 189.945355,37.2564103 189.759369,41.6666667 L189.759369,41.6666667 C189.564929,45.8034188 189.421213,48.1452991 189.32822,48.6923077 L189.32822,48.6923077 C189.159141,49.7521368 188.719538,50.2820513 188.009409,50.2820513 L188.009409,50.2820513 C187.29928,50.2820513 186.851223,49.7521368 186.665237,48.6923077 L186.665237,48.6923077 C186.572244,48.1452991 186.441208,45.8717949 186.27213,41.8717949 L186.27213,41.8717949 C186.060782,37.4700855 185.921292,34.8632479 185.853661,34.0512821 L185.853661,34.0512821 C183.435841,34.1196581 181.609796,34.1923077 180.375524,34.2692308 L180.375524,34.2692308 L179.665396,49.2307692 C179.504771,50.4102564 179.056714,51 178.321223,51 L178.321223,51 C177.585733,51 177.124994,50.4102564 176.939008,49.2307692 L176.939008,49.2307692 C176.862923,48.6324786 176.706525,45.7606838 176.469816,40.6153846 L176.469816,40.6153846 C176.258468,35.4957265 176.106298,32.5897436 176.013305,31.8974359 L176.013305,31.8974359 C175.945673,31.3675214 176.135886,30.9230769 176.583944,30.5641026 L176.583944,30.5641026 C177.057363,30.1880342 177.636456,30 178.321223,30 L178.321223,30 C178.625564,30 178.896089,30.034188 179.132799,30.1025641 L179.132799,30.1025641 L188.618091,30.5384615 Z" id="stream" fill="#FFFFFF" fill-rule="nonzero"></path>
    </g>
</svg>