<svg viewBox="0 0 1024 1024" version="1.1" xmlns="http://www.w3.org/2000/svg"><g fill="none"><path fill="#FFE8C3" d="M512 0C229.25714285714287 0 0 229.25714285714287 0 512 0 794.742857142857 229.25714285714287 1024 512 1024 794.742857142857 1024 1024 794.742857142857 1024 512 1024 229.25714285714287 794.742857142857 0 512 0L512 0Z"></path><path fill="#FF9C01" d="M516.5714285714286 649.1428571428571C539.2939995428571 649.1428571428571 557.7142857142857 667.5631433142856 557.7142857142857 690.2857142857142 557.7142857142857 713.0082852571428 539.2939995428571 731.4285714285713 516.5714285714286 731.4285714285713 493.8488576 731.4285714285713 475.4285714285714 713.0082852571428 475.4285714285714 690.2857142857142 475.4285714285714 667.5631433142856 493.8488576 649.1428571428571 516.5714285714286 649.1428571428571ZM516.8375917714285 292.57142857142856C539.4131675428571 292.57142857142856 557.7142857142857 308.71668297142855 557.7142857142857 328.6328649142857 557.7142857142857 330.54788388571427 557.5450806857143 332.4280356571428 557.2191414857143 334.26232685714285L545.7541010285714 568.7755593142857C545.7541010285714 582.8644278857142 532.8077385142857 594.2857142857142 516.8375917714285 594.2857142857142 500.8674450285714 594.2857142857142 487.9210825142857 582.8644278857142 487.9210825142857 568.7755593142857L487.9210825142857 568.7755593142857 475.4285714285714 326.4290706285714 476.0379940571428 326.3997769142857C477.3451922285714 307.52369737142857 495.1120859428571 292.57142857142856 516.8375917714285 292.57142857142856Z"></path></g></svg>