<svg viewBox="0 0 1024 1024" version="1.1" xmlns="http://www.w3.org/2000/svg" style="fill: #3a84ff;"><path d="M893.44 524.16c1.28-3.84 2.56-7.68 2.56-11.52 0 0 0-0.64 0-0.64s0-0.64 0-0.64c0-3.84-0.64-7.68-1.92-10.88-0.64-1.92-1.92-3.2-2.56-4.48-1.28-1.92-1.92-3.84-3.2-5.12l-271.36-298.24c-12.16-12.8-32-14.08-45.44-1.92-12.8 12.16-14.08 32-1.92 45.44l222.08 244.48h-631.68c-17.92-0.64-32 13.44-32 31.36s14.08 32 32 32h631.68l-222.08 244.48c-12.16 12.8-10.88 33.28 1.92 45.44 6.4 5.76 14.08 8.32 21.76 8.32 8.96 0 17.28-3.2 23.68-10.24l270.72-297.6c1.28-1.28 1.92-3.2 3.2-5.12 0.64-2.56 1.92-3.84 2.56-5.12z"></path></svg>