<!-- Generated by IcoMoon.io -->
<svg version="1.1" xmlns="http://www.w3.org/2000/svg" width="32" height="32" viewBox="0 0 32 32">
<title>arrows-left</title>
<path fill="#3A84FF" d="M27 15h-19.74l6.94-7.64c0.38-0.4 0.34-1.040-0.060-1.42s-1.040-0.34-1.42 0.060l-8.46 9.32c-0.040 0.060-0.060 0.12-0.1 0.16-0.020 0.060-0.060 0.1-0.080 0.14-0.1 0.24-0.1 0.5 0 0.74 0.020 0.060 0.060 0.1 0.080 0.14 0.040 0.060 0.060 0.12 0.1 0.18l8.46 9.3c0.2 0.22 0.46 0.32 0.74 0.32 0.24 0 0.48-0.080 0.68-0.26 0.4-0.38 0.44-1 0.060-1.42l-6.94-7.62h19.74c0.56 0 1-0.44 1-1s-0.44-1-1-1z"></path>
</svg>
