<svg viewBox="0 0 1024 1024" version="1.1" xmlns="http://www.w3.org/2000/svg" style="fill: #979BA5;"><g fill="#979BA5"><path d="M512 64C264 64 64 264 64 512s200 448 448 448 448-200 448-448S760 64 512 64zM512 896C299.2 896 128 724.8 128 512S299.2 128 512 128s384 171.2 384 384S724.8 896 512 896z"></path><path d="M494.4 403.2c-28.8 6.4-56 20.8-76.8 41.6-24 22.4 1.6 44.8 16 27.2 9.6-12.8 24-22.4 40-28.8 11.2-1.6 17.6 1.6 19.2 9.6 1.6 14.4 0 27.2-4.8 41.6-4.8 19.2-14.4 51.2-25.6 94.4-22.4 76.8-33.6 124.8-30.4 140.8 3.2 17.6 12.8 32 28.8 41.6 17.6 8 38.4 9.6 57.6 4.8 30.4-6.4 57.6-22.4 80-44.8 25.6-25.6-3.2-43.2-17.6-28.8-9.6 12.8-24 22.4-40 25.6-14.4 3.2-22.4-3.2-25.6-16-1.6-14.4 1.6-28.8 6.4-41.6 40-136 57.6-212.8 52.8-232-3.2-14.4-12.8-27.2-25.6-33.6C532.8 398.4 512 398.4 494.4 403.2z"></path><path d="M608 304A48 48 0 0 1 560 352 48 48 0 0 1 512 304 48 48 0 0 1 608 304z"></path></g></svg>