<?xml version="1.0" encoding="utf-8"?>
<!--
  ~ Tencent is pleased to support the open source community by making BK-CI 蓝鲸持续集成平台 available.
  ~
  ~ Copyright (C) 2019 THL A29 Limited, a Tencent company.  All rights reserved.
  ~
  ~ BK-CI 蓝鲸持续集成平台 is licensed under the MIT license.
  ~
  ~ A copy of the MIT License is included in this file.
  ~
  ~
  ~ Terms of the MIT License:
  ~ ---------------------------------------------------
  ~ Permission is hereby granted, free of charge, to any person obtaining a copy of this software and associated documentation files (the "Software"), to deal in the Software without restriction, including without limitation the rights to use, copy, modify, merge, publish, distribute, sublicense, and/or sell copies of the Software, and to permit persons to whom the Software is furnished to do so, subject to the following conditions:
  ~
  ~ The above copyright notice and this permission notice shall be included in all copies or substantial portions of the Software.
  ~
  ~ THE SOFTWARE IS PROVIDED "AS IS", WITHOUT WARRANTY OF ANY KIND, EXPRESS OR IMPLIED, INCLUDING BUT NOT LIMITED TO THE WARRANTIES OF MERCHANTABILITY, FITNESS FOR A PARTICULAR PURPOSE AND NONINFRINGEMENT. IN NO EVENT SHALL THE AUTHORS OR COPYRIGHT HOLDERS BE LIABLE FOR ANY CLAIM, DAMAGES OR OTHER LIABILITY, WHETHER IN AN ACTION OF CONTRACT, TORT OR OTHERWISE, ARISING FROM, OUT OF OR IN CONNECTION WITH THE SOFTWARE OR THE USE OR OTHER DEALINGS IN THE SOFTWARE.
  -->

<!-- Generator: Adobe Illustrator 22.0.1, SVG Export Plug-In . SVG Version: 6.00 Build 0)  -->
<svg version="1.1" id="Layer_1" xmlns="http://www.w3.org/2000/svg" xmlns:xlink="http://www.w3.org/1999/xlink" x="0px" y="0px"
	 viewBox="0 0 1023 952" style="enable-background:new 0 0 1023 952;" xml:space="preserve">
<style type="text/css">
	.st0{display:none;}
	.st1{display:inline;}
	.st2{fill:#3967E0;}
	.st3{fill:#33FF99;}
	.st4{fill:#08B9FF;}
	.st5{display:inline;fill:#3967E0;}
	.st6{display:inline;fill:#F8FFFF;}
</style>
<g id="图层_2" class="st0">
</g>
<g id="图层_1" class="st0">
</g>
<g id="图层_3" class="st0">
</g>
<g id="DINGSH_x5F_复制_2" class="st0">
	<g class="st1">
		<path class="st2" d="M768,122.3h-64v63h64c70.5,0.5,127.5,57.9,127.5,128.5s-57,127.9-127.5,128.5l0,0h-65v63h65l0,0
			c105.3-0.5,190.5-86.1,190.5-191.5S873.2,122.8,768,122.3z"/>
		<path class="st2" d="M255,825.3h65v-63h-65c-70.5-0.5-127.5-57.9-127.5-128.5s57-127.9,127.5-128.5l0,0h65v-63h-65l0,0
			c-105.3,0.5-190.5,86.1-190.5,191.5S149.7,824.8,255,825.3z"/>
		<circle class="st3" cx="286.5" cy="794.8" r="53.5"/>
		<circle class="st3" cx="732.5" cy="475.8" r="53.5"/>
		<g>
			<path class="st4" d="M721.8,570.3H299c-6.6,0-12-5.4-12-12v-168c0-6.6,5.4-12,12-12h422.8c6.6,0,12,5.4,12,12v168
				C733.8,564.9,728.4,570.3,721.8,570.3z"/>
		</g>
		<g>
			<path class="st4" d="M723,250.3H300.2c-6.6,0-12-5.4-12-12v-168c0-6.6,5.4-12,12-12H723c6.6,0,12,5.4,12,12v168
				C735,244.9,729.5,250.3,723,250.3z"/>
		</g>
		<g>
			<path class="st4" d="M723,890.3H300.2c-6.6,0-12-5.4-12-12v-168c0-6.6,5.4-12,12-12H723c6.6,0,12,5.4,12,12v168
				C735,884.9,729.5,890.3,723,890.3z"/>
		</g>
	</g>
</g>
<g id="图层_5" class="st0">
	<path class="st5" d="M858.8,138.2L510.9,27.9L163.2,138.2c-13.1,4.1-21.9,16.3-21.8,30v439c0.7,3,17.1,75.3,88.2,145.2
		c54.7,53.8,185.9,123,243.2,153c8.9,4.7,13.2,6.4,17,8.5l17,8.5c4.5,2.4,12.5,2.3,17,0l17-8.5c33.5-16.4,188.4-99.3,251.6-161.5
		c71.2-70,87.6-142.3,88.3-145.2v-439C880.8,154.5,871.9,142.3,858.8,138.2L858.8,138.2z M515.2,854.4l-0.2-0.1h0.6
		C515.4,854.4,515.2,854.4,515.2,854.4L515.2,854.4z"/>
	<path class="st6" d="M582,493.3h-34v-32.7c48-14.6,83-59.2,83-112c0-64.6-52.4-117-117-117s-117,52.4-117,117
		c0,52.8,34.9,97.4,83,112V678c0,18.7,15.3,34,34,34l0,0c18.7,0,34-15.3,34-34v-27.3h25.5c18.7,0,34-15.3,34-34l0,0
		c0-18.7-15.3-34-34-34H548v-21.4h34c18.7,0,34-15.3,34-34l0,0C616,508.6,600.8,493.3,582,493.3z M464.1,348.6
		c0-27.5,22.3-49.9,49.9-49.9c27.5,0,49.9,22.3,49.9,49.9c0,27.5-22.3,49.9-49.9,49.9C486.5,398.5,464.1,376.1,464.1,348.6z"/>
</g>
<g id="DINGSH_x5F_复制_3">
	<g>
		<path class="st2" d="M805,73.2h-73.2v72.1H805c80.7,0.6,145.9,66.2,145.9,147s-65.2,146.4-145.9,147l0,0h-74.4v72.1H805l0,0
			c120.5-0.6,218-98.5,218-219.1S925.5,73.8,805,73.2z"/>
		<path class="st2" d="M218,877.6h74.4v-72.1H218c-80.7-0.6-145.9-66.2-145.9-147s65.2-146.4,145.9-147l0,0h74.4v-72.1H218l0,0
			C97.5,440,0,537.9,0,658.5C0,779.2,97.5,877,218,877.6z"/>
		<circle class="st3" cx="254" cy="842.7" r="61.2"/>
		<circle class="st3" cx="764.4" cy="477.7" r="61.2"/>
		<g>
			<path class="st4" d="M753.9,585.9H266.6c-6.6,0-12-5.4-12-12V378.1c0-6.6,5.4-12,12-12h487.3c6.6,0,12,5.4,12,12v195.7
				C765.9,580.5,760.5,585.9,753.9,585.9z"/>
		</g>
		<g>
			<path class="st4" d="M755.2,219.7H267.9c-6.6,0-12-5.4-12-12V12c0-6.6,5.4-12,12-12h487.3c6.6,0,12,5.4,12,12v195.7
				C767.2,214.3,761.8,219.7,755.2,219.7z"/>
		</g>
		<g>
			<path class="st4" d="M755.2,952H267.9c-6.6,0-12-5.4-12-12V744.3c0-6.6,5.4-12,12-12h487.3c6.6,0,12,5.4,12,12V940
				C767.2,946.6,761.8,952,755.2,952z"/>
		</g>
	</g>
</g>
<g id="图层_5_x5F_复制" class="st0">
	<path class="st5" d="M908,89.4L511.9-36.2L116,89.4c-14.9,4.7-24.9,18.5-24.8,34.2v499.8c0.8,3.4,19.5,85.7,100.4,165.4
		c62.3,61.3,211.7,140.1,276.8,174.2c10.2,5.3,15,7.3,19.3,9.7l19.3,9.6c5.1,2.7,14.2,2.6,19.3,0l19.3-9.6
		C583.6,954.1,760,859.6,832,788.8c81.1-79.7,99.8-162,100.5-165.4V123.6C933,107.9,922.9,94.1,908,89.4L908,89.4z M516.9,904.8
		l-0.3-0.1h0.7C517,904.8,516.9,904.8,516.9,904.8L516.9,904.8z"/>
	<path class="st6" d="M592.9,495.6h-38.8v-37.2c54.7-16.6,94.5-67.4,94.5-127.5c0-73.6-59.6-133.2-133.2-133.2
		s-133.2,59.6-133.2,133.2c0,60.1,39.8,110.9,94.5,127.5v247.5c0,21.3,17.4,38.8,38.8,38.8l0,0c21.3,0,38.8-17.4,38.8-38.8v-31.1
		h29.1c21.3,0,38.8-17.4,38.8-38.8l0,0c0-21.3-17.4-38.8-38.8-38.8h-29.1V573H593c21.3,0,38.8-17.4,38.8-38.8l0,0
		C631.7,513.1,614.2,495.6,592.9,495.6z M458.7,330.9c0-31.4,25.4-56.8,56.8-56.8c31.4,0,56.8,25.4,56.8,56.8s-25.4,56.8-56.8,56.8
		S458.7,362.3,458.7,330.9z"/>
</g>
<g id="图层_6" class="st0">
</g>
</svg>
