<!-- Generated by IcoMoon.io -->
<svg version="1.1" xmlns="http://www.w3.org/2000/svg" width="32" height="32" viewBox="0 0 32 32">
<title>refresh</title>
<path fill="#3A84FF" d="M22.34 27.26c0.26 0.5 0.080 1.1-0.42 1.36-2 1.040-4.16 1.56-6.34 1.56-3.32 0-6.62-1.22-9.18-3.54-5.38-4.9-5.9-13.14-1.34-18.7l-3.84 0.88c-0.54 0.12-1.080-0.2-1.2-0.74s0.2-1.080 0.74-1.2l7.12-1.66 1.66 7.12c0.12 0.54-0.2 1.080-0.74 1.2-0.080 0.020-0.14 0.020-0.22 0.020-0.46 0-0.86-0.32-0.98-0.78l-0.86-3.7c-4 4.74-3.6 11.86 1.020 16.060 3.6 3.28 8.92 3.96 13.24 1.7 0.48-0.26 1.080-0.080 1.34 0.42zM31.98 23.92c-0.12-0.54-0.66-0.86-1.2-0.74l-3.84 0.9c2.14-2.6 3.24-5.86 3.080-9.26-0.18-3.64-1.74-6.98-4.44-9.44-4.22-3.86-10.46-4.66-15.5-1.98-0.5 0.26-0.68 0.86-0.42 1.34s0.86 0.68 1.34 0.42c4.32-2.28 9.64-1.6 13.24 1.7 2.3 2.080 3.64 4.94 3.78 8.040 0.14 2.96-0.84 5.8-2.76 8.040l-0.86-3.72c-0.12-0.54-0.66-0.88-1.2-0.74-0.54 0.12-0.88 0.66-0.74 1.2l1.66 7.12 7.12-1.66c0.52-0.14 0.86-0.68 0.74-1.22z"></path>
</svg>
