<?xml version="1.0" encoding="UTF-8"?>
<svg width="16px" height="16px" viewBox="0 0 16 16" version="1.1" xmlns="http://www.w3.org/2000/svg" xmlns:xlink="http://www.w3.org/1999/xlink">
    <title>等待-03</title>
    <g id="项目管理" stroke="none" stroke-width="1" fill="none" fill-rule="evenodd">
        <g id="新建项目-交互说明" transform="translate(-3112.000000, -1025.000000)" fill-rule="nonzero">
            <g id="编组-3备份-5" transform="translate(1810.000000, 787.000000)">
                <g id="Table/42px样例" transform="translate(24.000000, 182.000000)">
                    <g id="编组-5" transform="translate(1204.000000, 0.000000)">
                        <g id="等待-03" transform="translate(74.000000, 56.000000)">
                            <rect id="矩形" fill="#000000" opacity="0" x="0" y="0" width="16" height="16"></rect>
                            <path d="M3.58999999,14 C3.34999998,14 3.13999999,13.79 3.13999999,13.55 C3.13999999,11.45 4.21999999,9.53 6.01999999,8.45 C6.16999999,8.36 6.25999999,8.21 6.25999999,8.03 C6.25999999,7.85 6.16999999,7.69999999 6.01999999,7.61 C4.21999999,6.53000001 3.13999999,4.58 3.13999999,2.48000001 C3.13999999,2.21000001 3.34999998,2 3.58999999,2 C3.82999999,2 4.03999999,2.21 4.03999999,2.45 C4.03999999,4.22 4.96999998,5.87 6.5,6.80000001 C7.15999999,7.19 7.37,8.06 6.97999999,8.72 C6.86,8.92999999 6.70999999,9.08 6.5,9.19999999 C4.97,10.13 4.04,11.75 4.03999999,13.55 C4.03999999,13.79 3.85999999,14 3.58999999,14 Z M12.35,14 C12.11,14 11.9,13.79 11.9,13.55 C11.9,11.78 10.97,10.13 9.46999999,9.19999999 C8.81,8.81 8.59999999,7.94 8.98999999,7.28 C9.10999998,7.07000001 9.28999998,6.92 9.46999999,6.80000001 C10.97,5.87000001 11.9,4.22 11.9,2.45 C11.9,2.21 12.11,2 12.35,2 C12.59,2 12.8,2.21 12.8,2.45 C12.8,4.54999999 11.72,6.47 9.91999999,7.58 C9.76999999,7.67 9.67999999,7.82 9.67999999,8 C9.67999999,8.18 9.76999999,8.33 9.91999999,8.42 C11.69,9.5 12.8,11.42 12.8,13.52 C12.8,13.76 12.62,14 12.35,14 C12.38,14 12.35,14 12.35,14 L12.35,14 Z M13.49,2.9 L2.45,2.9 C2.18,2.9 2,2.69 2,2.45 C2,2.21 2.18,2 2.45,2 L13.52,2 C13.76,2 13.97,2.21 13.97,2.45 C13.97,2.69 13.76,2.9 13.49,2.9 Z M9.16999999,12.05 L6.77,12.05 C6.52999999,12.05 6.32,11.84 6.32,11.6 C6.32,11.36 6.52999999,11.15 6.77,11.15 L9.16999999,11.15 C9.40999999,11.15 9.61999998,11.36 9.61999998,11.6 C9.61999998,11.84 9.40999999,12.05 9.16999999,12.05 Z M13.49,14 L2.45,14 C2.21,14 2,13.79 2,13.55 C2,13.31 2.18,13.1 2.45,13.1 L13.52,13.1 C13.76,13.1 13.97,13.31 13.97,13.55 C13.97,13.79 13.76,14 13.49,14 Z" id="形状" fill="#699DF4"></path>
                        </g>
                    </g>
                </g>
            </g>
        </g>
    </g>
</svg>