<?xml version="1.0" encoding="UTF-8"?>
<svg width="28px" height="28px" viewBox="0 0 28 28" version="1.1" xmlns="http://www.w3.org/2000/svg" xmlns:xlink="http://www.w3.org/1999/xlink">
    <title>Icon/1 常用图标/3 圆-终止</title>
    <defs>
        <path d="M16,2 C23.73125,2 30,8.26875 30,16 C30,23.73125 23.73125,30 16,30 C8.26875,30 2,23.73125 2,16 C2,8.26875 8.26875,2 16,2 Z M16,4 C14.3785473,4 12.8070815,4.31554283 11.3293413,4.9435043 C9.90158813,5.54647227 8.61754751,6.41187191 7.51470971,7.51470971 C6.41187191,8.61754751 5.54647227,9.90158813 4.9435043,11.3293413 C4.31554283,12.8070815 4,14.3785473 4,16 C4,17.6214527 4.31866701,19.1929185 4.9435043,20.6706587 C5.54647227,22.0984119 6.41187191,23.3824525 7.51470971,24.4852903 C8.61754751,25.5881281 9.90158813,26.4535277 11.3293413,27.0564957 C12.8070815,27.6844572 14.3785473,28 16,28 C17.6214527,28 19.1929185,27.681333 20.6706587,27.0564957 C22.0984119,26.4535277 23.3824525,25.5881281 24.4852903,24.4852903 C25.5881281,23.3824525 26.4535277,22.0984119 27.0564957,20.6706587 C27.6844572,19.1929185 28,17.6214527 28,16 C28,14.3785473 27.681333,12.8070815 27.0564957,11.3293413 C26.4535277,9.90158813 25.5881281,8.61754751 24.4852903,7.51470971 C23.3824525,6.41187191 22.0984119,5.54647227 20.6706587,4.9435043 C19.1929185,4.31554283 17.6214527,4 16,4 Z M11.7573593,10.3431458 L21.6568542,20.2426407 C22.0473785,20.633165 22.0473785,21.26633 21.6568542,21.6568542 C21.26633,22.0473785 20.633165,22.0473785 20.2426407,21.6568542 L10.3431458,11.7573593 C9.95262146,11.366835 9.95262146,10.73367 10.3431458,10.3431458 C10.73367,9.95262146 11.366835,9.95262146 11.7573593,10.3431458 Z" id="path-1"></path>
    </defs>
    <g id="控件" stroke="none" stroke-width="1" fill="none" fill-rule="evenodd">
        <g id="编组" transform="translate(-2.000000, -2.000000)">
            <mask id="mask-2" fill="white">
                <use xlink:href="#path-1"></use>
            </mask>
            <use id="形状" fill="#FF9C01" xlink:href="#path-1"></use>
        </g>
    </g>
</svg>