<svg viewBox="0 0 1024 1024" version="1.1" xmlns="http://www.w3.org/2000/svg"><g fill-rule="evenodd" clip-rule="evenodd"><path d="M614.4 416.4266666666666c-40.96-68.26666666666667-157.01333333333332-75.09333333333333-204.8 0-34.13333333333333 47.78666666666666-81.92 136.53333333333333-109.22666666666667 191.14666666666665-47.78666666666666 95.57333333333332 40.96 177.49333333333334 116.05333333333333 177.49333333333334 40.96 0 95.57333333333332-34.13333333333333 95.57333333333332-34.13333333333333s68.26666666666667 47.78666666666666 122.88 34.13333333333333c81.92-13.653333333333334 122.88-102.4 95.57333333333332-163.84C696.3199999999999 552.9599999999999 648.5333333333333 477.8666666666667 614.4 416.4266666666666zM614.4 716.8C573.44 716.8 546.1333333333333 682.6666666666666 512 682.6666666666666 477.8666666666667 682.6666666666666 450.55999999999995 716.8 409.6 716.8c-47.78666666666666 0-68.26666666666667-47.78666666666666-47.78666666666666-81.92 13.653333333333334-34.13333333333333 75.09333333333333-136.53333333333333 95.57333333333332-170.66666666666666 27.30666666666667-47.78666666666666 81.92-40.96 109.22666666666667 0 27.30666666666667 40.96 68.26666666666667 122.88 95.57333333333332 170.66666666666666C682.6666666666666 675.84 648.5333333333333 716.8 614.4 716.8z" opacity=".97"/><path d="M955.7333333333333 436.9066666666667c-95.57333333333332-157.01333333333332-218.45333333333335-211.62666666666667-218.45333333333335-211.62666666666667s6.826666666666667-116.05333333333333 6.826666666666667-163.84c0-54.61333333333334-68.26666666666667-61.44-75.09333333333333-13.653333333333334C662.1866666666666 88.74666666666667 634.88 191.14666666666665 634.88 191.14666666666665S593.92 170.66666666666666 512 170.66666666666666c-75.09333333333333 0-122.88 20.48-122.88 20.48s-27.30666666666667-116.05333333333333-34.13333333333333-136.53333333333333C341.3333333333333 6.826666666666667 273.06666666666666 0 279.8933333333333 68.26666666666667s6.826666666666667 163.84 6.826666666666667 163.84-116.05333333333333 54.61333333333334-204.8 184.32000000000002c-81.92 129.70666666666665-95.57333333333332 259.4133333333333-68.26666666666667 341.3333333333333 27.30666666666667 81.92 129.70666666666665 238.93333333333334 498.34666666666664 238.93333333333334s457.38666666666666-170.66666666666666 477.8666666666667-204.8C1017.1733333333333 757.76 1058.1333333333332 607.5733333333334 955.7333333333333 436.9066666666667zM887.4666666666667 819.2c-68.26666666666667 61.44-177.49333333333334 109.22666666666667-354.9866666666667 109.22666666666667-170.66666666666666 0-327.68-27.30666666666667-402.77333333333337-116.05333333333333s-68.26666666666667-211.62666666666667 0-348.15999999999997c68.26666666666667-129.70666666666665 238.93333333333334-225.27999999999997 375.46666666666664-232.10666666666665 177.49333333333334 0 341.3333333333333 122.88 409.6 266.24C976.2133333333334 648.5333333333333 955.7333333333333 764.5866666666666 887.4666666666667 819.2z"/></g></svg>