<svg width="15" height="15" viewBox="0 0 15 15" fill="none" xmlns="http://www.w3.org/2000/svg">
<path fill-rule="evenodd" clip-rule="evenodd" d="M5.67343 2.68763C6.23311 2.5314 6.81841 2.44599 7.42088 2.44599C8.02335 2.44599 8.60867 2.5314 9.16836 2.68764L9.62366 0.848987C9.71538 0.479925 9.89534 0.225818 10.2835 0.28665C10.7503 0.35981 10.7761 0.68293 10.7572 1.02665L10.6313 3.28183C13.0265 4.57668 14.6738 7.16099 14.6738 9.48574C14.6738 12.7498 11.4265 14.2661 7.42088 14.2661C3.41521 14.2661 0.167969 12.7498 0.167969 9.48574C0.167969 7.16098 1.81522 4.57665 4.21052 3.28181L4.08456 1.02665C4.06572 0.68293 4.09153 0.35981 4.55832 0.28665C4.94645 0.225818 5.12641 0.479925 5.21813 0.848987L5.67343 2.68763ZM8.42872 5.85586C7.98074 5.07994 6.86079 5.07994 6.41281 5.85586L4.3806 9.37575C3.80096 10.3797 4.88522 11.5214 5.91775 10.9943L6.89156 10.4972C7.22395 10.3275 7.61755 10.3275 7.94993 10.4972L8.9238 10.9943C9.95632 11.5214 11.0406 10.3797 10.4609 9.37576L8.42872 5.85586Z" fill="url(#paint0_linear_59_487)"/>
<defs>
<linearGradient id="paint0_linear_59_487" x1="5.61913" y1="2.61882" x2="12.3775" y2="12.1769" gradientUnits="userSpaceOnUse">
<stop stop-color="#84F37A"/>
<stop offset="0.319859" stop-color="#52D6FF"/>
<stop offset="0.875" stop-color="#4D27E3"/>
<stop offset="1" stop-color="#8527E3"/>
</linearGradient>
</defs>
</svg>
