<!-- Generated by IcoMoon.io -->
<svg version="1.1" xmlns="http://www.w3.org/2000/svg" width="25" height="32" viewBox="0 0 25 32">
<title>android-shape</title>
<path d="M8.804 8.625c0.393 0 0.696-0.321 0.696-0.696s-0.304-0.696-0.696-0.696c-0.375 0-0.679 0.321-0.679 0.696s0.304 0.696 0.679 0.696zM16.339 8.625c0.375 0 0.679-0.321 0.679-0.696s-0.304-0.696-0.679-0.696c-0.393 0-0.696 0.321-0.696 0.696s0.304 0.696 0.696 0.696zM1.839 11.911c1 0 1.821 0.821 1.821 1.821v7.679c0 1.018-0.804 1.839-1.821 1.839s-1.839-0.821-1.839-1.839v-7.679c0-1 0.821-1.821 1.839-1.821zM20.768 12.25v11.893c0 1.089-0.875 1.964-1.946 1.964h-1.339v4.054c0 1.018-0.821 1.839-1.839 1.839s-1.839-0.821-1.839-1.839v-4.054h-2.464v4.054c0 1.018-0.821 1.839-1.839 1.839-1 0-1.821-0.821-1.821-1.839l-0.018-4.054h-1.321c-1.089 0-1.964-0.875-1.964-1.964v-11.893h16.393zM16.625 5.018c2.5 1.286 4.196 3.75 4.196 6.589h-16.518c0-2.839 1.696-5.304 4.214-6.589l-1.268-2.339c-0.071-0.125-0.036-0.286 0.089-0.357 0.125-0.054 0.286-0.018 0.357 0.107l1.286 2.357c1.089-0.482 2.304-0.75 3.589-0.75s2.5 0.268 3.589 0.75l1.286-2.357c0.071-0.125 0.232-0.161 0.357-0.107 0.125 0.071 0.161 0.232 0.089 0.357zM25.143 13.732v7.679c0 1.018-0.821 1.839-1.839 1.839-1 0-1.821-0.821-1.821-1.839v-7.679c0-1.018 0.821-1.821 1.821-1.821 1.018 0 1.839 0.804 1.839 1.821z"></path>
</svg>
