

<svg class="bk-icon" style="width: 1em; height: 1em;vertical-align: middle;fill: currentColor;overflow: hidden;" viewBox="0 0 24 24" version="1.1" xmlns="http://www.w3.org/2000/svg">

<g>
	<path fill="#737987" d="M20,3h-6c-0.6,0-1,0.4-1,1v6c0,0.6,0.4,1,1,1h6c0.6,0,1-0.4,1-1V4C21,3.4,20.6,3,20,3z M19.4,9.4h-4.9V4.6h4.9
		V9.4z"/>
	<path fill="#737987" d="M20,13h-6c-0.6,0-1,0.4-1,1v6c0,0.6,0.4,1,1,1h6c0.6,0,1-0.4,1-1v-6C21,13.4,20.6,13,20,13z M19.4,19.4h-4.9
		v-4.9h4.9V19.4z"/>
	<path fill="#737987" d="M10,13H4c-0.6,0-1,0.4-1,1v6c0,0.6,0.4,1,1,1h6c0.6,0,1-0.4,1-1v-6C11,13.4,10.6,13,10,13z M9.5,19.4H4.6v-4.9
		h4.9V19.4z"/>
	<path fill="#737987" d="M10,3H4C3.4,3,3,3.4,3,4v6c0,0.6,0.4,1,1,1h6c0.6,0,1-0.4,1-1V4C11,3.4,10.6,3,10,3z M9.5,9.5H4.6V4.6h4.9V9.5
		z"/>
</g>
</svg>
