<svg viewBox="0 0 1024 1024" version="1.1" xmlns="http://www.w3.org/2000/svg"><path  fill-rule="evenodd" d="M768 704L904 704C908.41827776 704 912 707.5817216 912 712L912 760C912 764.4182784 908.41827776 768 904 768L768 768 768 904C768 908.4182784 764.4182777600001 912 760 912L712 912C707.5817222400001 912 704 908.4182784 704 904L704 768 568 768C563.5817222400001 768 560 764.4182784 560 760L560 712C560 707.5817216 563.5817222400001 704 568 704L704 704 704 568C704 563.58172224 707.5817222400001 560 712 560L760 560C764.4182777600001 560 768 563.58172224 768 568L768 704ZM840 184L632 184.00000000000003 632 392 840 392 840 184ZM912 144L912 432C912 449.67300032 897.67300032 464 880 464L592 464C574.32699968 464 560 449.67300032 560 432L560 144.00000000000003C560 126.32699968000003 574.32699968 112.00000000000003 592 112.00000000000003L880 112.00000000000001C897.67300032 112.00000000000001 912 126.32699968 912 144ZM392 184.00000000000003L184 184.00000000000006 184 392.00000000000006 392 392.00000000000006 392 184.00000000000003ZM464 144.00000000000003L464 432.00000000000006C464 449.6730003200001 449.67300032 464.00000000000006 432 464.00000000000006L144 464.00000000000006C126.32700160000002 464.00000000000006 112 449.6730003200001 112 432.00000000000006L112 144.00000000000006C112 126.32699968000006 126.32700160000002 112.00000000000006 144 112.00000000000006L432 112.00000000000004C449.67300032 112.00000000000003 464 126.32699968000003 464 144.00000000000003ZM392 632L184 632 184 840 392 840 392 632ZM464 592L464 880C464 897.6729984 449.67300032 912 432 912L144 912C126.32700160000002 912 112 897.6729984 112 880L112 592C112 574.32699968 126.32700160000002 560 144 560L432 560C449.67300032 560 464 574.32699968 464 592Z"/></svg>