<svg width="14px" height="14.2318774px" viewBox="0 0 14 14.2318774" version="1.1" xmlns="http://www.w3.org/2000/svg" xmlns:xlink="http://www.w3.org/1999/xlink">
    <g stroke="none" stroke-width="1" fill="none" fill-rule="evenodd">
        <g transform="translate(-88, -1670)">
            <g transform="translate(5, 787)">
                <g transform="translate(0, 110)">
                    <g transform="translate(0, 751)">
                        <g transform="translate(45, 1)">
                            <g transform="translate(37, 20)">
                                <path d="M1.6409375,8.43560625 L1.6409375,9.61889792 C1.64134294,9.90018516 1.86183256,10.1319524 2.14275,10.1463771 L2.17089583,10.1471063 L4.08510417,10.1471063 C4.22556631,10.1470184 4.36033751,10.202605 4.45989583,10.3016896 C4.5590625,10.4008563 4.6150625,10.5353146 4.6150625,10.6753146 L4.6150625,10.9394188 C4.6150625,11.0794188 4.67077083,11.2138771 4.77022917,11.3130438 C4.86978749,11.4121284 5.00455869,11.4677149 5.14502083,11.4676271 L10.795625,11.4676271 C10.9360871,11.4677149 11.0708583,11.4121284 11.1704167,11.3130438 C11.2697554,11.2140846 11.3255916,11.0796368 11.3255833,10.9394188 L11.3255833,10.6754604 C11.3255833,10.5353146 11.3812917,10.4008563 11.48075,10.3018354 C11.5802845,10.2026973 11.7150587,10.1470571 11.8555417,10.1471063 L13.8291042,10.1471063 C14.1212521,10.1475093 14.3584338,9.9110457 14.3589167,9.61889792 L14.3589167,8.43560625 L14.4999375,8.43560625 C14.6326458,8.43560625 14.7598125,8.48810625 14.8535833,8.58158542 C14.9473026,8.67494459 15,8.80177991 15,8.93406458 L15,14.7335646 C15,14.8656896 14.9473542,14.9925646 14.8535833,15.0860438 C14.7596432,15.1795361 14.6324727,15.2319776 14.4999375,15.2318772 L1.50020833,15.2318772 C1.3675,15.2318772 1.24033333,15.1793771 1.1465625,15.0860438 C1.05278974,14.9927085 1,14.8658703 1,14.7335646 L1,8.93406458 C1,8.80193958 1.05264583,8.67506458 1.14641667,8.58158542 C1.24035684,8.48809305 1.36752734,8.43560625 1.5000625,8.43575208 L1.6409375,8.43575208 L1.6409375,8.43560625 Z M11.0398958,12.7146479 L5.0989375,12.7146479 L5.0989375,13.7115646 L11.0398958,13.7115646 L11.0398958,12.7146479 Z M13.2501458,1.00000104 C13.3825639,0.999769835 13.5096486,1.05216004 13.6034327,1.14564333 C13.6972168,1.23912663 13.7500151,1.36604231 13.7502083,1.49846042 L13.7502083,8.97475208 C13.7499379,9.10714493 13.6970855,9.23400783 13.6032782,9.32743226 C13.5094708,9.42085669 13.3823928,9.47318977 13.25,9.47291875 L11.3395833,9.47291875 C11.206875,9.47291875 11.0797083,9.52541875 10.9859375,9.61889792 C10.8922182,9.71225709 10.839532,9.83909241 10.8395208,9.97137708 L10.8395208,10.2206063 C10.8395208,10.3527313 10.786875,10.4796063 10.6931042,10.5730854 C10.599164,10.6665778 10.4719935,10.7190192 10.3394583,10.7189189 L5.54927083,10.7189189 C5.4165625,10.7189189 5.28954167,10.6664188 5.19577083,10.5730854 C5.10199807,10.4797502 5.04925811,10.3529119 5.04920833,10.2206063 L5.04920833,9.97137708 C5.04920833,9.83925208 4.99670833,9.71237708 4.90279167,9.61889792 C4.80888729,9.52544122 4.68177632,9.4730027 4.54929167,9.47306458 L2.742125,9.47306458 C2.60970695,9.47329683 2.48262228,9.42090663 2.38883813,9.32742334 C2.29505399,9.23394004 2.24225572,9.10702436 2.2420625,8.97460625 L2.2420625,1.49846042 C2.24225568,1.36601699 2.29507397,1.23907917 2.38888968,1.14559168 C2.48270539,1.05210419 2.60982755,0.999731098 2.74227083,1.00000104 L13.25,1.00000104 L13.2501458,1.00000104 Z M11.5,5.65193958 L4.5,5.65193958 L4.5,6.64871042 L11.5,6.64871042 L11.5,5.65208542 L11.5,5.65193958 Z M11.5,3.15979375 L4.5,3.15979375 L4.5,4.15671042 L11.5,4.15671042 L11.5,3.15979375 L11.5,3.15979375 Z" id="形状" fill="currentColor"></path>
                                <rect id="codesign_placeholder_name" x="0" y="0" width="16" height="16"></rect>
                            </g>
                        </g>
                    </g>
                </g>
            </g>
        </g>
    </g>
</svg>