<svg xmlns="http://www.w3.org/2000/svg" viewBox="0 0 77 78" class="design-iconfont">
  <defs>
    <linearGradient x1="26.6395929%" y1="16.6139987%" x2="63.7401566%" y2="104.718162%" id="w796oekx4__u7y1tb7v0a">
      <stop stop-color="#EAEBF0" offset="0%"/>
      <stop stop-color="#FAFBFD" offset="100%"/>
    </linearGradient>
  </defs>
  <path d="M66.3532313,43.9969127 L56.4980908,43.9969127 C54.3129524,43.9969127 52.3400474,42.6903053 51.4867822,40.6791406 L48.114147,32.7290482 C47.6247106,31.574758 47.9387296,30.2522692 48.8714018,29.4141636 C52.2028897,26.4226823 54.0097617,21.7730369 52.9485944,16.7487344 C51.8989772,11.7749637 47.8752039,7.75552173 42.8992675,6.71673275 C34.3666159,4.93512664 26.8547062,11.3988629 26.8547062,19.6174956 C26.8547062,23.5741338 28.6096027,27.1034176 31.3722472,29.515949 C32.3337947,30.3554984 32.6738014,31.6967562 32.1749805,32.8719809 L28.8629834,40.6791406 C28.0097183,42.6903053 26.0360914,43.9969127 23.8516749,43.9969127 L13.6767405,43.9969127 C12.198325,43.9969127 11,45.1952378 11,46.6736532 L11,57.1604409 C11,58.6388563 12.198325,59.8371813 13.6767405,59.8371813 L66.3532313,59.8371813 C67.8316467,59.8371813 69.029972,58.6388563 69.029972,57.1604409 L69.029972,46.6743751 C69.0306936,45.1959596 67.8323686,43.9969127 66.3532313,43.9969127 L66.3532313,43.9969127 Z M65.1000432,65.1394086 L14.9739634,65.1394086 C14.2369213,65.1394086 13.6399244,65.7364054 13.6399244,66.4734475 L13.6399244,69.0852185 C13.6399244,69.8222606 14.2369213,70.4192575 14.9739634,70.4192575 L65.1000432,70.4192575 C65.8370852,70.4192575 66.4340821,69.8222606 66.4340821,69.0852185 L66.4340821,66.4734475 C66.4340821,65.7371273 65.8370852,65.1394086 65.1000432,65.1394086 Z" fill="url(#w796oekx4__u7y1tb7v0a)" fill-rule="nonzero" transform="rotate(15 37.8095728 38.70965)"/>
</svg>
