<svg width="32" height="32" viewBox="0 0 32 32" fill="none" xmlns="http://www.w3.org/2000/svg">
<path d="M7.60004 2.40001C7.70613 2.40001 7.80787 2.44215 7.88288 2.51716C7.9579 2.59218 8.00004 2.69392 8.00004 2.80001V5.00001C10.3234 3.30671 13.1251 2.39617 16 2.40001C23.5112 2.40001 29.6 8.48881 29.6 16C29.6 23.5112 23.5112 29.6 16 29.6C8.70004 29.6 2.61124 23.788 2.40564 16.38C2.40564 16.1264 2.53684 16 2.80084 16H5.19924C5.44084 16 5.57524 16.1024 5.60244 16.3064L5.60724 16.388C5.81124 21.952 10.3864 26.4 16 26.4C21.744 26.4 26.4 21.744 26.4 16C26.4 10.256 21.744 5.60001 16 5.60001C13.9984 5.60001 12.088 6.16721 10.4528 7.20001H12.4C12.5061 7.20001 12.6079 7.24215 12.6829 7.31716C12.7579 7.39218 12.8 7.49392 12.8 7.60001V10C12.8 10.1061 12.7579 10.2078 12.6829 10.2828C12.6079 10.3579 12.5061 10.4 12.4 10.4H5.20004C5.09395 10.4 4.99221 10.3579 4.9172 10.2828C4.84218 10.2078 4.80004 10.1061 4.80004 10V2.80001C4.80004 2.69392 4.84218 2.59218 4.9172 2.51716C4.99221 2.44215 5.09395 2.40001 5.20004 2.40001H7.60004ZM20.752 11.152L22.448 12.848C22.4853 12.8852 22.5148 12.9293 22.535 12.9779C22.5552 13.0265 22.5656 13.0786 22.5656 13.1312C22.5656 13.1838 22.5552 13.2359 22.535 13.2845C22.5148 13.3331 22.4853 13.3772 22.448 13.4144L14.6832 21.18C14.6461 21.2173 14.6019 21.2468 14.5533 21.267C14.5048 21.2871 14.4527 21.2975 14.4 21.2975C14.3474 21.2975 14.2953 21.2871 14.2467 21.267C14.1981 21.2468 14.154 21.2173 14.1168 21.18L9.55124 16.6144C9.47625 16.5394 9.43413 16.4377 9.43413 16.3316C9.43413 16.2255 9.47625 16.1238 9.55124 16.0488L11.2488 14.3512C11.3239 14.2762 11.4256 14.2341 11.5316 14.2341C11.6377 14.2341 11.7394 14.2762 11.8144 14.3512L14.4 16.9368L20.1856 11.1512C20.2607 11.0762 20.3624 11.0341 20.4684 11.0341C20.5745 11.0341 20.6762 11.0762 20.7512 11.1512L20.752 11.152Z" fill="#4D4F56"/>
</svg>
