<?xml version="1.0" encoding="UTF-8"?>
<svg xmlns="http://www.w3.org/2000/svg" xmlns:xlink="http://www.w3.org/1999/xlink" width="9px" height="16px" viewBox="0 0 9 16" version="1.1">
  <path fill="currentColor" d="M8.67195107,3.98392268 C8.67195107,3.06986018 7.92488075,2.33011409 7.00788857,2.34329768 C6.11872841,2.35648127 5.39656044,3.08450862 5.39070107,3.97366877 C5.38630654,4.74417659 5.91218544,5.39163752 6.6240995,5.57327815 C6.82917763,5.62601252 6.97273232,5.80765315 6.97712685,6.01859065 C6.98445107,6.41849299 6.91267372,6.85941096 6.65046669,7.22708674 C6.23005654,7.81741877 5.46833779,8.03128596 4.7959745,8.2202508 C4.37116982,8.33890315 4.06208779,8.36966487 3.78962685,8.39603205 C3.4029081,8.43411799 3.03669716,8.47073909 2.57966591,8.73294612 C2.48298622,8.78861018 2.38777138,8.85013362 2.29841591,8.91751643 C2.22077919,8.97611018 2.11091591,8.92044612 2.11091591,8.82376643 L2.11091591,3.53421565 C2.11091591,3.35550471 2.21052529,3.18997737 2.37019325,3.1108758 C2.91365029,2.84134455 3.28718544,2.27884455 3.28279091,1.62991877 C3.27546669,0.709996898 2.50349404,-0.0312140391 1.58357216,0.00101252341 C0.704665911,0.0303093984 3.7701898e-05,0.752477367 3.7701898e-05,1.64017268 C3.7701898e-05,2.28470393 0.37214638,2.8428094 0.912673724,3.1108758 C1.07234169,3.18997737 1.17195107,3.35257502 1.17195107,3.52982112 L1.17195107,11.4648797 C1.17195107,11.6435906 1.07234169,11.809118 0.912673724,11.8882196 C0.369216692,12.1577508 -0.00431846397,12.7202508 3.7701898e-05,13.3691766 C0.00593544228,14.2890985 0.777908099,15.0288446 1.69782997,14.9980828 C2.57820107,14.968786 3.28132607,14.2451531 3.28132607,13.3589227 C3.28132607,12.7143914 2.90925575,12.156286 2.36872841,11.8882196 C2.20906044,11.809118 2.10945107,11.6465203 2.10945107,11.4692742 L2.10945107,11.1880242 C2.10945107,10.5727899 2.40095497,9.98978205 2.90486122,9.63675471 C2.95027138,9.60452815 2.99861122,9.57376643 3.04695107,9.5459344 C3.32966591,9.38333674 3.53767372,9.36282893 3.881912,9.32913752 C4.17781044,9.29984065 4.54548622,9.26321955 5.04939247,9.12259455 C5.78913857,8.91458674 6.8013456,8.6318719 7.41365029,7.77054377 C7.76521279,7.27689143 7.93220497,6.67191096 7.913162,5.96878596 C7.91023232,5.86771174 7.9029081,5.76663752 7.89265419,5.66263362 C7.87654091,5.50589534 7.94392372,5.35501643 8.06550575,5.25540705 C8.43611122,4.95657893 8.67195107,4.49808284 8.67195107,3.98392268 Z M0.937576067,1.64017268 C0.937576067,1.25198909 1.25251747,0.93704768 1.64070107,0.93704768 C2.02888466,0.93704768 2.34382607,1.25198909 2.34382607,1.64017268 C2.34382607,2.02835627 2.02888466,2.34329768 1.64070107,2.34329768 C1.25251747,2.34329768 0.937576067,2.02835627 0.937576067,1.64017268 Z M2.34382607,13.3589227 C2.34382607,13.7471063 2.02888466,14.0620477 1.64070107,14.0620477 C1.25251747,14.0620477 0.937576067,13.7471063 0.937576067,13.3589227 C0.937576067,12.9707391 1.25251747,12.6557977 1.64070107,12.6557977 C2.02888466,12.6557977 2.34382607,12.9707391 2.34382607,13.3589227 Z M7.03132607,4.68704768 C6.64314247,4.68704768 6.32820107,4.37210627 6.32820107,3.98392268 C6.32820107,3.59573909 6.64314247,3.28079768 7.03132607,3.28079768 C7.41950966,3.28079768 7.73445107,3.59573909 7.73445107,3.98392268 C7.73445107,4.37210627 7.41950966,4.68704768 7.03132607,4.68704768 Z"></path>
</svg>
