<!-- Generated by IcoMoon.io -->
<svg version="1.1" xmlns="http://www.w3.org/2000/svg" width="32" height="32" viewBox="0 0 32 32">
<title>atom-upload</title>
<path d="M28.031 13.216c-0.887-0.887-1.978-1.494-3.166-1.781-0.316-1.809-1.175-3.475-2.5-4.8-1.7-1.697-3.962-2.634-6.366-2.634s-4.666 0.938-6.363 2.637c-1.325 1.325-2.184 2.991-2.5 4.8-1.191 0.287-2.281 0.894-3.166 1.781-1.269 1.269-1.969 2.956-1.969 4.75v0.313c0 1.794 0.7 3.481 1.969 4.75s2.956 1.969 4.75 1.969h1.281v-2h-1.281c-2.603 0-4.719-2.116-4.719-4.719v-0.313c0-2.603 2.116-4.719 4.719-4.719h0.287c-0.003-0.081-0.006-0.166-0.006-0.247v0 0c0-0.053 0-0.103 0.003-0.153 0-0.012 0-0.025 0-0.041 0-0.050 0.003-0.1 0.006-0.147 0-0.012 0-0.022 0.003-0.034 0.003-0.037 0.003-0.078 0.006-0.116 0-0.019 0.003-0.037 0.003-0.056 0.003-0.044 0.006-0.084 0.009-0.128 0.003-0.025 0.006-0.050 0.009-0.078 0.003-0.019 0.003-0.037 0.006-0.059 0.037-0.322 0.097-0.637 0.175-0.944v0c0.306-1.2 0.931-2.3 1.831-3.197 1.316-1.322 3.075-2.050 4.944-2.050s3.628 0.728 4.95 2.050c0.897 0.897 1.522 1.997 1.831 3.197v0c0.078 0.306 0.137 0.622 0.175 0.944 0.003 0.019 0.003 0.037 0.006 0.059 0.003 0.025 0.006 0.050 0.009 0.078 0.003 0.044 0.006 0.084 0.009 0.128 0 0.019 0.003 0.037 0.003 0.056 0.003 0.037 0.006 0.078 0.006 0.116 0 0.012 0 0.022 0.003 0.034 0.003 0.050 0.003 0.1 0.006 0.147 0 0.012 0 0.025 0 0.041 0 0.050 0.003 0.103 0.003 0.153v0 0c0 0.084-0.003 0.166-0.006 0.247h0.288c2.603 0 4.719 2.116 4.719 4.719v0.313c0 2.603-2.116 4.719-4.719 4.719h-1.281v2h1.281c1.794 0 3.481-0.7 4.75-1.969s1.969-2.956 1.969-4.75v-0.313c-0.003-1.797-0.703-3.484-1.972-4.753z"></path>
<path d="M11.756 18.841l1.416 1.413 1.828-1.828v9.575h2v-9.575l1.828 1.828 1.416-1.413-4.244-4.244z"></path>
</svg>
