<!-- Generated by IcoMoon.io -->
<svg version="1.1" xmlns="http://www.w3.org/2000/svg" width="32" height="32" viewBox="0 0 32 32">
<title>docker-shape</title>
<path d="M16.966 13.153l-0.003 0.003h-2.831v2.825h2.834z"></path>
<path d="M20.434 13.153l-0.009 0.003h-2.813v2.825h2.822z"></path>
<path d="M13.481 9.609h-2.816v2.822h2.816z"></path>
<path d="M16.966 9.609h-2.834v2.822h2.834z"></path>
<path d="M16.966 5.987h-2.834v2.822h2.834z"></path>
<path d="M7.116 13.156v2.825h2.822v-2.828l-0.006 0.003z"></path>
<path d="M13.481 13.153l-0.019 0.003h-2.797v2.825h2.816z"></path>
<path d="M29.65 14.675c-0.944-0.578-2.241-0.653-3.325-0.363l-0.022 0.003c-0.156-1.159-0.875-2.1-1.819-2.825l-0.369-0.291-0.297 0.363c-0.578 0.653-0.806 1.809-0.734 2.675 0.069 0.653 0.281 1.306 0.647 1.813-0.297 0.144-0.666 0.291-0.944 0.434-0.666 0.216-1.313 0.291-1.959 0.291h-18.716l-0.069 0.434c-0.144 1.409 0.081 2.834 0.656 4.128l0.291 0.578c1.75 2.897 4.862 4.197 8.256 4.197 6.525 0 11.878-2.822 14.416-8.903 1.663 0.075 3.341-0.363 4.128-1.953l0.209-0.363-0.35-0.219zM7.438 22.469c-0.691 0-1.25-0.559-1.25-1.25s0.559-1.25 1.25-1.25 1.25 0.559 1.25 1.25c0 0.691-0.559 1.25-1.25 1.25z"></path>
<path d="M6.469 13.153l-0.037 0.003h-2.797v2.825h2.834z"></path>
<path d="M9.931 9.609h-2.819v2.822h2.819z"></path>
<path d="M8.063 21.219c0 0.345-0.28 0.625-0.625 0.625s-0.625-0.28-0.625-0.625c0-0.345 0.28-0.625 0.625-0.625s0.625 0.28 0.625 0.625z"></path>
</svg>
