<svg viewBox="0 0 1024 1024" version="1.1" xmlns="http://www.w3.org/2000/svg"><path fill="currentColor" d="M512 64a448 448 0 1 0 448 448A448 448 0 0 0 512 64Zm243.2 602.24v27.52a180.48 180.48 0 0 1-183.68 177.28 180.48 180.48 0 0 1-183.68-177.28V478.72a165.12 165.12 0 1 1 94.72 0v215.04a85.76 85.76 0 0 0 88.96 82.56 86.4 86.4 0 0 0 89.6-82.56v-27.52H581.12L755.2 524.8Z"/><path fill="currentColor" d="M506.24 321.28A71.04 71.04 0 0 1 435.2 392.32 71.04 71.04 0 0 1 364.15999999999997 321.28 71.04 71.04 0 0 1 506.24 321.28z"/><path fill="#fff" d="M661.12 666.24v27.52a86.4 86.4 0 0 1-89.6 82.56 85.76 85.76 0 0 1-88.96-82.56V478.72a165.12 165.12 0 1 0-94.72 0v215.04a180.48 180.48 0 0 0 183.68 177.28 180.48 180.48 0 0 0 183.68-177.28V524.8L581.12 666.24ZM435.2 391.68A71.04 71.04 0 1 1 506.24 320 71.04 71.04 0 0 1 435.2 391.68Z"/></svg>