<svg viewBox="0 0 1024 1024" version="1.1" xmlns="http://www.w3.org/2000/svg" style="fill: #ea3636;"><path fill="#ea3636" fill-rule="evenodd" d="M512 64C759.4 64 960 264.6 960 512 960 759.4 759.4 960 512 960 264.6 960 64 759.4 64 512 64 264.6 264.6 64 512 64ZM512 672C485.4903328 672 464 693.4903328 464 720 464 746.5096672 485.4903328 768 512 768 538.5096672 768 560 746.5096672 560 720 560 693.4903328 538.5096672 672 512 672ZM512 261.52889632C487.9463904 261.52889632 468.2776768 280.30288032 466.8477152 303.99699712L466.1753568 304 480 608C480 625.6731104 494.3268896 640 512 640 529.6731104 640 544 625.6731104 544 608L543.968 607.68 556.6796384 313.8767248C557.0455456 311.55974784 557.235552 309.18428736 557.235552 306.764448 557.235552 281.78154272 536.9829056 261.52889632 512 261.52889632Z"></path></svg>