<svg viewBox="0 0 32 32" version="1.1" fill="#EA3636" xmlns="http://www.w3.org/2000/svg"><path d="M16 32c-8.82 0-16-7.18-16-16s7.18-16 16-16 16 7.18 16 16-7.18 16-16 16zM16 2c-7.72 0-14 6.28-14 14s6.28 14 14 14c7.72 0 14-6.28 14-14s-6.28-14-14-14zM23 24c-0.26 0-0.52-0.1-0.7-0.3l-6.3-6.28-6.3 6.3c-0.4 0.4-1.020 0.4-1.42 0s-0.4-1.020 0-1.42l6.3-6.3-6.28-6.3c-0.4-0.4-0.4-1.020 0-1.42s1.020-0.4 1.42 0l6.28 6.3 6.3-6.3c0.4-0.4 1.020-0.4 1.42 0s0.4 1.020 0 1.42l-6.3 6.3 6.3 6.3c0.4 0.4 0.4 1.020 0 1.42-0.2 0.18-0.46 0.28-0.72 0.28z"/></svg>