<?xml version="1.0" encoding="utf-8"?>
<!-- Generator: Adobe Illustrator 22.0.1, SVG Export Plug-In . SVG Version: 6.00 Build 0)  -->
<svg version="1.1" xmlns="http://www.w3.org/2000/svg" xmlns:xlink="http://www.w3.org/1999/xlink" x="0px" y="0px"
	 viewBox="0 0 1024 1024" style="enable-background:new 0 0 1024 1024;" xml:space="preserve">
<g id="辅助线" class="st0">
</g>
<g id="网格" class="st0">
</g>
<g id="定时触发">
</g>
<g id="手动触发">
</g>
<g id="GIT">
	<path class="st2" d="M941,466.7L557.3,83c-12.1-12.1-28.2-18.7-45.3-18.7c-17.1,0-33.2,6.7-45.3,18.7L83,466.7
		c-12.1,12.1-18.7,28.2-18.7,45.3c0,17.1,6.7,33.2,18.7,45.3L466.7,941l0,0c12.5,12.5,28.9,18.7,45.3,18.7s32.8-6.2,45.3-18.7
		L941,557.3C966,532.3,966,491.7,941,466.7z M512,895.8C512,895.8,512,895.8,512,895.8L128.3,512L388,252.3l58.9,58.9
		c-1.9,6.3-2.9,12.9-2.9,19.8c0,26,14.6,48.6,36,60v253c-21.4,11.4-36,34-36,60c0,37.6,30.4,68,68,68s68-30.4,68-68
		c0-26-14.6-48.6-36-60V408.3l89.7,89.7c-1.8,6-2.7,12.4-2.7,19c0,37.6,30.4,68,68,68c6.6,0,13-1,19-2.7l0.3,0.3l0.6-0.6
		c27.8-8.5,48-34.4,48-65c0-37.6-30.4-68-68-68c-7.2,0-14.1,1.1-20.6,3.2L577.1,350.8c1.9-6.3,2.9-12.9,2.9-19.8
		c0-37.6-30.4-68-68-68c-6.9,0-13.5,1-19.8,2.9L433.3,207l78.7-78.7L895.7,512L512,895.8z"/>
</g>
<g id="RTX">
</g>
<g id="EMAIL">
</g>
<g id="SMS">
</g>
<g id="微信">
</g>
<g id="部署">
</g>
<g id="脚本">
</g>
<g id="企业证书">
</g>
<g id="个人证书">
</g>
<g id="安全加固">
</g>
<g id="SVN">
</g>
<g id="代码检查">
</g>
<g id="归档">
</g>
<g id="IPA">
</g>
<g id="APK_1_">
</g>
<g id="docker">
</g>
<g id="unity">
</g>
<g id="XCODE">
</g>
<g id="andriod">
</g>
<g id="ios">
</g>
</svg>
