<!-- Generated by IcoMoon.io -->
<svg version="1.1" xmlns="http://www.w3.org/2000/svg" width="32" height="32" viewBox="0 0 32 32">
<title>cog</title>
<path d="M16 11c-2.76 0-5 2.24-5 5s2.24 5 5 5c2.76 0 5-2.24 5-5s-2.24-5-5-5zM16 19c-1.66 0-3-1.34-3-3s1.34-3 3-3 3 1.34 3 3-1.34 3-3 3z"></path>
<path d="M30.24 13.12l-2.18-0.44c-0.26-0.96-0.64-1.9-1.14-2.78l1.14-1.76c0.38-0.38 0.58-0.88 0.58-1.42s-0.22-1.040-0.6-1.42l-1.42-1.4c-0.78-0.78-2.060-0.76-2.68-0.1l-1.84 1.26c-0.84-0.46-1.74-0.84-2.66-1.1l-0.44-1.96c0-1.1-0.9-2-2-2h-2c-1.1 0-2 0.9-1.98 1.8l-0.44 2.18c-0.92 0.26-1.8 0.62-2.66 1.1l-1.68-1.12c-0.38-0.38-0.88-0.6-1.4-0.6-0.48-0.040-1.060 0.2-1.44 0.56l-1.42 1.4c-0.38 0.38-0.58 0.88-0.6 1.42 0 0.54 0.2 1.040 0.44 1.26l1.26 1.92c-0.48 0.88-0.86 1.82-1.14 2.78l-2.060 0.42c-1.1 0-2 0.9-2 2v2c0 1.1 0.86 1.94 1.8 1.98l2.34 0.46c0.28 0.92 0.66 1.82 1.14 2.64l-1.2 1.86c-0.38 0.38-0.58 0.88-0.58 1.42s0.22 1.040 0.6 1.42l1.42 1.4c0.78 0.78 2.060 0.76 2.68 0.1l2.060-1.4c0.76 0.4 1.56 0.74 2.4 0.98l0.46 2.24c0 1.1 0.9 2 2 2h2c1.1 0 2-0.9 1.98-1.8l0.48-2.42c0.84-0.24 1.64-0.56 2.4-0.98l1.9 1.28c0.78 0.78 2.040 0.8 2.82 0.020l1.42-1.4c0.38-0.38 0.6-0.88 0.6-1.42 0-0.5-0.18-0.96-0.5-1.34l-1.28-1.96c0.48-0.84 0.86-1.72 1.14-2.64l2.16-0.44c1.1 0 2-0.9 2-2v-2c0-1.060-0.84-1.94-1.88-2zM29.92 17.14l-2.96 0.58c-0.38 0.080-0.68 0.36-0.78 0.74-0.28 1.14-0.74 2.22-1.38 3.22-0.22 0.34-0.22 0.76 0 1.080l1.8 2.72-1.58 1.28-2.56-1.74c-0.32-0.22-0.74-0.24-1.080-0.020-0.94 0.56-1.96 0.98-3 1.22-0.38 0.080-0.68 0.4-0.74 0.78l-0.64 3.24-2.020-0.2-0.6-3.040c-0.080-0.38-0.38-0.7-0.76-0.78-1.060-0.24-2.080-0.66-3.020-1.22-0.16-0.1-0.34-0.14-0.52-0.14-0.2 0-0.4 0.060-0.56 0.18l-2.72 1.86-1.3-1.56 1.68-2.56c0.22-0.34 0.22-0.76 0-1.080-0.64-1-1.1-2.080-1.38-3.22-0.080-0.38-0.38-0.68-0.76-0.74l-3.16-0.62 0.2-2.020 2.9-0.58c0.38-0.080 0.7-0.38 0.78-0.76 0.24-1.18 0.7-2.3 1.36-3.34 0.2-0.34 0.2-0.76 0-1.080l-1.72-2.6 1.58-1.28 2.38 1.62c0.32 0.22 0.76 0.24 1.1 0.020 1-0.62 2.080-1.080 3.24-1.34 0.38-0.080 0.68-0.4 0.76-0.78l0.54-2.98 2.020 0.2 0.56 2.8c0.080 0.38 0.38 0.7 0.76 0.78 1.14 0.26 2.24 0.7 3.24 1.34 0.34 0.2 0.76 0.2 1.1-0.020l2.52-1.74 1.3 1.56-1.6 2.44c-0.22 0.32-0.22 0.74-0.020 1.080 0.66 1.040 1.12 2.16 1.36 3.34 0.080 0.38 0.4 0.68 0.78 0.76l2.9 0.58c0.060 0.020 0.12 0.020 0.2 0.020l-0.2 2z"></path>
</svg>
