<svg xmlns="http://www.w3.org/2000/svg" xmlns:xlink="http://www.w3.org/1999/xlink" viewBox="0 0 12 4">
  <path fill="currentColor" d="M6,0 C6.93155158,0 7.71435119,0.636882925 7.93672788,1.49897784 L12,1.5 L12,2.5 L7.93698631,2.50001923 C7.71495822,3.36262308 6.93191279,4 6,4 C5.06808721,4 4.28504178,3.36262308 4.06301369,2.50001923 L0,2.5 L0,1.5 L4.06327212,1.49897784 C4.28564881,0.636882925 5.06844842,0 6,0 Z M6,1 C5.44771525,1 5,1.44771525 5,2 C5,2.55228475 5.44771525,3 6,3 C6.55228475,3 7,2.55228475 7,2 C7,1.44771525 6.55228475,1 6,1 Z" />
</svg>
