<svg class="bk-icon" style="width: 1em; height: 1em;vertical-align: middle;fill: currentColor;overflow: hidden;" viewBox="0 0 64 64" version="1.1" xmlns="http://www.w3.org/2000/svg"><g><circle fill="#727985" cx="32.08" cy="31.08" r="4.5"/><circle fill="#727985" cx="18.16" cy="31.08" r="4.5"/><circle fill="#727985" cx="46" cy="31.08" r="4.5"/><circle fill="#727985" cx="18.16" cy="44.5" r="4.5"/><path fill="#727985" d="M56.08,6h-48a2,2,0,0,0-2,2V56a2,2,0,0,0,2,2H30V54H10.08V21.25h44V33.83h4V8A2,2,0,0,0,56.08,6Zm-46,11.25V10h44v7.25Z"/><path fill="#727985" d="M40.38 44 36.38 44 36.38 48 32.13 48 32.13 52 36.38 52 36.38 56 40.38 56 40.38 52 44.63 52 44.63 48 40.38 48 40.38 44z"/><path fill="#727985" d="M55.42 40 49.83 40 49.83 44 51.42 44 51.42 54 48.43 54 48.43 58 51.42 58 55.42 58 58 58 58 54 55.42 54 55.42 40z"/></g></svg>