<!-- Generated by IcoMoon.io -->
<svg version="1.1" xmlns="http://www.w3.org/2000/svg" width="32" height="32" viewBox="0 0 32 32">
<title>atom-artifactory</title>
<path d="M22.856 13.728v-6.769l-6.856-3.959-6.856 3.959v6.769l-5.856 3.381v7.916l6.856 3.959 5.856-3.378 5.856 3.381 6.856-3.959v-7.919l-5.856-3.381zM16 5.313l4.856 2.803v5.606l-4.856 2.803-0.006-0.003v-5.606l-4.85-2.803 4.856-2.8zM10.144 15.463l4.856 2.803v5.606l-4.85 2.8v-5.6l-4.862-2.806 4.856-2.803zM26.712 23.872l-4.844 2.797v-5.597l-4.866-2.809 4.853-2.803 4.856 2.803v5.609z"></path>
</svg>
