<svg xmlns="http://www.w3.org/2000/svg" viewBox="0 0 22 22" class="design-iconfont">
  <path d="M10.5,0 C16.299,0 21,4.701 21,10.5 C21,16.299 16.299,21 10.5,21 C4.701,21 0,16.299 0,10.5 C0,4.701 4.701,0 10.5,0 Z M12.76545,10.8730781 C12.1000359,11.2615547 11.3260828,11.484375 10.5000047,11.484375 C9.67392656,11.484375 8.89995,11.2615547 8.23455937,10.8730781 C6.34791094,11.5148203 4.82184844,12.936 4.03941094,14.7528047 C5.42283281,16.8501094 7.79955937,18.234375 10.5000047,18.234375 C13.20045,18.234375 15.5771766,16.8501094 16.960575,14.7528047 C16.1781375,12.936 14.6520984,11.5148203 12.76545,10.8730781 Z M10.5,3.46875 C8.55836719,3.46875 6.984375,5.04274219 6.984375,6.984375 C6.984375,8.92600781 8.55836719,10.5 10.5,10.5 C12.4416328,10.5 14.015625,8.92600781 14.015625,6.984375 C14.015625,5.04274219 12.4416328,3.46875 10.5,3.46875 Z" transform="translate(.5 .5)" fill="currentColor" fill-rule="evenodd"/>
</svg>
