<?xml version="1.0" encoding="UTF-8"?>
<svg width="12px" height="14px" viewBox="0 0 12 14" version="1.1" xmlns="http://www.w3.org/2000/svg" xmlns:xlink="http://www.w3.org/1999/xlink">
    <title>Icon/3 面性图标/收藏</title>
    <defs>
        <path d="M0.79946875,11.1879688 C0.79946875,12.0709688 1.51232813,12.7913438 2.395375,12.7913438 L7.9918125,12.7913438 C8.87485937,12.7913438 9.59389063,12.0709688 9.59389063,11.1879688 L9.59389063,4.79675 L0.79946875,4.79675 L0.79946875,11.1879688 Z M6.79565625,5.99148438 C6.79565625,5.7709375 6.97467187,5.59176563 7.19540625,5.59176563 C7.41614062,5.59176563 7.59515625,5.7709375 7.59515625,5.99148438 L7.59515625,10.78825 C7.59515625,11.0091875 7.41614062,11.1879844 7.19540625,11.1879844 C6.97467187,11.1879844 6.79565625,11.0091875 6.79565625,10.78825 L6.79565625,5.99148438 Z M4.7969375,5.99148438 C4.7969375,5.7709375 4.9759375,5.59176563 5.1966875,5.59176563 C5.41742187,5.59176563 5.59642187,5.7709375 5.59642187,5.99148438 L5.59642187,10.78825 C5.59642187,11.0091875 5.41742187,11.1879844 5.1966875,11.1879844 C4.9759375,11.1879844 4.7969375,11.0091875 4.7969375,10.78825 L4.7969375,5.99148438 Z M2.79820312,5.99148438 C2.79820312,5.7709375 2.97721875,5.59176563 3.19795312,5.59176563 C3.4186875,5.59176563 3.59770312,5.7709375 3.59770312,5.99148438 L3.59770312,10.78825 C3.59770312,11.0091875 3.4186875,11.1879844 3.19795312,11.1879844 C2.97721875,11.1879844 2.79820312,11.0091875 2.79820312,10.78825 L2.79820312,5.99148438 Z M9.59079688,1.59892187 L7.19540625,1.59892187 L7.19540625,0.795 C7.19540625,0.3535 6.83434375,0 6.39282813,0 L3.994375,0 C3.55284375,0 3.19796875,0.3535 3.19796875,0.795 L3.19796875,1.59890625 L0.79640625,1.59890625 C0.354875,1.59890625 0,1.95242188 0,2.39390625 L0,3.193375 C0,3.634875 0.354484375,3.99728125 0.795796875,3.99728125 L9.59160938,3.99728125 C10.0327188,3.99728125 10.3933906,3.634875 10.3933906,3.193375 L10.3933906,2.39390625 C10.3933906,1.9524375 10.0323281,1.59890625 9.5908125,1.59890625 L9.59079688,1.59892187 Z M6.39592188,1.59892187 L3.9974375,1.59892187 L3.9974375,1.19471875 C3.9974375,0.973796875 4.17334375,0.799453125 4.39410938,0.799453125 L5.99307813,0.799453125 C6.21382813,0.799453125 6.39592188,0.973796875 6.39592188,1.19471875 L6.39592188,1.59892187 L6.39592188,1.59892187 Z" id="path-1"></path>
    </defs>
    <g id="流水线组" stroke="none" stroke-width="1" fill="none" fill-rule="evenodd">
        <g id="流水线组展示与管理-交互说明" transform="translate(-84.000000, -1730.000000)">
            <g id="编组-3备份-6" transform="translate(49.597590, 847.000000)">
                <g id="编组-27" transform="translate(0.000000, 110.000000)">
                    <g id="Frame/左侧一级导航元件/一级未选中备份-26" transform="translate(0.402410, 760.000000)">
                        <g id="Icon/3-面性图标/收藏" transform="translate(34.806406, 13.608781)">
                            <mask id="mask-2" fill="white">
                                <use xlink:href="#path-1"></use>
                            </mask>
                            <use id="形状" fill="#000000" fill-rule="nonzero" xlink:href="#path-1"></use>
                            <rect id="矩形" fill="currentColor" mask="url(#mask-2)" x="-2.80640625" y="-1.60878125" width="16" height="16"></rect>
                            <rect id="codesign_placeholder_name" mask="url(#mask-2)" x="-2.80640625" y="-1.60878125" width="16" height="16"></rect>
                        </g>
                    </g>
                </g>
            </g>
        </g>
    </g>
</svg>