<?xml version="1.0" encoding="UTF-8"?>
<svg width="16px" height="16px" viewBox="0 0 16 16" version="1.1" xmlns="http://www.w3.org/2000/svg" xmlns:xlink="http://www.w3.org/1999/xlink">
    <title>Icon/1 常用图标/编辑</title>
    <g id="流水线" stroke="none" stroke-width="1" fill="none" fill-rule="evenodd">
        <g id="UI-编辑、发布流水线-交互说明" transform="translate(-2133, -3360)">
            <g id="Icon/1-常用图标/编辑" transform="translate(2133, 3360)">
                <path d="M9.99968751,13.7274354 L11.33375,13.7274354 L11.33375,12.4548709 L9.99968751,12.4548709 L9.99968751,13.7274354 Z M12.666875,6.09115316 L14,6.09115316 L14,4.8185886 L12.666875,4.8185886 L12.666875,6.09115316 Z M2,3.54512912 L2,12.4548709 C2,13.1546919 2.6,13.7274354 3.333125,13.7274354 L6.00031251,13.7274354 L6.00031251,12.4548709 L3.333125,12.4548709 L3.333125,3.54512912 L6.00031251,3.54512912 L6.00031251,2.27256456 L3.333125,2.27256456 C2.6,2.27256456 2,2.84530811 2,3.54512912 Z M12.666875,2.27256456 L12.666875,3.54512912 L14,3.54512912 C14,2.84530811 13.4,2.27256456 12.666875,2.27256456 Z M7.33250001,15 L8.66656251,15 L8.66656251,1 L7.33437499,1 L7.33437499,15 L7.33250001,15 Z M12.666875,11.1823063 L14,11.1823063 L14,9.90974176 L12.666875,9.90974176 L12.666875,11.1823063 Z M9.99968751,3.54512912 L11.33375,3.54512912 L11.33375,2.27256456 L9.99968751,2.27256456 L9.99968751,3.54512912 Z M12.666875,8.63717719 L14,8.63717719 L14,7.36282281 L12.666875,7.36282281 L12.666875,8.63538737 L12.666875,8.63717719 Z M12.666875,13.7274354 C13.4,13.7274354 14,13.1546919 14,12.4548709 L12.666875,12.4548709 L12.666875,13.7274354 Z" id="形状" fill="#979BA5"></path>
                <rect id="codesign_placeholder_name" x="0" y="0" width="16" height="16"></rect>
            </g>
        </g>
    </g>
</svg>