<?xml version="1.0" encoding="UTF-8"?>
<svg width="16px" height="16px" viewBox="0 0 16 16" version="1.1" xmlns="http://www.w3.org/2000/svg" xmlns:xlink="http://www.w3.org/1999/xlink">
    <title>Icon/编辑配置</title>
    <g id="流水线" stroke="none" stroke-width="1" fill="none" fill-rule="evenodd">
        <g id="流水线详情-交互说明" transform="translate(-198.000000, -2486.000000)">
            <g id="编组-3备份-13" transform="translate(50.000000, 2156.000000)">
                <g id="编组-10" transform="translate(24.000000, 134.000000)">
                    <g id="Navigation/左侧二级浅色" transform="translate(0.000000, 4.000000)">
                        <g id="Frame/左侧一级导航元件/分类标题备份" transform="translate(0.000000, 180.000000)">
                            <g id="编组-2" transform="translate(124.000000, 10.000000)">
                                <g id="Icon/编辑配置" transform="translate(0.000000, 2.000000)">
                                    <path d="M12.7892349,9.23862321 L14.2457074,10.6951057 L10.0295959,14.9495512 L8.57311343,14.9495512 L8.57311343,13.4930687 L12.7892349,9.23862321 Z M9.918,10.5 L7.57311343,12.8615499 L7.573,13.5 L6.15625,13.5 C5.604,13.5 5.15625,13.05225 5.15625,12.5 L5.15625,11.5 C5.15625,10.94775 5.604,10.5 6.15625,10.5 L9.918,10.5 Z M4.375,7.75 L4.375,8.75 L3,8.75 C2.4485,8.75 2,9.1985 2,9.75 C2,10.3015 2.4485,10.75 3,10.75 L4.375,10.75 L4.375,11.75 L3,11.75 C1.89725,11.75 1,10.85275 1,9.75 C1,8.64725 1.89725,7.75 3,7.75 L4.375,7.75 Z M13.9390853,8.16543084 C14.0924014,8.01211479 14.3223654,8.01211479 14.4756815,8.16543084 L14.4756815,8.16543084 L15.3572338,9.04698314 C15.5105499,9.2002992 15.5105499,9.43026328 15.3572338,9.58357934 L15.3572338,9.58357934 L14.7056556,10.3118256 L13.2491731,8.85534308 Z M10.15625,6 C10.7085,6 11.15625,6.44775 11.15625,7 L11.15625,8 C11.15625,8.55225 10.7085,9 10.15625,9 L6.15625,9 C5.604,9 5.15625,8.55225 5.15625,8 L5.15625,7 C5.15625,6.44775 5.604,6 6.15625,6 L10.15625,6 Z M13,3.25 C14.10275,3.25 15,4.14725 15,5.25 C15,5.85655849 14.7285407,6.4009438 14.3007382,6.76803984 L13.9620026,6.42822135 L13.1520692,7.24427668 C13.1018677,7.24806921 13.051155,7.25 13,7.25 L11.625,7.25 L11.625,6.25 L13,6.25 C13.5515,6.25 14,5.8015 14,5.25 C14,4.6985 13.5515,4.25 13,4.25 L11.625,4.25 L11.625,3.25 L13,3.25 Z M10.15625,1.5 C10.7085,1.5 11.15625,1.94775 11.15625,2.5 L11.15625,3.5 C11.15625,4.05225 10.7085,4.5 10.15625,4.5 L6.15625,4.5 C5.604,4.5 5.15625,4.05225 5.15625,3.5 L5.15625,2.5 C5.15625,1.94775 5.604,1.5 6.15625,1.5 L10.15625,1.5 Z" id="形状结合" fill="currentColor" fill-rule="nonzero"></path>
                                    <rect id="codesign_placeholder_name" x="0" y="0" width="16" height="16"></rect>
                                </g>
                            </g>
                        </g>
                    </g>
                </g>
            </g>
        </g>
    </g>
</svg>