<svg xmlns="http://www.w3.org/2000/svg" viewBox="0 0 32 32" class="design-iconfont">
  <path d="M27,13 L27,27.0625 C27,27.58 26.5768889,28 26.0555556,28 L10.9444444,28 C10.4231111,28 10,27.58 10,27.0625 L10,26.125 L25.1111111,26.125 L25.1111111,13 L27,13 Z M17.9230769,6 L17.9230769,7.8 L6.84615385,7.8 L6.84615385,22.2 L21.1538462,22.2 L21.1538462,16.35 L23,16.35 L23,23.1 C23,23.5968 22.5864615,24 22.0769231,24 L5.92307692,24 C5.41353846,24 5,23.5968 5,23.1 L5,6.9 C5,6.4032 5.41353846,6 5.92307692,6 L17.9230769,6 Z M23.7247121,4 L25,5.37338698 L13.2752879,18 L12,16.626613 L23.7247121,4 Z" fill="#4D4F56" fill-rule="evenodd"/>
</svg>
