<?xml version="1.0" encoding="UTF-8"?>
<svg xmlns="http://www.w3.org/2000/svg" xmlns:xlink="http://www.w3.org/1999/xlink" width="220px" height="100px" viewBox="0 0 220 100" version="1.1">
  <title>内容为空</title>
  <defs>
    <linearGradient x1="51.9445544%" y1="48.7605571%" x2="52.6037065%" y2="51.2471476%" id="linearGradient-1">
      <stop stop-color="#E8EAED" stop-opacity="0.2" offset="0%"></stop>
      <stop stop-color="#E8EAED" stop-opacity="0.6" offset="100%"></stop>
    </linearGradient>
    <linearGradient x1="50.0012121%" y1="1.16976909%" x2="50.0012121%" y2="94.8097691%" id="linearGradient-2">
      <stop stop-color="#E6E8EB" stop-opacity="0.9917" offset="0%"></stop>
      <stop stop-color="#D4D6D9" offset="100%"></stop>
    </linearGradient>
    <linearGradient x1="50.0012121%" y1="0.0115340909%" x2="50.0012121%" y2="99.2215341%" id="linearGradient-3">
      <stop stop-color="#EDEFF2" offset="0%"></stop>
      <stop stop-color="#E8EAED" offset="100%"></stop>
    </linearGradient>
  </defs>
  <g id="流水线组" stroke="none" stroke-width="1" fill="none" fill-rule="evenodd">
    <g id="流水线列表-交互说明" transform="translate(-880.000000, -6210.000000)">
      <g id="编组-3备份-9" transform="translate(50.000000, 5870.000000)">
        <g id="Table/42px样例" transform="translate(304.000000, 220.000000)">
          <g id="内容为空" transform="translate(526.000000, 120.000000)">
            <rect id="矩形" x="0" y="0" width="220" height="100"></rect>
            <g id="编组-8" transform="translate(57.000000, 18.000000)">
              <path d="M16.5830373,51.6167628 C27.5772358,49.1211472 43.3603183,48.0419621 54.0847205,48.5815546 C64.8091227,49.1211472 73.7124001,51.0097212 74.3194417,50.5375777 C76.4778119,49.1211472 81.0643487,48.5141055 80.7945525,49.0536981 C80.5922053,49.5932907 77.6244461,51.3469665 78.5687331,51.6167628 C79.5130201,51.8865591 89.0907881,52.9657442 93.0702833,53.8425821 C97.0497785,54.651971 99.6128431,55.4613598 100.489681,55.4613598 C101.366519,55.4613598 102.7155,54.3147256 108.448671,54.8543182 C108.58357,55.0566654 107.167139,55.1241145 105.885607,55.7986052 C104.604074,56.4730959 103.659787,56.4056468 103.659787,56.5405449 C103.659787,56.6754431 104.401727,56.3381977 105.885607,57.2824847 C107.369486,58.2267717 110,58.5640171 110,58.7663643 C110,58.9687115 106.694996,60.1153457 101.096723,58.3616698 C99.6802922,57.8895263 96.3752878,61.8015724 81.1992469,62.8807576 C66.023206,63.9599427 40.3925592,64.8367806 40.3925592,64.8367806 C40.3925592,64.8367806 41.9438878,66.7928037 44.1697072,67.3998453 C44.3046053,67.6021925 43.2928693,68.3441323 38.9086797,67.5347434 C34.5244901,66.7253546 32.2312217,64.9042297 32.2312217,64.9042297 C32.2312217,64.9042297 23.5977407,64.3646371 20.3601853,63.8250446 C17.1226299,63.285452 13.3454819,61.8690215 10.7824173,61.5992252 C8.21935258,61.3294289 -3.44933662,59.9804475 1.00230203,56.9452394 C0.867403892,56.8777903 5.58883883,54.1123784 16.5830373,51.6167628 Z" id="Fill-1_1_" fill="url(#linearGradient-1)"></path>
              <polygon id="路径-3_1_" fill="url(#linearGradient-2)" fill-rule="nonzero" points="16.0434448 33.3380647 31.8939763 9.59599185 71.4191317 9.59599185 87.2696632 33.3380647 87.2696632 47.5698186 16.0434448 47.5698186"></polygon>
              <path d="M33.1755087,57.0801375 L17.3924262,57.0801375 C16.6504864,57.0801375 16.0434448,56.4730959 16.0434448,55.7311561 L16.0434448,33.3380647 L31.8265273,33.3380647 C32.568467,33.3380647 33.1755087,33.9451063 33.1755087,34.6870461 L33.1755087,39.6782773 C33.1755087,40.4202171 33.7151012,40.9598096 34.457041,41.0272587 L34.5244901,41.0272587 L68.7886179,41.0272587 C69.5305577,41.0272587 70.0701502,40.4876662 70.1375993,39.7457264 L70.1375993,39.6782773 L70.1375993,34.6870461 C70.1375993,33.9451063 70.744641,33.3380647 71.4865807,33.3380647 L87.2696632,33.3380647 L87.2696632,55.7311561 C87.2696632,56.4730959 86.6626216,57.0801375 85.9206818,57.0801375 L70.1375993,57.0801375 L33.1755087,57.0801375 Z" id="形状结合_5_" fill="url(#linearGradient-3)" fill-rule="nonzero"></path>
              <polygon id="形状结合_4_" fill="#C4C6CC" fill-rule="nonzero" points="12.8058894 54.9217672 12.8058894 60.3176929 18.201815 60.3176929 18.201815 61.396878 11.7267042 61.396878 11.7267042 54.9217672"></polygon>
              <polygon id="形状结合备份_1_" fill="#C4C6CC" fill-rule="nonzero" points="85.111293 60.3176929 90.5072186 60.3176929 90.5072186 54.9217672 91.5864037 54.9217672 91.5864037 61.396878 85.111293 61.396878"></polygon>
              <g id="编组-4_1_" transform="translate(61.770902, 7.918870) rotate(21.000000) translate(-61.770902, -7.918870) translate(60.759166, -0.175019)" fill="#C4C6CC" fill-rule="nonzero">
                <polygon id="矩形_1_" transform="translate(0.925294, 1.626809) rotate(89.999531) translate(-0.925294, -1.626809) " points="-0.153891038 1.08721689 2.00447922 1.08721689 2.00447922 2.16640201 -0.153891038 2.16640201"></polygon>
                <polygon id="矩形备份-6" transform="translate(0.925159, 5.943585) rotate(89.999531) translate(-0.925159, -5.943585) " points="-0.154025937 5.40399273 2.00434432 5.40399273 2.00434432 6.48317786 -0.154025937 6.48317786"></polygon>
                <polygon id="矩形备份-7" transform="translate(0.925227, 10.260226) rotate(89.999531) translate(-0.925227, -10.260226) " points="-0.153958488 9.72063367 2.00441177 9.72063367 2.00441177 10.7998188 -0.153958488 10.7998188"></polygon>
                <polygon id="矩形备份-8" transform="translate(0.925294, 14.577002) rotate(89.999531) translate(-0.925294, -14.577002) " points="-0.153891039 14.0374095 2.00447922 14.0374095 2.00447922 15.1165946 -0.153891039 15.1165946"></polygon>
              </g>
              <g id="编组-3_1_" transform="translate(24.157140, 18.193307) rotate(-32.000000) translate(-24.157140, -18.193307) translate(23.145404, 8.413192)" fill="#C4C6CC" fill-rule="nonzero">
                <rect id="矩形_2_" transform="translate(0.945687, 1.167791) rotate(179.999539) translate(-0.945687, -1.167791) " x="0.406094053" y="0.0886063407" width="1.07918513" height="2.15837026"></rect>
                <polygon id="矩形备份-2" transform="translate(0.945922, 5.484532) rotate(179.999539) translate(-0.945922, -5.484532) " points="0.406329145 4.40534685 1.48551427 4.40534685 1.48551427 6.56371711 0.406329145 6.56371711"></polygon>
                <polygon id="矩形备份-3" transform="translate(0.945887, 9.801407) rotate(179.999539) translate(-0.945887, -9.801407) " points="0.406294441 8.72222227 1.48547957 8.72222227 1.48547957 10.8805925 0.406294441 10.8805925"></polygon>
                <polygon id="矩形备份-4" transform="translate(0.945785, 14.118013) rotate(179.999539) translate(-0.945785, -14.118013) " points="0.406192287 13.0388279 1.48537742 13.0388279 1.48537742 15.1971981 0.406192287 15.1971981"></polygon>
                <rect id="矩形备份-5" transform="translate(0.945750, 18.434754) rotate(179.999539) translate(-0.945750, -18.434754) " x="0.406157583" y="17.3555684" width="1.07918513" height="2.15837026"></rect>
              </g>
              <circle id="椭圆形_1_" fill="#C4C6CC" fill-rule="nonzero" cx="71.0818863" cy="4.20006621" r="1.07918513"></circle>
              <circle id="椭圆形备份_1_" fill="#C4C6CC" fill-rule="nonzero" cx="43.023073" cy="21.4670283" r="1.07918513"></circle>
            </g>
          </g>
        </g>
      </g>
    </g>
  </g>
</svg>
