<?xml version="1.0" encoding="UTF-8"?>
<svg xmlns="http://www.w3.org/2000/svg" xmlns:xlink="http://www.w3.org/1999/xlink" width="16px" height="16px" viewBox="0 0 16 16" version="1.1">
  <title>Icon/1 常用图标/3 圆-错</title>
  <g id="流水线" stroke="none" stroke-width="1" fill="none" fill-rule="evenodd">
    <g id="调试/执行流水线-交互说明" transform="translate(-98.000000, -8400.000000)">
      <g id="编组-3备份-24" transform="translate(50.000000, 7613.000000)">
        <g id="编组-8" transform="translate(24.000000, 255.000000)">
          <g id="编组" transform="translate(0.000000, 435.000000)">
            <g id="编组-2" transform="translate(0.000000, 42.000000)">
              <g id="Icon/1-常用图标/3-圆-错" transform="translate(24.000000, 55.000000)">
                <path d="M8,3.0125 C9.1,3.0125 10,3.9125 10,5.0125 C10,6.1125 9.1,7.0125 8,7.0125 C7.4375,7.0125 6.925,6.7875 6.5375,6.375 C6.15,5.9625 5.9625,5.4375 6,4.875 C6.0625,3.8875 6.8875,3.075 7.875,3.025 C7.9125,3.0125 7.95,3.0125 8,3.0125 M8,10 C8.8375,10 10.2,10.2125 11.375,10.675 C12.375,11.075 13,11.575 13,11.9875 L13,13 L3,13 L3,11.9875 C3,11.575 3.625,11.075 4.625,10.675 C5.8,10.2125 7.1625,10 8,10 M8,2.0125 L7.825,2.0125 C6.325,2.1 5.1,3.3125 5,4.8 C4.8875,6.55 6.2625,8 7.9875,8 C9.6375,8 10.9875,6.65 10.9875,5 C10.9875,3.35 9.65,2.0125 8,2.0125 Z M8,9 C6,9 2,10 2,11.9875 L2,13.4875 C2,13.7625 2.225,13.9875 2.5,13.9875 L13.5,13.9875 C13.775,13.9875 14,13.7625 14,13.4875 L14,11.975 C14,10 10,9 8,9 Z" id="形状" fill="#63656E"></path>
                <rect id="codesign_placeholder_name" x="0" y="0" width="16" height="16"></rect>
              </g>
            </g>
          </g>
        </g>
      </g>
    </g>
  </g>
</svg>
