<?xml version="1.0" encoding="UTF-8"?>
<svg xmlns="http://www.w3.org/2000/svg" xmlns:xlink="http://www.w3.org/1999/xlink" width="16px" height="16px" viewBox="0 0 16 16" version="1.1">
  <title>Icon/1 常用图标/3 圆-错备份 2</title>
  <g id="流水线" stroke="none" stroke-width="1" fill="none" fill-rule="evenodd">
    <g id="调试/执行流水线-交互说明" transform="translate(-98.000000, -8484.000000)">
      <g id="编组-3备份-24" transform="translate(50.000000, 7613.000000)">
        <g id="编组-8" transform="translate(24.000000, 255.000000)">
          <g id="编组" transform="translate(0.000000, 435.000000)">
            <g id="编组-2" transform="translate(0.000000, 42.000000)">
              <g id="Icon/1-常用图标/3-圆-错备份-2" transform="translate(24.000000, 139.000000)">
                <path d="M13.817976,8.81779686 C13.7004456,8.54331765 13.532625,8.29323641 13.3231667,8.08044671 C13.1119422,7.87171198 12.863062,7.70491163 12.5897076,7.58887995 C12.0439957,7.35086292 11.4256023,7.34175173 10.873115,7.56358827 C10.8205861,7.58887996 10.7700027,7.6076866 10.7200678,7.63297829 L10.7200678,6.47928796 C10.7224042,6.17036895 10.6015071,5.87326094 10.3841422,5.65374116 C10.1699451,5.43040846 9.87322278,5.30515178 9.56378347,5.30743951 L8.90555093,5.30743951 C9.16538941,4.71100852 9.16843815,4.03395252 8.91398149,3.43520568 C8.79570676,3.15810982 8.62630491,2.90576707 8.41463267,2.6913705 C8.20125758,2.47953908 7.95091852,2.30854365 7.67598553,2.18683363 C7.09409301,1.93772223 6.4355791,1.93772223 5.85368659,2.18683363 C5.57863231,2.3080398 5.32824324,2.47884955 5.11503943,2.69072198 C4.9036304,2.90533352 4.73426397,3.15762353 4.61569061,3.43455718 C4.48889107,3.72695706 4.42439974,4.04256698 4.42632717,4.36127076 C4.42501322,4.63268082 4.47382063,4.90200098 4.57029527,5.15568935 C4.59061509,5.20627274 4.61223192,5.25663995 4.63514577,5.30679099 L3.17406409,5.30679099 C2.52823887,5.31068899 2.00575631,5.8334607 2.00221562,6.47928796 L2.00221562,7.86644008 C1.99961624,8.05881534 2.04890079,8.24833686 2.14488671,8.41507528 C2.23761579,8.56439378 2.39269949,8.66397134 2.56706345,8.68615036 C2.71359057,8.69639133 2.86038148,8.67032981 2.99442821,8.61027527 C3.09559498,8.55969188 3.2019498,8.5091085 3.31025013,8.45917361 C3.34826988,8.44045777 3.3880146,8.42547206 3.42892653,8.41442677 C3.76558397,8.25937151 4.15231533,8.25489109 4.49247467,8.40210518 C4.653496,8.46839411 4.79917946,8.56706154 4.92048794,8.69198689 C5.0455044,8.8158437 5.14392428,8.96391487 5.20972115,9.12713373 C5.28109292,9.2965983 5.31685283,9.47892966 5.31477896,9.66279882 C5.31672027,9.84254179 5.28139043,10.0207366 5.21101816,10.1861423 C5.1433434,10.346765 5.04461074,10.4924397 4.92048794,10.6148041 C4.79817181,10.7400258 4.65136828,10.8387042 4.48923214,10.9046858 C4.144876,11.0570845 3.79987136,11.0953463 3.46524281,10.922844 C3.4386541,10.9111709 3.40622886,10.8917157 3.33554182,10.8579935 C3.28366142,10.8339988 3.22464747,10.793143 3.18314315,10.7704453 C2.94613553,10.5732867 2.6054842,10.5623325 2.35629932,10.7438566 C2.17666345,10.8910672 2.03204684,11.0421689 2.00610665,11.3138924 C2.00223874,11.3389866 2.00093501,11.3644093 2.00221562,11.3897675 L2.00221562,12.8398246 C1.9967885,13.1498219 2.12283855,13.4476299 2.34916577,13.6595349 C2.56531593,13.8789992 2.86151053,14.0009892 3.16952455,13.997406 L9.55794692,13.997406 C9.8674734,14.0032372 10.1654393,13.879868 10.3802512,13.6569409 C10.6004109,13.4414234 10.7229373,13.1452982 10.7194193,12.8372306 L10.7194193,11.7873011 C10.7690418,11.8133886 10.8201444,11.836558 10.8724665,11.8566911 C11.424669,12.0774994 12.0418268,12.0707379 12.5890591,11.8378845 C12.8641576,11.7212186 13.1136015,11.5515438 13.3231667,11.3385356 C13.531305,11.1296344 13.698669,10.8837568 13.816679,10.6135071 C13.9382403,10.3286426 13.9998307,10.0217948 13.9976698,9.7120852 C13.9982944,9.40496049 13.9372046,9.100835 13.817976,8.81779686 L13.817976,8.81779686 Z M13.1500159,10.2957397 C13.0568605,10.4858009 12.9305911,10.6577468 12.7771256,10.803519 C12.6044763,10.9576578 12.4071853,11.0817319 12.1934711,11.1705729 C11.8218777,11.3326991 11.336796,11.2743336 10.9613117,11.1238805 C10.7859673,11.0525682 10.6234347,10.9531211 10.480121,10.8294592 C10.3887132,10.7552014 10.2632242,10.7388879 10.1558685,10.7873064 C10.0502438,10.8360452 9.98227541,10.9414088 9.98142066,11.057733 L9.98142066,12.8086964 C9.98395885,12.9421648 9.93086346,13.0706745 9.83485854,13.1634286 C9.7432895,13.2619861 9.61397821,13.316731 9.47947782,13.3138818 L3.26226076,13.3138818 C3.12628237,13.315569 2.99561845,13.2611453 2.9010435,13.1634286 C2.80337537,13.0715613 2.74898295,12.9427619 2.75123885,12.8086964 L2.75123885,11.5330871 C2.75123885,11.4598061 2.74280829,11.3599363 2.82062888,11.3586393 C2.87985077,11.37121 2.93589483,11.3957017 2.98534914,11.4306233 C3.07938236,11.4805582 3.15655446,11.513632 3.25836972,11.5564333 C3.73112984,11.7801675 4.31802683,11.7432027 4.7979205,11.5350326 C5.09407065,11.390663 5.35268718,11.179552 5.55342879,10.9183044 C5.68797431,10.7332463 5.80192112,10.5340568 5.89324538,10.3242739 C6.09028692,9.84908093 6.09028692,9.31503898 5.89324538,8.83984603 C5.79791516,8.6141663 5.66108061,8.34309123 5.4898753,8.16799489 C4.94513113,7.62714175 3.99831389,7.40340754 3.29014647,7.70042281 C3.22529598,7.72441749 3.17211857,7.74841218 3.12802023,7.76527331 C3.03398701,7.81326268 2.9418993,7.8554155 2.85240562,7.8949743 C2.81673785,7.9072959 2.79209466,7.91313245 2.78107007,7.91896898 C2.75950145,7.85503502 2.74859976,7.78800051 2.74859976,7.72052646 L2.74859976,6.48512451 C2.74678883,6.3487807 2.80232746,6.21793545 2.901692,6.12455575 C2.99365816,6.02243348 3.12551047,5.96538427 3.26290926,5.96826605 L5.31866998,5.96826605 C5.43396142,5.96838416 5.53913891,5.90247774 5.58931203,5.79867606 C5.63948514,5.69487439 5.62579214,5.57151125 5.55407729,5.48123884 C5.43929191,5.33856774 5.28300221,5.24258901 5.21880023,5.0720322 C5.15310939,4.89866557 5.12012689,4.71462321 5.12152448,4.52923355 C5.11959837,4.28710078 5.16360964,4.04679928 5.25122547,3.82106613 C5.35550074,3.60269458 5.4960578,3.40359034 5.66691716,3.23222363 C5.81725849,3.08391997 5.99297347,2.96377486 6.18572112,2.87749141 C6.58536849,2.70631815 7.03768833,2.70631815 7.43733569,2.87749141 C7.63008335,2.96377486 7.80579832,3.08391997 7.95613966,3.23222363 C8.10594431,3.38202828 8.22526921,3.62132661 8.30762935,3.81976912 C8.39551992,4.04542446 8.43954093,4.28577915 8.43733034,4.52793654 C8.4451124,4.89758436 8.31605991,5.19200561 8.07611308,5.47280827 C8.00148288,5.56205786 7.98512717,5.68638718 8.03413587,5.79190165 C8.08314457,5.89741612 8.18869594,5.9651228 8.30503534,5.96567204 L9.47882932,5.96567204 C9.61257795,5.96281488 9.74109407,6.01762322 9.83161602,6.11612519 C9.92950662,6.21266844 9.98363466,6.34505953 9.98142066,6.4825305 L9.98142066,8.33141813 C9.98145147,8.44876736 10.0496999,8.55539298 10.1562524,8.6045603 C10.2628048,8.65372763 10.3882197,8.63646564 10.4775269,8.56034039 C10.6208465,8.43842145 10.751196,8.31001747 10.9587176,8.20690518 C11.534489,7.93770649 12.2137342,8.02349526 12.704493,8.42739688 C12.8905202,8.56856641 13.0408845,8.75135779 13.1435308,8.96111646 C13.2596132,9.18160815 13.2732793,9.40988189 13.2732793,9.620646 C13.2748852,9.85135613 13.2333127,10.080335 13.1506644,10.2957397 L13.1500159,10.2957397 Z" id="形状" fill="#63656E"></path>
                <rect id="codesign_placeholder_name" x="0" y="0" width="16" height="16"></rect>
              </g>
            </g>
          </g>
        </g>
      </g>
    </g>
  </g>
</svg>
