<?xml version="1.0" encoding="UTF-8"?>
<svg xmlns="http://www.w3.org/2000/svg" xmlns:xlink="http://www.w3.org/1999/xlink" width="16px" height="16px" viewBox="0 0 16 16" version="1.1">
  <title>Icon/1 常用图标/3 圆-错备份</title>
  <g id="流水线" stroke="none" stroke-width="1" fill="none" fill-rule="evenodd">
    <g id="调试/执行流水线-交互说明" transform="translate(-98.000000, -8442.000000)">
      <g id="编组-3备份-24" transform="translate(50.000000, 7613.000000)">
        <g id="编组-8" transform="translate(24.000000, 255.000000)">
          <g id="编组" transform="translate(0.000000, 435.000000)">
            <g id="编组-2" transform="translate(0.000000, 42.000000)">
              <g id="Icon/1-常用图标/3-圆-错备份" transform="translate(24.000000, 97.000000)">
                <path d="M12.6025625,2.6241875 C13.3731875,2.6241875 14,3.2511875 14,4.0218125 L14,4.0218125 L14,9.9918125 C14,10.7625313 13.3732813,11.389625 12.6025625,11.389625 L12.6025625,11.389625 L8.3684375,11.389625 L8.3684375,12.5816563 C8.3684375,12.6017188 8.36,12.6194375 8.357,12.6388438 L8.357,12.6388438 L12.8040312,12.6388438 C12.9017622,12.638794 12.9955046,12.6775954 13.0646109,12.7467016 C13.1337171,12.8158079 13.1725185,12.9095503 13.1724687,13.0072813 C13.1725434,13.1050284 13.133753,13.198795 13.0646441,13.2679215 C12.9955351,13.337048 12.9017785,13.3758125 12.8040312,13.3758125 L12.8040312,13.3758125 L3.19596875,13.3758125 C3.0982368,13.3758125 3.00450907,13.3369822 2.93541094,13.2678665 C2.86631281,13.1987508 2.82750638,13.1050132 2.82753125,13.0072813 C2.82753125,12.9095655 2.86634866,12.815852 2.9354441,12.7467566 C3.00453953,12.6776612 3.09825305,12.6388438 3.19596875,12.6388438 L3.19596875,12.6388438 L7.64309375,12.6388438 C7.64,12.6194375 7.6315625,12.6018125 7.6315625,12.5816563 L7.6315625,12.5816563 L7.6315625,11.389625 L3.3974375,11.389625 C2.627,11.389625 2,10.7625313 2,9.9918125 L2,9.9918125 L2,4.0218125 C2,3.2511875 2.627,2.6241875 3.3974375,2.6241875 L3.3974375,2.6241875 Z M12.6025625,3.3610625 L3.3974375,3.3610625 C3.03321875,3.3610625 2.736875,3.6575 2.736875,4.0218125 L2.736875,4.0218125 L2.736875,9.9918125 C2.736875,10.3563125 3.033125,10.6528438 3.3974375,10.6528438 L3.3974375,10.6528438 L12.6025625,10.6528438 C12.9666875,10.6528438 13.263125,10.3563125 13.263125,9.9918125 L13.263125,9.9918125 L13.263125,4.0218125 C13.263125,3.6575 12.9666875,3.3610625 12.6025625,3.3610625 L12.6025625,3.3610625 Z M8,8.28125 C8.27614237,8.28125 8.5,8.50510763 8.5,8.78125 C8.5,9.05739237 8.27614237,9.28125 8,9.28125 C7.72385763,9.28125 7.5,9.05739237 7.5,8.78125 C7.5,8.50510763 7.72385763,8.28125 8,8.28125 Z M8.25,4.46875 C8.284375,4.46875 8.3125,4.49125 8.3125,4.51875 L8.3125,4.51875 L8.3125,7.41875 C8.3125,7.44625 8.284375,7.46875 8.25,7.46875 L8.25,7.46875 L7.75,7.46875 C7.715625,7.46875 7.6875,7.44625 7.6875,7.41875 L7.6875,7.41875 L7.6875,4.51875 C7.6875,4.49125 7.715625,4.46875 7.75,4.46875 L7.75,4.46875 Z" id="形状结合" fill="#63656E"></path>
                <rect id="codesign_placeholder_name" x="0" y="0" width="16" height="16"></rect>
              </g>
            </g>
          </g>
        </g>
      </g>
    </g>
  </g>
</svg>
