<svg fill="none" xmlns="http://www.w3.org/2000/svg" viewBox="0 0 32 32" class="design-iconfont">
  <g clip-path="url(#tjyq3djr3__clip0_567_33026)">
    <path d="M0 16C0 20.2435 1.68571 24.3131 4.68629 27.3137C7.68687 30.3143 11.7565 32 16 32C20.2435 32 24.3131 30.3143 27.3137 27.3137C30.3143 24.3131 32 20.2435 32 16C32 11.7565 30.3143 7.68687 27.3137 4.68629C24.3131 1.68571 20.2435 0 16 0C11.7565 0 7.68687 1.68571 4.68629 4.68629C1.68571 7.68687 0 11.7565 0 16Z" fill="#FFEBA5"/>
    <path d="M24.667 13C25.0205 13.0001 25.3594 13.1407 25.6094 13.3906C25.8593 13.6406 25.9999 13.9795 26 14.333V24.667C25.9999 25.0205 25.8593 25.3594 25.6094 25.6094C25.3594 25.8593 25.0205 25.9999 24.667 26H14.333C13.9795 25.9999 13.6406 25.8593 13.3906 25.6094C13.1407 25.3594 13.0001 25.0205 13 24.667V14.333C13.0001 13.9795 13.1407 13.6406 13.3906 13.3906C13.6406 13.1407 13.9795 13.0001 14.333 13H24.667ZM19.5 18.6602L16.3398 15.5L15.5 16.3398L18.6602 19.5L15.5 22.6602L16.3398 23.5L19.5 20.3398L22.6602 23.5L23.5 22.6602L20.3398 19.5L23.5 16.3398L22.6602 15.5L19.5 18.6602ZM18 6.66699C18.3536 6.66699 18.6923 6.80757 18.9424 7.05762C19.1924 7.30766 19.333 7.64639 19.333 8V12.333H14.333C13.8027 12.3331 13.2939 12.544 12.9189 12.9189C12.544 13.2939 12.3331 13.8027 12.333 14.333V19.333H8C7.64638 19.333 7.30767 19.1924 7.05762 18.9424C6.80757 18.6923 6.66699 18.3536 6.66699 18V8C6.667 7.64639 6.80757 7.30766 7.05762 7.05762C7.30766 6.80758 7.64638 6.66699 8 6.66699H18Z" fill="url(#tjyq3djr3__paint0_linear_567_33026)"/>
  </g>
  <defs>
    <linearGradient id="tjyq3djr3__paint0_linear_567_33026" x1="12.5" y1="9.5" x2="22" y2="26" gradientUnits="userSpaceOnUse">
      <stop stop-color="#FFD728"/>
      <stop offset="1" stop-color="#FF8C23"/>
    </linearGradient>
    <clipPath id="tjyq3djr3__clip0_567_33026">
      <path fill="#fff" d="M0 0H32V32H0z"/>
    </clipPath>
  </defs>
</svg>
