<svg viewBox="0 0 1024 1024" version="1.1" xmlns="http://www.w3.org/2000/svg"><path fill="#e1ecff" fill-rule="evenodd" d="M128 0h768c70.4 0 128 57.6 128 128v768c0 70.4-57.6 128-128 128H128c-70.4 0-128-57.6-128-128V128C0 57.6 57.6 0 128 0z" clip-rule="evenodd"/><path fill="#3a84ff" fill-rule="evenodd" d="M616 656c27.2 0 48 20.8 48 48v48c0 27.2-20.8 48-48 48h-192c-27.2 0-48-20.8-48-48v-48c0-27.2 20.8-48 48-48H616zM337.6 524.8v48H272c-27.2 0-48 20.8-48 48s20.8 48 48 48h65.6v48H272c-52.8 0-96-43.2-96-96s43.2-96 96-96H337.6zM616 440c27.2 0 48 20.8 48 48v48c0 27.2-20.8 48-48 48h-192c-27.2 0-48-20.8-48-48v-48c0-27.2 20.8-48 48-48H616zM752 308.8c52.8 0 96 43.2 96 96s-43.2 96-96 96h-65.6v-48H752c27.2 0 48-20.8 48-48s-20.8-48-48-48h-65.6v-48H752zM616 224c27.2 0 48 20.8 48 48v48c0 27.2-20.8 48-48 48h-192c-27.2 0-48-20.8-48-48v-48c0-27.2 20.8-48 48-48H616z" clip-rule="evenodd"/></svg>