<svg viewBox="0 0 1024 1024" version="1.1" xmlns="http://www.w3.org/2000/svg"><path fill="#e1ecff" d="M896 0H128C57.6 0 0 57.6 0 128V896c0 70.4 57.6 128 128 128H896c70.4 0 128-57.6 128-128V128C1024 57.6 966.4 0 896 0ZM834.79 819.31H200V193.46H834.79Z"/><path fill="#2c2f33" d="M200 819.31H834.79V193.46H200Zm89.82-385.94h95.14a142.37 142.37 0 0 1 253.15 0h95.14v133.5H638.07a142.36 142.36 0 0 1-253.15 0H289.78Z"/><path fill="#fff" d="M511.5 644.07a142.74 142.74 0 0 0 126.57-77.2h95.14V433.37H638.07a142.37 142.37 0 0 0-253.15 0H289.78v133.5h95.14A142.74 142.74 0 0 0 511.5 644.07Z"/></svg>
