<svg viewBox="0 0 1024 1024" version="1.1" xmlns="http://www.w3.org/2000/svg"><path fill="#e1ecff" fill-rule="evenodd" d="M128 0h768c70.4 0 128 57.6 128 128v768c0 70.4-57.6 128-128 128H128c-70.4 0-128-57.6-128-128V128C0 57.6 57.6 0 128 0z" clip-rule="evenodd"/><path fill="#3a84ff" d="M190.4 672V348.8h113.6c40 0 67.2 6.4 84.8 19.2s25.6 35.2 25.6 65.6c0 35.2-11.2 62.4-33.6 81.6-22.4 19.2-54.4 28.8-94.4 28.8H256V672H190.4zM256 500.8h12.8c22.4 0 41.6-4.8 54.4-16s20.8-25.6 20.8-43.2c0-32-20.8-48-60.8-48H256V500.8z"/><path fill="#3a84ff" d="M464 672V432h64v44.8c16-33.6 41.6-51.2 76.8-51.2 4.8 0 8 0 12.8 1.6v57.6C609.6 481.6 600 480 592 480c-25.6 0-46.4 12.8-62.4 38.4V672H464z"/><path fill="#3a84ff" d="M864 664c-30.4 9.6-59.2 12.8-88 12.8-40 0-72-11.2-94.4-33.6s-35.2-54.4-35.2-92.8c0-36.8 11.2-67.2 32-89.6s49.6-33.6 84.8-33.6c35.2 0 60.8 11.2 76.8 33.6s24 57.6 24 105.6h-148.8c4.8 46.4 28.8 68.8 75.2 68.8 22.4 0 46.4-4.8 73.6-14.4V664zM713.6 528H800c0-41.6-12.8-60.8-40-60.8C734.4 467.2 718.4 488 713.6 528z"/></svg>
