<?xml version="1.0" encoding="utf-8"?>
<!-- Generator: Adobe Illustrator 22.1.0, SVG Export Plug-In . SVG Version: 6.00 Build 0)  -->
<svg version="1.1" xmlns="http://www.w3.org/2000/svg" xmlns:xlink="http://www.w3.org/1999/xlink" x="0px" y="0px"
	 viewBox="0 0 64 64" style="enable-background:new 0 0 64 64;" xml:space="preserve">
<style type="text/css">
	.st0{fill:#828D97;}
</style>
<g id="辅助线">
</g>
<g id="小">
	<g id="圆">
	</g>
	<path class="st0" d="M55.5,20.2L55.5,20.2c-0.1-0.1-0.2-0.2-0.3-0.2l0,0c-0.1,0-0.1-0.1-0.2-0.1c-0.1-0.1-0.2-0.1-0.2-0.2l0,0
		L41.9,11c-1.5-1-3.3-1.4-5.1-1c-1.8,0.3-3.3,1.4-4.3,2.9c-0.7,1.1-1.1,2.4-1.1,3.7c0,1,0.2,2,0.7,2.9H10.8c-3.7,0-6.7,2.9-6.7,6.4
		s3,6.5,6.7,6.5h6.8c-0.2,0.5-0.3,1.1-0.3,1.6c0,1.7,0.8,3.3,2.1,4.4c-0.6,0.9-0.9,1.9-0.9,2.9c0,1.2,0.4,2.3,1.1,3.3
		c0.6,0.7,1.3,1.4,2.1,1.8c-0.2,0.5-0.3,1.1-0.3,1.6c0,3.3,3,6,6.7,6h17.9c4,0,8.3-1.8,11.2-4.6c1.6-1.6,2.4-3.3,2.4-4.8V26.4
		C59.9,23,57.5,21.4,55.5,20.2L55.5,20.2z M55.9,44.7c0,0.5-0.9,1.9-2.8,3.2c-2.1,1.4-4.6,2.2-6.8,2.2H28.4c-1.5,0-2.7-0.9-2.7-2
		c0-0.2,0.1-0.5,0.2-0.7h6.2v0c1-0.1,1.9-0.9,1.9-2s-0.8-1.9-1.9-2v0h-5.4l-1.5-0.1c-1.4-0.1-2.5-1-2.5-2c0-0.4,0.2-0.9,0.6-1.3h6.8
		c1.1,0,2-0.9,2-2s-0.9-2-2-2h-5.9l-0.7-0.2c-1.2-0.3-2-1.1-2-1.9c0-0.6,0.4-1.2,1-1.5l6.7-0.1h2.5c1,0,1.8-0.8,1.8-1.8v-0.4
		c0-1-0.8-1.8-1.8-1.8H11.5l-0.7,0c-1.5,0-2.7-1.1-2.7-2.4c0-1.4,1.2-2.4,2.7-2.4l19.6,0.1c0.1,0,0.1,0,0.2,0h7.8c1.1,0,2-0.9,2-2
		c0-0.8-0.5-1.5-1.2-1.8c-0.1,0-0.2-0.1-0.3-0.1l-2.2-0.8c-0.8-0.5-1.2-1.4-1.2-2.3c0-0.5,0.2-1.1,0.5-1.5c0.8-1.2,2.5-1.6,3.8-0.7
		l12.7,8.6l0,0c0,0,0.1,0.1,0.2,0.1c0.1,0,0.1,0.1,0.2,0.1c0.1,0.1,0.3,0.2,0.3,0.2l0.1,0.1l0.1,0c2.1,1.3,2.6,1.8,2.6,2.9
		L55.9,44.7L55.9,44.7z"/>
	<g>
	</g>
	<g>
	</g>
	<g>
	</g>
	<g>
	</g>
	<g>
	</g>
	<g>
	</g>
</g>
</svg>
