<?xml version="1.0" encoding="iso-8859-1"?>
<!-- Generator: Adobe Illustrator 18.0.0, SVG Export Plug-In . SVG Version: 6.00 Build 0)  -->
<!DOCTYPE svg PUBLIC "-//W3C//DTD SVG 1.1//EN" "http://www.w3.org/Graphics/SVG/1.1/DTD/svg11.dtd">
<svg fill="#2DCB56" version="1.1" id="Capa_1" xmlns="http://www.w3.org/2000/svg" xmlns:xlink="http://www.w3.org/1999/xlink" x="0px" y="0px"
	 viewBox="0 0 491.325 491.325" style="enable-background:new 0 0 491.325 491.325;" xml:space="preserve">
<path id="XMLID_305_" d="M429.666,22.73c-108-77.849-215.982,73.553-323.981,20.898V32.427c0-13.911-11.286-25.197-25.196-25.197
	c-13.91,0-25.194,11.286-25.194,25.197V466.13c0,13.909,11.284,25.195,25.194,25.195c13.91,0,25.196-11.286,25.196-25.195V282.395
	c102.651,50.03,205.304-84.264,307.973-30.821c4.739,2.477,10.433,2.313,15.007-0.477c4.578-2.771,7.367-7.725,7.367-13.09
	c0-67.612,0-135.228,0-202.859C436.031,30.245,433.65,25.6,429.666,22.73z"/>
</svg>
