<svg xmlns="http://www.w3.org/2000/svg" viewBox="0 0 32 32" class="design-iconfont">
  <path d="M23.603,25.5 L22.512,27.5 L11.4768426,27.5 L11.4768426,25.5 L23.603,25.5 Z M10.1768426,25.5 L10.1768426,27.5 L9.559,27.5 L8.455,25.5 L10.1768426,25.5 Z M25.947,21.2 L24.857,23.2 L7.186,23.2 L6.082,21.2 L25.947,21.2 Z M21.6768426,17.1 L21.6768426,19.1 L11.6768426,19.1 L11.6768426,17.1 L21.6768426,17.1 Z M28.183,17.1 L27.092,19.1 L23.0768426,19.1 L23.0768426,17.1 L28.183,17.1 Z M10.3768426,17.1 L10.3768426,19.1 L4.924,19.1 L3.82,17.1 L10.3768426,17.1 Z M27.079,12.899 L28.169,14.899 L15.6768426,14.9 L15.6768426,12.9 L27.079,12.899 Z M14.3768426,12.9 L14.3768426,14.9 L3.822,14.899 L4.928,12.899 L14.3768426,12.9 Z M24.789,8.7 L25.88,10.7 L6.144,10.7 L7.25,8.7 L24.789,8.7 Z M22.499329,4.5 L23.59,6.5 L19.3768426,6.5 L19.3768426,4.5 L22.499329,4.5 Z M18.0768426,4.5 L18.0768426,6.5 L8.466,6.5 L9.57264222,4.5 L18.0768426,4.5 Z" fill="#313238" fill-rule="evenodd"/>
</svg>
