<svg xmlns="http://www.w3.org/2000/svg" viewBox="0 0 32 32" class="design-iconfont">
  <path d="M16.0014077,4 C9.03910178,3.99724684 3.4,9.51113231 3.4,16.3167322 C3.4,21.6984166 6.92760585,26.2731238 11.840353,27.9531788 C12.5019551,28.1156759 12.4006033,27.6557264 12.4006033,27.3417489 L12.4006033,25.2072528 C8.58020333,25.6451688 8.42536029,23.1719075 8.16916546,22.7587792 C7.65114512,21.893964 6.42647749,21.6736289 6.79247012,21.2605006 C7.66240644,20.8225847 8.54923472,21.3706682 9.5768294,22.8551758 C10.320076,23.9320635 11.7699698,23.7502871 12.5047704,23.5712648 C12.6652441,22.9240305 13.0087141,22.3456509 13.4816892,21.8967182 C9.52333817,21.2026627 7.87355603,18.8395689 7.87355603,16.0302966 C7.87355603,14.6669733 8.33245447,13.4138175 9.2333594,12.4030303 C8.65903251,10.7367462 9.28685063,9.31007654 9.37131047,9.09800403 C11.007016,8.95478622 12.707474,10.2437465 12.8397944,10.3456514 C13.7688526,10.1005287 14.8302313,9.97108179 16.0182996,9.97108179 C17.2119987,9.97108179 18.2761926,10.106037 19.2136968,10.353914 C19.5318288,10.1170538 21.1084125,9.00986999 22.6286895,9.14482523 C22.710334,9.35689775 23.3240755,10.7505172 22.7835326,12.3947677 C23.6956988,13.4083091 24.1602279,14.6724816 24.1602279,16.0385592 C24.1602279,18.8533398 22.4991844,21.2191878 18.5295721,21.9022266 C19.1911742,22.5411983 19.602212,23.428047 19.602212,24.4085381 L19.602212,27.5070003 C19.6247347,27.7548772 19.602212,28 20.0245112,28 C25.0104569,26.3557494 28.6,21.747992 28.6,16.3194864 C28.6,9.51113231 22.9580829,4 16.0014077,4 Z" fill="#313238" fill-rule="evenodd"/>
</svg>
