<svg xmlns="http://www.w3.org/2000/svg" viewBox="0 0 12 12" class="design-iconfont">
  <path d="M2.98225,0 L2.98225,1 L1,1 L1,11 L11,11 L11,9.009 L12,9.009 L12,11.5 C12,11.77625 11.776,12 11.5,12 L0.5,12 C0.224,12 0,11.77625 0,11.5 L0,0.5 C0,0.224 0.224,0 0.5,0 L2.98225,0 Z M11.4912312,0.0001 C11.7720716,0.0001 12,0.228028413 12,0.50886878 L12,6.35055191 L10.9824624,6.35055191 L10.9824624,1.73703661 L4.21939905,8.5001 L3.5,7.78070095 L10.2630634,1.01763756 L5.64039026,1.01763756 L5.64039026,0.0001 Z" transform="translate(0 -.0001)" fill="#3A84FF" fill-rule="nonzero"/>
</svg>
