<?xml version="1.0" standalone="no"?>
<!DOCTYPE svg PUBLIC "-//W3C//DTD SVG 20010904//EN"
 "http://www.w3.org/TR/2001/REC-SVG-20010904/DTD/svg10.dtd">
<svg version="1.0" xmlns="http://www.w3.org/2000/svg"
 width="120.000000pt" height="120.000000pt" viewBox="0 0 120.000000 120.000000"
 preserveAspectRatio="xMidYMid meet">
<metadata>
go-neat svg
</metadata>
<g transform="translate(0.000000,120.000000) scale(0.100000,-0.100000)"
fill="#737987" stroke="none">
<path d="M470 989 c-101 -46 -160 -137 -160 -251 0 -47 4 -68 13 -69 6 0 22
-2 34 -5 20 -3 21 -1 16 54 -9 106 58 207 159 237 70 21 104 19 163 -9 63 -29
112 -84 127 -142 7 -24 15 -44 19 -44 17 0 18 20 3 63 -35 104 -154 187 -268
187 -40 0 -77 -8 -106 -21z m-50 -75 c-44 -50 -70 -116 -70 -175 0 -31 -4 -48
-10 -44 -16 10 -11 97 9 141 16 34 84 114 99 114 2 0 -10 -16 -28 -36z"/>
<path d="M888 884 c41 -32 41 -63 2 -107 -70 -81 -268 -149 -435 -151 -160 -2
-254 40 -241 106 3 18 14 41 24 52 21 24 -2 13 -36 -18 -39 -34 -44 -52 -28
-90 17 -40 71 -79 136 -97 25 -7 63 -29 86 -49 59 -54 119 -74 201 -68 108 8
182 58 233 158 11 21 40 53 66 70 104 72 110 151 14 200 -53 27 -62 25 -22 -6z
m62 -83 c0 -30 -8 -39 -94 -112 -61 -52 -194 -97 -314 -106 -94 -7 -116 -21
-86 -55 l19 -21 -30 16 c-16 8 -43 28 -58 45 l-28 29 123 6 c68 3 148 13 178
22 132 37 261 121 276 180 8 33 14 31 14 -4z m-167 -209 c-62 -77 -157 -107
-248 -78 -29 9 -58 23 -65 31 -11 13 -4 15 51 14 79 -1 191 24 244 55 22 12
42 21 44 19 3 -2 -9 -20 -26 -41z"/>
<path d="M1003 443 c-7 -3 -13 -11 -13 -19 0 -8 -7 -14 -15 -14 -8 0 -15 -4
-15 -10 0 -5 7 -10 16 -10 12 0 15 -9 13 -38 -2 -21 0 -43 5 -50 10 -16 59
-16 53 1 -2 6 -10 11 -16 9 -7 -1 -11 14 -11 38 0 29 4 40 15 40 8 0 15 5 15
10 0 6 -6 10 -14 10 -8 0 -16 8 -18 18 -2 11 -9 17 -15 15z"/>
<path d="M148 385 c-8 -18 -9 -34 -2 -53 8 -23 15 -27 47 -27 27 0 36 -4 32
-13 -3 -8 -5 -16 -5 -18 0 -2 -9 -4 -20 -4 -11 0 -20 5 -20 10 0 6 -7 10 -16
10 -9 0 -14 -7 -12 -17 2 -13 14 -19 41 -21 57 -5 67 9 67 89 l0 69 -50 0
c-44 0 -52 -3 -62 -25z m77 -6 c13 -19 -4 -59 -25 -59 -16 0 -20 7 -20 35 0
28 4 35 19 35 11 0 23 -5 26 -11z"/>
<path d="M296 389 c-27 -40 0 -99 47 -99 53 0 85 63 51 101 -24 26 -78 25 -98
-2z m69 -39 c0 -28 -4 -35 -20 -35 -13 0 -21 8 -23 23 -5 34 5 54 25 50 13 -2
18 -13 18 -38z"/>
<path d="M570 348 c0 -51 2 -59 18 -56 13 3 17 13 17 48 0 38 3 45 20 45 17 0
20 -8 23 -47 2 -35 7 -48 18 -48 12 0 14 12 12 58 l-3 57 -52 2 -53 1 0 -60z"/>
<path d="M722 398 c-20 -20 -15 -86 7 -98 28 -15 67 -12 81 5 18 22 4 31 -24
16 -24 -13 -46 -8 -46 10 0 5 18 9 40 9 35 0 40 3 40 23 0 31 -18 47 -55 47
-17 0 -36 -5 -43 -12z m63 -18 c4 -6 -5 -10 -20 -10 -15 0 -24 4 -20 10 3 6
12 10 20 10 8 0 17 -4 20 -10z"/>
<path d="M849 393 c-13 -15 -11 -16 24 -9 23 4 37 3 37 -4 0 -5 -10 -10 -23
-10 -29 0 -47 -18 -47 -47 0 -27 42 -42 65 -23 10 9 15 9 15 1 0 -6 6 -11 13
-11 13 0 16 87 3 108 -11 18 -71 15 -87 -5z m61 -57 c0 -8 -5 -18 -11 -22 -14
-8 -33 11 -25 25 10 16 36 13 36 -3z"/>
<path d="M430 353 c0 -9 18 -13 55 -13 37 0 55 4 55 13 0 8 -18 12 -55 12 -37
0 -55 -4 -55 -12z"/>
</g>
</svg>
