<?xml version="1.0" encoding="utf-8"?>
<!-- Generator: Adobe Illustrator 22.1.0, SVG Export Plug-In . SVG Version: 6.00 Build 0)  -->
<svg version="1.1" id="图层_2" xmlns="http://www.w3.org/2000/svg" xmlns:xlink="http://www.w3.org/1999/xlink" x="0px" y="0px"
	 viewBox="0 0 64 64" style="enable-background:new 0 0 64 64;" xml:space="preserve">
<style type="text/css">
	.st0{fill:#727985;}
</style>
<g id="图层_65">
	<g>
		<path class="st0" d="M51.6,32.3c-0.8-0.6-1.9-0.9-2.9-0.8c-0.2-5.8,0.3-11.7-1.2-17.3c5.6-2,1.3-9.7-3.6-6.6C40.6,4.5,35.9,4,31,4
			c-4.4,0.4-8.7,1.2-11.8,3.6c-4.8-2.9-9.2,4.2-4.1,6.4c-1.7,5.9-0.3,11.8-0.2,17.8c-1-0.1-2.1,0.2-2.9,0.8
			c-0.5,0.3-1.3,1.4-0.4,1.8c0.1,1.7,1.7,0.9,2.5,0.4c0.3-0.2,0.6-0.2,0.8-0.3c-0.3,5.8-1.7,13.3,1.5,18.4c0.6,0.9,1.3,1.7,2.1,2.4
			c-1.2,0.9-3.3,2.1-2.2,3.8c0.3,0.3,0.2,0.2,0.3,0.3l0,0l0,0l0,0c0.1,0.2,0.7,1,1.9,0.3c1.1-0.6,2.2-1.9,3.5-2.2
			c2.6,1.1,5.4,1.6,8,1.7c4,0.1,8.6-0.4,12.1-2.5L42,56.8c1.6,0.5,2.7,4,4.5,2.3l0,0l0,0l0,0c1.9-1.2-0.4-3.6-1.7-4.3
			c-0.1,0-0.1,0-0.2,0.1c0.9-0.9,1.7-1.9,2.3-3.1c2.7-5.3,2.2-11.8,1.8-17.6c0.1,0.1,0.4,0.1,0.7,0.3c0.8,0.5,2.4,1.3,2.5-0.4
			C52.9,33.7,52,32.6,51.6,32.3z M47,9.8c0.4,0.7,0.1,1.3-0.4,1.7c-0.1-0.2-0.1-0.3-0.2-0.5c-0.3-0.7-0.7-1.2-1.1-1.8
			C46,9,46.7,9.1,47,9.8z M15.2,9.9c0.4-0.8,1.2-0.8,2-0.4c-0.5,0.7-1,1.4-1.4,2.3C15.2,11.3,14.8,10.8,15.2,9.9z M45.5,50.5
			c-2.8,5.7-9.6,7.1-15.3,6.9c-4.5-0.2-9.8-1.7-12.3-5.9c-3-5-1.6-12.3-1.3-17.8c0.3-6.5-1.7-13.1,0.4-19.5
			c2.1-6.6,7.9-8.1,14.2-8.6c5.8,0,11.2,0.9,14,6.6c2.5,6.5,1.6,13.4,2,20.2C47.4,38.3,48.2,45.1,45.5,50.5z"/>
		<path class="st0" d="M32.3,12.8c1.1,6.7,12,4.9,10.5-1.8C41.4,5,31.9,6.7,32.3,12.8z M33.9,13.2c0.2,0.6,0.8,1,1.4,1
			c0.9,0,1.5-0.8,1.5-1.7l0,0c0-0.9-0.7-1.7-1.5-1.7c-0.9,0-1.5,0.8-1.5,1.7c0,0.1,0,0.2,0,0.3c0-0.1,0-0.1-0.1-0.2
			c-0.3-4.4,6.7-5.6,7.7-1.3C42.5,15.9,35.3,17.2,33.9,13.2z M35.6,12.9c0-0.2,0.2-0.4,0.4-0.4s0.4,0.2,0.4,0.4s-0.2,0.4-0.4,0.4
			C35.8,13.4,35.6,13.2,35.6,12.9z"/>
		<path class="st0" d="M29.7,12.4c-0.4-7-11.8-5.6-10.4,1.5C20.8,19.7,30.1,18.2,29.7,12.4z M20.7,13.6
			C20.7,13.5,20.7,13.5,20.7,13.6c0.2,0.6,0.8,1.1,1.5,1.1c0.9,0,1.6-0.8,1.6-1.7s-0.7-1.7-1.6-1.7c-0.8,0-1.5,0.7-1.6,1.5
			c-0.1-4.4,7.4-5,7.7-0.3C28.6,16.6,21.8,17.7,20.7,13.6z M22.5,13.3c0-0.2,0.2-0.4,0.4-0.4c0.2,0,0.4,0.2,0.4,0.4
			s-0.2,0.4-0.4,0.4C22.7,13.8,22.5,13.6,22.5,13.3z"/>
		<path class="st0" d="M33.8,17.5c0.1-0.2,0.1-0.4,0.1-0.6c-0.5-1.8-4.7-1.6-4.6,0.6v0.1c-1.2,0.2-2.2,1.6-1.5,2.8
			c0.3,0.6,0.8,0.7,1.3,0.7c-0.5,1.7,0.6,4.5,2.3,2.2c-0.1-1,0-1.9,0.1-2.9c-0.3,0-0.6,0.1-0.9,0.2c0,0.7-0.1,1.4-0.1,2.1
			c-0.2,0.9-0.5-0.8-0.4-1.9c0.6-0.2,1.3-0.5,1.8-0.4c0.5,0,0.9,0.2,1.4,0.4c-0.1,0-0.2-0.1-0.3-0.1c0,0.6,0,1.4,0,2
			c0,0.3-0.1,0.4-0.2,0.4c-0.1-0.1-0.2-0.3-0.2-0.6c0-0.7,0-1.3,0-1.9c-0.2-0.1-0.4-0.1-0.6-0.1c-0.1,0-0.2,0-0.2,0
			c0,1-0.2,1.9-0.1,2.9c0.2,0.5,0.6,0.8,1.2,0.9c0.4-0.1,0.8-0.2,1-0.6c0.2-0.9,0-1.8,0-2.6c0.6,0.2,1.2,0.3,1.8-0.3
			C36.6,19.4,35.1,18.1,33.8,17.5z"/>
		<path class="st0" d="M29.2,17.5c0-0.4-0.1-0.5-0.1-0.6C29.2,17,29.2,17.5,29.2,17.5z"/>
		<path class="st0" d="M29.1,16.9L29.1,16.9L29.1,16.9z"/>
	</g>
</g>
</svg>
