<?xml version="1.0" encoding="utf-8"?>
<!-- Generator: Adobe Illustrator 22.1.0, SVG Export Plug-In . SVG Version: 6.00 Build 0)  -->
<svg version="1.1" id="图层_2" xmlns="http://www.w3.org/2000/svg" xmlns:xlink="http://www.w3.org/1999/xlink" x="0px" y="0px"
	 viewBox="0 0 64 64" style="enable-background:new 0 0 64 64;" xml:space="preserve">
<style type="text/css">
	.st0{fill:#727985;}
</style>
<g id="图层_66">
	<g>
		<path class="st0" d="M17.5,52.1v2.2h2c0,0-0.4,0.9-1.9,0.9s-2-1.3-2-2.4c0-0.8,0.6-2,1.9-2c1.6,0,1.9,1.3,1.9,1.3l2.2-1.2
			c0,0-0.9-2.5-4.2-2.5c-1.5,0-4.3,1.4-4.3,4.8c0,2.4,2.2,4.4,4.3,4.4c1.3,0,3.9-0.6,4.5-3.4c0.2-0.8,0.1-2.1,0.1-2.1H17.5z"/>
		<polygon class="st0" points="29.8,57.2 32.1,57.2 32.1,51.2 29.8,51.2 		"/>
		<rect x="47.6" y="48.6" class="st0" width="2.5" height="5.4"/>
		<path class="st0" d="M25.8,50.9c-1.8,0-3.3,1.5-3.3,3.3s1.5,3.3,3.3,3.3s3.3-1.5,3.3-3.3S27.6,50.9,25.8,50.9z M25.8,55.3
			c-0.6,0-1.1-0.5-1.1-1.1s0.5-1.1,1.1-1.1s1.1,0.5,1.1,1.1S26.4,55.3,25.8,55.3z"/>
		<path class="st0" d="M30.9,48.4c-0.7,0-1.3,0.6-1.3,1.3s0.6,1.3,1.3,1.3c0.7,0,1.3-0.6,1.3-1.3S31.7,48.4,30.9,48.4z"/>
		<path class="st0" d="M48.9,54.4c-0.8,0-1.5,0.7-1.5,1.5s0.7,1.5,1.5,1.5s1.5-0.7,1.5-1.5C50.4,55.1,49.7,54.4,48.9,54.4z"/>
		<path class="st0" d="M37.1,51.1c-0.9,0-1.6,0.2-1.9,0.7c0-0.5,0-0.6,0-0.6h-2.1v6h2.3c0,0,0-2.5,0-3.4c0-0.3,0.2-0.8,0.8-0.8
			s0.7,0.5,0.7,0.8c0,0.8,0,3.4,0,3.4h2.3v-4C39.2,53.2,39.2,51.1,37.1,51.1z"/>
		<path class="st0" d="M44.4,51.2v0.4c0,0-0.6-0.5-1.6-0.5c-1.1,0-2.8,0.8-2.8,3.2c0,2.5,2.1,2.9,3.1,2.9s1.6-0.8,1.6-0.8v0.5
			c0,0-0.4,1-1.2,1s-1-0.6-1-0.6s-1.5,0-2.4,0c0,0.7,0.6,2.9,3.5,2.9s3.2-2.8,3.2-2.8v-6h-2.4V51.2z M43.4,55.2
			c-0.6,0-1.1-0.5-1.1-1.1s0.5-1.1,1.1-1.1s1.1,0.5,1.1,1.1S44,55.2,43.4,55.2z"/>
		<path class="st0" d="M31.6,43.1c3.6-0.5,6.3-1.5,6.3-1.5v8.2c0,0,5.9-3.1,10.6-13.5c4.2-9.2,4.2-13.2,4.2-13.2s-7.5,0.8-11.9,0.7
			c-4.1,0-10.8-0.2-12-0.5c2.2,3.7,5,5.7,5,5.7s-4.5,1.9-7.3-0.3c-1.7-1.3-2-4-1.7-5.7c0.5-2.7,2.8-6.3,8.7-7.4
			c3.3-0.6,7.1,0.1,9.7,3.4c1.3,1.7,1.8,3.5,1.8,3.8l0,0c0.2-0.1,0.4-0.2,0.8-0.3c0-0.6,0.1-4.1-3.3-6.8c1.7,0.9,3.8,3.5,4.2,6.4
			c0.3-0.1,0.7-0.3,1-0.5c-0.1-1.1-0.7-5.8-3.8-7.9c1.6,0.9,4.1,3,4.8,7.5c0.4-0.2,0.7-0.3,1.1-0.5c0-0.7-0.2-3.6-2-5.9
			c1.1,1.2,2.4,3.5,2.7,5.6c0.7-0.3,1.4-0.6,2-0.9c0-1.5-0.4-6.6-4.6-10.4c-5-4.5-10.8-5.4-16.4-4.7C25.9,5,17.6,8.7,13.6,16.9
			s-2.5,17.2,2.2,21.5C20.6,42.5,26.4,43.9,31.6,43.1z"/>
	</g>
</g>
</svg>
