<?xml version="1.0" standalone="no"?><!DOCTYPE svg PUBLIC "-//W3C//DTD SVG 1.1//EN" "http://www.w3.org/Graphics/SVG/1.1/DTD/svg11.dtd"><svg t="1701068452113" class="icon" viewBox="0 0 1024 1024" version="1.1" xmlns="http://www.w3.org/2000/svg" p-id="4241" xmlns:xlink="http://www.w3.org/1999/xlink" width="200" height="200"><path d="M128 341.333333m42.666667 0l682.666666 0q42.666667 0 42.666667 42.666667l0 0q0 42.666667-42.666667 42.666667l-682.666666 0q-42.666667 0-42.666667-42.666667l0 0q0-42.666667 42.666667-42.666667Z" fill="#666666" p-id="4242"></path><path d="M422.613333 85.333333H426.666667a38.613333 38.613333 0 0 1 38.4 42.453334L387.84 900.266667a42.666667 42.666667 0 0 1-42.453333 38.4H341.333333a38.613333 38.613333 0 0 1-38.4-42.453334L380.16 123.733333a42.666667 42.666667 0 0 1 42.453333-38.4zM678.613333 85.333333H682.666667a38.613333 38.613333 0 0 1 38.4 42.453334L643.84 900.266667a42.666667 42.666667 0 0 1-42.453333 38.4H597.333333a38.613333 38.613333 0 0 1-38.4-42.453334L636.16 123.733333a42.666667 42.666667 0 0 1 42.453333-38.4z" fill="#666666" p-id="4243"></path><path d="M128 597.333333m42.666667 0l682.666666 0q42.666667 0 42.666667 42.666667l0 0q0 42.666667-42.666667 42.666667l-682.666666 0q-42.666667 0-42.666667-42.666667l0 0q0-42.666667 42.666667-42.666667Z" p-id="4244"></path></svg>