<svg id="图层_1" data-name="图层 1" xmlns="http://www.w3.org/2000/svg" viewBox="0 0 14 14" fill="currentColor"><title>hooks</title><path d="M7.73,4.5A1.13,1.13,0,0,0,6.65,3.33a1,1,0,0,0-.76.35,1.24,1.24,0,0,0,0,1.64,1,1,0,0,0,.76.35A1.13,1.13,0,0,0,7.73,4.5Z" transform="translate(-1 -1)"/><path d="M8,1a7,7,0,1,0,7,7A7,7,0,0,0,8,1Zm3.5,9.92A3,3,0,0,1,10.71,13,2.56,2.56,0,0,1,6.9,13a3.07,3.07,0,0,1-.78-2.06V6.75A2.3,2.3,0,0,1,4.5,4.5,2.24,2.24,0,0,1,6.65,2.17,2.23,2.23,0,0,1,8.81,4.48,2.31,2.31,0,0,1,7.19,6.75v4.17a1.7,1.7,0,0,0,1.62,1.75,1.69,1.69,0,0,0,1.61-1.75H8.81L11.5,8Z" transform="translate(-1 -1)"/></svg>