<!-- Generated by IcoMoon.io -->
<svg version="1.1" xmlns="http://www.w3.org/2000/svg" width="1024" height="1024" viewBox="0 0 1024 1024">
<g id="icomoon-ignore">
</g>
<path d="M886.4 868.8l-236.8-356.8 235.2-355.2c12.8-17.6 14.4-41.6 4.8-60.8s-30.4-32-52.8-32h-649.6c-22.4 0-43.2 12.8-52.8 32s-8 43.2 3.2 59.2l236.8 356.8-235.2 355.2c-12.8 17.6-14.4 41.6-4.8 60.8s30.4 32 52.8 32h649.6c22.4 0 43.2-12.8 52.8-32s8-43.2-3.2-59.2zM196.8 896l233.6-352c12.8-20.8 12.8-44.8 0-65.6l-233.6-350.4h630.4l-233.6 352c-12.8 20.8-12.8 44.8 0 65.6l233.6 350.4h-630.4z"></path>
<path d="M521.6 457.6l97.6-147.2h-214.4l97.6 147.2c12.8 16 8 16 19.2 0z"></path>
<path d="M496 572.8l-150.4 224h334.4l-148.8-224c-22.4-32-12.8-32-35.2 0z"></path>
</svg>
