<?xml version="1.0" encoding="utf-8"?>
<!-- Generator: Adobe Illustrator 22.1.0, SVG Export Plug-In . SVG Version: 6.00 Build 0)  -->
<svg version="1.1" id="申请权限" xmlns="http://www.w3.org/2000/svg" xmlns:xlink="http://www.w3.org/1999/xlink" x="0px"
	 y="0px" viewBox="0 0 64 64" style="enable-background:new 0 0 64 64;" xml:space="preserve">
<style type="text/css">
	.st0{fill:#737987;}
</style>
<path class="st0" d="M52,40.2c2.2-3.7,3.3-8,3.3-12.3C55.3,14.7,45,4,32.3,4S9.4,14.7,9.4,27.9c0,4.3,1.1,8.6,3.3,12.3
	C15,45,30.3,59.2,30.3,59.2c1.2,1.2,3.1,1.3,4.3,0.1c0.1-0.1,0.1-0.1,0.2-0.2C34.9,59.2,49,45,52,40.2z M32.3,20.5
	c4,0.1,7.2,3.4,7.1,7.4c0.1,3.9-2.9,7.2-6.8,7.4c-3.9,0.1-7.2-2.9-7.4-6.8c0-0.2,0-0.4,0-0.5C25.2,23.9,28.3,20.6,32.3,20.5
	C32.3,20.5,32.3,20.5,32.3,20.5z"/>
</svg>
