<!-- Generated by IcoMoon.io -->
<svg version="1.1" xmlns="http://www.w3.org/2000/svg" width="32" height="32" viewBox="0 0 32 32">
<title>personal-cert</title>
<path d="M16 11c1.081 0 2.128 0.213 3.113 0.628 0.953 0.403 1.809 0.981 2.544 1.716s1.313 1.591 1.716 2.544c0.416 0.984 0.628 2.031 0.628 3.113s-0.212 2.128-0.628 3.113c-0.403 0.953-0.978 1.809-1.716 2.544-0.734 0.734-1.591 1.313-2.544 1.716-0.984 0.416-2.031 0.628-3.113 0.628s-2.128-0.212-3.113-0.628c-0.953-0.403-1.809-0.978-2.544-1.716-0.734-0.734-1.313-1.591-1.716-2.544-0.416-0.984-0.628-2.031-0.628-3.113s0.213-2.128 0.628-3.113c0.403-0.953 0.981-1.809 1.716-2.544s1.591-1.313 2.544-1.716c0.984-0.416 2.031-0.628 3.113-0.628zM16 9c-5.522 0-10 4.478-10 10s4.478 10 10 10 10-4.478 10-10-4.478-10-10-10v0z"></path>
<path d="M11.956 24.813l0.762-4.494-3.269-3.175 4.509-0.663 2.009-4.094 2.025 4.084 4.512 0.647-3.259 3.188 0.778 4.491-4.037-2.116-4.031 2.131z"></path>
<path d="M26 3h-20v7.078l1.847 1.537c0.453-0.5 0.95-0.956 1.484-1.366l-1.331-1.109v-4.141h4v3.75c0.641-0.25 1.309-0.441 2-0.569v-3.181h4v3.181c0.691 0.128 1.359 0.319 2 0.569v-3.75h4v4.141l-1.331 1.109c0.538 0.409 1.034 0.866 1.484 1.366l1.847-1.537v-7.078z"></path>
</svg>
