<svg viewBox="0 0 1024 1024" version="1.1" xmlns="http://www.w3.org/2000/svg"><path  fill-rule="evenodd" d="M198.02373344 96L835.0928192 96C856.2612032 96 872.753968 113.26836736 872.753968 132.98448384 875.0597536 155.01422656 858.5990144 169.76778304 837.4946784 169.76778304L198.02373344 169.76778304C176.79129952 169.76778304 160.45865824 152.63353888 160.45865824 132.98448384 160.45865824 113.26836736 176.79129952 96 198.02373344 96L198.02373344 96ZM886.8768992 878.6426464C886.8768992 900.907104 861.1289728 928 837.4946784 928L195.62187424 928C172.0196064 928 146.2396528 900.907104 146.2396528 878.6426464L146.2396528 625.2503136 211.95451584 625.2503136 211.95451584 866.5044928 823.3717472 866.5044928 823.3717472 625.2503136 886.8448768 625.2503136 886.8448768 878.6426464 886.8768992 878.6426464ZM853.9874432 553.7290944C792.8201024 553.7290944 741.132096 502.2592992 741.132096 440.6296704 741.132096 504.7070496 691.6537984 553.762624 628.24472 553.762624 567.0773792 553.762624 515.4534208 502.2592992 515.4534208 440.6296704 515.4534208 504.7070496 465.9751264 553.762624 402.5340224 553.762624 341.4307296 553.762624 289.77474784 502.2592992 289.77474784 440.6296704 289.77474784 504.7070496 240.3284768 553.762624 176.79129952 553.762624 115.68800608 553.762624 64 502.2592992 64 440.6296704L141.66010848 231.3974128 879.8314464 231.3974128 959.6692416 440.6296704C964.537008 504.7070496 915.026688 553.762624 853.9874432 553.762624L853.9874432 553.7290944Z"/></svg>
