<?xml version="1.0" encoding="UTF-8"?>
<svg width="14px" height="13px" viewBox="0 0 14 13" version="1.1" xmlns="http://www.w3.org/2000/svg" xmlns:xlink="http://www.w3.org/1999/xlink">
    <title>蓝盾/研发商店</title>
    <g id="模板管理" stroke="none" stroke-width="1" fill="none" fill-rule="evenodd">
        <g id="新建模板-交互说明" transform="translate(-2813.000000, -2180.500000)">
            <g id="编组-3备份-7" transform="translate(1770.000000, 1890.000000)">
                <g id="模块/模板列表" transform="translate(264.000000, 170.000000)">
                    <g id="编组-22备份-7" transform="translate(722.000000, 0.000000)">
                        <g id="蓝盾/研发商店" transform="translate(56.000000, 119.000000)">
                            <g id="编组" transform="translate(1.000000, 1.500000)" fill="#1768EF" fill-rule="nonzero">
                                <path d="M2.09412083,0 L12.0483253,0 C12.3790813,0 12.6367808,0.26981824 12.6367808,0.577882562 C12.6728087,0.922097288 12.4156096,1.15262161 12.0858544,1.15262161 L2.09412083,1.15262161 C1.76236406,1.15262161 1.50716654,0.884899045 1.50716654,0.577882562 C1.50716654,0.26981824 1.76236406,0 2.09412083,0 L2.09412083,0 Z M12.8574516,12.2287914 C12.8574516,12.5766735 12.4551402,13 12.0858544,13 L2.05659179,13 C1.68780635,13 1.28499458,12.5766735 1.28499458,12.2287914 L1.28499458,8.26953613 L2.31178931,8.26953613 L2.31178931,12.0391327 L11.8651836,12.0391327 L11.8651836,8.26953613 L12.8569512,8.26953613 L12.8569512,12.2287914 L12.8574516,12.2287914 Z M12.3435538,7.15201709 C11.3878141,7.15201709 10.580189,6.34780156 10.580189,5.38483859 C10.580189,6.38604764 9.80709061,7.15254101 8.81632377,7.15254101 C7.86058403,7.15254101 7.05395971,6.34780156 7.05395971,5.38483859 C7.05395971,6.38604764 6.28086134,7.15254101 5.28959411,7.15254101 C4.33485515,7.15254101 3.52773044,6.34780156 3.52773044,5.38483859 C3.52773044,6.38604764 2.75513245,7.15254101 1.76236406,7.15254101 C0.807625096,7.15254101 0,6.34780156 0,5.38483859 L1.21343919,2.11558457 L12.7473664,2.11558457 L13.9948319,5.38483859 C14.0708908,6.38604764 13.297292,7.15254101 12.3435538,7.15254101 L12.3435538,7.15201709 Z" id="形状"></path>
                            </g>
                            <rect id="codesign_placeholder_name" x="0" y="0" width="16" height="16"></rect>
                        </g>
                    </g>
                </g>
            </g>
        </g>
    </g>
</svg>