<?xml version="1.0" encoding="UTF-8"?>
<svg xmlns="http://www.w3.org/2000/svg" xmlns:xlink="http://www.w3.org/1999/xlink" width="22px" height="23px" viewBox="0 0 22 23" version="1.1">
  <title>编组 3</title>
  <g id="流水线" stroke="none" stroke-width="1" fill="none" fill-rule="evenodd">
    <g id="新建/code编辑流水线-交互说明" transform="translate(-583.000000, -2374.000000)">
      <g id="编组-3备份-7" transform="translate(50.000000, 2018.000000)">
        <g id="编组-10" transform="translate(24.000000, 134.000000)">
          <g id="编组-11" transform="translate(401.000000, 210.000000)">
            <g id="编组-3" transform="translate(108.000000, 12.000000)">
              <g id="编组" transform="translate(0.000000, 1.000000)">
                <g id="Tag/圆角/浅蓝色" transform="translate(0.000000, -1.000000)">
                  <rect id="矩形" fill="#EDF4FF" x="0" y="1" width="22" height="22" rx="2"></rect>
                  <text id="文字" font-family="MicrosoftYaHei, Microsoft YaHei" font-size="12" font-weight="normal"></text>
                </g>
              </g>
              <g id="store-商店" transform="translate(5.500000, 6.000000)" fill-rule="nonzero">
                <rect id="矩形" fill="#000000" opacity="0" x="0" y="0" width="11" height="12"></rect>
                <path d="M9.35,12 L1.65,12 C1.34624339,12 1.1,11.7313708 1.1,11.4 L1.1,8.4 C1.1,8.06862915 1.34624339,7.8 1.65,7.8 C1.95375661,7.8 2.2,8.06862915 2.2,8.4 L2.2,10.8 L8.8,10.8 L8.8,8.4 C8.8,8.06862915 9.04624339,7.8 9.35,7.8 C9.65375661,7.8 9.9,8.06862915 9.9,8.4 L9.9,11.4 C9.9,11.7313708 9.65375661,12 9.35,12 Z M11,4.2 C11,4.0815215 10.9678516,3.96569411 10.9076,3.86712 L8.7076,0.26712 C8.60558668,0.10023249 8.43387405,0 8.25,0 L2.75,0 C2.56612595,0 2.39441332,0.10023249 2.2924,0.26712 L0.0924,3.86712 C0.0321484296,3.96569411 0,4.0815215 0,4.2 L0,5.1 C0.000848699457,5.92804332 0.61596029,6.59907415 1.375,6.6 C2.4321,6.6 2.74934,5.4 2.75,5.4 C2.87782,6.08376 3.46104,6.6 4.125,6.6 C5.1821,6.6 5.49934,5.4 5.5,5.4 C5.62782,6.08376 6.21104,6.6 6.875,6.6 C7.9321,6.6 8.24956,5.4 8.25,5.4 C8.37782,6.08376 8.96104,6.6 9.625,6.6 C10.3840397,6.59907415 10.9991513,5.92804332 11,5.1 L11,4.2 Z" id="形状" fill="#699DF4"></path>
              </g>
            </g>
          </g>
        </g>
      </g>
    </g>
  </g>
</svg>
