<?xml version="1.0" encoding="UTF-8"?>
<svg width="14px" height="14px" viewBox="0 0 14 14" version="1.1" xmlns="http://www.w3.org/2000/svg" xmlns:xlink="http://www.w3.org/1999/xlink">
    <title>Icon/设为变量</title>
    <g id="流水线编辑/变量编辑" stroke="none" stroke-width="1" fill="none" fill-rule="evenodd">
        <g id="编辑step-切换变量输入统一说明" transform="translate(-283, -273)">
            <g id="编组-2备份" transform="translate(280, 270)">
                <g id="Icon/设为变量" transform="translate(3, 3)">
                    <path d="M4.71635802,4.8125 L3.24434156,9.1875 L2.33693416,9.1875 L0.875,4.8125 L1.96388889,4.8125 L2.78055556,7.86639747 L2.80072016,7.86639747 L3.62746914,4.8125 L4.71635802,4.8125 Z M7.40833333,7.65747893 L6.90421811,6.0721559 L6.8840535,6.0721559 L6.37993827,7.65747893 L7.40833333,7.65747893 Z M4.86759259,9.1875 L6.47067901,4.8125 L7.3276749,4.8125 L8.93076132,9.1875 L7.90236626,9.1875 L7.59989712,8.24736657 L6.19845679,8.24736657 L5.89598765,9.1875 L4.86759259,9.1875 Z M10.4632716,5.40238764 L10.4632716,6.76650281 L11.0480453,6.76650281 C11.2295267,6.76650281 11.3740398,6.75114115 11.4815844,6.72041784 C11.5891289,6.68969452 11.6731481,6.64565777 11.733642,6.58830758 C11.7874143,6.5309574 11.8243827,6.46029377 11.8445473,6.37631671 C11.8647119,6.29233965 11.8747942,6.19504916 11.8747942,6.08444522 C11.8747942,5.97384129 11.8647119,5.8765508 11.8445473,5.79257374 C11.8243827,5.70859668 11.7840535,5.63588483 11.7235597,5.5744382 C11.5958505,5.45973783 11.3538752,5.40238764 10.9976337,5.40238764 L10.4632716,5.40238764 Z M9.43487654,9.1875 L9.43487654,4.8125 L11.0883745,4.8125 C12.298251,4.8125 12.9031893,5.24057818 12.9031893,6.09673455 C12.9031893,6.35481039 12.8376543,6.57397004 12.7065844,6.75421348 C12.5755144,6.93445693 12.3453018,7.07988062 12.0159465,7.19048455 L13.125,9.1875 L12.0361111,9.1875 L11.0782922,7.31952247 L10.4632716,7.31952247 L10.4632716,9.1875 L9.43487654,9.1875 Z M1.75,0.875 L12.25,0.875 L12.25,3.5 L10.9375,3.5 L10.9375,2.1875 L3.0625,2.1875 L3.0625,3.5 L1.75,3.5 L1.75,0.875 Z M1.75,13.125 L12.25,13.125 L12.25,10.5 L10.9375,10.5 L10.9375,11.8125 L3.0625,11.8125 L3.0625,10.5 L1.75,10.5 L1.75,13.125 Z" id="形状结合" fill="#979BA5"></path>
                    <rect id="codesign_placeholder_name" x="0" y="0" width="14" height="14"></rect>
                </g>
            </g>
        </g>
    </g>
</svg>