<?xml version="1.0" encoding="UTF-8"?>
<svg width="12px" height="14px" viewBox="0 0 12 14" version="1.1" xmlns="http://www.w3.org/2000/svg" xmlns:xlink="http://www.w3.org/1999/xlink">
    <title>Icon/3 面性图标/收藏</title>
    <g id="模板管理" stroke="none" stroke-width="1" fill="none" fill-rule="evenodd">
        <g id="新建模板-交互说明" transform="translate(-1804.000000, -2146.000000)">
            <g id="编组-3备份-7" transform="translate(1770.000000, 1890.000000)">
                <g id="编组-27" transform="translate(0.000000, 98.000000)">
                    <g id="Frame/左侧一级导航元件/一级未选中备份-3" transform="translate(0.000000, 145.000000)">
                        <g id="Icon/3-面性图标/收藏" transform="translate(32.000000, 12.000000)">
                            <path d="M3.00220382,5 C1.89819064,5 2.00264458,4.403 2.00264458,3.66666667 L2.00264458,2.33333333 C2.00264458,1.597 1.89819064,1 3.00220382,1 L12.9977962,1 C14.1018094,1 13.9973554,1.597 13.9973554,2.33333333 L13.9973554,3.66666667 C13.9973554,4.403 14.1018094,5 12.9977962,5 L3.00220382,5 Z" id="Fill-1备份-4" fill="#3A84FF"></path>
                            <rect id="矩形" fill="#A3C5FD" x="5" y="1.5" width="1" height="3"></rect>
                            <path d="M3.00220382,10 C1.89819064,10 2.00264458,9.403 2.00264458,8.66666667 L2.00264458,7.33333333 C2.00264458,6.597 1.89819064,6 3.00220382,6 L12.9977962,6 C14.1018094,6 13.9973554,6.597 13.9973554,7.33333333 L13.9973554,8.66666667 C13.9973554,9.403 14.1018094,10 12.9977962,10 L3.00220382,10 Z" id="Fill-1备份-6" fill="#A3C5FD"></path>
                            <path d="M3.00220382,15 C1.89819064,15 2.00264458,14.403 2.00264458,13.6666667 L2.00264458,12.3333333 C2.00264458,11.597 1.89819064,11 3.00220382,11 L12.9977962,11 C14.1018094,11 13.9973554,11.597 13.9973554,12.3333333 L13.9973554,13.6666667 C13.9973554,14.403 14.1018094,15 12.9977962,15 L3.00220382,15 Z" id="Fill-1备份-8" fill="#A3C5FD"></path>
                            <rect id="矩形备份" fill="#3A84FF" x="5" y="6.5" width="1" height="3"></rect>
                            <rect id="矩形备份-2" fill="#3A84FF" x="5" y="11.5" width="1" height="3"></rect>
                            <rect id="codesign_placeholder_name" x="0" y="0" width="16" height="16"></rect>
                        </g>
                    </g>
                </g>
            </g>
        </g>
    </g>
</svg>