<?xml version="1.0" encoding="UTF-8"?>
<svg width="20px" height="20px" viewBox="0 0 20 20" version="1.1" xmlns="http://www.w3.org/2000/svg" xmlns:xlink="http://www.w3.org/1999/xlink">
    <title>Icon/特殊/流水线模板</title>
    <g id="模板管理" stroke="none" stroke-width="1" fill="none" fill-rule="evenodd">
        <g id="编辑模板-交互说明" transform="translate(-1887.000000, -5424.000000)">
            <g id="编组-3备份-15" transform="translate(1770.000000, 5360.000000)">
                <g id="模块/二级导航栏-编辑" transform="translate(-0.000000, 50.000000)">
                    <g id="编组-4" transform="translate(24.000000, 12.000000)">
                        <g id="Breadcrumb/14字号-箭头样式" transform="translate(24.000000, 0.000000)">
                            <g id="Icon/特殊/流水线模板" transform="translate(69.000000, 2.000000)">
                                <circle id="椭圆形备份-2" fill="#EAEBF0" cx="10" cy="10" r="10"></circle>
                                <path d="M4.79396231,7.1875 C3.64394859,7.1875 3.75275477,6.72109375 3.75275477,6.14583333 L3.75275477,5.10416667 C3.75275477,4.52890625 3.64394859,4.0625 4.79396231,4.0625 L15.2060377,4.0625 C16.3560514,4.0625 16.2472452,4.52890625 16.2472452,5.10416667 L16.2472452,6.14583333 C16.2472452,6.72109375 16.3560514,7.1875 15.2060377,7.1875 L4.79396231,7.1875 Z" id="Fill-1备份-4" fill="#3A84FF" fill-rule="nonzero"></path>
                                <rect id="矩形" fill="#A3C5FD" fill-rule="nonzero" x="6.25" y="4.6875" width="1" height="1.875"></rect>
                                <path d="M4.79396231,11.5625 C3.64394859,11.5625 3.75275477,11.0960938 3.75275477,10.5208333 L3.75275477,9.47916667 C3.75275477,8.90390625 3.64394859,8.4375 4.79396231,8.4375 L15.2060377,8.4375 C16.3560514,8.4375 16.2472452,8.90390625 16.2472452,9.47916667 L16.2472452,10.5208333 C16.2472452,11.0960938 16.3560514,11.5625 15.2060377,11.5625 L4.79396231,11.5625 Z" id="Fill-1备份-6" fill="#A3C5FD" fill-rule="nonzero"></path>
                                <path d="M4.79396231,15.9375 C3.64394859,15.9375 3.75275477,15.4710938 3.75275477,14.8958333 L3.75275477,13.8541667 C3.75275477,13.2789062 3.64394859,12.8125 4.79396231,12.8125 L15.2060377,12.8125 C16.3560514,12.8125 16.2472452,13.2789062 16.2472452,13.8541667 L16.2472452,14.8958333 C16.2472452,15.4710938 16.3560514,15.9375 15.2060377,15.9375 L4.79396231,15.9375 Z" id="Fill-1备份-8" fill="#A3C5FD" fill-rule="nonzero"></path>
                                <rect id="矩形备份" fill="#3A84FF" fill-rule="nonzero" x="6.25" y="9.0625" width="1" height="1.875"></rect>
                                <rect id="矩形备份-2" fill="#3A84FF" fill-rule="nonzero" x="6.25" y="13.4375" width="1" height="1.875"></rect>
                                <rect id="codesign_placeholder_name" x="0" y="0" width="20" height="20"></rect>
                            </g>
                        </g>
                    </g>
                </g>
            </g>
        </g>
    </g>
</svg>