<svg viewBox="0 0 1024 1024" version="1.1" xmlns="http://www.w3.org/2000/svg"><g fill="none" fill-rule="evenodd"><path fill="#EAEBF0" d="M1024 512A512 512 0 0 1 512 1024 512 512 0 0 1 0 512 512 512 0 0 1 1024 512z"/><path fill="#3A84FF" fill-rule="nonzero" d="M245.4508704 368C186.57016768 368 192.14104448 344.12 192.14104448 314.66666656L192.14104448 261.33333344C192.14104448 231.88 186.57016768 208 245.4508704 208L778.5491296 208C837.4298336 208 831.8589568 231.88 831.8589568 261.33333344L831.8589568 314.66666656C831.8589568 344.12 837.4298336 368 778.5491296 368L245.4508704 368Z"/><path fill="#A3C5FD" fill-rule="nonzero" d="M320 240H352V336H320V240z"/><path fill="#A3C5FD" fill-rule="nonzero" d="M245.4508704 592C186.57016768 592 192.14104448 568.12 192.14104448 538.6666656L192.14104448 485.3333344C192.14104448 455.88 186.57016768 432 245.4508704 432L778.5491296 432C837.4298336 432 831.8589568 455.88 831.8589568 485.3333344L831.8589568 538.6666656C831.8589568 568.12 837.4298336 592 778.5491296 592L245.4508704 592Z"/><path fill="#A3C5FD" fill-rule="nonzero" d="M245.4508704 816C186.57016768 816 192.14104448 792.12 192.14104448 762.6666656L192.14104448 709.3333344C192.14104448 679.88 186.57016768 656 245.4508704 656L778.5491296 656C837.4298336 656 831.8589568 679.88 831.8589568 709.3333344L831.8589568 762.6666656C831.8589568 792.12 837.4298336 816 778.5491296 816L245.4508704 816Z"/><path fill="#3A84FF" fill-rule="nonzero" d="M320 464H352V560H320V464z"/><path fill="#3A84FF" fill-rule="nonzero" d="M320 688H352V784H320V688z"/></g></svg>