<svg viewBox="0 0 1024 1024" version="1.1" xmlns="http://www.w3.org/2000/svg"><path fill="#3A84FF" d="M938.6356363636364 640v298.63563636363637H85.36436363636365V85.36436363636365h298.63563636363637a42.728727272727276 42.728727272727276 0 0 0 0-85.36436363636365H85.36436363636365A85.27127272727273 85.27127272727273 0 0 0 0 85.36436363636365v853.2712727272727c0 47.19709090909091 38.167272727272724 85.36436363636365 85.36436363636365 85.36436363636365h853.2712727272727c47.19709090909091 0 85.36436363636365-38.167272727272724 85.36436363636365-85.36436363636365V640a42.728727272727276 42.728727272727276 0 0 0-85.36436363636365 0z m72.98327272727273-628.736a38.53963636363636 38.53963636363636 0 0 0-28.206545454545456-11.17090909090909h-325.8181818181818a40.773818181818186 40.773818181818186 0 0 0 0 81.45454545454545h229.09672727272726L383.7207272727273 585.5418181818183a38.63272727272727 38.63272727272727 0 1 0 54.644363636363636 54.73745454545455l504.18036363636367-505.2043636363636v231.98254545454546a40.773818181818186 40.773818181818186 0 1 0 81.45454545454545 0V40.773818181818186a40.86690909090909 40.86690909090909 0 0 0-11.915636363636365-28.85818181818182c-0.1861818181818182-0.1861818181818182-0.1861818181818182-0.46545454545454545-0.46545454545454545-0.6516363636363637z"/></svg>