<svg viewBox="0 0 72 72" version="1.1" xmlns="http://www.w3.org/2000/svg"><path  fill-rule="evenodd" d="M43.4738565,10.8146939 C45.4946342,12.2617374 46.2052604,14.9386561 45.1682456,17.1974341 L39.7489316,28.9998332 L60.9999783,29 C62.6568325,29 63.9999783,30.3431458 63.9999783,32 C63.9999783,32.2433472 63.9703698,32.4857904 63.9118054,32.7219854 L57.2171748,59.7219854 C56.8853592,61.0602253 55.6841107,62 54.3053477,62 L28.0587563,62 C26.4039645,62 25.0616745,60.6600713 25.058761,59.005282 L25.0059316,29 L25.04805,29.0000844 C25.0980124,28.5736896 25.2409456,28.1513853 25.4837773,27.7632557 C25.5274384,27.6934701 25.5739604,27.6255157 25.6232246,27.559566 L37.4314553,11.7519741 C38.8546253,9.8467869 41.540397,9.43017759 43.4738565,10.8146939 Z M17.9793605,29 C19.6362147,29 20.9793605,30.3431458 20.9793605,32 L20.9793605,59 C20.9793605,60.6568542 19.6362147,62 17.9793605,62 L13.1302787,62 C11.5649282,62 10.2626843,60.7964478 10.1395715,59.2359462 L8.00945717,32.2359462 C7.87914767,30.5842243 9.11249615,29.1396023 10.7642181,29.0092928 C10.8427144,29.0031 10.9214241,29 11.0001643,29 L17.9793605,29 Z"/></svg>