<svg viewBox="0 0 1024 1024" version="1.1" xmlns="http://www.w3.org/2000/svg"><path  fill-rule="evenodd" d="M565.0907007999999 440.6664672C579.636432 455.7778816 579.636432 478.4445568 565.0907007999999 493.555968 550.5449696000001 508.6673824 528.727648 508.666496 514.1819168 493.555968 470.5455712 448.2226176 394.18196992 448.2226176 350.5456256 493.555968L205.0908608 644.6665504C183.27268864 667.3332288 172.36360256 697.5560512 172.36360256 731.5560672 172.36360256 765.55608 183.27268864 795.7780192 205.0908608 818.4446944 248.7272048 863.778048 325.09080736 863.778048 368.72715168 818.4446944L514.1819168 667.3332288C528.727648 652.2227008 550.5458208 652.2227008 565.0907007999999 667.3332288 579.6355808000001 682.4437536 579.636432 705.1113152 565.0907007999999 720.2227264L419.6367872 871.3333088C383.27288384 909.1113984 332.36409951999997 928 285.09110912 928 237.81811872 928 186.90933472 909.1113984 150.5454304 871.3333088 114.18152601599999 833.5552224 96 784.4446816 96 731.5560672 96 678.6674496 114.182378304 629.5560256 150.5454304 591.777936L296.0001952 440.6664672C368.72715168 365.11117728 488.7270976 365.11117728 565.0907007999999 440.6664672ZM873.4547584 153.0626752C946.1817472 229.14713376 946.1817472 354.68550944 873.4547584 434.573568L727.9999296 586.7407008C691.6368608 620.9784384 640.7272032 640 593.4550432 640 546.1820319999999 640 495.2732256 620.9784384 458.9093024 582.9371008 444.3635648 567.720032 444.3635648 544.8948736 458.9093024 529.6778016000001 473.4550432 514.4607328 495.2732256 514.4616255999999 509.818112 529.6778016000001 553.4544736 575.3281216 629.818112 575.3281216 673.4544736 529.6778016000001L818.9093024 377.5106688C862.5456672 331.8603504 862.5456672 251.97229312 818.9093024 206.3219744 775.2729408 160.67165599999998 698.9093024 160.67165599999998 655.2729408 206.3219744L509.818112 358.48910848C495.2732256 373.70617824 473.4550432 373.70617824 458.9093024 358.48910848 444.3635648 343.27203840000004 444.3635648 320.44777056 458.9093024 305.2307008L604.3641344 153.0626752C677.0911232 76.979108256 797.0911232 76.979108256 873.4547584 153.0626752Z"/></svg>