<!-- Generated by IcoMoon.io -->
<svg version="1.1" xmlns="http://www.w3.org/2000/svg" width="32" height="32" viewBox="0 0 32 32">
<title>atom-codecc</title>
<path d="M27.15 3h-22.3c-1.019 0-1.85 0.831-1.85 1.85v22.3c0 0.609 0.3 1.178 0.803 1.525s1.144 0.422 1.713 0.203l9.878-3.797c0.391-0.15 0.825-0.15 1.216 0l9.875 3.794c0.216 0.081 0.441 0.122 0.666 0.122 0.369 0 0.734-0.109 1.047-0.325 0.503-0.344 0.803-0.916 0.803-1.525v-22.297c0-1.019-0.831-1.85-1.85-1.85zM12.209 20.438c-1.469 0-2.85-0.572-3.891-1.609-2.144-2.144-2.144-5.634 0-7.778s5.634-2.144 7.778 0l-2.122 2.122c-0.975-0.975-2.559-0.975-3.534 0s-0.975 2.559 0 3.534c0.975 0.975 2.559 0.975 3.534 0l2.122 2.122c-1.037 1.038-2.419 1.609-3.887 1.609zM21.397 20.438c-1.469 0-2.85-0.572-3.891-1.609-2.144-2.144-2.144-5.634 0-7.778s5.634-2.144 7.778 0l-2.122 2.122c-0.975-0.975-2.559-0.975-3.534 0s-0.975 2.559 0 3.534c0.975 0.975 2.559 0.975 3.534 0l2.122 2.122c-1.038 1.038-2.419 1.609-3.887 1.609z"></path>
</svg>
