<?xml version="1.0" encoding="UTF-8"?>
<svg width="81px" height="76px" viewBox="0 0 81 76" version="1.1" xmlns="http://www.w3.org/2000/svg" xmlns:xlink="http://www.w3.org/1999/xlink">
    <title>异常/无权限_小</title>
    <defs>
        <linearGradient x1="51.9445544%" y1="48.8167803%" x2="52.6331696%" y2="51.2966802%" id="linearGradient-1">
            <stop stop-color="#FBFCFD" offset="0%"></stop>
            <stop stop-color="#F2F4F7" offset="100%"></stop>
        </linearGradient>
        <linearGradient x1="50%" y1="0%" x2="50%" y2="100%" id="linearGradient-2">
            <stop stop-color="#F2F3F5" offset="0%"></stop>
            <stop stop-color="#E5E8EB" offset="100%"></stop>
        </linearGradient>
        <linearGradient x1="50%" y1="1.64695946%" x2="50%" y2="98.3556799%" id="linearGradient-3">
            <stop stop-color="#E1E2E6" offset="0%"></stop>
            <stop stop-color="#EEF0F2" offset="100%"></stop>
        </linearGradient>
        <linearGradient x1="50%" y1="0%" x2="50%" y2="99.4061444%" id="linearGradient-4">
            <stop stop-color="#F3F4F5" offset="0%"></stop>
            <stop stop-color="#E6E8EB" offset="100%"></stop>
        </linearGradient>
        <linearGradient x1="50%" y1="1.32495777%" x2="50%" y2="100%" id="linearGradient-5">
            <stop stop-color="#EAEBED" offset="0%"></stop>
            <stop stop-color="#E7E9EB" offset="100%"></stop>
        </linearGradient>
    </defs>
    <g id="无权限申请" stroke="none" stroke-width="1" fill="none" fill-rule="evenodd">
        <g id="权限提示-单一系统" transform="translate(-645.000000, -191.000000)">
            <g id="异常/无权限_小" transform="translate(623.000000, 178.000000)">
                <g id="图标" transform="translate(22.000000, 13.000000)">
                    <path d="M11.7581315,64.0595892 C19.8535738,62.3095987 32.082859,61.7262686 40.0060579,62.1151554 C47.9292568,62.5040421 56.5414295,63.6707024 56.5414295,63.6707024 C56.5414295,63.6707024 58.7805944,62.6984855 58.608351,63.0873723 C58.4361075,63.476259 57.4026468,64.0595892 58.0916206,64.2540325 C58.7805944,64.4484759 65.842576,65.2262494 68.7707148,65.8095796 C71.6988535,66.3929097 73.0768011,66.9762399 73.0768011,66.9762399 C73.0768011,66.9762399 75.0001863,63.6707024 79.2381615,64.0595892 C79.2381615,64.3836927 77.6742963,64.7660124 77.1606394,65.6144037 C76.6469825,66.462795 75.4882095,66.9762399 75.4882095,66.9762399 C75.4882095,66.9762399 76.3921387,66.4907625 77.9534869,67.2192845 C79.514835,67.9478065 81,68.2272949 81,68.3373435 C81,68.4473922 80.3110262,70.087334 74.6269922,68.9206737 C72.3080536,68.3373435 71.1821231,71.4484376 59.9862986,72.2262111 C48.7904741,73.0039847 29.8436941,73.5873148 29.8436941,73.5873148 C29.8436941,73.5873148 30.7049114,74.7539751 32.427346,75.1428618 C32.427346,75.1428618 31.2216418,76.3095221 28.8102334,75.9206354 C26.3988251,75.5317486 23.8151733,73.5873148 23.8151733,73.5873148 C23.8151733,73.5873148 17.4421655,73.198428 15.0307571,72.8095413 C12.6193487,72.4206545 9.8634535,71.4484376 7.9687755,71.2539942 C6.0740975,71.0595509 -2.53807522,70.087334 0.73455041,67.9484568 C0.73455041,67.9484568 3.6626891,65.8095796 11.7581315,64.0595892 Z" id="投影" fill="url(#linearGradient-1)" fill-rule="nonzero"></path>
                    <path d="M11,67 L11,72 L16,72 L16,73 L11.166,72.999 L10,73 L10,67 L11,67 Z M66,67 L66,73 L64.834,72.999 L60,73 L60,72 L65,72 L65,67 L66,67 Z" id="形状结合" fill="#C4C6CC" fill-rule="nonzero"></path>
                    <g id="锁" transform="translate(14.000000, 4.000000)" fill-rule="nonzero">
                        <g id="编组" transform="translate(0.000000, 30.000000)">
                            <rect id="矩形" fill="url(#linearGradient-2)" x="3.55271368e-15" y="0" width="48" height="35" rx="3"></rect>
                            <path d="M26.0195967,20.5491522 L26.6510671,23.7058258 C26.813535,24.5181654 26.2867099,25.3084031 25.4743703,25.470871 C25.3775105,25.490243 25.2789741,25.5 25.1801961,25.5 L22.8198039,25.5 C21.9913768,25.5 21.3198039,24.8284271 21.3198039,24 C21.3198039,23.901222 21.3295609,23.8026856 21.3489369,23.7058055 L21.9804033,20.5491522 C20.484492,19.83972 19.5,18.3847738 19.5,16.75 C19.5,14.3953192 21.5216738,12.5 24,12.5 C26.4783262,12.5 28.5,14.3953192 28.5,16.75 C28.5,18.3847738 27.515508,19.83972 26.0195967,20.5491522 Z" id="形状结合" stroke="url(#linearGradient-3)" fill="#979BA5"></path>
                            <rect id="矩形" fill="#F8F9FA" x="3.55271368e-15" y="0" width="48" height="5" rx="2.5"></rect>
                        </g>
                        <g id="编组-2" transform="translate(5.000000, 0.000000)">
                            <path d="M33.25,19.3170732 C33.25,11.3156795 26.8700577,4.8292683 19,4.8292683 C11.1299423,4.8292683 4.75,11.3156795 4.75,19.3170732 L4.75,32.195122 C4.75,32.6396438 3.6866763,33 2.375,33 C1.1289075,33 0.1069533,32.6747786 0.0078731,32.2611345 L0,32.195122 L0,19.3170732 C0,8.6485482 8.5065898,0 19,0 C29.4934102,0 38,8.6485482 38,19.3170732 L38,19.3170732 L38,32.195122 C38,32.6396438 36.9366763,33 35.625,33 C34.3133237,33 33.25,32.6396438 33.25,32.195122 L33.25,32.195122 L33.25,19.3170732 Z" id="形状结合" fill="url(#linearGradient-4)"></path>
                            <path d="M3.5,31.5 L4.1,31.5 L4.1,19.5555556 C4.1,11.5442253 10.7740603,5.0555556 19,5.0555556 C27.2259397,5.0555556 33.9,11.5442253 33.9,19.5555556 L33.9,31.5 L34.5,31.5 L34.5,19.5555556 C34.5,11.2438032 27.5635167,4.5 19,4.5 C10.4364833,4.5 3.5,11.2438032 3.5,19.5555556 L3.5,31.5 Z" id="形状结合" stroke="url(#linearGradient-5)" fill="#EBEDF0"></path>
                            <path d="M2.5,31 C3.8149637,31 4.8928083,30.5939091 4.9924784,30.0781494 L5,30 L5,32 C5,32.5522847 3.8807119,33 2.5,33 C1.1850363,33 0.1071917,32.5939091 0.0075216,32.0781494 L0,32 L0,30 C0,30.5522847 1.1192881,31 2.5,31 Z" id="形状结合" fill="#DCDEE0"></path>
                            <path d="M35.5,31 C36.8149637,31 37.8928083,30.5939091 37.9924784,30.0781494 L38,30 L38,32 C38,32.5522847 36.8807119,33 35.5,33 C34.1850363,33 33.1071917,32.5939091 33.0075216,32.0781494 L33,32 L33,30 C33,30.5522847 34.1192881,31 35.5,31 Z" id="形状结合备份-3" fill="#DCDEE0"></path>
                        </g>
                    </g>
                    <circle id="椭圆形" fill="#C4C6CC" fill-rule="nonzero" cx="47.5" cy="1.5" r="1"></circle>
                    <circle id="椭圆形" fill="#C4C6CC" fill-rule="nonzero" cx="68" cy="43" r="1"></circle>
                    <circle id="椭圆形" fill="#C4C6CC" fill-rule="nonzero" cx="11" cy="29" r="1"></circle>
                </g>
            </g>
        </g>
    </g>
</svg>