<!-- Generated by IcoMoon.io -->
<svg version="1.1" xmlns="http://www.w3.org/2000/svg" width="32" height="32" viewBox="0 0 32 32">
<title>macos</title>
<path d="M24.904 20.376c0.768 1.080 1.64 1.776 2.632 2.088-0.432 1.32-1.112 2.688-2.040 4.12-1.44 2.152-2.856 3.232-4.256 3.232-0.52 0-1.296-0.176-2.32-0.528-0.952-0.352-1.784-0.528-2.488-0.528-0.712 0-1.496 0.184-2.352 0.56-0.896 0.352-1.632 0.528-2.208 0.528-1.68 0-3.328-1.424-4.952-4.264-1.624-2.8-2.432-5.56-2.432-8.272 0-2.504 0.616-4.56 1.848-6.152 1.272-1.6 2.84-2.392 4.704-2.392 0.408 0 0.864 0.048 1.368 0.152s1.024 0.296 1.568 0.568c0.576 0.312 1.056 0.536 1.424 0.656 0.376 0.12 0.664 0.184 0.864 0.184 0.24 0 0.616-0.056 1.12-0.168s1.008-0.312 1.512-0.616c0.544-0.296 1.008-0.52 1.4-0.672s0.792-0.224 1.2-0.224c1.304 0 2.48 0.352 3.528 1.056 0.56 0.368 1.128 0.92 1.704 1.64-0.856 0.744-1.48 1.392-1.872 1.952-0.728 1.040-1.088 2.176-1.088 3.4-0.016 1.352 0.368 2.584 1.136 3.68v0zM19.272 7.368c-0.656 0.616-1.248 1.008-1.792 1.2-0.184 0.056-0.424 0.104-0.712 0.152s-0.624 0.088-0.992 0.128c0.016-1.632 0.448-3.048 1.288-4.232 0.84-1.192 2.224-2.008 4.144-2.448 0.040 0.184 0.064 0.312 0.080 0.392v0.304c0 0.672-0.16 1.424-0.472 2.256-0.336 0.808-0.848 1.56-1.544 2.248v0z"></path>
</svg>
