<?xml version="1.0" encoding="utf-8"?>
<!-- Generator: Adobe Illustrator 22.1.0, SVG Export Plug-In . SVG Version: 6.00 Build 0)  -->
<svg version="1.1" xmlns="http://www.w3.org/2000/svg" xmlns:xlink="http://www.w3.org/1999/xlink" x="0px" y="0px"
	 viewBox="0 0 64 64" style="enable-background:new 0 0 64 64;" xml:space="preserve">
<g id="辅助线">
</g>
<g id="小">
	<g id="圆">
	</g>
	<g>
		<path class="st0" d="M48.1,49.6h-1.4V49c0-0.9,0.2-1.9,0.6-2.7l0.3-0.6c0.6-1.2,0.9-2.6,0.9-4V31.5c0-1.6-0.9-3-2.2-3.7
			c-1.2-0.6-2.6-0.7-3.8-0.1c-0.5-1-1.4-1.7-2.4-2.1c-1-0.3-2.2-0.3-3.2,0.2c-0.5-0.9-1.3-1.7-2.3-2c-0.1,0-0.2,0-0.3-0.1
			c3.3-2.5,4.9-6.8,4-10.9c-1.1-5.1-5.6-8.8-10.8-8.8c-5.2,0-9.7,3.7-10.8,8.8c-1.1,5.1,1.6,10.3,6.4,12.3l0.1,0v6.5l-1.1-1.8
			c-0.7-1.2-1.8-2.1-3.1-2.4c-1.3-0.4-2.7-0.2-3.9,0.5l-0.9,0.5c-1.1,0.6-1.5,2-0.9,3.1l7.4,14.7c0.4,0.8,0.6,1.8,0.6,2.7v0.5h-1.4
			c-0.8,0-1.4,0.6-1.4,1.4v7.5c0,0.8,0.6,1.4,1.4,1.4h28c0.8,0,1.4-0.6,1.4-1.4V51C49.5,50.2,48.9,49.6,48.1,49.6z M19.7,15.1
			c0-3.8,2.7-7.1,6.5-7.8c3.8-0.7,7.5,1.5,8.8,5.1c1.3,3.5-0.1,7.5-3.3,9.4l0-6.3c-0.1-1-0.5-2-1.2-2.7c-0.9-0.9-2.1-1.3-3.3-1.2
			c-2.2,0.2-4,2.1-3.9,4.4v5.8C21.1,20.2,19.7,17.8,19.7,15.1z M16.2,30.8l0.5-0.3c0.5-0.3,1.1-0.4,1.7-0.2c0.6,0.2,1.1,0.5,1.4,1.1
			l3.7,6.5c0.3,0.6,1,0.8,1.6,0.7c0.6-0.2,1.1-0.7,1.1-1.4V15.9c0-0.8,0.5-1.4,1.3-1.5c0.4,0,0.8,0.1,1.1,0.4c0.3,0.3,0.4,0.6,0.4,1
			v18.6c0,0.8,0.6,1.4,1.4,1.4c0.8,0,1.4-0.6,1.4-1.4v-6.5c0-0.8,0.6-1.4,1.4-1.4s1.4,0.6,1.4,1.4v6.5c0,0.8,0.6,1.4,1.4,1.4
			s1.4-0.6,1.4-1.4v-4.7c0-0.8,0.6-1.4,1.4-1.4s1.4,0.6,1.4,1.4v4.7c0,0.8,0.6,1.4,1.4,1.4s1.4-0.6,1.4-1.4v-2.8
			c0-0.8,0.6-1.4,1.4-1.4s1.4,0.6,1.4,1.4v10.2c0,0.9-0.2,1.9-0.6,2.7l-0.3,0.6c-0.6,1.2-0.9,2.6-0.9,4v0.5H24.3v-0.5
			c0-1.4-0.3-2.8-0.9-4L16.2,30.8z M46.6,57H21.5v-4.6h25.1V57z"/>
		<path class="st0" d="M41.8,55.5h2c0.4,0,0.8-0.3,0.8-0.8s-0.3-0.8-0.8-0.8h-2c-0.4,0-0.8,0.3-0.8,0.8S41.3,55.5,41.8,55.5z"/>
	</g>
	<g>
	</g>
	<g>
	</g>
	<g>
	</g>
	<g>
	</g>
	<g>
	</g>
	<g>
	</g>
</g>
</svg>
