<?xml version="1.0" encoding="UTF-8"?>
<svg xmlns="http://www.w3.org/2000/svg" xmlns:xlink="http://www.w3.org/1999/xlink" width="12px" height="15px" viewBox="0 0 12 15" version="1.1">
  <title>Icon/2 线性图标/手动触发</title>
  <defs>
    <path d="M9.09530606,13.9850895 L5.18281094,13.9850895 C4.6505466,13.9561403 4.14714928,13.7338881 3.76718594,13.3600322 L0.395306059,9.99440722 C-0.146781478,9.40714094 -0.129257214,8.49685264 0.435031602,7.93088558 C0.999320418,7.36491851 1.90955266,7.34469107 2.49842618,7.88503222 L2.49842618,3.98503222 C2.47332332,3.43677948 2.75151951,2.91908071 3.22257737,2.63745024 C3.69363523,2.35581976 4.28134701,2.35581976 4.75240487,2.63745024 C5.22346272,2.91908071 5.50165892,3.43677948 5.47655606,3.98503222 L5.47655606,6.14441699 L8.67031094,6.90065722 C9.80360724,7.16695646 10.6030994,8.18025836 10.5984466,9.34441211 L10.5984466,12.4944121 C10.5984466,12.8919249 10.4396785,13.2729772 10.1574238,13.5528856 C9.87516912,13.8327939 9.4928049,13.9883692 9.09530606,13.9850895 Z M1.44842618,8.39128222 C1.22772248,8.39411083 1.02982699,8.52788198 0.944935795,8.73162595 C0.860044596,8.93536992 0.904409857,9.17008053 1.05781094,9.32878222 L4.42655606,12.7006621 C4.63126268,12.897465 4.89687773,13.0187026 5.17967618,13.044417 L9.09530606,13.044417 C9.40078856,13.044417 9.64845832,12.7967745 9.64845832,12.491292 L9.64845832,9.34129199 C9.65271999,8.61095722 9.15050987,7.9750799 8.43905606,7.81003222 L4.90156094,6.96941699 C4.69062754,6.91880694 4.54197187,6.73008199 4.54217618,6.51316211 L4.54217618,3.98503222 C4.55779113,3.77805376 4.45621274,3.57975502 4.27911605,3.47149295 C4.10201937,3.36323088 3.87921775,3.36323088 3.70212107,3.47149295 C3.52502438,3.57975502 3.42344599,3.77805376 3.43906094,3.98503222 L3.43906094,9.01628711 C3.43889626,9.20575404 3.32468873,9.3764914 3.14963401,9.44897304 C2.97457928,9.52145468 2.7731039,9.48142626 2.63905118,9.34753222 L1.84217618,8.55065722 C1.73756463,8.446947 1.59572292,8.38953488 1.44842618,8.39128222 Z M6.77030606,5.54441699 C6.6054638,5.54427232 6.45281321,5.45755257 6.36828566,5.31603196 C6.28375811,5.17451134 6.27977891,4.99899301 6.35780606,4.85378711 C6.95385573,3.73618469 6.67788241,2.35320655 5.69853038,1.54997559 C4.71917836,0.746744624 3.30893376,0.746744624 2.32958174,1.54997559 C1.35022971,2.35320655 1.07425639,3.73618469 1.67030606,4.85378711 C1.78178823,5.00026191 1.79722246,5.19842781 1.70976357,5.36039721 C1.62230469,5.52236661 1.44814293,5.61815606 1.26451991,5.60528243 C1.08089689,5.59240881 0.921804558,5.47325526 0.857801176,5.30066699 C0.0417365951,3.78870193 0.410037768,1.910598 1.73670177,0.818827716 C3.06336578,-0.272942572 4.97724146,-0.272942572 6.30390546,0.818827716 C7.63056947,1.910598 7.99887064,3.78870193 7.18280606,5.30066699 C7.10035425,5.45136095 6.94208135,5.54488585 6.77030606,5.54441699 Z" id="path-1"></path>
  </defs>
  <g id="流水线组" stroke="none" stroke-width="1" fill="currentColor" fill-rule="evenodd">
    <g id="流水线列表-交互说明" transform="translate(-870.000000, -1141.000000)">
      <g id="编组-3备份-6" transform="translate(50.000000, 847.000000)">
        <g id="Table/42px样例" transform="translate(304.000000, 220.000000)">
          <g id="编组-5" transform="translate(466.000000, 0.000000)">
            <g id="Table/元件/内容/基础备份" transform="translate(0.000000, 42.000000)">
              <g id="编组-6" transform="translate(48.000000, 30.000000)">
                <g id="Icon/2-线性图标/手动触发" transform="translate(2.767194, 2.989963)">
                  <mask id="mask-2" fill="white">
                    <use xlink:href="#path-1"></use>
                  </mask>
                  <use id="形状" fill-rule="nonzero" xlink:href="#path-1"></use>
                  <rect id="矩形" mask="url(#mask-2)" x="-2.76719394" y="-0.989962894" width="16" height="16"></rect>
                  <rect id="codesign_placeholder_name" mask="url(#mask-2)" x="-2.76719394" y="-0.989962894" width="16" height="16"></rect>
                </g>
              </g>
            </g>
          </g>
        </g>
      </g>
    </g>
  </g>
</svg>
