<?xml version="1.0" encoding="utf-8"?>
<!-- Generator: Adobe Illustrator 22.1.0, SVG Export Plug-In . SVG Version: 6.00 Build 0)  -->
<svg version="1.1" id="图层_1" xmlns="http://www.w3.org/2000/svg" xmlns:xlink="http://www.w3.org/1999/xlink" x="0px" y="0px"
	 viewBox="0 0 32 32" style="enable-background:new 0 0 32 32;" xml:space="preserve">
<style type="text/css">
	.st0{fill:#737987;}
</style>
<path id="path-1_1_" class="st0" d="M16,6c7.7,0,14,4.5,14,10s-6.3,10-14,10S2,21.5,2,16S8.3,6,16,6z M16,11c-2.8,0-5,2.2-5,5
	s2.2,5,5,5s5-2.2,5-5S18.8,11,16,11z M16,13c1.7,0,3,1.3,3,3s-1.3,3-3,3s-3-1.3-3-3S14.3,13,16,13z"/>
</svg>
