<?xml version="1.0" encoding="utf-8"?>
<!-- Generator: Adobe Illustrator 22.1.0, SVG Export Plug-In . SVG Version: 6.00 Build 0)  -->
<svg version="1.1" id="图层_1" xmlns="http://www.w3.org/2000/svg" xmlns:xlink="http://www.w3.org/1999/xlink" x="0px" y="0px"
	 viewBox="0 0 32 32" style="enable-background:new 0 0 32 32;" xml:space="preserve">
<style type="text/css">
	.st0{fill:#737987;}
</style>
<path id="path-1_1_" class="st0" d="M25,8.6l1.8-1.8c0.2-0.2,0.3-0.4,0.3-0.7c0-0.6-0.5-1.1-1-1c-0.3,0-0.5,0.1-0.7,0.3l-2.3,2.3
	c-2.1-0.9-4.6-1.4-7.2-1.4c-7.7,0-14,4.5-14,10c0,3.1,1.9,5.8,5,7.6l-1.8,1.8c-0.2,0.2-0.3,0.4-0.3,0.7c0,0.6,0.4,1,1,1
	c0.3,0,0.5-0.1,0.7-0.3l2.3-2.3c2.1,0.9,4.6,1.4,7.2,1.4c7.7,0,14-4.5,14-10C30,13.1,28.1,10.4,25,8.6z M13,16.2c0-1.7,1.3-3,3-3
	c0.5,0,0.9,0.1,1.3,0.3l-4,4C13.1,17.1,13,16.7,13,16.2z M24.7,21.6c-1.1,0.8-2.4,1.4-3.9,1.9c-1.5,0.5-3.2,0.7-4.9,0.7
	s-3.3-0.2-4.9-0.7c-0.3-0.1-0.5-0.2-0.8-0.3l2.9-2.9c0.8,0.5,1.7,0.8,2.8,0.8c2.8,0,5-2.2,5-5c0-1-0.3-2-0.8-2.8l3.4-3.4
	c0.4,0.2,0.8,0.5,1.2,0.7c2.1,1.5,3.3,3.4,3.3,5.4S26.8,20.1,24.7,21.6z"/>
</svg>
