

<svg class="bk-icon" style="width: 1em; height: 1em;vertical-align: middle;fill: currentColor;overflow: hidden;" viewBox="0 0 1024 1024" version="1.1" xmlns="http://www.w3.org/2000/svg">


















<g>
	<path d="M512,128c51.9,0,102.2,10.1,149.5,30.2c45.7,19.3,86.8,47,122.1,82.3s63,76.4,82.3,122.1
		c20,47.3,30.2,97.6,30.2,149.5S886,614.3,865.9,661.6c-19.3,45.7-47,86.8-82.3,122.1s-76.4,63-122.1,82.3
		c-47.3,20-97.6,30.2-149.5,30.2S409.8,886.1,362.5,866c-45.7-19.3-86.8-47-122.1-82.3s-63-76.4-82.3-122.1
		c-20-47.3-30.2-97.6-30.2-149.5s10.1-102.2,30.2-149.5c19.3-45.7,47-86.8,82.3-122.1s76.4-63,122.1-82.3
		C409.8,138.1,460.1,128,512,128 M512,64C264.6,64,64,264.6,64,512s200.6,448,448,448s448-200.6,448-448S759.4,64,512,64L512,64z"/>
	<rect x="320" y="480" width="384" height="64"/>
</g>


































































</svg>
