<svg xmlns="http://www.w3.org/2000/svg" viewBox="0 0 16 17" class="design-iconfont">
  <path d="M8,3 C8.2765,3 8.5,2.776 8.5,2.5 L8.5,2 C8.5,1.724 8.2765,1.5 8,1.5 C7.7235,1.5 7.5,1.724 7.5,2 L7.5,2.5 C7.5,2.776 7.7235,3 8,3 M2,8 L1.5,8 C1.2235,8 1,8.224 1,8.5 C1,8.776 1.2235,9 1.5,9 L2,9 C2.2765,9 2.5,8.776 2.5,8.5 C2.5,8.224 2.2765,8 2,8 M14.5,8 L14,8 C13.7235,8 13.5,8.224 13.5,8.5 C13.5,8.776 13.7235,9 14,9 L14.5,9 C14.7765,9 15,8.776 15,8.5 C15,8.224 14.7765,8 14.5,8 M8,3.5 C10.761,3.5 13,5.7385 13,8.5 C13,9.885 12.4365,11.1385 11.5265,12.044 L10.5,13.054 L10.5,13.5 C10.5,14.052 10.052,14.5 9.5,14.5 L6.5,14.5 C5.9475,14.5 5.5,14.052 5.5,13.5 L5.5,13.034 L4.488,12.0565 C3.57,11.15 3,9.892 3,8.5 C3,5.7385 5.239,3.5 8,3.5 Z M6.6465,8.1465 C6.451,8.342 6.451,8.658 6.6465,8.8535 L7.5,9.707 L7.5,11 C7.5,11.276 7.7235,11.5 8,11.5 C8.2765,11.5 8.5,11.276 8.5,11 L8.5,9.707 L9.3535,8.8535 C9.549,8.658 9.549,8.342 9.3535,8.1465 C9.158,7.951 8.842,7.951 8.6465,8.1465 L8,8.793 L7.3535,8.1465 C7.158,7.951 6.842,7.951 6.6465,8.1465 Z M3.7534,3.5462 L4.1069,3.8997 C4.3024,4.0952 4.3024,4.4117 4.1069,4.6072 C3.9114,4.8022 3.5954,4.8022 3.3999,4.6072 L3.0464,4.2532 C2.8509,4.0582 2.8509,3.7417 3.0464,3.5462 C3.2419,3.3512 3.5579,3.3512 3.7534,3.5462 Z M12.25,3.5464 C12.4455,3.3509 12.7615,3.3509 12.957,3.5464 C13.1525,3.7419 13.1525,4.0584 12.957,4.2534 L12.6035,4.6074 C12.408,4.8024 12.092,4.8024 11.8965,4.6074 C11.701,4.4119 11.701,4.0954 11.8965,3.8999 Z" fill="#979BA5" transform="translate(0 .3821)" fill-rule="evenodd"/>
</svg>
