<?xml version="1.0" standalone="no"?><!DOCTYPE svg PUBLIC "-//W3C//DTD SVG 1.1//EN" "http://www.w3.org/Graphics/SVG/1.1/DTD/svg11.dtd"><svg t="1584088525239" class="icon" viewBox="0 0 1024 1024" version="1.1" xmlns="http://www.w3.org/2000/svg" p-id="2230" xmlns:xlink="http://www.w3.org/1999/xlink" width="200" height="200"><defs><style type="text/css"></style></defs><path d="M208.016 416C154.992 416 112 458.992 112 512.032c0 53.024 42.992 96.016 96.016 96.016s96.016-42.992 96.016-96.016C304.016 458.992 261.04 416 208.016 416zM816.016 416C763.008 416 720 458.992 720 512.032c0 53.024 43.008 96.016 96.016 96.016s96.016-42.992 96.016-96.016C912.016 458.992 869.024 416 816.016 416zM512.016 416C458.992 416 416 458.992 416 512.032c0 53.024 42.976 96.016 96.016 96.016 53.04 0 96.016-42.992 96.016-96.016C608.016 458.992 565.024 416 512.016 416z" p-id="2231" fill="#e6e6e6"></path></svg>