<svg xmlns="http://www.w3.org/2000/svg" viewBox="0 0 72 72" class="design-iconfont">
  <defs>
    <linearGradient x1="50%" y1="0%" x2="50%" y2="100%" id="zoh63302i__pcreu1yloa">
      <stop stop-color="#EAEBF0" offset="0%"/>
      <stop stop-color="#FAFBFD" offset="100%"/>
    </linearGradient>
  </defs>
  <path d="M62.1185589,17.6651551 L37.7256005,2.52338902 C36.5986409,1.82553699 35.1613591,1.82553699 34.0343995,2.52338902 L9.64144112,17.6651551 C8.62064441,18.2980907 8,19.4097852 8,20.6026253 L8,51.3892601 C8,52.5821002 8.62064441,53.6937947 9.64144112,54.3267303 L34.0343995,69.476611 C35.1613591,70.174463 36.5986409,70.174463 37.7256005,69.476611 L62.1185589,54.3267303 C63.1393556,53.6937947 63.76,52.5821002 63.76,51.3892601 L63.76,20.6026253 C63.7518336,19.4097852 63.1393556,18.2980907 62.1185589,17.6651551 Z M48.5133802,38.2436754 L32.8339426,47.2427208 C31.094505,48.2408115 28.9140832,46.9911695 28.9140832,44.9949881 L28.9140832,26.9968974 C28.9140832,25.000716 31.094505,23.751074 32.8339426,24.7491647 L48.5133802,33.7400955 C50.2528178,34.7463007 50.2528178,37.2455847 48.5133802,38.2436754 Z" fill="url(#zoh63302i__pcreu1yloa)" fill-rule="nonzero"/>
</svg>
