<svg viewBox="0 0 1024 1024" version="1.1" xmlns="http://www.w3.org/2000/svg"><path  d="M579.84 226.24a4.8 4.8 0 0 1 0 4.16l-74.56 160L463.04 480H825.28l-80 320h-320l0-369.6 154.56-204.16M241.92 480V800h-22.4l-25.6-320h48M579.52 160a60.48 60.48 0 0 0-48 23.68l-161.92 214.08-1.92 2.88a39.68 39.68 0 0 0-5.76 16.64h0l0 406.08A40.96 40.96 0 0 0 403.2 864H763.2a40.96 40.96 0 0 0 39.68-32L896 467.52a32 32 0 0 0 0-9.6A40.96 40.96 0 0 0 854.72 416h-291.2l74.24-160a69.76 69.76 0 0 0-23.36-86.4A58.88 58.88 0 0 0 579.52 160ZM264.96 416H165.76A41.28 41.28 0 0 0 128 461.12l29.44 365.44A40.96 40.96 0 0 0 198.4 864H264.96a40.64 40.64 0 0 0 40.96-40.64V457.92A40.64 40.64 0 0 0 264.96 416Z"/></svg>