<svg viewBox="0 0 1024 1024" version="1.1" xmlns="http://www.w3.org/2000/svg"><path  fill-rule="evenodd" d="M585.1967104 549.2137728C583.5595328 547.5756192 581.3384576 546.6552352 579.022448 546.6552352 576.7064384 546.6552352 574.4853632 547.5756192 572.8481824 549.2137728L499.8215456 622.2404128 400.820416 523.2392832 474.0599616 449.9997408C475.698112 448.36256 476.6184992 446.1414848 476.6184992 443.8254752 476.6184992 441.5094656 475.698112 439.2883904 474.0599616 437.6512128L434.033696 397.8378528C432.3965184 396.1997024 430.1754432 395.2793152 427.8594336 395.2793152 425.543424 395.2793152 423.3223488 396.1997024 421.685168 397.8378528L348.6585312 470.8644928 301.3934752 423.8123456C299.7996288 422.1108992 297.54927808 421.1797216 295.2192112 421.2574752 292.90830368 421.2792544 290.6955664 422.1948704 289.04494752 423.8123456L177.48238496 535.5878112C102.85706464 609.6194272 91.33101888 726.2201216 150.01755584 813.4296896L66.55853984 896.888704C64.92038656 898.5258848 64 900.74696 64 903.0629696 64 905.3789792 64.92038656 907.6000544 66.55853984 909.237232L112.97197216 955.6506656C114.67516096 957.3199328 116.97457952 958.2396992 119.35914176 958.2064512 121.6700496 958.1837568 123.88278656 957.2681408 125.53340576 955.6506656L209.84404448 873.0432736C296.85604896 931.9504928 413.4383584 920.7836032 487.6859232 846.4300672L599.4613888 734.867504C602.6845472 731.3006336 602.6845472 725.8729376 599.4613888 722.3060704L552.196336 675.25392 625.2229728 602.22728C628.6590848 598.7450848 628.6590848 593.1480448 625.2229728 589.6658464L585.1967104 549.2137728ZM956.5041696 112.97009024L910.0907392 66.55665792C908.3875488 64.88739104 906.0881312 63.96762336 903.703568 64.00087104 901.3926592 64.02356736 899.1799232 64.93918272 897.5293056 66.55665792L814.070288 149.1640512C727.2814976 90.84967584 611.3800384 101.99404672 537.2929376 175.77725792L425.517472 287.33982016C422.2943136 290.90668896 422.2943136 296.33438528 425.517472 299.90125376L723.5853856 597.969168C725.2574016 599.5282016 727.4742944 600.3690912 729.7596512 600.3139392 732.0936896 600.2828256 734.3477024 599.4563552 736.1468192 597.969168L847.7093824 486.1936992C921.492592 412.1066016 932.6369632 296.2051424 874.3225888 209.41635104L957.7816032 125.95733504C959.411536 124.09831232 960.1990368 121.64741472 959.9570208 119.18691264 959.7150048 116.72641056 958.465072 114.47591648 956.5041696 112.97009024Z"/></svg>