<svg viewBox="0 0 1024 1024" version="1.1" xmlns="http://www.w3.org/2000/svg"><path  d="M567.04 540.64a6.56 6.56 0 0 0-9.28 0l-54.88 54.88-74.4-74.4 55.04-55.04a6.56 6.56 0 0 0 0-9.28l-30.08-29.92a6.56 6.56 0 0 0-9.28 0l-54.88 54.88L353.76 446.4a6.08 6.08 0 0 0-4.64-1.92 6.72 6.72 0 0 0-4.64 1.92l-83.84 84A164.64 164.64 0 0 0 240 739.2l-62.72 62.72a6.56 6.56 0 0 0 0 9.28l34.88 34.88a6.72 6.72 0 0 0 4.8 1.92 6.72 6.72 0 0 0 4.64-1.92L284.96 784a164.64 164.64 0 0 0 208.8-20l84-83.84a7.04 7.04 0 0 0 0-9.44l-35.52-35.36 54.88-54.88a6.72 6.72 0 0 0 0-9.44ZM846.08 212.8L811.2 177.92a6.72 6.72 0 0 0-4.8-1.92 6.72 6.72 0 0 0-4.64 1.92L739.04 240a164.64 164.64 0 0 0-208 20l-84 83.84a7.04 7.04 0 0 0 0 9.44l224 224a6.56 6.56 0 0 0 4.64 1.76 7.68 7.68 0 0 0 4.8-1.76l83.84-84a164.64 164.64 0 0 0 20-208l62.72-62.72A6.72 6.72 0 0 0 846.08 212.8Z"/></svg>