<!-- Generated by IcoMoon.io -->
<svg version="1.1" xmlns="http://www.w3.org/2000/svg" width="32" height="32" viewBox="0 0 32 32">
<title>order</title>
<path d="M25.82 4h-2.82c0-1.1-0.98-2-2.2-2h-0.2c0-1.1-0.98-2-2.2-2h-4.8c-1.22 0-2.2 0.9-2.2 2h-0.2c-1.22 0-2.2 0.9-2.2 2h-2.82c-1.76 0-3.18 1.34-3.18 3v22c0 1.66 1.42 3 3.18 3h19.64c1.76 0 3.18-1.34 3.18-3v-22c0-1.66-1.42-3-3.18-3zM11.2 4h1.2c0.56 0 1-0.44 1-1l-0.020-0.92c0.020-0.020 0.080-0.080 0.22-0.080h4.8c0.12 0 0.2 0.040 0.2 0.020v0.98c0 0.56 0.44 1 1 1h1.2c0.12 0 0.2 0.040 0.2 0.020v0.96c0 0 0 0.020 0 0.020s0 0.020 0 0.020l0.020 2.9c-0.020 0.020-0.080 0.080-0.22 0.080h-9.6c-0.080 0-0.16-0.020-0.18-0.020s-0.020 0-0.020 0.020l-0.020-2.94c0-0.020 0.020-0.040 0.020-0.060s-0.020-0.040-0.020-0.080v-0.86c0.020 0 0.080-0.060 0.22-0.060zM27 29c0 0.56-0.52 1-1.18 1h-19.64c-0.66 0-1.18-0.44-1.18-1v-22c0-0.56 0.54-1 1.18-1h2.82v2c0 1.1 0.98 2 2.2 2h9.6c1.22 0 2.2-0.9 2.2-2v-2h2.82c0.66 0 1.18 0.44 1.18 1v22z"></path>
<path d="M22 16h-12c-0.56 0-1 0.44-1 1s0.44 1 1 1h12c0.56 0 1-0.44 1-1s-0.44-1-1-1z"></path>
<path d="M22 20h-12c-0.56 0-1 0.44-1 1s0.44 1 1 1h12c0.56 0 1-0.44 1-1s-0.44-1-1-1z"></path>
<path d="M22 24h-12c-0.56 0-1 0.44-1 1s0.44 1 1 1h12c0.56 0 1-0.44 1-1s-0.44-1-1-1z"></path>
</svg>
