<svg fill="none" xmlns="http://www.w3.org/2000/svg" viewBox="0 0 16 16" class="design-iconfont">
  <path d="M8.07031 1.04883C8.33218 1.04884 8.54395 1.26157 8.54395 1.52344V2.16895C11.3654 2.42957 13.6114 4.69703 13.8398 7.52734H14.4805C14.742 7.52752 14.9539 7.73941 14.9541 8.00098V8.08496C14.954 8.3466 14.7421 8.55842 14.4805 8.55859H13.8359C13.5716 11.3511 11.3383 13.5778 8.54395 13.8359V14.4814C8.54384 14.7432 8.33211 14.9551 8.07031 14.9551H7.9873C7.7255 14.9551 7.5128 14.7432 7.5127 14.4814V13.8389C4.69327 13.6044 2.43519 11.369 2.16895 8.55859H1.52344C1.26165 8.55859 1.04898 8.34671 1.04883 8.08496V8.00098C1.04906 7.7393 1.26171 7.52734 1.52344 7.52734H2.16406C2.39406 4.67899 4.66626 2.4027 7.5127 2.16602V1.52344C7.5127 1.26156 7.72543 1.04883 7.9873 1.04883H8.07031ZM7.5127 3.11426C5.18868 3.34491 3.33749 5.20155 3.11328 7.52734H3.625C3.88678 7.52735 4.09849 7.73923 4.09863 8.00098V8.08496C4.0984 8.34663 3.88672 8.55858 3.625 8.55859H3.12207C3.38144 10.846 5.21607 12.6627 7.5127 12.8906V12.3789C7.51278 12.1171 7.72548 11.9053 7.9873 11.9053H8.07031C8.33213 11.9053 8.54386 12.1171 8.54395 12.3789V12.8828C10.8149 12.6317 12.6222 10.8272 12.8799 8.55859H12.3779C12.1162 8.5585 11.9044 8.34665 11.9043 8.08496V8.00098C11.9045 7.73936 12.1163 7.52744 12.3779 7.52734H12.8916C12.6693 5.21998 10.8432 3.37533 8.54492 3.12109V3.625C8.54492 3.88672 8.33219 4.09863 8.07031 4.09863H7.9873C7.72543 4.09863 7.5127 3.88687 7.5127 3.625V3.11426ZM8.00195 6.05371C9.07627 6.05393 9.95015 6.92759 9.9502 8.00195C9.9502 9.07635 9.0763 9.95095 8.00195 9.95117C6.92742 9.95117 6.05273 9.07648 6.05273 8.00195C6.05278 6.92746 6.92745 6.05371 8.00195 6.05371ZM8.00195 7.00098C7.45026 7.00098 7.00102 7.45027 7.00098 8.00195C7.00098 8.55367 7.45023 9.00293 8.00195 9.00293C8.55349 9.00271 9.00195 8.55354 9.00195 8.00195C9.00191 7.45041 8.55346 7.0012 8.00195 7.00098Z" fill="#3A84FF"/>
</svg>
