<svg xmlns="http://www.w3.org/2000/svg" viewBox="0 0 32 32" class="design-iconfont">
  <path d="M16,3 L27.5,9.5 L27.5,22.5 L16,29 L4.5,22.5 L4.5,9.5 L16,3 Z M11.8671875,11.4111328 L8.22363281,11.4111328 L8.22363281,22 L10.4794922,22 L10.4794922,18.3085938 L11.9136031,18.3088567 C12.987452,18.2857197 13.8914138,17.9723182 14.6254883,17.3686523 C15.4207357,16.714681 15.8183594,15.8453776 15.8183594,14.7607422 C15.8183594,12.5997039 14.584903,11.4843293 12.1179903,11.4146184 L11.8671875,11.4111328 Z M23.1464844,11.4111328 L20.9453125,11.4111328 L16.4746094,18.28125 L16.4746094,19.6894531 L21.1298828,19.6894531 L21.1298828,22 L23.1464844,22 L23.1464844,19.6894531 L24.4316406,19.6894531 L24.4316406,18.1035156 L23.1464844,18.1035156 L23.1464844,11.4111328 Z M21.1572266,13.6123047 C21.1435547,13.8994141 21.1350098,14.1621704 21.1315918,14.4005737 L21.1298828,14.6308594 L21.1298828,18.1035156 L18.3408203,18.1035156 L20.7197266,14.4394531 C20.8336589,14.2617188 20.9202474,14.0999349 20.9794922,13.9541016 C21.0159505,13.8599175 21.0483579,13.7778863 21.0767144,13.7080078 L21.1162109,13.6123047 L21.1572266,13.6123047 Z M11.4775391,13.1611328 C12.7900391,13.1611328 13.4462891,13.7239583 13.4462891,14.8496094 C13.4462891,16.0026042 12.7832031,16.5791016 11.4570312,16.5791016 L10.4794922,16.5791016 L10.4794922,13.1611328 L11.4775391,13.1611328 Z" fill="#313238" fill-rule="evenodd"/>
</svg>
