<?xml version="1.0" encoding="UTF-8"?>
<svg width="20px" height="20px" viewBox="0 0 20 20" version="1.1" xmlns="http://www.w3.org/2000/svg" xmlns:xlink="http://www.w3.org/1999/xlink">
    <title>Icon/特殊/流水线模板</title>
    <g id="模板管理" stroke="none" stroke-width="1" fill="none" fill-rule="evenodd">
        <g id="编辑模板-交互说明" transform="translate(-167.000000, -2997.000000)">
            <g id="编组-3备份-12" transform="translate(50.000000, 2933.000000)">
                <g id="模块/二级导航栏-编辑" transform="translate(-0.000000, 50.000000)">
                    <g id="编组-4" transform="translate(24.000000, 12.000000)">
                        <g id="Breadcrumb/14字号-箭头样式" transform="translate(24.000000, 0.000000)">
                            <g id="Icon/特殊/流水线模板" transform="translate(69.000000, 2.000000)">
                                <circle id="椭圆形" fill="#EAEBF0" cx="10" cy="10" r="10"></circle>
                                <path d="M12.5,6.25 L7.5,6.25 C6.8096875,6.25 6.25,5.6903125 6.25,5 L6.25,3.75 C6.25,3.0596875 6.8096875,2.5 7.5,2.5 L12.5,2.5 C13.1903125,2.5 13.75,3.0596875 13.75,3.75 L13.75,5 C13.75,5.6903125 13.1903125,6.25 12.5,6.25 M12.5,11.875 L7.5,11.875 C6.8096875,11.875 6.25,11.3153125 6.25,10.625 L6.25,9.375 C6.25,8.6846875 6.8096875,8.125 7.5,8.125 L12.5,8.125 C13.1903125,8.125 13.75,8.6846875 13.75,9.375 L13.75,10.625 C13.75,11.3153125 13.1903125,11.875 12.5,11.875 M12.5,17.5 L7.5,17.5 C6.8096875,17.5 6.25,16.9403125 6.25,16.25 L6.25,15 C6.25,14.3096875 6.8096875,13.75 7.5,13.75 L12.5,13.75 C13.1903125,13.75 13.75,14.3096875 13.75,15 L13.75,16.25 C13.75,16.9403125 13.1903125,17.5 12.5,17.5" id="形状结合" fill="#3A84FF" fill-rule="nonzero"></path>
                                <path d="M15.9027778,9.6875 L14.375,9.6875 L14.375,8.4375 L15.9027778,8.4375 C16.5155556,8.4375 17.0138889,7.876875 17.0138889,7.1875 C17.0138889,6.498125 16.5155556,5.9375 15.9027778,5.9375 L14.375,5.9375 L14.375,4.6875 L15.9027778,4.6875 C17.1280556,4.6875 18.125,5.8090625 18.125,7.1875 C18.125,8.5659375 17.1280556,9.6875 15.9027778,9.6875 M5.625,15.3125 L4.09722222,15.3125 C2.87194444,15.3125 1.875,14.1909375 1.875,12.8125 C1.875,11.4340625 2.87194444,10.3125 4.09722222,10.3125 L5.625,10.3125 L5.625,11.5625 L4.09722222,11.5625 C3.48444444,11.5625 2.98611111,12.123125 2.98611111,12.8125 C2.98611111,13.501875 3.48444444,14.0625 4.09722222,14.0625 L5.625,14.0625 L5.625,15.3125 Z" id="形状结合" fill="#A3C5FD" fill-rule="nonzero"></path>
                                <rect id="codesign_placeholder_name" x="0" y="0" width="20" height="20"></rect>
                            </g>
                        </g>
                    </g>
                </g>
            </g>
        </g>
    </g>
</svg>