<svg viewBox="0 0 1024 1024" version="1.1" xmlns="http://www.w3.org/2000/svg"><path fill="#969da9" d="M1000.32 513.92l-178.56-103.04 179.2-104.32L528.64 33.92 58.88 307.2l179.2 103.04L58.88 514.56l174.72 101.12L59.52 716.8l472.32 272.64 469.12-273.28L825.6 615.68 1000.32 513.92zM528.64 160l254.72 147.2L531.2 453.76l-254.72-147.2L528.64 160zM531.2 579.84l182.4-106.24 70.4 40.32L531.2 661.12l-254.72-147.2 70.4-40.96L531.2 579.84zM783.36 717.44L531.2 864l-254.72-147.2 66.56-39.04 188.8 108.8 185.6-107.52L783.36 717.44z"/><path fill="none" d="M0 0H1024V1024H0V0z"/></svg>