<svg viewBox="0 0 1024 1024" version="1.1" xmlns="http://www.w3.org/2000/svg"><g fill="none" fill-rule="evenodd"><path fill="#EAEBF0" d="M1024 512A512 512 0 0 1 512 1024 512 512 0 0 1 0 512 512 512 0 0 1 1024 512z"/><path fill="#3A84FF" fill-rule="nonzero" d="M640 320L384 320C348.656 320 320 291.344 320 256L320 192C320 156.656 348.656 128 384 128L640 128C675.344 128 704 156.656 704 192L704 256C704 291.344 675.344 320 640 320M640 608L384 608C348.656 608 320 579.344 320 544L320 480C320 444.656 348.656 416 384 416L640 416C675.344 416 704 444.656 704 480L704 544C704 579.344 675.344 608 640 608M640 896L384 896C348.656 896 320 867.344 320 832L320 768C320 732.656 348.656 704 384 704L640 704C675.344 704 704 732.656 704 768L704 832C704 867.344 675.344 896 640 896"/><path fill="#A3C5FD" fill-rule="nonzero" d="M814.2222208 496L736 496 736 432 814.2222208 432C845.5964448 432 871.1111104 403.296 871.1111104 368 871.1111104 332.704 845.5964448 304 814.2222208 304L736 304 736 240 814.2222208 240C876.9564448 240 928 297.424 928 368 928 438.576 876.9564448 496 814.2222208 496M288 784L209.77777792 784C147.04355552 784 96 726.576 96 656 96 585.424 147.04355552 528 209.77777792 528L288 528 288 592 209.77777792 592C178.40355552 592 152.88888896 620.704 152.88888896 656 152.88888896 691.296 178.40355552 720 209.77777792 720L288 720 288 784Z"/></g></svg>