<svg xmlns="http://www.w3.org/2000/svg" viewBox="0 0 16 16" class="design-iconfont">
  <path d="M13.5,8.13125 C13.5,7.99375 13.43125,7.85625 13.29375,7.7875 L12.05625,7.1 L13.29375,6.4125 C13.43125,6.4125 13.5,6.275 13.5,6.06875 C13.5,5.93125 13.43125,5.79375 13.29375,5.725 L8.20625,3.04375 C8.06875,2.975 7.93125,2.975 7.8625,3.04375 L2.70625,5.725 C2.56875,5.79375 2.5,5.93125 2.5,6.06875 C2.5,6.20625 2.56875,6.34375 2.70625,6.4125 L3.94375,7.1 L2.70625,7.7875 C2.56875,7.85625 2.5,7.99375 2.5,8.13125 C2.5,8.26875 2.56875,8.40625 2.70625,8.475 L3.94375,9.1625 L2.70625,9.85 C2.56875,9.85 2.5,9.9875 2.5,10.19375 C2.5,10.33125 2.56875,10.46875 2.70625,10.5375 L7.79375,13.21875 C7.8625,13.21875 7.93125,13.2875 8,13.2875 C8.06875,13.2875 8.1375,13.2875 8.20625,13.21875 L13.29375,10.5375 C13.43125,10.46875 13.5,10.33125 13.5,10.19375 C13.5,10.05625 13.43125,9.91875 13.29375,9.85 L12.05625,9.1625 L13.29375,8.475 C13.43125,8.40625 13.5,8.26875 13.5,8.13125 Z M3.7375,6.06875 L8,3.86875 L12.2625,6.06875 L8,8.3375 L3.7375,6.06875 Z M12.2625,10.19375 L8,12.39375 L3.7375,10.19375 L4.76875,9.64375 L7.79375,11.225 C7.8625,11.225 7.93125,11.29375 8,11.29375 C8.06875,11.29375 8.1375,11.29375 8.20625,11.225 L11.23125,9.64375 L12.2625,10.19375 Z M8,10.4 L3.7375,8.13125 L4.76875,7.58125 L7.79375,9.1625 C7.8625,9.1625 7.93125,9.23125 8,9.23125 C8.06875,9.23125 8.1375,9.23125 8.20625,9.1625 L11.23125,7.58125 L12.2625,8.13125 L8,10.4 Z" fill="#979BA5" fill-rule="nonzero"/>
</svg>
