<svg fill="none" xmlns="http://www.w3.org/2000/svg" viewBox="0 0 16 16" class="design-iconfont">
  <path d="M10.1562 11C10.7085 11 11.1562 11.4477 11.1562 12V13C11.1562 13.5523 10.7085 14 10.1562 14H6.15625C5.604 14 5.15625 13.5523 5.15625 13V12C5.15625 11.4477 5.604 11 6.15625 11H10.1562ZM4.375 9.25H3C2.4485 9.25 2 9.6985 2 10.25C2 10.8015 2.4485 11.25 3 11.25H4.375V12.25H3C1.89725 12.25 1 11.3527 1 10.25C1 9.14725 1.89725 8.25 3 8.25H4.375V9.25ZM10.1562 6.5C10.7085 6.5 11.1562 6.94775 11.1562 7.5V8.5C11.1562 9.05225 10.7085 9.5 10.1562 9.5H6.15625C5.604 9.5 5.15625 9.05225 5.15625 8.5V7.5C5.15625 6.94775 5.604 6.5 6.15625 6.5H10.1562ZM13 3.75C14.1027 3.75 15 4.64725 15 5.75C15 6.85275 14.1027 7.75 13 7.75H11.625V6.75H13C13.5515 6.75 14 6.3015 14 5.75C14 5.1985 13.5515 4.75 13 4.75H11.625V3.75H13ZM10.1562 2C10.7085 2 11.1562 2.44775 11.1562 3V4C11.1562 4.55225 10.7085 5 10.1562 5H6.15625C5.604 5 5.15625 4.55225 5.15625 4V3C5.15625 2.44775 5.604 2 6.15625 2H10.1562Z" fill="#3764DC"/>
</svg>
