<!-- Generated by IcoMoon.io -->
<svg version="1.1" xmlns="http://www.w3.org/2000/svg" width="32" height="32" viewBox="0 0 32 32">
<title>placeholder</title>
<path d="M25 3h-18c-2.209 0-4 1.791-4 4v18c0 2.209 1.791 4 4 4h18c2.209 0 4-1.791 4-4v-18c0-2.209-1.791-4-4-4zM27.444 26.738l-4.028-4.028c1.503-1.659 2.453-3.825 2.572-6.209h2.012v8.5c0 0.647-0.206 1.247-0.556 1.738zM4.556 26.738c-0.35-0.491-0.556-1.091-0.556-1.738v-8.5h2.013c0.119 2.384 1.069 4.55 2.572 6.209l-4.028 4.028zM4.556 5.263l4.028 4.028c-1.503 1.659-2.453 3.825-2.572 6.209h-2.013v-8.5c0-0.647 0.206-1.247 0.556-1.737zM20.975 15.5c-0.1-1.006-0.497-1.925-1.103-2.666l2.837-2.838c0.666 0.741 1.197 1.578 1.584 2.497 0.403 0.956 0.637 1.966 0.694 3.003l-4.012 0.003zM16.5 12.031c0.716 0.088 1.384 0.366 1.953 0.809l-1.953 1.953v-2.762zM15.5 14.794l-1.953-1.953c0.569-0.444 1.238-0.722 1.953-0.809v2.762zM14.794 15.5h-2.762c0.088-0.716 0.366-1.384 0.809-1.953l1.953 1.953zM14.794 16.5l-1.953 1.953c-0.444-0.569-0.722-1.238-0.809-1.953h2.762zM15.5 17.206v2.762c-0.716-0.087-1.384-0.366-1.953-0.809l1.953-1.953zM16.5 17.206l1.953 1.953c-0.569 0.444-1.238 0.722-1.953 0.809v-2.762zM17.206 16.5h2.762c-0.087 0.716-0.366 1.384-0.809 1.953l-1.953-1.953zM17.206 15.5l1.953-1.953c0.444 0.569 0.722 1.238 0.809 1.953h-2.762zM19.166 12.128c-0.741-0.606-1.659-1.003-2.666-1.103v-4.013c1.038 0.056 2.047 0.287 3.003 0.694 0.919 0.388 1.756 0.922 2.497 1.584l-2.834 2.838zM15.5 11.025c-1.006 0.1-1.925 0.497-2.666 1.103l-2.834-2.834c0.741-0.666 1.578-1.197 2.497-1.584 0.956-0.403 1.966-0.638 3.003-0.694v4.009zM12.128 12.834c-0.606 0.741-1.003 1.659-1.103 2.666h-4.013c0.056-1.037 0.287-2.047 0.694-3.003 0.388-0.919 0.922-1.756 1.584-2.497l2.838 2.834zM7.706 19.503c-0.403-0.956-0.638-1.966-0.694-3.003h4.009c0.1 1.006 0.497 1.925 1.103 2.666l-2.831 2.834c-0.666-0.741-1.2-1.578-1.588-2.497zM12.834 19.872c0.741 0.606 1.659 1.003 2.666 1.103v4.009c-1.037-0.056-2.047-0.288-3.003-0.694-0.919-0.387-1.756-0.922-2.497-1.584l2.834-2.834zM16.5 20.975c1.006-0.1 1.925-0.497 2.666-1.103l2.837 2.837c-0.741 0.666-1.578 1.197-2.497 1.584-0.956 0.403-1.966 0.637-3.003 0.694l-0.003-4.012zM19.872 19.166c0.606-0.741 1.003-1.659 1.103-2.666h4.009c-0.056 1.038-0.288 2.047-0.694 3.003-0.387 0.919-0.922 1.756-1.584 2.497l-2.834-2.834zM25.988 15.5c-0.119-2.384-1.069-4.55-2.572-6.209l4.028-4.028c0.35 0.491 0.556 1.091 0.556 1.737v8.5h-2.012zM26.738 4.556l-4.028 4.028c-1.659-1.503-3.825-2.453-6.209-2.572v-2.013h8.5c0.647 0 1.247 0.206 1.738 0.556zM15.5 4v2.013c-2.384 0.119-4.55 1.069-6.209 2.572l-4.028-4.028c0.491-0.35 1.091-0.556 1.737-0.556h8.5zM5.263 27.444l4.028-4.028c1.659 1.503 3.825 2.453 6.209 2.572v2.012h-8.5c-0.647 0-1.247-0.206-1.737-0.556zM16.5 28v-2.012c2.384-0.119 4.55-1.069 6.209-2.572l4.028 4.028c-0.491 0.35-1.091 0.556-1.738 0.556h-8.5z"></path>
</svg>
