

<svg class="bk-icon" style="width: 1em; height: 1em;vertical-align: middle;fill: currentColor;overflow: hidden;" viewBox="0 0 64 64" version="1.1" xmlns="http://www.w3.org/2000/svg">

<g>
	<path d="M32,8c13.3,0,24,10.7,24,24S45.3,56,32,56S8,45.3,8,32S18.7,8,32,8 M32,4C16.5,4,4,16.5,4,32
		s12.5,28,28,28s28-12.5,28-28S47.5,4,32,4z"/>
	<path d="M26.6,20.9v22.3c0,0.6,0.5,1.1,1.1,1.1c0.3,0,0.5-0.1,0.7-0.2l13.4-11.2c0.5-0.4,0.5-1.1,0.1-1.5
		c0,0-0.1-0.1-0.1-0.1L28.4,20c-0.5-0.4-1.1-0.3-1.5,0.1C26.7,20.3,26.6,20.6,26.6,20.9z"/>
</g>
</svg>
