<!-- Generated by IcoMoon.io -->
<svg version="1.1" xmlns="http://www.w3.org/2000/svg" width="32" height="32" viewBox="0 0 32 32">
<title>play-circle-shape</title>
<path d="M16 0c-8.837 0-16 7.163-16 16s7.163 16 16 16c8.837 0 16-7.163 16-16s-7.163-16-16-16zM21.080 16.78l-6.92 5.46c-0.169 0.134-0.385 0.215-0.62 0.215-0.551 0-0.997-0.445-1-0.995v-10.9c0.003-0.55 0.449-0.995 1-0.995 0.235 0 0.451 0.081 0.622 0.217l6.898 5.438c0.235 0.185 0.384 0.469 0.384 0.788 0 0.31-0.141 0.587-0.363 0.771z"></path>
</svg>
