<svg viewBox="0 0 1024 1024" version="1.1" xmlns="http://www.w3.org/2000/svg" style="fill: #3a84ff;"><path d="M99.22492864 361.53578624C223.1863584 426.52444288 346.73867264 491.92183296 470.7001024 557.31922176 482.5643968 563.4502272 494.42869248 568.35503104 508.33855616 567.53756416 525.9304416 569.17249856 541.06764544 561.81529216 555.79573696 554.04935232 680.575392 488.2432288 805.3550464 422.0283712 930.1347072 356.22224768 947.3174784 347.23010624 958.7726592 335.37682944 958.7726592 314.53141184 958.7726592 294.09472704 946.0901376 283.4676512 929.7255936 274.8842432 883.0866368 250.36022208 836.4476864 226.2449344 789.8087296 201.72091328L546.79523712 74.19600256C523.47576 61.933991744 501.38362432 59.481590272 477.24592 73.78726912 446.97151168 91.77155136 415.06064896 106.89469824 383.55889984 123.24404608 287.00808384 174.33575744 190.0481536 225.42746816 93.088224 275.70171136 75.49633856 285.10258624 64.04115712 297.77333056 64.04115712 317.80128128 64.45027072 340.28163328 80.814816 351.72617728 99.22492864 361.53578624ZM879.813728 655.8240384C779.458496 708.4668736 678.529824 760.4598656 577.88787264 813.1865088 534.11271424 836.0755968 491.15578368 835.6668608 447.78973888 813.1865088 353.69360448 764.5472 259.18835712 717.5428288 166.72867712 666.0423808 138.4998368 650.5105024 118.45326912 652.5541696 93.9064512 667.2685824 77.54190592 677.0781952 64.45027072 688.1140032 64.45027072 708.550688 64.45027072 728.5786368 76.31456512 741.2493824 93.4973376 750.2415232 219.50433472 816.047648 345.51133248 882.2625024 471.51832896 948.4773632 484.20085184 955.0171008 497.70160192 960.7393728 512.42969216 959.9219072 526.3395552 960.3306368 538.20385024 956.2433024 550.06814592 950.1122944 632.70909888 906.786528 715.3500544 863.8694848 797.9910016 820.5437184 842.993504 796.8371648 887.996 773.5393408 932.9985024 749.8327872 948.9539328 741.6581184 960 729.3961024 960 710.5943552 960 690.5664064 914.9681344 637.3832736 879.813728 655.8240384ZM467.42719296 749.8327872C497.29248832 765.7734016 524.70310144 764.955936 553.75016832 749.4240576 620.8448032 713.4554944 687.9394368 678.3043904 755.0340736 643.1532992 815.9920064 610.86333568 876.5408192 578.98210688 937.0896384 546.69214592 950.9995008 539.33493952 958.7726592 528.29913024 957.5453184 511.9497824 957.5453184 477.20741952 905.1787776 444.50872448 874.4952512 460.85807168 775.8988672 512.35851648 677.3024832 563.85896128 579.5243264 616.17687296 534.11271424 640.29216 490.33755584 640.700896 444.92594432 616.17687296 353.28449216 567.12883072 260.41569856 520.12445632 169.18335872 469.85021312 141.363632 454.31833344 118.86238208 452.27466432 92.67911104 470.25894656 77.1327936 480.8860224 64.45027072 492.33056512 64.04115712 510.72358208 63.222930048 529.5253312 74.67811136 542.19607552 91.86088384 551.18821632 217.45876672 616.99433984 342.64753664 683.2091968 467.42719296 749.8327872Z"></path></svg>