<svg fill="none" xmlns="http://www.w3.org/2000/svg" viewBox="0 0 32 32" class="design-iconfont">
  <path fill="#D7E6FF" d="M16 0A16 16 0 1 0 16 32A16 16 0 1 0 16 0Z"/>
  <path d="M15.955 6C16.8864 6 17.7794 6.16408 18.6064 6.4653C18.7182 6.50612 18.768 6.6351 18.7088 6.73836C18.3403 7.37877 17.7655 7.87521 17.0782 8.14651L16.5407 8.35875C15.1623 8.90242 15.1623 10.8526 16.5407 11.3963L17.0782 11.6085C17.4946 11.7727 17.8727 12.0208 18.1893 12.3372C18.5058 12.6537 18.7539 13.0318 18.9182 13.4481L19.1304 13.9856C19.6737 15.364 21.6239 15.364 22.1672 13.9856L22.3794 13.4481C22.5709 12.9626 22.876 12.5301 23.2692 12.1869C23.294 12.1652 23.3242 12.1505 23.3566 12.1444C23.389 12.1383 23.4224 12.141 23.4534 12.1522C23.4844 12.1634 23.5118 12.1827 23.5328 12.2081C23.5538 12.2335 23.5677 12.2641 23.5729 12.2967C23.6626 12.7689 23.71 13.2567 23.71 13.755C23.71 16.7987 21.9565 19.4317 19.4047 20.7015L19.3215 21.6211C19.2938 21.9253 19.1534 22.2082 18.9278 22.4142C18.7022 22.6202 18.4078 22.7345 18.1023 22.7345H13.8076C13.5022 22.7345 13.2077 22.6202 12.9822 22.4142C12.7566 22.2082 12.6162 21.9253 12.5885 21.6211L12.5048 20.7015C9.9534 19.4317 8.19995 16.7983 8.19995 13.755C8.19995 9.47221 11.6722 6 15.955 6Z" fill="url(#y02w0kqab__paint0_linear_573_280694)"/>
  <path d="M20.0418 6.41326C20.259 5.86225 21.0386 5.86225 21.2557 6.41326L21.7173 7.58345C21.8267 7.86085 21.992 8.1128 22.2028 8.32365C22.4137 8.53451 22.6656 8.69976 22.943 8.80915L24.1132 9.27037C24.6642 9.48792 24.6642 10.2675 24.1132 10.4851L22.943 10.9463C22.6656 11.0557 22.4137 11.2209 22.2028 11.4318C21.992 11.6426 21.8267 11.8946 21.7173 12.172L21.2561 13.3422C21.0386 13.8932 20.259 13.8932 20.0418 13.3422L19.5802 12.172C19.4708 11.8946 19.3056 11.6426 19.0947 11.4318C18.8839 11.2209 18.6319 11.0557 18.3545 10.9463L17.1843 10.4851C16.6333 10.2675 16.6333 9.48792 17.1843 9.27037L18.3545 8.80915C18.6319 8.69976 18.8839 8.53451 19.0947 8.32365C19.3056 8.1128 19.4708 7.86085 19.5802 7.58345L20.0414 6.41326H20.0418ZM13.506 23.9592C13.506 23.851 13.549 23.7471 13.6255 23.6706C13.7021 23.594 13.8059 23.551 13.9141 23.551H17.9957C18.104 23.551 18.2078 23.594 18.2843 23.6706C18.3609 23.7471 18.4039 23.851 18.4039 23.9592C18.4039 24.5005 18.1889 25.0195 17.8062 25.4023C17.4234 25.785 16.9043 26 16.3631 26H15.5468C15.0055 26 14.4864 25.785 14.1037 25.4023C13.721 25.0195 13.506 24.5005 13.506 23.9592Z" fill="#28D2FA"/>
  <defs>
    <linearGradient id="y02w0kqab__paint0_linear_573_280694" x1="13.302" y1="10" x2="18.2271" y2="23.0667" gradientUnits="userSpaceOnUse">
      <stop stop-color="#91B9FA"/>
      <stop offset="1" stop-color="#2369E1"/>
    </linearGradient>
  </defs>
</svg>
