<svg xmlns="http://www.w3.org/2000/svg" viewBox="0 0 16 16" class="design-iconfont">
  <path d="M11.75,3 C12.4403559,3 13,3.55964406 13,4.25 L13,7.81625 C13,8.04634373 12.8134271,8.23285288 12.5833333,8.23285288 C12.3532396,8.23285288 12.1667019,8.04634373 12.1666667,7.81625 L12.1666667,6.33333333 L3.83333333,6.33333333 L3.83333333,11.75 C3.83333333,11.9695833 4.003125,12.1495833 4.21895833,12.1654167 L4.25,12.1666667 L7.52125,12.1666667 C7.75134373,12.1667019 7.93785288,12.3532396 7.93785288,12.5833333 C7.93785288,12.8134271 7.75134373,13 7.52125,13 L4.25,13 C3.55964406,13 3,12.4403559 3,11.75 L3,4.25 C3,3.55964406 3.55964406,3 4.25,3 L11.75,3 Z M10.6891667,8.28479167 C11.014375,8.28479167 11.330625,8.35395834 11.6214583,8.48604167 C11.7570332,8.54752112 11.8495106,8.6766588 11.8640553,8.82480979 C11.8785999,8.97296078 11.8130021,9.11761742 11.6919719,9.20428895 C11.5709417,9.29096049 11.4128665,9.30647945 11.2772917,9.245 C11.0925913,9.16109916 10.8920299,9.11783245 10.6891667,9.118125 C9.88916667,9.118125 9.2375,9.781875 9.2375,10.604375 C9.2375,11.426875 9.889375,12.090625 10.6891667,12.090625 C11.4891667,12.090625 12.1408333,11.426875 12.1408333,10.604375 C12.1408333,10.3742564 12.3273814,10.1877083 12.5575,10.1877083 C12.7876186,10.1877083 12.9741667,10.3742564 12.9741667,10.604375 C12.9741667,11.88375 11.9529167,12.9239583 10.6891667,12.9239583 C9.425625,12.9239583 8.40416667,11.88375 8.40416667,10.604375 C8.40416667,9.32520833 9.425625,8.28479167 10.6891667,8.28479167 L10.6891667,8.28479167 Z M6.45229167,9.66666667 C6.6823854,9.6667019 6.86889455,9.8532396 6.86889455,10.0833333 C6.86889455,10.3134271 6.6823854,10.4999648 6.45229167,10.5 L5.08333333,10.5 C4.8532396,10.4999648 4.66673045,10.3134271 4.66673045,10.0833333 C4.66673045,9.8532396 4.8532396,9.6667019 5.08333333,9.66666667 L6.45229167,9.66666667 L6.45229167,9.66666667 Z M8.20833333,7.58333333 C8.43845198,7.58333333 8.625,7.76988135 8.625,8 C8.625,8.23011865 8.43845198,8.41666667 8.20833333,8.41666667 L5.08333333,8.41666667 C4.85321468,8.41666667 4.66666666,8.23011865 4.66666666,8 C4.66666666,7.76988135 4.85321468,7.58333333 5.08333333,7.58333333 L8.20833333,7.58333333 L8.20833333,7.58333333 Z M11.75,3.83333333 L4.25,3.83333333 C4.01988135,3.83333333 3.83333333,4.01988135 3.83333333,4.25 L3.83333333,5.5 L12.1666667,5.5 L12.1666667,4.25 C12.1666667,4.03187881 11.9985567,3.85062502 11.7810417,3.834375 L11.75,3.83333333 Z" fill="#979BA5" fill-rule="nonzero"/>
</svg>
