<?xml version="1.0" encoding="UTF-8"?>
<svg xmlns="http://www.w3.org/2000/svg" xmlns:xlink="http://www.w3.org/1999/xlink" width="12px" height="10px" viewBox="0 0 12 10" version="1.1">
  <title>Icon/2 线性图标/手动触发</title>
  <defs>
    <path d="M7.23450387,7.09529167 L0.852045524,7.09529167 L0.852045524,1.01183333 C0.851905838,0.979056362 0.864308871,0.947467392 0.886712195,0.923541671 C0.908928529,0.900292507 0.939598015,0.887008906 0.971753866,0.886708329 L10.9302955,0.886708329 C10.9624625,0.886421123 10.9932889,0.89957631 11.0153372,0.923 C11.038115,0.946906548 11.0505681,0.978817687 11.0500039,1.01183333 L11.0500039,4.85983333 C11.0500039,5.10520833 11.2401289,5.30345833 11.4762955,5.30345833 C11.7113789,5.30345833 11.9020455,5.10520833 11.9020455,4.85983333 L11.9020455,1.01183333 C11.9020455,0.743166658 11.7991289,0.486416658 11.6176705,0.296833329 C11.4386137,0.108289164 11.1903131,0.00106402111 10.9302955,0 L0.971753866,0 C0.714462195,0 0.467462195,0.10725 0.284920524,0.296833329 C0.101529552,0.489655523 -0.00051119597,0.745727369 1.92586172e-06,1.01183333 L1.92586172e-06,8.73708333 C1.92586172e-06,9.00520833 0.102920537,9.2625 0.284920524,9.45208333 C0.466920524,9.64166666 0.713920524,9.748375 0.971753866,9.74891667 L7.23450387,9.74891667 C7.47012887,9.74891667 7.66079554,9.55066667 7.66079552,9.30529167 L7.66079552,9.30420833 C7.66079552,9.05883333 7.47012885,8.86058333 7.23450387,8.86058333 L0.971753866,8.86058333 C0.939761495,8.8607853 0.909135241,8.84763172 0.887253866,8.82429167 C0.864360799,8.80063817 0.851710887,8.76891609 0.852045524,8.736 L0.852045524,7.982 L7.23450387,7.982 C7.47012887,7.982 7.66079554,7.78375 7.66079552,7.538375 C7.66079552,7.29354167 7.46904552,7.09529167 7.23450387,7.09529167 L7.23450387,7.09529167 Z M11.9166705,6.65545833 C11.9165734,6.53749626 11.8712033,6.42407112 11.7899205,6.33858333 C11.7105393,6.25511286 11.6006894,6.20742001 11.4855039,6.20641667 L8.94129552,6.20641667 C8.82578805,6.20412056 8.71473889,6.25098172 8.63579552,6.33533333 C8.55398275,6.4204588 8.50952772,6.53471604 8.51229552,6.65275 L8.51229552,9.3015 C8.51229552,9.54741667 8.70729552,9.75 8.94400387,9.75 C9.05775387,9.75 9.1677122,9.70233333 9.24842052,9.61783333 C9.32970334,9.53234553 9.37507339,9.4189204 9.37517052,9.30095833 L9.37517052,7.73120833 L11.1870455,9.61675 C11.2659988,9.69881895 11.3748731,9.74533977 11.4887539,9.74566667 C11.6026346,9.74533977 11.7115089,9.69881895 11.7904622,9.61675 C11.8706561,9.53204264 11.9152544,9.41977128 11.9150455,9.303125 C11.9153935,9.18629164 11.8707853,9.07380147 11.7904622,8.98895833 L9.9785872,7.1045 L11.4855039,7.1045 C11.6007025,7.10355883 11.7105757,7.0558559 11.7899205,6.97233333 C11.8712033,6.88684553 11.9165734,6.7734204 11.9166705,6.65545833 L11.9166705,6.65545833 Z" id="path-1"></path>
  </defs>
  <g id="流水线组" stroke="none" stroke-width="1" fill="currentColor" fill-rule="evenodd">
    <g id="流水线列表-交互说明" transform="translate(-870.000000, -1368.000000)">
      <g id="编组-3备份-6" transform="translate(50.000000, 847.000000)">
        <g id="Table/42px样例" transform="translate(304.000000, 220.000000)">
          <g id="编组-5" transform="translate(466.000000, 0.000000)">
            <g id="Table/元件/内容/基础备份-5" transform="translate(0.000000, 266.000000)">
              <g id="编组-6" transform="translate(48.000000, 30.000000)">
                <g id="Icon/2-线性图标/手动触发" transform="translate(2.041663, 5.125000)">
                  <mask id="mask-2" fill="white">
                    <use xlink:href="#path-1"></use>
                  </mask>
                  <use id="形状" fill-rule="nonzero" xlink:href="#path-1"></use>
                  <rect id="矩形" mask="url(#mask-2)" x="-2.0416628" y="-3.125" width="16" height="16"></rect>
                  <rect id="codesign_placeholder_name" mask="url(#mask-2)" x="-2.0416628" y="-3.125" width="16" height="16"></rect>
                </g>
              </g>
            </g>
          </g>
        </g>
      </g>
    </g>
  </g>
</svg>
