<?xml version="1.0" encoding="UTF-8"?>
<svg width="28px" height="28px" viewBox="0 0 28 28" version="1.1" xmlns="http://www.w3.org/2000/svg" xmlns:xlink="http://www.w3.org/1999/xlink">
    <title>没执行到的在排队中</title>
    <g id="流水线" stroke="none" stroke-width="1" fill="none" fill-rule="evenodd">
        <g id="蓝盾流水线--Stage审核功能设计调整" transform="translate(-1748.000000, -2484.000000)">
            <g id="没执行到的在排队中" transform="translate(1748.000000, 2484.000000)">
                <g id="编组-2" fill="#FFFFFF" stroke="#999999">
                    <rect id="矩形" x="0.5" y="0.5" width="27" height="27" rx="13.5"></rect>
                </g>
                <g id="Group-7-Copy" transform="translate(7.000000, 5.000000)" fill="#999999" fill-rule="nonzero">
                    <path d="M8.22588129,16.0007734 L1,16 L1,15 L7.38989569,15.0006599 C7.62850811,15.3665071 7.90949093,15.7021993 8.22588129,16.0007734 Z M7,0 C9.209139,0 11,1.790861 11,4 C11,5.23159032 10.4433934,6.33317821 9.56801119,7.06693277 C7.75009271,7.96340366 6.5,9.83571443 6.5,12 C6.5,12.7059159 6.63299002,13.3807704 6.87528236,14.0008756 L0,14 L0,10 L5,10 L4.99987956,7.46480154 C3.85840112,6.80443887 3.07353887,5.5961843 3.00489531,4.19964034 L3,4 C3,1.790861 4.790861,0 7,0 Z" id="Combined-Shape"></path>
                    <path d="M12,7.5 C14.4852814,7.5 16.5,9.51471863 16.5,12 C16.5,14.4852814 14.4852814,16.5 12,16.5 C9.51471863,16.5 7.5,14.4852814 7.5,12 C7.5,9.51471863 9.51471863,7.5 12,7.5 Z M12,9 L11,9 L11,13 L15,13 L15,12 L12,12 L12,9 Z" id="Combined-Shape"></path>
                </g>
            </g>
        </g>
    </g>
</svg>