<!-- Generated by IcoMoon.io -->
<svg version="1.1" xmlns="http://www.w3.org/2000/svg" width="38" height="32" viewBox="0 0 38 32">
<title>wework</title>
<path d="M21.52 26.526c-3.181 1.099-6.339 1.333-9.52 0.561-0.866-0.211-1.567-0.117-2.316 0.304-1.076 0.608-2.199 1.146-3.345 1.684-1.099 0.515-2.152-0.14-1.801-1.287 0.795-2.69-0.211-4.538-1.918-6.62-4.421-5.45-3.088-13.193 2.76-17.731 6.643-5.146 16.819-4.421 22.596 1.661 2.409 2.526 3.602 5.591 3.439 9.24-0.819-0.257-1.567-0.515-2.363-0.281-0.444 0.14-0.398-0.257-0.398-0.515 0.117-6.947-8.164-12.374-16.187-10.433-4.749 1.17-8.257 3.813-9.403 8.819-0.725 3.228 0.14 6.222 2.456 8.491 1.708 1.684 2.947 3.158 1.263 5.731 1.357-0.257 2.082-0.912 2.877-1.404 0.795-0.468 1.544-0.608 2.433-0.351 2.363 0.632 4.772 0.655 7.158 0.047 0.655-0.164 1.099-0.328 1.17 0.608 0.070 0.632 0.702 0.912 1.099 1.474z"></path>
<path d="M27.439 17.45c0.023-1.17 0.772-2.105 1.708-2.269 1.076-0.187 2.035 0.14 2.386 1.193 0.538 1.637 1.006 3.251 2.292 4.491 0.211 0.187 0.211 0.515-0.047 0.725-0.257 0.187-0.538 0.14-0.749-0.070-1.146-1.216-2.62-1.731-4.164-2.199-0.889-0.257-1.357-1.053-1.427-1.871z"></path>
<path d="M25.31 25.45c0.444-0.094 0.819 0.023 1.146 0.374 0.982 1.029 2.222 1.497 3.556 1.848 1.614 0.444 2.246 1.895 1.474 3.251-0.421 0.749-1.053 1.099-1.918 1.076s-1.591-0.398-1.848-1.193c-0.515-1.684-1.029-3.322-2.316-4.608-0.14-0.14-0.070-0.515-0.094-0.749v0z"></path>
<path d="M35.766 21.427c1.053 0 1.965 0.725 2.152 1.754 0.187 0.982-0.398 2.175-1.38 2.433-1.591 0.398-3.018 0.982-4.164 2.175-0.234 0.257-0.538 0.328-0.795 0.023s-0.14-0.585 0.117-0.819c1.146-1.099 1.684-2.48 2.058-3.977 0.234-1.029 0.936-1.591 2.012-1.591z"></path>
<path d="M25.333 25.427c-1.24 1.099-2.222 1.263-3.181 0.515-0.725-0.561-0.936-1.287-0.795-2.175 0.14-0.795 0.608-1.404 1.38-1.591 1.567-0.398 3.018-0.959 4.164-2.152 0.234-0.257 0.538-0.328 0.819-0.047 0.257 0.257 0.117 0.515-0.094 0.702-1.38 1.31-1.825 3.064-2.292 4.749-0.023 0.023 0 0 0 0z"></path>
</svg>
