<?xml version="1.0" encoding="UTF-8"?>
<svg width="16px" height="16px" viewBox="0 0 16 16" version="1.1" xmlns="http://www.w3.org/2000/svg" xmlns:xlink="http://www.w3.org/1999/xlink">
    <!-- Generator: Sketch 53 (72520) - https://sketchapp.com -->
    <title>形状</title>
    <desc>Created with Sketch.</desc>
    <g id="二期" stroke="none" stroke-width="1" fill="none" fill-rule="evenodd">
        <g id="新建流水线" transform="translate(-763.000000, -174.000000)" fill="#979BA5" fill-rule="nonzero">
            <path d="M778.272727,190 L763.727273,190 C763.325455,190 763,189.674182 763,189.272727 L763,174.727273 C763,174.325455 763.325455,174 763.727273,174 L778.272727,174 C778.674182,174 779,174.325455 779,174.727273 L779,189.272727 C779,189.674182 778.674182,190 778.272727,190 Z M771.727273,176.181818 C771.325455,176.181818 771,176.507273 771,176.909091 C771,177.310545 771.325455,177.636364 771.727273,177.636364 C772.128727,177.636364 772.454545,177.310545 772.454545,176.909091 C772.454545,176.507273 772.128727,176.181818 771.727273,176.181818 Z M773.909091,176.181818 C773.507273,176.181818 773.181818,176.507273 773.181818,176.909091 C773.181818,177.310545 773.507273,177.636364 773.909091,177.636364 C774.310545,177.636364 774.636364,177.310545 774.636364,176.909091 C774.636364,176.507273 774.310545,176.181818 773.909091,176.181818 Z M776.090909,176.181818 C775.689091,176.181818 775.363636,176.507273 775.363636,176.909091 C775.363636,177.310545 775.689091,177.636364 776.090909,177.636364 C776.492364,177.636364 776.818182,177.310545 776.818182,176.909091 C776.818182,176.507273 776.492364,176.181818 776.090909,176.181818 Z M765,175 L765.181818,175.454545 C764.78,175.454545 764.454545,175.78 764.454545,176.181818 L764.454545,187.818182 C764.454545,188.219636 764.78,188.545455 765.181818,188.545455 L770.804727,188.545455 C770.763273,188.472727 770.726909,188.394909 770.704,188.308364 L769.14,182.472364 L768.405455,185.193455 C768.255636,185.749091 767.832,186.118909 767.458909,186.019636 C767.410545,186.006909 767.366182,185.986545 767.324727,185.96 C767.230182,186.006182 767.125818,186.034182 767.013818,186.034182 L765.531636,186.034182 C765.137455,186.034182 764.818182,185.714545 764.818182,185.320727 C764.818182,184.921455 765.137455,184.602182 765.531636,184.602182 L767.013818,184.602182 C767.048364,184.602182 767.081455,184.607636 767.114909,184.612364 L768.140727,180.810909 C768.266909,180.342909 768.587636,180.010545 768.908727,179.975636 C768.985091,179.902182 769.076364,179.846545 769.181818,179.818182 L764.454545,179.818182 L764.454545,178.363636 L764,175 L765,175 Z M777.545455,179.818182 L769.497818,179.818182 C769.773455,179.885818 770.017455,180.126545 770.106545,180.46 L771.854182,186.982182 L772.8,183.452 C772.956,182.870182 773.397091,182.482545 773.785091,182.586545 C773.870182,182.609455 773.943636,182.657091 774.008,182.719273 C774.336727,182.587273 774.716,182.696727 774.895636,183.007273 L775.636727,184.291273 C775.693455,184.389455 775.721091,184.496 775.727273,184.602182 L776.468364,184.602182 C776.862545,184.602182 777.181818,184.921455 777.181818,185.315636 L777.181818,185.320727 C777.181818,185.714545 776.862545,186.034182 776.468364,186.034182 L774.986182,186.034182 C774.592,186.034182 774.272727,185.714545 774.272727,185.320727 L774.272727,185.315636 C774.272727,185.195636 774.305091,185.084 774.357455,184.984727 L774.041818,184.437818 L773.075636,188.043636 C773.024,188.237091 772.938545,188.405818 772.836364,188.545455 L776.818182,188.545455 C777.219636,188.545455 777.545455,188.219636 777.545455,187.818182 L777.545455,179.818182 Z" id="形状"></path>
        </g>
    </g>
</svg>