<?xml version="1.0" encoding="UTF-8"?>
<svg width="12px" height="12px" viewBox="0 0 12 12" version="1.1" xmlns="http://www.w3.org/2000/svg" xmlns:xlink="http://www.w3.org/1999/xlink">
    <title>形状结合备份 3</title>
    <g id="模板管理" stroke="none" stroke-width="1" fill="none" fill-rule="evenodd">
        <g id="模板实例化-交互说明" transform="translate(-2234, -4404)" fill="#3A84FF" fill-rule="nonzero">
            <g id="编组-51" transform="translate(1754, 4272)">
                <g id="编组-32备份-3" transform="translate(474, 126)">
                    <g id="icon/输入变量备份-2" transform="translate(6, 6)">
                        <path d="M11.520375,0 C11.7859654,0 12,0.2140625 12,0.4796875 L12,11.5203125 C12,11.7859375 11.7859654,12 11.520375,12 L0.481187345,12 C0.215596927,12 0.00156229658,11.7859375 0.00156229658,11.5203125 L0.00156229658,9.9546875 C0.00156229658,9.8875 0.0562426767,9.834375 0.121859133,9.834375 L0.962374691,9.834375 C1.02799115,9.834375 1.08267153,9.8890625 1.08267153,9.9546875 L1.08267153,10.9203125 L10.9204531,10.9203125 L10.9204531,1.0796875 L1.08110923,1.0796875 L1.08110923,2.0453125 C1.08110923,2.1109375 1.02642885,2.165625 0.960812394,2.165625 L0.120296836,2.165625 C0.0546803802,2.165625 0,2.1125 0,2.0453125 L0,0.4796875 C0,0.2140625 0.214034631,0 0.479625049,0 L11.520375,0 Z M5.17526955,4.40079957 C5.17526955,4.30513312 5.29902599,4.25087453 5.384209,4.31084455 L7.6648635,5.91004498 C7.73075979,5.95573642 7.73075979,6.04426358 7.6648635,6.08995502 L5.384209,7.68915545 C5.30063322,7.74912547 5.17526955,7.69486688 5.17526955,7.59920043 L5.17526955,6.51402871 L0.128578125,6.51402871 C0.0578601564,6.51402871 0,6.46262584 0,6.39980011 L0,5.60019989 C0,5.53737416 0.0578601564,5.48597129 0.128578125,5.48597129 L5.17526955,5.48597129 Z" id="形状结合备份-3"></path>
                    </g>
                </g>
            </g>
        </g>
    </g>
</svg>