<?xml version="1.0" standalone="no"?><!DOCTYPE svg PUBLIC "-//W3C//DTD SVG 1.1//EN" "http://www.w3.org/Graphics/SVG/1.1/DTD/svg11.dtd"><svg t="1701068446761" class="icon" viewBox="0 0 1024 1024" version="1.1" xmlns="http://www.w3.org/2000/svg" p-id="4096" xmlns:xlink="http://www.w3.org/1999/xlink" width="200" height="200"><path d="M740.261 148.02c15.716 4.196 25.146 20.159 21.345 35.879l-0.18 0.703-41.704 156.07h178.385c16.51 0 29.893 13.38 29.893 29.884 0 16.268-13.004 29.5-29.187 29.874l-0.706 0.009-194.355-0.001-56.509 211.48h191.078c16.51 0 29.893 13.38 29.893 29.884 0 16.268-13.004 29.5-29.187 29.875l-0.706 0.008-207.049-0.001-49.202 184.138c-4.26 15.944-20.645 25.418-36.595 21.158-15.716-4.196-25.146-20.159-21.345-35.879l0.18-0.703 45.081-168.714H357.638l-49.203 184.138c-4.26 15.944-20.645 25.418-36.595 21.158-15.715-4.196-25.146-20.159-21.344-35.879l0.179-0.703 45.081-168.714H120.893c-16.51 0-29.893-13.378-29.893-29.882 0-16.269 13.004-29.5 29.187-29.875l0.706-0.008 190.833-0.001 56.51-211.48H180.679c-16.51 0-29.893-13.379-29.893-29.882 0-16.269 13.004-29.5 29.187-29.875l0.706-0.008 203.527-0.001 45.826-171.494c4.26-15.944 20.645-25.418 36.595-21.158 15.715 4.196 25.146 20.159 21.344 35.879l-0.179 0.703-41.704 156.07h211.753l45.825-171.494c4.261-15.944 20.645-25.418 36.595-21.158z m-154.9 463.898l56.51-211.48H430.118l-56.509 211.48h211.752z" p-id="4097"></path></svg>