<?xml version="1.0" encoding="UTF-8"?>
<svg width="16px" height="16px" viewBox="0 0 16 16" version="1.1" xmlns="http://www.w3.org/2000/svg" xmlns:xlink="http://www.w3.org/1999/xlink">
    <title>Icon/常用图标/加号</title>
    <g id="流水线编辑/变量编辑" stroke="none" stroke-width="1" fill="none" fill-rule="evenodd">
        <g id="编辑job-构建环境-MacOS" transform="translate(-2103, -559)">
            <g id="编组-4" transform="translate(1720, 281)">
                <g id="编组-17" transform="translate(232, 64)">
                    <g id="Button/中32px/主要-图标+文字" transform="translate(114, 206)">
                        <g id="Icon/常用图标/加号" transform="translate(37, 8)">
                            <path d="M11.0312158,3.31102439 C12.9507119,4.37502439 14.25,6.41834147 14.25,8.76487805 C14.25,12.2081951 11.4515334,15 8,15 C4.54846659,15 1.75,12.2081951 1.75,8.76487805 C1.75,6.41834147 3.04928807,4.37502439 4.96878423,3.31102439 C5.5424425,2.99278049 6.2475356,3.40526829 6.2475356,4.05951219 L6.2475356,4.0977561 C6.2475356,4.4105366 6.07639649,4.696 5.80257393,4.84897561 C5.44386637,5.0497561 5.11391018,5.29834146 4.81955093,5.59336585 C4.40607885,6.00585366 4.08159912,6.48663414 3.8543264,7.02068292 C3.62020811,7.5724878 3.5010953,8.15980487 3.50109528,8.7662439 C3.50109528,9.37268292 3.6202081,9.96 3.8543264,10.5118049 C4.08023001,11.0458537 4.40607887,11.5252683 4.81955093,11.9391219 C5.233023,12.3516098 5.71495071,12.6753171 6.25027382,12.9020488 C6.8033954,13.1328781 7.39211391,13.2517073 8,13.2517073 C8.60788609,13.2517073 9.1966046,13.1328781 9.74972618,12.8993171 C10.2850493,12.6739512 10.7656079,12.3488781 11.1804491,11.9363902 C11.5939211,11.5239024 11.9184009,11.0444878 12.1456736,10.5090732 C12.3797919,9.95726829 12.4989047,9.36995121 12.4989047,8.76351219 C12.4989047,8.15707316 12.3797919,7.56975609 12.1456736,7.01795121 C11.91977,6.48390243 11.5939211,6.0044878 11.1804491,5.59063415 C10.8847207,5.29697562 10.5561336,5.04702439 10.1974261,4.8462439 C9.92360351,4.69326829 9.7524644,4.40780487 9.7524644,4.09502439 L9.7524644,4.05951219 C9.7524644,3.40526829 10.4575575,2.99278048 11.0312158,3.31102439 Z M8,1 C8.48192772,1 8.8762322,1.39336585 8.8762322,1.87414634 L8.8762322,7.77463415 C8.8762322,8.25541465 8.48192772,8.64878049 8,8.64878049 C7.51807228,8.64878049 7.1237678,8.25541465 7.1237678,7.77463415 L7.1237678,1.87414634 C7.1237678,1.39336585 7.51807228,1 8,1 Z" id="形状结合" fill="#EA3636"></path>
                            <rect id="codesign_placeholder_name" x="0" y="0" width="16" height="16"></rect>
                        </g>
                    </g>
                </g>
            </g>
        </g>
    </g>
</svg>