<?xml version='1.0' encoding='iso-8859-1'?>
<svg version="1.1" xmlns="http://www.w3.org/2000/svg" viewBox="0 0 24 24" xmlns:xlink="http://www.w3.org/1999/xlink" enable-background="new 0 0 24 24">
  <g>
    <path fill="#5c94ff" d="M9,0C8.7,0,8.5,0.1,8.3,0.3l-8,8C0.1,8.5,0,8.7,0,9c0,0.3,0.1,0.5,0.3,0.7l1.4,1.4c0.2,0.2,0.5,0.3,0.7,0.3   c0.3,0,0.5-0.1,0.7-0.3l0,0l2-2C5.4,8.8,6,9,6,9.5V23c0,0.5,0.5,1,1,1h2c0.5,0,1-0.5,1-1V1c0-0.3-0.1-0.5-0.3-0.7   C9.5,0.1,9.3,0,9,0z"/>
    <path fill="#c7c9d0" d="m23.7,14.3l-1.4-1.4c-0.2-0.2-0.5-0.3-0.7-0.3-0.3,0-0.5,0.1-0.7,0.3l-2,2c-0.3,0.3-0.9,0.1-0.9-0.4v-13.5c0-0.5-0.5-1-1-1h-2c-0.5,0-1,0.5-1,1v22c0,0.3 0.1,0.5 0.3,0.7s0.5,0.3 0.7,0.3c0.3,0 0.5-0.1 0.7-0.3l8-8c0.2-0.2 0.3-0.4 0.3-0.7 0-0.3-0.1-0.5-0.3-0.7z"/>
  </g>
</svg>
