<svg xmlns="http://www.w3.org/2000/svg" viewBox="0 0 72 72" class="design-iconfont">
  <defs>
    <linearGradient x1="50%" y1="0%" x2="50%" y2="124.461967%" id="f02edqm64__v9nu4dxlga">
      <stop stop-color="#EAEBF0" offset="0%"/>
      <stop stop-color="#FAFBFD" offset="100%"/>
    </linearGradient>
  </defs>
  <path d="M68,52.3328571 C68,55.2807143 65.6142857,57.6657143 62.6664286,57.6657143 L9.33357143,57.6657143 C6.38571429,57.6657143 4,55.2807143 4,52.3328571 L4,41.6664286 C4,38.7185714 6.38571429,36.3328571 9.33357143,36.3328571 L62.6671429,36.3328571 C65.6142857,36.3328571 68,38.7185714 68,41.6664286 L68,52.3328571 Z M9.33357143,32.7885714 C8.345,32.7885714 6.81142857,33.095 5.90857143,33.47 L16.6264286,17.385 C17.4957143,16.0728571 19.4892857,15 21.0564286,15 L50.8921429,15 C52.4771429,15 54.4535714,16.0564286 55.3392857,17.385 L66.0571429,33.47 C64.9664286,33.0607143 63.8078571,32.8228571 62.6492857,32.7885714 L9.33357143,32.7885714 Z M43.105,47 C43.105,48.9592857 44.69,50.5614286 46.6664286,50.5614286 C48.6257143,50.5614286 50.2278571,48.9771429 50.2278571,47 C50.2278571,45.0407143 48.6264286,43.4385714 46.6664286,43.4385714 C44.7071429,43.4557143 43.105,45.0407143 43.105,47 Z M53.7721429,47 C53.7721429,48.9592857 55.3571429,50.5614286 57.3335714,50.5614286 C59.2928571,50.5614286 60.895,48.9771429 60.895,47 C60.895,45.0407143 59.2935714,43.4385714 57.3335714,43.4385714 C55.3735714,43.4557143 53.7721429,45.0407143 53.7721429,47 Z" fill="url(#f02edqm64__v9nu4dxlga)" fill-rule="nonzero" transform="matrix(-1 0 0 1 72 0)"/>
</svg>
