<svg xmlns="http://www.w3.org/2000/svg" viewBox="0 0 72 72" class="design-iconfont">
  <defs>
    <linearGradient x1="50%" y1="0%" x2="50%" y2="124.461967%" id="ekzeb0osc__vdddo2444a">
      <stop stop-color="#EAEBF0" offset="0%"/>
      <stop stop-color="#FAFBFD" offset="100%"/>
    </linearGradient>
  </defs>
  <path d="M6.90909087,16 L65.0909091,16 C66.6975557,16 68,17.3024444 68,18.9090909 L68,45.0909091 C68,46.6975557 66.6975557,48 65.0909091,48 L65.0909091,53.8181819 C65.0909091,55.4248284 63.7884648,56.7272728 62.1818182,56.7272728 L40.6138182,56.7272728 L37.7047273,53.8181819 L34.2952727,53.8181819 L31.3861818,56.7272728 L9.8181818,56.7272728 C8.21153524,56.7272728 6.90909087,55.4248284 6.90909087,53.8181819 L6.90909087,48 C5.30244433,48 4,46.6975557 4,45.0909091 L4,18.9090909 C4,17.3024444 5.30244433,16 6.90909087,16 Z M12.7272727,48.0000001 L12.7272727,50.9090909 L28.9774546,50.9090909 L31.8865454,48.0000001 L12.7272727,48.0000001 Z M40.1134546,48.0000001 L43.0225454,50.9090909 L59.2727273,50.9090909 L59.2727273,48.0000001 L40.1134546,48.0000001 Z M21.4545455,27.6363637 L15.6363636,27.6363637 L15.6363636,36.3636364 L21.4545455,36.3636364 L21.4545455,27.6363637 Z M27.2727273,27.6363637 L27.2727273,36.3636364 L33.0909091,36.3636364 L33.0909091,27.6363637 L27.2727273,27.6363637 Z M44.7272727,27.6363637 L38.9090909,27.6363637 L38.9090909,36.3636364 L44.7272727,36.3636364 L44.7272727,27.6363637 Z M50.5454545,27.6363637 L50.5454545,36.3636364 L56.3636364,36.3636364 L56.3636364,27.6363637 L50.5454545,27.6363637 Z" fill="url(#ekzeb0osc__vdddo2444a)" fill-rule="nonzero"/>
</svg>
