<svg xmlns="http://www.w3.org/2000/svg" viewBox="0 0 72 72" class="design-iconfont">
  <defs>
    <linearGradient x1="50%" y1="0%" x2="50%" y2="100%" id="3d6tb0yin__54zjep9fqa">
      <stop stop-color="#EAEBF0" offset="0%"/>
      <stop stop-color="#FAFBFD" offset="100%"/>
    </linearGradient>
  </defs>
  <path d="M50.3448029,61.9310215 L50.3448029,65.7931182 C50.3448029,67.0118472 49.3566501,68 48.1379212,68 C46.9191922,68 45.9310394,67.0118472 45.9310394,65.7931182 L45.9310394,61.9310215 L50.3448029,61.9310215 Z M26.0688891,61.9310215 L26.0688891,65.7931182 C26.0688891,67.0118472 25.0807363,68 23.8620073,68 C22.6432784,68 21.6551256,67.0118472 21.6551256,65.7931182 L21.6551256,61.9310215 L26.0688891,61.9310215 Z M38.206846,61.9310215 L38.206846,65.7931182 C38.206846,67.0118472 37.2186932,68 35.9999643,68 C34.7812353,68 33.7930825,67.0118472 33.7930825,65.7931182 L33.7930825,61.9310215 L38.206846,61.9310215 Z M56.2376856,12.8275985 C58.4587236,12.8275985 60.2758781,14.6448245 60.2758781,16.8657196 L60.2758781,56.2377571 C60.2758781,58.4586521 58.4587236,60.2758781 56.2377571,60.2758781 L16.8657196,60.2758781 C14.644753,60.2758781 12.8275985,58.4587236 12.8275985,56.2377571 L12.8275985,16.8657196 C12.8275985,14.6448245 14.644753,12.8275985 16.8657196,12.8275985 Z M46.1423115,20.9039121 L26.9610936,20.9039121 C23.6209212,20.9039121 20.9038406,23.6209927 20.9038406,26.9611651 L20.9038406,46.142383 C20.9038406,49.4825554 23.6209212,52.199636 26.9610936,52.199636 L46.1423115,52.199636 C49.4824839,52.199636 52.1995645,49.4825554 52.1995645,46.142383 L52.1995645,26.9611651 C52.1995645,23.6209927 49.4824839,20.9039121 46.1423115,20.9039121 Z M65.7931182,47.034516 C67.0118472,47.034516 68,48.0226689 68,49.2413978 C68,50.4601267 67.0118472,51.4482796 65.7931182,51.4482796 L61.9310215,51.4482796 L61.9310215,47.034516 Z M11.1723836,47.034516 L11.1723836,51.4482796 L6.20688176,51.4482796 C4.98815281,51.4482796 4,50.4601267 4,49.2413978 C4,48.0226689 4.98808131,47.034516 6.20688176,47.034516 L11.1723836,47.034516 Z M46.1423115,24.9420331 C47.2558691,24.9420331 48.161372,25.848108 48.161372,26.9611651 L48.161372,46.1423115 C48.161372,47.2553687 47.2558691,48.161372 46.1423115,48.161372 L26.9610936,48.161372 C25.847536,48.161372 24.9420331,47.2553687 24.9420331,46.1423115 L24.9420331,26.9610936 C24.9420331,25.8480365 25.847536,24.9420331 26.9610936,24.9420331 Z M11.1723836,34.8966306 L11.1723836,39.3103941 L6.20688176,39.3103941 C4.98815281,39.3103941 4,38.3222413 4,37.1035124 C4,35.8847119 4.98808131,34.8965591 6.20688176,34.8966306 L11.1723836,34.8966306 Z M65.7931182,34.8965591 C67.0118472,34.8965591 68,35.8847119 68,37.1034409 C68,38.3221698 67.0118472,39.3103226 65.7931182,39.3103226 L61.9310215,39.3103226 L61.9310215,34.8965591 Z M65.7931182,22.7586737 C67.0118472,22.7586737 68,23.7468265 68,24.9655555 C68,26.1842844 67.0118472,27.1724372 65.7931182,27.1724372 L61.9310215,27.1724372 L61.9310215,22.7586737 Z M11.1723836,22.7586737 L11.1723836,27.1724372 L6.20688176,27.1724372 C4.98815281,27.1724372 4,26.1842844 4,24.9655555 C4,23.746755 4.98808131,22.7586737 6.20688176,22.7586737 L11.1723836,22.7586737 Z M23.8620788,4 C25.0808078,4 26.0689606,4.98815281 26.0689606,6.20688176 L26.0689606,11.1723836 L21.6551971,11.1723836 L21.6551971,6.20688176 C21.6551971,4.98815281 22.6433499,4 23.8620788,4 Z M36.0000357,4 C37.2187647,4 38.2069175,4.98815281 38.2069175,6.20688176 L38.2069175,11.1723836 L33.793154,11.1723836 L33.793154,6.20688176 C33.793154,4.98815281 34.7813068,4 36.0000357,4 Z M48.1379212,4 C49.3566501,4 50.3448029,4.98815281 50.3448029,6.20688176 L50.3448029,11.1723836 L45.9310394,11.1723836 L45.9310394,6.20688176 C45.9310394,4.98815281 46.9191922,4 48.1379212,4 Z" fill="url(#3d6tb0yin__54zjep9fqa)" fill-rule="nonzero"/>
</svg>
