<?xml version="1.0" encoding="UTF-8"?>
<svg width="20px" height="20px" viewBox="0 0 20 20" version="1.1" xmlns="http://www.w3.org/2000/svg" xmlns:xlink="http://www.w3.org/1999/xlink">
    <title>Icon/特殊/流水线模板</title>
    <g id="模板管理" stroke="none" stroke-width="1" fill="none" fill-rule="evenodd">
        <g id="编辑模板-交互说明" transform="translate(-167.000000, -5424.000000)">
            <g id="编组-3备份-14" transform="translate(50.000000, 5360.000000)">
                <g id="模块/二级导航栏-编辑" transform="translate(-0.000000, 50.000000)">
                    <g id="编组-4" transform="translate(24.000000, 12.000000)">
                        <g id="Breadcrumb/14字号-箭头样式" transform="translate(24.000000, 0.000000)">
                            <g id="Icon/特殊/流水线模板" transform="translate(69.000000, 2.000000)">
                                <circle id="椭圆形备份" fill="#EAEBF0" cx="10" cy="10" r="10"></circle>
                                <path d="M15.6225207,7.5 L15.6225207,14.1666667 C15.6225207,16.0075 15.7204463,17.5 14.6854339,17.5 L5.31456608,17.5 C4.50955647,17.5 4.38990437,16.5971296 4.37647922,15.3297279 L4.37636763,14.5695418 C4.37665481,14.5035066 4.37693272,14.4368773 4.37713885,14.3697121 L4.3774793,7.5 L15.6225207,7.5 Z M12.7765234,14.375 L7.21851804,14.375 C6.8725207,14.375 6.8725207,14.5615625 6.8725207,14.7916667 L6.8725207,15.2083333 C6.8725207,15.4384375 6.8725207,15.625 7.21851804,15.625 L12.7765234,15.625 C13.1225207,15.625 13.1225207,15.4384375 13.1225207,15.2083333 L13.1221747,14.7240847 C13.1190607,14.5261156 13.087921,14.375 12.7765234,14.375 Z M12.7765234,11.875 L7.21851804,11.875 C6.8725207,11.875 6.8725207,12.0615625 6.8725207,12.2916667 L6.8725207,12.7083333 C6.8725207,12.9384375 6.8725207,13.125 7.21851804,13.125 L12.7765234,13.125 C13.1225207,13.125 13.1225207,12.9384375 13.1225207,12.7083333 L13.1221747,12.2240847 C13.1190607,12.0261156 13.087921,11.875 12.7765234,11.875 Z M12.7765234,9.375 L7.21851804,9.375 C6.8725207,9.375 6.8725207,9.5615625 6.8725207,9.79166667 L6.8725207,10.2083333 C6.8725207,10.4384375 6.8725207,10.625 7.21851804,10.625 L12.7765234,10.625 C13.1225207,10.625 13.1225207,10.4384375 13.1225207,10.2083333 L13.1221747,9.72408469 C13.1190607,9.52611562 13.087921,9.375 12.7765234,9.375 Z" id="Fill-4" fill="#A3C5FD" fill-rule="nonzero"></path>
                                <path d="M4.79396231,6.875 C3.64394859,6.875 3.75275477,6.3153125 3.75275477,5.625 L3.75275477,4.375 C3.75275477,3.6846875 3.64394859,3.125 4.79396231,3.125 L15.2060377,3.125 C16.3560514,3.125 16.2472452,3.6846875 16.2472452,4.375 L16.2472452,5.625 C16.2472452,6.3153125 16.3560514,6.875 15.2060377,6.875 L4.79396231,6.875 Z" id="Fill-1" fill="#3A84FF" fill-rule="nonzero"></path>
                                <rect id="codesign_placeholder_name" x="0" y="0" width="20" height="20"></rect>
                            </g>
                        </g>
                    </g>
                </g>
            </g>
        </g>
    </g>
</svg>