<?xml version="1.0" encoding="UTF-8"?>
<svg width="12px" height="14px" viewBox="0 0 12 14" version="1.1" xmlns="http://www.w3.org/2000/svg" xmlns:xlink="http://www.w3.org/1999/xlink">
    <title>Icon/3 面性图标/收藏</title>
    <g id="模板管理" stroke="none" stroke-width="1" fill="none" fill-rule="evenodd">
        <g id="新建模板-交互说明" transform="translate(-1804.000000, -2106.000000)">
            <g id="编组-3备份-7" transform="translate(1770.000000, 1890.000000)">
                <g id="编组-27" transform="translate(0.000000, 98.000000)">
                    <g id="Frame/左侧一级导航元件/一级未选中备份" transform="translate(0.000000, 105.000000)">
                        <g id="Icon/3-面性图标/收藏" transform="translate(32.000000, 12.000000)">
                            <path d="M13.4975932,5.5 L13.4975932,11.8333333 C13.4975932,12.035117 13.498868,12.2324949 13.4995687,12.4237974 L13.4996569,12.7978071 C13.4934523,14.0750253 13.3987242,15 12.5813242,15 L3.41863426,15 C2.60123422,15 2.5065061,14.0750253 2.5003015,12.7978071 L2.50121337,12.2305316 C2.5017987,12.1004201 2.50236527,11.9678558 2.50236527,11.8333333 L2.50236527,5.5 L13.4975932,5.5 Z M10.7148209,12.03125 L5.2802891,12.03125 C4.94197824,12.03125 4.94197824,12.2084844 4.94197824,12.4270833 L4.94197824,12.8229167 C4.94197824,13.0415156 4.94197824,13.21875 5.2802891,13.21875 L10.7148209,13.21875 C11.0531318,13.21875 11.0531318,13.0415156 11.0531318,12.8229167 L11.0527935,12.3628805 C11.0497487,12.1748098 11.0193007,12.03125 10.7148209,12.03125 Z M10.7148209,9.65625 L5.2802891,9.65625 C4.94197824,9.65625 4.94197824,9.83348437 4.94197824,10.0520833 L4.94197824,10.4479167 C4.94197824,10.6665156 4.94197824,10.84375 5.2802891,10.84375 L10.7148209,10.84375 C11.0531318,10.84375 11.0531318,10.6665156 11.0531318,10.4479167 L11.0527935,9.98788045 C11.0497487,9.79980984 11.0193007,9.65625 10.7148209,9.65625 Z M10.7148209,7.28125 L5.2802891,7.28125 C4.94197824,7.28125 4.94197824,7.45848437 4.94197824,7.67708333 L4.94197824,8.07291667 C4.94197824,8.29151562 4.94197824,8.46875 5.2802891,8.46875 L10.7148209,8.46875 C11.0531318,8.46875 11.0531318,8.29151562 11.0531318,8.07291667 L11.0527935,7.61288045 C11.0497487,7.42480984 11.0193007,7.28125 10.7148209,7.28125 Z" id="Fill-4" fill="#A3C5FD"></path>
                            <path d="M3.00220382,5 C1.89819064,5 2.00264458,4.403 2.00264458,3.66666667 L2.00264458,2.33333333 C2.00264458,1.597 1.89819064,1 3.00220382,1 L12.9977962,1 C14.1018094,1 13.9973554,1.597 13.9973554,2.33333333 L13.9973554,3.66666667 C13.9973554,4.403 14.1018094,5 12.9977962,5 L3.00220382,5 Z" id="Fill-1" fill="#3A84FF"></path>
                            <rect id="codesign_placeholder_name" x="0" y="0" width="16" height="16"></rect>
                        </g>
                    </g>
                </g>
            </g>
        </g>
    </g>
</svg>