<svg viewBox="0 0 1024 1024" version="1.1" xmlns="http://www.w3.org/2000/svg"><g fill="none" fill-rule="evenodd"><path fill="#EAEBF0" d="M1024 512A512 512 0 0 1 512 1024 512 512 0 0 1 0 512 512 512 0 0 1 1024 512z"/><path fill="#A3C5FD" fill-rule="nonzero" d="M799.8730592 384L799.8730592 725.3333344C799.8730592 819.584 804.886848 896 751.8942176 896L272.10578336 896C229.71167744 896 224.44168128 847.09376 224.02944704 779.2749216L224.05611808 749.1392384C224.090104 741.3595616 224.12693984 733.4119616 224.12693984 725.3333344L224.12693984 384 799.8730592 384ZM654.1579968 736L369.5881248 736C351.8730592 736 351.8730592 745.552 351.8730592 757.3333344L351.8795168 781.154448C351.9634432 791.7638368 353.1384224 800 369.5881248 800L654.1579968 800C671.8730592 800 671.8730592 790.448 671.8730592 778.6666656L671.8730592 757.3333344C671.8730592 745.552 671.8730592 736 654.1579968 736ZM654.1579968 608L369.5881248 608C351.8730592 608 351.8730592 617.552 351.8730592 629.3333344L351.8795168 653.154448C351.9634432 663.7638368 353.1384224 672 369.5881248 672L654.1579968 672C671.8730592 672 671.8730592 662.448 671.8730592 650.6666656L671.8730592 629.3333344C671.8730592 617.552 671.8730592 608 654.1579968 608ZM654.1579968 480L369.5881248 480C351.8730592 480 351.8730592 489.552 351.8730592 501.3333344L351.8795168 525.154448C351.9634432 535.7638368 353.1384224 544 369.5881248 544L654.1579968 544C671.8730592 544 671.8730592 534.448 671.8730592 522.6666656L671.8730592 501.3333344C671.8730592 489.552 671.8730592 480 654.1579968 480Z"/><path fill="#3A84FF" fill-rule="nonzero" d="M245.4508704 352C186.57016768 352 192.14104448 323.344 192.14104448 288L192.14104448 224C192.14104448 188.656 186.57016768 160 245.4508704 160L778.5491296 160C837.4298336 160 831.8589568 188.656 831.8589568 224L831.8589568 288C831.8589568 323.344 837.4298336 352 778.5491296 352L245.4508704 352Z"/></g></svg>