<svg viewBox="0 0 32 32" version="1.1" xmlns="http://www.w3.org/2000/svg"><path d="M31.9 12c-0.233-0.746-0.871-1.297-1.65-1.399l-8.59-1.361-3.78-8.040c-0.287-0.775-1.020-1.318-1.88-1.318s-1.593 0.542-1.876 1.304l-3.845 8.114-8.52 1.3c-1.045 0.073-1.865 0.938-1.865 1.995 0 0.61 0.273 1.155 0.703 1.522l6.243 6.482-1.46 8.98c-0.041 0.152-0.065 0.326-0.065 0.507 0 1.105 0.895 2 2 2 0.42 0 0.81-0.13 1.132-0.351l7.553-4.176 7.52 4.16c0.315 0.217 0.705 0.347 1.125 0.347 1.105 0 2-0.895 2-2 0-0.18-0.024-0.355-0.068-0.521l-1.437-9.046 6.24-6.4c0.387-0.365 0.627-0.882 0.627-1.454 0-0.231-0.039-0.453-0.111-0.66z"/></svg>