<svg viewBox="0 0 1024 1024" version="1.1" xmlns="http://www.w3.org/2000/svg"><g fill="none" fill-rule="evenodd"><path fill="#EAEBF0" d="M1024 512A512 512 0 0 1 512 1024 512 512 0 0 1 0 512 512 512 0 0 1 1024 512z"/><path fill="#A3C5FD" fill-rule="nonzero" d="M234.69017408 400C222.9140336 400 224.02820896 380.896 224.02820896 357.3333344L224.02820896 314.66666656C224.02820896 291.104 222.9140336 272 234.69017408 272L341.3098272 272C353.085968 272 351.971792 291.104 351.971792 314.66666656L351.971792 357.3333344C351.971792 380.896 353.085968 400 341.3098272 400L234.69017408 400Z"/><path fill="#3A84FF" fill-rule="nonzero" d="M448.0705216 400C412.7420992 400 416.0846272 380.896 416.0846272 357.3333344L416.0846272 314.66666656C416.0846272 291.104 412.7420992 272 448.0705216 272L767.9294784 272C803.2579008 272 799.9153728 291.104 799.9153728 314.66666656L799.9153728 357.3333344C799.9153728 380.896 803.2579008 400 767.9294784 400L448.0705216 400Z"/><path fill="#A3C5FD" fill-rule="nonzero" d="M234.69017408 592C222.9140336 592 224.02820896 572.896 224.02820896 549.3333344L224.02820896 506.6666656C224.02820896 483.104 222.9140336 464 234.69017408 464L341.3098272 464C353.085968 464 351.971792 483.104 351.971792 506.6666656L351.971792 549.3333344C351.971792 572.896 353.085968 592 341.3098272 592L234.69017408 592Z"/><path fill="#3A84FF" fill-rule="nonzero" d="M448.0705216 592C412.7420992 592 416.0846272 572.896 416.0846272 549.3333344L416.0846272 506.6666656C416.0846272 483.104 412.7420992 464 448.0705216 464L767.9294784 464C803.2579008 464 799.9153728 483.104 799.9153728 506.6666656L799.9153728 549.3333344C799.9153728 572.896 803.2579008 592 767.9294784 592L448.0705216 592Z"/><path fill="#A3C5FD" fill-rule="nonzero" d="M234.69017408 784C222.9140336 784 224.02820896 764.896 224.02820896 741.3333344L224.02820896 698.6666656C224.02820896 675.104 222.9140336 656 234.69017408 656L341.3098272 656C353.085968 656 351.971792 675.104 351.971792 698.6666656L351.971792 741.3333344C351.971792 764.896 353.085968 784 341.3098272 784L234.69017408 784Z"/><path fill="#3A84FF" fill-rule="nonzero" d="M448.0705216 784C412.7420992 784 416.0846272 764.896 416.0846272 741.3333344L416.0846272 698.6666656C416.0846272 675.104 412.7420992 656 448.0705216 656L767.9294784 656C803.2579008 656 799.9153728 675.104 799.9153728 698.6666656L799.9153728 741.3333344C799.9153728 764.896 803.2579008 784 767.9294784 784L448.0705216 784Z"/></g></svg>