<?xml version="1.0" encoding="UTF-8"?>
<svg width="13px" height="12.5px" viewBox="0 0 13 12.5" version="1.1" xmlns="http://www.w3.org/2000/svg" xmlns:xlink="http://www.w3.org/1999/xlink">
    <title>Icon/3 面性图标/收藏</title>
    <g id="模板管理" stroke="none" stroke-width="1" fill="none" fill-rule="evenodd">
        <g id="新建模板-交互说明" transform="translate(-1803.500000, -2186.750000)">
            <g id="编组-3备份-7" transform="translate(1770.000000, 1890.000000)">
                <g id="编组-27" transform="translate(0.000000, 98.000000)">
                    <g id="Frame/左侧一级导航元件/一级未选中备份-2" transform="translate(0.000000, 185.000000)">
                        <g id="Icon/3-面性图标/收藏" transform="translate(32.000000, 12.000000)">
                            <path d="M1.79230945,5.25 C1.4703056,5.25 1.50077134,4.727625 1.50077134,4.08333333 L1.50077134,2.91666667 C1.50077134,2.272375 1.4703056,1.75 1.79230945,1.75 L4.70769055,1.75 C5.0296944,1.75 4.99922866,2.272375 4.99922866,2.91666667 L4.99922866,4.08333333 C4.99922866,4.727625 5.0296944,5.25 4.70769055,5.25 L1.79230945,5.25 Z" id="Fill-1备份-4" fill="#A3C5FD"></path>
                            <path d="M6.70989437,5.25 C5.92788504,5.25 6.00187325,4.727625 6.00187325,4.08333333 L6.00187325,2.91666667 C6.00187325,2.272375 5.92788504,1.75 6.70989437,1.75 L13.7901056,1.75 C14.572115,1.75 14.4981268,2.272375 14.4981268,2.91666667 L14.4981268,4.08333333 C14.4981268,4.727625 14.572115,5.25 13.7901056,5.25 L6.70989437,5.25 Z" id="Fill-1备份-5" fill="#3A84FF"></path>
                            <path d="M1.79230945,9.75 C1.4703056,9.75 1.50077134,9.227625 1.50077134,8.58333333 L1.50077134,7.41666667 C1.50077134,6.772375 1.4703056,6.25 1.79230945,6.25 L4.70769055,6.25 C5.0296944,6.25 4.99922866,6.772375 4.99922866,7.41666667 L4.99922866,8.58333333 C4.99922866,9.227625 5.0296944,9.75 4.70769055,9.75 L1.79230945,9.75 Z" id="Fill-1备份-6" fill="#A3C5FD"></path>
                            <path d="M6.70989437,9.75 C5.92788504,9.75 6.00187325,9.227625 6.00187325,8.58333333 L6.00187325,7.41666667 C6.00187325,6.772375 5.92788504,6.25 6.70989437,6.25 L13.7901056,6.25 C14.572115,6.25 14.4981268,6.772375 14.4981268,7.41666667 L14.4981268,8.58333333 C14.4981268,9.227625 14.572115,9.75 13.7901056,9.75 L6.70989437,9.75 Z" id="Fill-1备份-7" fill="#3A84FF"></path>
                            <path d="M1.79230945,14.25 C1.4703056,14.25 1.50077134,13.727625 1.50077134,13.0833333 L1.50077134,11.9166667 C1.50077134,11.272375 1.4703056,10.75 1.79230945,10.75 L4.70769055,10.75 C5.0296944,10.75 4.99922866,11.272375 4.99922866,11.9166667 L4.99922866,13.0833333 C4.99922866,13.727625 5.0296944,14.25 4.70769055,14.25 L1.79230945,14.25 Z" id="Fill-1备份-8" fill="#A3C5FD"></path>
                            <path d="M6.70989437,14.25 C5.92788504,14.25 6.00187325,13.727625 6.00187325,13.0833333 L6.00187325,11.9166667 C6.00187325,11.272375 5.92788504,10.75 6.70989437,10.75 L13.7901056,10.75 C14.572115,10.75 14.4981268,11.272375 14.4981268,11.9166667 L14.4981268,13.0833333 C14.4981268,13.727625 14.572115,14.25 13.7901056,14.25 L6.70989437,14.25 Z" id="Fill-1备份-9" fill="#3A84FF"></path>
                            <rect id="codesign_placeholder_name" x="0" y="0" width="16" height="16"></rect>
                        </g>
                    </g>
                </g>
            </g>
        </g>
    </g>
</svg>