<?xml version="1.0" encoding="UTF-8"?>
<svg width="20px" height="20px" viewBox="0 0 20 20" version="1.1" xmlns="http://www.w3.org/2000/svg" xmlns:xlink="http://www.w3.org/1999/xlink">
    <title>Icon/特殊/流水线模板</title>
    <g id="模板管理" stroke="none" stroke-width="1" fill="none" fill-rule="evenodd">
        <g id="编辑模板-交互说明" transform="translate(-3607.000000, -5424.000000)">
            <g id="编组-3备份-23" transform="translate(3490.000000, 5360.000000)">
                <g id="模块/二级导航栏-编辑" transform="translate(0.000000, 50.000000)">
                    <g id="编组-4" transform="translate(24.000000, 12.000000)">
                        <g id="Breadcrumb/14字号-箭头样式" transform="translate(24.000000, 0.000000)">
                            <g id="Icon/特殊/流水线模板" transform="translate(69.000000, 2.000000)">
                                <circle id="椭圆形备份-2" fill="#EAEBF0" cx="10" cy="10" r="10"></circle>
                                <path d="M4.58379246,7.8125 C4.35378972,7.8125 4.37555095,7.439375 4.37555095,6.97916667 L4.37555095,6.14583333 C4.37555095,5.685625 4.35378972,5.3125 4.58379246,5.3125 L6.66620754,5.3125 C6.89621028,5.3125 6.87444905,5.685625 6.87444905,6.14583333 L6.87444905,6.97916667 C6.87444905,7.439375 6.89621028,7.8125 6.66620754,7.8125 L4.58379246,7.8125 Z" id="Fill-1备份-4" fill="#A3C5FD" fill-rule="nonzero"></path>
                                <path d="M8.75137739,7.8125 C8.06136915,7.8125 8.12665286,7.439375 8.12665286,6.97916667 L8.12665286,6.14583333 C8.12665286,5.685625 8.06136915,5.3125 8.75137739,5.3125 L14.9986226,5.3125 C15.6886308,5.3125 15.6233471,5.685625 15.6233471,6.14583333 L15.6233471,6.97916667 C15.6233471,7.439375 15.6886308,7.8125 14.9986226,7.8125 L8.75137739,7.8125 Z" id="Fill-1备份-5" fill="#3A84FF" fill-rule="nonzero"></path>
                                <path d="M4.58379246,11.5625 C4.35378972,11.5625 4.37555095,11.189375 4.37555095,10.7291667 L4.37555095,9.89583333 C4.37555095,9.435625 4.35378972,9.0625 4.58379246,9.0625 L6.66620754,9.0625 C6.89621028,9.0625 6.87444905,9.435625 6.87444905,9.89583333 L6.87444905,10.7291667 C6.87444905,11.189375 6.89621028,11.5625 6.66620754,11.5625 L4.58379246,11.5625 Z" id="Fill-1备份-6" fill="#A3C5FD" fill-rule="nonzero"></path>
                                <path d="M8.75137739,11.5625 C8.06136915,11.5625 8.12665286,11.189375 8.12665286,10.7291667 L8.12665286,9.89583333 C8.12665286,9.435625 8.06136915,9.0625 8.75137739,9.0625 L14.9986226,9.0625 C15.6886308,9.0625 15.6233471,9.435625 15.6233471,9.89583333 L15.6233471,10.7291667 C15.6233471,11.189375 15.6886308,11.5625 14.9986226,11.5625 L8.75137739,11.5625 Z" id="Fill-1备份-7" fill="#3A84FF" fill-rule="nonzero"></path>
                                <path d="M4.58379246,15.3125 C4.35378972,15.3125 4.37555095,14.939375 4.37555095,14.4791667 L4.37555095,13.6458333 C4.37555095,13.185625 4.35378972,12.8125 4.58379246,12.8125 L6.66620754,12.8125 C6.89621028,12.8125 6.87444905,13.185625 6.87444905,13.6458333 L6.87444905,14.4791667 C6.87444905,14.939375 6.89621028,15.3125 6.66620754,15.3125 L4.58379246,15.3125 Z" id="Fill-1备份-8" fill="#A3C5FD" fill-rule="nonzero"></path>
                                <path d="M8.75137739,15.3125 C8.06136915,15.3125 8.12665286,14.939375 8.12665286,14.4791667 L8.12665286,13.6458333 C8.12665286,13.185625 8.06136915,12.8125 8.75137739,12.8125 L14.9986226,12.8125 C15.6886308,12.8125 15.6233471,13.185625 15.6233471,13.6458333 L15.6233471,14.4791667 C15.6233471,14.939375 15.6886308,15.3125 14.9986226,15.3125 L8.75137739,15.3125 Z" id="Fill-1备份-9" fill="#3A84FF" fill-rule="nonzero"></path>
                                <rect id="codesign_placeholder_name" x="0" y="0" width="20" height="20"></rect>
                            </g>
                        </g>
                    </g>
                </g>
            </g>
        </g>
    </g>
</svg>