<svg xmlns="http://www.w3.org/2000/svg" viewBox="0 0 32 32" class="design-iconfont">
  <path d="M30,18.8788749 L30,26.25 L2,26.25 L2,26.1711331 L2,26.1711331 C8.74254214,25.2049717 23.8178861,21.5491551 30,18.8788749 Z M24.3580077,17.5614418 C24.3580077,19.6412532 13.9227189,22.4876401 2,24.4099114 L2,18.4247685 L2,18.4247685 C4.93046004,18.2879599 8.65335281,17.8673638 12.21662,17.4827597 L12.9040357,17.4088555 C18.954084,16.7615222 24.3580077,16.2796976 24.3580077,17.5614418 Z M3.2,21.85 C3.03431458,21.85 2.9,21.9843146 2.9,22.15 C2.9,22.3156854 3.03431458,22.45 3.2,22.45 C3.36568542,22.45 3.5,22.3156854 3.5,22.15 C3.5,21.9843146 3.36568542,21.85 3.2,21.85 Z M4.1,21.85 C3.93431458,21.85 3.8,21.9843146 3.8,22.15 C3.8,22.3156854 3.93431458,22.45 4.1,22.45 C4.26568542,22.45 4.4,22.3156854 4.4,22.15 C4.4,21.9843146 4.26568542,21.85 4.1,21.85 Z M3.2,20.05 C3.03431458,20.05 2.9,20.1843146 2.9,20.35 C2.9,20.5156854 3.03431458,20.65 3.2,20.65 C3.36568542,20.65 3.5,20.5156854 3.5,20.35 C3.5,20.1843146 3.36568542,20.05 3.2,20.05 Z M4.1,20.05 C3.93431458,20.05 3.8,20.1843146 3.8,20.35 C3.8,20.5156854 3.93431458,20.65 4.1,20.65 C4.26568542,20.65 4.4,20.5156854 4.4,20.35 C4.4,20.1843146 4.26568542,20.05 4.1,20.05 Z M30,7.36533927 L30,12.9451385 L30,12.9451385 C28.1193359,12.9451385 25.1801411,13.2709159 22.0970654,13.628469 L21.0652993,13.748427 L21.0652993,13.748427 L20.0304033,13.868319 C14.5159947,14.503265 9.1892393,15.0321515 9.1892393,13.8030848 C9.1892393,12.610506 14.3422373,10.7694102 19.7156324,9.35750253 L20.4173545,9.1758632 L20.4173545,9.1758632 L21.1191439,8.99962324 C24.6242054,8.13280764 28.0405749,7.48839822 30,7.36533927 Z M28.9853629,5.75 C20.1276405,7.22498422 5.72376252,11.2431369 2,13.2007773 L2,5.75 L28.9853629,5.75 L28.9853629,5.75 Z" fill="#313238" fill-rule="evenodd"/>
</svg>
