<svg fill="none" xmlns="http://www.w3.org/2000/svg" viewBox="0 0 80 80" class="design-iconfont">
  <path d="M38.8309 1.92879C59.8768 1.27701 77.467 17.8082 78.1216 38.8541C78.7766 59.9 62.2474 77.4924 41.2016 78.1498C20.1519 78.8077 2.55531 62.2748 1.90057 41.2249C1.24583 20.175 17.7809 2.58068 38.8309 1.92879Z" fill="#E6EBFF"/>
  <path d="M23.9939 23.5013C23.9826 21.7899 23.9317 20.0505 24.019 18.3436C24.0935 16.8841 25.3584 15.5475 26.8339 15.4878C28.5676 15.4177 30.3244 15.4546 32.0621 15.4582L41.9674 15.4611L48.9567 15.4607L63.1189 29.7684C63.1189 29.7684 63.1192 31.0837 63.1189 31.7433L63.1146 52.4184L63.1157 58.4663C63.1158 59.6841 63.1444 60.8521 63.0308 62.0529C62.8804 63.6428 61.5902 64.7889 60.0079 64.8281C57.7374 64.8842 55.4376 64.8525 53.1651 64.8495L39.8008 64.8439L31.1066 64.8472C30.7711 64.8479 30.2867 64.827 29.9691 64.851C22.8832 65.3872 24.0361 62.3257 23.9914 56.7006L23.9754 56.6526C22.0922 56.619 20.1873 56.7264 18.3147 56.6314C16.7468 56.5519 15.3969 55.4389 15.2678 53.8413C15.1355 52.2042 15.1843 50.5235 15.1858 48.8819L15.19 40.4942L15.1881 31.8443C15.1778 25.5833 14.2818 22.9764 22.1405 23.5091C22.7158 23.5481 23.3564 23.4861 23.9771 23.5585L23.9939 23.5013Z" fill="url(#b42oe907i__paint0_linear_573_352463)"/>
  <path d="M23.9754 56.6524C22.0922 56.6188 20.1873 56.7261 18.3147 56.6311C16.7468 56.5517 15.3969 55.4386 15.2678 53.8411C15.1355 52.204 15.1843 50.5233 15.1858 48.8817L15.19 40.494L15.1881 31.8441C15.1778 25.5831 14.2818 22.9762 22.1405 23.5089C22.7158 23.5479 23.3564 23.4859 23.9771 23.5582C24.0359 27.4299 23.9825 31.4381 23.9821 35.3191L23.9863 38.282C29.5985 38.2832 35.6055 38.3975 41.1836 38.2704C40.1247 37.1379 37.6508 35.1823 37.6099 33.6174C37.5745 32.2622 39.6094 31.1948 40.6955 32.1942C42.9524 34.1889 45.0087 36.411 47.1348 38.5565C47.8848 39.3131 48.0537 40.4565 47.383 41.382C45.3426 43.6121 43.1141 45.8079 40.9228 47.881C39.5687 49.162 37.4191 47.895 37.6166 46.3458C37.7979 44.924 40.2597 43.0824 41.2092 42.017C35.5355 42.1044 29.6722 42.0405 23.9858 42.0283C23.9835 42.9634 24.0129 44.1036 23.9755 45.0208C23.9865 48.7968 24.0676 52.8984 23.9754 56.6524Z" fill="#FDFDFE"/>
  <path d="M23.9939 23.5014C25.0374 23.5744 26.4582 23.5321 27.5339 23.5302L33.6048 23.52C35.0038 23.5179 37.0862 23.3016 38.2765 24.067C40.0088 25.181 39.7736 27.2228 39.7678 29.0392C38.2898 29.1473 37.0612 29.5381 36.0613 30.701C35.2488 31.6492 34.8477 32.8823 34.947 34.1271C34.9733 34.4506 35.0791 34.9889 35.1618 35.3043C31.4352 35.3296 27.7087 35.3346 23.9821 35.3195C23.9825 31.4385 24.0359 27.4303 23.9771 23.5586L23.9939 23.5014Z" fill="#E3EFFB"/>
  <path d="M23.9756 45.0215C27.5075 44.8917 31.6106 44.9914 35.1903 44.9957C34.7785 46.226 34.8381 47.38 35.416 48.5473C35.962 49.6412 36.9199 50.4737 38.0793 50.8617C38.7239 51.079 39.0923 51.1162 39.7524 51.0955C39.7748 52.6509 40.0112 54.5561 38.8189 55.6832C38.4949 55.9894 37.9889 56.38 37.5455 56.491C36.249 56.8153 34.022 56.626 32.8067 56.6657C31.6278 56.7042 24.3519 56.5631 23.9914 56.7011L23.9754 56.6531C24.0677 52.8991 23.9866 48.7975 23.9756 45.0215Z" fill="#E3EFFB"/>
  <path d="M63.0225 29.6849C61.6848 29.7533 52.9999 29.6849 52.9999 29.6849C50 29.6849 48.9999 27.9997 48.9999 25.9997L48.9999 15.459L63.0225 29.6849Z" fill="url(#b42oe907i__paint1_linear_573_352463)"/>
  <defs>
    <linearGradient id="b42oe907i__paint0_linear_573_352463" x1="39.1357" y1="15.4453" x2="39.1357" y2="64.9114" gradientUnits="userSpaceOnUse">
      <stop stop-color="#A0D2FF"/>
      <stop offset="1" stop-color="#2882FA"/>
    </linearGradient>
    <linearGradient id="b42oe907i__paint1_linear_573_352463" x1="56" y1="20" x2="56.0112" y2="29.7153" gradientUnits="userSpaceOnUse">
      <stop stop-color="#AFFFFF"/>
      <stop offset="1" stop-color="#41E1FF"/>
    </linearGradient>
  </defs>
</svg>
