<svg xmlns="http://www.w3.org/2000/svg" viewBox="0 0 12 12" class="design-iconfont">
  <path d="M12.9274302,5.761649 C13.5193397,5.76356365 13.9985681,6.24396379 14,6.83684134 L14,12.9248077 C13.9978555,13.5175582 13.5187786,13.9976118 12.9269954,14 L6.84895474,14 C6.25670556,13.9985636 5.7769494,13.518024 5.77551538,12.9248077 L5.77551538,6.83684134 C5.77718822,6.24379507 6.25687472,5.76351981 6.84895474,5.76208448 L8.35890004,5.76208448 L8.35890004,6.84032515 L6.84938952,6.84032515 L6.85243288,12.9256786 L12.9274302,12.9221948 L12.923952,6.83684134 L10.61534,6.84032515 L10.61534,5.761649 Z M9.15148002,2 C9.74339096,2.00143419 10.2230079,2.48144519 10.2249194,3.07432138 L10.2249194,9.16315866 C10.2237243,9.75630456 9.7440931,10.2369137 9.15191478,10.238351 L7.56197239,10.238351 L7.56197239,9.15967484 L9.15104526,9.15967484 L9.14756712,3.07475686 L3.0730046,3.07824067 L3.07648274,9.16315866 L5.30422811,9.15967484 L5.30422811,10.238351 L3.0730046,10.238351 C2.48119309,10.2364388 2.00190908,9.75637209 2,9.16359413 L2,3.07475686 C2.00167174,2.48188001 2.48109436,2.00167447 3.0730046,2 Z" fill="#979BA5" transform="translate(-2 -2)" fill-rule="evenodd"/>
</svg>
