<?xml version="1.0" encoding="UTF-8"?>
<svg width="15px" height="13.5px" viewBox="0 0 15 13.5" version="1.1" xmlns="http://www.w3.org/2000/svg" xmlns:xlink="http://www.w3.org/1999/xlink">
    <title>Icon/3 面性图标/收藏</title>
    <g id="模板管理" stroke="none" stroke-width="1" fill="none" fill-rule="evenodd">
        <g id="新建模板-交互说明" transform="translate(-1802.500000, -2066.000000)">
            <g id="编组-3备份-7" transform="translate(1770.000000, 1890.000000)">
                <g id="编组-27" transform="translate(0.000000, 98.000000)">
                    <g id="Frame/左侧一级导航元件/一级未选中备份-4" transform="translate(0.000000, 65.000000)">
                        <g id="Icon/3-面性图标/收藏" transform="translate(32.000000, 12.000000)">
                            <path d="M10.3333333,4.5 L5.66666667,4.5 C5.022375,4.5 4.5,3.977625 4.5,3.33333333 L4.5,2.16666667 C4.5,1.522375 5.022375,1 5.66666667,1 L10.3333333,1 C10.977625,1 11.5,1.522375 11.5,2.16666667 L11.5,3.33333333 C11.5,3.977625 10.977625,4.5 10.3333333,4.5 M10.3333333,9.5 L5.66666667,9.5 C5.022375,9.5 4.5,8.977625 4.5,8.33333333 L4.5,7.16666667 C4.5,6.522375 5.022375,6 5.66666667,6 L10.3333333,6 C10.977625,6 11.5,6.522375 11.5,7.16666667 L11.5,8.33333333 C11.5,8.977625 10.977625,9.5 10.3333333,9.5 M10.3333333,14.5 L5.66666667,14.5 C5.022375,14.5 4.5,13.977625 4.5,13.3333333 L4.5,12.1666667 C4.5,11.522375 5.022375,11 5.66666667,11 L10.3333333,11 C10.977625,11 11.5,11.522375 11.5,12.1666667 L11.5,13.3333333 C11.5,13.977625 10.977625,14.5 10.3333333,14.5" id="形状结合" fill="#979BA5"></path>
                            <path d="M13.4259259,7.75 L12,7.75 L12,6.5 L13.4259259,6.5 C13.9978519,6.5 14.462963,5.939375 14.462963,5.25 C14.462963,4.560625 13.9978519,4 13.4259259,4 L12,4 L12,2.75 L13.4259259,2.75 C14.5695185,2.75 15.5,3.8715625 15.5,5.25 C15.5,6.6284375 14.5695185,7.75 13.4259259,7.75 M4,12.75 L2.57407407,12.75 C1.43048148,12.75 0.5,11.6284375 0.5,10.25 C0.5,8.8715625 1.43048148,7.75 2.57407407,7.75 L4,7.75 L4,9 L2.57407407,9 C2.00214815,9 1.53703704,9.560625 1.53703704,10.25 C1.53703704,10.939375 2.00214815,11.5 2.57407407,11.5 L4,11.5 L4,12.75 Z" id="形状结合" fill="#C4C6CC"></path>
                            <rect id="codesign_placeholder_name" x="0" y="0" width="16" height="16"></rect>
                        </g>
                    </g>
                </g>
            </g>
        </g>
    </g>
</svg>