<?xml version="1.0" encoding="UTF-8"?>
<svg width="10.5px" height="9.625px" viewBox="0 0 10.5 9.625" version="1.1" xmlns="http://www.w3.org/2000/svg" xmlns:xlink="http://www.w3.org/1999/xlink">
    <title>视图</title>
    <g id="模板管理" stroke="none" stroke-width="1" fill="none" fill-rule="evenodd">
        <g id="新建模板-交互说明" transform="translate(-2387.750000, -2023.187500)">
            <g id="Tabs/胶囊-icon+文字" transform="translate(2280.000000, 2012.000000)">
                <g id="编组" transform="translate(4.000000, 4.000000)">
                    <g id="Tabs/胶囊样式/icon+文字/未选中" transform="translate(90.000000, 0.000000)">
                        <g id="编组" transform="translate(12.000000, 1.000000)">
                            <g id="视图" transform="translate(0.000000, 4.000000)">
                                <path d="M5.29622064,3.63199933 L11.7500922,3.63199933 C12.0261819,3.63199933 12.25,3.41642286 12.25,3.15049956 C12.25,2.88457626 12.0261819,2.66899978 11.7500922,2.66899978 L5.29622064,2.66899978 C5.02013096,2.66899978 4.79631288,2.88457626 4.79631288,3.15049956 C4.79631288,3.41642286 5.02013096,3.63199933 5.29622064,3.63199933 Z M5.29608004,7.47221586 L11.7262685,7.47221586 C12.0023582,7.47221586 12.2261763,7.25663938 12.2261763,6.99071608 C12.2261763,6.72479278 12.0023582,6.5092163 11.7262685,6.5092163 L5.29608004,6.5092163 C5.01999036,6.5092163 4.79617228,6.72479278 4.79617228,6.99071608 C4.79617228,7.25663938 5.01999036,7.47221586 5.29608004,7.47221586 Z M11.7500922,10.3707241 L5.29622064,10.3707241 C5.02013096,10.3707241 4.79631288,10.5863006 4.79631288,10.8522239 C4.79631288,11.1181472 5.02013096,11.3337237 5.29622064,11.3337237 L11.7500922,11.3337237 C12.0261819,11.3337237 12.25,11.1181472 12.25,10.8522239 C12.25,10.5863006 12.0261819,10.3707241 11.7500922,10.3707241 Z M1.75,3.15049956 C1.75,3.68234952 2.19763265,4.11349911 2.74981551,4.11349911 C3.30199837,4.11349911 3.74963102,3.68234952 3.74963102,3.15049956 C3.74963102,2.61864959 3.30199837,2.1875 2.74981551,2.1875 C2.19763265,2.1875 1.75,2.61864959 1.75,3.15049956 Z M1.75,6.98495313 C1.75,7.5168031 2.19763265,7.94795269 2.74981551,7.94795269 C3.30199837,7.94795269 3.74963102,7.5168031 3.74963102,6.98495313 C3.74963102,6.45310316 3.30199837,6.02195358 2.74981551,6.02195358 C2.19763265,6.02195358 1.75,6.45310316 1.75,6.98495313 Z M1.75,10.8495004 C1.75,11.3813504 2.19763265,11.8125 2.74981551,11.8125 C3.30199837,11.8125 3.74963102,11.3813504 3.74963102,10.8495004 C3.74963102,10.3176505 3.30199837,9.88650089 2.74981551,9.88650089 C2.19763265,9.88650089 1.75,10.3176505 1.75,10.8495004 Z" id="形状" fill="#979BA5"></path>
                                <rect id="codesign_placeholder_name" x="0" y="0" width="14" height="14"></rect>
                            </g>
                        </g>
                    </g>
                </g>
            </g>
        </g>
    </g>
</svg>