<?xml version="1.0" encoding="UTF-8"?>
<svg width="11.6551724px" height="13px" viewBox="0 0 11.6551724 13" version="1.1" xmlns="http://www.w3.org/2000/svg" xmlns:xlink="http://www.w3.org/1999/xlink">
    <title>蓝盾/升级</title>
    <g id="模板管理" stroke="none" stroke-width="1" fill="none" fill-rule="evenodd">
        <g id="新建模板-交互说明" transform="translate(-2824.000000, -2348.500000)">
            <g id="编组-3备份-7" transform="translate(1770.000000, 1890.000000)">
                <g id="模块/模板列表" transform="translate(264.000000, 170.000000)">
                    <g id="蓝盾/升级" transform="translate(787.000000, 287.000000)">
                        <path d="M13.9435365,4 L3.71009702,4 C3.48748966,4 3.36724918,3.6729354 3.51023785,3.45829926 L4.74514004,1.61651676 C4.79551105,1.54292723 4.86863026,1.5 4.94499921,1.5 L12.3982839,1.5 C12.4649036,1.5 12.5298984,1.53270646 12.5786446,1.58994276 L14.1255221,3.43172527 C14.2961336,3.63614064 14.1807677,4 13.9435365,4 Z M14.3889669,5 L3.26620553,5 C3.11904843,5 3,5.13348946 3,5.29849727 L3,14.2015027 C3,14.3665105 3.11904843,14.5 3.26620553,14.5 L14.3889669,14.5 C14.536124,14.5 14.6551724,14.3665105 14.6551724,14.2015027 L14.6551724,5.29849727 C14.653519,5.13348946 14.5344705,5 14.3889669,5 Z M10.3409356,9.93514529 L9.21372988,9.93514529 L9.21372988,12.2029975 C9.21372988,12.3661656 9.08925318,12.5 8.9336573,12.5 L8.27323925,12.5 C8.11937222,12.5 7.99316667,12.3679989 7.99316667,12.2029975 L7.99316667,9.93514529 L6.86596099,9.93514529 C6.61700759,9.93514529 6.49253089,9.61614263 6.66887289,9.42914108 L8.40636017,7.58662572 C8.51527728,7.47112476 8.69334812,7.47112476 8.80226523,7.58662572 L10.5380237,9.42730773 C10.7143657,9.61430929 10.589889,9.93514529 10.3409356,9.93514529 Z" id="形状" fill="#65C389" fill-rule="nonzero"></path>
                        <rect id="codesign_placeholder_name" x="0" y="0" width="16" height="16"></rect>
                    </g>
                </g>
            </g>
        </g>
    </g>
</svg>