<svg viewBox="0 0 1024 1024" version="1.1" xmlns="http://www.w3.org/2000/svg"><path  fill-rule="evenodd" d="M425.4140992 64.22973152C355.1687584 68.38763232 300.3250992 126.5545392 300.30215616 196.92282464L300.25621056 221.50412768 177.21185312 221.50412768C147.22361696 221.54054208 118.4821616 233.50719744 97.32904288 254.76375456 76.17592416 276.02031168 64.34961248 304.8197984 64.4594816 334.807856L64.22975008 484.4092096C64.2175536 493.5564672 67.84274144 502.3332544 74.30652448 508.8056544 80.77030752 515.2780576 89.54225536 518.9149344 98.68952128 518.914928L157.59275744 518.914928C197.2444672 518.914928 229.45286752 551.123328 229.45286656 590.7750368 229.45286656 630.4267456 197.2444672 662.6810912 157.59275744 662.6810944L98.64357472 662.6810944C79.62989728 662.6810752 64.2091552 678.0812576 64.18380352 697.0949184L64.00000928 846.7422176C63.98782976 876.775824 75.9100896 905.5835008 97.14274816 926.8247776 118.37540704 948.0660544 147.17824512 960 177.21185312 960L326.8591552 960C345.8907616 960 361.3189248 944.5718336 361.3189248 925.5402272L361.3189248 866.4532064C363.0042144 827.97656 394.6884704 797.6497024 433.2020096 797.6497024 471.7155456 797.6497024 503.3998016 827.97656 505.0850912 866.4532064L505.0850912 925.4942816C505.0850912 944.5160768 520.5230688 959.9540544 539.5448608 959.9540544L689.1921632 959.9540544 696.635472 959.7243232C756.1656736 955.8019264 802.4362304 906.3555456 802.4039968 846.696272L802.4039968 723.6519136 827.031248 723.6519136C900.4319904 723.6265568 959.9287136 664.1298336 959.9540704 590.7290912L959.7243392 582.918208C955.5664384 512.6728672 897.3995328 457.8292096 827.031248 457.8062656L802.4039968 457.8062656 802.4039968 334.7619104 802.1742656 327.3185984C798.2530272 267.8060736 748.8337312 221.54205664 689.1921632 221.55007424L566.1018592 221.50412768 566.1018592 196.92282464C566.0765216 123.5400128 506.6077792 64.05070912 433.2249824 64L425.4140992 64.22973152 425.4140992 64.22973152ZM433.2249824 132.9195424C468.5117856 132.9195424 497.2282624 161.59007232 497.2282624 196.92282464L497.2282624 256.00984544C497.2282624 275.03163936 512.6202944 290.46961696 531.6880352 290.46961696L689.1921632 290.46961696C713.6815712 290.46961696 733.4844544 310.22655264 733.4844544 334.7619104L733.4844544 492.2660384C733.4844544 511.3337792 748.922432 526.725808 767.9442272 526.725808L827.031248 526.725808C861.4361536 528.0296864 888.6548768 556.2994848 888.6548768 590.7290912 888.6548768 625.1586944 861.4361536 653.4284928 827.031248 654.7323712L767.9442272 654.7323712C748.9126208 654.7323712 733.4844544 670.1605376 733.4844544 689.192144L733.4844544 846.7422176 733.2087776 851.8882112C730.5969408 874.2164512 711.67264 891.046832 689.1921632 891.0345184L574.0046336 891.0345184 574.0046336 866.4072608C573.9539456 788.6778112 510.954432 725.6782976 433.2249824 725.6276096L424.9546368 725.8573408C350.5251168 730.2589312 292.41525536 791.8936544 292.39938272 866.4532064L292.39938272 891.0345184 177.21185312 891.0345184 172.06586144 890.758832C149.7376192 888.1469952 132.90724096 869.2226976 132.91955456 846.7422176L133.05740032 731.5087424 157.54681088 731.5087424C235.27626048 731.4580544 298.27577536 668.4585408 298.32646336 590.7290912L298.09673088 582.4587456C293.67181472 508.0473472 232.04370944 449.9638656 157.500864 449.9494368L133.1492928 449.9034912 133.3330784 334.807856C133.3330784 310.1346592 152.86028192 290.46961696 177.21185312 290.46961696L334.7619264 290.46961696C353.7935328 290.46961696 369.2216992 275.04145184 369.2216992 256.00984544L369.2216992 196.92282464C369.2216992 161.59007232 397.8922272 132.9195424 433.2249824 132.9195424Z"/></svg>