<svg xmlns="http://www.w3.org/2000/svg" viewBox="0 0 32 32" class="design-iconfont">
  <path d="M24,18 C27.3137085,18 30,20.6862915 30,24 C30,27.3137085 27.3137085,30 24,30 C20.6862915,30 18,27.3137085 18,24 C18,20.6862915 20.6862915,18 24,18 Z M16.1405063,25.5005823 C16.2740088,26.2040774 16.4996256,26.8749609 16.8043364,27.5002124 L11.4768426,27.5 L11.4768426,25.5 L16.1405063,25.5005823 Z M10.1768426,25.5 L10.1768426,27.5 L9.559,27.5 L8.455,25.5 L10.1768426,25.5 Z M20.6426902,21.2166546 C19.7690213,22.1405636 19.7884743,23.6086929 20.6865181,24.5080705 L23.3143216,27.1844065 L23.3632277,27.230891 C23.7545545,27.5818295 24.3385369,27.5905014 24.7397074,27.2512035 C24.7725979,27.2336254 24.8026759,27.2111253 24.829004,27.1843283 L26.3753268,25.6090894 L26.3776705,25.6114331 L27.3335266,24.6379146 C28.1957893,23.7525996 28.225008,22.3341579 27.4000108,21.412749 C26.5749355,20.4912619 25.185409,20.3904804 24.2404903,21.1835295 C24.2198654,21.1967327 24.2005686,21.2127484 24.1822093,21.2310297 L24.136272,21.2772017 L24.084319,21.3287643 L24.073694,21.3396238 L23.9351789,21.1988421 L23.8739291,21.1377482 C22.9576041,20.2575893 21.5164372,20.2927457 20.6426902,21.2166546 Z M22.3340125,21.1007168 C22.7883078,21.1007168 23.2240094,21.2844673 23.5452583,21.6116558 L23.5962738,21.6636091 C23.6493986,21.7177499 23.6492424,21.8054845 23.5958832,21.8593909 L22.3900279,23.0786132 C22.3367469,23.1325196 22.3365906,23.2203324 22.3897154,23.274395 C22.3897154,23.274395 22.563543,23.5452552 22.9368229,23.8316623 C23.1562753,24.0000222 23.8806478,24.0409598 24.3047089,23.609396 C24.3047089,23.609396 24.6797857,23.2611137 24.8125196,23.1484572 C24.9452536,23.0358006 25.1778309,23.2780669 25.2306432,23.3318952 L26.3589987,24.4814298 C26.3609518,24.4833829 26.6250134,24.7812744 26.4297016,24.9844 C26.2054836,25.2175257 26.1014215,25.0563534 26.0000156,24.9531499 L25.5859545,24.5937739 C25.4463456,24.4516641 25.2500181,24.445336 25.1718934,24.5234612 C25.0703313,24.625024 25.2140026,24.8257277 25.3535334,24.9678375 L25.7841569,25.4064325 C25.8371255,25.460417 25.8515786,25.6484645 25.7578289,25.7500273 C25.6640792,25.8515901 25.4826736,25.8273712 25.429705,25.7734648 L24.9609566,25.2578383 C24.6873638,24.9864313 24.5743955,25.0037751 24.5156457,25.0625253 C24.3515837,25.2265882 24.5390831,25.4219013 24.6718951,25.5859643 L25.148456,26.0312781 C25.2014246,26.0852626 25.1797059,26.2890913 25.0859562,26.3750291 C24.9922065,26.4609668 24.7639261,26.4368262 24.7109575,26.3828416 L24.2187717,25.9375278 C24.0791628,25.7953399 23.8790072,25.61323 23.7500233,25.7422147 C23.6406486,25.8515901 23.8448667,26.1156533 23.9843975,26.2578413 L24.3672087,26.6406549 C24.4258803,26.7004988 24.3820524,26.9057338 24.3125213,26.9765934 C24.2345529,27.0560467 24.0211161,27.0260466 23.9529913,26.9614371 L23.9426789,26.9512808 L21.122376,24.0788505 L21.0633918,24.0158816 C20.4869232,23.3670562 20.475989,22.3921398 21.0148921,21.7316555 L21.1227666,21.6116558 C21.4440155,21.2844673 21.879639,21.1007168 22.3340125,21.1007168 Z M26.9021219,21.740328 C27.5438384,22.413455 27.5157135,23.6541618 26.8593876,24.3125231 L26.8174356,24.2707778 C26.8044573,24.2578586 26.7889886,24.2424563 26.7717838,24.225318 L26.477784,23.9313903 C26.4620742,23.915562 26.4483995,23.9017319 26.4375141,23.8906468 C26.4375141,23.8906468 25.3593928,22.9687691 25.3515803,22.8281437 C25.3437678,22.6875183 25.6797042,22.4531426 25.6797042,22.4531426 C25.742204,22.3281423 25.6953291,22.1562668 25.6015794,22.0781415 C25.4262675,21.9320474 25.1997839,22.0529852 25.0547063,22.1953294 L23.9453351,23.2890826 C23.8750228,23.361114 23.8750228,23.445333 23.5625239,23.5234583 C23.5018991,23.5386146 23.1878377,23.4779894 23.1172129,23.4062704 L22.9062762,23.1953323 L24.0312723,22.1172042 L24.2890839,21.8750159 L24.570333,21.6328277 C25.2357994,20.9840758 26.2604053,21.0672011 26.9021219,21.740328 Z M16.503599,21.2002332 C16.2672528,21.8327778 16.1086745,22.5032549 16.0394971,23.2000316 L7.186,23.2 L6.082,21.2 L16.503599,21.2002332 Z M19.9489706,17.1000287 C19.0695845,17.6174384 18.2978193,18.2981621 17.6753604,19.1005142 L11.6768426,19.1 L11.6768426,17.1 L19.9489706,17.1000287 Z M10.3768426,17.1 L10.3768426,19.1 L4.924,19.1 L3.82,17.1 L10.3768426,17.1 Z M27.079,12.899 L28.169,14.899 L15.6768426,14.9 L15.6768426,12.9 L27.079,12.899 Z M14.3768426,12.9 L14.3768426,14.9 L3.822,14.899 L4.928,12.899 L14.3768426,12.9 Z M24.789,8.7 L25.88,10.7 L6.144,10.7 L7.25,8.7 L24.789,8.7 Z M22.499329,4.5 L23.59,6.5 L19.3768426,6.5 L19.3768426,4.5 L22.499329,4.5 Z M18.0768426,4.5 L18.0768426,6.5 L8.466,6.5 L9.57264222,4.5 L18.0768426,4.5 Z" fill="#313238" fill-rule="evenodd"/>
</svg>
