<?xml version="1.0" encoding="utf-8"?>
<!-- Generator: Adobe Illustrator 24.3.0, SVG Export Plug-In . SVG Version: 6.00 Build 0)  -->
<svg version="1.1" id="图层_1" xmlns="http://www.w3.org/2000/svg" xmlns:xlink="http://www.w3.org/1999/xlink" x="0px" y="0px"
	 viewBox="0 0 64 64" style="enable-background:new 0 0 64 64;" xml:space="preserve">
<path class="st0" d="M31.9,4h-0.4c-8.6,0.3-15.3,7.4-15,16c0.1,2.1,0.6,4.2,1.5,6.2c0.9-0.2,1.9-0.3,2.8-0.3h0.4
	c6,0,11.5,3.4,14,8.9c8.4-1.6,13.9-9.7,12.3-18.1C46,9.2,39.4,3.8,31.9,4z M36.9,29.9c-3.7-5.1-9.6-8.1-15.8-8.1h-0.4
	c-0.1-0.7-0.2-1.3-0.2-2C20.3,13.5,25.2,8.2,31.5,8h0.3c6.4,0,11.5,5.2,11.5,11.5C43.4,23.9,40.8,28,36.9,29.9z"/>
<path class="st0" d="M34.7,56.8c6.7,5.3,16.5,4.2,21.8-2.5s4.2-16.5-2.5-21.8c-0.2-0.1-0.4-0.3-0.5-0.4c-1.7-1.3-3.6-2.2-5.7-2.7
	c-0.4,0.8-0.9,1.6-1.5,2.4c-3.7,4.9-10,7.2-16,5.6C26.8,44,28.7,52.3,34.7,56.8L34.7,56.8z"/>
<path class="st0" d="M24.5,44.5c0-4.5,2-8.9,5.4-11.8c-6.5-5.6-16.3-4.8-21.9,1.7S3.2,50.6,9.7,56.1c5.8,5,14.4,5,20.2,0
	C26.4,53.3,24.5,49,24.5,44.5z M23.7,55.2c-6,2.1-12.6-1-14.7-6.9s1-12.6,6.9-14.7c2.5-0.9,5.3-0.9,7.9,0c-2.1,3.2-3.3,7-3.3,10.9
	C20.5,48.3,21.6,52,23.7,55.2z"/>
</svg>
