<svg width="32" height="32" viewBox="0 0 32 32" fill="none" xmlns="http://www.w3.org/2000/svg">
<path d="M16.552 6.66667H28C28.3536 6.66667 28.6927 6.80714 28.9428 7.05719C29.1928 7.30724 29.3333 7.64638 29.3333 8V26.6667C29.3333 27.0203 29.1928 27.3594 28.9428 27.6095C28.6927 27.8595 28.3536 28 28 28H3.99996C3.64634 28 3.3072 27.8595 3.05715 27.6095C2.8071 27.3594 2.66663 27.0203 2.66663 26.6667V5.33333C2.66663 4.97971 2.8071 4.64057 3.05715 4.39052C3.3072 4.14048 3.64634 4 3.99996 4H13.8853L16.552 6.66667ZM16 16H10.6666V18.6667H16V22.6667L21.3333 17.3333L16 12V16Z" fill="#4D4F56"/>
</svg>
