<?xml version="1.0" encoding="UTF-8"?>
<svg xmlns="http://www.w3.org/2000/svg" xmlns:xlink="http://www.w3.org/1999/xlink" width="16px" height="16px" viewBox="0 0 16 16" version="1.1">
  <g id="流水线组" stroke="none" stroke-width="1" fill="none" fill-rule="evenodd">
    <g  transform="translate(-3304.000000, -4218.000000)" fill-rule="nonzero">
      <g id="恢复" transform="translate(3312.000000, 4226.000000) scale(-1, 1) translate(-3312.000000, -4226.000000) translate(3304.000000, 4218.000000)">
        <rect id="矩形" fill="#000000" opacity="0" x="0" y="0" width="16" height="16"></rect>
        <path d="M14.6666667,2.66666667 C14.6666667,2.26666667 14.4,2 14,2 C13.6,2 13.3333333,2.26666667 13.3333333,2.66666667 L13.3333333,3.93333333 C13.1333333,3.66666666 12.8666667,3.46666666 12.7333333,3.26666667 C11.4666667,2 9.8,1.33333333 8,1.33333333 C4.33333333,1.33333333 1.33333333,4.33333333 1.33333333,8 C1.33333333,11.6666667 4.33333333,14.6666667 8,14.6666667 C9.8,14.6666667 11.4666667,14 12.7333333,12.7333333 C13,12.4666667 13,12.0666667 12.7333333,11.8 C12.4666667,11.5333333 12.0666667,11.5333333 11.8,11.8 C10.7333333,12.8 9.4,13.3333333 8,13.3333333 C5.06666667,13.3333333 2.66666667,10.9333333 2.66666667,8 C2.66666667,5.06666667 5.06666667,2.66666667 8,2.66666667 C9.4,2.66666667 10.7333333,3.2 11.8,4.2 C12,4.4 12.2666667,4.66666667 12.5333333,5 L11.0666667,5 C10.6666667,5 10.4,5.26666667 10.4,5.66666667 C10.4,6.06666667 10.6666667,6.33333333 11.0666667,6.33333333 L14.2,6.33333333 C14.2666667,6.33333333 14.2666667,6.26666666 14.3333333,6.26666667 C14.3333333,6.26666667 14.4,6.26666667 14.4,6.2 C14.4666667,6.13333333 14.4666667,6.13333333 14.4666667,6.06666667 L14.5333333,6 L14.5333333,5.86666667 L14.5333333,2.66666667 L14.6666667,2.66666667 Z" id="路径" fill="currentColor"></path>
      </g>
    </g>
  </g>
</svg>
