<?xml version="1.0" encoding="UTF-8"?>
<svg width="16px" height="16px" viewBox="0 0 16 16" version="1.1" xmlns="http://www.w3.org/2000/svg" xmlns:xlink="http://www.w3.org/1999/xlink">
    <title>Icon/3 面性图标/收藏</title>
    <g id="流水线组" stroke="none" stroke-width="1" fill="none" fill-rule="evenodd">
        <g id="流水线组展示与管理-交互说明" transform="translate(-82.000000, -3367.000000)">
            <g id="编组-3备份-2" transform="translate(50.000000, 2957.000000)">
                <g id="编组-27" transform="translate(0.000000, 110.000000)">
                    <g id="编组-24" transform="translate(0.000000, 244.000000)">
                        <g id="编组-23" transform="translate(0.000000, 44.000000)">
                            <g id="Icon/3-面性图标/收藏" transform="translate(32.000000, 12.000000)">
                                <path d="M6.4596,14.459165 L6.4596,15.999165 L4.1056,16 L4.1056,14.46 L6.4596,14.459165 Z M15.9996,14.459165 L16,16 L12.9596,15.999165 L12.9596,14.459165 L15.9996,14.459165 Z M10.9596,14.459165 L10.9596,15.999165 L8.4596,15.999165 L8.4596,14.459165 L10.9596,14.459165 Z M12.92,1.92 L12.92,12.92 L1.92,12.92 L1.92,1.92 L12.92,1.92 Z M15.9996,9.85916496 L15.9996,12.459165 L14.4596,12.459165 L14.4596,9.85916496 L15.9996,9.85916496 Z M16,4.96516496 L15.9996,7.85916496 L14.4596,7.85916496 L14.46,4.96516496 L16,4.96516496 Z" id="形状结合" fill="currentColor"></path>
                                <rect id="codesign_placeholder_name" x="0" y="0" width="16" height="16"></rect>
                            </g>
                        </g>
                    </g>
                </g>
            </g>
        </g>
    </g>
</svg>