<?xml version="1.0" encoding="UTF-8"?>
<svg width="15px" height="15px" viewBox="0 0 15 15" version="1.1" xmlns="http://www.w3.org/2000/svg" xmlns:xlink="http://www.w3.org/1999/xlink">
    <title>Icon/功能/加号</title>
    <defs>
        <filter color-interpolation-filters="auto" id="filter-1">
            <feColorMatrix in="SourceGraphic" type="matrix" values="0 0 0 0 1.000000 0 0 0 0 1.000000 0 0 0 0 1.000000 0 0 0 1.000000 0"></feColorMatrix>
        </filter>
    </defs>
    <g id="流水线" stroke="none" stroke-width="1" fill="none" fill-rule="evenodd">
        <g id="插件选取界面" transform="translate(-542.000000, -1588.000000)">
            <g id="项目插件" transform="translate(51.000000, 646.000000)">
                <g id="内容" transform="translate(0.000000, 90.000000)">
                    <g id="1" transform="translate(0.000000, 848.000000)">
                        <g id="Icon/功能/加号" transform="translate(490.000000, 4.000000)" filter="url(#filter-1)">
                            <g>
                                <path d="M2.2,0.8 L3.425,2 L13,2 C13,2 14.95,5.6 15,5.975 L15,5.975 L15,6.125 C15,6.725 14.7,7.3 14.225,7.65 C13.375,8.275 12.2,8.075 11.6,7.25 C11.55,7.2 11.475,7.15 11.4,7.15 C11.325,7.15 11.25,7.175 11.2,7.25 C10.85,7.725 10.3,8 9.7,8 C9.6,8 9.5,8 9.375,7.975 L9.375,7.975 L13,11.575 L13,9 L14,9 L14,12.575 L15.2,13.8 L14.5,14.5 L1.5,1.5 L2.2,0.8 Z M3,9 L3,13 L11.575,13 L12.575,14 L3,14 C2.45,14 2,13.55 2,13 L2,13 L2,9 L3,9 Z M9.5,11 L9.5,12 L6.5,12 L6.5,11 L9.5,11 Z M2.15,3.575 L2.9,4.325 C2.45,5.15 2.1,5.875 2,6.15 C2,6.425 2.15,6.675 2.35,6.825 C2.75,7.125 3.275,7.05 3.575,6.65 C3.8,6.325 4.175,6.15 4.575,6.15 L4.575,6.15 L4.725,6.15 L6.575,7.975 C6.475,8 6.4,8 6.3,8 C5.7,8 5.15,7.725 4.8,7.25 C4.8,7.225 4.775,7.225 4.75,7.2 C4.65,7.125 4.475,7.15 4.4,7.25 C4.025,7.725 3.475,8 2.875,8 C1.825,8 1,7.15 1,6.125 L1,6.125 L1,6 L1.01024832,5.95065642 C1.07937614,5.69604112 1.4623906,4.92372786 1.86862406,4.12561571 L2.0567067,3.75721555 L2.0567067,3.75721555 L2.15,3.575 Z M12.4,3 L4.425,3 L7.65,6.225 C7.775,6.175 7.9,6.15 8.025,6.15 C8.425,6.15 8.8,6.325 9.025,6.65 C9.075,6.7 9.125,6.775 9.2,6.825 C9.6,7.125 10.15,7.05 10.425,6.65 C10.5,6.55 10.575,6.475 10.675,6.4 C11.225,5.975 12,6.1 12.425,6.65 C12.575,6.875 12.825,7 13.1,7 C13.575,7.025 14,6.625 14,6.15 C13.85,5.75 13.125,4.325 12.4,3 L12.4,3 Z" id="形状结合" fill="#63656E" fill-rule="nonzero"></path>
                            </g>
                        </g>
                    </g>
                </g>
            </g>
        </g>
    </g>
</svg>