<svg viewBox="0 0 1024 1024" version="1.1" xmlns="http://www.w3.org/2000/svg"><path  d="M885.0912987428569 0L138.92124525714306 0C61.525313828571335 0 0 63.50760228571432 0 138.92125257142885L0 885.0913279999991C0 962.4872228571434 63.50757302857164 1024 138.92124525714306 1024L885.0912987428569 1024C960.5049709714283 1024 1024 960.4923977142856 1024 885.0913279999991L1024 138.92125257142885C1024 61.512777142856585 960.4924269714284 0 885.0912987428569 0ZM646.9441828571429 912.8679862857139L386.9796644571428 912.8679862857139C381.02033554285714 912.8679862857139 375.07355794285724 906.9086720000008 375.07355794285724 900.9619382857137 375.07355794285724 895.0151314285716 381.03288685714296 889.0558171428565 386.9796644571428 889.0558171428565L646.9441828571429 889.0558171428565C652.9035044571428 889.0558171428565 658.8502820571426 895.0151314285716 658.8502820571426 900.9619382857137 658.8502820571426 906.9086720000008 654.8857636571425 912.8679862857139 646.9441828571429 912.8679862857139L646.9441828571429 912.8679862857139ZM637.0203355428571 867.2258925714289L398.8857636571426 867.2258925714289C384.99740525714304 867.2258925714289 375.07355794285724 857.3020159999993 375.07355794285724 843.4136502857145 375.07355794285724 829.5252845714276 384.99740525714304 819.6014811428571 398.8857636571426 819.6014811428571L637.0203355428571 819.6014811428571C650.921245257143 819.6014811428571 660.8450852571431 829.5252845714276 660.8450852571431 843.4136502857145 660.8450852571431 855.3197714285717 650.921245257143 867.2258925714289 637.0203355428571 867.2258925714289ZM805.7131081142854 486.1930057142848L664.6088703999999 486.1930057142848C664.7343323428571 487.51030857142797 664.7970596571431 488.8276114285711 664.7970596571431 490.1700754285723L664.7970596571431 756.0938788571427C662.8148004571427 779.9061211428572 644.9493723428573 799.7538011428571 621.1371739428572 799.7538011428571L422.6979693714285 799.7538011428571C398.8857636571426 799.7538011428571 379.0380763428573 779.9061211428572 379.0380763428573 756.0938788571427L379.0380763428573 490.1700754285723C379.0380763428573 488.8276114285711 379.11335497142863 487.51030857142797 379.2262656 486.1930057142848L246.07616 486.1930057142848C216.3046326857142 488.1752502857146 200.43400777142855 452.45696000000004 222.2514102857141 430.62703542857236L502.06360868571414 150.81479314285804C515.9519744 136.92642742857112 535.7996544 136.92642742857112 549.6880201142859 150.81479314285804L829.5002185142854 430.62703542857236C851.3427090285716 452.4694674285711 835.4720914285712 486.1930057142848 805.7131081142854 486.1930057142848Z"/></svg>