<?xml version="1.0" encoding="UTF-8"?>
<svg width="32px" height="32px" viewBox="0 0 32 32" version="1.1" xmlns="http://www.w3.org/2000/svg" xmlns:xlink="http://www.w3.org/1999/xlink">
    <title>蓝盾/默认值</title>
    <g id="蓝盾/默认值" stroke="none" stroke-width="1" fill="none" fill-rule="evenodd">
        <path d="M16,2 C23.7319865,2 30,8.2680135 30,16 C30,23.7319865 23.7319865,30 16,30 C8.2680135,30 2,23.7319865 2,16 C2,8.2680135 8.2680135,2 16,2 Z M16,4 C9.372583,4 4,9.372583 4,16 C4,22.627417 9.372583,28 16,28 C22.627417,28 28,22.627417 28,16 C28,9.372583 22.627417,4 16,4 Z M19.8554688,9.38574219 C19.8554688,10.9899089 19.8417969,12.2021484 19.8144531,13.0224609 L22.5488281,13.0224609 L22.5488281,14.8134766 L20.0400391,14.8134766 C20.413737,17.6207682 21.3548177,19.6806641 22.8632812,20.9931641 C22.5169271,21.4944661 22.1341146,22.0914714 21.7148438,22.7841797 C20.4752604,21.7132161 19.6184896,19.944987 19.1445313,17.4794922 C18.8072917,19.6578776 17.9095052,21.4716797 16.4511719,22.9208984 C16.031901,22.3466797 15.5989583,21.8225911 15.1523437,21.3486328 C15.2617187,21.2529297 15.3688151,21.1572266 15.4736328,21.0615234 C15.2138672,20.601237 14.9290365,20.1591797 14.6191406,19.7353516 L15.4804688,19.2636719 C13.3522135,19.4003906 11.3333333,19.5621745 9.42382812,19.7490234 L9.24609375,18.2041016 L12.1308594,18.0878906 L12.1308594,17.3154297 L9.57421875,17.3154297 L9.57421875,16.0302734 L12.1308594,16.0302734 L12.1308594,15.3330078 L9.72460938,15.3330078 L9.72460938,9.90527344 L16.1503906,9.90527344 L16.1503906,15.3330078 L13.7441406,15.3330078 L13.7441406,16.0302734 L16.328125,16.0302734 L16.328125,17.3154297 L13.7441406,17.3154297 L13.7441406,18.0126953 L16.5742188,17.8486328 C16.5104167,18.3317057 16.4739583,18.7828776 16.4648438,19.2021484 L15.5898438,19.2568359 C15.813151,19.539388 16.0296224,19.8515625 16.2392578,20.1933594 C17.1826172,18.9856771 17.7454427,17.1923828 17.9277344,14.8134766 L16.4648438,14.8134766 L16.4648438,13.0224609 L18.0234375,13.0224609 C18.0416667,12.0882161 18.0507812,10.8759766 18.0507812,9.38574219 L19.8554688,9.38574219 Z M10.0390625,19.8720703 L11.1601562,20.2685547 C10.8684896,21.1708984 10.563151,22.0048828 10.2441406,22.7705078 L9.1640625,22.3603516 C9.4921875,21.6129557 9.78385417,20.7835286 10.0390625,19.8720703 Z M12.390625,19.9541016 C12.6458333,20.7561849 12.8509115,21.5218099 13.0058594,22.2509766 L11.8710938,22.5244141 C11.7526042,21.7679036 11.5748698,20.9977214 11.3378906,20.2138672 L12.390625,19.9541016 Z M14.0039062,19.6396484 C14.3776042,20.4235026 14.6920573,21.148112 14.9472656,21.8134766 L13.8535156,22.2236328 C13.5891927,21.4488932 13.3020833,20.710612 12.9921875,20.0087891 L14.0039062,19.6396484 Z M11.0097656,12.2978516 L11.0097656,14.1025391 L12.1308594,14.1025391 L12.1308594,13.4326172 L11.4472656,13.7060547 C11.3105469,13.2138672 11.1647135,12.7444661 11.0097656,12.2978516 Z M14.865,12.428 C14.7011719,12.8789062 14.5279948,13.3186849 14.3457031,13.7470703 L13.7441406,13.4941406 L13.7441406,14.1025391 L14.8652344,14.1025391 L14.865,12.428 Z M12.1308594,11.1357422 L11.0097656,11.1357422 L11.0097656,11.7509766 L11.5292969,11.5458984 C11.7298177,12.0244141 11.9303385,12.546224 12.1308594,13.1113281 L12.1308594,11.1357422 Z M14.8652344,11.1357422 L13.7441406,11.1357422 L13.7441406,13.1044922 C13.9674479,12.5530599 14.1634115,12.0380859 14.3320312,11.5595703 L14.8652344,11.7509766 L14.8652344,11.1357422 Z M21.4003906,9.71386719 C21.8834635,10.4430339 22.3027344,11.1494141 22.6582031,11.8330078 L21.1816406,12.5712891 C20.7988281,11.7236328 20.4205729,10.9671224 20.046875,10.3017578 L21.4003906,9.71386719 Z" id="形状结合" fill="#979BA5"></path>
    </g>
</svg>