<svg xmlns="http://www.w3.org/2000/svg" viewBox="0 0 72 72" class="design-iconfont">
  <defs>
    <linearGradient x1="50%" y1="0%" x2="50%" y2="100%" id="u7i4xqn5i__n1y79p3qqa">
      <stop stop-color="#EAEBF0" offset="0%"/>
      <stop stop-color="#FAFBFD" offset="100%"/>
    </linearGradient>
  </defs>
  <path d="M58.9420161,4 C60.7118644,4 62.1391615,5.43443354 62.1391615,7.19714541 C62.1391615,8.95985727 60.7118644,10.3942908 58.9420161,10.3942908 L56.465,10.394 L56.4656557,25.3951829 C56.4656557,29.6556646 54.5245317,33.4665477 51.4843889,36 C54.5245317,38.5334523 56.4656557,42.3514719 56.4656557,46.6048171 L56.465,61.605 L58.9420161,61.6057092 C60.7118644,61.6057092 62.1391615,63.0401427 62.1391615,64.8028546 C62.1391615,66.5655665 60.7118644,68 58.9420161,68 L53.2987016,67.9998596 C53.2886487,67.9999531 53.2785848,68 53.2685103,68 L18.8706512,68 L18.84,67.999 L13.1971454,68 C11.4272971,68 10,66.5655665 10,64.8028546 C10,63.0401427 11.4344335,61.6057092 13.1971454,61.6057092 L15.673,61.605 L15.6735058,46.6048171 C15.6735058,42.3514719 17.6074933,38.5334523 20.647636,36 C20.3264942,35.73595 20.0196253,35.4504906 19.719893,35.1578947 C17.1079393,32.5459411 15.6735058,29.0776093 15.6735058,25.3880464 L15.673,10.394 L13.1971454,10.3942908 C11.4272971,10.3942908 10,8.95985727 10,7.19714541 C10,5.43443354 11.4344335,4 13.1971454,4 L58.9420161,4 Z M50.0713649,10.4014273 L22.0749331,10.4014273 L22.0749331,25.3951829 C22.0749331,27.3791258 22.8456735,29.234612 24.2444246,30.6404996 C25.6431757,32.0392507 27.4986619,32.8099911 29.4754683,32.8099911 C31.2453167,32.8171276 32.6797502,34.2444246 32.6797502,36.0071365 C32.6797502,37.7769848 31.2524532,39.2042819 29.4897413,39.2114184 L29.4754683,39.2114184 C25.3862623,39.2185549 22.0677966,42.5370205 22.0677966,46.6190901 L22.0677966,61.5985727 L50.0642284,61.5985727 L50.0642284,46.6048171 C50.0642284,42.5227475 46.7386262,39.1971454 42.6565566,39.1971454 C40.8867083,39.1971454 39.4522748,37.7627119 39.4522748,36 C39.4522748,34.2372881 40.8795718,32.8028546 42.6422837,32.8028546 C46.7457627,32.8028546 50.0713649,29.4772525 50.0713649,25.3951829 L50.0713649,10.4014273 Z M46.9527208,22.4620874 L46.9527208,25.0026762 C46.9527208,27.293488 45.0829616,29.1561106 42.7778769,29.1561106 C39.0954505,29.1632471 36.1052632,32.1605709 36.1052632,35.8429973 C36.1052632,39.5325602 39.1097235,42.529884 42.7992864,42.529884 C45.0900981,42.529884 46.9527208,44.3925067 46.9527208,46.6833185 L46.9527208,58.5941124 L25.1864407,58.5941124 L25.1864407,46.690455 C25.1864407,44.3996432 27.0561998,42.5370205 29.3541481,42.5370205 C33.0365745,42.529884 36.0338983,39.5325602 36.0338983,35.8429973 C36.0338983,32.1677074 33.0365745,29.1703836 29.3398751,29.1561106 C28.2337199,29.1561106 27.191793,28.720785 26.4067797,27.9357716 C25.6217663,27.1507583 25.1864407,26.1016949 25.1864407,24.9955397 L25.1864407,22.4620874 L46.9527208,22.4620874 Z" fill="url(#u7i4xqn5i__n1y79p3qqa)" fill-rule="nonzero"/>
</svg>
