<svg xmlns="http://www.w3.org/2000/svg" viewBox="0 0 16 17" class="design-iconfont">
  <path d="M8.46666667,13.1384615 C8.46495726,14.1675214 7.63760684,15 6.6017094,15 C5.57435897,15 4.74017094,14.1692308 4.73846154,13.1384615 Z M11.3965812,6.74017094 C13.3401709,6.74017094 14.9162393,8.31452991 14.9162393,10.2581197 C14.9162393,12.2017094 13.3401709,13.7760684 11.3965812,13.7760684 C9.45299145,13.7760684 7.87863248,12.2017094 7.87863248,10.2581197 C7.87863248,8.31452991 9.45299145,6.74017094 11.3965812,6.74017094 Z M6.60683761,1 C7.29401709,1 7.85128205,1.54529915 7.85128205,2.21196581 C7.85128205,2.27863248 7.84444444,2.34529915 7.83418803,2.41025641 C9.58290598,2.97094017 10.7299145,4.38290598 10.8051282,6.38974359 C8.91452991,6.62222222 7.45128205,8.23418803 7.45128205,10.1863248 C7.45128205,10.9247863 7.65982906,11.6136752 8.02222222,12.1982906 L1.62222222,12.1982906 C1.27863248,12.1982906 1,11.9299145 1,11.5931624 C1,11.2598291 1.27863248,10.9880342 1.63931624,10.9880342 C2.24615385,10.965812 2.40683761,8.93504274 2.40683761,8.93504274 L2.40683761,6.6017094 C2.40683761,4.48376068 3.65641026,2.99316239 5.37948718,2.41196581 C5.36923077,2.34700855 5.36239316,2.28034188 5.36239316,2.21196581 C5.36239316,1.54188034 5.91965812,1 6.60683761,1 Z M11.3982906,8.05982906 C11.1555556,8.05982906 10.9589744,8.25641026 10.9589744,8.4991453 L10.9589744,10.2598291 C10.9589744,10.3811966 11.0068376,10.4905983 11.0871795,10.5692308 L11.965812,11.4478632 C12.0512821,11.5333333 12.1641026,11.5760684 12.2769231,11.5760684 C12.3897436,11.5760684 12.5025641,11.5333333 12.5880342,11.4478632 C12.7589744,11.2769231 12.7589744,10.9982906 12.5880342,10.8273504 L11.8376068,10.0769231 L11.8376068,8.4991453 C11.8376068,8.25641026 11.6410256,8.05982906 11.3982906,8.05982906 Z" fill="#979BA5" transform="translate(0 .3821)" fill-rule="evenodd"/>
</svg>
