<?xml version="1.0" encoding="UTF-8"?>
<svg width="16px" height="16px" viewBox="0 0 16 16" version="1.1" xmlns="http://www.w3.org/2000/svg" xmlns:xlink="http://www.w3.org/1999/xlink">
    <!-- Generator: Sketch 53 (72520) - https://sketchapp.com -->
    <title>合并形状</title>
    <desc>Created with Sketch.</desc>
    <g id="二期" stroke="none" stroke-width="1" fill="none" fill-rule="evenodd">
        <g id="新建流水线" transform="translate(-665.000000, -174.000000)" fill="#979BA5" fill-rule="nonzero">
            <path d="M680.272727,190 L665.727273,190 C665.325455,190 665,189.674182 665,189.272727 L665,174.727273 C665,174.325455 665.325455,174 665.727273,174 L680.272727,174 C680.674545,174 681,174.325455 681,174.727273 L681,189.272727 C681,189.674182 680.674545,190 680.272727,190 Z M673.727273,176.181818 C673.325455,176.181818 673,176.507273 673,176.909091 C673,177.310545 673.325455,177.636364 673.727273,177.636364 C674.129091,177.636364 674.454545,177.310545 674.454545,176.909091 C674.454545,176.507273 674.129091,176.181818 673.727273,176.181818 Z M675.909091,176.181818 C675.507273,176.181818 675.181818,176.507273 675.181818,176.909091 C675.181818,177.310545 675.507273,177.636364 675.909091,177.636364 C676.310909,177.636364 676.636364,177.310545 676.636364,176.909091 C676.636364,176.507273 676.310909,176.181818 675.909091,176.181818 Z M678.090909,176.181818 C677.689091,176.181818 677.363636,176.507273 677.363636,176.909091 C677.363636,177.310545 677.689091,177.636364 678.090909,177.636364 C678.492727,177.636364 678.818182,177.310545 678.818182,176.909091 C678.818182,176.507273 678.492727,176.181818 678.090909,176.181818 Z M679.545455,179.004743 L666.454545,179.004743 L666.454545,187.818182 C666.454545,188.219636 666.78,188.545455 667.181818,188.545455 L678.818182,188.545455 C679.22,188.545455 679.545455,188.219636 679.545455,187.818182 L679.545455,179.004743 Z M668,180 L678,180 L678,183 L668,183 L668,180 Z M668,184 L671,184 L671,187 L668,187 L668,184 Z M672,184 L678,184 L678,187 L672,187 L672,184 Z M669,181 L669,182 L677,182 L677,181 L669,181 Z M669,185 L669,186 L670,186 L670,185 L669,185 Z M673,185 L673,186 L677,186 L677,185 L673,185 Z" id="合并形状"></path>
        </g>
    </g>
</svg>