<?xml version="1.0" encoding="UTF-8"?>
<svg xmlns="http://www.w3.org/2000/svg" xmlns:xlink="http://www.w3.org/1999/xlink" width="16px" height="16px" viewBox="0 0 16 16" version="1.1">
  <title>Icon/2 线性图标/耗时备份</title>
  <g id="流水线" stroke="none" stroke-width="1" fill="none" fill-rule="evenodd">
    <g id="调试/执行流水线-交互说明" transform="translate(-2323.000000, -4689.000000)">
      <g id="编组-25备份-4" transform="translate(1993.000000, 4687.000000)">
        <g id="编组-2备份-2" transform="translate(330.000000, 0.000000)">
          <g id="Icon/2-线性图标/耗时备份" transform="translate(0.000000, 2.000000)">
            <path d="M9.66688927,9.52328675 C9.75478971,9.65950552 7.98408847,12.1750398 7.58464666,12.2870373 C7.18520485,12.3990348 6.94182078,12.3872864 6.61218261,12.4992839 C6.53636583,12.5250433 6.46431283,12.5691131 6.39602361,12.6314931 C6.13219984,13.4278888 5.38291178,14 4.5,14 C3.3954305,14 2.5,13.1045695 2.5,12 C2.5,10.8954305 3.3954305,10 4.5,10 C5.20788714,10 5.82987748,10.3677679 6.18532785,10.9226606 C6.37798852,11.0696691 6.94958673,11.0941961 7.1167828,10.9076669 C7.30405255,10.6987429 8.34279171,9.17225746 8.49919559,9.08274945 C8.65559946,8.99324144 9.57898883,9.38706798 9.66688927,9.52328675 Z M4.5,11 C3.94771525,11 3.5,11.4477153 3.5,12 C3.5,12.5522847 3.94771525,13 4.5,13 C5.05228475,13 5.5,12.5522847 5.5,12 C5.5,11.4477153 5.05228475,11 4.5,11 Z M4.5,3 C5.21079172,3 5.83498029,3.37079213 6.18968979,3.92950045 C6.45927565,4.02887864 7.00799536,3.989722 7.5,4.504375 C8.06941337,5.10000007 9.20331085,7.03535339 9.7228306,7.55775336 C9.9361541,7.73587839 10.4083369,7.63962257 10.5806358,7.44313692 C10.8203237,6.60904178 11.5890372,6 12.5,6 C13.6045695,6 14.5,6.8954305 14.5,8 C14.5,9.1045695 13.6045695,10 12.5,10 C11.7605774,10 11.1148753,9.59873509 10.7687705,9.00208215 C10.6125852,8.80668544 9.92166874,9.00306733 9.36897496,8.77413215 C8.14200107,8.12875705 7.24299401,5.6139505 6.80501982,5.6139505 C6.47071801,5.6139505 6.3915858,5.8526119 6.20051771,6.05417721 C5.8473608,6.62181179 5.21784569,7 4.5,7 C3.3954305,7 2.5,6.1045695 2.5,5 C2.5,3.8954305 3.3954305,3 4.5,3 Z M12.5,7 C11.9477153,7 11.5,7.44771525 11.5,8 C11.5,8.55228475 11.9477153,9 12.5,9 C13.0522847,9 13.5,8.55228475 13.5,8 C13.5,7.44771525 13.0522847,7 12.5,7 Z M4.5,4 C3.94771525,4 3.5,4.44771525 3.5,5 C3.5,5.55228475 3.94771525,6 4.5,6 C5.05228475,6 5.5,5.55228475 5.5,5 C5.5,4.44771525 5.05228475,4 4.5,4 Z" id="形状结合" fill="#63656E"></path>
            <rect id="codesign_placeholder_name" x="0" y="0" width="16" height="16"></rect>
          </g>
        </g>
      </g>
    </g>
  </g>
</svg>
