<?xml version="1.0" encoding="UTF-8"?>
<svg xmlns="http://www.w3.org/2000/svg" xmlns:xlink="http://www.w3.org/1999/xlink" width="16px" height="16px" viewBox="0 0 16 16" version="1.1">
  <title>Icon/3 面性图标/圆-警示</title>
  <g id="流水线" stroke="none" stroke-width="1" fill="none" fill-rule="evenodd">
    <g id="调试/执行流水线-交互说明" transform="translate(-2107.000000, -4848.000000)">
      <g id="编组-25备份-8" transform="translate(1993.000000, 4846.000000)">
        <g id="编组-2备份-2" transform="translate(114.000000, 0.000000)">
          <g id="Icon/3-面性图标/圆-警示" transform="translate(0.000000, 2.000000)">
            <path d="M13.1428571,3.125 C13.6571429,3.125 14,3.46785714 14,3.98214286 L14,3.98214286 L14,11.2678571 C14,11.7821429 13.6571429,12.125 13.1428571,12.125 L13.1428571,12.125 L8,12.125 C6.8,13.2392857 5.68571429,13.8392857 4.57142857,13.8392857 L4.57142857,13.8392857 L4.57142857,12.125 L2.85714286,12.125 C2.34285714,12.125 2,11.7821429 2,11.2678571 L2,11.2678571 L2,3.98214286 C2,3.46785714 2.34285714,3.125 2.85714286,3.125 L2.85714286,3.125 Z M13.1428571,3.98214286 L2.85714286,3.98214286 L2.85714286,11.2678571 L5.42857143,11.2678571 L5.42857143,12.8107143 C6.02857143,12.6392857 6.71428571,12.2107143 7.4,11.525 L7.4,11.525 L7.65714286,11.2678571 L13.1428571,11.2678571 L13.1428571,3.98214286 Z M5.42857143,6.81071429 C5.90195836,6.81071429 6.28571429,7.19447021 6.28571429,7.66785714 C6.28571429,8.14124407 5.90195836,8.525 5.42857143,8.525 C4.9551845,8.525 4.57142857,8.14124407 4.57142857,7.66785714 C4.57142857,7.19447021 4.9551845,6.81071429 5.42857143,6.81071429 Z M8,6.81071429 C8.47338693,6.81071429 8.85714286,7.19447021 8.85714286,7.66785714 C8.85714286,8.14124407 8.47338693,8.525 8,8.525 C7.52661307,8.525 7.14285714,8.14124407 7.14285714,7.66785714 C7.14285714,7.19447021 7.52661307,6.81071429 8,6.81071429 Z M10.5714286,6.81071429 C11.0448155,6.81071429 11.4285714,7.19447021 11.4285714,7.66785714 C11.4285714,8.14124407 11.0448155,8.525 10.5714286,8.525 C10.0980416,8.525 9.71428571,8.14124407 9.71428571,7.66785714 C9.71428571,7.19447021 10.0980416,6.81071429 10.5714286,6.81071429 Z" id="形状结合" fill="#63656E"></path>
            <rect id="codesign_placeholder_name" x="0" y="0" width="16" height="16"></rect>
          </g>
        </g>
      </g>
    </g>
  </g>
</svg>
