<?xml version="1.0" encoding="UTF-8"?>
<svg xmlns="http://www.w3.org/2000/svg" xmlns:xlink="http://www.w3.org/1999/xlink" width="14px" height="12px" viewBox="0 0 14 12" version="1.1">
  <title>Icon/2 线性图标/tag</title>
  <g id="流水线" stroke="none" stroke-width="1" fill="none" fill-rule="evenodd">
    <g id="调试/执行流水线-交互说明" transform="translate(-2217.000000, -4730.000000)" fill="#63656E">
      <g id="编组-25备份-5" transform="translate(1993.000000, 4726.000000)">
        <g id="编组-2备份-2" transform="translate(223.000000, 0.000000)">
          <g id="Icon/2-线性图标/tag" transform="translate(1.500000, 4.000000)">
            <path d="M4.664859,0 C4.88937093,0 5.06399132,0.071875 5.21366594,0.239583333 L5.21366594,0.239583333 L11.2006508,6.27708333 C11.4002169,6.46875 11.5,6.73229167 11.5,6.99583333 C11.5,7.259375 11.4002169,7.52291667 11.2006508,7.71458333 L11.2006508,7.71458333 L7.68329718,11.1885417 C7.48373102,11.4041667 7.20932755,11.5 6.93492408,11.5 C6.66052061,11.5 6.38611714,11.3802083 6.21149675,11.1885417 L6.21149675,11.1885417 L0.199566161,5.27083333 C0.0748373102,5.12708333 0,4.959375 0,4.76770833 L0,4.76770833 L0,1.00625 C0,0.742708333 0.0997830803,0.479166667 0.299349241,0.2875 C0.498915401,0.0958333333 0.748373102,0 1.02277657,0 L1.02277657,0 Z M7.22916667,0 L13.2326389,6.12212944 C13.4027778,6.31419624 13.5,6.5782881 13.5,6.86638831 C13.5,7.13048017 13.4027778,7.39457203 13.2083333,7.58663883 L13.2083333,7.58663883 L9.34375,11.5 L8.59027778,10.7557411 L12.4791667,6.89039666 L6.5,0.720250522 L7.22916667,0 Z M4.54013015,1.05416667 L1.04772234,1.05416667 L1.04772234,4.62395833 L6.93492408,10.421875 L7.45878525,9.89479167 L8.0824295,9.29583333 L10.4273319,6.99583333 L4.54013015,1.05416667 Z M3.22890295,2.00203535 C3.56340217,1.98055409 3.8979014,2.13092297 4.12090088,2.36721692 C4.36620031,2.60351087 4.5,2.9257299 4.5,3.24794892 C4.5,3.57016795 4.36620031,3.89238698 4.12090088,4.12868093 C4.09860093,4.1501622 4.07630098,4.17164347 4.05400103,4.19312474 C3.58570212,4.62275011 2.82750388,4.60126884 2.38150491,4.12868093 C2.13620548,3.89238698 2.00240579,3.57016795 2.00240579,3.24794892 C1.98010584,2.9257299 2.11390553,2.60351087 2.35920496,2.36721692 C2.58220444,2.13092297 2.89440372,2.00203535 3.22890295,2.00203535 Z M3.40730253,3.01165497 C3.29580279,2.90424863 3.1174032,2.9257299 3.00590346,3.03313624 C2.93900362,3.09758005 2.91670367,3.16202385 2.91670367,3.24794892 C2.91670367,3.333874 2.93900362,3.3983178 3.00590346,3.46276161 C3.07280331,3.52720541 3.13970315,3.54868668 3.22890295,3.54868668 C3.31810274,3.54868668 3.38500258,3.52720541 3.42960248,3.46276161 C3.49650233,3.3983178 3.54110222,3.31239273 3.51880227,3.24794892 C3.51880227,3.16202385 3.49650233,3.09758005 3.42960248,3.03313624 L3.42960248,3.03313624 Z" id="形状结合"></path>
          </g>
        </g>
      </g>
    </g>
  </g>
</svg>
