<?xml version="1.0" encoding="UTF-8"?>
<svg xmlns="http://www.w3.org/2000/svg" xmlns:xlink="http://www.w3.org/1999/xlink" width="16px" height="16px" viewBox="0 0 16 16" version="1.1">
  <title>Icon/3 面性图标/圆-警示</title>
  <g id="流水线" stroke="none" stroke-width="1" fill="none" fill-rule="evenodd">
    <g id="调试/执行流水线-交互说明" transform="translate(-2107.000000, -4808.000000)">
      <g id="编组-25备份-7" transform="translate(1993.000000, 4806.000000)">
        <g id="编组-2备份-2" transform="translate(114.000000, 0.000000)">
          <g id="Icon/3-面性图标/圆-警示" transform="translate(0.000000, 2.000000)">
            <path d="M9.0120985,3.92334758 L9.0120985,5.302496 L5.5,5.302496 C5.09795944,5.302496 4.65,5.81130341 4.65,6.2 L4.65117843,10.1084014 C5.2322588,10.3083966 5.69224526,10.7686016 5.89194218,11.3498207 L9.60805782,11.3498207 C9.87790615,10.5644254 10.6230388,10 11.5,10 C12.6045695,10 13.5,10.8954305 13.5,12 C13.5,13.1045695 12.6045695,14 11.5,14 C10.6234107,14 9.87853818,13.4360532 9.6084014,12.6511784 L5.8915986,12.6511784 C5.62146182,13.4360532 4.87658933,14 4,14 C2.8954305,14 2,13.1045695 2,12 C2,11.1234107 2.56394682,10.3785382 3.34882157,10.1084014 L3.35,6.2 C3.35,4.78389056 4,3.92334758 5.5,3.92334758 L9.0120985,3.92334758 Z M11.5,11 C10.9477153,11 10.5,11.4477153 10.5,12 C10.5,12.5522847 10.9477153,13 11.5,13 C12.0522847,13 12.5,12.5522847 12.5,12 C12.5,11.4477153 12.0522847,11 11.5,11 Z M4,11 C3.44771525,11 3,11.4477153 3,12 C3,12.5522847 3.44771525,13 4,13 C4.55228475,13 5,12.5522847 5,12 C5,11.4477153 4.55228475,11 4,11 Z M11.5,2.5 C12.6045695,2.5 13.5,3.3954305 13.5,4.5 C13.5,5.6045695 12.6045695,6.5 11.5,6.5 C10.3954305,6.5 9.5,5.6045695 9.5,4.5 C9.5,3.3954305 10.3954305,2.5 11.5,2.5 Z M12.8170815,3.375 L11.1086355,5.08344595 L10.1863382,4.16114865 L9.875,4.47274609 L11.1047297,5.70247582 L13.125,3.68220555 L12.8170815,3.375 Z" id="形状结合" fill="#63656E"></path>
            <rect id="codesign_placeholder_name" x="0" y="0" width="16" height="16"></rect>
          </g>
        </g>
      </g>
    </g>
  </g>
</svg>
