<?xml version="1.0" encoding="utf-8"?>
<!-- Generator: Adobe Illustrator 22.1.0, SVG Export Plug-In . SVG Version: 6.00 Build 0)  -->
<svg version="1.1" xmlns="http://www.w3.org/2000/svg" xmlns:xlink="http://www.w3.org/1999/xlink" x="0px" y="0px"
	 viewBox="0 0 64 64" style="enable-background:new 0 0 64 64;" xml:space="preserve">
<g id="辅助线">
</g>
<g id="小">
	<g id="圆">
	</g>
	<path class="st0" d="M36.1,38.4C37.7,44,41.9,47,47.7,47c6.8,0,12.2-5.5,12.2-12.2c0-6.1-4.5-11.2-10.5-12.1
		c-2.1-7.8-9.3-13.5-17.8-13.5c-8.6,0-15.9,5.9-17.9,13.9C8.2,24.1,4,29,4,34.9C4,41.5,9.4,47,16,47c1.2,0,2.4-0.2,3.5-0.5
		c0,0,0,0,0,0l0,0c0,0,0,0,0,0c2.5,3.1,5.8,5.5,9.9,6.7c6.5,2.1,13.3,0.7,18.5-3.1c-2.4,1.2-8.2,2.2-14,0.6
		c-4.1-1.1-7.8-3.4-10.2-6.6c-2.6-3.5-2.6-3.8-2.6-3.8S18.9,42,16,42c-3.9,0-7.1-3.2-7.1-7.1c0-3.8,3-6.9,6.8-7.1h2.1
		c0-0.1,0-0.2,0-0.2c0-7.6,6.2-13.8,13.8-13.8c6,0,11.1,3.8,13,9.1c0,0,0,0,0,0c0.2,0.6,0.4,1.3,0.5,1.8c0.1,0.4,0.2,1.4,0.2,2.3
		c0,0.5,0.5,0.9,1,0.8c0.4,0,0.8,0,1.2,0c3.8,0,6.9,3.3,6.8,7.1c-0.1,3.6-3,6.6-6.6,6.7c-3.1,0.1-5.5-2.1-6.7-4.8
		c-0.6-1.4-0.6-3.1,0.2-4.9c0.5-1.2,0.8-2.6,0.8-4c0,0,0-0.1,0-0.1c0-1.1-0.2-2.1-0.4-2.9c-1.3-4.3-5.2-7.5-9.9-7.6
		c-5.8-0.1-10.7,4.7-10.7,10.5c0,5.7,4.5,10.3,10.2,10.5c0,0,0.1,0,0.1,0c0,0,0,0,0,0c0.1,0,0.1,0,0.2,0c0,0,0,0,0,0
		c1.2-0.1,2.2-1.1,2.2-2.4c0-1.3-1.1-2.4-2.4-2.4c0,0-0.1,0-0.1,0c-3.2-0.2-5.6-2.7-5.4-6.1c0.1-3,2.5-5.4,5.5-5.5
		c3.4-0.1,5.8,2.3,5.8,5.7c-0.2,2.6-0.6,2.7-1.3,4.8C35.7,33.7,35.3,35.8,36.1,38.4z"/>
</g>
</svg>
