<svg viewBox="0 0 32 32" version="1.1" xmlns="http://www.w3.org/2000/svg" style="fill: #3a84ff;"><path d="M27.92 16.38c0.040-0.12 0.080-0.24 0.080-0.36 0 0 0-0.020 0-0.020s0-0.020 0-0.020c0-0.12-0.020-0.24-0.060-0.34-0.020-0.060-0.060-0.1-0.080-0.14-0.040-0.060-0.060-0.12-0.1-0.16l-8.48-9.32c-0.38-0.4-1-0.44-1.42-0.060-0.4 0.38-0.44 1-0.060 1.42l6.94 7.64h-19.74c-0.56-0.020-1 0.42-1 0.98s0.44 1 1 1h19.74l-6.94 7.64c-0.38 0.4-0.34 1.040 0.060 1.42 0.2 0.18 0.44 0.26 0.68 0.26 0.28 0 0.54-0.1 0.74-0.32l8.46-9.3c0.040-0.040 0.060-0.1 0.1-0.16 0.020-0.080 0.060-0.12 0.080-0.16z"></path></svg>