<svg viewBox="0 0 1024 1024" version="1.1" xmlns="http://www.w3.org/2000/svg"><path  d="M426.66666666666663 384C404.03485951999994 384 382.3299925333333 375.00954965333335 366.3268881066666 359.00644608 350.32378367999996 343.00334165333334 341.3333333333333 321.2984738133333 341.3333333333333 298.66666666666663L341.3333333333333 128C341.3333333333333 105.36819285333333 350.32378367999996 83.66332544 366.3268881066666 67.660221184 382.3299925333333 51.657116928 404.03485951999994 42.666667008 426.66666666666663 42.666667008L597.3333333333333 42.666667008C619.96514048 42.666667008 641.6700074666667 51.657116928 657.6731118933333 67.660221184 673.67621632 83.66332544 682.6666666666666 105.36819285333333 682.6666666666666 128L682.6666666666666 298.66666666666663C682.6666666666666 321.2984738133333 673.67621632 343.00334165333334 657.6731118933333 359.00644608 641.6700074666667 375.00954965333335 619.96514048 384 597.3333333333333 384L554.6666666666666 384 554.6666666666666 469.3333333333333 725.3333333333333 469.3333333333333C782.4409088 469.33663232000004 829.4148642133333 514.3168989866666 831.8933333333332 571.3706666666667L832 576 832 640 874.6666666666666 640C897.2984746666666 640 919.0033407999999 648.9904503466666 935.0064469333333 664.9935547733332 951.0095530666667 680.9966592 960 702.7015261866666 960 725.3333333333333L960 896C960 918.6318079999999 951.0095530666667 940.3366741333332 935.0064469333333 956.3397802666666 919.0033407999999 972.3428864 897.2984746666666 981.3333333333333 874.6666666666666 981.3333333333333L704 981.3333333333333C681.3681928533333 981.3333333333333 659.6633258666666 972.3428864 643.66022144 956.3397802666666 627.6571170133333 940.3366741333332 618.6666666666666 918.6318079999999 618.6666666666666 896L618.6666666666666 725.3333333333333C618.6666666666666 678.2050346666666 656.8717013333332 640 704 640L746.6666666666666 640 746.6666666666666 576C746.6652407466665 565.1845367466666 738.5705147733333 556.0814088533333 727.8293333333332 554.816L725.3333333333333 554.6666666666666 298.66666666666663 554.6666666666666C287.8512042666666 554.6680934399999 278.74807637333333 562.7628185599999 277.48266666666666 573.5039999999999L277.3333333333333 576 277.3333333333333 640 320 640C367.12829866666664 640 405.3333333333333 678.2050346666666 405.3333333333333 725.3333333333333L405.3333333333333 896C405.3333333333333 943.1282944 367.12829866666664 981.3333333333333 320 981.3333333333333L149.33333333333331 981.3333333333333C126.70152618666665 981.3333333333333 104.99665919999998 972.3428864 88.99355477333333 956.3397802666666 72.99045034666666 940.3366741333332 64 918.6318079999999 64 896L64 725.3333333333333C64 678.2050346666666 102.20503466666665 640 149.33333333333331 640L192 640 192 576C192.00329983999998 518.8924245333333 236.9835656533333 471.91846911999994 294.0373333333333 469.43999999999994L298.66666666666663 469.3333333333333 469.3333333333333 469.3333333333333 469.3333333333333 384 426.66666666666663 384Z"/></svg>