<!-- Generated by IcoMoon.io -->
<svg version="1.1" xmlns="http://www.w3.org/2000/svg" width="32" height="32" viewBox="0 0 32 32">
<title>info-circle</title>
<path fill="#979BA5" d="M16 32c-8.82 0-16-7.18-16-16s7.18-16 16-16 16 7.18 16 16-7.18 16-16 16zM16 2c-7.72 0-14 6.28-14 14s6.28 14 14 14c7.72 0 14-6.28 14-14s-6.28-14-14-14zM17.5 9.5v0c0-0.82-0.68-1.5-1.5-1.5v0c-0.82 0-1.5 0.68-1.5 1.5v0c0 0.82 0.68 1.5 1.5 1.5v0c0.82 0 1.5-0.68 1.5-1.5zM17.26 22.76v-9.52c0-0.68-0.58-1.24-1.26-1.24v0c-0.68 0-1.24 0.56-1.24 1.24v9.5c0 0.7 0.56 1.26 1.24 1.26v0c0.68 0 1.26-0.56 1.26-1.24z"></path>
</svg>
