<?xml version="1.0" encoding="utf-8"?>
<!--
  ~ Tencent is pleased to support the open source community by making BK-CI 蓝鲸持续集成平台 available.
  ~
  ~ Copyright (C) 2019 THL A29 Limited, a Tencent company.  All rights reserved.
  ~
  ~ BK-CI 蓝鲸持续集成平台 is licensed under the MIT license.
  ~
  ~ A copy of the MIT License is included in this file.
  ~
  ~
  ~ Terms of the MIT License:
  ~ ---------------------------------------------------
  ~ Permission is hereby granted, free of charge, to any person obtaining a copy of this software and associated documentation files (the "Software"), to deal in the Software without restriction, including without limitation the rights to use, copy, modify, merge, publish, distribute, sublicense, and/or sell copies of the Software, and to permit persons to whom the Software is furnished to do so, subject to the following conditions:
  ~
  ~ The above copyright notice and this permission notice shall be included in all copies or substantial portions of the Software.
  ~
  ~ THE SOFTWARE IS PROVIDED "AS IS", WITHOUT WARRANTY OF ANY KIND, EXPRESS OR IMPLIED, INCLUDING BUT NOT LIMITED TO THE WARRANTIES OF MERCHANTABILITY, FITNESS FOR A PARTICULAR PURPOSE AND NONINFRINGEMENT. IN NO EVENT SHALL THE AUTHORS OR COPYRIGHT HOLDERS BE LIABLE FOR ANY CLAIM, DAMAGES OR OTHER LIABILITY, WHETHER IN AN ACTION OF CONTRACT, TORT OR OTHERWISE, ARISING FROM, OUT OF OR IN CONNECTION WITH THE SOFTWARE OR THE USE OR OTHER DEALINGS IN THE SOFTWARE.
  -->

<!-- Generator: Adobe Illustrator 22.0.1, SVG Export Plug-In . SVG Version: 6.00 Build 0)  -->
<svg version="1.1" xmlns="http://www.w3.org/2000/svg" xmlns:xlink="http://www.w3.org/1999/xlink" x="0px" y="0px"
	 viewBox="0 0 1024 1024" style="enable-background:new 0 0 1024 1024;" xml:space="preserve">
<style type="text/css">
	.st0{display:none;}
	.st1{fill:#737987;}
	.st2{fill-rule:evenodd;clip-rule:evenodd;fill:#737987;}
</style>
<g id="辅助线">
</g>
<g id="网格" class="st0">
</g>
<g id="定时触发">
</g>
<g id="手动触发">
</g>
<g id="GIT">
</g>
<g id="RTX">
</g>
<g id="EMAIL">
</g>
<g id="SMS">
</g>
<g id="微信">
</g>
<g id="部署">
</g>
<g id="脚本">
</g>
<g id="企业证书">
</g>
<g id="个人证书">
</g>
<g id="安全加固">
</g>
<g id="SVN">
</g>
<g id="代码检查">
</g>
<g id="归档">
</g>
<g id="IPA">
</g>
<g id="APK_1_">
</g>
<g id="docker">
</g>
<g id="unity">
</g>
<g id="XCODE">
</g>
<g id="andriod">
</g>
<g id="ios">
</g>
<g id="gitlab">
</g>
<g id="NOTHING">
</g>
<g id="C_x2B__x2B_">
</g>
<g id="JAVA">
	<g>
		<path class="st1" d="M579.8,79.3c28.4,50.4,20.9,97.9-11.5,143.4c-13.9,19.5-30.1,37.1-46.9,54.1c-23.3,23.6-47.7,46.3-67,73.7
			c-15.5,22-19,44.2-7,69.7c16.3,34.6,32.4,69.2,53,101.5c1.5,2.4,2.6,4.4,7.6,10.4c-20-10-94.1-70-122.6-118.6
			c-12.8-21.8-20.7-45.2-14.8-71c5-22.2,19-39.2,34.3-55c26.6-27.6,57.6-50.1,87.1-74.3c23.9-19.6,47.3-39.7,65.1-65.5
			c18-26.1,23.3-53.6,11-83.6C569.2,63.9,577,74.2,579.8,79.3z"/>
		<path class="st1" d="M450.4,953.5c-57.4-7.5-113.5-20.3-167.5-41.8c-1.6-0.6-5.6-2.8-5.6-2.8s93.8,16.1,136.4,20.3
			c53.7,5.3,107.6,6,161.6,2.9c51.7-3,102.6-10.3,152.4-24.6c46.9-13.5,91.5-31.6,129.1-63.9c1.7-1.5,7.2-7.6,7.2-7.6
			s-3,33-27.8,56.3c-22.8,19.5-49.8,31.1-77.9,40.4c-40.3,13.3-81.8,20.9-124,24.6C578.5,962.1,487.5,960.1,450.4,953.5z"/>
		<path class="st1" d="M321.4,776.4c-16.3-0.3-32.2-0.1-47.8,4.2c-7.9,2.2-15.6,5-22.2,10c-8.8,6.7-9.5,15.2-1.4,22.9
			c6.7,6.3,14.9,10.2,23.4,13.3c29,10.5,59.2,15.2,89.6,19c52.4,6.5,105.2,8.6,157.9,6.8c60.9-2.1,121.7-6.5,180.5-24.2
			c15.4-4.6,30.4-10.4,43.6-19.9c14-10.1,24.2-22.3,18.7-41.4c-0.4-1.5-2.7-6.1-2.7-6.1s15,4,27.6,16c12.5,12.7,12.1,31-0.9,46.7
			c-13.7,16.4-32.2,25.9-51.5,33.6c-40.1,16-82.1,24-124.7,29.7c-62,8.2-124.3,10.8-186.7,8.5c-67.9-2.5-135.6-8.1-200.5-30.7
			c-16.3-5.7-31.9-12.9-45.5-23.8c-6.7-5.4-12.1-11.6-15.8-19.5c-6.3-13.4-4.5-25.6,5.8-36.1c12.9-13.2,29-20.7,46.5-24.8
			c21.1-4.9,42.4-6.6,64.2-4.6C296.4,757.6,311,766,321.4,776.4z"/>
		<path class="st1" d="M688.9,546.1L633,589c0,0-61,12-146.1,18.3c-34.4,2.1-68.7,4-103.1,2.8c-38.4-1.4-76.9-3.4-114.3-13.5
			c-10.5-2.8-20.5-6.7-29.8-12.3c-17.9-10.9-19-28.4-2.3-41.1c16.1-12.3,35.3-16.2,54.5-20C326.5,516.3,408,513,408,513
			s-47,15.2-64.3,24c-4.4,2.2-8.6,5-12.4,8.1c-5,4-4.7,7.6,1.8,10c8.9,3.2,18.2,4.4,27.4,5c54.5,3.8,109,3.2,163.5,1
			c39.6-1.6,79.1-4.6,118.5-9.4C656.1,550.1,688.9,546.1,688.9,546.1z"/>
		<path class="st1" d="M720.1,221.6c0,0-74.8,39.9-121.4,92.9c-23.1,24.1-25.4,41.2-10.2,71c6.2,12.2,12.9,24.2,19.6,36.1
			c24.4,43.9,8.1,84.4-29.9,109.6C559,544,532,548.8,532,548.8s8.5-9.6,12.5-14.4c21.1-25.1,25.7-50.6,6.1-79.8
			c-9.7-14.5-19.7-28.8-28.8-43.8c-22.9-37.8-9.5-85.3,13.3-112.5c26.1-31.2,60.8-48.1,98.4-60.4
			C680.2,224.6,720.1,221.6,720.1,221.6z"/>
		<path class="st1" d="M461.7,655.1c46.5-0.2,92.5-4.8,137.3-17.7c2.5-0.7,6.9-2.4,6.9-2.4s4.1,3.1,6.2,4.5
			c13.3,8.4,45.5,30,45.5,30S614,689,554.3,697.9c-33.2,4.9-66.6,7.6-100.2,6.6c-40.8-1.2-81.5-4.4-120.7-17.4
			c-12.7-4.2-25.3-9-34.8-19.3c-5.7-6.3-6.1-13-2.3-20.1c8.5-16.2,43.6-33.6,62.6-33.6c3,0,5,0.9,5,0.9s-5,4-8,13
			c-2.5,7.4,1.8,10.3,13.5,15.4c13.8,6.1,28.6,7.9,43.4,9.6C429,654.9,445.4,655.6,461.7,655.1z"/>
		<path class="st1" d="M457.4,792.7c-33.2-1.2-69.4-2.6-103.7-16c-4.3-1.7-8.5-3.8-12.5-6.2c-17.7-10.8-20.4-26-6.5-41.4
			c12.9-14.4,29.9-20.8,49-21.6c2.5-0.1,8.2,0.6,8.2,0.6s-3,3-4.6,5.3c-4.2,6.2-1.2,10.4,4,13.8c8.6,5.6,18.5,6.9,28.3,8.2
			c30.9,4,61.7,1.4,92.4-2.3c23.7-2.8,47.3-7,69.8-15.6c1.8-0.7,6.1-2.5,6.1-2.5s3.2,2.7,5.4,4.1C608.5,728.8,647,753,647,753
			s-5,2.9-8.1,4.5c-22.9,12.3-47.5,19.2-72.6,24.5C531.4,789.4,496,792.2,457.4,792.7z"/>
		<path class="st1" d="M685.3,705.9c0,0,62.9-53.1,80.2-84.8c5.6-10.3,9.8-21.2,10.4-33.1c1.3-24-11.4-41.8-34.4-49.4
			c-12.2-4-36.9-2.8-36.9-2.8s53-28.1,83.3-18c25.3,8.4,38.4,27.7,41.3,53.6c4.8,41.9-13.1,68.2-46.3,92.6
			C754.9,684.7,685.3,705.9,685.3,705.9z"/>
	</g>
</g>
<g id="IOS">
</g>
<g id="ANDRIOD">
</g>
<g id="图层_31">
</g>
</svg>
