<?xml version="1.0" encoding="utf-8"?>
<!-- Generator: Adobe Illustrator 22.1.0, SVG Export Plug-In . SVG Version: 6.00 Build 0)  -->
<svg version="1.1" id="图层_2" xmlns="http://www.w3.org/2000/svg" xmlns:xlink="http://www.w3.org/1999/xlink" x="0px" y="0px"
	 viewBox="0 0 1024 1024" style="enable-background:new 0 0 1024 1024;" xml:space="preserve">
<style type="text/css">
	.st0{fill:#BDCCD4;}
</style>
<g id="图层_12">
	<path class="st0" d="M800,96H224c-70.7,0-128,57.3-128,128v576c0,70.7,57.3,128,128,128h576c70.7,0,128-57.3,128-128V224
		C928,153.3,870.7,96,800,96z M878.2,855.6L749.3,726.7c48.1-53.1,78.5-122.4,82.3-198.7H896v272C896,820.7,889.4,839.9,878.2,855.6
		z M145.8,855.6C134.6,839.9,128,820.7,128,800V528h64.4c3.8,76.3,34.2,145.6,82.3,198.7L145.8,855.6z M145.8,168.4l128.9,128.9
		c-48.1,53.1-78.5,122.4-82.3,198.7H128V224C128,203.3,134.6,184.1,145.8,168.4z M671.2,496c-3.2-32.2-15.9-61.6-35.3-85.3
		l90.8-90.8c21.3,23.7,38.3,50.5,50.7,79.9c12.9,30.6,20.4,62.9,22.2,96.1L671.2,496L671.2,496z M528,385
		c22.9,2.8,44.3,11.7,62.5,25.9L528,473.4V385z M496,473.4l-62.5-62.5c18.2-14.2,39.6-23.1,62.5-25.9V473.4z M473.4,496H385
		c2.8-22.9,11.7-44.3,25.9-62.5L473.4,496z M473.4,528l-62.5,62.5c-14.2-18.2-23.1-39.6-25.9-62.5H473.4z M496,550.6V639
		c-22.9-2.8-44.3-11.7-62.5-25.9L496,550.6z M528,550.6l62.5,62.5c-18.2,14.2-39.6,23.1-62.5,25.9V550.6z M550.6,528H639
		c-2.8,22.9-11.7,44.3-25.9,62.5L550.6,528z M550.6,496l62.5-62.5c14.2,18.2,23.1,39.6,25.9,62.5H550.6z M613.3,388.1
		c-23.7-19.4-53.1-32.1-85.3-35.3V224.4c33.2,1.8,65.5,9.2,96.1,22.2c29.4,12.4,56.2,29.5,79.9,50.7L613.3,388.1z M496,352.8
		c-32.2,3.2-61.6,15.9-85.3,35.3L320,297.4c23.7-21.3,50.5-38.3,79.9-50.7c30.6-12.9,62.9-20.4,96.1-22.2V352.8z M388.1,410.7
		c-19.4,23.7-32.1,53.1-35.3,85.3H224.4c1.8-33.2,9.2-65.5,22.2-96.1c12.4-29.4,29.5-56.2,50.7-79.9L388.1,410.7z M246.6,624.1
		c-12.9-30.6-20.4-62.9-22.2-96.1h128.3c3.2,32.2,15.9,61.6,35.3,85.3L297.4,704C276.1,680.3,259,653.5,246.6,624.1z M410.7,635.9
		c23.7,19.4,53.1,32.1,85.3,35.3v128.3c-33.2-1.8-65.5-9.2-96.1-22.2c-29.4-12.4-56.2-29.5-79.9-50.7L410.7,635.9z M528,671.2
		c32.2-3.2,61.6-15.9,85.3-35.3l90.8,90.8c-23.7,21.3-50.5,38.3-79.9,50.7c-30.6,12.9-62.9,20.4-96.1,22.2L528,671.2L528,671.2z
		 M635.9,613.3c19.4-23.7,32.1-53.1,35.3-85.3h128.3c-1.8,33.2-9.2,65.5-22.2,96.1c-12.4,29.4-29.5,56.2-50.7,79.9L635.9,613.3z
		 M831.6,496c-3.8-76.3-34.2-145.6-82.3-198.7l128.9-128.9c11.2,15.7,17.8,34.9,17.8,55.6v272H831.6z M855.6,145.8L726.7,274.7
		c-53.1-48.1-122.4-78.5-198.7-82.3V128h272C820.7,128,839.9,134.6,855.6,145.8z M496,128v64.4c-76.3,3.8-145.6,34.2-198.7,82.3
		L168.4,145.8c15.7-11.2,34.9-17.8,55.6-17.8H496z M168.4,878.2l128.9-128.9c53.1,48.1,122.4,78.5,198.7,82.3V896H224
		C203.3,896,184.1,889.4,168.4,878.2z M528,896v-64.4c76.3-3.8,145.6-34.2,198.7-82.3l128.9,128.9C839.9,889.4,820.7,896,800,896
		H528z"/>
</g>
</svg>
