<?xml version="1.0" encoding="UTF-8"?>
<svg width="309px" height="93px" viewBox="0 0 309 93" version="1.1" xmlns="http://www.w3.org/2000/svg" xmlns:xlink="http://www.w3.org/1999/xlink">
    <title>AI 小鲸</title>
    <defs>
        <linearGradient x1="45.02491%" y1="35.5927467%" x2="99.2803929%" y2="81.0358394%" id="linearGradient-1">
            <stop stop-color="#235DFA" offset="0%"></stop>
            <stop stop-color="#EB8CEC" offset="100%"></stop>
        </linearGradient>
        <linearGradient x1="50%" y1="0%" x2="50%" y2="100%" id="linearGradient-2">
            <stop stop-color="#FFFFFF" stop-opacity="0.885701426" offset="0%"></stop>
            <stop stop-color="#FFFFFF" stop-opacity="0.29" offset="100%"></stop>
        </linearGradient>
        <linearGradient x1="50%" y1="0%" x2="50%" y2="100%" id="linearGradient-3">
            <stop stop-color="#1562FC" offset="0%"></stop>
            <stop stop-color="#EB8CEC" offset="100%"></stop>
        </linearGradient>
        <linearGradient x1="50%" y1="95.0902604%" x2="35.112422%" y2="19.6450217%" id="linearGradient-4">
            <stop stop-color="#DC63FE" offset="0.0150240385%"></stop>
            <stop stop-color="#235DFA" offset="100%"></stop>
        </linearGradient>
        <linearGradient x1="46.6072083%" y1="95.8855311%" x2="46.6072083%" y2="50%" id="linearGradient-5">
            <stop stop-color="#B962FD" offset="0%"></stop>
            <stop stop-color="#565FFB" offset="99.984976%"></stop>
        </linearGradient>
        <linearGradient x1="50%" y1="0%" x2="50%" y2="100%" id="linearGradient-6">
            <stop stop-color="#235DFA" offset="0%"></stop>
            <stop stop-color="#A826E2" offset="100%"></stop>
        </linearGradient>
        <linearGradient x1="50%" y1="-38.6691405%" x2="50%" y2="100%" id="linearGradient-7">
            <stop stop-color="#235DFA" offset="0%"></stop>
            <stop stop-color="#9F7BF1" stop-opacity="0.15" offset="62.335824%"></stop>
            <stop stop-color="#EB8CEC" stop-opacity="0" offset="100%"></stop>
        </linearGradient>
    </defs>
    <g id="页面-1" stroke="none" stroke-width="1" fill="none" fill-rule="evenodd">
        <g id="AI--小鲸" transform="translate(-1710, -3457)">
            <g id="聊天窗/默认页" transform="translate(1644, 3324)">
                <g id="AI-小鲸" transform="translate(66, 133.2974)">
                    <g transform="translate(124.4167, -0)" id="编组">
                        <g transform="translate(0, 0)">
                            <path d="M28.3965776,12.9425679 C38.3377031,12.9425679 46.3965776,21.0014424 46.3965776,30.9425679 L46.3969075,48.6505618 C51.2162571,49.132982 54.5842089,50.4998157 54.5842089,53.8408323 C54.5842089,53.8444226 54.5842089,53.8477257 54.5824622,53.8507588 L54.5702354,53.8590653 C54.5370482,53.8709895 54.4250414,53.8772107 54.0470184,53.8795761 L53.8473221,53.8804155 C53.8227592,53.8804783 53.7973775,53.8805312 53.7711498,53.8805746 L53.4140599,53.8806511 C53.3806271,53.8806219 53.3462391,53.8805842 53.3108685,53.8805382 L52.8375142,53.8796076 C51.6610285,53.8767057 49.6921211,53.8685916 46.3970568,53.8605313 L46.3965776,53.8807246 L23.4584209,53.8807246 C14.9044209,53.8807246 7.74404265,47.9139206 5.91235374,39.9153803 C2.4976649,38.935189 0,35.8013205 0,32.0869334 L1.43000256,32.0866983 C1.58407741,32.0866469 1.73656386,32.0865873 1.88747828,32.0865198 L3.20370552,32.0857063 C4.00314289,32.0850715 4.75405903,32.0842107 5.4593989,32.0831725 L5.45842089,30.9425679 C5.45842089,21.0014424 13.5172954,12.9425679 23.4584209,12.9425679 L28.3965776,12.9425679 Z" id="形状结合" fill="url(#linearGradient-1)"></path>
                            <rect id="矩形" fill="url(#linearGradient-2)" x="10.9168418" y="18.4009888" width="30.0213149" height="30.0213149" rx="12"></rect>
                            <rect id="矩形" fill="url(#linearGradient-3)" x="49.125788" y="21.1301993" width="5.45842089" height="24.562894" rx="2"></rect>
                            <path d="M51.8123687,2.72921045 C51.8123687,6.90327561 54.9358287,10.3478176 58.9729609,10.8530485 L60,10.9168418 C55.8259348,10.9168418 52.3813929,14.0403018 51.8761619,18.077434 L51.8123687,19.1044731 C51.8123687,14.930408 48.6889086,11.485866 44.6517764,10.9806351 L43.6247373,10.9168418 C47.7988025,10.9168418 51.2433445,7.79338174 51.7485754,3.75624952 L51.8123687,2.72921045 Z" id="星形" fill="url(#linearGradient-4)" fill-rule="nonzero"></path>
                            <path d="M40.8955269,-1.43884904e-13 C40.8955269,2.78271011 42.9778336,5.07907143 45.6692551,5.41589204 L46.3539478,5.45842089 C43.5712377,5.45842089 41.2748763,7.54072759 40.9380557,10.2321491 L40.8955269,10.9168418 C40.8955269,8.13413168 38.8132202,5.83777036 36.1217987,5.50094974 L35.437106,5.45842089 C38.2198161,5.45842089 40.5161774,3.3761142 40.852998,0.684692719 L40.8955269,-1.43884904e-13 Z" id="星形" fill="url(#linearGradient-5)" fill-rule="nonzero"></path>
                            <path d="M44.4235306,12.0484656 C44.4235306,13.4398207 45.464684,14.5880013 46.8103947,14.7564116 L47.1527411,14.7776761 C45.761386,14.7776761 44.6132054,15.8188294 44.4447951,17.1645402 L44.4235306,17.5068865 C44.4235306,16.1155315 43.3823773,14.9673508 42.0366665,14.7989405 L41.6943202,14.7776761 C43.0856752,14.7776761 44.2338559,13.7365227 44.4022662,12.390812 L44.4235306,12.0484656 Z" id="星形" fill="#8860FC" fill-rule="nonzero"></path>
                            <rect id="矩形" fill="#16204D" x="17.7398679" y="29.3178306" width="5.45842089" height="8.18763134" rx="2"></rect>
                            <rect id="矩形备份" fill="#16204D" x="28.6567097" y="29.3178306" width="5.45842089" height="8.18763134" rx="2"></rect>
                            <path d="M33.2681489,12.9425679 C32.5347773,9.30362068 31.08981,7.48414704 28.9332468,7.48414704 C25.698402,7.48414704 25.7333802,11.8081925 28.9332468,11.4257275 C30.6212196,11.223972 31.7656965,11.7295855 32.3666775,12.9425679 L33.2681489,12.9425679 Z" id="路径-7" fill="url(#linearGradient-6)" transform="translate(29.8942, 10.2134) scale(-1, 1) translate(-29.8942, -10.2134)"></path>
                            <path d="M26.5202122,12.9425679 C25.7868406,9.30362068 24.3418733,7.48414704 22.1853101,7.48414704 C18.9504653,7.48414704 18.9854435,11.8081925 22.1853101,11.4257275 C23.8732829,11.223972 25.0177598,11.7295855 25.6187408,12.9425679 L26.5202122,12.9425679 Z" id="路径-7" fill="url(#linearGradient-6)"></path>
                        </g>
                    </g>
                    <path d="M309,81.279814 C309,66.0493667 239.827994,53.7026496 154.5,53.7026496 C69.1720062,53.7026496 0,66.0493667 0,81.279814 C0,96.5102614 309,96.5102614 309,81.279814 Z" id="椭圆形" fill="url(#linearGradient-7)" opacity="0.22710455"></path>
                </g>
            </g>
        </g>
    </g>
</svg>