<?xml version="1.0" encoding="UTF-8"?>
<svg width="200px" height="200px" viewBox="0 0 200 200" version="1.1" xmlns="http://www.w3.org/2000/svg" xmlns:xlink="http://www.w3.org/1999/xlink">
    
    <g id="公用" stroke="none" stroke-width="1" fill="none" fill-rule="evenodd">
        <path d="M188,0 C194.627417,-1.21743675e-15 200,5.372583 200,12 L200,188 C200,194.627417 194.627417,200 188,200 L12,200 C5.372583,200 8.11624501e-16,194.627417 0,188 L0,12 C-8.11624501e-16,5.372583 5.372583,1.21743675e-15 12,0 L188,0 Z M87.2125807,96.2661372 C76.0375461,85.3887668 59.5677343,82.3026292 45.0834639,88.3231272 C30.8028388,94.2677366 21.5369786,108.205948 21.5369786,123.737821 C21.5878899,125.457964 21.6133456,127.203402 21.8933578,128.974137 C24.3116455,143.77242 32.4574566,154.270347 46.4835252,159.582551 C60.3568597,164.844163 73.6701698,162.744577 84.947027,153.056129 C95.3074805,144.151863 105.10791,133.375677 114.908339,123.839006 L114.908339,123.839006 L114.846876,123.777929 L114.725613,123.657425 C114.202002,123.137094 112.665591,121.610307 111.019808,119.974833 L111.019808,119.974833 L110.547389,119.505372 C108.967939,117.935816 107.367327,116.34523 106.525967,115.50914 L106.297116,115.281723 L106.0495,115.035658 C105.999945,114.986413 105.964133,114.950825 105.943411,114.930234 L105.922491,114.909444 L105.922491,114.909444 L105.867269,114.964583 C105.830741,115.001054 105.776381,115.055326 105.70505,115.126533 L105.441006,115.390095 C105.336595,115.494306 105.216075,115.614585 105.080308,115.750067 L105.080308,115.750067 L104.7887,116.041041 C104.736796,116.09283 104.683261,116.146243 104.628128,116.201249 L104.628128,116.201249 L104.278404,116.550141 C101.69965,119.122586 96.4140065,124.391435 90.7864654,129.978398 L90.7864654,129.978398 L89.9804605,130.778442 C89.4372712,131.317513 88.8919663,131.858475 88.346642,132.399218 L87.2565886,133.47979 C82.9012409,137.795921 78.6340936,142.008175 75.5284329,145.03723 C67.4080775,152.954944 54.8329816,153.460868 45.8725893,146.428522 C37.1667537,139.623841 34.977567,127.304587 40.5269008,117.641435 C45.1343752,109.59724 58.4985966,101.831303 70.9718698,109.470759 C74.3829282,111.545048 78.0994546,115.390072 80.8741215,118.122063 C80.9205608,118.075914 81.02534,117.971791 81.1803631,117.817739 L81.1803631,117.817739 L81.3899899,117.609426 C82.4371741,116.568801 84.8550443,114.166076 87.3688089,111.668057 L87.3688089,111.668057 L87.9284837,111.111888 C90.5352076,108.521492 93.1434984,105.929539 94.3440091,104.736548 L94.5308175,104.55091 C94.6463443,104.436107 94.7435244,104.339535 94.8204246,104.263117 L94.9584123,104.125993 C95.0038052,104.080885 95.0274683,104.05737 95.0274683,104.05737 L95.0274683,104.05737 L94.9329799,103.962218 C94.9175669,103.9467 94.9003529,103.92937 94.8814008,103.910292 L94.8814008,103.910292 L94.7473324,103.775357 C94.6960253,103.723726 94.6382681,103.665614 94.5745635,103.601531 L94.5745635,103.601531 L94.3661094,103.391882 C94.3285608,103.354125 94.289651,103.315003 94.2494428,103.274581 L94.2494428,103.274581 L93.9931149,103.016942 C93.5971786,102.619069 93.1110565,102.130966 92.5771117,101.595701 L92.028795,101.046311 C91.9352751,100.952658 91.840819,100.858093 91.7456229,100.762817 L90.8741725,99.8914919 L90.8741725,99.8914919 L90.5803002,99.5980909 L90.1788257,99.197666 C89.0448705,98.0673882 87.9532425,96.9856197 87.2125807,96.2661372 Z M178.089286,118.526802 C174.449127,90.5238975 141.662237,75.9279842 118.192119,91.8645966 C113.457366,95.0772153 109.282638,100.009976 105.158821,103.880296 L105.158821,103.880296 L105.252193,103.973084 C105.757369,104.475096 107.740218,106.445524 109.724376,108.417254 L110.264433,108.953928 C111.788402,110.468351 113.233013,111.903913 113.91707,112.583685 L114.125812,112.79112 L114.125812,112.79112 L114.204419,112.869234 L114.322858,112.986932 C117.555727,109.673129 121.781367,105.52455 125.192425,102.413116 C130.843582,97.2779856 137.563876,95.4566584 145.04784,96.974431 C154.670079,98.9222392 161.517652,106.511102 162.81589,116.40192 C164.012306,125.306186 158.921174,134.589896 150.622629,138.738474 C141.865882,143.089422 131.73453,141.546353 124.683312,134.741673 C123.105061,133.249196 120.814052,131.02313 119.312168,129.480061 C119.307426,129.484773 119.301463,129.490698 119.294304,129.497813 L119.237174,129.554585 L119.009549,129.780784 C118.980242,129.809908 118.949037,129.840917 118.915993,129.873754 L118.696134,130.092236 C117.611701,131.169876 115.272521,133.494404 112.837922,135.913753 L112.837922,135.913753 L112.235494,136.512407 C109.521659,139.209244 106.807824,141.90608 105.68429,143.022577 L105.68429,143.022577 L105.46144,143.244031 C105.380031,143.324929 105.313268,143.391275 105.26241,143.441813 L105.182279,143.521443 L105.182279,143.521443 L105.158821,143.544754 C107.602564,145.897301 110.682699,149.185809 113.151898,151.51306 C119.897648,157.887705 127.941636,161.403878 137.207496,162.06158 C159.506654,163.604649 178.445665,145.97319 178.445665,123.712525 C178.394754,121.967087 178.318387,120.221648 178.089286,118.526802 Z M99.9658663,108.990131 C99.9658663,108.990131 99.9245008,109.026494 99.852509,109.09092 L99.722894,109.20757 C99.4730606,109.433605 99.0653723,109.809096 98.6676276,110.204349 C89.9872477,118.880949 81.2559564,127.532253 72.4737538,136.132964 C66.5171294,141.976389 57.4549145,142.811164 50.5309751,138.308438 C43.6834026,133.831009 39.9923319,125.28089 42.8433658,117.514954 C42.9621589,117.202967 43.171461,116.761689 43.3977335,116.311978 L43.5694708,115.975003 C43.9722536,115.193851 44.3707054,114.479408 44.3707054,114.479408 L44.368,114.482 C44.2406769,114.639804 42.4372132,116.871428 41.5820878,118.323719 L41.4942158,118.47621 C37.0394754,126.292739 38.337714,137.195405 44.3961611,142.962941 L44.3961611,142.962941 L44.6785598,143.292978 C44.9577766,143.628548 45.2298339,143.974789 45.5162101,144.278344 C53.6874769,151.867207 66.3643954,151.816615 74.4592952,144.075974 C78.3030998,140.408024 81.9687148,136.588296 85.7361525,132.869753 C87.385296,131.23094 89.5347821,129.104057 91.7964377,126.869934 L91.7964377,126.869934 L92.34119,126.331881 C92.7114053,125.966262 93.0837648,125.598614 93.4566003,125.230573 L94.0160019,124.678422 L94.0160019,124.678422 L94.5748663,124.126909 C94.6678961,124.035112 94.7608514,123.943392 94.8537061,123.851776 L95.4094189,123.303522 C100.119175,118.657378 104.431743,114.412962 104.889625,113.96235 L104.889625,113.96235 L104.925215,113.927325 L104.92972,113.922892 Z M149.782592,100.035272 C141.916794,96.0637675 132.625478,97.455059 126.134284,103.424965 C123.63963,105.72692 118.166663,111.06442 115.290173,113.897596 C115.345684,113.952758 115.555257,114.161018 115.858007,114.461872 L116.138906,114.741012 C117.292272,115.887154 119.263772,117.846304 119.893671,118.472258 L119.893671,118.472258 L120.036028,118.613723 C120.052942,118.630531 120.066292,118.643797 120.075837,118.653283 C122.315936,116.351328 125.370615,113.189302 127.763447,111.039124 C131.276328,107.902394 135.120132,106.232844 139.193038,106.131659 C139.498506,106.106363 139.829429,106.106363 140.134897,106.106363 C149.960782,106.106363 157.902948,114.024077 157.902948,123.763118 C157.902948,127.759919 156.579254,131.427869 154.3137,134.387526 C154.822813,134.008083 155.102825,133.805713 155.382838,133.502158 C165.157811,123.763118 163.223181,106.839953 149.782592,100.035272 Z M99.9913219,62.7992511 C88.7399203,62.7992511 79.3976932,70.843446 77.4376074,81.442558 C79.9831734,82.4797026 82.4269167,83.7192169 84.7179261,85.1863971 C84.9215714,76.990425 91.6927769,70.4134104 99.9913219,70.4134104 C108.289867,70.4134104 115.061073,76.990425 115.264718,85.1863971 C117.555727,83.7445131 119.99947,82.4797026 122.545036,81.442558 C120.584951,70.843446 111.242724,62.7992511 99.9913219,62.7992511 Z M99.9658663,38.8943326 C97.8785022,38.8943326 95.8165937,39.0208136 93.8055966,39.2990719 L93.8055966,39.2990719 L92.7364589,47.9250796 L92.0133591,48.0660368 C90.3316946,48.4136126 88.689009,48.8894976 87.0853024,49.4428522 L87.0853024,49.4428522 L81.8414365,42.5116906 L81.0910339,42.8317495 C77.6036914,44.3550535 74.3218347,46.2926308 71.3282491,48.582781 L71.3282491,48.582781 L74.7647631,56.5763834 L74.2159252,57.0554304 C72.9466722,58.1842738 71.7578133,59.3905868 70.6664019,60.6743695 L70.6664019,60.6743695 L62.6224134,57.2846773 L62.1387861,57.926504 C59.9058986,60.9419472 58.0115449,64.2394487 56.5385108,67.7573083 L56.5385108,67.7573083 L63.5388172,72.9936238 L63.2942054,73.7216827 C62.8177467,75.1814879 62.4187682,76.665188 62.1133002,78.2046431 C66.848053,78.4070128 71.3791604,79.3176764 75.6302556,80.835449 C77.8958093,69.4521544 87.9253392,60.9273316 99.9913219,60.9273316 C112.057305,60.9273316 122.086835,69.4521544 124.352388,80.7848566 C128.603483,79.2670839 133.134591,78.3564204 137.869344,78.1540507 C137.512964,76.3327236 137.003851,74.5619889 136.392915,72.8418466 L136.392915,72.8418466 L143.367766,67.6308273 L143.057525,66.9146283 C142.742511,66.2031724 142.413179,65.5059456 142.069527,64.822948 L142.069527,64.822948 L139.218494,59.890187 L138.599073,58.9870186 C138.180468,58.3892785 137.750551,57.7990336 137.309319,57.2087887 L137.309319,57.2087887 L129.265331,60.5984809 L128.773718,60.0435947 C127.615486,58.7601578 126.379295,57.5566116 125.065147,56.4499024 L125.065147,56.4499024 L128.476205,48.4563 L127.874841,48.0068369 C127.065962,47.415108 126.231016,46.8525203 125.39607,46.3061221 L125.39607,46.3061221 L121.475899,44.0547594 L120.612395,43.6274906 C119.744914,43.2089174 118.866694,42.8152451 117.988473,42.435802 L117.988473,42.435802 L112.719152,49.3922598 L112.028319,49.161086 C110.408255,48.635745 108.732159,48.2096619 107.017084,47.8997834 L107.017084,47.8997834 L105.947946,39.2737757 L105.106277,39.1731071 C103.419524,38.9872574 101.711397,38.8943326 99.9658663,38.8943326 Z" id="形状结合" fill="#3A84FF"></path>
    </g>
</svg>