<svg xmlns="http://www.w3.org/2000/svg" viewBox="0 0 64 64"><defs><style>.cls-1{fill:#f4656b;}.cls-2{fill:#4dc266;}.cls-3{fill:#f3ce48;}.cls-4{fill:#27c6c4;}.cls-5{fill:#009af8;}.cls-6{fill:#dcdcdc;}.cls-7{fill:#fff;}.cls-8{fill:#017fc4;}</style></defs><title>研发商店-彩色logo</title><g id="图层_78" data-name="图层 78"><circle class="cls-1" cx="55.93" cy="32.61" r="2.06"/><circle class="cls-2" cx="8.9" cy="22.89" r="2.9"/><circle class="cls-3" cx="42.47" cy="49.82" r="2.06"/><path class="cls-4" d="M24.89,49.39a.27.27,0,0,0,.21.11C25,49.45,25,49.45,24.89,49.39Z"/><path class="cls-4" d="M24.63,49.18l.16.16C24.73,49.24,24.68,49.18,24.63,49.18Z"/><path class="cls-1" d="M16.9,39.13c.21-1.53.21-4.44,3.59-9.66A18.65,18.65,0,0,0,9.35,37.75C8,40,10,39.81,10.94,39.6c.16-.05.26-.05.42-.1h.05a9.68,9.68,0,0,1,5.65.31A1.13,1.13,0,0,1,16.9,39.13Z"/><path class="cls-1" d="M25.61,48.21a9.4,9.4,0,0,1,.37,5.7h0V54c-.05.16-.05.27-.1.42-.21.95-.37,2.91,1.84,1.59a18.67,18.67,0,0,0,8.5-12.25C30.58,47.68,27.41,48,25.61,48.21Z"/><path class="cls-5" d="M44.7,9.17c-4.8,1.48-9.82,3.7-15.94,9.82C16.51,31.24,16.67,36.73,16.35,39.05A2.08,2.08,0,0,0,17,40.53l7,7,.06.05a2.16,2.16,0,0,0,1.63.64c2.48-.37,7.92-.37,19.91-12.36a36.59,36.59,0,0,0,9.86-16.24Z"/><path class="cls-6" d="M56.86,9.34c-.06-.26-.11-.47-.16-.63a2.71,2.71,0,0,0-.16-.37l-.26-.26a2.64,2.64,0,0,0-1.75-.37h-.21a29.38,29.38,0,0,0-9.61,1.47L55.43,19.85a24.27,24.27,0,0,0,1.37-6.92c.06-1,.06-2.06.11-2.85A3.45,3.45,0,0,0,56.86,9.34Z"/><circle class="cls-7" cx="39.03" cy="25.56" r="4.33"/><path class="cls-8" d="M43.2,21.39a5.9,5.9,0,1,0,0,8.34A5.87,5.87,0,0,0,43.2,21.39ZM36.39,28.2a3.69,3.69,0,1,1,5.22,0A3.71,3.71,0,0,1,36.39,28.2Z"/><ellipse class="cls-1" cx="21.81" cy="42.78" rx="8.97" ry="2.38" transform="translate(-23.86 27.95) rotate(-45)"/></g></svg>