<!-- Generated by IcoMoon.io -->
<svg version="1.1" xmlns="http://www.w3.org/2000/svg" width="32" height="32" viewBox="0 0 32 32">
<title>access</title>
<path d="M4.5 7.791v6.209h2v-6.209c0.575-0.253 1.041-0.716 1.291-1.291h6.116v-2h-6.116c-0.384-0.881-1.266-1.5-2.291-1.5-1.381 0-2.5 1.119-2.5 2.5 0 1.025 0.619 1.906 1.5 2.291zM5.5 5c0.275 0 0.5 0.225 0.5 0.5s-0.225 0.5-0.5 0.5-0.5-0.225-0.5-0.5 0.225-0.5 0.5-0.5z"></path>
<path d="M25.5 7.791v6.209h2v-6.209c0.881-0.384 1.5-1.266 1.5-2.291 0-1.381-1.119-2.5-2.5-2.5-1.025 0-1.906 0.619-2.291 1.5h-6.116v2h6.116c0.25 0.575 0.716 1.041 1.291 1.291zM26.5 5c0.275 0 0.5 0.225 0.5 0.5s-0.225 0.5-0.5 0.5-0.5-0.225-0.5-0.5 0.225-0.5 0.5-0.5z"></path>
<path d="M6.5 24.209v-6.209h-2v6.209c-0.881 0.384-1.5 1.266-1.5 2.291 0 1.381 1.119 2.5 2.5 2.5 1.025 0 1.906-0.619 2.291-1.5h6.116v-2h-6.116c-0.25-0.575-0.716-1.041-1.291-1.291zM5.5 27c-0.275 0-0.5-0.225-0.5-0.5s0.225-0.5 0.5-0.5 0.5 0.225 0.5 0.5-0.225 0.5-0.5 0.5z"></path>
<path d="M27.5 24.209v-6.209h-2v6.209c-0.575 0.253-1.041 0.716-1.291 1.291h-6.116v2h6.116c0.384 0.884 1.266 1.5 2.291 1.5 1.381 0 2.5-1.119 2.5-2.5 0-1.025-0.619-1.906-1.5-2.291zM26.5 27c-0.275 0-0.5-0.225-0.5-0.5s0.225-0.5 0.5-0.5 0.5 0.225 0.5 0.5-0.225 0.5-0.5 0.5z"></path>
<path d="M20 17v-2h-3v-3h-2v3h-3v2h3v3h2v-3z"></path>
</svg>
