<!-- Generated by IcoMoon.io -->
<svg version="1.1" xmlns="http://www.w3.org/2000/svg" width="32" height="32" viewBox="0 0 32 32">
<title>android</title>
<path d="M6.603 12.406c0.331 0 0.603 0.269 0.603 0.603v6.719c0 0.331-0.269 0.603-0.603 0.603s-0.603-0.269-0.603-0.603v-6.719c0-0.331 0.269-0.603 0.603-0.603zM6.603 11.406c-0.888 0-1.603 0.719-1.603 1.603v6.719c0 0.891 0.719 1.603 1.603 1.603 0.891 0 1.603-0.719 1.603-1.603v-6.719c-0.003-0.881-0.722-1.603-1.603-1.603v0z"></path>
<path d="M25.397 12.406c0.331 0 0.603 0.269 0.603 0.603v6.719c0 0.331-0.269 0.603-0.603 0.603-0.331 0-0.603-0.269-0.603-0.603v-6.719c0.003-0.331 0.272-0.603 0.603-0.603zM25.397 11.406c-0.887 0-1.603 0.719-1.603 1.603v6.719c0 0.891 0.719 1.603 1.603 1.603 0.887 0 1.603-0.719 1.603-1.603v-6.719c0-0.887-0.719-1.603-1.603-1.603v0z"></path>
<path d="M15.969 5.519c0.956 0 1.878 0.194 2.738 0.578l0.163 0.072 0.181 0.094c0.944 0.487 1.734 1.194 2.284 2.041 0.372 0.572 0.625 1.2 0.756 1.853h-12.241c0.128-0.653 0.384-1.278 0.759-1.85 0.553-0.847 1.344-1.553 2.291-2.044l0.231-0.119 0.119-0.053c0.841-0.381 1.756-0.572 2.719-0.572zM20.438 2.997c-0.078 0-0.156 0.041-0.197 0.119l-1.128 2.069c-0.953-0.425-2.016-0.662-3.144-0.662-1.122 0-2.184 0.234-3.131 0.656l-1.128-2.063c-0.041-0.075-0.119-0.116-0.2-0.116-0.034 0-0.069 0.009-0.103 0.025-0.106 0.056-0.147 0.197-0.091 0.303l1.122 2.047c-2.2 1.134-3.688 3.297-3.688 5.781h14.438c0-2.484-1.481-4.647-3.681-5.784l1.122-2.047c0.056-0.106 0.022-0.241-0.084-0.303-0.034-0.019-0.069-0.025-0.106-0.025v0z"></path>
<path d="M22.188 12.719v9.409c0 0.394-0.325 0.712-0.728 0.712h-2.178v4.553c0 0.331-0.275 0.6-0.613 0.6s-0.613-0.269-0.613-0.6v-4.553h-4.181v4.553c0 0.341-0.269 0.609-0.613 0.609-0.338 0-0.613-0.269-0.613-0.6v-4.553h-2.172c-0.4 0-0.725-0.319-0.725-0.712v-9.412l12.434-0.006zM23.188 11.719l-14.438 0.006v10.409c0 0.944 0.769 1.712 1.725 1.712h1.172v3.553c0 0.881 0.725 1.6 1.613 1.6 0.894 0 1.613-0.719 1.613-1.609v-3.55h2.181v3.553c0 0.881 0.725 1.6 1.613 1.6 0.894 0 1.613-0.719 1.613-1.6v-3.553h1.178c0.953 0 1.728-0.762 1.728-1.712v-10.409h0.003z"></path>
<path d="M12.706 8.534c-0.331 0-0.606-0.269-0.606-0.606 0-0.331 0.269-0.606 0.606-0.606 0.331 0 0.606 0.275 0.606 0.606s-0.269 0.606-0.606 0.606z"></path>
<path d="M19.288 8.534c-0.331 0-0.606-0.269-0.606-0.606 0-0.331 0.269-0.606 0.606-0.606 0.331 0 0.606 0.275 0.606 0.606s-0.275 0.606-0.606 0.606z"></path>
</svg>
