<svg width="32" height="32" viewBox="0 0 32 32" fill="none" xmlns="http://www.w3.org/2000/svg">
<path fill-rule="evenodd" clip-rule="evenodd" d="M25.0258 6.1871C25.3576 6.3532 25.6099 6.64425 25.7273 6.99628C25.8446 7.34831 25.8174 7.73252 25.6516 8.0645L24.008 11.3545C25.8588 12.6437 27.3703 14.3614 28.4137 16.3611C29.457 18.3608 30.0013 20.5832 30 22.8387V24.2387C30 24.9813 29.705 25.6935 29.1799 26.2186C28.6548 26.7437 27.9426 27.0387 27.2 27.0387H4.8C4.0574 27.0387 3.34521 26.7437 2.8201 26.2186C2.295 25.6935 2 24.9813 2 24.2387V22.8387C1.99849 20.5829 2.54263 18.3603 3.58601 16.3603C4.62938 14.3603 6.14103 12.6424 7.992 11.3531L6.3484 8.0645C6.25941 7.89947 6.20447 7.71825 6.18685 7.53159C6.16923 7.34492 6.18928 7.15662 6.24581 6.97786C6.30235 6.79909 6.39422 6.6335 6.51596 6.49092C6.63771 6.34833 6.78686 6.23165 6.95456 6.1478C7.12225 6.06395 7.30509 6.01464 7.4922 6.0028C7.67932 5.99095 7.86691 6.01681 8.04384 6.07884C8.22078 6.14088 8.38345 6.23782 8.52221 6.36391C8.66096 6.49001 8.77298 6.64269 8.8516 6.8129L10.4392 9.9867C12.1949 9.22821 14.0874 8.83751 16 8.8387C17.9754 8.8387 19.857 9.2475 21.5608 9.9867L23.1484 6.8129C23.3145 6.48108 23.6056 6.22878 23.9576 6.11144C24.3096 5.99409 24.6938 6.02131 25.0258 6.1871ZM9.7 17.2387C9.14305 17.2387 8.6089 17.4599 8.21508 17.8538C7.82125 18.2476 7.6 18.7817 7.6 19.3387C7.6 19.8956 7.82125 20.4298 8.21508 20.8236C8.6089 21.2174 9.14305 21.4387 9.7 21.4387C10.257 21.4387 10.7911 21.2174 11.1849 20.8236C11.5788 20.4298 11.8 19.8956 11.8 19.3387C11.8 18.7817 11.5788 18.2476 11.1849 17.8538C10.7911 17.4599 10.257 17.2387 9.7 17.2387ZM22.3 17.2387C21.743 17.2387 21.2089 17.4599 20.8151 17.8538C20.4212 18.2476 20.2 18.7817 20.2 19.3387C20.2 19.8956 20.4212 20.4298 20.8151 20.8236C21.2089 21.2174 21.743 21.4387 22.3 21.4387C22.857 21.4387 23.3911 21.2174 23.7849 20.8236C24.1787 20.4298 24.4 19.8956 24.4 19.3387C24.4 18.7817 24.1787 18.2476 23.7849 17.8538C23.3911 17.4599 22.857 17.2387 22.3 17.2387Z" fill="currentColor"/>
</svg>
