<!-- Generated by IcoMoon.io -->
<svg version="1.1" xmlns="http://www.w3.org/2000/svg" width="32" height="32" viewBox="0 0 32 32">
<title>angle-double-up</title>
<path d="M3.68 17.54l12.32-11.38 12.32 11.38c0.2 0.18 0.44 0.26 0.68 0.26 0.26 0 0.54-0.1 0.74-0.32 0.38-0.4 0.34-1.040-0.060-1.42l-13-12c-0.38-0.36-0.98-0.36-1.36 0l-13 12c-0.4 0.38-0.44 1-0.060 1.42 0.38 0.4 1.020 0.42 1.42 0.060z"></path>
<path d="M16.68 14.46c-0.38-0.36-0.98-0.36-1.36 0l-13 12c-0.4 0.38-0.44 1-0.060 1.42 0.38 0.4 1 0.42 1.42 0.060l12.32-11.38 12.32 11.38c0.2 0.18 0.44 0.26 0.68 0.26 0.26 0 0.54-0.1 0.74-0.32 0.38-0.4 0.34-1.040-0.060-1.42l-13-12z"></path>
</svg>
