<!-- Generated by IcoMoon.io -->
<svg version="1.1" xmlns="http://www.w3.org/2000/svg" width="32" height="32" viewBox="0 0 32 32">
<title>angle-double-left</title>
<path d="M6.16 16l11.38-12.32c0.38-0.4 0.34-1.040-0.060-1.42s-1.040-0.34-1.42 0.060l-12 13c-0.36 0.38-0.36 0.98 0 1.36l12 13c0.2 0.22 0.48 0.32 0.74 0.32 0.24 0 0.48-0.080 0.68-0.26 0.4-0.38 0.44-1 0.060-1.42l-11.38-12.32z"></path>
<path d="M16.56 16l11.38-12.32c0.38-0.4 0.34-1.040-0.060-1.42s-1.040-0.34-1.42 0.060l-12 13c-0.36 0.38-0.36 0.98 0 1.36l12 13c0.2 0.22 0.46 0.32 0.74 0.32 0.24 0 0.48-0.080 0.68-0.26 0.4-0.38 0.44-1 0.060-1.42l-11.38-12.32z"></path>
</svg>
