<!-- Generated by IcoMoon.io -->
<svg version="1.1" xmlns="http://www.w3.org/2000/svg" width="32" height="32" viewBox="0 0 32 32">
<title>angle-double-down</title>
<path d="M28.32 14.46l-12.32 11.38-12.32-11.38c-0.4-0.38-1.040-0.34-1.42 0.060s-0.34 1.040 0.060 1.42l13 12c0.2 0.18 0.44 0.26 0.68 0.26s0.48-0.080 0.68-0.26l13-12c0.4-0.38 0.44-1 0.060-1.42-0.38-0.4-1.020-0.42-1.42-0.060z"></path>
<path d="M15.32 17.54c0.2 0.18 0.44 0.26 0.68 0.26s0.48-0.080 0.68-0.26l13-12c0.4-0.38 0.44-1 0.060-1.42-0.38-0.4-1-0.42-1.42-0.060l-12.32 11.38-12.32-11.38c-0.4-0.38-1.040-0.36-1.42 0.060-0.38 0.4-0.34 1.040 0.060 1.42l13 12z"></path>
</svg>
