<!-- Generated by IcoMoon.io -->
<svg version="1.1" xmlns="http://www.w3.org/2000/svg" width="32" height="32" viewBox="0 0 32 32">
<title>apkfile</title>
<path d="M8.016 16h15.969c-0.163-2.637-1.603-4.931-3.712-6.266l1.469-2.447c0.141-0.237 0.066-0.544-0.172-0.688-0.238-0.141-0.544-0.066-0.688 0.172l-1.488 2.481c-1.031-0.484-2.181-0.756-3.394-0.756-1.141 0-2.225 0.238-3.206 0.669l-1.697-2.425c-0.159-0.225-0.469-0.281-0.697-0.122-0.225 0.159-0.281 0.469-0.122 0.697l1.619 2.313c-2.2 1.319-3.716 3.662-3.881 6.372zM19.594 11.625c0.363 0 0.656 0.294 0.656 0.656s-0.294 0.656-0.656 0.656-0.656-0.294-0.656-0.656 0.294-0.656 0.656-0.656zM12.406 11.625c0.363 0 0.656 0.294 0.656 0.656s-0.294 0.656-0.656 0.656-0.656-0.294-0.656-0.656 0.294-0.656 0.656-0.656z"></path>
<path d="M18.156 19.544c-0.122-0.256-0.284-0.459-0.484-0.603-0.225-0.178-0.453-0.297-0.681-0.356l-0.016-0.003c-0.209-0.041-0.431-0.063-0.656-0.063h-2.184v5.841h1.309v-2.084h0.984c0.622-0.012 1.106-0.219 1.438-0.616 0.316-0.369 0.478-0.788 0.478-1.241 0.003-0.334-0.059-0.628-0.188-0.875zM16.881 20.819c-0.103 0.122-0.262 0.184-0.488 0.188h-0.947v-1.225h0.925c0.172-0.003 0.316 0.031 0.441 0.113l0.009 0.006c0.069 0.041 0.122 0.091 0.159 0.159 0.041 0.087 0.059 0.2 0.059 0.334-0.003 0.156-0.056 0.297-0.159 0.425z"></path>
<path d="M23.984 24.356h-1.541l-1.363-2.444-0.634 0.669v1.775h-1.309v-5.837h1.309v2.303l1.844-2.303h1.603l-1.931 2.378z"></path>
<path d="M11.166 18.519h-1.028l-2.122 5.841h1.394l0.409-1.194h1.669l0.412 1.194h1.387l-2.122-5.841zM10.219 21.944l0.434-1.309 0.434 1.309h-0.869z"></path>
<path d="M27 5v22h-22v-22h22zM28 3h-24c-0.553 0-1 0.447-1 1v24c0 0.553 0.447 1 1 1h24c0.553 0 1-0.447 1-1v-24c0-0.553-0.447-1-1-1v0z"></path>
</svg>
