<svg width="32" height="32" viewBox="0 0 32 32" fill="none" xmlns="http://www.w3.org/2000/svg">
<path d="M17.4187 8.91333L18.412 8.50533C19.2187 8.18533 20.2613 7.85867 21.492 8.06533C24.0133 8.48933 25.752 9.85067 26.788 11.656C27.188 12.352 26.8653 13.2693 26.1187 13.5613C25.479 13.8116 24.9322 14.2532 24.553 14.8259C24.1739 15.3986 23.9808 16.0745 24.0002 16.761C24.0196 17.4476 24.2505 18.1115 24.6614 18.6619C25.0724 19.2122 25.6432 19.6223 26.296 19.836C26.9867 20.0627 27.376 20.8293 27.1493 21.52C26.56 23.3093 25.712 24.9613 24.708 26.2947C23.716 27.612 22.5053 28.7053 21.1573 29.24C20.2773 29.5867 19.3333 29.4573 18.4307 29.2333L17.8947 29.0907L17.0987 28.86C16.7373 28.7547 16.3653 28.664 16 28.664C15.6333 28.664 15.2627 28.7547 14.9013 28.86L14.1053 29.0907L13.5693 29.2333C12.6667 29.4573 11.7213 29.588 10.8427 29.24C9.14533 28.568 7.648 27 6.516 25.1507C5.292 23.1134 4.48356 20.854 4.13733 18.5027C3.83467 16.4307 3.99867 14.104 4.95733 12.136C5.944 10.108 7.752 8.52933 10.508 8.06533C11.628 7.87733 12.5907 8.12933 13.3613 8.41867L13.8027 8.592L14.5813 8.91333C15.1147 9.12267 15.5347 9.24533 16 9.24533C16.464 9.24533 16.8853 9.12267 17.4187 8.91333ZM15.6907 3.69067C16.992 2.388 18.9907 2.276 19.4613 2.748C19.9333 3.21867 19.8213 5.21733 18.5187 6.51867C17.2173 7.82 15.2187 7.932 14.748 7.46133C14.276 6.99067 14.388 4.992 15.6907 3.69067Z" fill="currentColor"/>
</svg>
