<!-- Generated by IcoMoon.io -->
<svg version="1.1" xmlns="http://www.w3.org/2000/svg" width="32" height="32" viewBox="0 0 32 32">
<title>apps</title>
<path d="M11.007 32h-8.005c-1.658 0-3.002-1.344-3.002-3.002v-8.005c0-1.658 1.344-3.002 3.002-3.002h8.005c1.658 0 3.002 1.344 3.002 3.002v8.005c0 1.658-1.344 3.002-3.002 3.002zM3.002 19.992c-0.553 0-1.001 0.448-1.001 1.001v8.005c0 0.553 0.448 1.001 1.001 1.001h8.005c0.553 0 1.001-0.448 1.001-1.001v-8.005c0-0.553-0.448-1.001-1.001-1.001z"></path>
<path d="M11.007 15.99h-8.005c-1.658 0-3.002-1.344-3.002-3.002v-8.005c0-1.658 1.344-3.002 3.002-3.002h8.005c1.658 0 3.002 1.344 3.002 3.002v8.005c0 1.658-1.344 3.002-3.002 3.002zM3.002 3.982c-0.553 0-1.001 0.448-1.001 1.001v8.005c0 0.553 0.448 1.001 1.001 1.001h8.005c0.553 0 1.001-0.448 1.001-1.001v-8.005c0-0.553-0.448-1.001-1.001-1.001z"></path>
<path d="M27.017 32h-8.005c-1.658 0-3.002-1.344-3.002-3.002v-8.005c0-1.658 1.344-3.002 3.002-3.002h8.005c1.658 0 3.002 1.344 3.002 3.002v8.005c0 1.658-1.344 3.002-3.002 3.002zM19.012 19.992c-0.553 0-1.001 0.448-1.001 1.001v8.005c0 0.553 0.448 1.001 1.001 1.001h8.005c0.553 0 1.001-0.448 1.001-1.001v-8.005c0-0.553-0.448-1.001-1.001-1.001z"></path>
<path d="M23.515 16.991c-0.002 0-0.004 0-0.006 0-0.827 0-1.575-0.337-2.116-0.88l-5.504-5.504c-0.542-0.543-0.878-1.293-0.878-2.121s0.335-1.578 0.878-2.121l5.503-5.503c0.551-0.524 1.299-0.846 2.121-0.846s1.57 0.322 2.123 0.848l5.502 5.502c0.542 0.543 0.878 1.293 0.878 2.121s-0.335 1.578-0.878 2.121l-5.503 5.503c-0.54 0.544-1.289 0.881-2.116 0.881-0.002 0-0.004 0-0.006 0zM23.515 1.981c-0.275 0.004-0.522 0.118-0.7 0.3l-5.524 5.504c-0.183 0.181-0.296 0.433-0.296 0.71s0.113 0.529 0.296 0.71l5.524 5.503c0.181 0.183 0.433 0.296 0.71 0.296s0.529-0.113 0.71-0.296l5.503-5.524c0.183-0.181 0.296-0.433 0.296-0.71s-0.113-0.529-0.296-0.71l-5.524-5.503c-0.18-0.173-0.425-0.28-0.694-0.28-0.002 0-0.004 0-0.006 0z"></path>
</svg>
