<!-- Generated by IcoMoon.io -->
<svg version="1.1" xmlns="http://www.w3.org/2000/svg" width="32" height="32" viewBox="0 0 32 32">
<title>archive</title>
<path d="M16 23.563c-1.456 0-2.866-0.284-4.197-0.847-1.284-0.544-2.438-1.319-3.428-2.309s-1.766-2.144-2.309-3.428c-0.563-1.331-0.847-2.741-0.847-4.197s0.284-2.866 0.847-4.197c0.544-1.284 1.319-2.438 2.309-3.428s2.144-1.766 3.428-2.309c1.331-0.563 2.741-0.847 4.197-0.847s2.866 0.284 4.197 0.847c1.284 0.544 2.438 1.319 3.428 2.309s1.766 2.144 2.309 3.428c0.563 1.331 0.847 2.741 0.847 4.197s-0.284 2.866-0.847 4.197c-0.544 1.284-1.319 2.438-2.309 3.428s-2.144 1.766-3.428 2.309c-1.331 0.563-2.741 0.847-4.197 0.847zM16 4c-4.841 0-8.781 3.941-8.781 8.781s3.941 8.781 8.781 8.781c4.841 0 8.781-3.941 8.781-8.781s-3.941-8.781-8.781-8.781z"></path>
<path d="M5.219 28h21.563v2h-21.563v-2z"></path>
</svg>
