<!-- Generated by IcoMoon.io -->
<svg version="1.1" xmlns="http://www.w3.org/2000/svg" width="32" height="32" viewBox="0 0 32 32">
<title>arrows-down-circle-shape</title>
<path d="M16 0c-8.837 0-16 7.163-16 16s7.163 16 16 16c8.837 0 16-7.163 16-16s-7.163-16-16-16zM22.6 18.36l-6 5.38-0.16 0.1h-0.14c-0.109 0.047-0.236 0.074-0.37 0.074s-0.261-0.027-0.376-0.077l-0.134 0.002-0.16-0.1-6-5.38c-0.229-0.185-0.374-0.465-0.374-0.78 0-0.552 0.448-1 1-1 0.28 0 0.532 0.115 0.714 0.3l4.4 3.86v-11.74c0-0.552 0.448-1 1-1s1 0.448 1 1v11.74l4.26-3.86c0.182-0.185 0.434-0.3 0.714-0.3 0.552 0 1 0.448 1 1 0 0.314-0.145 0.595-0.372 0.778z"></path>
</svg>
