<!-- Generated by IcoMoon.io -->
<svg version="1.1" xmlns="http://www.w3.org/2000/svg" width="32" height="32" viewBox="0 0 32 32">
<title>arrows-down</title>
<path d="M26.040 17.86c-0.38-0.4-1-0.44-1.42-0.060l-7.62 6.94v-19.74c0-0.56-0.44-1-1-1s-1 0.44-1 1v19.74l-7.64-6.94c-0.4-0.38-1.040-0.34-1.42 0.060s-0.34 1.040 0.060 1.42l9.3 8.46c0.040 0.040 0.1 0.060 0.16 0.1 0.040 0.020 0.080 0.060 0.14 0.080 0.14 0.060 0.28 0.080 0.4 0.080s0.26-0.020 0.38-0.080c0.060-0.020 0.1-0.060 0.14-0.080 0.060-0.040 0.12-0.060 0.16-0.1l9.3-8.46c0.42-0.38 0.44-1 0.060-1.42z"></path>
</svg>
