<!-- Generated by IcoMoon.io -->
<svg version="1.1" xmlns="http://www.w3.org/2000/svg" width="32" height="32" viewBox="0 0 32 32">
<title>arrows-m-up-shape</title>
<path d="M32 16.869c0.005-0.038 0.007-0.081 0.007-0.126s-0.003-0.088-0.008-0.131c0.003-0.022 0.004-0.054 0.004-0.086s-0.001-0.064-0.004-0.096l0-0.133c-0.046-0.087-0.1-0.162-0.161-0.23l0.001 0.001-14.857-13.486c-0.205-0.184-0.478-0.297-0.777-0.297s-0.572 0.113-0.778 0.298l-15.062 13.416c-0.060 0.067-0.114 0.142-0.157 0.223l-0.209 0.235c-0.002 0.024-0.003 0.052-0.003 0.080s0.001 0.056 0.003 0.084c-0.005 0.034-0.007 0.078-0.007 0.122s0.003 0.088 0.008 0.131l-0.001-0.005v11.703c-0.002 0.024-0.003 0.052-0.003 0.080s0.001 0.056 0.003 0.084c-0.005 0.034-0.008 0.078-0.008 0.122s0.003 0.088 0.008 0.131c0.039 0.082 0.085 0.157 0.138 0.226l-0.002 0.135 0.206 0.16h1.029l0.229-0.137h0.137l14.263-12.731 14.057 12.754h0.114l0.251 0.137h0.983l0.229-0.16v-0.137c0.052-0.066 0.098-0.141 0.134-0.222 0.008-0.045 0.010-0.088 0.010-0.133s-0.003-0.088-0.008-0.131c0.002-0.019 0.004-0.047 0.004-0.075s-0.001-0.056-0.003-0.084l0-11.699z"></path>
</svg>
