<!-- Generated by IcoMoon.io -->
<svg version="1.1" xmlns="http://www.w3.org/2000/svg" width="32" height="32" viewBox="0 0 32 32">
<title>arrows-m-right-shape</title>
<path d="M29.417 15.223l-13.417-14.857-0.229-0.16-0.229-0.206h-12.549l-0.229 0.137h-0.137c-0.059 0.061-0.112 0.128-0.157 0.201l-0.186 0.348c-0.001 0.020-0.002 0.044-0.002 0.069s0.001 0.048 0.002 0.072c-0.006 0.041-0.010 0.093-0.010 0.145s0.004 0.104 0.010 0.154l-0.001-0.006c-0.002 0.024-0.003 0.052-0.003 0.080s0.001 0.056 0.003 0.084c-0.005 0.034-0.007 0.078-0.007 0.122s0.003 0.088 0.007 0.131c0.039 0.082 0.085 0.157 0.138 0.226l-0.002 0.135 12.937 14.103-12.754 14.057v0.114c-0.053 0.073-0.099 0.155-0.135 0.244-0.006 0.042-0.009 0.082-0.009 0.122s0.002 0.080 0.006 0.119c-0.003 0.023-0.004 0.054-0.004 0.087s0.001 0.064 0.004 0.096l-0.183-0.004c-0.002 0.065-0.003 0.141-0.003 0.217s0.001 0.152 0.004 0.228l-0 0.126c0.047 0.087 0.1 0.162 0.161 0.23l-0.001-0.001h0.137l0.229 0.137h12.709l0.229-0.16h0.251l13.486-14.857c0.184-0.205 0.297-0.478 0.297-0.777s-0.113-0.572-0.298-0.778z"></path>
</svg>
