<!-- Generated by IcoMoon.io -->
<svg version="1.1" xmlns="http://www.w3.org/2000/svg" width="32" height="32" viewBox="0 0 32 32">
<title>arrows-up-circle-shape</title>
<path d="M16 0c-8.837 0-16 7.163-16 16s7.163 16 16 16c8.837 0 16-7.163 16-16s-7.163-16-16-16zM22.66 15.060c-0.181 0.183-0.432 0.296-0.71 0.296s-0.529-0.113-0.71-0.296l-4.24-3.8v11.74c0 0.552-0.448 1-1 1s-1-0.448-1-1v-11.74l-4.24 3.86c-0.182 0.185-0.434 0.3-0.714 0.3-0.552 0-1-0.448-1-1 0-0.314 0.145-0.595 0.372-0.778l6.002-5.381h0.3c0.076-0.104 0.169-0.191 0.276-0.258l0.004-0.002c0.051-0.009 0.11-0.015 0.17-0.015s0.119 0.005 0.176 0.015l0.134-0.001h0.16l6 5.38c0.283 0.18 0.468 0.492 0.468 0.846 0 0.347-0.176 0.652-0.444 0.831z"></path>
</svg>
