<!-- Generated by IcoMoon.io -->
<svg version="1.1" xmlns="http://www.w3.org/2000/svg" width="32" height="32" viewBox="0 0 32 32">
<title>arrows-up-shape</title>
<path d="M30.133 12.587c0.006-0.048 0.010-0.104 0.010-0.16s-0.003-0.112-0.010-0.166c0.003-0.021 0.004-0.054 0.004-0.087s-0.001-0.065-0.003-0.098l-0.133-0.209-0.267-0.213-12.427-11.307c-0.235-0.213-0.549-0.344-0.893-0.344s-0.658 0.13-0.894 0.345l-12.452 11.279-0.16 0.213c-0.048 0.062-0.092 0.132-0.13 0.206-0.006 0.036-0.007 0.068-0.007 0.101s0.001 0.065 0.003 0.098c-0.006 0.044-0.010 0.099-0.010 0.156s0.003 0.112 0.010 0.166l-0.001-0.007c-0.003 0.032-0.005 0.069-0.005 0.107s0.002 0.075 0.005 0.111c-0.003 0.021-0.005 0.052-0.005 0.083 0 0.175 0.051 0.339 0.14 0.476l-0.002 0.13h0.16c0.092 0.093 0.197 0.173 0.313 0.237l0.007 0.003h9.013v15.627c0 1.473 1.194 2.667 2.667 2.667h2.667c1.473 0 2.667-1.194 2.667-2.667v-15.387h8.96c0.153-0.114 0.278-0.256 0.37-0.42l0.003-0.007v-0.133c0.128-0.151 0.207-0.345 0.213-0.559 0.002-0.029 0.003-0.062 0.003-0.095s-0.001-0.065-0.004-0.098z"></path>
</svg>
