<!-- Generated by IcoMoon.io -->
<svg version="1.1" xmlns="http://www.w3.org/2000/svg" width="32" height="32" viewBox="0 0 32 32">
<title>arrows-up</title>
<path d="M25.98 12.72l-9.3-8.46c-0.060-0.040-0.12-0.060-0.16-0.1-0.060-0.020-0.1-0.060-0.14-0.080-0.12-0.040-0.24-0.080-0.36-0.080 0 0-0.020 0-0.020 0s-0.020 0-0.020 0c-0.12 0-0.24 0.040-0.36 0.080-0.040 0.020-0.080 0.060-0.14 0.080-0.040 0.040-0.1 0.060-0.16 0.1l-9.3 8.46c-0.4 0.38-0.44 1-0.060 1.42s1 0.44 1.42 0.060l7.62-6.94v19.74c0 0.56 0.44 1 1 1s1-0.44 1-1v-19.74l7.64 6.94c0.2 0.18 0.44 0.26 0.68 0.26 0.28 0 0.54-0.12 0.74-0.32 0.36-0.42 0.34-1.040-0.080-1.42z"></path>
</svg>
