<!-- Generated by IcoMoon.io -->
<svg version="1.1" xmlns="http://www.w3.org/2000/svg" width="32" height="32" viewBox="0 0 32 32">
<title>arrows-up-circle</title>
<path d="M16 0c-8.82 0-16 7.18-16 16s7.18 16 16 16 16-7.18 16-16-7.18-16-16-16zM16 30c-7.72 0-14-6.28-14-14s6.28-14 14-14c7.72 0 14 6.28 14 14s-6.28 14-14 14z"></path>
<path d="M16.68 8.26c-0.060-0.040-0.12-0.060-0.16-0.1-0.060-0.020-0.1-0.060-0.16-0.080-0.1-0.040-0.22-0.060-0.32-0.080-0.020 0-0.020 0-0.040 0 0 0-0.020 0-0.020 0-0.12 0-0.24 0.020-0.36 0.080-0.040 0.020-0.080 0.060-0.14 0.080-0.040 0.040-0.1 0.060-0.16 0.1l-5.92 5.38c-0.4 0.38-0.44 1-0.060 1.42 0.38 0.4 1 0.44 1.42 0.060l4.24-3.86v11.74c0 0.56 0.44 1 1 1s1-0.44 1-1v-11.74l4.26 3.86c0.2 0.18 0.44 0.26 0.68 0.26 0.28 0 0.54-0.12 0.74-0.32 0.38-0.4 0.34-1.040-0.060-1.42l-5.94-5.38z"></path>
</svg>
