<!-- Generated by IcoMoon.io -->
<svg version="1.1" xmlns="http://www.w3.org/2000/svg" width="32" height="32" viewBox="0 0 32 32">
<title>arrows-right-circle</title>
<path d="M16 0c-8.82 0-16 7.18-16 16s7.18 16 16 16 16-7.18 16-16-7.18-16-16-16zM16 30c-7.72 0-14-6.28-14-14s6.28-14 14-14c7.72 0 14 6.28 14 14s-6.28 14-14 14z"></path>
<path d="M24 16.020c0 0 0-0.020 0-0.020s0-0.020 0-0.020c0-0.12-0.020-0.24-0.060-0.34-0.020-0.060-0.060-0.1-0.080-0.14-0.040-0.060-0.060-0.12-0.1-0.16l-5.4-5.94c-0.38-0.4-1-0.44-1.42-0.060-0.4 0.38-0.44 1-0.060 1.42l3.86 4.26h-11.74c-0.56-0.020-1 0.42-1 0.98s0.44 1 1 1h11.74l-3.86 4.26c-0.38 0.4-0.34 1.040 0.060 1.42 0.2 0.18 0.44 0.26 0.68 0.26 0.28 0 0.54-0.1 0.74-0.32l5.38-5.92c0.040-0.040 0.060-0.1 0.1-0.16 0.020-0.040 0.060-0.1 0.080-0.14 0.040-0.14 0.080-0.26 0.080-0.38z"></path>
</svg>
