<!-- Generated by IcoMoon.io -->
<svg version="1.1" xmlns="http://www.w3.org/2000/svg" width="32" height="32" viewBox="0 0 32 32">
<title>arrows-left-circle-shape</title>
<path d="M16 0c-8.837 0-16 7.163-16 16s7.163 16 16 16c8.837 0 16-7.163 16-16s-7.163-16-16-16zM23 17h-11.74l3.86 4.26c0.185 0.182 0.3 0.434 0.3 0.714 0 0.552-0.448 1-1 1-0.314 0-0.595-0.145-0.778-0.372l-5.381-6.002c-0.002-0.024-0.003-0.052-0.003-0.080s0.001-0.056 0.004-0.084l-0-0.136c-0.045-0.11-0.071-0.237-0.071-0.37s0.026-0.26 0.073-0.377l-0.002-0.133c-0.002-0.024-0.003-0.052-0.003-0.080s0.001-0.056 0.004-0.084l5.38-5.996c0.185-0.229 0.465-0.374 0.78-0.374 0.552 0 1 0.448 1 1 0 0.28-0.115 0.532-0.3 0.714l-3.86 4.4h11.74c0.552 0 1 0.448 1 1s-0.448 1-1 1z"></path>
</svg>
