<!-- Generated by IcoMoon.io -->
<svg version="1.1" xmlns="http://www.w3.org/2000/svg" width="32" height="32" viewBox="0 0 32 32">
<title>arrows-left-shape</title>
<path d="M29.333 12.4h-15.387v-8.453c0.002-0.028 0.003-0.061 0.003-0.093s-0.001-0.065-0.004-0.098c0.006-0.044 0.010-0.099 0.010-0.156s-0.004-0.112-0.010-0.167l0.001 0.006c-0.114-0.153-0.256-0.278-0.42-0.37l-0.007-0.003-0.187-0.16-0.267-0.16h-0.987l-0.213 0.133-0.213 0.187-11.307 12.427c-0.213 0.235-0.344 0.549-0.344 0.893s0.13 0.658 0.345 0.894l11.279 12.452 0.213 0.16 0.213 0.133h1.013l0.267-0.16h0.133c0.082-0.085 0.153-0.181 0.21-0.286l0.004-0.007c0.005-0.044 0.008-0.095 0.008-0.147s-0.003-0.103-0.008-0.153c0.003-0.026 0.005-0.063 0.005-0.101s-0.002-0.075-0.005-0.111l0-8.662h15.653c1.473 0 2.667-1.194 2.667-2.667v-2.667c0-1.473-1.194-2.667-2.667-2.667z"></path>
</svg>
