<!-- Generated by IcoMoon.io -->
<svg version="1.1" xmlns="http://www.w3.org/2000/svg" width="32" height="32" viewBox="0 0 32 32">
<title>arrows-right-circle-shape</title>
<path d="M16 0c-8.837 0-16 7.163-16 16s7.163 16 16 16c8.837 0 16-7.163 16-16s-7.163-16-16-16zM24 16c0.009 0.051 0.015 0.11 0.015 0.17s-0.005 0.119-0.015 0.176l0.001 0.134c0.002 0.024 0.003 0.052 0.003 0.080s-0.001 0.056-0.004 0.084l-5.38 5.996c-0.185 0.229-0.465 0.374-0.78 0.374-0.552 0-1-0.448-1-1 0-0.279 0.115-0.532 0.3-0.714l3.6-4.3h-11.74c-0.552 0-1-0.448-1-1s0.448-1 1-1h11.74l-3.86-4.24c-0.185-0.182-0.3-0.434-0.3-0.714 0-0.552 0.448-1 1-1 0.314 0 0.595 0.145 0.778 0.372l5.381 6.002c0.002 0.024 0.003 0.052 0.003 0.080s-0.001 0.056-0.004 0.084l0 0.136c0.104 0.076 0.191 0.169 0.258 0.276l0.002 0.004z"></path>
</svg>
