<!-- Generated by IcoMoon.io -->
<svg version="1.1" xmlns="http://www.w3.org/2000/svg" width="32" height="32" viewBox="0 0 32 32">
<title>arrows-down-circle</title>
<path d="M16 0c-8.82 0-16 7.18-16 16s7.18 16 16 16 16-7.18 16-16-7.18-16-16-16zM16 30c-7.72 0-14-6.28-14-14s6.28-14 14-14c7.72 0 14 6.28 14 14s-6.28 14-14 14z"></path>
<path d="M21.26 16.88l-4.26 3.86v-11.74c0-0.56-0.44-1-1-1s-1 0.44-1 1v11.74l-4.24-3.86c-0.4-0.36-1.040-0.34-1.42 0.060-0.38 0.42-0.34 1.040 0.060 1.42l5.92 5.38c0.040 0.040 0.1 0.060 0.16 0.1 0.040 0.020 0.080 0.060 0.14 0.080 0.12 0.060 0.26 0.080 0.38 0.080s0.26-0.020 0.38-0.080c0.060-0.020 0.1-0.060 0.14-0.080 0.060-0.040 0.12-0.060 0.16-0.1l5.92-5.38c0.42-0.38 0.44-1 0.060-1.42-0.36-0.4-1-0.44-1.4-0.060z"></path>
</svg>
