<!-- Generated by IcoMoon.io -->
<svg version="1.1" xmlns="http://www.w3.org/2000/svg" width="32" height="32" viewBox="0 0 32 32">
<title>arrows-right-shape</title>
<path d="M31.653 15.493l-11.28-12.427-0.213-0.16-0.213-0.133h-0.987l-0.293 0.133-0.187 0.16c-0.093 0.092-0.173 0.197-0.237 0.313l-0.003 0.007c-0.006 0.048-0.010 0.104-0.010 0.16s0.003 0.112 0.010 0.167c-0.003 0.021-0.004 0.054-0.004 0.087s0.001 0.065 0.004 0.098l-0 8.502h-15.573c-1.473 0-2.667 1.194-2.667 2.667v2.667c0 1.473 1.194 2.667 2.667 2.667h15.387v8.453c-0.003 0.032-0.004 0.069-0.004 0.107s0.002 0.075 0.005 0.111c-0.005 0.039-0.008 0.090-0.008 0.142s0.003 0.103 0.009 0.153l-0.001-0.006c0.061 0.112 0.132 0.208 0.214 0.294l-0-0h0.133l0.267 0.16h1.013l0.213-0.133 0.453 0.053 11.28-12.4c0.213-0.235 0.344-0.549 0.344-0.893s-0.13-0.658-0.345-0.894z"></path>
</svg>
