<!-- Generated by IcoMoon.io -->
<svg version="1.1" xmlns="http://www.w3.org/2000/svg" width="32" height="32" viewBox="0 0 32 32">
<title>arrows-m-left-shape</title>
<path d="M29.714 30.446c-0.038-0.096-0.084-0.179-0.139-0.255l0.002-0.111-12.937-14.080 12.777-14.080v-0.137c0.052-0.066 0.098-0.141 0.134-0.222 0.007-0.045 0.010-0.088 0.010-0.133s-0.003-0.088-0.007-0.131c0.002-0.019 0.003-0.047 0.003-0.075s-0.001-0.056-0.003-0.084l0 0.004c0.006-0.045 0.010-0.096 0.010-0.149s-0.004-0.104-0.010-0.154c0.002-0.015 0.003-0.039 0.003-0.063s-0.001-0.048-0.002-0.072l0-0.157c-0.048-0.078-0.101-0.145-0.16-0.206l0 0h-0.137l-0.251-0.343h-12.686l-0.32 0.343-13.486 14.857c-0.184 0.205-0.297 0.478-0.297 0.777s0.113 0.572 0.298 0.778l13.485 14.879 0.229 0.16h12.709l0.229-0.137h0.137c0.060-0.067 0.113-0.142 0.157-0.223l0.003-0.143c0.002-0.065 0.003-0.141 0.003-0.217s-0.001-0.152-0.004-0.228l0 0.011c0.002-0.027 0.004-0.059 0.004-0.091s-0.001-0.064-0.004-0.096c0.097-0.061 0.18-0.136 0.25-0.222z"></path>
</svg>
