<!-- Generated by IcoMoon.io -->
<svg version="1.1" xmlns="http://www.w3.org/2000/svg" width="32" height="32" viewBox="0 0 32 32">
<title>arrows-m-down-shape</title>
<path d="M32 3.246c0.005-0.038 0.007-0.081 0.007-0.126s-0.003-0.088-0.008-0.131c-0.039-0.082-0.085-0.157-0.138-0.226l0.002-0.135-0.229-0.16-0.32-0.183h-0.846l-0.251 0.137h-0.114l-14.103 12.937-14.080-12.777h-0.137l-0.229-0.297h-1.029l-0.206 0.16v0.137c-0.052 0.066-0.098 0.141-0.134 0.222-0.008 0.045-0.010 0.088-0.010 0.133s0.003 0.088 0.008 0.131c-0.002 0.019-0.004 0.047-0.004 0.075s0.001 0.056 0.003 0.084l-0 11.882h-0.183c-0.005 0.038-0.007 0.081-0.007 0.126s0.003 0.088 0.008 0.131c-0.003 0.022-0.004 0.054-0.004 0.086s0.001 0.064 0.004 0.096l-0 0.133c0.046 0.087 0.1 0.162 0.161 0.229l-0.001-0.001 14.857 13.486c0.205 0.184 0.478 0.297 0.777 0.297s0.572-0.113 0.778-0.298l15.062-13.393c0.060-0.067 0.114-0.142 0.157-0.223l0.003-0.143c0.002-0.027 0.004-0.059 0.004-0.091s-0.001-0.064-0.004-0.096c0.005-0.034 0.008-0.077 0.008-0.122s-0.003-0.088-0.008-0.131l0 0.005v-11.794c0.078-0.047 0.145-0.1 0.206-0.16z"></path>
</svg>
