<!-- Generated by IcoMoon.io -->
<svg version="1.1" xmlns="http://www.w3.org/2000/svg" width="32" height="32" viewBox="0 0 32 32">
<title>atom</title>
<path d="M16.012 30c-7.728 0-14.016-6.288-14.016-14.016 0-5.369 3.131-10.334 7.978-12.653 1.897-0.903 3.928-1.363 6.037-1.363 7.728 0 14.016 6.287 14.016 14.016s-6.284 14.016-14.016 14.016zM16.012 7.931c-1.216 0-2.381 0.262-3.466 0.781-2.787 1.331-4.588 4.184-4.588 7.272 0 4.441 3.612 8.053 8.053 8.053s8.053-3.613 8.053-8.053-3.613-8.053-8.053-8.053z"></path>
</svg>
