<!-- Generated by IcoMoon.io -->
<svg version="1.1" xmlns="http://www.w3.org/2000/svg" width="32" height="32" viewBox="0 0 32 32">
<title>back-shape</title>
<path d="M27.429 0c-0 0-0.001 0-0.001 0-0.269 0-0.516 0.095-0.709 0.253l-18.284 14.833c-0.262 0.211-0.428 0.532-0.428 0.891s0.166 0.68 0.425 0.89l18.288 14.836c0.187 0.173 0.434 0.284 0.706 0.297 0.634 0 1.145-0.512 1.145-1.143v-29.714c0-0.631-0.512-1.143-1.143-1.143z"></path>
<path d="M3.429 0c-0.631 0-1.143 0.512-1.143 1.143v29.714c0 0.631 0.512 1.143 1.143 1.143s1.143-0.512 1.143-1.143v-29.714c0-0.631-0.512-1.143-1.143-1.143z"></path>
</svg>
