<svg xmlns="http://www.w3.org/2000/svg" viewBox="0 0 64 64"><defs><style>.cls-1{fill:#dcdcdc;}.cls-2{fill:#f1f2f3;}.cls-3{fill:#017fc4;}.cls-4{fill:#009af8;}.cls-5{fill:#f4656b;}.cls-6{fill:#f3ce48;}.cls-7{fill:#4dc266;}</style></defs><title>研发商店-彩色logo</title><g id="图层_78" data-name="图层 78"><path class="cls-1" d="M46.07,52.44H36.56v-6h-8.7v6H17.8v2.18H46.07Z"/><rect class="cls-2" x="3.94" y="9.12" width="56" height="39.03" rx="2.73" ry="2.73"/><path class="cls-3" d="M6.67,9.12H57.21a2.73,2.73,0,0,1,2.73,2.73V41.49a0,0,0,0,1,0,0h-56a0,0,0,0,1,0,0V11.85A2.73,2.73,0,0,1,6.67,9.12Z"/><rect class="cls-4" x="6.66" y="11.86" width="50.56" height="26.9"/><rect class="cls-5" x="11.96" y="16.88" width="35.88" height="2.19"/><rect class="cls-6" x="11.96" y="21.8" width="23.2" height="2.19"/><rect class="cls-7" x="11.96" y="26.72" width="31.13" height="2.19"/><rect class="cls-7" x="11.96" y="31.65" width="16.06" height="2.19"/></g></svg>