<!-- Generated by IcoMoon.io -->
<svg version="1.1" xmlns="http://www.w3.org/2000/svg" width="32" height="32" viewBox="0 0 32 32">
<title>banben</title>
<path d="M16 16l-13.003-6.5 13.003-6.5 13.003 6.5-13.003 6.5zM7.472 9.5l8.528 4.266 8.528-4.266-8.528-4.266-8.528 4.266z"></path>
<path d="M22.453 14.963l2.075 1.037-8.528 4.266-8.528-4.266 2.075-1.037-2.237-1.119-4.313 2.156 13.003 6.5 13.003-6.5-4.313-2.156z"></path>
<path d="M22.453 21.462l2.075 1.038-8.528 4.266-8.528-4.266 2.075-1.038-2.237-1.119-4.313 2.156 13.003 6.5 13.003-6.5-4.313-2.156z"></path>
</svg>
