<!-- Generated by IcoMoon.io -->
<svg version="1.1" xmlns="http://www.w3.org/2000/svg" width="32" height="32" viewBox="0 0 32 32">
<title>bar-chart</title>
<path d="M31 26h-29v-21c0-0.56-0.44-1-1-1s-1 0.44-1 1v22c0 0.56 0.44 1 1 1h30c0.56 0 1-0.44 1-1s-0.44-1-1-1z"></path>
<path d="M6.26 23h1.5c0.56 0 1-0.44 1-1v-11c0-0.56-0.44-1-1-1h-1.5c-0.56 0-1 0.44-1 1v11c0 0.56 0.44 1 1 1z"></path>
<path d="M13.26 23h1.5c0.56 0 1-0.44 1-1v-17c0-0.56-0.44-1-1-1h-1.5c-0.56 0-1 0.44-1 1v17c0 0.56 0.44 1 1 1z"></path>
<path d="M20.26 23h1.5c0.56 0 1-0.44 1-1v-7c0-0.56-0.44-1-1-1h-1.5c-0.56 0-1 0.44-1 1v7c0 0.56 0.44 1 1 1z"></path>
<path d="M27.26 23h1.5c0.56 0 1-0.44 1-1v-3c0-0.56-0.44-1-1-1h-1.5c-0.56 0-1 0.44-1 1v3c0 0.56 0.44 1 1 1z"></path>
</svg>
