<!-- Generated by IcoMoon.io -->
<svg version="1.1" xmlns="http://www.w3.org/2000/svg" width="32" height="32" viewBox="0 0 32 32">
<title>benzhou</title>
<path d="M28 4h-3v2h2v3.5h-22v-3.5h2v-2h-3c-0.553 0-1 0.447-1 1v23c0 0.553 0.447 1 1 1h24c0.553 0 1-0.447 1-1v-23c0-0.553-0.447-1-1-1zM5 27v-15.5h22v15.5h-22z"></path>
<path d="M13 4h6v2h-6v-2z"></path>
<path d="M9 3h2v4h-2v-4z"></path>
<path d="M21 3h2v4h-2v-4z"></path>
<path d="M12.616 16.075h4.794v0.028l-4.281 7.819h1.981l4.275-8.162v-1.181h-6.769z"></path>
</svg>
