<!-- Generated by IcoMoon.io -->
<svg version="1.1" xmlns="http://www.w3.org/2000/svg" width="32" height="32" viewBox="0 0 32 32">
<title>bk</title>
<path d="M12 9.040c3.235 0.593 5.747 3.105 6.333 6.292l0.167 1.168c0.052 2.613 1.019 4.991 2.593 6.835 1.023 1.183 2.532 1.947 4.221 1.985 0.090 0.004 0.189 0.006 0.288 0.006 1.558 0 2.984-0.562 4.088-1.494 1.482-1.324 2.416-3.253 2.416-5.4 0-0.436-0.038-0.862-0.112-1.276-0.494-3.613-3.009-6.576-6.366-7.716-0.182-1.874-1.047-3.506-2.358-4.632-1.166-1.076-2.72-1.731-4.426-1.731-0.483 0-0.953 0.052-1.406 0.152-1.593 0.411-2.97 1.339-3.944 2.595-0.167 0.192-0.262 0.423-0.262 0.677 0 0.303 0.135 0.575 0.348 0.758l0.121 0.001c-0.506-0.127-1.090-0.207-1.691-0.22-0.191-0.013-0.404-0.020-0.619-0.020s-0.428 0.007-0.639 0.021l0.029-0.341c0.067-0.807 0.538-1.491 1.208-1.854 0.287-0.188 0.466-0.496 0.466-0.846 0-0.555-0.45-1.004-1.004-1.004-0.205 0-0.395 0.061-0.554 0.166-0.665 0.427-1.193 1.025-1.526 1.732-0.478-0.202-1.026-0.334-1.606-0.334-0.271 0-0.535 0.029-0.789 0.084-0.439 0.1-0.779 0.508-0.779 0.996 0 0.566 0.458 1.024 1.024 1.024 0.078 0 0.154-0.009 0.227-0.025 0.066-0.009 0.151-0.015 0.236-0.015 0.565 0 1.068 0.263 1.394 0.673l0.003 0.004c-3.82 0.88-6.16 4.36-7.5 7.4-1.040 2.34-2.52 6.74-0.76 9.9 0.926 1.908 2.78 3.235 4.96 3.399l22.020 0.001c0.552 0 1-0.448 1-1s-0.448-1-1-1h-22c-1.465-0.154-2.682-1.078-3.25-2.355-1.39-2.505 0.11-6.525 0.83-8.145 2.060-4.6 4.9-6.8 8.62-6.46zM15 7.16c0.713-0.967 1.727-1.677 2.903-1.992 0.315-0.068 0.634-0.102 0.961-0.102 1.184 0 2.263 0.445 3.081 1.177 0.993 0.9 1.617 2.2 1.617 3.646 0 0.039-0 0.077-0.001 0.115l0 1.014 0.78 0.12c2.978 0.728 5.226 3.171 5.655 6.2 0.060 0.328 0.091 0.661 0.091 1 0 1.641-0.737 3.11-1.899 4.093-0.672 0.517-1.516 0.824-2.431 0.824-0.133 0-0.264-0.006-0.393-0.019 0.016 0.001 0.016 0.001 0.016 0.001-1.112 0-2.111-0.486-2.796-1.256-1.231-1.524-1.981-3.474-2.003-5.599l-0.18-1.325c-0.717-3.492-3.135-6.293-6.33-7.536-0.034-0.020 0.007-0.017 0.048-0.017 0.32 0 0.606-0.141 0.801-0.365z"></path>
</svg>
