<!-- Generated by IcoMoon.io -->
<svg version="1.1" xmlns="http://www.w3.org/2000/svg" width="32" height="32" viewBox="0 0 32 32">
<title>block-shape</title>
<path d="M11.74 32h-8.54c-1.767 0-3.2-1.433-3.2-3.2v0-8.54c0-1.767 1.433-3.2 3.2-3.2v0h8.54c1.767 0 3.2 1.433 3.2 3.2v0 8.54c0 1.767-1.433 3.2-3.2 3.2v0z"></path>
<path d="M11.74 14.94h-8.54c-1.767 0-3.2-1.433-3.2-3.2v0-8.54c0-1.767 1.433-3.2 3.2-3.2v0h8.54c1.767 0 3.2 1.433 3.2 3.2v0 8.54c0 1.767-1.433 3.2-3.2 3.2v0z"></path>
<path d="M28.8 32h-8.54c-1.767 0-3.2-1.433-3.2-3.2v0-8.54c0-1.767 1.433-3.2 3.2-3.2v0h8.54c1.767 0 3.2 1.433 3.2 3.2v0 8.54c0 1.767-1.433 3.2-3.2 3.2v0z"></path>
<path d="M28.8 14.94h-8.54c-1.767 0-3.2-1.433-3.2-3.2v0-8.54c0-1.767 1.433-3.2 3.2-3.2h8.54c1.767 0 3.2 1.433 3.2 3.2v0 8.54c0 1.767-1.433 3.2-3.2 3.2v0z"></path>
</svg>
