<!-- Generated by IcoMoon.io -->
<svg version="1.1" xmlns="http://www.w3.org/2000/svg" width="32" height="32" viewBox="0 0 32 32">
<title>calendar-shape</title>
<path d="M7.44 1h1c0.552 0 1 0.448 1 1v4c0 0.552-0.448 1-1 1h-1c-0.552 0-1-0.448-1-1v-4c0-0.552 0.448-1 1-1z"></path>
<path d="M23.5 1h1c0.552 0 1 0.448 1 1v4c0 0.552-0.448 1-1 1h-1c-0.552 0-1-0.448-1-1v-4c0-0.552 0.448-1 1-1z"></path>
<path d="M31 11.5h-30c-0.552 0-1 0.448-1 1v16c0 1.657 1.343 3 3 3h26c1.657 0 3-1.343 3-3v-16c0-0.552-0.448-1-1-1zM25 25.5h-18c-0.552 0-1-0.448-1-1s0.448-1 1-1h18c0.552 0 1 0.448 1 1s-0.448 1-1 1zM25 19.5h-14c-0.552 0-1-0.448-1-1s0.448-1 1-1h14c0.552 0 1 0.448 1 1s-0.448 1-1 1z"></path>
<path d="M29 3.5h-2.5v2.5c0 1.105-0.895 2-2 2h-1c-1.105 0-2-0.895-2-2v-2.5h-11.060v2.5c0 1.105-0.895 2-2 2h-1c-1.105 0-2-0.895-2-2v-2.5h-2.44c-1.657 0-3 1.343-3 3v2c0 0.552 0.448 1 1 1h30c0.552 0 1-0.448 1-1v-2c0-1.657-1.343-3-3-3z"></path>
</svg>
