<!-- Generated by IcoMoon.io -->
<svg version="1.1" xmlns="http://www.w3.org/2000/svg" width="32" height="32" viewBox="0 0 32 32">
<title>calendar</title>
<path d="M29 3.5h-3.5v-1.5c0-0.552-0.448-1-1-1h-1c-0.552 0-1 0.448-1 1v1.5h-13.060v-1.5c0-0.552-0.448-1-1-1h-1c-0.552 0-1 0.448-1 1v1.5h-3.44c-1.657 0-3 1.343-3 3v22c0 1.657 1.343 3 3 3h26c1.657 0 3-1.343 3-3v-22c0-1.657-1.343-3-3-3zM2 6.5c0-0.552 0.448-1 1-1h3.44v0.5c0 0.552 0.448 1 1 1h1c0.552 0 1-0.448 1-1v-0.5h13.060v0.5c0 0.552 0.448 1 1 1h1c0.552 0 1-0.448 1-1v-0.5h3.5c0.552 0 1 0.448 1 1v3h-28zM29 29.5h-26c-0.552 0-1-0.448-1-1v-17h28v17c0 0.552-0.448 1-1 1z"></path>
<path d="M25 17.5h-14c-0.552 0-1 0.448-1 1s0.448 1 1 1h14c0.552 0 1-0.448 1-1s-0.448-1-1-1z"></path>
<path d="M25 23.5h-18c-0.552 0-1 0.448-1 1s0.448 1 1 1h18c0.552 0 1-0.448 1-1s-0.448-1-1-1z"></path>
</svg>
