<!-- Generated by IcoMoon.io -->
<svg version="1.1" xmlns="http://www.w3.org/2000/svg" width="32" height="32" viewBox="0 0 32 32">
<title>chain</title>
<path d="M30.999 23.153l-7.346-7.346c-0.583-0.594-1.38-0.976-2.266-1.023-0.014-0-0.021-0-0.028-0-0.884 0-1.683 0.366-2.254 0.954l-0.774 0.774-2.911-2.775 0.819-0.819c0.616-0.617 0.998-1.47 0.998-2.411s-0.381-1.794-0.998-2.411l-7.164-7.096c-0.617-0.616-1.47-0.998-2.411-0.998s-1.794 0.381-2.411 0.998l-3.252 3.252c-0.616 0.617-0.998 1.47-0.998 2.411s0.381 1.794 0.998 2.411l7.164 7.164c0.617 0.616 1.47 0.998 2.411 0.998s1.794-0.381 2.411-0.998l0.751-0.819 2.775 2.706-0.773 0.773c-0.586 0.581-0.95 1.385-0.955 2.273 0.047 0.895 0.43 1.692 1.023 2.275l7.347 7.347c0.622 0.627 1.481 1.017 2.432 1.023 0.89-0.008 1.693-0.372 2.275-0.955l3.161-3.161c0.542-0.595 0.873-1.39 0.873-2.262 0-0.884-0.341-1.688-0.898-2.289zM11.463 14.624c-0.209 0.202-0.493 0.327-0.807 0.327s-0.599-0.125-0.808-0.327l-7.232-7.164c-0.208-0.206-0.336-0.492-0.336-0.807s0.129-0.601 0.336-0.807l3.252-3.23c0.206-0.208 0.492-0.336 0.807-0.336s0.601 0.129 0.807 0.336l7.141 7.164c0.208 0.206 0.336 0.492 0.336 0.807s-0.129 0.601-0.336 0.807l-0.887 0.796-1.069-1.069c-0.207-0.207-0.492-0.334-0.807-0.334-0.631 0-1.142 0.511-1.142 1.142 0 0.315 0.128 0.601 0.334 0.807l1.137 1.001zM29.544 26.314l-3.161 3.161c-0.2 0.193-0.473 0.312-0.773 0.312s-0.573-0.119-0.774-0.312l-7.414-7.437c-0.208-0.211-0.338-0.499-0.341-0.818 0.007-0.257 0.11-0.488 0.273-0.661l0.773-0.773 1.183 1.183c0.207 0.207 0.492 0.334 0.807 0.334 0.631 0 1.142-0.511 1.142-1.142 0-0.315-0.128-0.601-0.334-0.807l-1.183-1.183 0.819-0.819c0.176-0.169 0.415-0.273 0.678-0.273 0.009 0 0.019 0 0.028 0l-0.001-0c0.32 0.003 0.608 0.133 0.819 0.341l7.346 7.346c0.2 0.201 0.323 0.479 0.323 0.785 0 0.295-0.114 0.563-0.301 0.762z"></path>
</svg>
