<!-- Generated by IcoMoon.io -->
<svg version="1.1" xmlns="http://www.w3.org/2000/svg" width="32" height="32" viewBox="0 0 32 32">
<title>check-circle-shape</title>
<path d="M16 0c-8.837 0-16 7.163-16 16s7.163 16 16 16c8.837 0 16-7.163 16-16s-7.163-16-16-16zM25.7 11.7l-12 12c-0.181 0.183-0.432 0.296-0.71 0.296s-0.529-0.113-0.71-0.296l-6-6c-0.182-0.182-0.294-0.433-0.294-0.71 0-0.555 0.45-1.004 1.004-1.004 0.277 0 0.528 0.112 0.71 0.294l5.3 5.3 11.3-11.3c0.182-0.182 0.433-0.294 0.71-0.294 0.555 0 1.004 0.45 1.004 1.004 0 0.277-0.112 0.528-0.294 0.71z"></path>
</svg>
