<svg xmlns="http://www.w3.org/2000/svg" viewBox="0 0 64 64"><defs><style>.cls-1{fill:#017fc4;}.cls-2{fill:#009af8;}.cls-3{fill:#f1f2f3;}.cls-4{fill:#f3ce48;}.cls-5{fill:#f4656b;}.cls-6{fill:#4dc266;}</style></defs><title>研发商店-彩色logo</title><g id="图层_78" data-name="图层 78"><path class="cls-1" d="M57.08,43V21.28a6.32,6.32,0,0,0-3.16-5.48L35.15,5a6.33,6.33,0,0,0-6.33,0L10.05,15.8a6.34,6.34,0,0,0-3.16,5.48V43a6.34,6.34,0,0,0,3.16,5.48L28.82,59.27a6.33,6.33,0,0,0,6.33,0L53.92,48.43A6.32,6.32,0,0,0,57.08,43Z"/><path class="cls-2" d="M37.3,29.24C41.11,24.29,47.52,14.56,41.07,12S32.61,20.92,32,27.14ZM39.89,15a2,2,0,1,1-2.55,1.09A2,2,0,0,1,39.89,15Z"/><path class="cls-2" d="M44.83,32.05,24.6,24a1.47,1.47,0,0,0-1.91.82L20.63,30l23,9.11L45.65,34A1.46,1.46,0,0,0,44.83,32.05Z"/><path class="cls-3" d="M20.64,30.05l-3.47,8.74a2,2,0,0,1-2.45.61c-1.64-.65-.78-2.83-.78-2.83s.84-1.5-1.09-2a1.61,1.61,0,0,0-2,1.1c-.22.54-2.87,6.14,3.52,8.67l5,2c1.14-.53,2.92-2.09,4.72-6.63,0,0-1.92,5.87-3.54,7.09L24,48.15c2.84-.52,5.19-6.44,5.19-6.44-1.47,4.64-2.79,6.63-3.24,7.22l4.43,1.75c2.84-.52,5.19-6.44,5.19-6.44-1.47,4.64-2.79,6.63-3.24,7.21l2.23.89a3.46,3.46,0,0,0,4.58-2L43.6,39.15Z"/><circle class="cls-4" cx="51.89" cy="30.87" r="1.98"/><circle class="cls-5" cx="15.38" cy="22.14" r="2.78"/><path class="cls-6" d="M47.92,45.45h-.69v-.68a.8.8,0,0,0-1.6,0v.68H45a.8.8,0,1,0,0,1.6h.68v.68a.8.8,0,1,0,1.6,0v-.68h.69a.8.8,0,0,0,0-1.6Z"/></g></svg>