<!-- Generated by IcoMoon.io -->
<svg version="1.1" xmlns="http://www.w3.org/2000/svg" width="32" height="32" viewBox="0 0 32 32">
<title>clipboard</title>
<path d="M32 16.2c-0.008-0.151-0.060-0.288-0.142-0.402l0.002-0.098-5.86-7.32-0.16-0.14h-3.84v-5.38c0-0.006 0-0.013 0-0.020 0-1.561-1.26-2.829-2.819-2.84h-16.361c-1.56 0.011-2.82 1.278-2.82 2.84 0 0.007 0 0.014 0 0.021v22.279c-0 0.006-0 0.013-0 0.020 0 1.561 1.26 2.829 2.819 2.84h11.181v1.56c0.011 1.35 1.108 2.44 2.46 2.44 0 0 0 0 0 0h13.1c1.35-0.011 2.44-1.108 2.44-2.46 0-0 0-0 0-0v-13.2c0.002-0.021 0.003-0.045 0.003-0.070s-0.001-0.049-0.003-0.073zM13.86 26h-11.040c-0.455-0.011-0.82-0.383-0.82-0.84 0-0.007 0-0.014 0-0.021l-0-22.279c-0-0.006-0-0.013-0-0.020 0-0.457 0.365-0.829 0.819-0.84l16.361-0c0.455 0.011 0.82 0.383 0.82 0.84 0 0.007-0 0.014-0 0.021l0 5.139h-3.54c-1.359 0-2.46 1.101-2.46 2.46v15.54zM29.56 30h-13.1c-0.254 0-0.46-0.206-0.46-0.46v-19.080c0-0.254 0.206-0.46 0.46-0.46h8.24l5.3 6.68v12.86c0 0.254-0.206 0.46-0.46 0.46z"></path>
<path d="M16 5c0-0.552-0.448-1-1-1h-8c-0.552 0-1 0.448-1 1s0.448 1 1 1h8c0.552 0 1-0.448 1-1z"></path>
</svg>
