<!-- Generated by IcoMoon.io -->
<svg version="1.1" xmlns="http://www.w3.org/2000/svg" width="32" height="32" viewBox="0 0 32 32">
<title>clipboard-shape</title>
<path d="M32 18c0.003-0.027 0.005-0.058 0.005-0.090s-0.002-0.063-0.005-0.094l0-0.156-5.36-6.66-0.14-0.12h-8.5c-1.105 0-2 0.895-2 2v16.92c0 1.215 0.985 2.2 2.2 2.2h11.62c1.204 0 2.18-0.976 2.18-2.18v-11.82z"></path>
<path d="M20 8.66c1.105 0 2-0.895 2-2v-3.66c0-1.657-1.343-3-3-3h-16c-1.657 0-3 1.343-3 3v22c0 1.657 1.343 3 3 3h9c1.105 0 2-0.895 2-2v-14.86c0-0 0-0 0-0 0-1.363 1.099-2.469 2.459-2.48zM15 6h-8c-0.552 0-1-0.448-1-1s0.448-1 1-1h8c0.552 0 1 0.448 1 1s-0.448 1-1 1z"></path>
</svg>
