<!-- Generated by IcoMoon.io -->
<svg version="1.1" xmlns="http://www.w3.org/2000/svg" width="32" height="32" viewBox="0 0 32 32">
<title>close3-shape</title>
<path d="M30.857 4.571h-29.714c-0.631 0-1.143 0.512-1.143 1.143s0.512 1.143 1.143 1.143h3.429v24c0 0.631 0.512 1.143 1.143 1.143h20.571c0.631 0 1.143-0.512 1.143-1.143v-24h3.429c0.631 0 1.143-0.512 1.143-1.143s-0.512-1.143-1.143-1.143zM13.714 13.714v16h-2.286v-18.286c0-0.631 0.512-1.143 1.143-1.143s1.143 0.512 1.143 1.143zM20.571 13.714v16h-2.286v-18.286c0-0.631 0.512-1.143 1.143-1.143s1.143 0.512 1.143 1.143z"></path>
<path d="M11.429 2.286h9.143c0.631 0 1.143-0.512 1.143-1.143s-0.512-1.143-1.143-1.143h-9.143c-0.631 0-1.143 0.512-1.143 1.143s0.512 1.143 1.143 1.143z"></path>
</svg>
