<?xml version="1.0" encoding="utf-8"?>
<!-- Generator: Adobe Illustrator 22.0.1, SVG Export Plug-In . SVG Version: 6.00 Build 0)  -->
<svg version="1.1" xmlns="http://www.w3.org/2000/svg" xmlns:xlink="http://www.w3.org/1999/xlink" x="0px" y="0px"
	 viewBox="0 0 1024 1024" style="enable-background:new 0 0 1024 1024;" xml:space="preserve">
<g id="辅助线" class="st0">
</g>
<g id="网格" class="st0">
</g>
<g id="定时触发">
</g>
<g id="手动触发">
</g>
<g id="GIT">
</g>
<g id="RTX">
</g>
<g id="EMAIL">
</g>
<g id="SMS">
</g>
<g id="微信">
</g>
<g id="部署">
</g>
<g id="脚本">
</g>
<g id="企业证书">
</g>
<g id="个人证书">
</g>
<g id="安全加固">
</g>
<g id="SVN">
	<g>
		<path class="st2" d="M96,112v592h832V112H96z M337,357.1c-3-29.5,148.1-85,295-119.7c95.6-22.6,188.5-38,231.9-44.6v142
			C653,347.4,341.3,399.7,337,357.1z M511,549.3c-125.7,34.4-288.4,62.8-351,73.2V473.6c84.7-3.4,181.4-17.7,222.7-21.5
			c79.2-7.2,327.3-42.6,343.6-6.4C738.6,474.6,655.2,509.8,511,549.3z M723.4,176c-109.5,24.4-236.3,57-299.9,72.5
			C371.5,261.2,256,296.5,160,336V176H723.4z M298.1,640c86.6-17.4,202.3-42.8,324.6-76.1c90.3-24.6,173-51,241.3-77.2V640H298.1z"
			/>
		<rect x="96" y="848" class="st2" width="832" height="64"/>
		<path class="st2" d="M922.9,747.7c-4.5,0-4.9,3.2-4.9,6.7c0,7.5,0,15,0,22.5c0,2.9,0,5.8,0,8.6c-2.1-1.4-3.2-2.9-4.3-4.5
			c-6.3-9.4-12.6-18.9-18.7-28.4c-2.1-3.3-4.5-6-8.9-4.7c-4.6,1.3-4.6,5.1-4.5,8.9c0,4.2,0,8.3,0,12.5c0,9.9,0,19.8,0,29.7
			c0,3.2,1,5.9,4.6,6.2c3.9,0.4,5.3-2.4,5.7-5.7c0.2-1.6,0.2-3.2,0.3-4.8c0-8.9,0-17.8,0-26.7c0.3-0.1,0.7-0.2,1-0.2
			c2.8,4.2,5.5,8.5,8.3,12.7c4.6,7.1,9.2,14.2,14,21.1c1.9,2.8,4.8,4.3,8.3,3.3c3.6-1,4.2-3.9,4.2-7.2c0-14.5,0-29.1,0-43.6
			C928,750.7,927.4,747.7,922.9,747.7z"/>
		<path class="st2" d="M474.9,757.1c6.7,0.3,13.4,0.2,20.1,0c2.8-0.1,6-0.2,6.2-4.4c0.1-4.3-3.3-4.5-6-4.5
			c-9.4-0.2-18.8-0.3-28.2,0.1c-6.5,0.3-7.6,1.8-7.8,8.3c-0.2,6.5,0,13.1,0,19.6c0,0,0,0,0,0c0,6.9-0.1,13.7,0,20.6
			c0.1,3.8,1.6,7.2,6,7.3c10.8,0.2,21.7,0.2,32.5,0c2.6,0,4.5-1.5,4.5-4.6c-0.1-3.2-2-4.1-4.7-4.1c-4.9,0-9.9,0-14.8,0
			c-12.5,0-12.4,0-12.1-12.4c0.1-3,1-3.8,3.9-3.8c6.5,0.2,13.1,0.1,19.6,0c2.8,0,5.2-0.9,5.1-4.3c-0.1-3.3-2.4-4.2-5.2-4.2
			c-4.8,0-9.6,0-14.4,0c-9.1,0-9,0-9.1-9C470.4,758.3,471.2,757,474.9,757.1z"/>
		<path class="st2" d="M196.4,754.9c-0.1-3.6-0.9-7.2-5.8-7.2c-4.9,0-5.5,3.4-5.5,7.2c0,4.9,0,9.9,0,14.8c0,0,0.1,0,0.1,0
			c0,5.3-0.2,10.5,0,15.8c0.4,9.7,5.2,16.2,13.7,18.5c4.2,1.1,8.4,1.6,12.8,1.3c10.3-0.8,17.7-5.9,19.2-14.2
			c2.3-12.6,0.9-25.4,1-38.2c0-2.2-1.3-4.4-3.8-5c-2.1-0.5-4.2-0.4-5.8,1.2c-1.6,1.6-1.7,3.7-1.7,5.8c0,9.7,0.2,19.5-0.1,29.2
			c-0.2,8.5-4.6,12.4-12.6,12.2c-7.6-0.2-11.1-4-11.4-12.3c-0.1-1.8,0-3.5,0-5.3C196.5,770.8,196.6,762.8,196.4,754.9z"/>
		<path class="st2" d="M663.6,795.8c-7.1,3.1-13.9,0.7-17.2-6.3c-0.5-1-0.9-2-1.5-3c-1.3-2.3-3.3-2.9-5.7-2.3
			c-2.6,0.7-3.5,2.5-3.4,5.1c0.1,3.6,1.7,6.4,4,9c6.1,6.8,19,9.1,28.9,5.1c7.4-3,11.3-8.5,11.3-16.1c0-7.2-3.4-11.7-11.4-14.7
			c-3-1.1-6.1-1.8-9.1-2.7c-3-0.9-6.3-1.3-9-3.1c-4.3-2.8-4.2-7.4,0.4-9.8c1.2-0.7,2.7-1.1,4.1-1.3c6.1-0.9,10.5,1.4,13.1,7.2
			c1.2,2.7,3.6,4.4,6.6,3c2.8-1.3,3.5-3.8,2.7-6.9c-0.8-3.1-2.6-5.4-5-7.3c-4.3-3.3-9.2-4.2-14.4-4c-1.9,0.1-3.8,0.1-5.7,0.3
			c-9.6,1.1-15.7,7.7-15.2,16.4c0.5,7.3,5.4,10.9,11.5,13.1c4.9,1.8,10.1,2.8,15.1,4.5c3,1,5.3,3.1,5.3,6.6
			C668.9,792,666.9,794.4,663.6,795.8z"/>
		<path class="st2" d="M124.4,795.4c-6.8,3.7-14.3,1.2-17.8-5.7c-0.5-1-1-2-1.5-3c-1.3-2.6-3.5-3.2-6-2.4c-2.6,0.7-3.2,2.8-3.1,5.3
			c0.1,3.4,1.7,6.1,3.8,8.5c7.9,8.9,26.7,9.6,35.3,1.3c8.2-7.9,6.4-20.5-3.6-25.7c-3.7-1.9-7.7-2.9-11.7-4c-3.2-0.8-6.6-1.3-9.4-3.2
			c-3.7-2.5-3.8-6.3-0.4-9.1c4.7-3.8,13-2.5,16.5,2.5c0.9,1.3,1.7,2.7,2.6,4c1.3,2.2,3.3,2.4,5.4,1.8c2-0.6,3-2.2,3.1-4.4
			c0.2-4-1.6-7.1-4.6-9.5c-4.4-3.6-9.7-4.7-15.1-4.3c-4.3-0.2-8.4,0.2-12.2,2.2c-5.2,2.6-8.4,6.6-8.5,12.7
			c-0.2,6.3,2.6,10.6,8.2,13.4c5.8,2.9,12.2,3.6,18.1,5.8c2.9,1.1,5.3,2.8,5.5,6.4C129,791.7,127.2,793.9,124.4,795.4z"/>
		<path class="st2" d="M391.1,805.2c3.6,0,6-2,7.3-5.2c1.7-4.3,3.3-8.6,4.9-12.9c3.9-10.6,7.7-21.2,11.7-31.8
			c0.9-2.3,0.7-4.3-1.1-6.1c-1.7-1.7-3.7-1.8-5.8-1.2c-2.5,0.7-3,3.2-3.7,5.3c-4.3,12.6-8.6,25.3-13.2,38.8
			c-0.8-2.1-1.2-3.2-1.5-4.2c-4.1-11.9-8.1-23.8-12.2-35.7c-1.2-3.6-3.6-5.2-7.3-4.2c-3.9,1.1-4.2,4.4-3.1,7.4
			c5.3,15,10.9,29.9,16.5,44.9C384.9,803.3,387.6,805.2,391.1,805.2z"/>
		<path class="st2" d="M736.5,753.7c0-2.5-0.7-4.9-3.4-5.7c-2-0.6-4.2-0.7-5.8,0.9c-2,1.9-2.1,4.5-2.1,7.1c0,8.3,0,16.6,0,24.8
			c0,5.9-0.2,11.8,0.1,17.7c0.2,3.5,1.6,6.9,5.9,6.7c4.1-0.2,5.4-3.2,5.4-7.1c-0.1-7.2,0-14.3,0-21.5c0,0,0,0,0,0
			C736.5,769,736.5,761.3,736.5,753.7z"/>
		<path class="st2" d="M322.7,760.1c-1.2-5.9-4.8-10-10.7-10.9c-9-1.4-18.1-1.6-27.1-0.7c-4,0.4-5.7,2.8-5.7,6.3
			c-0.1,14.2-0.1,28.4,0,42.6c0,4.1,2.1,6.8,6.4,6.8c9.1,0,18.2,0.9,27.2-0.8c6.7-1.3,11.1-5.1,12.6-12c1.5-7.1-0.7-11.1-9.8-17.1
			C321,770.8,323.9,766.4,322.7,760.1z M296.3,756.5c3.3,0.4,6.6,0.2,9.9,0.9c3.4,0.7,5.4,2.5,5.4,6.2c0,3.8-1.6,6.5-5.5,7.2
			c-2.3,0.4-4.8,0.3-7.1,0.4c-8.5-0.1-8.3-0.1-8.7-8.6C290.1,757.7,291.4,755.9,296.3,756.5z M305.9,795.6c-2.4,0.3-4.8,0-7.2,0
			c-8.3,0.1-8.3,0.1-8.3-8.1c0-8.1,0-8.2,8-8.1c2.5,0,5.1-0.1,7.6,0.2c5.1,0.6,8.1,3.6,8.2,7.8C314.3,791.8,311.1,795,305.9,795.6z"
			/>
		<path class="st2" d="M591.7,761.4c-1.1-6.5-5.9-11.7-12.2-12.5c-8.5-1-17.2-1.4-25.7-0.6c-6.2,0.6-7.5,2.1-7.6,8.6
			c-0.1,13.2,0,26.5,0,39.7c0,1.1,0.2,2.2,0.4,3.3c0.5,3.2,2.2,5.5,5.7,5.2c3.6-0.3,5.3-2.5,5.3-6.1c0-5.1,0.1-10.2,0-15.3
			c-0.1-2.4,0.7-3.3,3.2-3.4c5.5-0.3,9.1,2.3,11.9,6.6c3.2,5,6.1,10.1,9.3,15c1.9,3,4.7,4.4,8.2,2.5c3.7-1.9,2.8-4.8,1.4-7.8
			c-3-6.6-6.9-12.5-13.1-17.5c2.3-1,4.1-1.6,5.8-2.5C589.8,773.6,592.7,767.6,591.7,761.4z M574.8,771.5c-2.8,0.6-5.7,0.5-8.5,0.8
			c-8.7-0.1-8.7-0.1-8.7-9.1c0-7.4-0.9-6.5,6.7-6.5c3.5,0,7-0.2,10.4,0.8c3.8,1,5.6,3.6,5.6,7.3
			C580.3,768.4,578.2,770.7,574.8,771.5z"/>
		<path class="st2" d="M817.8,804.2c11.6-3,18.4-13.3,18.3-28c0.4-19.7-12.1-31.5-34.2-28.1c-11.4,1.8-18.1,10.5-19.8,24.3
			C779.3,795,796,809.8,817.8,804.2z M795.2,786.9c-2.4-5.9-2.6-12.1-1.1-18.3c2-8.1,7.9-12.5,16-12.1c7.2,0.3,13.1,6,14.2,13.8
			c0.3,1.9,0.3,3.8,0.3,4.5c0,5.1-0.1,8.9-1.8,12.4c-2.7,5.9-8.3,9.6-14.4,9.2C802.2,795.9,797.6,792.7,795.2,786.9z"/>
	</g>
</g>
<g id="代码检查">
</g>
<g id="归档">
</g>
<g id="IPA">
</g>
<g id="APK_1_">
</g>
<g id="docker">
</g>
<g id="unity">
</g>
<g id="XCODE">
</g>
<g id="andriod">
</g>
<g id="ios">
</g>
</svg>
