<!-- Generated by IcoMoon.io -->
<svg version="1.1" xmlns="http://www.w3.org/2000/svg" width="32" height="32" viewBox="0 0 32 32">
<title>gitlab</title>
<path d="M29.297 18.484l-4.728-14.569c-0.128-0.394-0.491-0.659-0.903-0.666-0.409-0.006-0.781 0.25-0.922 0.637l-3.359 9.369h-6.769l-3.359-9.369c-0.141-0.388-0.509-0.644-0.922-0.638s-0.775 0.275-0.903 0.666l-4.728 14.569c-0.128 0.397 0.013 0.831 0.35 1.078l12.381 9.003c0.169 0.122 0.369 0.184 0.566 0.184 0.2 0 0.397-0.063 0.566-0.184l12.381-9.003c0.337-0.247 0.478-0.681 0.35-1.078zM23.606 7.197l1.966 6.059h-4.137l2.172-6.059zM24.081 15.188l-6.153 7.853 2.813-7.853h3.341zM18.694 15.188l-2.694 7.512-2.694-7.512h5.388zM14.078 23.044l-6.159-7.856h3.337l2.822 7.856zM8.394 7.197l2.172 6.059h-4.138l1.966-6.059zM5.703 15.484l6.594 8.416-7.544-5.488 0.95-2.928zM19.7 23.9l6.594-8.416 0.95 2.928-7.544 5.488z"></path>
</svg>
