<svg viewBox="0 0 1024 1024" version="1.1" xmlns="http://www.w3.org/2000/svg"><path fill="#313238" fill-rule="evenodd" d="M512.0450464 128C289.25125696 127.91189888 108.8 304.35623392 108.8 522.1354304 108.8 694.3493312 221.6833872 840.7399616 378.891296 894.5017216 400.0625632 899.7016288 396.8193056 884.9832448 396.8193056 874.9359648L396.8193056 806.6320896C274.56650656 820.6454016 269.61152928 741.50104 261.41329472 728.2809344 244.83664384 700.606848 205.64727968 693.5561248 217.35904384 680.3360192 245.19700608 666.3227104 273.57551104 683.8613824 306.4585408 731.3656256 330.242432 765.826032 376.6390336 760.0091872 400.1526528 754.2804736 405.2878112 733.568976 416.2788512 715.0608288 431.4140544 700.6949824 304.74682144 678.4852064 251.95379296 602.8662048 251.95379296 512.9694912 251.95379296 469.3431456 266.63854304 429.24216 295.4675008 396.8969696 277.08904032 343.5758784 297.17922016 297.92244928 299.88193504 291.13612896 352.224512 286.55315904 406.639168 327.799888 410.8734208 331.0608448 440.6032832 323.2169184 474.5674016 319.07461728 512.5855872 319.07461728 550.7839584 319.07461728 584.8381632 323.393184 614.8382976 331.325248 625.0185216 323.7457216 675.4692 288.31583968 724.118064 292.63440736 726.730688 299.420728 746.370416 344.0165504 729.0730432 396.6325664 758.2623616 429.0658912 773.1272928 469.5194112 773.1272928 513.2338944 773.1272928 603.3068736 719.9739008 679.0140096 592.9463072 700.8712512 614.1175744 721.3183456 627.270784 749.697504 627.270784 781.0732192L627.270784 880.2240096C627.9915104 888.1560704 627.270784 896 640.7843584 896 800.3346208 843.3839808 915.2 695.935744 915.2 522.2235648 915.2 304.35623392 734.6586528 128 512.0450464 128Z"/></svg>