<!-- Generated by IcoMoon.io -->
<svg version="1.1" xmlns="http://www.w3.org/2000/svg" width="32" height="32" viewBox="0 0 32 32">
<title>svn</title>
<path d="M3 3.5v18.5h26v-18.5h-26zM10.531 11.159c-0.094-0.922 4.628-2.656 9.219-3.741 2.988-0.706 5.891-1.188 7.247-1.394v4.438c-6.591 0.394-16.331 2.028-16.466 0.697zM15.969 17.166c-3.928 1.075-9.012 1.962-10.969 2.288v-4.653c2.647-0.106 5.669-0.553 6.959-0.672 2.475-0.225 10.228-1.331 10.737-0.2 0.384 0.903-2.222 2.003-6.728 3.238zM22.606 5.5c-3.422 0.763-7.384 1.781-9.372 2.266-1.625 0.397-5.234 1.5-8.234 2.734v-5h17.606zM9.316 20c2.706-0.544 6.322-1.337 10.144-2.378 2.822-0.769 5.406-1.594 7.541-2.412v4.791h-17.684z"></path>
<path d="M3 26.5h26v2h-26v-2z"></path>
<path d="M28.841 23.366c-0.141 0-0.153 0.1-0.153 0.209 0 0.234 0 0.469 0 0.703 0 0.091 0 0.181 0 0.269-0.066-0.044-0.1-0.091-0.134-0.141-0.197-0.294-0.394-0.591-0.584-0.887-0.066-0.103-0.141-0.188-0.278-0.147-0.144 0.041-0.144 0.159-0.141 0.278 0 0.131 0 0.259 0 0.391 0 0.309 0 0.619 0 0.928 0 0.1 0.031 0.184 0.144 0.194 0.122 0.012 0.166-0.075 0.178-0.178 0.006-0.050 0.006-0.1 0.009-0.15 0-0.278 0-0.556 0-0.834 0.009-0.003 0.022-0.006 0.031-0.006 0.087 0.131 0.172 0.266 0.259 0.397 0.144 0.222 0.288 0.444 0.438 0.659 0.059 0.087 0.15 0.134 0.259 0.103 0.113-0.031 0.131-0.122 0.131-0.225 0-0.453 0-0.909 0-1.363 0-0.106-0.019-0.2-0.159-0.2z"></path>
<path d="M14.841 23.659c0.209 0.009 0.419 0.006 0.628 0 0.088-0.003 0.188-0.006 0.194-0.137 0.003-0.134-0.103-0.141-0.188-0.141-0.294-0.006-0.588-0.009-0.881 0.003-0.203 0.009-0.238 0.056-0.244 0.259s0 0.409 0 0.613c0 0 0 0 0 0 0 0.216-0.003 0.428 0 0.644 0.003 0.119 0.050 0.225 0.188 0.228 0.338 0.006 0.678 0.006 1.016 0 0.081 0 0.141-0.047 0.141-0.144-0.003-0.1-0.063-0.128-0.147-0.128-0.153 0-0.309 0-0.463 0-0.391 0-0.387 0-0.378-0.387 0.003-0.094 0.031-0.119 0.122-0.119 0.203 0.006 0.409 0.003 0.613 0 0.088 0 0.162-0.028 0.159-0.134-0.003-0.103-0.075-0.131-0.162-0.131-0.15 0-0.3 0-0.45 0-0.284 0-0.281 0-0.284-0.281-0.003-0.106 0.022-0.147 0.137-0.144z"></path>
<path d="M6.138 23.591c-0.003-0.113-0.028-0.225-0.181-0.225s-0.172 0.106-0.172 0.225c0 0.153 0 0.309 0 0.462 0 0 0.003 0 0.003 0 0 0.166-0.006 0.328 0 0.494 0.013 0.303 0.162 0.506 0.428 0.578 0.131 0.034 0.263 0.050 0.4 0.041 0.322-0.025 0.553-0.184 0.6-0.444 0.072-0.394 0.028-0.794 0.031-1.194 0-0.069-0.041-0.137-0.119-0.156-0.066-0.016-0.131-0.012-0.181 0.038s-0.053 0.116-0.053 0.181c0 0.303 0.006 0.609-0.003 0.913-0.006 0.266-0.144 0.387-0.394 0.381-0.237-0.006-0.347-0.125-0.356-0.384-0.003-0.056 0-0.109 0-0.166 0-0.247 0.003-0.497-0.003-0.744z"></path>
<path d="M20.738 24.869c-0.222 0.097-0.434 0.022-0.538-0.197-0.016-0.031-0.028-0.063-0.047-0.094-0.041-0.072-0.103-0.091-0.178-0.072-0.081 0.022-0.109 0.078-0.106 0.159 0.003 0.113 0.053 0.2 0.125 0.281 0.191 0.212 0.594 0.284 0.903 0.159 0.231-0.094 0.353-0.266 0.353-0.503 0-0.225-0.106-0.366-0.356-0.459-0.094-0.034-0.191-0.056-0.284-0.084s-0.197-0.041-0.281-0.097c-0.134-0.087-0.131-0.231 0.012-0.306 0.038-0.022 0.084-0.034 0.128-0.041 0.191-0.028 0.328 0.044 0.409 0.225 0.038 0.084 0.113 0.137 0.206 0.094 0.087-0.041 0.109-0.119 0.084-0.216s-0.081-0.169-0.156-0.228c-0.134-0.103-0.288-0.131-0.45-0.125-0.059 0.003-0.119 0.003-0.178 0.009-0.3 0.034-0.491 0.241-0.475 0.512 0.016 0.228 0.169 0.341 0.359 0.409 0.153 0.056 0.316 0.087 0.472 0.141 0.094 0.031 0.166 0.097 0.166 0.206-0.003 0.106-0.066 0.181-0.169 0.225z"></path>
<path d="M3.888 24.856c-0.212 0.116-0.447 0.038-0.556-0.178-0.016-0.031-0.031-0.063-0.047-0.094-0.041-0.081-0.109-0.1-0.188-0.075-0.081 0.022-0.1 0.087-0.097 0.166 0.003 0.106 0.053 0.191 0.119 0.266 0.247 0.278 0.834 0.3 1.103 0.041 0.256-0.247 0.2-0.641-0.112-0.803-0.116-0.059-0.241-0.091-0.366-0.125-0.1-0.025-0.206-0.041-0.294-0.1-0.116-0.078-0.119-0.197-0.013-0.284 0.147-0.119 0.406-0.078 0.516 0.078 0.028 0.041 0.053 0.084 0.081 0.125 0.041 0.069 0.103 0.075 0.169 0.056 0.063-0.019 0.094-0.069 0.097-0.137 0.006-0.125-0.050-0.222-0.144-0.297-0.138-0.113-0.303-0.147-0.472-0.134-0.134-0.006-0.263 0.006-0.381 0.069-0.163 0.081-0.263 0.206-0.266 0.397-0.006 0.197 0.081 0.331 0.256 0.419 0.181 0.091 0.381 0.113 0.566 0.181 0.091 0.034 0.166 0.087 0.172 0.2 0 0.116-0.056 0.184-0.144 0.231z"></path>
<path d="M12.222 25.163c0.113 0 0.188-0.063 0.228-0.163 0.053-0.134 0.103-0.269 0.153-0.403 0.122-0.331 0.241-0.663 0.366-0.994 0.028-0.072 0.022-0.134-0.034-0.191-0.053-0.053-0.116-0.056-0.181-0.038-0.078 0.022-0.094 0.1-0.116 0.166-0.134 0.394-0.269 0.791-0.412 1.212-0.025-0.066-0.037-0.1-0.047-0.131-0.128-0.372-0.253-0.744-0.381-1.116-0.037-0.113-0.113-0.163-0.228-0.131-0.122 0.034-0.131 0.137-0.097 0.231 0.166 0.469 0.341 0.934 0.516 1.403 0.041 0.094 0.125 0.153 0.234 0.153z"></path>
<path d="M23.016 23.553c0-0.078-0.022-0.153-0.106-0.178-0.063-0.019-0.131-0.022-0.181 0.028-0.063 0.059-0.066 0.141-0.066 0.222 0 0.259 0 0.519 0 0.775 0 0.184-0.006 0.369 0.003 0.553 0.006 0.109 0.050 0.216 0.184 0.209 0.128-0.006 0.169-0.1 0.169-0.222-0.003-0.225 0-0.447 0-0.672 0 0 0 0 0 0-0.003-0.238-0.003-0.478-0.003-0.716z"></path>
<path d="M10.084 23.753c-0.037-0.184-0.15-0.313-0.334-0.341-0.281-0.044-0.566-0.050-0.847-0.022-0.125 0.012-0.178 0.087-0.178 0.197-0.003 0.444-0.003 0.887 0 1.331 0 0.128 0.066 0.212 0.2 0.212 0.284 0 0.569 0.028 0.85-0.025 0.209-0.041 0.347-0.159 0.394-0.375 0.047-0.222-0.022-0.347-0.306-0.534 0.169-0.109 0.259-0.247 0.222-0.444zM9.259 23.641c0.103 0.012 0.206 0.006 0.309 0.028 0.106 0.022 0.169 0.078 0.169 0.194 0 0.119-0.050 0.203-0.172 0.225-0.072 0.012-0.15 0.009-0.222 0.012-0.266-0.003-0.259-0.003-0.272-0.269-0.006-0.153 0.034-0.209 0.188-0.191zM9.559 24.863c-0.075 0.009-0.15 0-0.225 0-0.259 0.003-0.259 0.003-0.259-0.253 0-0.253 0-0.256 0.25-0.253 0.078 0 0.159-0.003 0.238 0.006 0.159 0.019 0.253 0.113 0.256 0.244 0.003 0.137-0.097 0.238-0.259 0.256z"></path>
<path d="M18.491 23.794c-0.034-0.203-0.184-0.366-0.381-0.391-0.266-0.031-0.538-0.044-0.803-0.019-0.194 0.019-0.234 0.066-0.238 0.269-0.003 0.413 0 0.828 0 1.241 0 0.034 0.006 0.069 0.012 0.103 0.016 0.1 0.069 0.172 0.178 0.163 0.113-0.009 0.166-0.078 0.166-0.191 0-0.159 0.003-0.319 0-0.478-0.003-0.075 0.022-0.103 0.1-0.106 0.172-0.009 0.284 0.072 0.372 0.206 0.1 0.156 0.191 0.316 0.291 0.469 0.059 0.094 0.147 0.137 0.256 0.078 0.116-0.059 0.087-0.15 0.044-0.244-0.094-0.206-0.216-0.391-0.409-0.547 0.072-0.031 0.128-0.050 0.181-0.078 0.172-0.094 0.262-0.281 0.231-0.475zM17.962 24.109c-0.087 0.019-0.178 0.016-0.266 0.025-0.272-0.003-0.272-0.003-0.272-0.284 0-0.231-0.028-0.203 0.209-0.203 0.109 0 0.219-0.006 0.325 0.025 0.119 0.031 0.175 0.113 0.175 0.228 0 0.113-0.066 0.184-0.172 0.209z"></path>
<path d="M25.556 25.131c0.363-0.094 0.575-0.416 0.572-0.875 0.012-0.616-0.378-0.984-1.069-0.878-0.356 0.056-0.566 0.328-0.619 0.759-0.087 0.706 0.434 1.169 1.116 0.994zM24.85 24.591c-0.075-0.184-0.081-0.378-0.034-0.572 0.063-0.253 0.247-0.391 0.5-0.378 0.225 0.009 0.409 0.188 0.444 0.431 0.009 0.059 0.009 0.119 0.009 0.141 0 0.159-0.003 0.278-0.056 0.387-0.084 0.184-0.259 0.3-0.45 0.288-0.194-0.016-0.337-0.116-0.413-0.297z"></path>
</svg>
