<!-- Generated by IcoMoon.io -->
<svg version="1.1" xmlns="http://www.w3.org/2000/svg" width="32" height="32" viewBox="0 0 32 32">
<title>code</title>
<path d="M31.6 15.3l-7-7c-0.4-0.4-1.020-0.4-1.42 0s-0.4 1.020 0 1.42l6.3 6.28-6.3 6.3c-0.4 0.4-0.4 1.020 0 1.42 0.2 0.2 0.46 0.3 0.7 0.3s0.52-0.1 0.7-0.3l7-7c0.4-0.4 0.4-1.040 0.020-1.42z"></path>
<path d="M8.82 8.3c-0.4-0.4-1.020-0.4-1.42 0l-7 7c-0.4 0.4-0.4 1.020 0 1.42l7 7c0.2 0.18 0.46 0.28 0.72 0.28s0.52-0.1 0.7-0.3c0.4-0.4 0.4-1.020 0-1.42l-6.3-6.28 6.3-6.3c0.38-0.38 0.38-1.020 0-1.4z"></path>
<path d="M19.26 4.040c-0.52-0.16-1.080 0.16-1.22 0.7l-6 22c-0.14 0.54 0.16 1.080 0.7 1.22 0.080 0.020 0.18 0.040 0.26 0.040 0.44 0 0.84-0.3 0.96-0.74l6-22c0.14-0.52-0.16-1.080-0.7-1.22z"></path>
</svg>
