<!-- Generated by IcoMoon.io -->
<svg version="1.1" xmlns="http://www.w3.org/2000/svg" width="32" height="32" viewBox="0 0 32 32">
<title>codecc</title>
<path d="M27.15 29c-0.225 0-0.45-0.041-0.666-0.122l-9.878-3.797c-0.391-0.15-0.825-0.15-1.216 0l-9.875 3.794c-0.569 0.219-1.209 0.144-1.712-0.203-0.503-0.344-0.803-0.916-0.803-1.525v-22.297c0-1.019 0.831-1.85 1.85-1.85h22.297c1.022 0 1.85 0.831 1.85 1.85v22.3c0 0.609-0.3 1.178-0.803 1.525-0.309 0.212-0.675 0.325-1.044 0.325zM16 22.966c0.45 0 0.897 0.081 1.325 0.247l9.675 3.719v-21.931h-22v21.931l9.675-3.719c0.428-0.163 0.875-0.247 1.325-0.247z"></path>
<path d="M12.209 20.438c-1.469 0-2.85-0.572-3.891-1.609-2.144-2.144-2.144-5.634 0-7.778s5.634-2.144 7.778 0l-2.122 2.122c-0.975-0.975-2.559-0.975-3.534 0s-0.975 2.559 0 3.534c0.975 0.975 2.559 0.975 3.534 0l2.122 2.122c-1.037 1.038-2.419 1.609-3.887 1.609z"></path>
<path d="M21.397 20.438c-1.469 0-2.85-0.572-3.891-1.609-2.144-2.144-2.144-5.634 0-7.778s5.634-2.144 7.778 0l-2.122 2.122c-0.975-0.975-2.559-0.975-3.534 0s-0.975 2.559 0 3.534c0.975 0.975 2.559 0.975 3.534 0l2.122 2.122c-1.038 1.038-2.419 1.609-3.887 1.609z"></path>
</svg>
