<svg xmlns="http://www.w3.org/2000/svg" viewBox="0 0 64 64"><defs></defs><title>tdw</title><g id="提醒"><path class="cls-1" d="M3.74,32A27.39,27.39,0,0,1,6,21.16a27.88,27.88,0,0,1,6-8.95,28.28,28.28,0,0,1,8.94-6,27.83,27.83,0,0,1,21.76,0,27.37,27.37,0,0,1,14.91,14.9A27.49,27.49,0,0,1,59.74,32a27.14,27.14,0,0,1-5.33,16.43,27.55,27.55,0,0,1-13.7,10.14,1.06,1.06,0,0,1-.65-.16.56.56,0,0,1-.25-.33,3.91,3.91,0,0,1,0-.49.3.3,0,0,1-.05-.16V50.41a7.75,7.75,0,0,0-2.35-5.68q6.28-1.09,9.4-4.68a12.75,12.75,0,0,0,3.12-8.67,12.12,12.12,0,0,0-3.06-8.25,11,11,0,0,0-.39-7.39,8.36,8.36,0,0,0-3.33.52,13.73,13.73,0,0,0-2.68,1.18c-.58.36-1.11.71-1.59,1a26.29,26.29,0,0,0-7.08-.88,25.76,25.76,0,0,0-7,.88c-.4-.3-.86-.61-1.39-1a15.09,15.09,0,0,0-2.76-1.26A8.66,8.66,0,0,0,17,15.63a10.72,10.72,0,0,0-.33,7.5,12.26,12.26,0,0,0-3,8.25A12.79,12.79,0,0,0,16.76,40q3.06,3.56,9.4,4.71A7.77,7.77,0,0,0,24,48.56q-4.65,1.14-6.51-1.65-3.45-5-6.18-3.61c-.26.26-.22.52.11.8s.82.64,1.48,1.09a5.11,5.11,0,0,1,1.47,1.51,7.88,7.88,0,0,1,.3.79c.16.44.32.88.5,1.31a4.54,4.54,0,0,0,.93,1.39,6.16,6.16,0,0,0,1.58,1.29,7.32,7.32,0,0,0,2.49.77,14,14,0,0,0,3.61,0v5.5a2.12,2.12,0,0,1,0,.27.42.42,0,0,1-.11.27,1.05,1.05,0,0,1-.22.17.62.62,0,0,1-.35.08,4.28,4.28,0,0,1-.55-.05A27.48,27.48,0,0,1,9,48.36,27.18,27.18,0,0,1,3.74,32Z"/></g></svg>