<svg viewBox="0 0 1024 1024" version="1.1" xmlns="http://www.w3.org/2000/svg"><path fill="#313238" fill-rule="evenodd" d="M512 96L880 304 880 720 512 928 144 720 144 304 512 96ZM379.75 365.1562496L263.15624992 365.1562496 263.15624992 704 335.3437504 704 335.3437504 585.8750016 381.2352992 585.8834144C415.598464 585.1430304 444.5252416 575.1141824 468.0156256 555.7968736 493.4635424 534.869792 506.1875008 507.0520832 506.1875008 472.3437504 506.1875008 403.1905248 466.716896 367.4985376 387.7756896 365.2677888L379.75 365.1562496ZM740.6875008 365.1562496L670.25 365.1562496 527.1875008 585 527.1875008 630.0624992 676.1562496 630.0624992 676.1562496 704 740.6875008 704 740.6875008 630.0624992 781.8124992 630.0624992 781.8124992 579.3124992 740.6875008 579.3124992 740.6875008 365.1562496ZM677.0312512 435.5937504C676.5937504 444.7812512 676.3203136 453.1894528 676.2109376 460.8183584L676.1562496 468.1875008 676.1562496 579.3124992 586.9062496 579.3124992 663.0312512 462.0624992C666.6770848 456.3750016 669.4479168 451.1979168 671.3437504 446.5312512 672.510416 443.51736 673.5474528 440.8923616 674.4548608 438.6562496L675.7187488 435.5937504 677.0312512 435.5937504ZM367.2812512 421.1562496C409.2812512 421.1562496 430.2812512 439.1666656 430.2812512 475.1875008 430.2812512 512.0833344 409.0624992 530.5312512 366.6249984 530.5312512L335.3437504 530.5312512 335.3437504 421.1562496 367.2812512 421.1562496Z"/></svg>