<!-- Generated by IcoMoon.io -->
<svg version="1.1" xmlns="http://www.w3.org/2000/svg" width="32" height="32" viewBox="0 0 32 32">
<title>cog-shape</title>
<path d="M30.134 13.022l-2.223-0.437c-0.288-1.015-0.66-1.898-1.124-2.722l1.124-1.765c0.363-0.36 0.587-0.858 0.587-1.409s-0.225-1.050-0.587-1.409l-1.39-1.31c-0.358-0.354-0.851-0.572-1.394-0.572-0.447 0-0.86 0.148-1.191 0.397l-1.98 1.247c-0.733-0.418-1.582-0.782-2.473-1.049l-0.505-2.008c0-1.096-0.889-1.985-1.985-1.985h-1.985c-0.003-0-0.006-0-0.010-0-1.026 0-1.871 0.779-1.974 1.778l-0.418 2.192c-0.979 0.288-1.828 0.653-2.622 1.104l-1.686-1.104c-0.36-0.363-0.858-0.587-1.409-0.587s-1.050 0.225-1.409 0.587l-1.39 1.31c-0.361 0.354-0.588 0.845-0.596 1.388-0.002 0.030-0.003 0.064-0.003 0.099 0 0.45 0.166 0.861 0.441 1.175l1.249 1.983c-0.434 0.768-0.806 1.658-1.071 2.593l-2.006 0.503c-1.096 0-1.985 0.889-1.985 1.985v1.985c-0 0.003-0 0.006-0 0.010 0 1.026 0.779 1.871 1.778 1.974l2.192 0.457c0.303 1.001 0.688 1.869 1.163 2.678l-1.163 1.709c-0.363 0.36-0.587 0.858-0.587 1.409s0.225 1.050 0.587 1.409l1.41 1.39c0.357 0.349 0.846 0.564 1.386 0.564 0.442 0 0.85-0.145 1.18-0.389l1.98-1.386c0.679 0.373 1.469 0.703 2.295 0.95l0.544 2.246c0 1.096 0.889 1.985 1.985 1.985h1.985c0.003 0 0.006 0 0.010 0 1.026 0 1.871-0.779 1.974-1.778l0.596-2.43c0.914-0.269 1.703-0.6 2.447-1.005l1.821 1.303c0.359 0.357 0.853 0.577 1.399 0.577s1.041-0.221 1.4-0.577l1.409-1.389c0.365-0.36 0.59-0.86 0.59-1.413 0-0.502-0.186-0.96-0.493-1.309l-1.269-1.983c0.454-0.74 0.851-1.594 1.147-2.494l2.169-0.523c1.096 0 1.985-0.889 1.985-1.985v-1.985c0-0 0-0.001 0-0.002 0-1.068-0.844-1.94-1.902-1.983zM16 20.844c-2.741 0-4.963-2.222-4.963-4.963s2.222-4.963 4.963-4.963c2.741 0 4.963 2.222 4.963 4.963s-2.222 4.963-4.963 4.963z"></path>
</svg>
