<svg id="图层_1" data-name="图层 1" xmlns="http://www.w3.org/2000/svg" style='color:black;' viewBox="0 0 20 20"><defs><style>.cls-1{fill:#16a086;}.cls-2{fill:#fff;}</style></defs><title>logo</title><path class="cls-1" d="M19.37,9.9a4.71,4.71,0,0,0-8.78-2.17,4.71,4.71,0,0,1,3.25,3.75,9.4,9.4,0,0,1-3.34.85c-.22,0-.43,0-.65,0a9.46,9.46,0,0,1-5.18-1.53,9.49,9.49,0,0,1-3.59-4.3,9.5,9.5,0,1,0,18.3,3.59C19.38,10,19.37,10,19.37,9.9Z"/><path class="cls-2" d="M1.22,6.41a9.45,9.45,0,0,0,3.6,4.3A9.41,9.41,0,0,0,10,12.25c.22,0,.44,0,.65,0A9.4,9.4,0,0,0,14,11.37a4.71,4.71,0,0,0-3.25-3.75,4.71,4.71,0,0,1,8.78,2.17,9.26,9.26,0,0,0-.73-3.45,9.5,9.5,0,0,0-17.56.07Z"/><ellipse cx="6.23" cy="4.79" rx="0.26" ry="1.49"/><ellipse cx="6.23" cy="4.79" rx="1.22" ry="0.26"/><circle cx="10.62" cy="10" r="0.62"/><path d="M19.91,8.67a9.37,9.37,0,0,0-.59-2.3l-.12-.3a10.36,10.36,0,0,0-.5-1A10,10,0,0,0,10,0,10.13,10.13,0,0,0,7.23.39,10,10,0,0,0,1.3,5.07a8.62,8.62,0,0,0-.62,1.3A10,10,0,0,0,0,10a10.17,10.17,0,0,0,.14,1.67,9.76,9.76,0,0,0,.64,2.2,10,10,0,0,0,18.73-.76,11.75,11.75,0,0,0,.34-1.36A10.08,10.08,0,0,0,20,10,9.69,9.69,0,0,0,19.91,8.67ZM5.46,2.22A9,9,0,0,1,9.85,1H10a9,9,0,0,1,8,4.86,5.32,5.32,0,0,0-3.21-1.07h0a4.53,4.53,0,0,0-.91.08,5.27,5.27,0,0,0-3.48,2.25,4.69,4.69,0,0,0-.44.79,4.14,4.14,0,0,1,1,.31,4.48,4.48,0,0,1,2.48,2.86,9.07,9.07,0,0,1-2.61.63c-.26,0-.53,0-.8,0H9.73a8.93,8.93,0,0,1-4.46-1.33l-.18-.12A9,9,0,0,1,1.76,6.37,9,9,0,0,1,5.46,2.22ZM18.9,11.39a9,9,0,0,1-.9,2.75c-.06.12-.13.23-.19.34a9.3,9.3,0,0,1-.59.9,17.2,17.2,0,0,0,.26-1.93c0-.17,0-.34,0-.52a10.59,10.59,0,0,0-.11-1.5,10.44,10.44,0,0,0-.34-1.59c-.11-.36-.24-.71-.38-1.05s-.19-.43-.29-.64c.07.25.12.5.17.76a10.27,10.27,0,0,1,.17,1.24c0,.26,0,.51,0,.77a11,11,0,0,1-.11,1.53,10.78,10.78,0,0,1-.4,1.7,8.58,8.58,0,0,1-.39,1l-.06.14A10.56,10.56,0,0,1,14,18.09,8.86,8.86,0,0,1,10,19a9,9,0,0,1-7.41-3.88,11.07,11.07,0,0,0,4.93,1.37H8a11.56,11.56,0,0,0,1.46-.09,9.87,9.87,0,0,0,1.25-.24h-.1a14.55,14.55,0,0,1-3.12-.34,15.1,15.1,0,0,1-1.66-.48,14.13,14.13,0,0,1-4.35-2.45A9,9,0,0,1,1,10a8.89,8.89,0,0,1,.3-2.32,10.06,10.06,0,0,0,3.44,3.57l.34.2A9.89,9.89,0,0,0,10,12.74h.17a8.8,8.8,0,0,0,1.16-.08,10.37,10.37,0,0,0,2.24-.57c0,.07,0,.14,0,.21a4.5,4.5,0,0,1-.38,1.8,4.41,4.41,0,0,1-.52.89,4.55,4.55,0,0,1-.81.83A4.09,4.09,0,0,0,13,15.11a4.4,4.4,0,0,0,.7-.85,4.7,4.7,0,0,0,.73-2.51v0a4.57,4.57,0,0,0-.13-1.05A4.66,4.66,0,0,0,11.45,7.4a4.3,4.3,0,0,1,3.34-1.6h0a3.68,3.68,0,0,1,.66.06,4.24,4.24,0,0,1,2.42,1.25,4.52,4.52,0,0,1,.65.86,3.85,3.85,0,0,1,.24.5A4.61,4.61,0,0,1,19,9.53c0,.16,0,.31,0,.47v.14a10,10,0,0,1-.1,1.24Z"/></svg>