<?xml version="1.0" encoding="UTF-8"?>
<svg id="_图层_2" data-name="图层 2" xmlns="http://www.w3.org/2000/svg" viewBox="0 0 721.28 814.65">
  <defs>
    <style>
      .cls-1 {
        fill: #63e4ea;
      }

      .cls-1, .cls-2, .cls-3, .cls-4 {
        stroke-width: 0px;
      }

      .cls-2 {
        fill: #2c91c5;
      }

      .cls-3 {
        fill: #086899;
      }

      .cls-4 {
        fill: #28bcea;
      }
    </style>
  </defs>
  <g id="_图层_1-2" data-name="图层 1">
    <g>
      <path class="cls-4" d="M691.91,182.25l-22.07-12.75-51.59-29.82-29.36-16.97c-13.65-7.89-30.46-7.9-44.11-.02l-29.57,17.05-51.43,29.66-51.61,29.77-51.44,29.68-51.6,29.76-51.46,29.68-15.99,9.23c-22.02,12.7-35.59,36.2-35.59,61.62v33.62c0,4.2,2.24,8.08,5.87,10.18l45.65,26.39,46,26.59c1.32.76,2.82.6,3.91-.15.95-.64,1.6-1.72,1.6-3.03v-49.72c0-15.75,8.4-30.29,22.05-38.17l29.5-17.01,51.49-29.71,51.56-29.74,51.48-29.7,40.54-23.38c.43-.25.86-.48,1.29-.69l7.94-4.58,51.43-29.66,29.57-17.05c13.65-7.88,30.47-7.87,44.11.01l13.54,7.83c-3.48-3.41-7.4-6.42-11.72-8.92Z"/>
      <path class="cls-2" d="M651.22,656.05l-84.65,48.84h-.02l-51.34,29.6-103.02,59.45v-.02l-22.32,12.87c-18.21,10.48-40.62,10.48-58.82-.02l-73.59-42.54.05-.02,51.63-29.8,51.37-29.63,51.68-29.8,51.37-29.63,51.66-29.8,32.92-18.97,103.1,59.47Z"/>
      <path class="cls-3" d="M721.28,233.17l-.07,348.47c0,5.48-.77,10.85-2.21,15.97-4.11,14.55-13.73,27.2-27.2,34.94l-22.25,12.84.07.05-18.4,10.61-103.1-59.47,18.49-10.68,29.56-17.05c13.66-7.89,22.08-22.44,22.08-38.21v-257.11c0-9.19-4.91-17.68-12.84-22.27l-27.61-15.94c-6.4-3.7-14.19-3.94-20.75-.7l7.94-4.59,51.42-29.65,29.58-17.05c13.66-7.89,30.47-7.86,44.11.02l13.54,7.82c11.16,10.92,17.68,26,17.65,42.01Z"/>
      <path class="cls-1" d="M390.23,7.89c-18.19-10.5-40.6-10.52-58.79-.02l-22.3,12.86v-.03l-103.04,59.43-51.36,29.62-41.34,23.85-61.71,35.6.05.03-22.33,12.89C11.21,192.63,0,212.04,0,233.05v348.42c0,21,11.2,40.41,29.38,50.91l22.07,12.76,51.6,29.83,29.35,16.96c2.2,1.27,4.48,2.34,6.81,3.2l-6.41-3.7c-4.32-2.5-8.25-5.51-11.73-8.92-11.14-10.92-17.66-26-17.65-42.01l.02-94.92c-.26-1.46-.4-2.96-.4-4.48v-257.1c0-15.77,8.42-30.33,22.07-38.21l4.09-2.36h.01s25.46-14.69,25.46-14.69l51.41-29.66,10.37-5.98,41.28-23.8,51.4-29.65,51.66-29.79,51.38-29.65,26.94-15.54,24.68-14.23.04-.02L390.23,7.89Z"/>
      <path class="cls-2" d="M444.95,537.11l-32.78,18.91-51.61,29.77-51.43,29.66-51.63,29.78-51.41,29.66-29.59,17.06c-11.45,6.6-25.13,7.66-37.29,3.18l-6.41-3.7c-4.32-2.5-8.25-5.51-11.73-8.92-11.14-10.92-17.66-26-17.65-42.01l.02-94.92c1.3,7.4,5.81,13.95,12.45,17.8l27.59,15.94c6.82,3.95,15.23,3.95,22.06,0l40.54-23.38.37-.21,51.1-29.48,51.57-29.74,32.76-18.9,102.84,59.37.22.12Z"/>
      <path class="cls-3" d="M515.21,421.89v33.6c0,25.43-13.57,48.92-35.59,61.62l-16,9.23-18.66,10.76-103.06-59.5,18.73-10.81,29.51-17.02c13.64-7.87,22.05-22.42,22.05-38.17v-49.71c0-2.83,3.07-4.6,5.51-3.18l45.99,26.58,45.67,26.4c3.63,2.1,5.87,5.98,5.87,10.18Z"/>
    </g>
  </g>
</svg>