<?xml version="1.0" encoding="utf-8"?>
<!-- Generator: Adobe Illustrator 22.1.0, SVG Export Plug-In . SVG Version: 6.00 Build 0)  -->
<svg version="1.1" id="图层_2" xmlns="http://www.w3.org/2000/svg" xmlns:xlink="http://www.w3.org/1999/xlink" x="0px" y="0px"
	 viewBox="0 0 1024 1024" style="enable-background:new 0 0 1024 1024;" xml:space="preserve">
<style type="text/css">
	.st0{fill:#7A8193;}
</style>
<g id="邮件">
	<path class="st0" d="M928,192H96c-17.7,0-32,14.3-32,32v576c0,17.7,14.3,32,32,32h832c17.7,0,32-14.3,32-32V224
		C960,206.3,945.7,192,928,192z M838.3,256L529.8,461.8c-10.8,7.2-24.7,7.2-35.5,0L185.7,256H838.3z M128,768V294.5l330.7,220.6
		c16.2,10.8,34.7,16.2,53.3,16.2s37.1-5.4,53.3-16.2L896,294.5V768H128z"/>
</g>
</svg>
