<?xml version="1.0" encoding="UTF-8"?>
<svg width="596px" height="120px" viewBox="0 0 596 120" version="1.1" xmlns="http://www.w3.org/2000/svg" xmlns:xlink="http://www.w3.org/1999/xlink">
    <title>英文版</title>
    <g id="英文版" stroke="none" stroke-width="1" fill="none" fill-rule="evenodd">
        <g id="编组备份" fill-rule="nonzero">
            <path d="M0,82.3998478 C0,67.291852 8.83206107,53.7340252 22.4441112,47.9516489 C36.2502726,42.0954551 51.9490185,45.0973696 62.6008724,55.6778878 C64.7603599,57.8185973 70.0498909,63.2564915 70.0498909,63.2564915 C70.0498909,63.2564915 57.2142857,76.2729895 56.5591603,76.9373477 C53.9143948,74.2799152 50.3718648,70.539825 47.1205016,68.5221448 C35.2311887,61.0911762 22.492639,68.6451741 18.1008724,76.4698364 C12.8113413,85.8692735 14.8980371,97.8523255 23.1962923,104.471301 C31.7371865,111.311729 43.7235551,110.819612 51.4637405,103.117979 C60.6354962,93.9892061 80.4348419,73.8124039 80.4348419,73.8124039 C80.4348419,73.8124039 88.7330971,82.2276068 89,82.4982712 C79.6583969,91.774679 70.3167939,102.256774 60.441385,110.918035 C49.6924755,120.342078 37.0024537,122.384364 23.778626,117.266346 C10.4092148,112.099116 2.64476554,101.887686 0.339694656,87.49326 C0.0727917121,85.7708501 0.0485278081,84.073046 0,82.3998478 Z" id="路径" fill="#FEFEFE"></path>
            <path d="M150,82.4937414 C150,104.211891 132.168809,121.413652 111.174019,119.90819 C102.450156,119.266517 94.8766933,115.836037 88.5255297,109.616748 C86.2007642,107.346215 83.3007989,104.137852 81,101.842638 C81.4553664,101.373724 93.8700938,88.5896311 94.3254602,88.1207165 C95.7394929,89.6261791 97.8964918,91.7979941 99.3824245,93.2540973 C106.021188,99.8929407 115.559917,101.398403 123.804446,97.1534923 C131.617576,93.106019 136.410907,84.0485635 135.284474,75.3613038 C134.062174,65.7115351 127.615144,58.3076206 118.555749,56.4072825 C111.509552,54.9264996 105.182355,56.7034391 99.8617576,61.7134212 C96.6502258,64.7490262 92.671761,68.7964995 89.6279958,72.0295422 C89.3643626,71.7580653 81.5272664,63.6877985 81,63.1448447 C84.8825981,59.3688483 88.8131296,54.5563038 93.2709274,51.42198 C115.368183,35.8737594 146.237235,50.1139551 149.664467,77.4343998 C149.880167,79.0879407 149.952067,80.7908411 150,82.4937414 Z" id="路径" fill="#FEFEFE"></path>
            <path d="M21.6244104,101.081086 C15.811967,95.5158684 14.5664434,84.9956538 18.8402988,77.453319 C19.6462259,76.0131968 21.5999883,73.5967206 21.5999883,73.5967206 C21.5999883,73.5967206 20.4765749,75.6226552 20.1346665,76.5257826 C17.399399,84.0192997 20.9405935,92.2694912 27.5101198,96.5898578 C34.1529122,100.934633 42.8471553,100.129141 48.5619105,94.4906966 C56.9875112,86.1916874 65.3642678,77.8438606 73.6921804,69.4716248 C74.3027312,68.8614036 74.937704,68.3 74.937704,68.3 L79.7,73.0597259 C79.7,73.0597259 67.1714981,85.4594219 61.2857887,91.3419549 C57.6713281,94.9300559 54.1545556,98.6157924 50.4668289,102.155076 C42.7006231,109.624184 30.5384517,109.673002 22.6989797,102.350347 C22.3326493,101.959805 21.9907408,101.496037 21.6244104,101.081086 L21.7220985,100.959042 L21.6244104,101.081086 Z" id="路径" fill="#3C96FF"></path>
            <path d="M123.130355,59.4105727 C115.64358,55.5041367 106.799979,56.8726334 100.621573,62.7447283 C98.2471265,65.0089682 93.037882,70.2590192 90.3,73.0457761 C90.5665195,73.3194754 94.5643118,77.4249655 94.8550603,77.7235466 C96.9872162,75.4593066 99.8947015,72.3490868 102.172232,70.2341374 C105.51584,67.1487994 109.174425,65.5066034 113.051072,65.4070764 C113.341821,65.3821946 113.656798,65.3821946 113.947547,65.3821946 C123.299958,65.3821946 130.85942,73.1701849 130.85942,82.7496617 C130.85942,86.6809794 129.599509,90.2888343 127.443125,93.2 C127.927705,92.8267736 128.194225,92.6277196 128.460744,92.3291385 C137.764697,82.7496617 135.92329,66.1037656 123.130355,59.4105727 Z" id="路径" fill="#3C96FF"></path>
            <path d="M74.5364996,21.5386007 C86.0703606,21.5386007 95.6575784,29.8721351 97.823219,40.9505428 C101.886837,39.4668275 106.218118,38.5765983 110.744063,38.3787696 C110.403401,36.5983112 109.91674,34.86731 109.332747,33.185766 L116,28.0916767 C115.610671,27.1519903 115.19701,26.2370326 114.759015,25.3468034 L112.033714,20.5247286 C111.449721,19.6344994 110.841395,18.7689988 110.208736,17.9034982 L102.519496,21.2171291 C101.278511,19.7581423 99.9401935,18.39807 98.5045441,17.1616405 L101.765172,9.34740651 C100.816183,8.60554885 99.8185283,7.91314837 98.8208736,7.24547648 L95.0735855,5.04463209 C93.9785987,4.47587455 92.8592788,3.95657419 91.739959,3.46200241 L86.7030196,10.2623643 C84.9510408,9.64414958 83.1260627,9.1495778 81.2524186,8.80337756 L80.230431,0.37092883 C78.3567869,0.123642943 76.4588097,0 74.5121665,0 C72.5168572,0 70.545881,0.123642943 68.6235708,0.395657419 L67.6015831,8.82810615 C65.7522721,9.17430639 63.9516271,9.69360676 62.1996482,10.3118215 L57.1870419,3.53618818 C53.585752,5.06936068 50.2034594,7.07237636 47.1374963,9.47104946 L50.4224568,17.2852835 C49.0111404,18.5217129 47.6971563,19.8570567 46.5048373,21.2913148 L38.8155966,17.977684 C36.4796247,21.0934861 34.5086485,24.53076 33,28.2153197 L39.691586,33.3341375 C39.1319261,34.990953 38.6695984,36.672497 38.3289358,38.4282268 C42.8548813,38.6260555 47.1861624,39.5162847 51.2497801,41 C53.4154207,29.8721351 63.0026385,21.5386007 74.5364996,21.5386007 Z" id="路径" fill="#FFFFFF"></path>
            <path d="M74.6,31.3225989 C82.6948081,31.3225989 89.2997743,38.079661 89.4984199,46.5 C91.7331828,45.0186441 94.11693,43.719209 96.6,42.6536723 C94.6880361,31.7644068 85.5751693,23.5 74.6,23.5 C63.6248307,23.5 54.5119639,31.7644068 52.6,42.6536723 C55.08307,43.719209 57.4668172,44.9926554 59.7015801,46.5 C59.9002257,38.079661 66.5051919,31.3225989 74.6,31.3225989 Z" id="路径" fill="#3C96FF"></path>
        </g>
        <path d="M190.678496,91.0105541 C197.385134,90.9985323 201.675726,90.7612137 203.550271,90.298153 C206.315671,89.6121372 208.712351,87.8113456 210.740311,84.8957784 C212.768271,81.9802111 213.782251,78.4116095 213.782251,74.1899736 C213.782251,70.707124 212.985552,67.7519789 211.392155,65.3245383 C209.798758,62.8970976 207.593023,61.182058 204.774949,60.1794195 C206.750234,59.0976253 208.3568,57.4287599 209.594645,55.1728232 C210.832491,52.9168865 211.451414,50.3905013 211.451414,47.5936675 C211.451414,44.5593668 210.727142,41.8416887 209.2786,39.4406332 C207.830057,37.0395778 206.0523,35.3641161 203.945329,34.414248 C201.838357,33.4643799 198.190663,32.9894459 193.002247,32.9894459 L193.002247,32.9894459 L174,32.9894459 L174,91.0105541 L190.678496,91.0105541 Z M190.282097,56.0630721 L183.560382,56.0633245 L183.560382,42.646438 L189.545388,42.6468014 C194.331638,42.6545547 197.241928,42.7863596 198.276259,43.0422164 C199.342913,43.3060686 200.251545,43.9722955 201.002153,45.0408971 C201.752762,46.1094987 202.128066,47.5013193 202.128066,49.2163588 C202.128066,51.1424802 201.667166,52.6662269 200.745366,53.7875989 C199.823566,54.908971 198.546215,55.6015831 196.913312,55.8654354 C196.017849,55.9973615 193.673844,56.0633245 189.881296,56.0633245 L190.282097,56.0630721 Z M192.449167,81.2348285 L183.560382,81.2348285 L183.560382,65.7203166 L191.738392,65.7212001 C195.604559,65.7371019 198.178906,65.9676781 199.46143,66.4129288 C200.791456,66.8746702 201.85811,67.7189974 202.661393,68.9459103 C203.464676,70.1728232 203.866317,71.7361478 203.866317,73.6358839 C203.866317,75.4828496 203.491013,77.0065963 202.740404,78.207124 C201.989796,79.4076517 201.061412,80.2124011 199.955252,80.621372 C198.849092,81.030343 196.347064,81.2348285 192.449167,81.2348285 L192.449167,81.2348285 Z M255.579292,91.0105541 L255.579292,81.2348285 L231.717843,81.2348285 L231.717843,33.4643799 L222.157461,33.4643799 L222.157461,91.0105541 L255.579292,91.0105541 Z M281.85059,92 C286.617612,92 290.45625,90.9248021 293.366504,88.7744063 C296.276758,86.6240106 298.146695,83.8139842 298.976315,80.3443272 C299.805935,76.8746702 300.220745,71.2480211 300.220745,63.4643799 L300.220745,63.4643799 L300.220745,32.9894459 L290.620858,32.9894459 L290.620858,65.0870712 C290.620858,70.8654354 290.36407,74.6319261 289.850496,76.3865435 C289.336922,78.1411609 288.382201,79.5131926 286.986332,80.5026385 C285.590464,81.4920844 283.78637,81.9868074 281.57405,81.9868074 C278.966673,81.9868074 276.866286,81.2875989 275.272889,79.8891821 C273.679492,78.4907652 272.672096,76.5118734 272.250702,73.9525066 C272.013668,72.474934 271.895151,69.2955145 271.895151,64.414248 L271.895151,32.9894459 L262.334769,32.9894459 L262.334769,63.939314 C262.334769,72.6200528 262.960276,78.5765172 264.21129,81.8087071 C265.462304,85.0408971 267.477095,87.5474934 270.255664,89.328496 C273.034232,91.1094987 276.899207,92 281.85059,92 Z M346.442427,91.0105541 L346.442427,81.2348285 L319.894589,81.2348285 L319.894589,65.4432718 L343.756038,65.4432718 L343.756038,55.6675462 L319.894589,55.6675462 L319.894589,42.8047493 L345.573301,42.8047493 L345.573301,32.9894459 L310.334207,32.9894459 L310.334207,91.0105541 L346.442427,91.0105541 Z M364.219996,91.0105541 L364.219996,73.4775726 L372.002621,63.7810026 L385.079011,91.0105541 L397.483805,91.0105541 L378.639581,55.5883905 L396.535667,32.9894459 L383.6173,32.9894459 L364.219996,58.7546174 L364.219996,32.9894459 L354.659614,32.9894459 L354.659614,91.0105541 L364.219996,91.0105541 Z M411.70586,91.0105541 L411.70586,32.9894459 L402.145478,32.9894459 L402.145478,91.0105541 L411.70586,91.0105541 Z M429.917993,91.0105541 L429.917993,53.1741425 L449.038757,91.0105541 L458.67815,91.0105541 L458.67815,32.9894459 L449.74986,32.9894459 L449.74986,71.7361478 L430.31305,32.9894459 L420.989702,32.9894459 L420.989702,91.0105541 L429.917993,91.0105541 Z M491.19135,92 C495.036572,92 498.868626,91.116095 502.687512,89.348285 C506.506397,87.5804749 509.456157,85.469657 511.536791,83.0158311 L511.536791,83.0158311 L511.536791,59.9023747 L490.875304,59.9023747 L490.875304,69.6781003 L501.857892,69.6781003 L501.857892,77.0395778 C500.277663,78.5699208 498.480154,79.7770449 496.465362,80.6609499 C494.450571,81.5448549 492.508207,81.9868074 490.63827,81.9868074 C486.635025,81.9868074 483.461399,80.4168865 481.117394,77.2770449 C478.378331,73.6358839 477.0088,68.3192612 477.0088,61.3271768 C477.0088,54.8100264 478.272983,49.9617414 480.801348,46.7823219 C483.329714,43.6029024 486.635025,42.0131926 490.717281,42.0131926 C493.350995,42.0131926 495.61599,42.8047493 497.512264,44.3878628 C499.408538,45.9709763 500.712226,48.2532982 501.423329,51.2348285 L501.423329,51.2348285 L510.904699,49.0580475 C509.930225,43.4643799 507.737658,39.2229551 504.326999,36.3337731 C500.916339,33.444591 496.379767,32 490.717281,32 C486.002933,32 481.953598,33.121372 478.569275,35.3641161 C475.184953,37.6068602 472.432722,40.9973615 470.312582,45.5356201 C468.192442,50.0738786 467.132372,55.5356201 467.132372,61.9208443 C467.132372,68.1477573 468.179274,73.5633245 470.273076,78.1675462 C472.366879,82.7717678 475.204706,86.2282322 478.786557,88.5369393 C482.368408,90.8456464 486.503339,92 491.19135,92 Z M558.864632,92 C563.789677,92 567.937777,90.5026385 571.308931,87.5079156 C574.680085,84.5131926 577.089933,79.7704485 578.538476,73.2796834 L578.538476,73.2796834 L569.254634,69.6781003 C568.438183,73.9525066 567.108157,77.0725594 565.264557,79.0382586 C563.420957,81.0039578 561.234975,81.9868074 558.706609,81.9868074 C555.256444,81.9868074 552.451538,80.4432718 550.291893,77.3562005 C548.132247,74.2691293 547.052425,69.0712401 547.052425,61.762533 C547.052425,54.7176781 548.158585,49.6649077 550.370904,46.6042216 C552.583224,43.5435356 555.440804,42.0131926 558.943644,42.0131926 C561.392998,42.0131926 563.519722,42.8509235 565.323816,44.5263852 C567.12791,46.201847 568.332834,48.6094987 568.938588,51.7493404 L568.938588,51.7493404 L578.419959,48.9788918 C577.234787,43.8865435 575.364851,40.0474934 572.810148,37.4617414 C569.228297,33.8205805 564.77732,32 559.457218,32 C552.925607,32 547.724022,34.4274406 543.852462,39.2823219 C539.401485,44.8759894 537.175997,52.6200528 537.175997,62.5145119 C537.175997,71.8812665 539.388317,79.3218997 543.812956,84.8364116 C547.658179,89.6121372 552.675404,92 558.864632,92 Z M596,91.0105541 L596,32.9894459 L586.439618,32.9894459 L586.439618,91.0105541 L596,91.0105541 Z" id="BLUEKINGCI" fill="#FFFFFF" fill-rule="nonzero"></path>
    </g>
</svg>