<?xml version="1.0" encoding="utf-8"?>
<!-- Generator: Adobe Illustrator 26.1.0, SVG Export Plug-In . SVG Version: 6.00 Build 0)  -->
<svg version="1.1" id="图层_1" xmlns="http://www.w3.org/2000/svg" xmlns:xlink="http://www.w3.org/1999/xlink" x="0px" y="0px"
	 viewBox="0 0 38 38" style="enable-background:new 0 0 38 38;" xml:space="preserve">
<style type="text/css">
	.st0{fill:#33CEFF;}
	.st1{fill:#3385FF;}
</style>
<path class="st0" d="M30,14.1h-4.4l0.9-4.9h4.4L30,14.1z"/>
<path class="st0" d="M33.1,9.2l-0.9,4.9h4.4l0.9-4.9H33.1z"/>
<path class="st0" d="M23.1,28.9h4.4l0.9-4.9h-4.4L23.1,28.9z"/>
<path class="st0" d="M29.5,28.9h4.4l0.9-4.9h-4.4L29.5,28.9z"/>
<path class="st1" d="M14.6,23.9h-3.9c-0.7,0-0.7,0-1.1,0c-0.4,0-0.7,0-1-0.1c-0.8-0.2-1.5-0.6-2-1.1c-0.3-0.4-0.6-0.8-0.8-1.2
	c-0.3-0.8-0.4-1.6-0.2-2.5c0.2-0.9,0.5-1.7,1.1-2.5c0.3-0.5,0.8-0.9,1.2-1.2c0.7-0.5,1.5-0.9,2.4-1.1c0.4-0.1,0.7-0.1,1.1-0.1
	c0.4,0,0.8,0,1.1,0h11l0.9-4.9H12.2c-0.4,0-0.7,0-1.1,0.1c-0.8,0.1-1.5,0.3-2.3,0.5C8,10,7.2,10.3,6.5,10.8
	c-0.4,0.2-0.8,0.5-1.2,0.8c-0.5,0.4-0.9,0.8-1.3,1.2c-0.4,0.4-0.8,0.8-1.1,1.3c-0.6,0.8-1.1,1.6-1.4,2.5c-0.3,0.8-0.6,1.6-0.7,2.5
	c-0.1,0.8-0.2,1.6-0.1,2.5c0.1,0.8,0.3,1.7,0.6,2.5c0.2,0.4,0.4,0.9,0.6,1.3C2,25.6,2.3,26,2.7,26.4c0.3,0.3,0.6,0.6,0.9,0.8
	c0.6,0.5,1.3,0.8,2,1.1c0.7,0.3,1.4,0.4,2.1,0.5c0.4,0,0.7,0.1,1.1,0.1h5L14.6,23.9z"/>
<path class="st1" d="M9.9,16.5L9,21.5h8.2l-0.4,2.5h0l-0.9,4.9h5l1.3-7.4h13.2l0.9-4.9H9.9z"/>
</svg>
