<?xml version="1.0" encoding="utf-8"?>
<!-- Generator: Adobe Illustrator 22.0.1, SVG Export Plug-In . SVG Version: 6.00 Build 0)  -->
<svg version="1.1" id="Layer_1" xmlns="http://www.w3.org/2000/svg" xmlns:xlink="http://www.w3.org/1999/xlink" x="0px" y="0px"
	 viewBox="0 0 832 832" style="enable-background:new 0 0 832 832;" xml:space="preserve">
<style type="text/css">
	.st0{fill:url(#SVGID_1_);}
	.st1{opacity:0.7;fill:#FFFFFF;enable-background:new    ;}
	.st2{fill:#FFFFFF;}
	.st3{opacity:0.8;fill:#FFFFFF;enable-background:new    ;}
</style>
<title>蓝鲸系列logo</title>
<g id="图层_5">
	
		<linearGradient id="SVGID_1_" gradientUnits="userSpaceOnUse" x1="416.02" y1="26" x2="416.02" y2="818.65" gradientTransform="matrix(1 0 0 -1 0 834.78)">
		<stop  offset="0" style="stop-color:#4AC0FB"/>
		<stop  offset="1" style="stop-color:#4297FB"/>
	</linearGradient>
	<path class="st0" d="M832,710.2C832,778,781.9,832,720,832h-608C50.1,832,0,778,0,710.2V122.8C0,55,50.1,0,112,0h608
		c61.8,0,112,55,112,122.8L832,710.2z"/>
	<polygon class="st1" points="352,640 472,192 549,192 429,640 	"/>
	<rect x="585" y="449" class="st1" width="142" height="77"/>
	<polygon class="st2" points="561,526 472,192 549,192 638,526 	"/>
	<polygon class="st2" points="352,640 255,282 332,282 429,640 	"/>
	<polygon class="st2" points="189,526 105,526 105,449 210,449 	"/>
	<polygon class="st3" points="189,526 255,282 332,282 266,526 	"/>
</g>
</svg>
