<?xml version="1.0" encoding="UTF-8"?>
<svg width="420px" height="120px" viewBox="0 0 420 120" version="1.1" xmlns="http://www.w3.org/2000/svg" xmlns:xlink="http://www.w3.org/1999/xlink">
    <title>英文版</title>
    <g id="英文版" stroke="none" stroke-width="1" fill="none" fill-rule="evenodd">
        <g id="编组" transform="translate(30.000000, 26.000000)">
            <g id="编组备份" fill-rule="nonzero">
                <path d="M0,43.9465855 C0,35.8889877 4.68396947,28.6581467 11.9029444,25.5742128 C19.2248637,22.4509094 27.5504907,24.0519304 33.1995638,29.6948735 C34.3448201,30.8365852 37.1500545,33.7367955 37.1500545,33.7367955 C37.1500545,33.7367955 30.3428571,40.6789278 29.9954198,41.0332521 C28.5928026,39.6159548 26.7140676,37.62124 24.9897492,36.5451439 C18.6844057,32.5819606 11.9286805,36.6107595 9.59956379,40.7839127 C6.79432933,45.7969459 7.90098146,52.1879069 12.3018539,55.7180271 C16.8314068,59.3662554 23.1882225,59.103793 27.2931298,54.9962553 C32.1572519,50.1275766 42.6575791,39.3666154 42.6575791,39.3666154 C42.6575791,39.3666154 47.0584515,43.8547236 47.2,43.999078 C42.2458015,48.9464955 37.2916031,54.536946 32.0543075,59.1562855 C26.3537623,64.1824417 19.6237732,65.2716609 12.610687,62.5420513 C5.52039258,59.7861954 1.40261723,54.3400992 0.180152672,46.663072 C0.0386041439,45.7444534 0.025736096,44.8389579 0,43.9465855 Z" id="路径" fill="#FEFEFE"></path>
                <path d="M80,43.9966621 C80,55.5796751 70.4900313,64.7539479 59.29281,63.9510345 C54.6400834,63.6088091 50.6009031,61.7792196 47.2136158,58.4622658 C45.9737409,57.2513145 44.4270927,55.5401876 43.2,54.3160737 C43.4428621,54.0659859 50.06405,47.2478033 50.3069121,46.9977155 C51.0610629,47.8006289 52.2114623,48.9589302 53.0039597,49.7355185 C56.5446336,53.276235 61.6319555,54.0791484 66.0290379,51.8151959 C70.1960403,49.6565435 72.7524835,44.8259005 72.1517193,40.1926953 C71.4998263,35.0461521 68.0614102,31.0973976 63.2297325,30.083884 C59.471761,29.2941331 56.097256,30.2418342 53.259604,32.9138247 C51.5467871,34.532814 49.4249392,36.6914664 47.8015978,38.4157558 C47.6609934,38.2709682 43.4812088,33.9668258 43.2,33.6772505 C45.270719,31.6633858 47.3670024,29.0966954 49.7444946,27.425056 C61.5296978,19.1326717 77.9931921,26.7274427 79.821049,41.2983466 C79.9360889,42.1802351 79.9744356,43.0884486 80,43.9966621 Z" id="路径" fill="#FEFEFE"></path>
                <path d="M11.6217695,53.2619391 C8.5413579,50.331394 7.88126969,44.7916354 10.1462782,40.8199755 C10.5733941,40.0616327 11.6088266,38.7891592 11.6088266,38.7891592 C11.6088266,38.7891592 11.0134529,39.8559804 10.8322523,40.3315514 C9.38264679,44.2775047 11.2593682,48.6219093 14.7410099,50.8969378 C18.2614803,53.1848195 22.8691548,52.7606616 25.8977948,49.7915567 C30.3630974,45.4214455 34.8025142,41.0256278 39.2160451,36.6169569 C39.5396178,36.2956252 39.8761333,36 39.8761333,36 L42.4,38.5063873 C42.4,38.5063873 35.7602892,45.0358475 32.6410489,48.1334851 C30.7254988,50.0229155 28.8617203,51.963759 26.9073415,53.8274829 C22.7914974,57.7605829 16.3459302,57.7862895 12.1912574,53.930309 C11.9971138,53.7246568 11.8159131,53.4804447 11.6217695,53.2619391 L11.6735412,53.1976728 L11.6217695,53.2619391 Z" id="路径" fill="#3C96FF"></path>
                <path d="M65.3105507,31.5789721 C61.3629786,29.4955396 56.6999889,30.2254045 53.4422838,33.3571884 C52.190303,34.5647831 49.4436105,37.3648102 48,38.8510806 C48.1405285,38.9970535 50.2484553,41.1866482 50.4017591,41.3458915 C51.5259867,40.1382968 53.0590244,38.479513 54.2599039,37.35154 C56.0228973,35.7060264 57.9519697,34.8301885 59.99602,34.7771074 C60.1493238,34.7638371 60.3154028,34.7638371 60.4687066,34.7638371 C65.3999779,34.7638371 69.3858759,38.9174319 69.3858759,44.0264862 C69.3858759,46.123189 68.7215595,48.0473783 67.5845566,49.6 C67.8400629,49.4009459 67.9805913,49.2947838 68.1211198,49.1355405 C73.0268404,44.0264862 72.0559165,35.148675 65.3105507,31.5789721 Z" id="路径" fill="#3C96FF"></path>
                <path d="M39.6193492,11.3471653 C45.7336851,11.3471653 50.8160657,15.7375151 51.9641161,21.5739445 C54.1183231,20.7922799 56.4144239,20.3232811 58.8137203,20.2190591 C58.6331281,19.2810615 58.3751393,18.3691194 58.0655526,17.4832328 L61.6,14.7995175 C61.3936089,14.3044632 61.1743184,13.8224367 60.9421284,13.3534379 L59.4973908,10.8130277 C59.1878042,10.344029 58.8653181,9.8880579 58.5299326,9.43208685 L54.4537086,11.1778046 C53.795837,10.4091677 53.0863676,9.69264174 52.3253005,9.04125452 L54.0538259,4.92448733 C53.5507476,4.53365501 53.0218704,4.16887817 52.4929933,3.81712907 L50.506479,2.65765983 C49.9260041,2.35802171 49.3326297,2.08443908 48.7392554,1.8238842 L46.0690707,5.40651387 C45.1403108,5.08082027 44.1728525,4.82026538 43.1795954,4.63787696 L42.6378188,0.195416164 C41.6445617,0.0651387214 40.6384052,0 39.6064497,0 C38.5486954,0 37.5038405,0.0651387214 36.4847845,0.208443908 L35.9430079,4.6509047 C34.9626502,4.83329312 34.0080915,5.10687575 33.0793316,5.43256936 L30.4220463,1.86296743 C28.5129288,2.67068758 26.7199062,3.72593486 25.0945764,4.98962606 L26.8360012,9.10639324 C26.0878335,9.75778046 25.3912636,10.4612786 24.7591909,11.2168878 L20.6829669,9.47117008 C19.4446203,11.1126659 18.3997655,12.9235223 17.6,14.8646562 L21.1473468,17.5613993 C20.8506596,18.4342581 20.6055702,19.3201448 20.424978,20.2451146 C22.8242744,20.3493366 25.1203753,20.8183353 27.2745822,21.6 C28.4226327,15.7375151 33.5050132,11.3471653 39.6193492,11.3471653 Z" id="路径" fill="#FFFFFF"></path>
                <path d="M39.2,16.8813559 C43.3209932,16.8813559 46.6835214,20.4067797 46.7846501,24.8 C47.9223476,24.0271186 49.1358916,23.3491525 50.4,22.7932203 C49.4266366,17.1118644 44.7873589,12.8 39.2,12.8 C33.6126411,12.8 28.9733634,17.1118644 28,22.7932203 C29.2641084,23.3491525 30.4776524,24.0135593 31.6153499,24.8 C31.7164786,20.4067797 35.0790068,16.8813559 39.2,16.8813559 Z" id="路径" fill="#3C96FF"></path>
            </g>
            <text id="BLUEKING-CI" font-family="ArialNarrow, Arial Narrow" font-size="48" font-weight="normal" fill="#FFFFFF">
                <tspan x="104" y="51">BLUEKING CI</tspan>
            </text>
        </g>
    </g>
</svg>