<?xml version="1.0" encoding="utf-8"?>
<!-- Generator: Adobe Illustrator 22.1.0, SVG Export Plug-In . SVG Version: 6.00 Build 0)  -->
<svg version="1.1" id="图层_1" xmlns="http://www.w3.org/2000/svg" xmlns:xlink="http://www.w3.org/1999/xlink" x="0px" y="0px"
	 viewBox="0 0 766.9 140" style="enable-background:new 0 0 766.9 140;" xml:space="preserve">
<style type="text/css">
	.st0{fill:#FEFEFE;}
	.st1{fill:#3C96FF;}
	.st2{fill:#FFFFFF;}
</style>
<g>
	<g>
		<g>
			<path class="st0" d="M0,95.2c0-16.9,10-32.1,25.5-38.6C41.2,50,59,53.4,71.2,65.2c2.4,2.4,8.5,8.5,8.5,8.5S65,88.3,64.3,89.1
				c-3-3-7-7.2-10.7-9.4c-13.5-8.3-28,0.1-33,8.9c-6,10.5-3.6,24,5.8,31.4c9.7,7.7,23.3,7.1,32.1-1.5c10.4-10.2,32.9-32.9,32.9-32.9
				s9.4,9.4,9.7,9.7c-10.6,10.4-21.2,22.2-32.5,31.9C56.5,137.7,42.1,140,27,134.3C11.8,128.5,3,117,0.4,100.9C0.1,99,0,97.1,0,95.2
				z"/>
			<path class="st0" d="M170,95.2c0,24.3-20.5,43.5-44.7,41.8c-10-0.7-18.8-4.6-26.1-11.5c-2.7-2.5-6-6.1-8.7-8.7
				c0.5-0.5,14.8-14.8,15.3-15.3c1.6,1.7,4.1,4.1,5.8,5.7c7.6,7.4,18.6,9.1,28.1,4.3c9-4.5,14.5-14.7,13.2-24.4
				c-1.4-10.8-8.8-19.1-19.2-21.2c-8.1-1.7-15.4,0.3-21.5,5.9c-3.7,3.4-8.3,7.9-11.8,11.5c-0.3-0.3-9.3-9.3-9.9-9.9
				c4.5-4.2,9-9.6,14.1-13.1c25.4-17.4,61-1.5,64.9,29.1C169.9,91.4,170,93.3,170,95.2z"/>
			<path class="st1" d="M24.8,116.2c-6.6-6.3-8-18.2-3.1-26.7c0.9-1.6,3.1-4.3,3.1-4.3s-1.3,2.3-1.7,3.3C20,97,24,106.3,31.4,111.2
				c7.5,4.9,17.3,4,23.8-2.4c9.5-9.4,19-18.8,28.4-28.3c0.7-0.7,1.4-1.3,1.4-1.3l5.4,5.4c0,0-14.2,14-20.8,20.7
				c-4.1,4.1-8.1,8.2-12.2,12.2c-8.8,8.4-22.5,8.5-31.4,0.2C25.6,117.2,25.2,116.6,24.8,116.2l0.1-0.1L24.8,116.2z"/>
			<path class="st1" d="M138.9,69.4c-8.5-4.3-18.6-2.8-25.6,3.7c-2.7,2.5-8.6,8.3-11.7,11.4c0.3,0.3,4.9,4.9,5.2,5.2
				c2.4-2.5,5.7-6,8.3-8.3c3.8-3.4,8-5.2,12.4-5.3c0.3,0,0.7,0,1,0c10.6,0,19.3,8.6,19.3,19.3c0,4.4-1.4,8.4-3.9,11.6
				c0.6-0.4,0.8-0.6,1.2-1C155.6,95.2,153.5,76.8,138.9,69.4z"/>
		</g>
		<path class="st2" d="M85,26.7c13.1,0,24,9.3,26.4,21.6c4.6-1.7,9.5-2.6,14.6-2.9c-0.4-2-0.9-3.9-1.6-5.8L132,34
			c-0.4-1-0.9-2.1-1.4-3.1l-3.1-5.4c-0.7-1-1.4-2-2.1-2.9l-8.7,3.7c-1.4-1.6-2.9-3.1-4.5-4.5l3.7-8.7c-1.1-0.8-2.2-1.6-3.3-2.3
			l-4.3-2.5c-1.2-0.6-2.5-1.2-3.8-1.8l-5.7,7.6c-2-0.7-4.1-1.2-6.2-1.6l-1.1-9.4c-2.1-0.3-4.3-0.4-6.5-0.4c-2.3,0-4.5,0.1-6.7,0.4
			l-1.1,9.4c-2.1,0.4-4.2,1-6.1,1.7l-5.7-7.6c-4.1,1.7-7.9,3.9-11.4,6.6l3.7,8.7c-1.6,1.4-3.1,2.9-4.5,4.5l-8.7-3.7
			c-2.7,3.5-4.9,7.3-6.6,11.4l7.6,5.7c-0.6,1.8-1.2,3.7-1.5,5.7c5.1,0.2,10,1.2,14.6,2.9C61.1,36,71.9,26.7,85,26.7z"/>
		<path class="st1" d="M85,37.1c9,0,16.3,7.2,16.6,16.1c2.5-1.6,5.1-2.9,7.9-4.1C107.3,37.5,97.2,28.8,85,28.8s-22.3,8.8-24.4,20.3
			c2.8,1.1,5.4,2.5,7.9,4.1C68.7,44.2,76,37.1,85,37.1z"/>
	</g>
</g>
<g>
	<path class="st2" d="M202.8,34.8h22.6v-6.2h8.9v6.2h19.8v-6.2h8.9v6.2h22v7.5h-22v4.5h-8.9v-4.5h-19.8v4.4h-8.9v-4.4h-22.6V34.8z
		 M202.8,101h8.6V79.7h65.2V101h8.4v7.6h-82.3V101H202.8z M209.3,50.9h8.4v24.4h-8.4V50.9z M220.7,101h10.1V87h-10.1V101z
		 M227.2,48.7h8.8V76h-8.8V48.7z M237.7,71.1c5.9-7.1,9.7-14,12.3-22.8l8.9,1.3l-1.8,5h26.6v7.5h-29.8c-2.5,4.9-5.3,9.4-8.8,14
		C242.9,74.4,240.2,72.7,237.7,71.1z M239,101h10.1V87H239V101z M255.8,68l5.2-5.2c5.3,3.3,9.5,6.1,14.6,9.7l-5.5,5.8
		C265.3,74.8,261,71.6,255.8,68z M257.2,87v14h10.2V87H257.2z"/>
	<path class="st2" d="M289.7,50.4c4.8-6.1,9-13.4,12.2-21.9l8,1.1c-1,2.3-1.8,4.4-2.8,6.4h13.7v6.9l-5,9.3h8v39.6h-30V57.5l-0.7,0.9
		C291.8,55.2,290.7,52.6,289.7,50.4z M323.1,102.2c0,0.8,0,1.6,0.1,2.5c-11.7,1-22.4,1.9-32,3.1l-1.1-8c9.2-0.6,21-1.6,33-2.8
		c-0.1,1.7-0.1,3.1-0.1,4.5c4.3-5.7,7.4-10.7,10.8-17.1l6.8,3.7c-4,6.8-7.6,12.5-11.9,18.6C327,105,325.2,103.7,323.1,102.2z
		 M303.3,43.3c-1.7,3.1-3.6,6-5.7,9H308l5-9H303.3z M300.1,68.8h5.9V59h-5.9V68.8z M300.1,85h5.9v-9.8h-5.9V85z M311.7,59v9.8h5.9
		V59H311.7z M311.7,85h5.9v-9.8h-5.9V85z M326.3,38.2h19c-1-2.9-2-6-3-8.6l9.3-1.1c1.1,3.2,2.1,6.5,3.1,9.7H373v7.6h-46.8v-7.6
		H326.3z M334.5,102.1c2.3,0.2,4.8,0.3,7.1,0.3c3.1,0,4.2-1.2,4.2-4.2V79.9h-15.4V53h37.8v26.9H354v21c0,6.1-2.4,9-8.3,9.4
		c-2.6,0.1-6.3,0.2-9.5,0.2C335.7,107.6,335.1,104.7,334.5,102.1z M338.5,72.4h21.9V60.5h-21.9V72.4z M357.2,87.7l6.7-3.2
		c3.9,6.3,6.7,11.3,10.2,17.7L367,106C363.9,99.8,361,94.4,357.2,87.7z"/>
	<path class="st2" d="M383,105.5V34.7h23.6c23.5,0,35.9,13.3,35.9,34.8c0,25.2-10.9,36-35.6,36H383z M393.8,43.5v53.1h12.4
		c16.9,0,25-9,25-26.9c0-16-8.8-26.2-24.9-26.2C406.3,43.5,393.8,43.5,393.8,43.5z"/>
	<path class="st2" d="M502.7,90.9c-3.5,10.3-11.6,15.5-24.9,15.5c-15.9,0-26.4-9.8-26.4-26.2c0-16.7,9.6-27.5,25.5-27.5
		c18.2,0,25.6,11.3,25.6,27.5c0,0.2,0,2.5,0,2.5h-40.4c0,9.9,6.6,15.8,15.4,15.8c7.5,0,12.5-3.3,14.1-9.4L502.7,90.9z M491.9,75.9
		c0-8.9-5.3-15.4-14.7-15.4c-9.5,0-15.3,6.8-15.3,15.4H491.9z"/>
	<path class="st2" d="M538.3,105.3h-11.7l-19.7-51.2h11.4c0,0,12.1,35.9,12.6,37.7s1.5,5.1,1.6,6.1h0.3c0.1-1.1,1.1-4.3,1.7-6.1
		c0.5-1.8,13-37.7,13-37.7h11.1L538.3,105.3z"/>
	<path class="st2" d="M632.6,70.3c0,21.9-13.7,36.4-34.6,36.4c-20.2,0-34.3-14.3-34.3-36.3c0-21.9,13.3-36.7,34.8-36.7
		C619.4,33.7,632.6,50,632.6,70.3z M620.8,70.3c0-16.9-9.7-27.4-22.8-27.4c-13,0-23,10.8-23,27.4c0,17.5,10.2,27,22.6,27
		C611.7,97.4,620.8,87.1,620.8,70.3z"/>
	<path class="st2" d="M653.9,124h-10.4V54.2h10.4v8.6c3.3-6.6,9.3-9.7,17.2-9.7c13.3,0,20.8,11,20.8,26.2c0,17.6-7.5,27.4-21.1,27.4
		c-7.5,0-13.8-2.9-16.9-9V124z M653.7,82.4c0,10.2,5.4,16,13.5,16c8.9,0,14-6,14-19c0-11.1-4.8-18.1-14.1-18.1
		c-8.3,0-13.3,6.5-13.3,15.3v5.8H653.7z"/>
	<path class="st2" d="M732.7,67.9c-1.2-4.8-4.9-7.6-11.1-7.6c-6.8,0-10.2,3-10.2,7.2c0,3.7,2.1,5.6,11.4,7.5
		c2.5,0.4,5.1,1.1,7.8,1.8c11.3,2.8,14.5,7.5,14.5,14.6c0,9.3-6.7,15.4-21.7,15.4c-15.3,0-21.3-4.1-24.5-15.9l10.3-1.6
		c1.5,6.8,6.1,9.7,13.6,9.7c8.4,0,11.9-3.4,11.9-7.8c0-3.3-1.8-5.7-10.5-7.6c-2.4-0.5-5.2-1.2-7.8-1.8c-11.2-2.5-15.6-6.8-15.6-13.7
		c0-8.6,6.9-14.8,20.2-14.8c12.8,0,19.4,4.3,22.3,13.5L732.7,67.9z"/>
</g>
</svg>
