<svg xmlns="http://www.w3.org/2000/svg" viewBox="0 0 97.6 88.2"><defs><style>.cls-1{fill:#5270a4;}.cls-2{fill:#2f2f31;}</style></defs><polygon class="cls-1" points="19 7.2 57.4 7.2 57.4 0 23.1 0 19 7.2"/><polygon class="cls-1" points="9.8 23.5 87.9 23.5 83.7 16.3 13.8 16.3 9.8 23.5"/><polygon class="cls-1" points="88.1 64.9 9.4 64.9 13.6 72.1 84 72.1 88.1 64.9"/><polygon class="cls-2" points="74.3 0 62.7 0 62.7 7.2 78.6 7.2 74.3 0"/><polygon class="cls-1" points="97.6 48.7 76.7 48.7 76.7 55.9 93.5 55.9 97.6 48.7"/><polygon class="cls-2" points="4.2 55.9 25.7 55.9 25.7 48.7 0 48.7 4.2 55.9"/><rect class="cls-1" x="31.5" y="48.7" width="40.1" height="7.2"/><polygon class="cls-2" points="78.9 81 30.8 81 30.8 88.2 74.8 88.2 78.9 81"/><polygon class="cls-1" points="22.9 88.2 25.5 88.2 25.5 81 18.6 81 22.9 88.2"/><polygon class="cls-1" points="0.4 39.7 42.7 39.7 42.7 32.5 4.5 32.5 0.4 39.7"/><polygon class="cls-2" points="93 32.5 48.5 32.5 48.5 39.7 97.3 39.7 93 32.5"/></svg>