<?xml version="1.0" encoding="utf-8"?>
<!-- Generator: Adobe Illustrator 22.0.1, SVG Export Plug-In . SVG Version: 6.00 Build 0)  -->
<svg version="1.1" id="图层_5" xmlns="http://www.w3.org/2000/svg" xmlns:xlink="http://www.w3.org/1999/xlink" x="0px" y="0px"
	 viewBox="0 0 1006 1006" style="enable-background:new 0 0 1006 1006;" xml:space="preserve">
<style type="text/css">
	.st0{fill:#3C81C3;}
	.st1{fill:#FFFFFF;}
</style>
<g>
	<circle class="st0" cx="503" cy="503" r="503"/>
	<path class="st1" d="M753.4,551.9V304.3V197.6H645.6H437.9v106.7h207.7v185.3v44.9v24.7c0,0-0.6,6.3-0.6,9.5
		c0,79.7-64.6,144.3-144.3,144.3c-75.4,0-137.3-57.9-143.7-131.6c0,0-1-13.4-1-25.4c0-5.4,0-21.6,0-21.6H249.9h-1.8v17.4v33.5
		c8.6,132,118.4,236.5,252.6,236.5c139.8,0,253.2-113.4,253.2-253.2C753.9,563,753.7,557.4,753.4,551.9z"/>
</g>
</svg>
