<?xml version="1.0" encoding="utf-8"?>
<!-- Generator: Adobe Illustrator 22.1.0, SVG Export Plug-In . SVG Version: 6.00 Build 0)  -->
<svg version="1.1" id="图层_2" xmlns="http://www.w3.org/2000/svg" xmlns:xlink="http://www.w3.org/1999/xlink" x="0px" y="0px"
	 viewBox="0 0 64 64" style="enable-background:new 0 0 64 64;" xml:space="preserve">
<style type="text/css">
	.st0{fill:#3A68C2;}
</style>
<g id="图层_11">
	<polygon class="st0" points="51,23.4 47.6,11.9 13,21.8 16.4,33.3 27.9,30 34.2,52.1 45.7,48.8 39.4,26.7 	"/>
	<path class="st0" d="M6,25.5V55c0,1.7,1.3,3,3,3h13.9l0,0L6,25.5C6,25.4,6,25.4,6,25.5z"/>
	<path class="st0" d="M47.2,6H9C7.3,6,6,7.3,6,9v8.8L47.2,6z"/>
	<path class="st0" d="M51,50.4c-0.5,3.3-1.6,4.9-4.1,5.6l-8,2H55c1.7,0,3-1.3,3-3V8C58,8,51.2,48.5,51,50.4z"/>
</g>
</svg>
