<svg xmlns="http://www.w3.org/2000/svg" viewBox="0 0 64 64"><defs><style>.cls-1{fill:#009af8;}.cls-2{fill:#f1f2f3;}.cls-3{fill:#fff;}.cls-4{fill:#f4656b;}.cls-5{fill:#f3ce48;}.cls-6{fill:#4dc266;}.cls-7{fill:#017fc4;}</style></defs><title>研发商店-彩色logo</title><g id="图层_78" data-name="图层 78"><path class="cls-1" d="M4,21.32H60a0,0,0,0,1,0,0v30a2.52,2.52,0,0,1-2.52,2.52H6.5A2.52,2.52,0,0,1,4,51.27v-30A0,0,0,0,1,4,21.32Z"/><path class="cls-2" d="M7.53,9.72H56.45A3.55,3.55,0,0,1,60,13.26v8.29a0,0,0,0,1,0,0H4a0,0,0,0,1,0,0V13.26A3.55,3.55,0,0,1,7.53,9.72Z"/><path class="cls-3" d="M46.21,40.17l2.34-.37a.62.62,0,0,0,.26-1.11l-8.14-5.84a.62.62,0,0,0-1,.65l2.49,9.73a.62.62,0,0,0,1.13.16l1.22-2.08,3.2,4.53a1,1,0,0,0,1.09.39,1.09,1.09,0,0,0,.31-.14,1,1,0,0,0,.39-1.1,1.09,1.09,0,0,0-.14-.31l-3.19-4.51Z"/><circle class="cls-4" cx="10.78" cy="15.93" r="1.78"/><circle class="cls-5" cx="16.41" cy="15.93" r="1.78"/><circle class="cls-6" cx="21.73" cy="15.93" r="1.78"/><rect class="cls-7" x="10.35" y="28.48" width="24.22" height="2.02"/><rect class="cls-7" x="10.35" y="33.02" width="16.15" height="2.02"/><rect class="cls-7" x="10.35" y="37.56" width="21.2" height="2.02"/><rect class="cls-7" x="10.35" y="42.1" width="11.61" height="2.02"/></g></svg>