<svg xmlns="http://www.w3.org/2000/svg" viewBox="0 0 64 64"><defs><style>.cls-1{fill:#dcdcdc;}.cls-2{fill:#f1f2f3;}.cls-3{fill:#017fc4;}.cls-4{fill:#009af8;}.cls-5{fill:#4dc266;}.cls-6{fill:#f3ce48;}.cls-7{fill:#f4656b;}</style></defs><title>研发商店-彩色logo</title><g id="图层_78" data-name="图层 78"><path class="cls-1" d="M24.57,31.23H19.94V28.29H15.7v2.94H10.79v1.06H24.57Z"/><rect class="cls-2" x="4.04" y="10.12" width="27.29" height="19.02" rx="1.33" ry="1.33"/><path class="cls-3" d="M5.36,10.12H30a1.33,1.33,0,0,1,1.33,1.33V25.89a0,0,0,0,1,0,0H4a0,0,0,0,1,0,0V11.44A1.33,1.33,0,0,1,5.36,10.12Z"/><rect class="cls-4" x="5.36" y="11.45" width="24.64" height="13.11"/><path class="cls-5" d="M11.83,17.83l1.72-2.41h1.52l-1.71,2.41,1.71,2.42H13.55Z"/><path class="cls-5" d="M19,15.1l-1.2,5.41H16.41l1.2-5.41Z"/><path class="cls-5" d="M21.83,20.25H20.3L22,17.83,20.3,15.42h1.53l1.7,2.41Z"/><path class="cls-1" d="M53.28,52.88H48.64V50H44.4v2.93H39.5V54H53.28Z"/><rect class="cls-2" x="32.74" y="31.77" width="27.29" height="19.02" rx="1.33" ry="1.33"/><path class="cls-3" d="M34.07,31.77H58.71A1.33,1.33,0,0,1,60,33.1V47.55a0,0,0,0,1,0,0H32.74a0,0,0,0,1,0,0V33.1A1.33,1.33,0,0,1,34.07,31.77Z"/><rect class="cls-4" x="34.07" y="33.1" width="24.64" height="13.11"/><path class="cls-6" d="M40.54,39.49l1.72-2.42h1.52l-1.71,2.42,1.71,2.42H42.26Z"/><path class="cls-6" d="M47.67,36.76l-1.19,5.41H45.12l1.2-5.41Z"/><path class="cls-6" d="M50.53,41.91H49l1.71-2.42L49,37.07h1.53l1.71,2.42Z"/><rect class="cls-7" x="33.97" y="17.3" width="3.02" height="2.52"/><rect class="cls-7" x="39.51" y="17.3" width="3.02" height="2.52"/><rect class="cls-7" x="45.04" y="17.3" width="3.02" height="2.52"/><rect class="cls-7" x="50.58" y="17.3" width="3.02" height="2.52"/><rect class="cls-7" x="50.84" y="22.08" width="3.02" height="2.52" transform="translate(75.69 -29) rotate(90)"/><rect class="cls-7" x="50.84" y="27.12" width="3.02" height="2.52" transform="translate(80.73 -23.97) rotate(90)"/><rect class="cls-7" x="25.91" y="44.49" width="3.02" height="2.52"/><rect class="cls-7" x="20.37" y="44.49" width="3.02" height="2.52"/><rect class="cls-7" x="14.83" y="44.49" width="3.02" height="2.52"/><rect class="cls-7" x="9.29" y="44.49" width="3.02" height="2.52"/><rect class="cls-7" x="9.29" y="39.46" width="2.52" height="3.02"/><rect class="cls-7" x="9.29" y="34.42" width="2.52" height="3.02"/></g></svg>