<svg xmlns="http://www.w3.org/2000/svg" viewBox="0 0 64 64"><defs><style>.cls-1{fill:#009af8;}.cls-2{fill:#017fc4;}.cls-3{fill:#fff;}.cls-4{fill:#f4656b;}.cls-5{fill:#4dc266;}.cls-6{fill:#f3ce48;}</style></defs><title>研发商店-彩色logo</title><g id="图层_78" data-name="图层 78"><circle class="cls-1" cx="32.08" cy="32.02" r="28"/><polygon class="cls-2" points="43.1 17.24 43.1 48.37 43.79 48.37 45.48 48.37 46.91 48.37 46.91 46.94 46.91 45.26 46.91 17.24 43.1 17.24"/><path class="cls-2" d="M20.46,48.37H16.65V17.24h3.81Z"/><path class="cls-3" d="M18.56,35h0a5.46,5.46,0,0,1-5.45-5.44h0a5.46,5.46,0,0,1,5.45-5.44h0A5.46,5.46,0,0,1,24,29.55h0A5.46,5.46,0,0,1,18.56,35Z"/><path class="cls-4" d="M20.68,30.66H16.43a.69.69,0,0,1-.69-.7V29.5a.69.69,0,0,1,.69-.69h4.25a.7.7,0,0,1,.7.69V30A.71.71,0,0,1,20.68,30.66Z"/><path class="cls-3" d="M45,42.45h0A5.46,5.46,0,0,1,39.56,37h0A5.46,5.46,0,0,1,45,31.56h0A5.46,5.46,0,0,1,50.45,37h0A5.46,5.46,0,0,1,45,42.45Z"/><path class="cls-5" d="M47.13,38.11H42.88a.7.7,0,0,1-.7-.7V37a.7.7,0,0,1,.7-.69h4.25a.69.69,0,0,1,.69.69v.46A.69.69,0,0,1,47.13,38.11Z"/><path class="cls-2" d="M33.68,48.37h-3.8V17.24h3.8Z"/><path class="cls-3" d="M31.77,22.61h0a5.46,5.46,0,0,1-5.44-5.45h0a5.46,5.46,0,0,1,5.44-5.44h0a5.46,5.46,0,0,1,5.45,5.44h0A5.46,5.46,0,0,1,31.77,22.61Z"/><path class="cls-6" d="M33.9,18.27H29.65a.69.69,0,0,1-.7-.69v-.46a.7.7,0,0,1,.7-.7H33.9a.7.7,0,0,1,.69.7v.46A.69.69,0,0,1,33.9,18.27Z"/></g></svg>