<?xml version="1.0" encoding="UTF-8"?>
<svg width="16px" height="14px" viewBox="0 0 16 14" version="1.1" xmlns="http://www.w3.org/2000/svg" xmlns:xlink="http://www.w3.org/1999/xlink">
    <!-- Generator: Sketch 55.2 (78181) - https://sketchapp.com -->
    <title>协作</title>
    <desc>Created with Sketch.</desc>
    <g id="二期" stroke="none" stroke-width="1" fill="none" fill-rule="evenodd">
        <g id="工蜂-协作" transform="translate(-551.000000, -140.000000)" fill="currentcolor" fill-rule="nonzero">
            <g id="协作" transform="translate(551.000000, 140.000000)">
                <path d="M15.5516436,4.8173921 L11.9555267,1.17967079 C11.6799331,0.892095212 11.2879882,0.727975009 10.8768059,0.727975009 C10.4656236,0.727975009 10.0736787,0.892095212 9.7980851,1.17967079 L8.71822159,2.27271019 L6.92073449,0.451695778 C6.64514092,0.164120204 6.25319597,0 5.84201369,0 C5.4308314,0 5.03888646,0.164120204 4.76329289,0.451695778 L0.446124233,4.81846897 C-0.149145423,5.43770574 -0.148651075,6.38155756 0.447266948,7.00024025 L6.92073449,13.5477078 C7.51608782,14.1507641 8.48282278,14.1507641 9.07817609,13.5477078 L14.4717801,8.09112588 L15.5527864,7.00024025 C16.1490712,6.38111945 16.1490712,5.43651289 15.5527864,4.8173921 L15.5516436,4.8173921 Z M12.6731503,8.50788081 L12.3143385,8.87079144 L11.5944295,8.1438933 C11.5025518,8.04779453 11.3717339,7.9929301 11.234475,7.9929301 C11.0972161,7.9929301 10.9663982,8.04779453 10.8745205,8.1438933 C10.6763967,8.35022383 10.6763967,8.66446091 10.8745205,8.87079144 L11.5944295,9.59876644 L10.8745205,10.3256646 L9.43698788,8.87186832 C9.34511021,8.77576955 9.21429224,8.72090513 9.07703338,8.72090513 C8.93977451,8.72090513 8.80895655,8.77576955 8.71707887,8.87186832 C8.51895506,9.07819885 8.51895506,9.39243592 8.71707887,9.59876644 L10.1568969,11.0536396 L9.43698788,11.7816146 L7.27954628,9.59768956 C7.1876686,9.50159079 7.05685064,9.44672636 6.91959177,9.44672636 C6.78233291,9.44672636 6.65151495,9.50159079 6.55963727,9.59768956 C6.36151344,9.80402008 6.36151344,10.1182572 6.55963727,10.3245877 L8.71707887,12.5074358 L8.35826708,12.8714234 C8.2663894,12.9675221 8.13557144,13.0223866 7.99831258,13.0223866 C7.86105371,13.0223866 7.73023575,12.9675221 7.63835807,12.8714234 L1.16603324,6.32395577 C0.96721912,6.11746378 0.96721912,5.80247274 1.16603324,5.59598075 L5.48091647,1.23136132 C5.57279414,1.13526255 5.70361211,1.08039812 5.84087097,1.08039812 C5.97812984,1.08039812 6.1089478,1.13526255 6.20082548,1.23136132 L7.99945529,3.05022197 L7.27954628,3.77712011 C6.68326141,4.3962409 6.68326141,5.34084746 7.27954628,5.95996826 L7.99945529,6.68794327 C8.59480862,7.29099949 9.56154358,7.29099949 10.1568969,6.68794327 L10.8768059,5.95996826 L12.674293,7.77882891 C12.8731071,7.9853209 12.8731071,8.30031194 12.674293,8.50680392 L12.6731503,8.50788081 Z M14.8305919,6.32503266 L13.7518711,7.41591829 L12.6731503,6.32503266 L11.2356177,4.86800574 C11.1437599,4.77226715 11.0131964,4.71763909 10.8762345,4.71763909 C10.7392727,4.71763909 10.6087092,4.77226715 10.5168514,4.86800574 L10.1568969,5.23091636 L9.43698788,5.95889137 C9.3451301,6.05462996 9.21456655,6.10925802 9.07760474,6.10925802 C8.94064292,6.10925802 8.81007937,6.05462996 8.71822159,5.95889137 L7.99945529,5.23199325 C7.80133147,5.02566272 7.80133147,4.71142565 7.99945529,4.50509512 L8.7193643,3.77712011 L10.5168514,1.95825945 C10.6087291,1.86216068 10.739547,1.80729626 10.8768059,1.80729626 C11.0140648,1.80729626 11.1448827,1.86216068 11.2367604,1.95825945 L11.9555267,2.68623446 L14.8317346,5.59598075 C15.0305487,5.80247274 15.0305487,6.11746378 14.8317346,6.32395577 L14.8305919,6.32503266 Z" id="形状"></path>
            </g>
        </g>
    </g>
</svg>