<!-- Generated by IcoMoon.io -->
<svg version="1.1" xmlns="http://www.w3.org/2000/svg" width="32" height="32" viewBox="0 0 32 32">
<title>create-vs</title>
<path d="M13.294 8.331v-2.175c-2.806 1.047-5.006 3.306-5.969 6.15h2.144c0.762-1.738 2.122-3.147 3.825-3.975z"></path>
<path d="M13.294 5.094v-2.091c-0.844 0.234-1.659 0.556-2.441 0.956-1.2 0.619-2.294 1.416-3.25 2.372s-1.756 2.050-2.372 3.25c-0.447 0.869-0.791 1.781-1.031 2.722h2.075c1.028-3.406 3.647-6.091 7.019-7.209z"></path>
<path d="M27.803 28.997l-4.775-7.441c1.825-1.875 2.825-4.344 2.825-6.966 0-2.672-1.041-5.181-2.928-7.072l-0.706-0.706-6.425 6.425-2.856-2.856-1.416 1.416 2.856 2.856-6.3 6.3 0.706 0.706c1.887 1.887 4.4 2.928 7.072 2.928 0.372 0 0.741-0.022 1.106-0.059l-2.866 4.466h13.706zM17.756 26.997l2.069-3.222c0.581-0.25 1.137-0.559 1.666-0.919l2.656 4.141h-6.391zM10.95 20.909l11.228-11.228c1.091 1.397 1.678 3.106 1.678 4.906 0 2.138-0.831 4.147-2.344 5.656-1.512 1.512-3.519 2.344-5.656 2.344-1.8 0.003-3.509-0.587-4.906-1.678z"></path>
</svg>
