<!-- Generated by IcoMoon.io -->
<svg version="1.1" xmlns="http://www.w3.org/2000/svg" width="32" height="32" viewBox="0 0 32 32">
<title>cry</title>
<path d="M16 0c-8.82 0-16 7.18-16 16s7.18 16 16 16 16-7.18 16-16-7.18-16-16-16zM16 30c-7.72 0-14-6.28-14-14s6.28-14 14-14c7.72 0 14 6.28 14 14s-6.28 14-14 14z"></path>
<path d="M13 10h-6c-0.56 0-1 0.44-1 1s0.44 1 1 1h2v11c0 0.56 0.44 1 1 1s1-0.44 1-1v-11h2c0.56 0 1-0.44 1-1s-0.44-1-1-1z"></path>
<path d="M25 10h-6c-0.56 0-1 0.44-1 1s0.44 1 1 1h2v11c0 0.56 0.44 1 1 1s1-0.44 1-1v-11h2c0.56 0 1-0.44 1-1s-0.44-1-1-1z"></path>
</svg>
