<svg fill="none" xmlns="http://www.w3.org/2000/svg" viewBox="0 0 24 24" class="design-iconfont">
  <path fill-rule="evenodd" clip-rule="evenodd" d="M3 10C3 5.02944 7.02944 1 12 1C16.9706 1 21 5.02944 21 10V14C21 18.9706 16.9706 23 12 23V21C15.171 21 17.8496 18.8915 18.7101 16H16C15.4477 16 15 15.5523 15 15V10C15 9.44771 15.4477 9 16 9H18.9291C18.4439 5.60771 15.5265 3 12 3C8.47353 3 5.55612 5.60771 5.07089 9H8C8.55228 9 9 9.44771 9 10V15C9 15.5523 8.55228 16 8 16H5H4H3V15V10ZM19 11H17V14H19V11ZM5 14V11H7V14H5Z" fill="#1A1A1A"/>
  <path fill-rule="evenodd" clip-rule="evenodd" d="M13 23H10V21H13V23Z" fill="#0052D9"/>
</svg>
