<?xml version="1.0" encoding="UTF-8"?>
<svg width="14px" height="14px" viewBox="0 0 14 14" version="1.1" xmlns="http://www.w3.org/2000/svg" xmlns:xlink="http://www.w3.org/1999/xlink">
    <!-- Generator: Sketch 53 (72520) - https://sketchapp.com -->
    <title>模型构建</title>
    <desc>Created with Sketch.</desc>
    <g id="二期" stroke="none" stroke-width="1" fill="none" fill-rule="evenodd">
        <g id="常规创建流程" transform="translate(-302.000000, -215.000000)" fill="#FFFFFF" fill-rule="nonzero">
            <g id="快捷创建规则" transform="translate(260.000000, 130.000000)">
                <g id="日常构建" transform="translate(20.000000, 54.000000)">
                    <g id="模型构建" transform="translate(22.000000, 31.000000)">
                        <path d="M11.8500476,3.2382421 L9.34576594,3.2382421 C9.11032254,2.70628492 8.58923436,2.36320339 8.01370124,2.3612182 C7.94777423,2.36159338 7.88193327,2.36609955 7.81655566,2.37471087 L6.4605138,0 L2.15261656,0 L4.73244448e-16,3.77794911 L1.31607992,6.08789514 C1.1077233,6.35129811 0.994041049,6.67866783 0.993720266,7.01619121 C0.993362859,7.34708711 1.10318097,7.66843658 1.30542341,7.92829607 L0,10.2220509 L2.15261656,14 L6.4605138,14 L7.7659372,11.7008481 C7.84242708,11.7148806 7.91998283,11.7221043 7.99771646,11.7224364 C8.59800122,11.7257883 9.13958662,11.3579298 9.36441484,10.7941403 L11.9539486,10.7941403 L14,7.01619121 L11.8500476,3.2382421 Z M8.03235014,3.14919044 C8.4090178,3.14919044 8.71436727,3.45848332 8.71436727,3.84001542 C8.71436727,4.22154752 8.4090178,4.5308404 8.03235014,4.5308404 C7.65568248,4.5308404 7.35033302,4.22154752 7.35033302,3.84001542 C7.35033302,3.45848332 7.65568248,3.14919044 8.03235014,3.14919044 Z M1.23082778,3.77794911 L2.76803045,1.07941403 L5.8450999,1.07941403 L6.88144624,2.89822668 C6.79806263,3.00206426 6.72822141,3.11634171 6.67364415,3.2382421 L4.10275928,3.2382421 L2.77069458,5.56707787 C2.66739973,5.54431335 2.56203735,5.53255573 2.45632731,5.53199692 C2.38314659,5.53280853 2.31012636,5.53912247 2.2378687,5.55088666 L1.23082778,3.77794911 Z M6.82549952,4.73323053 L5.85042816,6.44410177 L3.79904853,6.44410177 C3.7590945,6.34895251 3.70907168,6.25847243 3.64985728,6.17424827 L4.71550904,4.3230532 L6.62036156,4.3230532 C6.66991387,4.4712396 6.74376767,4.60990729 6.83882017,4.73323053 L6.82549952,4.73323053 Z M3.14900095,7.01619121 C3.15007943,7.29693828 2.98394772,7.55064914 2.72818713,7.65884418 C2.47242655,7.76703922 2.17749703,7.70837223 1.98112679,7.51023993 C1.78475654,7.31210763 1.72568816,7.01360026 1.83150582,6.75411683 C1.93732347,6.4946334 2.18714999,6.32536836 2.4643197,6.32536623 C2.64566304,6.3246487 2.81982197,6.39711496 2.94830177,6.52674762 C3.07678157,6.65638029 3.14900234,6.83250452 3.14900095,7.01619121 Z M5.8450999,12.920586 L2.76803045,12.920586 L1.23082778,10.2220509 L2.22454805,8.47879722 C2.30193917,8.49279662 2.38037673,8.5000194 2.45899144,8.50038551 C2.56470148,8.4998267 2.67006386,8.48806907 2.77335871,8.46530455 L4.10542341,10.7941403 L6.64433873,10.7941403 C6.69610622,10.9241559 6.76609215,11.0459409 6.85214082,11.155744 L5.8450999,12.920586 Z M6.62835395,9.71472629 L4.71817317,9.71472629 L3.65252141,7.86353123 C3.72097795,7.76805491 3.77819979,7.66481219 3.82302569,7.55589823 L5.86374881,7.55589823 L6.86013321,9.30454896 C6.76103294,9.42736602 6.68271213,9.56596955 6.62835395,9.71472629 Z M8.04833492,10.8966847 C7.6701959,10.8966847 7.36365366,10.5861836 7.36365366,10.2031611 C7.36365366,9.82013868 7.6701959,9.50963763 8.04833492,9.50963763 C8.42647394,9.50963763 8.73301618,9.82013868 8.73301618,10.2031611 C8.73301618,10.5861836 8.42647394,10.8966847 8.04833492,10.8966847 L8.04833492,10.8966847 Z M8.31474786,8.78912876 C8.20961776,8.76657994 8.10251076,8.75482683 7.99505233,8.7540478 C7.92370287,8.75386676 7.85244659,8.75928 7.78192198,8.77023901 L6.77221694,7 L7.73929591,5.30262143 C7.82709456,5.31987824 7.91627517,5.32891147 8.00570885,5.32960678 C8.11871754,5.32843972 8.23126839,5.31486777 8.34138915,5.28912876 L9.32711703,7.01619121 L8.31474786,8.78912876 Z M11.3145576,9.71472629 L9.36441484,9.71472629 C9.32331831,9.6017341 9.26778731,9.49468115 9.19923882,9.39629915 L10.5632731,7.01619121 L9.23120837,4.67386276 C9.3017956,4.56279109 9.35819218,4.44310079 9.39904853,4.31765613 L11.2293054,4.31765613 L12.7718363,7.01619121 L11.3145576,9.71472629 Z" id="形状"></path>
                    </g>
                </g>
            </g>
        </g>
    </g>
</svg>