<!-- Generated by IcoMoon.io -->
<svg version="1.1" xmlns="http://www.w3.org/2000/svg" width="32" height="32" viewBox="0 0 32 32">
<title>dashboard</title>
<path d="M18 21.5c0 1.1-0.9 2-2 2s-2-0.9-2-2c0-0.72 0.42-1.34 1-1.7v-8.8c0-0.56 0.44-1 1-1s1 0.44 1 1v8.8c0.58 0.36 1 0.98 1 1.7zM16 0c-8.82 0-16 7.18-16 16 0 4.8 2.12 9.3 5.84 12.36 0.18 0.16 0.42 0.22 0.64 0.22 0.28 0 0.58-0.12 0.78-0.36 0.36-0.42 0.28-1.060-0.14-1.4-3.26-2.68-5.12-6.62-5.12-10.82 0-7.72 6.28-14 14-14s14 6.28 14 14c0 4.080-1.76 7.94-4.86 10.6-0.42 0.36-0.46 1-0.1 1.42s1 0.46 1.42 0.1c3.52-3.040 5.54-7.46 5.54-12.12 0-8.82-7.18-16-16-16zM25.8 12c0.16 0 0.32-0.040 0.46-0.12 0.5-0.26 0.68-0.86 0.44-1.34-2.080-4.040-6.18-6.54-10.7-6.54-4.26 0-8.26 2.3-10.4 6-0.28 0.48-0.1 1.080 0.38 1.36s1.080 0.12 1.36-0.36c1.78-3.080 5.1-5 8.66-5 3.78 0 7.18 2.080 8.9 5.44 0.18 0.36 0.54 0.56 0.9 0.56z"></path>
</svg>
