<!-- Generated by IcoMoon.io -->
<svg version="1.1" xmlns="http://www.w3.org/2000/svg" width="32" height="32" viewBox="0 0 32 32">
<title>dashboard-shape</title>
<path d="M16 2c-0.002 0-0.005 0-0.007 0-8.837 0-16 7.163-16 16 0 4.933 2.232 9.344 5.742 12.279l0.025 0.021h0.26c0.054 0.010 0.116 0.016 0.18 0.016s0.126-0.006 0.186-0.017l19.834 0.001 0.18-0.1h0.12c3.355-3.013 5.461-7.359 5.48-12.197 0-8.84-7.163-16.003-16-16.003zM16 25.5c-1.105 0-2-0.895-2-2 0.012-0.724 0.407-1.353 0.991-1.695l0.009-8.805c0-0.552 0.448-1 1-1s1 0.448 1 1v8.8c0.593 0.347 0.988 0.976 1 1.698 0 1.106-0.895 2.002-2 2.002zM26.26 13.88c-0.133 0.074-0.291 0.118-0.459 0.12-0.004 0-0.008 0-0.013 0-0.384 0-0.718-0.217-0.885-0.535-1.695-3.267-5.046-5.456-8.908-5.456-3.678 0-6.892 1.986-8.629 4.944-0.202 0.35-0.525 0.55-0.896 0.55-0.554 0-1.003-0.449-1.003-1.003 0-0.184 0.050-0.357 0.136-0.505 2.111-3.608 5.972-5.997 10.391-5.997 4.635 0 8.656 2.628 10.655 6.475 0.101 0.199 0.142 0.357 0.142 0.524 0 0.38-0.212 0.711-0.525 0.88z"></path>
</svg>
