<!-- Generated by IcoMoon.io -->
<svg version="1.1" xmlns="http://www.w3.org/2000/svg" width="32" height="32" viewBox="0 0 32 32">
<title>dashboard-2-shape</title>
<path d="M16 5c-8.836 0-16 7.164-16 16 0 2.117 0.411 4.138 1.158 5.987l-0.038-0.107c0.044 0.092 0.097 0.171 0.161 0.241l-0.001-0.001h0.14l0.18 0.12c0.048 0.008 0.103 0.013 0.16 0.013s0.112-0.005 0.166-0.014l28.074 0.001c0.187-0.007 0.359-0.066 0.504-0.162l-0.004 0.002c0.149-0.105 0.266-0.248 0.338-0.414l0.002-0.006c0.655-1.681 1.035-3.626 1.035-5.66 0-8.793-7.092-15.929-15.868-15.999zM21.88 13.72l-4.2 7.78c0.189 0.289 0.307 0.639 0.32 1.017 0 1.108-0.895 2.003-2 2.003s-2-0.895-2-2c0-1.105 0.895-2 2-2l4.18-7.74c0.174-0.314 0.502-0.522 0.88-0.522 0.554 0 1.002 0.449 1.002 1.002 0 0.176-0.045 0.341-0.125 0.485z"></path>
</svg>
