<!-- Generated by IcoMoon.io -->
<svg version="1.1" xmlns="http://www.w3.org/2000/svg" width="32" height="32" viewBox="0 0 32 32">
<title>dashboard-2</title>
<path d="M21.88 11.48l-4.2 7.76c0.18 0.3 0.32 0.64 0.32 1 0 1.1-0.9 2-2 2s-2-0.9-2-2c0-1.080 0.86-1.96 1.94-1.98l4.18-7.74c0.26-0.48 0.88-0.66 1.36-0.4s0.66 0.86 0.4 1.36zM16 2.74c-8.82 0-16 7.18-16 16 0 2.020 0.38 4 1.12 5.86 0.2 0.52 0.78 0.76 1.3 0.56s0.76-0.78 0.56-1.3c-0.66-1.6-0.98-3.34-0.98-5.1 0-7.72 6.28-14 14-14s14 6.28 14 14c0 1.78-0.32 3.5-0.98 5.14-0.2 0.52 0.040 1.1 0.56 1.3 0.12 0.040 0.24 0.080 0.36 0.080 0.4 0 0.78-0.24 0.92-0.64 0.76-1.9 1.14-3.86 1.14-5.88 0-8.84-7.18-16.020-16-16.020z"></path>
</svg>
