<!-- Generated by IcoMoon.io -->
<svg version="1.1" xmlns="http://www.w3.org/2000/svg" width="28" height="32" viewBox="0 0 28 32">
<title>data2-shape</title>
<path d="M0 15.24v4.76c0 1.62 5.46 4 14 4s14-2.34 14-4v-4.76c-3.020 1.9-8.52 2.88-14 2.88s-10.98-0.98-14-2.88z"></path>
<path d="M0 7.32v4.56c0 1.62 5.46 4 14 4s14-2.34 14-4v-4.56c-3.020 1.9-8.52 2.88-14 2.88s-10.98-0.98-14-2.88z"></path>
<path d="M14 8c8.54 0 14-2.34 14-4s-5.46-4-14-4-14 2.34-14 4 5.46 4 14 4z"></path>
<path d="M0 23.3v4.7c0 1.62 5.46 4 14 4s14-2.34 14-4v-4.7c-3.020 1.9-8.52 2.88-14 2.88s-10.98-0.98-14-2.88z"></path>
</svg>
