<!-- Generated by IcoMoon.io -->
<svg version="1.1" xmlns="http://www.w3.org/2000/svg" width="32" height="32" viewBox="0 0 32 32">
<title>data</title>
<path d="M32.080 12.351c0-1.383-1.163-2.546-3.348-3.489 2.005-0.882 3.348-2.005 3.348-3.469 0-7.178-32.080-7.178-32.080 0 0 1.424 1.303 2.546 3.348 3.469-2.185 0.922-3.348 2.105-3.348 3.489s1.363 2.627 3.489 3.609c-2.286 0.842-3.489 2.005-3.489 3.449s1.383 2.566 3.549 3.549c-2.326 1.023-3.549 2.145-3.549 3.569 0 3.589 8.020 5.474 16.040 5.474s16.040-1.885 16.040-5.474c0-1.424-1.223-2.627-3.549-3.569 2.165-0.982 3.549-2.065 3.549-3.549s-1.203-2.607-3.489-3.449c2.125-0.982 3.489-2.145 3.489-3.609zM2.005 5.393c0-1.183 4.952-3.469 14.035-3.469s14.035 2.286 14.035 3.469c0 0.682-1.664 1.724-4.832 2.506-2.796 0.607-6.008 0.954-9.301 0.954-3.223 0-6.368-0.333-9.403-0.966-2.87-0.77-4.534-1.813-4.534-2.494zM30.075 26.526c0 1.183-4.952 3.469-14.035 3.469s-14.035-2.286-14.035-3.469c0-0.521 1.223-1.604 4.591-2.446 2.716 0.613 5.834 0.964 9.035 0.964 0.144 0 0.287-0.001 0.43-0.002 0.099 0.001 0.242 0.002 0.385 0.002 3.201 0 6.321-0.351 9.322-1.017 3.084 0.895 4.307 1.958 4.307 2.499zM30.075 19.409c0 1.183-4.952 3.469-14.035 3.469s-14.035-2.286-14.035-3.469c0-0.521 1.223-1.604 4.591-2.446 2.836 0.602 6.095 0.947 9.434 0.947s6.598-0.345 9.742-1c3.080 0.896 4.303 1.979 4.303 2.5zM16.040 15.82c-9.083 0-14.035-2.286-14.035-3.469 0-0.521 1.223-1.604 4.591-2.446h0.341c2.736 0.611 5.878 0.961 9.102 0.962 0.046 0 0.099 0 0.153 0 3.162 0 6.246-0.336 9.218-0.974l0.074 0.052c3.368 0.802 4.591 1.865 4.591 2.406 0 1.163-4.952 3.469-14.035 3.469z"></path>
</svg>
