<!-- Generated by IcoMoon.io -->
<svg version="1.1" xmlns="http://www.w3.org/2000/svg" width="28" height="32" viewBox="0 0 28 32">
<title>data2</title>
<path d="M27.81 4.271c-2.607-5.694-24.942-5.694-27.549 0-0.161 0.173-0.259 0.406-0.261 0.661v22.055c0.001 0.256 0.1 0.488 0.261 0.662 1.303 2.867 7.558 4.35 13.774 4.35s12.471-1.484 13.774-4.351c0.16-0.173 0.259-0.406 0.261-0.661v-22.055c-0.001-0.256-0.1-0.488-0.261-0.662zM26.065 19.409c0 1.424-4.692 3.469-12.030 3.469s-12.030-2.005-12.030-3.469v-4.11c3.18 1.609 6.933 2.552 10.906 2.552 0.395 0 0.788-0.009 1.179-0.028 0.28 0.018 0.673 0.028 1.068 0.028 3.973 0 7.726-0.943 11.047-2.616zM26.065 12.351c0 1.424-4.692 3.469-12.030 3.469s-12.030-2.065-12.030-3.469v-4.010c3.18 1.609 6.933 2.552 10.906 2.552 0.395 0 0.788-0.009 1.179-0.028 0.28 0.018 0.673 0.028 1.068 0.028 3.973 0 7.726-0.943 11.047-2.616zM14.035 1.925c7.338 0 12.030 2.005 12.030 3.469s-4.692 3.469-12.030 3.469-12.030-2.005-12.030-3.469 4.692-3.469 12.030-3.469zM14.035 29.995c-7.338 0-12.030-2.005-12.030-3.469v-4.17c3.182 1.609 6.936 2.552 10.911 2.552 0.394 0 0.785-0.009 1.174-0.028 0.279 0.018 0.671 0.028 1.064 0.028 3.975 0 7.729-0.943 11.052-2.616l-0.141 4.235c0 1.464-4.692 3.469-12.030 3.469z"></path>
</svg>
