<!-- Generated by IcoMoon.io -->
<svg version="1.1" xmlns="http://www.w3.org/2000/svg" width="28" height="32" viewBox="0 0 28 32">
<title>data-shape</title>
<path d="M4.82 6.8c2.755 0.675 5.917 1.062 9.17 1.062s6.415-0.387 9.444-1.118c2.906-0.744 4.566-2.024 4.566-2.744 0-1.34-4.94-4-14-4s-14 2.62-14 4c0 0.72 1.66 2 4.82 2.8z"></path>
<path d="M23.42 25.26c-2.713 0.7-5.828 1.102-9.036 1.102-0.135 0-0.27-0.001-0.404-0.002-0.094 0.001-0.23 0.002-0.366 0.002-3.208 0-6.322-0.402-9.294-1.158-3.1 1.016-4.32 2.236-4.32 2.796 0 1.34 4.94 4 14 4s14-2.6 14-4c0-0.56-1.22-1.78-4.58-2.74z"></path>
<path d="M23.42 17.14c-2.827 0.686-6.073 1.079-9.41 1.079s-6.583-0.393-9.693-1.136c-3.097 1.017-4.317 2.257-4.317 2.917 0 1.34 4.94 4 14 4s14-2.6 14-4c0-0.66-1.22-1.9-4.58-2.86z"></path>
<path d="M23.42 9.080h-0.36c-2.719 0.694-5.841 1.095-9.057 1.1-0.084 0.001-0.179 0.001-0.274 0.001-3.118 0-6.149-0.372-9.051-1.075l-0.078 0.054c-3.38 0.84-4.6 2.12-4.6 2.72 0 1.34 4.94 4 14 4s14-2.62 14-4c0-0.6-1.22-1.88-4.58-2.8z"></path>
</svg>
