<!-- Generated by IcoMoon.io -->
<svg version="1.1" xmlns="http://www.w3.org/2000/svg" width="32" height="32" viewBox="0 0 32 32">
<title>demand</title>
<path d="M20 10h1v1h-1v-1z"></path>
<path d="M22 10h1v1h-1v-1z"></path>
<path d="M24 10h1v1h-1v-1z"></path>
<path d="M7 15h5v2h-5v-2z"></path>
<path d="M7 9h7v2h-7v-2z"></path>
<path d="M7 21h9v2h-9v-2z"></path>
<path d="M29 14v-7h-7.031v-4h-18.969v26h26v-12h-7v-3h7zM27 12h-9v-3h9v3zM27 19v8h-5v-8h5zM20 27h-15v-22h14.969v2h-3.969v9l2-2h2v13z"></path>
</svg>
