<!-- Generated by IcoMoon.io -->
<svg version="1.1" xmlns="http://www.w3.org/2000/svg" width="32" height="32" viewBox="0 0 32 32">
<title>dialogue-empty</title>
<path d="M26 19.2v-14.4c-0.054-1.559-1.331-2.802-2.898-2.802-0.036 0-0.071 0.001-0.107 0.002l-19.995-0c-0.030-0.001-0.066-0.002-0.102-0.002-1.567 0-2.844 1.243-2.898 2.797l-0 14.405c0.054 1.559 1.331 2.802 2.898 2.802 0.036 0 0.071-0.001 0.107-0.002l0.995 0v3c0.002 0.413 0.255 0.767 0.613 0.918 0.064 0.014 0.129 0.021 0.197 0.021s0.133-0.007 0.196-0.019c0.268-0.003 0.515-0.117 0.693-0.299l3.72-3.62h13.58c0.030 0.001 0.066 0.002 0.102 0.002 1.567 0 2.844-1.243 2.898-2.797zM9 20c-0.274 0.004-0.522 0.118-0.7 0.3l-2.3 2.28v-1.58c0-0.552-0.448-1-1-1h-2c-0.021 0.002-0.045 0.003-0.070 0.003-0.471 0-0.861-0.346-0.929-0.797l-0.001-14.405c0.059-0.456 0.445-0.804 0.913-0.804 0.031 0 0.061 0.002 0.091 0.004l19.996-0c0.026-0.003 0.057-0.004 0.087-0.004 0.467 0 0.853 0.348 0.912 0.8l0 14.405c-0.059 0.456-0.445 0.804-0.913 0.804-0.031 0-0.061-0.002-0.091-0.004z"></path>
<path d="M29 6c-0.552 0-1 0.448-1 1s0.448 1 1 1c0.026-0.003 0.057-0.004 0.087-0.004 0.467 0 0.853 0.348 0.912 0.799l0 14.405c-0.059 0.456-0.445 0.804-0.913 0.804-0.031 0-0.061-0.002-0.091-0.004l-1.996 0c-0.552 0-1 0.448-1 1v1.58l-2.3-2.3c-0.18-0.173-0.424-0.28-0.694-0.28-0.002 0-0.004 0-0.006 0h-10c-0.552 0-1 0.448-1 1s0.448 1 1 1h9.58l3.7 3.7c0.182 0.189 0.437 0.306 0.72 0.306 0.552 0 1-0.448 1-1 0-0.002 0-0.004-0-0.006v-3h1c0.030 0.001 0.066 0.002 0.102 0.002 1.567 0 2.844-1.243 2.898-2.797l0-14.405c-0.054-1.559-1.331-2.802-2.898-2.802-0.036 0-0.071 0.001-0.107 0.002z"></path>
</svg>
