<!-- Generated by IcoMoon.io -->
<svg version="1.1" xmlns="http://www.w3.org/2000/svg" width="32" height="32" viewBox="0 0 32 32">
<title>dialogue</title>
<path d="M26 19.2v-14.4c-0.054-1.559-1.331-2.802-2.898-2.802-0.036 0-0.071 0.001-0.107 0.002l-19.995-0c-0.030-0.001-0.066-0.002-0.102-0.002-1.567 0-2.844 1.243-2.898 2.797l-0 14.405c0.054 1.559 1.331 2.802 2.898 2.802 0.036 0 0.071-0.001 0.107-0.002l0.995 0v3c0.002 0.413 0.255 0.767 0.613 0.918 0.064 0.014 0.129 0.021 0.197 0.021s0.133-0.007 0.196-0.019c0.268-0.003 0.515-0.117 0.693-0.299l3.72-3.62h13.58c0.030 0.001 0.066 0.002 0.102 0.002 1.567 0 2.844-1.243 2.898-2.797zM9 20c-0.274 0.004-0.522 0.118-0.7 0.3l-2.3 2.28v-1.58c0-0.552-0.448-1-1-1h-2c-0.021 0.002-0.045 0.003-0.070 0.003-0.471 0-0.861-0.346-0.929-0.797l-0.001-14.405c0.059-0.456 0.445-0.804 0.913-0.804 0.031 0 0.061 0.002 0.091 0.004l19.996-0c0.026-0.003 0.057-0.004 0.087-0.004 0.467 0 0.853 0.348 0.912 0.8l0 14.405c-0.059 0.456-0.445 0.804-0.913 0.804-0.031 0-0.061-0.002-0.091-0.004zM32 8.8v14.4c-0.054 1.559-1.331 2.802-2.898 2.802-0.036 0-0.071-0.001-0.107-0.002l-0.995 0v3c-0.008 0.546-0.453 0.986-1 0.986-0.273 0-0.52-0.109-0.7-0.286l-3.72-3.7h-9.58c-0.552 0-1-0.448-1-1s0.448-1 1-1h10c0.274 0.004 0.522 0.118 0.7 0.3l2.3 2.28v-1.58c0-0.552 0.448-1 1-1h2c0.026 0.003 0.057 0.004 0.087 0.004 0.467 0 0.853-0.348 0.912-0.799l0-14.405c-0.059-0.456-0.445-0.804-0.913-0.804-0.031 0-0.061 0.002-0.091 0.004-0.549-0-0.996-0.448-0.996-1s0.448-1 1-1c0.030-0.001 0.066-0.002 0.102-0.002 1.567 0 2.844 1.243 2.898 2.797zM9 12c0 1.105-0.895 2-2 2s-2-0.895-2-2c0-1.105 0.895-2 2-2s2 0.895 2 2zM15 12c0 1.105-0.895 2-2 2s-2-0.895-2-2c0-1.105 0.895-2 2-2s2 0.895 2 2zM21 12c0 1.105-0.895 2-2 2s-2-0.895-2-2c0-1.105 0.895-2 2-2s2 0.895 2 2z"></path>
</svg>
