<!-- Generated by IcoMoon.io -->
<svg version="1.1" xmlns="http://www.w3.org/2000/svg" width="32" height="32" viewBox="0 0 32 32">
<title>diedai</title>
<path d="M27 5v22h-22v-22h22zM28 3h-24c-0.55 0-1 0.45-1 1v24c0 0.55 0.45 1 1 1h24c0.55 0 1-0.45 1-1v-24c0-0.55-0.45-1-1-1v0z"></path>
<path d="M22 10h-12c-0.55 0-1 0.45-1 1v2h2v-1h10v3h-1.95l2.95 2.95 2.95-2.95h-1.95v-4c0-0.55-0.45-1-1-1v0z"></path>
<path d="M10 14.050l-2.95 2.95h1.95v4c0 0.55 0.45 1 1 1h12c0.55 0 1-0.45 1-1v-2h-2v1h-10v-3h1.95l-2.95-2.95z"></path>
</svg>
