<!-- Generated by IcoMoon.io -->
<svg version="1.1" xmlns="http://www.w3.org/2000/svg" width="32" height="32" viewBox="0 0 32 32">
<title>displayable</title>
<path d="M16 0c-8.8 0-16 7.2-16 16s7.2 16 16 16 16-7.2 16-16-7.2-16-16-16zM2 16c0-7.8 6.2-14 14-14 3.6 0 6.6 1.4 9.2 3.4l-7.4 7.2-3.6-2.8c-0.6-0.6-1.6 0-1.6 0.8v7.4l-7.2 7.2c-2-2.6-3.4-5.6-3.4-9.2zM16 30c-3.6 0-6.6-1.4-9.2-3.4l5.6-5.6v0.6c0 0.8 1 1.4 1.6 0.8l7-5.4c0.6-0.4 0.6-1.2 0-1.6l-1.6-1.4 7.2-7.2c2 2.6 3.4 5.6 3.4 9.2 0 7.8-6.2 14-14 14z"></path>
</svg>
