<!-- Generated by IcoMoon.io -->
<svg version="1.1" xmlns="http://www.w3.org/2000/svg" width="32" height="32" viewBox="0 0 32 32">
<title>dispirited</title>
<path d="M8 11c0-0.82 0.68-1.5 1.5-1.5s1.5 0.68 1.5 1.5c0 0.82-0.68 1.5-1.5 1.5s-1.5-0.68-1.5-1.5zM32 16c0 8.82-7.18 16-16 16s-16-7.18-16-16 7.18-16 16-16 16 7.18 16 16zM30 16c0-7.72-6.28-14-14-14s-14 6.28-14 14c0 7.72 6.28 14 14 14s14-6.28 14-14zM22.5 9.5c-0.82 0-1.5 0.68-1.5 1.5s0.68 1.5 1.5 1.5 1.5-0.68 1.5-1.5c0-0.82-0.68-1.5-1.5-1.5zM16 16c-3.9 0-7.34 2.94-7.98 6.84-0.1 0.54 0.28 1.060 0.82 1.16 0.060 0 0.1 0 0.16 0 0.48 0 0.9-0.34 0.98-0.84 0.48-2.9 3.12-5.16 6.020-5.16 3 0 5.58 2.22 6.020 5.14 0.080 0.54 0.6 0.92 1.14 0.84s0.92-0.58 0.84-1.14c-0.6-3.9-4.020-6.84-8-6.84z"></path>
</svg>
