<!-- Generated by IcoMoon.io -->
<svg version="1.1" xmlns="http://www.w3.org/2000/svg" width="32" height="32" viewBox="0 0 32 32">
<title>dispirited-shape</title>
<path d="M16 0c-8.837 0-16 7.163-16 16s7.163 16 16 16c8.837 0 16-7.163 16-16s-7.163-16-16-16zM9.5 9.5c0.828 0 1.5 0.672 1.5 1.5s-0.672 1.5-1.5 1.5c-0.828 0-1.5-0.672-1.5-1.5s0.672-1.5 1.5-1.5zM23.14 24c-0.045 0.007-0.098 0.011-0.151 0.011-0.5 0-0.914-0.367-0.988-0.846-0.427-2.938-2.924-5.166-5.942-5.166-0.021 0-0.041 0-0.062 0-2.998 0.081-5.466 2.261-5.991 5.122-0.086 0.518-0.497 0.878-0.993 0.878-0.005 0-0.009-0-0.014-0h-0.159c-0.486-0.073-0.855-0.488-0.855-0.989 0-0.060 0.005-0.119 0.016-0.177 0.669-3.871 3.987-6.79 7.994-6.834 4.039 0.002 7.383 2.953 7.999 6.814 0.013 0.091 0.017 0.142 0.017 0.195 0 0.507-0.377 0.926-0.866 0.991zM22.5 12.52c-0.828-0-1.5-0.672-1.5-1.5s0.672-1.5 1.5-1.5c0.821 0 1.489 0.66 1.5 1.479 0 0.829-0.672 1.501-1.5 1.501z"></path>
</svg>
