<!-- Generated by IcoMoon.io -->
<svg version="1.1" xmlns="http://www.w3.org/2000/svg" width="32" height="32" viewBox="0 0 32 32">
<title>docker</title>
<path d="M31.466 12.841c-1.224-0.831-2.657-0.849-3.605-0.731-0.469-1.971-2.256-3.086-2.344-3.14l-0.675-0.413-0.482 0.628c-1.524 1.984-1.121 4.144-0.477 5.474-0.803 0.425-1.604 0.44-1.61 0.44h-0.541v-3.273h-3.69v-6.383h-4.459v3.192h-7.307v3.191h-3.654v3.273h-2.383l-0.113 0.748c-0.026 0.169-0.598 4.181 2.073 7.288 1.953 2.272 5.075 3.424 9.279 3.424 6.494 0 10.484-2.86 12.687-5.26 1.719-1.872 2.637-3.74 3.029-4.681 4.068-0.068 4.62-2.767 4.643-2.887l0.106-0.566-0.476-0.324zM14.863 11.812v-1.899h1.899v1.899h-1.899zM7.556 15.004v-1.899h1.899v1.899h-1.899zM11.21 15.004v-1.899h1.899v1.899h-1.899zM14.863 15.004v-1.899h1.899v1.899h-1.899zM18.553 13.105h1.898v1.899h-1.898v-1.899zM14.863 6.722h1.899v1.899h-1.899v-1.899zM11.21 9.914h1.899v1.899h-1.899v-1.899zM7.556 9.914h1.899v1.899h-1.899v-1.899zM3.903 13.105h1.899v1.899h-1.899v-1.899zM11.478 24.798c-1.996 0-3.697-0.28-5.092-0.836 1.035-0.217 2.214-0.623 3.275-1.369 0.397-0.28 0.493-0.828 0.213-1.226s-0.828-0.493-1.226-0.213c-1.725 1.213-3.954 1.298-4.682 1.29-0.148-0.141-0.288-0.289-0.421-0.443-1.533-1.773-1.736-4.001-1.724-5.142h20.452c0.077 0 1.911-0.015 3.363-1.28l0.11-0.096c-0.168 0.492-3.345 9.316-14.268 9.316zM26.633 14.849l-0.544-0.026-0.327-0.437c-0.014-0.018-1.172-1.598-0.47-3.33 0.449 0.466 0.946 1.187 0.92 2.080l-0.036 1.247 1.187-0.384c0.015-0.005 1.261-0.385 2.409-0.035-0.407 0.442-1.288 0.973-3.139 0.885z"></path>
<path d="M11.852 18.424c-0.792 0-1.436 0.644-1.436 1.437s0.644 1.436 1.436 1.436c0.792 0 1.436-0.644 1.436-1.436s-0.644-1.437-1.436-1.437zM11.852 20.184c-0.178 0-0.324-0.145-0.324-0.323s0.145-0.324 0.324-0.324 0.324 0.145 0.324 0.324c0 0.178-0.145 0.323-0.324 0.323z"></path>
</svg>
