<!-- Generated by IcoMoon.io -->
<svg version="1.1" xmlns="http://www.w3.org/2000/svg" width="32" height="32" viewBox="0 0 32 32">
<title>download</title>
<path d="M31 19c-0.552 0-1 0.448-1 1v8c0 0.552-0.448 1-1 1h-26c-0.552 0-1-0.448-1-1v-8c0-0.552-0.448-1-1-1s-1 0.448-1 1v8c0 1.657 1.343 3 3 3h26c1.657 0 3-1.343 3-3v-8c0-0.552-0.448-1-1-1z"></path>
<path d="M15.38 24.78v0c0.155 0.123 0.354 0.198 0.57 0.198s0.415-0.075 0.572-0.199l-0.002 0.001 5-4c0.271-0.182 0.446-0.487 0.446-0.833 0-0.552-0.448-1-1-1-0.266 0-0.508 0.104-0.687 0.273l-3.28 2.7v-19.92c0-0.552-0.448-1-1-1s-1 0.448-1 1v20l-3.38-2.78c-0.156-0.105-0.347-0.167-0.554-0.167-0.552 0-1 0.448-1 1 0 0.286 0.12 0.544 0.313 0.727z"></path>
</svg>
