<svg width="1176" height="393" viewBox="0 0 1176 393" fill="none" xmlns="http://www.w3.org/2000/svg">
<path d="M1098.69 102.921H1160.69L1009.57 384.819H934.009L901.073 102.921H963.071L986.319 318.719L1098.69 102.921Z" fill="white"/>
<path fill-rule="evenodd" clip-rule="evenodd" d="M891.047 95.1211H970.302L991.463 289.992L1093.74 95.1211H1175.17L1014.43 392.618H926.08L891.047 95.1211ZM909.998 111.943L941.07 375.796H1004.37L1146.93 111.943H1103.94L980.678 346.795L955.176 111.943H909.998Z" fill="white"/>
<path d="M799.109 99.5771C826.317 99.5771 846.398 104.105 859.355 113.16C872.311 120.922 878.789 135.151 878.789 155.849C878.789 163.611 878.141 170.726 876.845 177.194L871.015 216.002C867.128 237.993 860.002 253.517 849.637 262.572C840.568 271.627 825.669 276.155 804.939 276.155H696.108L692.221 291.678C690.926 300.733 690.278 307.848 690.278 313.023C690.278 322.078 692.869 327.899 698.052 330.486C703.234 333.073 713.599 334.367 729.146 334.367H828.26L808.826 384.818H715.542C684.448 384.818 661.775 380.937 647.523 373.175C634.567 364.12 628.089 349.244 628.089 328.546C628.089 319.491 629.384 307.848 631.976 293.618L651.41 183.015C655.297 164.904 659.183 151.321 663.07 142.266C668.253 133.211 674.083 126.096 680.561 120.922C688.335 113.16 698.699 107.986 711.655 105.398C725.907 101.518 744.046 99.5771 766.071 99.5771H799.109ZM816.6 177.194V165.551C816.6 160.377 815.304 156.496 812.713 153.909C810.121 151.321 801.7 150.028 787.448 150.028H752.467C736.92 150.028 726.555 153.262 721.372 159.73C717.486 164.904 714.247 172.666 711.655 183.015L703.882 227.644H789.392C794.574 227.644 799.109 226.998 802.996 225.704C806.882 223.117 809.474 217.942 810.769 210.181L816.6 177.194Z" fill="white"/>
<path fill-rule="evenodd" clip-rule="evenodd" d="M766.622 107.519C745.027 107.519 727.709 109.43 714.444 113.042L714.165 113.118L713.881 113.174C702.224 115.502 693.475 120.028 687.101 126.392L686.771 126.721L686.407 127.013C681.037 131.302 675.937 137.382 671.221 145.528C667.73 153.806 664.055 166.553 660.283 184.104L640.877 294.548C638.331 308.529 637.129 319.61 637.129 327.946C637.129 346.581 642.787 358.34 652.575 365.376C664.953 371.951 685.722 375.763 716.119 375.763H803.579L816.511 342.192H729.716C721.749 342.192 714.898 341.863 709.25 341.158C703.757 340.472 698.749 339.359 694.879 337.427C685.428 332.709 682.448 322.705 682.448 312.431C682.448 306.668 683.16 299.098 684.476 289.902L684.537 289.471L690.125 267.154H805.471C825.281 267.154 837.452 262.777 844.201 256.039L844.4 255.841L844.611 255.656C852.85 248.458 859.458 235.215 863.205 214.097L869.046 175.214L869.086 175.013C870.255 169.179 870.864 162.632 870.864 155.336C870.864 136.386 865.046 125.596 855.536 119.899L855.282 119.747L855.039 119.577C844.199 112.001 826.222 107.519 799.644 107.519H766.622ZM710.302 96.7027C725.479 92.6084 744.325 90.6641 766.622 90.6641H799.644C827.306 90.6641 849.384 95.1843 864.439 105.591C880.646 115.439 887.703 133.027 887.703 155.336C887.703 163.475 887.031 171.082 885.637 178.12L879.807 216.927C875.804 239.58 868.235 257.264 855.892 268.171C844.506 279.389 826.974 284.009 805.471 284.009H703.264L701.083 292.72C699.851 301.411 699.287 307.924 699.287 312.431C699.287 320.258 701.487 321.891 702.395 322.344C703.705 322.999 706.467 323.825 711.333 324.432C716.045 325.021 722.144 325.337 729.716 325.337H841.05L815.133 392.618H716.119C684.702 392.618 660.273 388.759 644.11 379.956L643.698 379.732L643.314 379.464C627.435 368.366 620.29 350.448 620.29 327.946C620.29 318.187 621.676 306.004 624.307 291.551C624.308 291.543 624.305 291.56 624.307 291.551L643.781 180.717C647.7 162.46 651.725 148.246 655.938 138.433L656.128 137.989L656.368 137.57C661.854 127.984 668.207 120.079 675.542 114.13C684.602 105.228 696.356 99.5325 710.302 96.7027ZM715.378 153.942C723.113 144.289 737.007 141.09 753.025 141.09H787.989C795.296 141.09 801.445 141.417 806.263 142.157C808.671 142.527 810.964 143.032 813.002 143.75C814.934 144.431 817.276 145.521 819.187 147.43C823.917 152.153 825.545 158.557 825.545 165.033V177.409L819.596 211.07C818.163 219.616 814.982 227.653 808.191 232.173L807.253 232.797L806.185 233.153C801.251 234.795 795.786 235.523 789.932 235.523H694.45L703.993 180.737L704.067 180.439C706.776 169.621 710.358 160.618 715.217 154.15L715.378 153.942ZM728.589 164.395C725.737 168.244 722.905 174.635 720.475 184.243L714.479 218.668H789.932C793.753 218.668 796.922 218.261 799.527 217.562C800.573 216.44 802.057 213.867 802.994 208.251L803.008 208.172L808.706 175.93V165.033C808.706 161.878 808.066 160.396 807.587 159.713C807.535 159.693 807.476 159.672 807.41 159.648C806.696 159.396 805.508 159.093 803.708 158.817C800.109 158.264 794.927 157.945 787.989 157.945H753.025C738.106 157.945 731.268 161.149 728.589 164.395Z" fill="white"/>
<path d="M475.111 8.21191C522.924 8.21191 556.522 15.3299 575.905 29.5659C596.581 43.8019 606.919 68.3913 606.919 103.334C606.919 122.747 604.334 144.101 599.165 167.396L589.474 231.458C584.305 263.813 577.198 290.343 568.152 311.05C560.398 330.463 550.707 345.993 539.077 357.641C527.447 367.994 513.232 375.112 496.433 378.995C479.634 382.877 458.312 384.819 432.467 384.819H279.338L345.242 8.21191H475.111ZM533.262 167.396C538.431 145.395 541.015 127.277 541.015 113.041C541.015 102.687 539.077 94.275 535.2 87.8041C532.615 80.039 526.8 74.2152 517.755 70.3326C508.709 66.4501 491.264 64.5088 465.419 64.5088H401.454L356.872 330.463H418.899C443.451 330.463 461.543 328.522 473.173 324.639C486.095 319.463 495.787 311.05 502.248 299.403C510.001 286.461 517.109 263.813 523.57 231.458L533.262 167.396Z" fill="white"/>
<path fill-rule="evenodd" clip-rule="evenodd" d="M338.274 0.412109H475.409C523.525 0.412109 559.501 7.42727 581.223 23.2435C604.965 39.5726 615.834 67.2555 615.834 103.635C615.834 123.641 613.17 145.455 607.931 169.036L598.267 232.608L598.256 232.677C593.022 265.284 585.77 292.44 576.353 313.934C568.28 334.012 558.03 350.499 545.415 363.073L545.24 363.247L545.055 363.411C532.243 374.763 516.695 382.448 498.651 386.599C480.982 390.663 458.937 392.618 432.699 392.618H269.312L338.274 0.412109ZM352.404 17.2283L289.355 375.802H432.699C458.23 375.802 478.895 373.887 494.876 370.211C510.39 366.643 523.255 360.193 533.705 350.992C544.286 340.388 553.373 326.014 560.783 307.551L560.883 307.301C569.556 287.542 576.525 261.863 581.634 230.048C581.636 230.036 581.637 230.025 581.639 230.013L591.379 165.943L591.441 165.662C596.513 142.911 599.005 122.249 599.005 103.635C599.005 70.4086 589.199 49.0996 571.599 37.0393L571.388 36.8946C554.272 24.3839 522.989 17.2283 475.409 17.2283H352.404ZM394.521 56.5271H465.702C478.824 56.5271 489.996 57.0161 499.146 58.0295C508.167 59.0285 515.765 60.5906 521.426 63.0089C531.895 67.481 539.619 74.5906 543.264 84.6104C547.845 92.6221 549.829 102.369 549.829 113.31C549.829 128.339 547.116 146.994 541.917 169.088L532.202 233C525.73 265.253 518.411 289.03 509.871 303.283C502.411 316.604 491.188 326.213 476.586 332.034L476.356 332.126L476.122 332.204C463.133 336.519 443.886 338.438 419.11 338.438H347.038L394.521 56.5271ZM408.754 73.3432L366.936 321.622H419.11C443.331 321.622 460.25 319.7 470.579 316.323C481.699 311.837 489.791 304.748 495.236 294.979L495.373 294.734C502.318 283.196 509.212 261.933 515.653 229.886L525.381 165.891L525.459 165.56C530.563 143.939 533 126.586 533 113.31C533 103.973 531.234 97.2316 528.38 92.489L527.903 91.6968L527.609 90.82C525.939 85.8247 522.157 81.6094 514.81 78.4714C511.412 77.0197 505.744 75.6792 497.292 74.7433C488.971 73.8217 478.464 73.3432 465.702 73.3432H408.754Z" fill="white"/>
<path d="M179.603 99.5771C206.811 99.5771 226.893 104.105 239.849 113.16C252.805 120.922 259.283 135.151 259.283 155.849C259.283 163.611 258.635 170.726 257.339 177.194L251.509 216.002C247.622 237.993 240.496 253.517 230.132 262.572C221.062 271.627 206.163 276.155 185.433 276.155H76.6023L72.7155 291.678C71.4199 300.733 70.7721 307.848 70.7721 313.023C70.7721 322.078 73.3633 327.899 78.5457 330.486C83.7281 333.073 94.093 334.367 109.64 334.367H208.754L189.32 384.818H96.0364C64.9419 384.818 42.2688 380.937 28.0171 373.175C15.061 364.12 8.58301 349.244 8.58301 328.546C8.58301 319.491 9.87861 307.848 12.4698 293.618L31.9039 183.015C35.7907 164.904 39.6775 151.321 43.5644 142.266C48.7468 133.211 54.577 126.096 61.055 120.922C68.8287 113.16 79.1935 107.986 92.1496 105.398C106.401 101.518 124.54 99.5771 146.565 99.5771H179.603ZM197.094 177.194V165.551C197.094 160.377 195.798 156.496 193.207 153.909C190.616 151.321 182.194 150.028 167.943 150.028H132.961C117.414 150.028 107.049 153.262 101.867 159.73C97.9798 164.904 94.7408 172.666 92.1496 183.015L84.376 227.644H169.886C175.068 227.644 179.603 226.998 183.49 225.704C187.377 223.117 189.968 217.942 191.263 210.181L197.094 177.194Z" fill="white"/>
<path fill-rule="evenodd" clip-rule="evenodd" d="M147.116 107.519C125.52 107.519 108.202 109.43 94.9375 113.042L94.6583 113.118L94.3745 113.174C82.7174 115.502 73.9679 120.028 67.5942 126.392L67.2642 126.721L66.8998 127.013C61.5302 131.302 56.4299 137.382 51.7141 145.528C48.2229 153.806 44.5486 166.553 40.7763 184.104L21.3704 294.548C18.8244 308.529 17.6218 319.61 17.6218 327.946C17.6218 346.581 23.2803 358.34 33.0685 365.376C45.4465 371.951 66.2155 375.763 96.6122 375.763H184.072L197.004 342.192H110.209C102.242 342.192 95.3913 341.863 89.7432 341.158C84.2504 340.472 79.2422 339.359 75.3726 337.427C65.9208 332.709 62.9412 322.705 62.9412 312.431C62.9412 306.668 63.653 299.098 64.9687 289.902L65.0304 289.471L70.6182 267.154H185.964C205.774 267.154 217.945 262.777 224.694 256.039L224.893 255.841L225.104 255.656C233.343 248.458 239.951 235.215 243.698 214.097L249.539 175.214L249.58 175.013C250.748 169.179 251.358 162.632 251.358 155.336C251.358 136.386 245.539 125.596 236.029 119.899L235.775 119.747L235.533 119.577C224.692 112.001 206.715 107.519 180.137 107.519H147.116ZM90.7949 96.7027C105.972 92.6084 124.819 90.6641 147.116 90.6641H180.137C207.799 90.6641 229.878 95.1843 244.932 105.591C261.14 115.439 268.196 133.027 268.196 155.336C268.196 163.475 267.524 171.082 266.131 178.12L260.301 216.927C256.297 239.58 248.728 257.264 236.386 268.171C224.999 279.389 207.467 284.009 185.964 284.009H83.7574L81.5762 292.72C80.3444 301.411 79.7798 307.924 79.7798 312.431C79.7798 320.258 81.9801 321.891 82.888 322.344C84.1982 322.999 86.9597 323.825 91.8266 324.432C96.5382 325.021 102.637 325.337 110.209 325.337H221.543L195.626 392.618H96.6122C65.1955 392.618 40.7661 388.759 24.6031 379.956L24.1912 379.732L23.8068 379.464C7.92835 368.366 0.783203 350.448 0.783203 327.946C0.783203 318.187 2.16901 306.004 4.7998 291.551C4.80138 291.543 4.79822 291.56 4.7998 291.551L24.2745 180.717C28.1927 162.46 32.2185 148.246 36.4308 138.433L36.6212 137.989L36.8609 137.57C42.3473 127.984 48.7001 120.079 56.0347 114.13C65.0951 105.228 76.8493 99.5325 90.7949 96.7027ZM95.8716 153.942C103.606 144.289 117.5 141.09 133.519 141.09H168.482C175.789 141.09 181.938 141.417 186.756 142.157C189.165 142.527 191.457 143.032 193.495 143.75C195.428 144.431 197.769 145.521 199.68 147.43C204.41 152.153 206.038 158.557 206.038 165.033V177.409L200.089 211.07C198.657 219.616 195.475 227.653 188.684 232.173L187.747 232.797L186.678 233.153C181.744 234.795 176.279 235.523 170.425 235.523H74.9434L84.4859 180.737L84.5606 180.439C87.2693 169.621 90.8512 160.618 95.7101 154.15L95.8716 153.942ZM109.082 164.395C106.23 168.244 103.398 174.635 100.968 184.243L94.9718 218.668H170.425C174.246 218.668 177.415 218.261 180.02 217.562C181.066 216.44 182.55 213.867 183.487 208.251L183.501 208.172L189.2 175.93V165.033C189.2 161.878 188.56 160.396 188.08 159.713C188.028 159.693 187.969 159.672 187.903 159.648C187.189 159.396 186.002 159.093 184.202 158.817C180.602 158.264 175.42 157.945 168.482 157.945H133.519C118.599 157.945 111.762 161.149 109.082 164.395Z" fill="white"/>
</svg>
