<!-- Generated by IcoMoon.io -->
<svg version="1.1" xmlns="http://www.w3.org/2000/svg" width="32" height="32" viewBox="0 0 32 32">
<title>edit</title>
<path d="M15 20c-0.547-0.006-0.989-0.452-0.989-1 0-0.253 0.094-0.485 0.25-0.661l15.999-17.999c0.182-0.19 0.438-0.307 0.721-0.307 0.552 0 1 0.448 1 1 0 0.238-0.083 0.457-0.223 0.629l-15.999 17.998c-0.184 0.209-0.452 0.34-0.751 0.34-0.003 0-0.006 0-0.009-0z"></path>
<path d="M27 32h-22c-2.761 0-5-2.239-5-5v-22c0-2.761 2.239-5 5-5h16c0.552 0 1 0.448 1 1s-0.448 1-1 1h-16c-1.657 0-3 1.343-3 3v22c0 1.657 1.343 3 3 3h22c1.657 0 3-1.343 3-3v-16c0-0.552 0.448-1 1-1s1 0.448 1 1v16c0 2.761-2.239 5-5 5z"></path>
</svg>
