<!-- Generated by IcoMoon.io -->
<svg version="1.1" xmlns="http://www.w3.org/2000/svg" width="32" height="32" viewBox="0 0 32 32">
<title>email</title>
<path d="M28.571 3.429h-25.143c-1.894 0-3.429 1.535-3.429 3.429v18.286c0 1.894 1.535 3.429 3.429 3.429h25.143c1.894 0 3.429-1.535 3.429-3.429v-18.286c0-1.894-1.535-3.429-3.429-3.429zM3.429 5.714h25.143c0.631 0 1.143 0.512 1.143 1.143v2.857l-13.371 8.183c-0.094 0.061-0.208 0.097-0.331 0.097s-0.238-0.036-0.334-0.098l-13.392-8.181v-2.857c0-0.631 0.512-1.143 1.143-1.143zM28.571 26.286h-25.143c-0.631 0-1.143-0.512-1.143-1.143v-12.754l12.183 7.451c0.433 0.267 0.958 0.426 1.52 0.426s1.087-0.158 1.533-0.433l12.193-7.444v12.754c0 0.631-0.512 1.143-1.143 1.143z"></path>
</svg>
