<!-- Generated by IcoMoon.io -->
<svg version="1.1" xmlns="http://www.w3.org/2000/svg" width="32" height="32" viewBox="0 0 32 32">
<title>email-shape</title>
<path d="M30.674 3.429h-29.349c-0.738 0.025-1.326 0.629-1.326 1.371 0 0.008 0 0.017 0 0.025l-0 3.496 15.611 9.966c0.109 0.076 0.243 0.121 0.389 0.121s0.28-0.045 0.391-0.122l15.609-9.964v-3.497c0-0.007 0-0.015 0-0.024 0-0.741-0.588-1.345-1.324-1.371z"></path>
<path d="M16 21.211c-0.663-0-1.279-0.196-1.796-0.533l-14.204-9.089v15.589c-0 0.007-0 0.015-0 0.024 0 0.741 0.588 1.345 1.324 1.371l29.351 0c0.738-0.025 1.326-0.629 1.326-1.371 0-0.008-0-0.017-0-0.025l0-15.587-14.217 9.143c-0.488 0.302-1.079 0.481-1.713 0.481-0.025 0-0.049-0-0.074-0.001z"></path>
</svg>
