<!-- Generated by IcoMoon.io -->
<svg version="1.1" xmlns="http://www.w3.org/2000/svg" width="32" height="32" viewBox="0 0 32 32">
<title>empty</title>
<path d="M32 17.78c0.002-0.021 0.003-0.045 0.003-0.070s-0.001-0.049-0.003-0.073l0 0.003-6-15.020c-0.153-0.365-0.507-0.618-0.92-0.62h-18c-0.045-0.007-0.097-0.011-0.15-0.011-0.42 0-0.779 0.258-0.927 0.625l-6.002 15.007c-0.003 0.030-0.005 0.065-0.005 0.1s0.002 0.070 0.006 0.104c-0.003 0.023-0.005 0.054-0.005 0.086s0.002 0.063 0.005 0.094l-0-0.004v8c0 1.657 1.343 3 3 3h26c1.657 0 3-1.343 3-3v-8c0.004-0.033 0.006-0.071 0.006-0.11s-0.002-0.077-0.007-0.115zM7.68 4h16.64l5.2 13h-9.52c-0.002-0-0.005-0-0.007-0-0.51 0-0.931 0.382-0.992 0.875-0 1.662-1.344 3.005-3.001 3.005s-3-1.343-3-3c-0.062-0.498-0.483-0.88-0.993-0.88-0.003 0-0.005 0-0.008 0h-9.52zM30 26c0 0.552-0.448 1-1 1h-26c-0.552 0-1-0.448-1-1v-7h9.24c0.656 2.036 2.534 3.484 4.75 3.484s4.094-1.448 4.74-3.449l9.27-0.035z"></path>
</svg>
