<!-- Generated by IcoMoon.io -->
<svg version="1.1" xmlns="http://www.w3.org/2000/svg" width="32" height="32" viewBox="0 0 32 32">
<title>end</title>
<path d="M16 30.060c-7.72 0-14-6.28-14-14 0-5.36 3-10.18 7.8-12.56 0.5-0.24 1.1-0.040 1.34 0.46 0.26 0.5 0.040 1.1-0.44 1.34-4.14 2.040-6.7 6.16-6.7 10.76 0 6.62 5.38 12 12 12s12-5.38 12-12c0-4.62-2.6-8.74-6.76-10.76-0.5-0.24-0.7-0.84-0.46-1.34s0.84-0.7 1.34-0.46c4.86 2.36 7.88 7.18 7.88 12.56 0 7.72-6.28 14-14 14z"></path>
<path d="M16 12c-0.56 0-1-0.44-1-1v-10c0-0.56 0.44-1 1-1s1 0.44 1 1v10c0 0.56-0.44 1-1 1z"></path>
</svg>
