<svg viewBox="0 0 1024 1024" version="1.1" xmlns="http://www.w3.org/2000/svg"><path  d="M464 425.6v-60.8H300.8v291.2h169.6v-60.8h-102.4v-60.8h89.6v-54.4h-89.6v-54.4H464zM227.2 483.2v329.6c0 12.8 9.6 22.4 22.4 22.4l0 0h553.6c12.8 0 22.4-9.6 22.4-22.4l0 0v-201.6l64-60.8V832c0 35.2-28.8 64-64 64l0 0H227.2c-35.2 0-64-28.8-64-64l0 0v-220.8H96L227.2 483.2zM758.4 368v291.2h-67.2l-115.2-188.8-3.2-3.2v195.2h-64v-291.2h73.6l112 179.2 3.2 3.2v-188.8H758.4zM825.6 128c35.2 0 64 28.8 64 64l0 0v182.4h73.6L828.8 512V214.4c0-12.8-9.6-22.4-22.4-22.4l0 0H249.6C236.8 192 227.2 201.6 227.2 214.4l0 0v166.4l-64 64V192c0-35.2 28.8-64 64-64l0 0H825.6z"/></svg>