<!-- Generated by IcoMoon.io -->
<svg version="1.1" xmlns="http://www.w3.org/2000/svg" width="32" height="32" viewBox="0 0 32 32">
<title>business-cert</title>
<path d="M18.25 21.925l-2.25-1.547-2.25 1.547v-4.681c-0.556-0.25-1.059-0.587-1.5-0.997v8.528l3.75-2.578 3.75 2.578v-8.528c-0.441 0.409-0.944 0.747-1.5 0.997v4.681z"></path>
<path d="M17.984 12.225c0 1.105-0.895 2-2 2s-2-0.895-2-2c0-1.105 0.895-2 2-2s2 0.895 2 2z"></path>
<path d="M3 3v26h26v-26h-26zM20.519 10.081c-0.803-1.691-2.525-2.859-4.519-2.859-2 0-3.725 1.172-4.525 2.869l-5.094-5.094h19.219l-5.081 5.084zM18.997 12.084c0.081 1.766-1.372 3.219-3.137 3.138-1.537-0.072-2.784-1.316-2.856-2.856-0.081-1.766 1.372-3.219 3.137-3.137 1.541 0.072 2.784 1.316 2.856 2.856zM5 27v-20.553l6.006 6.006c0.119 2.656 2.309 4.775 4.994 4.775 2.691 0 4.884-2.125 4.994-4.791l6.006-6.006v20.569h-22z"></path>
</svg>
