<!-- Generated by IcoMoon.io -->
<svg version="1.1" xmlns="http://www.w3.org/2000/svg" width="32" height="32" viewBox="0 0 32 32">
<title>env</title>
<path d="M25.962 16.003c0.297-0.419 0.569-0.838 0.809-1.256 1.55-2.684 1.766-5.075 0.606-6.728-1.131-1.612-3.372-2.234-6.319-1.759-1.303-2.688-3.097-4.166-5.069-4.166s-3.766 1.478-5.069 4.166c-2.95-0.475-5.188 0.144-6.319 1.759-1.163 1.653-0.947 4.044 0.603 6.728 0.241 0.419 0.513 0.838 0.809 1.256-0.297 0.419-0.569 0.837-0.809 1.256-1.55 2.684-1.766 5.075-0.606 6.728 0.884 1.259 2.444 1.916 4.487 1.916 0.575 0 1.188-0.053 1.834-0.156 1.303 2.688 3.097 4.166 5.069 4.166s3.766-1.478 5.069-4.166c0.647 0.103 1.259 0.156 1.834 0.156 2.044 0 3.603-0.656 4.488-1.916 1.159-1.653 0.944-4.041-0.606-6.728-0.247-0.419-0.519-0.837-0.813-1.256zM25.738 9.169c0.675 0.966 0.422 2.634-0.7 4.578-0.119 0.206-0.244 0.412-0.378 0.616-0.569-0.647-1.197-1.281-1.875-1.897-0.194-1.537-0.519-2.988-0.956-4.297 0.375-0.044 0.728-0.069 1.063-0.069 1.356 0.003 2.359 0.369 2.847 1.069zM19.853 23.431c-0.528-0.147-1.066-0.325-1.609-0.538 0.597-0.356 1.188-0.738 1.772-1.147 0.137-0.097 0.272-0.191 0.403-0.291-0.156 0.694-0.347 1.356-0.566 1.975zM12.125 23.431c-0.219-0.622-0.409-1.281-0.566-1.975 0.134 0.097 0.269 0.194 0.403 0.291 0.584 0.409 1.175 0.791 1.772 1.147-0.547 0.212-1.084 0.391-1.609 0.538zM12.125 8.575c0.528 0.147 1.066 0.325 1.609 0.537-0.597 0.356-1.188 0.738-1.772 1.147-0.137 0.097-0.272 0.191-0.403 0.291 0.156-0.694 0.347-1.356 0.566-1.975zM8.978 16.5c-0.15-0.166-0.294-0.331-0.434-0.497 0.141-0.166 0.284-0.331 0.434-0.497-0.003 0.166-0.006 0.331-0.006 0.497s0.003 0.331 0.006 0.497zM13.109 20.109c-0.709-0.497-1.384-1.022-2.016-1.559-0.078-0.828-0.122-1.678-0.122-2.547 0-0.866 0.041-1.719 0.122-2.547 0.631-0.541 1.306-1.063 2.016-1.559 0.947-0.662 1.916-1.253 2.878-1.759 0.966 0.506 1.931 1.094 2.878 1.759 0.709 0.497 1.384 1.022 2.016 1.559 0.078 0.828 0.122 1.678 0.122 2.547 0 0.866-0.041 1.719-0.122 2.547-0.631 0.541-1.306 1.063-2.016 1.559-0.947 0.663-1.916 1.253-2.878 1.759-0.963-0.506-1.931-1.094-2.878-1.759zM19.853 8.575c0.219 0.622 0.409 1.281 0.566 1.975-0.134-0.097-0.269-0.194-0.403-0.291-0.584-0.409-1.175-0.791-1.772-1.147 0.544-0.213 1.081-0.391 1.609-0.537zM23 15.506c0.15 0.166 0.294 0.331 0.434 0.497-0.141 0.166-0.284 0.331-0.434 0.497 0.003-0.166 0.006-0.331 0.006-0.497-0.003-0.166-0.003-0.331-0.006-0.497zM15.988 4.097c1.063 0 2.159 0.95 3.059 2.631-1 0.297-2.028 0.694-3.059 1.181-1.034-0.487-2.063-0.884-3.059-1.181 0.9-1.681 1.997-2.631 3.059-2.631zM6.941 13.747c-1.122-1.944-1.378-3.616-0.7-4.578 0.491-0.7 1.494-1.063 2.847-1.063 0.334 0 0.688 0.022 1.063 0.069-0.438 1.309-0.759 2.759-0.956 4.297-0.678 0.616-1.306 1.25-1.875 1.897-0.134-0.209-0.263-0.416-0.378-0.622zM6.237 22.837c-0.675-0.966-0.422-2.634 0.7-4.578 0.119-0.206 0.244-0.413 0.378-0.616 0.569 0.647 1.197 1.281 1.875 1.897 0.194 1.538 0.519 2.988 0.956 4.297-1.891 0.225-3.3-0.128-3.909-1zM15.988 27.913c-1.063 0-2.159-0.95-3.059-2.631 1-0.297 2.028-0.694 3.059-1.181 1.034 0.488 2.063 0.884 3.059 1.181-0.9 1.681-1.997 2.631-3.059 2.631zM25.738 22.837c-0.609 0.872-2.019 1.222-3.909 0.997 0.438-1.309 0.759-2.759 0.956-4.297 0.678-0.616 1.306-1.25 1.875-1.897 0.134 0.206 0.259 0.413 0.378 0.616 1.122 1.947 1.378 3.619 0.7 4.581z"></path>
<path d="M16 13.688c-1.275 0-2.313 1.037-2.313 2.313s1.037 2.313 2.313 2.313 2.313-1.038 2.313-2.313-1.038-2.313-2.313-2.313zM16 16.313c-0.172 0-0.313-0.141-0.313-0.313s0.141-0.313 0.313-0.313 0.313 0.141 0.313 0.313-0.141 0.313-0.313 0.313z"></path>
</svg>
