<!-- Generated by IcoMoon.io -->
<svg version="1.1" xmlns="http://www.w3.org/2000/svg" width="32" height="32" viewBox="0 0 32 32">
<title>exclamation-triangle-shape</title>
<path d="M31.86 28.7l-15-26.24c-0.189-0.285-0.508-0.47-0.87-0.47s-0.681 0.185-0.868 0.466l-14.982 26.244c-0.084 0.143-0.134 0.316-0.134 0.5 0 0.55 0.444 0.997 0.994 1h30c0.55-0.003 0.994-0.45 0.994-1 0-0.184-0.050-0.357-0.137-0.505zM14.76 12.34c0.081-0.624 0.61-1.102 1.25-1.102s1.169 0.477 1.249 1.095l0.001 7.506c-0.081 0.624-0.61 1.102-1.25 1.102s-1.169-0.477-1.249-1.095zM16 25.080c-0.828 0-1.5-0.672-1.5-1.5s0.672-1.5 1.5-1.5c0.828 0 1.5 0.672 1.5 1.5s-0.672 1.5-1.5 1.5z"></path>
</svg>
