<!-- Generated by IcoMoon.io -->
<svg version="1.1" xmlns="http://www.w3.org/2000/svg" width="32" height="32" viewBox="0 0 32 32">
<title>exclamation-triangle</title>
<path d="M16 22.080c0.828 0 1.5 0.672 1.5 1.5s-0.672 1.5-1.5 1.5c-0.828 0-1.5-0.672-1.5-1.5s0.672-1.5 1.5-1.5z"></path>
<path d="M16 11.080h0.020c0.685 0 1.24 0.555 1.24 1.24v7.52c0 0.685-0.555 1.24-1.24 1.24h-0.020c-0.685 0-1.24-0.555-1.24-1.24v-7.52c0-0.685 0.555-1.24 1.24-1.24z"></path>
<path d="M31 30.2h-30c-0.55-0.003-0.994-0.45-0.994-1 0-0.184 0.050-0.357 0.137-0.505l14.997-26.235c0.189-0.285 0.508-0.47 0.87-0.47s0.681 0.185 0.868 0.466l15.002 26.264c0.084 0.143 0.134 0.316 0.134 0.5 0 0.55-0.444 0.997-0.994 1zM2.72 28.2h26.56l-13.28-23.22z"></path>
</svg>
