<!-- Generated by IcoMoon.io -->
<svg version="1.1" xmlns="http://www.w3.org/2000/svg" width="32" height="32" viewBox="0 0 32 32">
<title>execute</title>
<path d="M27.64 6.3c0.169-0.369 0.268-0.801 0.268-1.256 0-1.701-1.379-3.080-3.080-3.080s-3.080 1.379-3.080 3.080c0 1.701 1.379 3.080 3.080 3.080 0.532 0 1.032-0.135 1.468-0.372l-0.016 0.008c1.772 2.111 2.848 4.858 2.848 7.856 0 2.76-0.912 5.306-2.451 7.355l0.023-0.032c-0.125 0.165-0.2 0.374-0.2 0.6 0 0.552 0.448 1 1 1 0.326 0 0.616-0.156 0.798-0.398l0.002-0.003c1.771-2.345 2.836-5.309 2.836-8.521 0-3.582-1.324-6.855-3.51-9.355l0.014 0.017z"></path>
<path d="M6.88 15.62c-0.013-1.287-0.834-2.379-1.979-2.793l-0.021-0.007c1.308-5.459 6.147-9.454 11.919-9.454 0.843 0 1.665 0.085 2.46 0.247l-0.079-0.013c0.048 0.008 0.104 0.013 0.161 0.013 0.49 0 0.899-0.345 0.998-0.806l0.001-0.007c0.012-0.059 0.019-0.127 0.019-0.196 0-0.488-0.35-0.895-0.813-0.983l-0.006-0.001c-0.801-0.16-1.721-0.251-2.663-0.251-6.874 0-12.612 4.864-13.96 11.338l-0.016 0.093c-1.175 0.424-2 1.53-2 2.828 0 1.657 1.343 3 3 3s3-1.343 3-3c0-0.003 0-0.006 0-0.009v0z"></path>
<path d="M22.88 24.62c-1.6 0.009-2.903 1.27-2.98 2.853l-0 0.007c-0.916 0.246-1.967 0.388-3.051 0.388-4.86 0-9.056-2.842-11.018-6.954l-0.032-0.074c-0.15-0.375-0.51-0.634-0.931-0.634-0.552 0-1 0.448-1 1 0 0.182 0.049 0.352 0.133 0.499l-0.003-0.005c2.316 4.868 7.194 8.174 12.845 8.174 1.292 0 2.544-0.173 3.734-0.497l-0.099 0.023c0.552 0.743 1.428 1.22 2.415 1.22 1.657 0 3-1.343 3-3s-1.343-3-3-3c-0.005 0-0.010 0-0.016 0h0.001z"></path>
</svg>
