<svg xmlns="http://www.w3.org/2000/svg" viewBox="0 0 64 64"><defs><style>.cls-1{fill:#009af8;}.cls-2,.cls-7{fill:#fff;}.cls-3{fill:#f1f2f3;}.cls-4{fill:#4dc266;}.cls-5{fill:#f3ce48;}.cls-6{fill:#f4656b;}.cls-7{opacity:0.5;isolation:isolate;}</style></defs><title>研发商店-彩色logo</title><g id="图层_78" data-name="图层 78"><circle class="cls-1" cx="32" cy="32.02" r="28"/><circle class="cls-2" cx="31.63" cy="34.15" r="17.79"/><path class="cls-2" d="M39.77,22.15h-16v-8a1.31,1.31,0,0,1,1.31-1.31H38.46a1.31,1.31,0,0,1,1.31,1.31Z"/><circle class="cls-3" cx="31.59" cy="34.15" r="13.47"/><path class="cls-4" d="M35.58,18.4H28a1.31,1.31,0,0,1-1.31-1.31v-6.6A1.31,1.31,0,0,1,28,9.18h7.6a1.31,1.31,0,0,1,1.31,1.31v6.6A1.31,1.31,0,0,1,35.58,18.4Z"/><path class="cls-5" d="M32.08,34.15s-14.22-6.82-13.86,1.31c.29,6.47,12,5.19,12,5.19Z"/><path class="cls-6" d="M31.13,33c7.58-6.32,13.76,2,13.76,2l.07.08a13.42,13.42,0,0,1-26.74.38C18.49,35.68,23.8,39.17,31.13,33Z"/><rect class="cls-7" x="26" y="12.87" width="11.62" height="6.51"/><circle class="cls-6" cx="31.01" cy="24.99" r="2.63"/><circle class="cls-6" cx="36.64" cy="27.21" r="1.66"/></g></svg>