<!-- Generated by IcoMoon.io -->
<svg version="1.1" xmlns="http://www.w3.org/2000/svg" width="32" height="32" viewBox="0 0 32 32">
<title>experience</title>
<path d="M28.991 10.559c-0.706-1.669-1.716-3.169-3.003-4.456s-2.784-2.297-4.456-3.003c-1.725-0.728-3.563-1.1-5.453-1.1s-3.728 0.372-5.456 1.103c-1.669 0.706-3.169 1.716-4.456 3.003s-2.297 2.784-3.003 4.456c-0.728 1.725-1.1 3.563-1.1 5.453s0.372 3.728 1.103 5.456c0.706 1.669 1.716 3.169 3.003 4.456s2.784 2.297 4.456 3.003c1.725 0.728 3.563 1.1 5.453 1.1s3.728-0.372 5.456-1.103c1.669-0.706 3.169-1.716 4.456-3.003s2.297-2.784 3.003-4.456c0.728-1.725 1.1-3.563 1.1-5.453s-0.372-3.728-1.103-5.456zM24.575 24.512c-2.269 2.269-5.287 3.519-8.497 3.519s-6.228-1.25-8.497-3.519-3.519-5.287-3.519-8.497 1.25-6.228 3.519-8.497 5.287-3.519 8.497-3.519 6.228 1.25 8.497 3.519 3.519 5.287 3.519 8.497-1.25 6.228-3.519 8.497z"></path>
<path d="M16.069 11.956h4.706l-4.191 4.191-3.156-3.156-6.606 6.606 1.416 1.413 5.191-5.191 3.156 3.156 5.634-5.634v4.609h2v-7.994h-8.15z"></path>
</svg>
