<!-- Generated by IcoMoon.io -->
<svg version="1.1" xmlns="http://www.w3.org/2000/svg" width="32" height="32" viewBox="0 0 32 32">
<title>expired-experience</title>
<path d="M13.134 5.79l0.851-0.851 0.796 0.795-0.851 0.851-0.796-0.795z"></path>
<path d="M11.021 8.723l0.913-0.913 0.387 0.387-0.913 0.913-0.387-0.387z"></path>
<path d="M11.908 9.614l0.913-0.913 0.387 0.387-0.913 0.913-0.387-0.387z"></path>
<path d="M14.457 7.112l0.851-0.851 0.795 0.795-0.851 0.851-0.796-0.795z"></path>
<path d="M2 2v28l28-28h-28zM9.931 7.638l0.553 0.553 0.912-0.912-0.541-0.541 0.553-0.553 0.541 0.541 0.272-0.272 0.534 0.534-0.272 0.272 2.159 2.159 0.297-0.297 0.534 0.534-2.656 2.656-0.534-0.534 0.344-0.344-2.159-2.159-0.281 0.281-0.534-0.534 0.281-0.281-0.556-0.553 0.553-0.55zM7.131 10.403l0.575-0.575 0.828 0.828 0.769-0.769 0.563 0.563-0.769 0.769 2.275 2.275c0.394 0.394 0.394 0.791-0.006 1.188l-0.772 0.778-0.678-0.425c0.266-0.222 0.519-0.441 0.741-0.662 0.144-0.144 0.144-0.297 0-0.441l-2.131-2.131-2.066 2.066-0.563-0.563 2.066-2.066-0.831-0.834zM9.378 13.778l-0.144 0.784c-0.509-0.131-1.122-0.25-1.85-0.338l0.172-0.725c0.728 0.069 1.341 0.162 1.822 0.278zM3.987 14.366l0.016-0.769c0.656-0.084 1.253-0.116 1.8-0.088v0.841c-0.491-0.063-1.097-0.063-1.816 0.016zM12.278 15.275c-0.316 0.316-0.662 0.653-1.037 1.016-0.381 0.369-0.725 0.647-1.016 0.828-0.303 0.172-0.631 0.244-0.984 0.222-0.172-0.016-0.294 0.016-0.359 0.084-0.109 0.109-0.050 0.559 0.178 1.347l-0.819 0.034c-0.178-0.728-0.209-1.272-0.109-1.613l-1.513-1.512-0.744 0.738-0.541-0.541 1.288-1.287 2.1 2.1c0.044 0 0.084-0.006 0.128-0.006 0.275 0.012 0.525-0.016 0.728-0.078 0.25-0.094 0.553-0.297 0.906-0.631 0.338-0.325 0.734-0.713 1.181-1.159 0.253-0.253 0.509-0.519 0.769-0.791 0.253-0.275 0.447-0.491 0.575-0.641l0.441 0.719-1.172 1.172zM13.725 13.331c0.012-0.519-0.059-1.056-0.222-1.603l0.678-0.238c0.2 0.597 0.309 1.159 0.338 1.706l-0.794 0.134zM17.781 9.85l-0.719-0.409c0.216-0.181 0.409-0.353 0.575-0.519 0.109-0.109 0.087-0.244-0.059-0.394l-0.953-0.947-0.884 0.884c0.641 0.806 1.022 1.628 1.144 2.469l-0.769 0.037-0.1 0.563c-0.397-0.131-0.884-0.244-1.447-0.344l0.166-0.728c0.491 0.059 0.906 0.131 1.244 0.216-0.188-0.772-0.619-1.503-1.297-2.194l-2.662-2.662 2.006-2.006 4.341 4.341c0.366 0.366 0.366 0.741-0.012 1.116l-0.572 0.578z"></path>
<path d="M12.799 10.503l0.913-0.913 0.38 0.38-0.913 0.913-0.38-0.38z"></path>
</svg>
