<!-- Generated by IcoMoon.io -->
<svg version="1.1" xmlns="http://www.w3.org/2000/svg" width="32" height="32" viewBox="0 0 32 32">
<title>eye-slash</title>
<path d="M27.44 24.38c2.677-1.883 4.437-4.914 4.559-8.361 0.001-6.639-7.179-12.018-15.999-12.018-0.051-0-0.111-0.001-0.171-0.001-3.5 0-6.784 0.92-9.625 2.531l-2.563-2.291c-0.174-0.149-0.401-0.24-0.65-0.24-0.552 0-1 0.448-1 1 0 0.304 0.135 0.575 0.349 0.759l2.201 1.861c-2.669 1.886-4.422 4.917-4.54 8.362-0 6.638 7.18 12.018 16 12.018 0.051 0 0.111 0.001 0.171 0.001 3.5 0 6.784-0.92 9.625-2.531l2.563 2.291c0.174 0.149 0.401 0.24 0.65 0.24 0.552 0 1-0.448 1-1 0-0.304-0.135-0.575-0.349-0.759zM16 6c7.72 0 14 4.48 14 10-0.141 2.969-1.727 5.539-4.065 7.039l-4.795-3.979c0.534-0.873 0.853-1.929 0.86-3.058 0-3.316-2.686-6.002-6-6.002-1.471 0.015-2.813 0.557-3.848 1.447l-4.152-3.607c2.314-1.161 5.042-1.84 7.928-1.84 0.025 0 0.050 0 0.076 0zM12.4 14.28l5.9 4.98c-0.635 0.444-1.424 0.709-2.274 0.709-2.209 0-4-1.791-4-4 0-0.613 0.138-1.194 0.385-1.714zM13.68 12.74c0.641-0.457 1.441-0.73 2.304-0.73 2.209 0 4 1.791 4 4 0 0.621-0.142 1.21-0.394 1.734zM16 26c-7.72 0-14-4.48-14-10 0.141-2.969 1.727-5.539 4.065-7.039l4.795 3.979c-0.534 0.873-0.853 1.929-0.86 3.058 0 3.316 2.686 6.002 6 6.002 1.471-0.015 2.813-0.557 3.848-1.447l4.152 3.607c-2.314 1.161-5.042 1.84-7.928 1.84-0.025 0-0.050-0-0.076-0z"></path>
</svg>
