<!-- Generated by IcoMoon.io -->
<svg version="1.1" xmlns="http://www.w3.org/2000/svg" width="32" height="32" viewBox="0 0 32 32">
<title>eye-slash-shape</title>
<path d="M3.64 4.24c-0.174-0.149-0.401-0.24-0.65-0.24-0.552 0-1 0.448-1 1 0 0.304 0.135 0.575 0.349 0.759l26.001 22.001c0.174 0.149 0.401 0.24 0.65 0.24 0.552 0 1-0.448 1-1 0-0.304-0.135-0.575-0.349-0.759z"></path>
<path d="M16 12l4 3.4c-0.302-1.936-1.957-3.4-3.955-3.4-0.016 0-0.032 0-0.048 0z"></path>
<path d="M16 10c3.311 0.003 5.994 2.688 5.994 6 0 0.375-0.034 0.741-0.1 1.097l7.066 5.963c1.848-1.792 3.005-4.288 3.040-7.054 0-6.626-7.18-12.006-16-12.006-0.023-0-0.049-0-0.076-0-2.772 0-5.413 0.559-7.817 1.57l5.893 4.81c0.593-0.229 1.278-0.367 1.995-0.38z"></path>
<path d="M16 20l-4-3.4c0.302 1.936 1.957 3.4 3.955 3.4 0.016 0 0.032-0 0.048-0z"></path>
<path d="M16 22c-3.311-0.003-5.994-2.688-5.994-6 0-0.375 0.034-0.741 0.1-1.097l-7.066-5.963c-1.848 1.792-3.005 4.288-3.040 7.054-0 6.626 7.18 12.006 16 12.006 0.023 0 0.049 0 0.076 0 2.772 0 5.413-0.559 7.817-1.57l-5.893-4.81c-0.593 0.229-1.278 0.367-1.995 0.38z"></path>
</svg>
