<!-- Generated by IcoMoon.io -->
<svg version="1.1" xmlns="http://www.w3.org/2000/svg" width="32" height="32" viewBox="0 0 32 32">
<title>feedback</title>
<path d="M28 5.344v18h-8c-0.531 0-1.041 0.209-1.416 0.584l-2.584 2.587-2.584-2.584c-0.375-0.375-0.884-0.584-1.416-0.584h-8v-18.003h24zM29 3.344h-26c-0.553 0-1 0.447-1 1v20c0 0.553 0.447 1 1 1h9l4 4 4-4h9c0.553 0 1-0.447 1-1v-20c0-0.553-0.447-1-1-1v0z"></path>
<path d="M14.75 9.344h2.5v8h-2.5v-8z"></path>
<path d="M14.75 18.844h2.5v2.5h-2.5v-2.5z"></path>
</svg>
