<!-- Generated by IcoMoon.io -->
<svg version="1.1" xmlns="http://www.w3.org/2000/svg" width="32" height="32" viewBox="0 0 32 32">
<title>fenzu</title>
<path d="M13 5v8h-8v-8h8zM14 3h-10c-0.55 0-1 0.45-1 1v10c0 0.55 0.45 1 1 1h10c0.55 0 1-0.45 1-1v-10c0-0.55-0.45-1-1-1v0z"></path>
<path d="M13 19v8h-8v-8h8zM14 17h-10c-0.55 0-1 0.45-1 1v10c0 0.55 0.45 1 1 1h10c0.55 0 1-0.45 1-1v-10c0-0.55-0.45-1-1-1v0z"></path>
<path d="M27 5v8h-8v-8h8zM28 3h-10c-0.55 0-1 0.45-1 1v10c0 0.55 0.45 1 1 1h10c0.55 0 1-0.45 1-1v-10c0-0.55-0.45-1-1-1v0z"></path>
<path d="M27 19v8h-8v-8h8zM28 17h-10c-0.55 0-1 0.45-1 1v10c0 0.55 0.45 1 1 1h10c0.55 0 1-0.45 1-1v-10c0-0.55-0.45-1-1-1v0z"></path>
</svg>
