<!-- Generated by IcoMoon.io -->
<svg version="1.1" xmlns="http://www.w3.org/2000/svg" width="32" height="32" viewBox="0 0 32 32">
<title>file-plus-shape</title>
<path d="M28.48 9.851c-0.062-0.142-0.147-0.264-0.251-0.366l-9.143-9.143c-0.205-0.206-0.487-0.336-0.799-0.343l-11.636-0c-0.014-0-0.030-0-0.046-0-1.739 0-3.151 1.397-3.177 3.129l-0 25.74c0.026 1.735 1.438 3.132 3.177 3.132 0.016 0 0.032-0 0.048-0l18.695 0c0.014 0 0.030 0 0.046 0 1.739 0 3.151-1.397 3.177-3.129l0-18.585c-0.002-0.157-0.035-0.306-0.094-0.442zM20.571 20.571h-3.429v3.429c0 0.631-0.512 1.143-1.143 1.143s-1.143-0.512-1.143-1.143v-3.429h-3.429c-0.631 0-1.143-0.512-1.143-1.143s0.512-1.143 1.143-1.143h3.429v-3.429c0-0.631 0.512-1.143 1.143-1.143s1.143 0.512 1.143 1.143v3.429h3.429c0.631 0 1.143 0.512 1.143 1.143s-0.512 1.143-1.143 1.143z"></path>
</svg>
