<!-- Generated by IcoMoon.io -->
<svg version="1.1" xmlns="http://www.w3.org/2000/svg" width="32" height="32" viewBox="0 0 32 32">
<title>file-plus</title>
<path d="M27 10.8c0 0 0 0 0 0 0-0.2-0.2-0.4-0.2-0.6l-8-8c-0.2 0-0.4-0.2-0.6-0.2 0 0 0 0-0.2 0 0 0 0 0 0 0h-10.2c-1.6 0-2.8 1.2-2.8 2.8v22.6c0 1.6 1.2 2.8 2.8 2.8h16.4c1.6 0 2.8-1.2 2.8-2.8v-16.6c0 0.2 0 0.2 0 0zM19 5.4l4.6 4.6h-4.6v-4.6zM24.2 28h-16.4c-0.4 0-0.8-0.4-0.8-0.8v-22.4c0-0.4 0.4-0.8 0.8-0.8h9.2v7c0 0.6 0.4 1 1 1h7v15.2c0 0.4-0.4 0.8-0.8 0.8z"></path>
<path d="M20 18h-3v-3c0-0.6-0.4-1-1-1s-1 0.4-1 1v3h-3c-0.6 0-1 0.4-1 1s0.4 1 1 1h3v3c0 0.6 0.4 1 1 1s1-0.4 1-1v-3h3c0.6 0 1-0.4 1-1s-0.4-1-1-1z"></path>
</svg>
