<!-- Generated by IcoMoon.io -->
<svg version="1.1" xmlns="http://www.w3.org/2000/svg" width="32" height="32" viewBox="0 0 32 32">
<title>folder-plus</title>
<path d="M27 6h-13v-1c0-1.6-1.4-3-3-3h-8c-1.6 0-3 1.4-3 3v20c0 2.8 2.2 5 5 5h22c2.8 0 5-2.2 5-5v-14c0-2.8-2.2-5-5-5zM30 25c0 1.6-1.4 3-3 3h-22c-1.6 0-3-1.4-3-3v-20c0-0.6 0.4-1 1-1h8c0.6 0 1 0.4 1 1v2c0 0.6 0.4 1 1 1h14c1.6 0 3 1.4 3 3v14z"></path>
<path d="M20 18h-3v-3c0-0.6-0.4-1-1-1s-1 0.4-1 1v3h-3c-0.6 0-1 0.4-1 1s0.4 1 1 1h3v3c0 0.6 0.4 1 1 1s1-0.4 1-1v-3h3c0.6 0 1-0.4 1-1s-0.4-1-1-1z"></path>
</svg>
