<!-- Generated by IcoMoon.io -->
<svg version="1.1" xmlns="http://www.w3.org/2000/svg" width="32" height="32" viewBox="0 0 32 32">
<title>folder-open</title>
<path d="M29 10h-1.1c-0.482-2.299-2.492-4-4.899-4-0 0-0.001 0-0.001 0h-9v-1c0-1.657-1.343-3-3-3h-8c-1.657 0-3 1.343-3 3v20c0 2.761 2.239 5 5 5h22c0.012 0 0.027 0 0.042 0 1.6 0 2.903-1.269 2.958-2.855l2-14.145c0-1.657-1.343-3-3-3zM2 25v-20c0-0.552 0.448-1 1-1h8c0.552 0 1 0.448 1 1v2c0 0.552 0.448 1 1 1h10c1.295 0.004 2.397 0.827 2.813 1.979l-16.813 0.021c-0.012-0-0.027-0-0.042-0-1.6 0-2.903 1.269-2.958 2.855l-2 14.145c0.004 0.309 0.055 0.604 0.146 0.881-1.25-0.402-2.139-1.536-2.146-2.88zM28 27c0 0.552-0.448 1-1 1h-20c-0.003 0-0.006 0-0.010 0-0.503 0-0.919-0.371-0.989-0.855l1.999-14.145c0-0.552 0.448-1 1-1h20c0.003-0 0.006-0 0.010-0 0.503 0 0.919 0.371 0.989 0.855z"></path>
</svg>
