<!-- Generated by IcoMoon.io -->
<svg version="1.1" xmlns="http://www.w3.org/2000/svg" width="32" height="32" viewBox="0 0 32 32">
<title>folder-open-shape</title>
<path d="M6.32 13.16c0.055-1.757 1.493-3.16 3.258-3.16 0.015 0 0.029 0 0.044 0l17.758-0c0.006 0 0.012 0 0.019 0 0.221 0 0.4-0.179 0.4-0.4 0-0.043-0.007-0.084-0.019-0.123-0.663-2.032-2.544-3.477-4.763-3.477-0.006 0-0.012 0-0.018 0h-8.999v-1c0-1.657-1.343-3-3-3h-8c-1.657 0-3 1.343-3 3v20c-0.001 0.030-0.001 0.065-0.001 0.101 0 2.408 1.702 4.418 3.968 4.893 0.028-0.060 0.025-0.137 0.025-0.214s0.003-0.154 0.008-0.23z"></path>
<path d="M30 12h-20.38c-0.718 0-1.3 0.582-1.3 1.3l-2.32 16.3c-0.013 0.060-0.020 0.129-0.020 0.2s0.007 0.14 0.021 0.206l21.999-0.006c1.105 0 2-0.895 2-2l2-14c0-1.105-0.895-2-2-2z"></path>
</svg>
