<!-- Generated by IcoMoon.io -->
<svg version="1.1" xmlns="http://www.w3.org/2000/svg" width="32" height="32" viewBox="0 0 32 32">
<title>full-screen</title>
<path d="M11 0h-10c-0.552 0-1 0.448-1 1v10c0 0.552 0.448 1 1 1s1-0.448 1-1v-9h9c0.552 0 1-0.448 1-1s-0.448-1-1-1z"></path>
<path d="M31 0h-10c-0.552 0-1 0.448-1 1s0.448 1 1 1h9v9c0 0.552 0.448 1 1 1s1-0.448 1-1v-10c0-0.552-0.448-1-1-1z"></path>
<path d="M11 30h-9v-9c0-0.552-0.448-1-1-1s-1 0.448-1 1v10c0 0.552 0.448 1 1 1h10c0.552 0 1-0.448 1-1s-0.448-1-1-1z"></path>
<path d="M31 20c-0.552 0-1 0.448-1 1v9h-9c-0.552 0-1 0.448-1 1s0.448 1 1 1h10c0.552 0 1-0.448 1-1v-10c0-0.552-0.448-1-1-1z"></path>
</svg>
