<!-- Generated by IcoMoon.io -->
<svg version="1.1" xmlns="http://www.w3.org/2000/svg" width="32" height="32" viewBox="0 0 32 32">
<title>git</title>
<path d="M29.406 14.584l-11.991-11.991c-0.378-0.378-0.881-0.584-1.416-0.584s-1.037 0.209-1.416 0.584l-11.991 11.991c-0.378 0.378-0.584 0.881-0.584 1.416s0.209 1.038 0.584 1.416l11.991 11.991c0.391 0.391 0.903 0.584 1.416 0.584s1.025-0.194 1.416-0.584l11.991-11.991c0.781-0.781 0.781-2.050 0-2.831zM16 27.994c0 0 0 0 0 0l-11.991-11.994 8.116-8.116 1.841 1.841c-0.059 0.197-0.091 0.403-0.091 0.619 0 0.813 0.456 1.519 1.125 1.875v7.906c-0.669 0.356-1.125 1.063-1.125 1.875 0 1.175 0.95 2.125 2.125 2.125s2.125-0.95 2.125-2.125c0-0.813-0.456-1.519-1.125-1.875v-7.366l2.803 2.803c-0.056 0.188-0.084 0.387-0.084 0.594 0 1.175 0.95 2.125 2.125 2.125 0.206 0 0.406-0.031 0.594-0.084l0.009 0.009 0.019-0.019c0.869-0.266 1.5-1.075 1.5-2.031 0-1.175-0.95-2.125-2.125-2.125-0.225 0-0.441 0.034-0.644 0.1l-3.163-3.169c0.059-0.197 0.091-0.403 0.091-0.619 0-1.175-0.95-2.125-2.125-2.125-0.216 0-0.422 0.031-0.619 0.091l-1.841-1.841 2.459-2.459 11.991 11.991-11.991 11.994z"></path>
</svg>
