<svg width="32" height="32" viewBox="0 0 32 32" fill="none" xmlns="http://www.w3.org/2000/svg">
<path d="M14.7148 2.28304C15.5297 1.90565 16.4703 1.90565 17.2852 2.28304L29.2398 7.80701C29.7047 8.02031 30 8.4852 30 8.99932C30 9.51343 29.7047 9.97832 29.2398 10.1916L17.2852 15.7156C16.4703 16.093 15.5297 16.093 14.7148 15.7156L2.76016 10.1916C2.29531 9.97285 2 9.50796 2 8.99932C2 8.49067 2.29531 8.02031 2.76016 7.80701L14.7148 2.28304ZM4.63047 13.9435L13.6156 18.0947C15.1305 18.7948 16.875 18.7948 18.3898 18.0947L27.375 13.9435L29.2398 14.8077C29.7047 15.021 30 15.4859 30 16C30 16.5141 29.7047 16.979 29.2398 17.1923L17.2852 22.7163C16.4703 23.0937 15.5297 23.0937 14.7148 22.7163L2.76016 17.1923C2.29531 16.9735 2 16.5086 2 16C2 15.4914 2.29531 15.021 2.76016 14.8077L4.625 13.9435H4.63047ZM2.76016 21.8084L4.625 20.9442L13.6102 25.0954C15.125 25.7955 16.8695 25.7955 18.3844 25.0954L27.3695 20.9442L29.2344 21.8084C29.6992 22.0217 29.9945 22.4866 29.9945 23.0007C29.9945 23.5148 29.6992 23.9797 29.2344 24.193L17.2797 29.717C16.4648 30.0943 15.5242 30.0943 14.7094 29.717L2.76016 24.193C2.29531 23.9742 2 23.5093 2 23.0007C2 22.492 2.29531 22.0217 2.76016 21.8084Z" fill="#4D4F56"/>
</svg>
