<!-- Generated by IcoMoon.io -->
<svg version="1.1" xmlns="http://www.w3.org/2000/svg" width="32" height="32" viewBox="0 0 32 32">
<title>guanzhu</title>
<path d="M16 6.8l2.6 5.25 0.45 0.95 1.050 0.15 5.75 0.85-4.2 4.1-0.75 0.75 0.2 1.050 1 5.75-6.1-3.2-0.95 0.5-5.15 2.7 1-5.75 0.2-1.050-0.75-0.75-4.25-4.1 6.85-1 0.45-0.95 2.6-5.25zM16 3.6c-0.35 0-0.7 0.2-0.9 0.55l-3.45 7.050-7.8 1.1c-0.85 0.1-1.15 1.15-0.55 1.75l5.6 5.45-1.35 7.75c-0.1 0.65 0.4 1.2 1 1.2 0.15 0 0.3-0.050 0.45-0.1l7-3.7 6.95 3.65c0.15 0.1 0.3 0.1 0.45 0.1 0.6 0 1.1-0.55 1-1.2l-1.3-7.7 5.6-5.45c0.6-0.6 0.25-1.6-0.55-1.75l-7.75-1.15-3.5-7c-0.2-0.4-0.55-0.55-0.9-0.55v0z"></path>
</svg>
