<svg width="32" height="32" viewBox="0 0 32 32" fill="none" xmlns="http://www.w3.org/2000/svg">
<path d="M16 2C23.732 2 30 8.26801 30 16C30 23.732 23.732 30 16 30C8.26801 30 2 23.732 2 16C2 8.26801 8.26801 2 16 2ZM11.418 23.5537V25H20.8818V23.5537H11.418ZM16.1504 7C11.9254 7 8.5 10.3956 8.5 14.584C8.50015 18.7722 11.9255 22.167 16.1504 22.167C20.3751 22.1668 23.7997 18.7721 23.7998 14.584C23.7998 10.3958 20.3752 7.00021 16.1504 7ZM16.1504 8.28613C19.6589 8.28634 22.5029 11.1058 22.5029 14.584C22.5028 18.062 19.6588 20.8816 16.1504 20.8818C12.6418 20.8818 9.79703 18.0621 9.79688 14.584C9.79688 11.1057 12.6417 8.28613 16.1504 8.28613Z" fill="currentColor"/>
</svg>
