<!-- Generated by IcoMoon.io -->
<svg version="1.1" xmlns="http://www.w3.org/2000/svg" width="32" height="32" viewBox="0 0 32 32">
<title>heart-shape</title>
<path d="M23.16 2c-1.866 0.047-3.575 0.678-4.963 1.716-0.85 0.622-1.586 1.384-2.177 2.252-0.632-0.868-1.368-1.63-2.215-2.25-1.39-1.040-3.1-1.671-4.955-1.718-0.035-0-0.063-0.001-0.092-0.001-4.796 0-8.692 3.854-8.759 8.634 0.082 2.886 1.005 5.535 2.531 7.733 1.519 2.237 3.288 4.21 5.288 5.919 2.319 2.069 4.852 3.915 7.56 5.495 0.337 0.182 0.475 0.219 0.621 0.219h0c0.146-0 0.284-0.037 0.405-0.102 2.925-1.68 5.459-3.506 7.786-5.561 1.991-1.7 3.76-3.672 5.244-5.854 1.571-2.271 2.496-4.942 2.566-7.825-0.067-4.803-3.963-8.658-8.759-8.658-0.028 0-0.057 0-0.085 0z"></path>
</svg>
