<!-- Generated by IcoMoon.io -->
<svg version="1.1" xmlns="http://www.w3.org/2000/svg" width="32" height="32" viewBox="0 0 32 32">
<title>heart</title>
<path d="M16 30c-0.14 0-0.28-0.040-0.4-0.1-0.16-0.080-3.92-2.14-7.74-5.52-2.26-2-4.060-4.040-5.36-6.060-1.66-2.58-2.5-5.16-2.5-7.68 0-4.76 3.96-8.64 8.84-8.64 1.66 0 3.4 0.6 4.94 1.7 0.9 0.64 1.66 1.42 2.22 2.24 0.56-0.82 1.32-1.6 2.22-2.24 1.54-1.1 3.28-1.7 4.94-1.7 4.88 0 8.84 3.88 8.84 8.64 0 2.5-0.84 5.080-2.5 7.68-1.3 2.020-3.1 4.060-5.36 6.060-3.82 3.36-7.58 5.42-7.74 5.52-0.12 0.060-0.26 0.1-0.4 0.1v0zM9 4c-3.86 0-7 3.060-7 6.84 0 4.88 3.88 9.34 7.12 12.2 2.9 2.56 5.84 4.36 6.88 4.96 1.040-0.6 3.98-2.4 6.88-4.96 3.24-2.88 7.12-7.32 7.12-12.2 0-3.78-3.14-6.84-7-6.84-2.8 0-5.52 2.26-6.22 4.28-0.12 0.32-0.42 0.54-0.78 0.54s-0.66-0.22-0.78-0.56c-0.7-2-3.42-4.26-6.22-4.26z"></path>
</svg>
