<!-- Generated by IcoMoon.io -->
<svg version="1.1" xmlns="http://www.w3.org/2000/svg" width="32" height="32" viewBox="0 0 32 32">
<title>helper</title>
<path d="M16 2c-7.731 0-14 6.269-14 14 0 1.841 0.356 3.597 1 5.209 0 0.012 0 0.028 0 0.041v6.75c0 0.553 0.447 1 1 1h6.75c0.012 0 0.028 0 0.041 0 1.609 0.647 3.369 1 5.209 1 7.731 0 14-6.269 14-14s-6.269-14-14-14zM24.484 24.484c-1.103 1.103-2.387 1.969-3.816 2.572-1.478 0.625-3.050 0.944-4.672 0.944s-3.194-0.316-4.672-0.944c-0.044-0.019-0.088-0.038-0.131-0.056h-6.194v-6.197c-0.019-0.044-0.037-0.087-0.056-0.131-0.625-1.478-0.944-3.050-0.944-4.672s0.316-3.194 0.944-4.672c0.603-1.428 1.469-2.713 2.572-3.816s2.387-1.969 3.816-2.572c1.478-0.625 3.050-0.944 4.672-0.944s3.194 0.316 4.672 0.944c1.428 0.603 2.712 1.469 3.816 2.572s1.969 2.388 2.572 3.816c0.625 1.478 0.944 3.050 0.944 4.672s-0.316 3.194-0.944 4.672c-0.609 1.428-1.475 2.709-2.578 3.813z"></path>
<path d="M14.634 19.069v-0.372c0-1.191 0.094-1.944 0.281-2.253s0.678-0.759 1.478-1.35c0.419-0.306 0.709-0.594 0.875-0.859 0.163-0.266 0.247-0.594 0.247-0.988 0-0.484-0.153-0.866-0.462-1.144-0.306-0.278-0.681-0.419-1.119-0.419-1.159 0-1.809 0.819-1.953 2.453l-2.691-0.384c0.203-1.478 0.744-2.597 1.625-3.356s1.956-1.137 3.225-1.137c1.297 0 2.381 0.372 3.259 1.119s1.316 1.691 1.316 2.838c0 1.422-0.731 2.609-2.191 3.563-0.634 0.419-1.019 0.747-1.153 0.981s-0.2 0.672-0.2 1.306l-2.537 0.003z"></path>
<path d="M14.637 20.316h2.519v2.422h-2.519v-2.422z"></path>
</svg>
