<svg fill="none" xmlns="http://www.w3.org/2000/svg" viewBox="0 0 24 24" class="design-iconfont">
  <g opacity=".8">
    <path d="M11.9997 6.09424C9.97836 6.09424 8.33545 7.73715 8.33545 9.75852V9.95852H10.164V9.75852C10.164 8.74704 10.9882 7.92281 11.9997 7.92281C13.0112 7.92281 13.8354 8.74704 13.8354 9.75852C13.8354 10.4217 13.2739 11.1326 12.4959 11.4487L12.4917 11.4504C11.6621 11.7928 11.0855 12.6086 11.0855 13.5605V15.0569H12.9141V13.5605C12.9141 13.3656 13.0285 13.2077 13.1877 13.1413C14.4181 12.6402 15.664 11.39 15.664 9.75852C15.664 7.73715 14.0211 6.09424 11.9997 6.09424Z" fill="#1A1A1A"/>
    <path d="M11.9997 16.0855C11.4158 16.0855 10.9425 16.5588 10.9425 17.1427C10.9425 17.7265 11.4158 18.1998 11.9997 18.1998C12.5835 18.1998 13.0568 17.7265 13.0568 17.1427C13.0568 16.5588 12.5835 16.0855 11.9997 16.0855Z" fill="#1A1A1A"/>
    <path fill-rule="evenodd" clip-rule="evenodd" d="M11.9998 1.7998C6.3665 1.7998 1.7998 6.3665 1.7998 11.9998C1.7998 17.6331 6.3665 22.1998 11.9998 22.1998C17.6331 22.1998 22.1998 17.6331 22.1998 11.9998C22.1998 6.3665 17.6331 1.7998 11.9998 1.7998ZM3.62838 11.9998C3.62838 7.37639 7.3764 3.62837 11.9998 3.62838C16.6232 3.62838 20.3712 7.3764 20.3712 11.9998C20.3712 16.6232 16.6232 20.3712 11.9998 20.3712C7.37639 20.3712 3.62837 16.6232 3.62838 11.9998Z" fill="#1A1A1A"/>
    <path d="M11.9995 16.0854C11.4157 16.0854 10.9424 16.5587 10.9424 17.1426C10.9424 17.7264 11.4157 18.1997 11.9995 18.1997C12.5834 18.1997 13.0567 17.7264 13.0567 17.1426C13.0567 16.5587 12.5834 16.0854 11.9995 16.0854Z" fill="#005ED9"/>
  </g>
</svg>
