

<svg class="bk-icon" style="width: 1em; height: 1em;vertical-align: middle;fill: currentColor;overflow: hidden;" viewBox="0 0 64 64" version="1.1" xmlns="http://www.w3.org/2000/svg">

<g>
	<path  fill="#737987" d="M32,8c13.3,0,24,10.7,24,24S45.3,56,32,56S8,45.3,8,32S18.7,8,32,8 M32,4C16.5,4,4,16.5,4,32
		s12.5,28,28,28s28-12.5,28-28S47.5,4,32,4z"/>
	<circle  fill="#737987" cx="31.3" cy="42.1" r="3"/>
	<path  fill="#737987" d="M32.1,18.9c5,0,8.3,2.8,8.3,6.9c0,2.6-1.3,4.5-3.8,6c-2.5,1.5-3,2.2-3,3.9v0.9H29v-1
		c-0.2-2.8,0.7-4.4,3.2-5.8c2.3-1.4,3-2.2,3-3.8s-1.3-2.8-3.3-2.8c-1.8-0.1-3.3,1.2-3.5,3c0,0.1,0,0.1,0,0.2h-4.8
		C23.6,22,26.7,18.9,32.1,18.9z"/>
</g>
</svg>
