<!-- Generated by IcoMoon.io -->
<svg version="1.1" xmlns="http://www.w3.org/2000/svg" width="32" height="32" viewBox="0 0 32 32">
<title>hide</title>
<path d="M28 13.86c1.64-1.22 3-2.68 3.88-4.36 0.26-0.48 0.060-1.1-0.42-1.34-0.48-0.26-1.1-0.080-1.34 0.42-2.2 4.16-7.86 6.96-14.12 6.96s-11.92-2.8-14.12-6.96c-0.26-0.5-0.86-0.68-1.34-0.42-0.5 0.24-0.68 0.86-0.42 1.34 0.88 1.68 2.24 3.16 3.88 4.36l-3.78 4.72c-0.34 0.44-0.28 1.080 0.16 1.42 0.18 0.14 0.4 0.22 0.62 0.22 0.3 0 0.58-0.12 0.78-0.38l3.92-4.88c1.74 0.98 3.74 1.7 5.9 2.12l-2.5 5.46c-0.24 0.5 0 1.1 0.5 1.32 0.14 0.060 0.28 0.1 0.42 0.1 0.38 0 0.74-0.22 0.92-0.58l2.72-5.98c0.76 0.080 1.54 0.14 2.34 0.14 0.64 0 1.26-0.060 1.88-0.1l2.72 5.94c0.16 0.36 0.52 0.58 0.9 0.58 0.14 0 0.28-0.020 0.42-0.1 0.5-0.22 0.72-0.82 0.5-1.32l-2.46-5.38c2.34-0.4 4.48-1.16 6.34-2.22l3.9 4.88c0.2 0.24 0.48 0.38 0.78 0.38 0.22 0 0.44-0.080 0.62-0.22 0.44-0.34 0.5-0.98 0.16-1.4l-3.76-4.72z"></path>
</svg>
