<!-- Generated by IcoMoon.io -->
<svg version="1.1" xmlns="http://www.w3.org/2000/svg" width="32" height="32" viewBox="0 0 32 32">
<title>home-shape</title>
<path d="M31.68 14.24l-15-14c-0.178-0.165-0.417-0.267-0.68-0.267s-0.502 0.101-0.681 0.267l-14.999 13.999c-0.227 0.185-0.37 0.464-0.37 0.777 0 0.552 0.448 1 1 1 0.288 0 0.547-0.122 0.73-0.316l0.621-0.581v15.88c0 0.552 0.448 1 1 1h9.24c0.552 0 1-0.448 1-1v-8.2h4.92v8.2c0 0.552 0.448 1 1 1h9.24c0.552 0 1-0.448 1-1v-15.88l0.62 0.58c0.183 0.195 0.442 0.317 0.73 0.317 0.552 0 1-0.448 1-1 0-0.313-0.144-0.592-0.368-0.775z"></path>
</svg>
