<!-- Generated by IcoMoon.io -->
<svg version="1.1" xmlns="http://www.w3.org/2000/svg" width="55" height="32" viewBox="0 0 55 32">
<title>hot</title>
<path fill="#ff5656" d="M52.571 32h-50.286c-1.371 0-2.286-0.914-2.286-2.286v-27.429c0-1.371 0.914-2.286 2.286-2.286h50.286c1.371 0 2.286 0.914 2.286 2.286v27.429c0 1.371-0.914 2.286-2.286 2.286z"></path>
<path fill="#fff" d="M20.114 22.857h-2.971v-5.714h-5.943v5.714h-2.971v-13.714h2.971v5.486h5.943v-5.486h2.971v13.714zM22.4 16.229c0-2.057 0.686-3.886 1.829-5.257s2.971-2.057 5.029-2.057c2.057 0 3.657 0.686 4.8 2.057s1.829 2.971 1.829 5.029c0 2.057-0.686 3.886-1.829 5.257s-2.971 2.057-5.029 2.057c-2.057 0-3.657-0.686-4.8-2.057s-1.829-2.971-1.829-5.029zM25.6 16c0 1.371 0.229 2.514 0.914 3.2s1.6 1.371 2.743 1.371c1.143 0 2.057-0.457 2.743-1.143s0.914-1.829 0.914-3.2c0-1.371-0.229-2.514-0.914-3.429s-1.6-1.371-2.743-1.371c-1.143 0-2.057 0.457-2.743 1.371s-0.914 1.829-0.914 3.2zM47.771 11.429h-3.886v11.429h-2.971v-11.429h-3.886v-2.286h10.743v2.286z"></path>
</svg>
