<!-- Generated by IcoMoon.io -->
<svg version="1.1" xmlns="http://www.w3.org/2000/svg" width="32" height="32" viewBox="0 0 32 32">
<title>hourglass</title>
<path d="M27.7 27.15l-7.4-11.15 7.35-11.1c0.4-0.55 0.45-1.3 0.15-1.9s-0.95-1-1.65-1h-20.3c-0.7 0-1.35 0.4-1.65 1s-0.25 1.35 0.1 1.85l7.4 11.15-7.35 11.1c-0.4 0.55-0.45 1.3-0.15 1.9s0.95 1 1.65 1h20.3c0.7 0 1.35-0.4 1.65-1s0.25-1.35-0.1-1.85zM6.15 28l7.3-11c0.4-0.65 0.4-1.4 0-2.050l-7.3-10.95h19.7l-7.3 11c-0.4 0.65-0.4 1.4 0 2.050l7.3 10.95h-19.7z"></path>
<path d="M16.3 14.3l3.050-4.6h-6.7l3.050 4.6c0.4 0.5 0.25 0.5 0.6 0z"></path>
<path d="M15.5 17.9l-4.7 7h10.45l-4.65-7c-0.7-1-0.4-1-1.1 0z"></path>
</svg>
