

<svg viewBox="0 0 64 64" version="1.1" xmlns="http://www.w3.org/2000/svg">

<path  fill="#737987" d="M35.1,44.4L28,51.6c-1.8,1.8-4.1,3-6.6,3.4c-3.6,0.5-7.1-0.8-9.5-3.5C8,46.9,8.2,40.2,12.5,36
	l7.1-7.1c0.8-0.8,0.8-2,0-2.8l0,0c-0.8-0.8-2-0.8-2.8,0c0,0,0,0,0,0l-7.4,7.3c-5.9,5.9-5.9,15.4,0,21.2l0,0c5.9,5.9,15.4,5.9,21.2,0
	c0,0,0,0,0,0l7.4-7.3c0.8-0.8,0.8-2,0-2.8c0,0,0,0,0,0l0,0C37.2,43.6,36,43.6,35.1,44.4C35.2,44.4,35.1,44.4,35.1,44.4z"/>
<path  fill="#737987" d="M43.3,20.7L43.3,20.7c0.8,0.8,0.8,2,0,2.8L23.5,43.3c-0.8,0.8-2,0.8-2.8,0l0,0c-0.8-0.8-0.8-2,0-2.8
	l19.8-19.8C41.3,19.9,42.5,19.9,43.3,20.7z"/>
<path  fill="#737987" d="M28.9,19.6l7.1-7.1c1.8-1.9,4.2-3,6.7-3.4c6-0.7,11.5,3.6,12.2,9.6c0.1,1.2,0.1,2.3-0.1,3.5
	c-0.5,2.2-1.6,4.3-3.2,5.9l-7.2,7.2c-0.8,0.8-0.8,2,0,2.8c0,0,0,0,0,0l0,0c0.8,0.8,2,0.8,2.8,0c0,0,0,0,0,0l7.3-7.3
	c5.9-5.9,5.9-15.4,0-21.2c0,0,0,0,0,0l0,0c-5.9-5.9-15.4-5.9-21.2,0l-7.3,7.3c-0.8,0.8-0.8,2,0,2.8c0,0,0,0,0,0l0,0
	C26.8,20.4,28.1,20.4,28.9,19.6C28.9,19.6,28.9,19.6,28.9,19.6z"/>
</svg>
