<!-- Generated by IcoMoon.io -->
<svg version="1.1" xmlns="http://www.w3.org/2000/svg" width="32" height="32" viewBox="0 0 32 32">
<title>id-shape</title>
<path d="M11.24 13.74c0 0.961-0.779 1.74-1.74 1.74s-1.74-0.779-1.74-1.74c0-0.961 0.779-1.74 1.74-1.74s1.74 0.779 1.74 1.74z"></path>
<path d="M27 5h-22c-2.761 0-5 2.239-5 5v12c0 2.761 2.239 5 5 5h22c2.761 0 5-2.239 5-5v-12c0-2.761-2.239-5-5-5zM14 22c-0.552 0-1-0.448-1-1 0-1.933-1.567-3.5-3.5-3.5s-3.5 1.567-3.5 3.5c0 0.552-0.448 1-1 1s-1-0.448-1-1c0.007-2.014 1.095-3.773 2.714-4.726-0.582-0.677-0.954-1.564-0.954-2.538 0-2.066 1.674-3.74 3.74-3.74s3.74 1.674 3.74 3.74c0 0.974-0.372 1.861-0.982 2.527 1.648 0.964 2.736 2.723 2.742 4.736 0 0.553-0.448 1.001-1 1.001zM27 21h-8c-0.552 0-1-0.448-1-1s0.448-1 1-1h8c0.552 0 1 0.448 1 1s-0.448 1-1 1zM18 16c0-0.552 0.448-1 1-1h6c0.552 0 1 0.448 1 1s-0.448 1-1 1h-6c-0.552 0-1-0.448-1-1zM27 13h-8c-0.552 0-1-0.448-1-1s0.448-1 1-1h8c0.552 0 1 0.448 1 1s-0.448 1-1 1z"></path>
</svg>
