<!-- Generated by IcoMoon.io -->
<svg version="1.1" xmlns="http://www.w3.org/2000/svg" width="32" height="32" viewBox="0 0 32 32">
<title>id</title>
<path d="M27 5h-22c-2.76 0-5 2.24-5 5v12c0 2.76 2.24 5 5 5h22c2.76 0 5-2.24 5-5v-12c0-2.76-2.24-5-5-5zM30 22c0 1.66-1.34 3-3 3h-22c-1.66 0-3-1.34-3-3v-12c0-1.66 1.34-3 3-3h22c1.66 0 3 1.34 3 3v12zM12.26 16.26c0.6-0.66 0.98-1.54 0.98-2.52 0-2.060-1.68-3.74-3.74-3.74s-3.74 1.68-3.74 3.74c0 0.98 0.38 1.84 0.98 2.52-1.64 0.96-2.74 2.72-2.74 4.74 0 0.56 0.44 1 1 1s1-0.44 1-1c0-1.94 1.58-3.5 3.5-3.5s3.5 1.56 3.5 3.5c0 0.56 0.46 1 1 1s1-0.44 1-1c0-2.020-1.1-3.78-2.74-4.74zM7.76 13.74c0-0.96 0.78-1.74 1.74-1.74s1.74 0.78 1.74 1.74-0.78 1.76-1.74 1.76-1.74-0.8-1.74-1.76zM28 12c0 0.56-0.44 1-1 1h-8c-0.56 0-1-0.44-1-1s0.44-1 1-1h8c0.56 0 1 0.44 1 1zM18 16c0-0.56 0.44-1 1-1h6c0.56 0 1 0.44 1 1s-0.44 1-1 1h-6c-0.56 0-1-0.44-1-1zM28 20c0 0.56-0.44 1-1 1h-8c-0.56 0-1-0.44-1-1s0.44-1 1-1h8c0.56 0 1 0.44 1 1z"></path>
</svg>
