<!-- Generated by IcoMoon.io -->
<svg version="1.1" xmlns="http://www.w3.org/2000/svg" width="32" height="32" viewBox="0 0 32 32">
<title>image</title>
<path d="M27 2h-22c-2.761 0-5 2.239-5 5v18c0 2.761 2.239 5 5 5h22c2.761 0 5-2.239 5-5v-18c0-2.761-2.239-5-5-5zM5 4h22c1.657 0 3 1.343 3 3v7.5c-1.616-1.983-3.933-3.341-6.568-3.694-3.612-0.186-6.432 2.694-9.672 5.994l-1.46 1.48c-1.581 1.876-3.932 3.060-6.56 3.060-1.361 0-2.648-0.318-3.79-0.883l0.050-13.458c0-1.657 1.343-3 3-3zM27 28h-22c-1.657 0-3-1.343-3-3v-2.38c1.111 0.427 2.396 0.676 3.738 0.68 3.17-0.052 6.007-1.425 7.994-3.592l1.487-1.508c2.84-2.9 5.28-5.42 8-5.42h0.18c2 0 4.18 1.64 6.72 4.7v7.52c0 0.001 0 0.002 0 0.002 0 1.657-1.343 3-3 3-0.042 0-0.084-0.001-0.126-0.003z"></path>
<path d="M8 14c2.209 0 4-1.791 4-4s-1.791-4-4-4c-2.209 0-4 1.791-4 4s1.791 4 4 4zM8 8c1.105 0 2 0.895 2 2s-0.895 2-2 2c-1.105 0-2-0.895-2-2s0.895-2 2-2z"></path>
</svg>
