<!-- Generated by IcoMoon.io -->
<svg version="1.1" xmlns="http://www.w3.org/2000/svg" width="32" height="32" viewBox="0 0 32 32">
<title>image-shape</title>
<path d="M12 10c0 2.209-1.791 4-4 4s-4-1.791-4-4c0-2.209 1.791-4 4-4s4 1.791 4 4z"></path>
<path d="M27 2h-22c-2.761 0-5 2.239-5 5v18c0 2.761 2.239 5 5 5h22c2.761 0 5-2.239 5-5v-18c0-2.761-2.239-5-5-5zM30 14.5c-1.616-1.983-3.933-3.341-6.568-3.694-3.612-0.186-6.432 2.694-9.672 5.994l-1.46 1.48c-1.581 1.876-3.932 3.060-6.56 3.060-1.361 0-2.648-0.318-3.79-0.883l0.050-13.458c0-1.657 1.343-3 3-3h22c1.657 0 3 1.343 3 3z"></path>
</svg>
