<!-- Generated by IcoMoon.io -->
<svg version="1.1" xmlns="http://www.w3.org/2000/svg" width="32" height="32" viewBox="0 0 32 32">
<title>indent</title>
<path d="M7.32 16.020l-5.34 5v-9.98l5.34 4.98z"></path>
<path d="M1 5h30c0.552 0 1-0.448 1-1s-0.448-1-1-1h-30c-0.552 0-1 0.448-1 1s0.448 1 1 1z"></path>
<path d="M1 29.040h30c0.552 0 1-0.448 1-1s-0.448-1-1-1h-30c-0.552 0-1 0.448-1 1s0.448 1 1 1z"></path>
<path d="M14.9 12.98h16.1c0.552 0 1-0.448 1-1s-0.448-1-1-1h-16.1c-0.552 0-1 0.448-1 1s0.448 1 1 1z"></path>
<path d="M14.9 21h16.1c0.552 0 1-0.448 1-1s-0.448-1-1-1h-16.1c-0.552 0-1 0.448-1 1s0.448 1 1 1z"></path>
</svg>
