<!-- Generated by IcoMoon.io -->
<svg version="1.1" xmlns="http://www.w3.org/2000/svg" width="32" height="32" viewBox="0 0 32 32">
<title>info-circle-shape</title>
<path d="M16 0c-8.837 0-16 7.163-16 16s7.163 16 16 16c8.837 0 16-7.163 16-16s-7.163-16-16-16zM17.26 22.76c-0.081 0.624-0.61 1.102-1.25 1.102s-1.169-0.477-1.249-1.095l-0.001-9.506c0.081-0.624 0.61-1.102 1.25-1.102s1.169 0.477 1.249 1.095zM16 11c-0.828 0-1.5-0.672-1.5-1.5s0.672-1.5 1.5-1.5c0.828 0 1.5 0.672 1.5 1.5s-0.672 1.5-1.5 1.5z"></path>
</svg>
