<!-- Generated by IcoMoon.io -->
<svg version="1.1" xmlns="http://www.w3.org/2000/svg" width="32" height="32" viewBox="0 0 32 32">
<title>initialize</title>
<path d="M21.15 8.35l-1.75 0.95-2.5-4.6 4.6-2.5 0.95 1.75-1.55 0.85c1.75 0.7 3.35 1.8 4.7 3.2 1.2 1.3 2.15 2.8 2.75 4.45 0.6 1.6 0.85 3.25 0.8 4.95-0.050 1.5-0.35 3.050-0.9 4.45v0c-0.7 1.75-1.8 3.35-3.2 4.7-1.3 1.2-2.8 2.15-4.45 2.75-0.6 0.2-1.25 0.4-1.85 0.5-0.050 0-0.1 0-0.1 0.050-0.3 0.050-0.6 0.1-0.9 0.15-0.050 0-0.050 0-0.1 0v0c-0.65 0.1-1.3 0.1-2 0.1-1.5-0.050-3.050-0.4-4.45-0.95v0c-1.75-0.7-3.35-1.8-4.7-3.2-1.2-1.3-2.15-2.8-2.75-4.45-0.6-1.6-0.85-3.25-0.8-4.95s0.45-3.35 1.1-4.9c0.7-1.6 1.75-3.050 3-4.25 2.050-1.9 4.6-3.1 7.35-3.45l0.25 2c-2.35 0.3-4.5 1.3-6.25 2.9-2.15 2-3.4 4.75-3.5 7.7 0 0.6 0 1.15 0.1 1.7v0c0.3 2.35 1.3 4.5 2.9 6.25 2 2.15 4.75 3.4 7.7 3.5 0.6 0 1.15 0 1.75-0.1 2.3-0.3 4.45-1.3 6.2-2.9 2.15-2 3.4-4.75 3.5-7.7s-0.95-5.8-3-7.95c-1.1-1.15-2.35-2.050-3.8-2.65l0.9 1.65z"></path>
<path d="M20.4 16.8c0 2.458-1.992 4.45-4.45 4.45s-4.45-1.992-4.45-4.45c0-2.458 1.992-4.45 4.45-4.45s4.45 1.992 4.45 4.45z"></path>
</svg>
