<?xml version="1.0" encoding="UTF-8"?>
<svg width="64px" height="64px" viewBox="0 0 64 64" version="1.1" xmlns="http://www.w3.org/2000/svg" xmlns:xlink="http://www.w3.org/1999/xlink">
    <title>安装量</title>
    <g id="蓝盾服务扩展商店" stroke="none" stroke-width="1" fill="none" fill-rule="evenodd">
        <g id="蓝盾服务扩展商店设计稿-第四批界面" transform="translate(-183.000000, -2175.000000)">
            <g id="编组" transform="translate(65.000000, 1942.000000)">
                <g id="安装量" transform="translate(118.000000, 233.000000)">
                    <rect id="Rectangle" stroke="#EDEEF2" stroke-width="2" x="1" y="1" width="62" height="62" rx="31"></rect>
                    <g id="0228-gcloud-icon_画板-1-副本" transform="translate(5.000000, 5.000000)">
                        <path d="M32.5330526,37.8052105 C31.0042532,39.3423326 23.6999891,31.2774323 23.6999891,31.2774323 L21.4817311,31.7565353 C21.1574336,31.8243124 20.8205917,31.7271081 20.5824373,31.4970212 L16.2858114,27.1950756 C16.0276119,26.9320612 15.9354256,26.5483684 16.0459997,26.1969444 L17.5747991,21.4158958 L18.933732,22.7833356 C20.0011984,23.8414658 21.7232367,23.8414658 22.7907032,22.7833356 L22.7907032,22.7833356 C23.8499827,21.7170273 23.8499827,19.9968573 22.7907032,18.930549 L21.4217782,17.5730905 L26.2080196,16.0459498 C26.5598253,15.9354957 26.9439348,16.027582 27.2072349,16.2855013 L31.513853,20.5774655 C31.7441898,20.8153616 31.8414997,21.151838 31.773649,21.4757836 L31.2940256,23.691635 C31.2940256,23.691635 39.3277169,31.0079369 37.8089096,32.5350777 L32.5330526,37.8052105 Z" id="路径" stroke="#383D49" stroke-width="2" stroke-linecap="round" stroke-linejoin="round"></path>
                        <path d="M27,8 C37.4934102,8 46,16.5065898 46,27 C46,31.128078 44.6835088,34.9486729 42.4474673,38.0648439 L40.9915278,36.6586683 C42.8886872,33.9156506 44,30.5876058 44,27 C44,17.6111593 36.3888407,10 27,10 C17.6111593,10 10,17.6111593 10,27 C10,36.3888407 17.6111593,44 27,44 C30.6341069,44 34.0018806,42.8596917 36.7650345,40.9173618 L38.2267874,42.3299706 C35.0814718,44.637319 31.1998715,46 27,46 C16.5065898,46 8,37.4934102 8,27 C8,16.5065898 16.5065898,8 27,8 Z" id="Combined-Shape" fill="#383D49" fill-rule="nonzero" transform="translate(27.000000, 27.000000) rotate(-45.000000) translate(-27.000000, -27.000000) "></path>
                        <line x1="27.69" y1="27.69" x2="31.82" y2="31.82" id="路径" stroke="#3A84FF" stroke-width="2" stroke-linejoin="round"></line>
                    </g>
                </g>
            </g>
        </g>
    </g>
</svg>