<!-- Generated by IcoMoon.io -->
<svg version="1.1" xmlns="http://www.w3.org/2000/svg" width="32" height="32" viewBox="0 0 32 32">
<title>intercept-history</title>
<path d="M18 5v-2h-8v2h-7v24h14.406v-2h-12.406v-20h5v2h8v-2h5v10h2v-12h-7zM16 7h-4v-2h4v2z"></path>
<path d="M7.875 12h12.5v2h-12.5v-2z"></path>
<path d="M7.875 17h9.813v2h-9.813v-2z"></path>
<path d="M7.875 22h6v2h-6v-2z"></path>
<path d="M27.372 23.281h1.628v1h-1.628v-1z"></path>
<path d="M25.818 20.472l1.151-1.151 0.707 0.707-1.151 1.151-0.707-0.707z"></path>
<path d="M18.92 20.012l0.718-0.696 1.133 1.169-0.718 0.696-1.133-1.169z"></path>
<path d="M17.591 23.281h1.628v1h-1.628v-1z"></path>
<path d="M22.813 17.997h1v1.628h-1v-1.628z"></path>
<path d="M23.297 21.038c0.709 0 1.381 0.278 1.884 0.781s0.781 1.172 0.781 1.884v4.297h-5.331v-4.297c0-0.709 0.278-1.381 0.781-1.884s1.172-0.781 1.884-0.781zM23.297 20.038c-0.978 0-1.9 0.381-2.591 1.075s-1.075 1.613-1.075 2.591v4.3h-1.222v0.997h9.778v-0.997h-1.222v-4.3c0-0.978-0.381-1.9-1.075-2.591-0.694-0.694-1.616-1.075-2.594-1.075v0z"></path>
<path d="M22.95 26.7l-0.656-0.594 0.956-1.063-1.241-1.244 1.544-1.544 0.625 0.625-0.919 0.919 1.209 1.209z"></path>
</svg>
