<!-- Generated by IcoMoon.io -->
<svg version="1.1" xmlns="http://www.w3.org/2000/svg" width="32" height="32" viewBox="0 0 32 32">
<title>ios</title>
<path d="M20.85 11.225v0c0.078 0 0.156 0.003 0.231 0.012l0.056 0.006 0.056 0.003c0.234 0.009 0.856 0.059 1.531 0.328 0.166 0.066 0.328 0.141 0.478 0.225-0.981 1.106-1.919 2.763-1.9 5.031v0 0.009c0.028 2.834 1.453 4.872 3.084 6.094-0.25 0.522-0.578 1.122-1.003 1.728-0.528 0.753-1.003 1.413-1.488 1.856-0.475 0.434-0.778 0.497-1.012 0.503-0.016 0-0.031 0-0.044 0-0.413 0-0.672-0.103-1.216-0.331-0.7-0.297-1.659-0.7-3.1-0.7-1.484 0-2.475 0.413-3.2 0.716-0.544 0.228-0.825 0.337-1.238 0.353-0.006 0-0.012 0-0.019 0-0.3 0-0.681-0.294-0.944-0.541-0.537-0.5-1.066-1.225-1.563-1.925-1.059-1.497-1.903-3.55-2.253-5.491-0.194-1.066-0.237-2.075-0.134-2.997 0.106-0.95 0.372-1.791 0.791-2.497 0.406-0.691 0.978-1.269 1.656-1.669 0.672-0.4 1.428-0.616 2.191-0.628h0.006c0.009 0 0.022 0 0.031 0 0.584 0 1.287 0.272 1.969 0.537 0.756 0.294 1.534 0.597 2.356 0.597 0.775 0 1.516-0.284 2.3-0.588 0.762-0.303 1.625-0.634 2.375-0.634zM20.85 9.262c-1.916 0-3.694 1.213-4.675 1.213-1.034 0-2.631-1.134-4.328-1.134-0.022 0-0.044 0-0.066 0-2.259 0.034-4.344 1.284-5.506 3.262-2.347 3.981-0.6 9.881 1.688 13.113 1.1 1.55 2.406 3.291 4.109 3.291 0.031 0 0.063 0 0.094-0.003 1.688-0.066 2.325-1.066 4.362-1.066 2.009 0 2.594 1.034 4.316 1.034 0.025 0 0.053 0 0.081 0 1.813-0.031 2.962-1.609 4.072-3.194 1.284-1.834 1.813-3.609 1.844-3.7-0.041-0.019-3.534-1.328-3.572-5.262v0c-0.034-3.297 2.75-4.878 2.875-4.956-1.566-2.234-4.003-2.541-4.869-2.578-0.144-0.012-0.284-0.019-0.425-0.019v0z"></path>
<path d="M15.966 8.988c-0.2-1.497 0.553-3.050 1.413-4.028 0.962-1.1 2.581-1.916 3.922-1.969 0.172 1.522-0.456 3.053-1.384 4.153-0.931 1.1-2.456 1.956-3.95 1.844v0z"></path>
</svg>
