<!-- Generated by IcoMoon.io -->
<svg version="1.1" xmlns="http://www.w3.org/2000/svg" width="32" height="32" viewBox="0 0 32 32">
<title>ipa</title>
<path d="M4.603 12.528l-2.478 9.25c-0.063 0.238 0.116 0.472 0.362 0.472h3.222c0.169 0 0.319-0.113 0.362-0.278l2.478-9.25c0.063-0.238-0.116-0.472-0.363-0.472h-3.222c-0.169 0-0.319 0.113-0.362 0.278z"></path>
<path d="M26.666 9.863l-11.509 11.75c-0.231 0.238-0.066 0.637 0.269 0.637h1.419c0.1 0 0.197-0.041 0.269-0.113l6.672-6.819c0.269-0.275 0.731-0.012 0.631 0.359l-0.406 1.516c-0.044 0.163-0.194 0.278-0.363 0.278h-1.012c-0.103 0-0.203 0.044-0.275 0.119l-1.172 1.25c-0.225 0.241-0.056 0.631 0.275 0.631h1.447c0.247 0 0.425 0.234 0.363 0.472l-0.494 1.837c-0.063 0.238 0.116 0.472 0.363 0.472h3.222c0.169 0 0.319-0.113 0.363-0.278l3.147-11.75c0.063-0.238-0.116-0.472-0.363-0.472h-2.581c-0.097-0.003-0.194 0.037-0.262 0.109z"></path>
<path d="M18.772 16.428l0.006-0.006c0.478-0.484 0.831-1.075 1.031-1.722l0.625-2.016c0.45-1.456-0.637-2.931-2.159-2.931h-12.641c-0.169 0-0.319 0.113-0.362 0.278l-0.334 1.25c-0.063 0.238 0.116 0.472 0.362 0.472h9.831c0.847 0 1.463 0.803 1.244 1.622l-0.131 0.491c-0.219 0.819-0.963 1.387-1.809 1.387h-0.075c-0.247 0-0.425-0.234-0.363-0.472l0.55-2.056c0.063-0.238-0.116-0.472-0.363-0.472h-3.219c-0.169 0-0.319 0.113-0.363 0.278l-2.478 9.25c-0.063 0.238 0.116 0.472 0.363 0.472h3.222c0.169 0 0.319-0.113 0.363-0.278l1.191-4.444c0.044-0.163 0.194-0.278 0.363-0.278h3.184c0.738-0.003 1.444-0.3 1.962-0.825z"></path>
</svg>
