<!-- Generated by IcoMoon.io -->
<svg version="1.1" xmlns="http://www.w3.org/2000/svg" width="32" height="32" viewBox="0 0 32 32">
<title>ipafile</title>
<path d="M17.103 19.544c-0.122-0.256-0.284-0.459-0.484-0.603-0.225-0.178-0.453-0.297-0.681-0.356l-0.016-0.003c-0.209-0.041-0.431-0.063-0.656-0.063h-2.184v5.841h1.309v-2.084h0.984c0.622-0.012 1.106-0.219 1.438-0.616 0.316-0.369 0.478-0.788 0.478-1.241 0.003-0.334-0.063-0.628-0.188-0.875zM15.825 20.819c-0.103 0.122-0.262 0.184-0.488 0.188h-0.947v-1.225h0.925c0.172-0.003 0.316 0.031 0.441 0.113l0.009 0.006c0.069 0.041 0.122 0.091 0.159 0.159 0.041 0.087 0.059 0.2 0.059 0.334 0 0.156-0.053 0.297-0.159 0.425z"></path>
<path d="M20.806 18.519h-1.028l-2.122 5.838h1.394l0.409-1.194h1.669l0.413 1.194h1.387l-2.122-5.837zM19.863 21.944l0.434-1.309 0.434 1.309h-0.869z"></path>
<path d="M9.694 18.531h1.313v5.813h-1.313v-5.813z"></path>
<path d="M15.988 9.7c-0.144-1.059 0.391-2.159 1-2.85 0.681-0.778 1.828-1.356 2.778-1.394 0.122 1.078-0.325 2.163-0.981 2.941-0.659 0.775-1.741 1.381-2.797 1.303v0z"></path>
<path d="M27 5v22h-22v-22h22zM28 3h-24c-0.553 0-1 0.447-1 1v24c0 0.553 0.447 1 1 1h24c0.553 0 1-0.447 1-1v-24c0-0.553-0.447-1-1-1v0z"></path>
<path d="M21.228 16c-0.044-0.234-0.069-0.488-0.072-0.756v0c-0.022-2.334 1.947-3.453 2.038-3.509-1.106-1.581-2.834-1.8-3.447-1.825-0.1-0.009-0.2-0.016-0.3-0.016-1.356 0-2.616 0.859-3.309 0.859-0.734 0-1.863-0.803-3.063-0.803-0.016 0-0.031 0-0.047 0-1.6 0.025-3.075 0.909-3.9 2.309-0.65 1.103-0.856 2.416-0.769 3.738l12.869 0.003z"></path>
</svg>
