<svg xmlns="http://www.w3.org/2000/svg" xmlns:xlink="http://www.w3.org/1999/xlink" viewBox="0 0 64 64"><defs><style>.cls-1{fill:none;}.cls-2{clip-path:url(#clip-path);}.cls-3{fill:#017fc4;}.cls-4{fill:#009af8;}.cls-5{fill:#fff;}.cls-6{fill:#f1f2f3;}.cls-7{fill:#f4656b;}.cls-8{fill:#4dc266;}.cls-9{fill:#f3ce48;}</style><clipPath id="clip-path"><circle class="cls-1" cx="31.93" cy="32.06" r="28"/></clipPath></defs><title>研发商店-彩色logo</title><g id="图层_78" data-name="图层 78"><g class="cls-2"><circle class="cls-3" cx="31.93" cy="32.06" r="28"/><path class="cls-4" d="M63.16,42.47a5.86,5.86,0,0,0-9.07-4.92,9.93,9.93,0,0,0-19.83.85v.32a5.85,5.85,0,0,0-7.83-1.1,9.42,9.42,0,0,0-11.74-2.74A7.46,7.46,0,0,0-.07,36.37V66H63.16v-23h0C63.15,42.77,63.16,42.62,63.16,42.47Z"/></g><polygon class="cls-5" points="17.24 34.09 21.93 36.05 42.48 24.3 23.5 36.78 34.92 41.86 46.38 21.75 17.24 34.09"/><polygon class="cls-6" points="25.61 42.9 27.86 39.74 22.9 37.48 25.61 42.9"/><circle class="cls-7" cx="52.48" cy="52.61" r="2.94"/><path class="cls-8" d="M15.77,46.65H14.7V45.58a1.26,1.26,0,0,0-2.51,0v1.07H11.12a1.26,1.26,0,1,0,0,2.51h1.07v1.08a1.26,1.26,0,0,0,2.51,0V49.16h1.07a1.26,1.26,0,1,0,0-2.51Z"/><circle class="cls-9" cx="29.03" cy="17.09" r="2"/></g></svg>