<svg viewBox="0 0 1024 1024" version="1.1" xmlns="http://www.w3.org/2000/svg"><path d="M825.6 809.6c0 12.8-9.6 22.4-22.4 22.4H249.6c-12.8 0-22.4-9.6-22.4-22.4V483.2l-131.2 128h67.2V832c0 35.2 28.8 64 64 64h598.4c35.2 0 64-28.8 64-64v-281.6l-64 60.8V809.6zM227.2 214.4C227.2 201.6 236.8 192 249.6 192h560c12.8 0 22.4 9.6 22.4 22.4V512l131.2-137.6h-73.6V192c0-35.2-28.8-64-64-64H227.2c-35.2 0-64 28.8-64 64v252.8l64-64V214.4zM588.8 736c3.2-16 3.2-35.2 6.4-51.2 16 6.4 137.6-99.2 38.4-140.8l0 0c-19.2 32-48 67.2-89.6 99.2 6.4 9.6 9.6 19.2 16 28.8-22.4 16-41.6 28.8-44.8 32 0 0-9.6-9.6-19.2-32-12.8 6.4-25.6 12.8-41.6 16-76.8 25.6-102.4-99.2-92.8-124.8 9.6-19.2 38.4-57.6 102.4-73.6 0-12.8 3.2-22.4 6.4-35.2-38.4 0-80-3.2-121.6-19.2 9.6-16 16-32 22.4-44.8 0 0 35.2 16 112 9.6 6.4-25.6 19.2-51.2 28.8-73.6l44.8 19.2c0 0-9.6 16-16 44.8 25.6-6.4 54.4-12.8 80-22.4 12.8 25.6 32 38.4 32 38.4s-54.4 28.8-128 41.6c-3.2 12.8-3.2 22.4-6.4 35.2 25.6 0 51.2 0 83.2 3.2 12.8-12.8 9.6-32 9.6-32l48 6.4c0 0-3.2 12.8-12.8 35.2 16 6.4 57.6 25.6 64 80C729.6 636.8 649.6 742.4 588.8 736L588.8 736 588.8 736zM406.4 585.6c0 12.8 9.6 57.6 25.6 57.6s38.4-12.8 38.4-12.8-9.6-48-9.6-83.2C432 553.6 406.4 572.8 406.4 585.6L406.4 585.6zM572.8 537.6c-6.4-3.2-57.6 0-57.6 0-6.4 12.8 6.4 57.6 6.4 57.6S582.4 540.8 572.8 537.6z"/></svg>