<!-- Generated by IcoMoon.io -->
<svg version="1.1" xmlns="http://www.w3.org/2000/svg" width="32" height="32" viewBox="0 0 32 32">
<title>key</title>
<path d="M27.42 26l2.3-2.3c0.4-0.4 0.4-1.020 0-1.42s-1.020-0.4-1.42 0l-2.3 2.3-2.58-2.58 2.3-2.3c0.4-0.4 0.4-1.020 0-1.42s-1.020-0.4-1.42 0l-2.3 2.3-4-4c1.24-1.54 2-3.46 2-5.58 0-4.96-4.040-9-9-9s-9 4.040-9 9 4.040 9 9 9c2.12 0 4.040-0.76 5.58-2l11.7 11.7c0.2 0.2 0.46 0.3 0.7 0.3s0.52-0.1 0.7-0.3c0.4-0.4 0.4-1.020 0-1.42l-2.26-2.28zM11 18c-3.86 0-7-3.14-7-7s3.14-7 7-7 7 3.14 7 7-3.14 7-7 7z"></path>
</svg>
