<!-- Generated by IcoMoon.io -->
<svg version="1.1" xmlns="http://www.w3.org/2000/svg" width="32" height="32" viewBox="0 0 32 32">
<title>line-chart</title>
<path d="M31 26h-29v-9.3l5.66-5.14c0.4 0.26 0.84 0.44 1.34 0.44 0.46 0 0.86-0.16 1.22-0.36l8.38 8.38c-0.040 0.16-0.1 0.32-0.1 0.48 0 1.38 1.12 2.5 2.5 2.5s2.5-1.12 2.5-2.5c0-0.18-0.060-0.32-0.1-0.48l5.2-5.2c0.28 0.1 0.58 0.18 0.9 0.18 1.38 0 2.5-1.12 2.5-2.5s-1.12-2.5-2.5-2.5-2.5 1.12-2.5 2.5c0 0.32 0.080 0.62 0.18 0.9l-4.96 4.96c-0.36-0.2-0.76-0.36-1.22-0.36s-0.86 0.16-1.22 0.36l-8.38-8.38c0.040-0.16 0.1-0.32 0.1-0.48 0-1.38-1.12-2.5-2.5-2.5s-2.5 1.12-2.5 2.5c0 0.12 0.060 0.24 0.080 0.36l-4.58 4.14v-9c0-0.56-0.44-1-1-1s-1 0.44-1 1v22c0 0.56 0.44 1 1 1h30c0.56 0 1-0.44 1-1s-0.44-1-1-1z"></path>
</svg>
