<!-- Generated by IcoMoon.io -->
<svg version="1.1" xmlns="http://www.w3.org/2000/svg" width="32" height="32" viewBox="0 0 32 32">
<title>linux</title>
<path d="M17.1 7.15v0c0 0 0.050 0 0 0v0z"></path>
<path d="M17.15 7.1c0 0 0 0.050 0.050 0.050 0.1 0.050 0.15 0.050 0.2 0.1-0.1-0.050-0.2-0.15-0.25-0.15z"></path>
<path d="M14.050 8.65c0.15 0 0-0.3 0.3-0.3-0.5 0-0.5 0.3-0.3 0.3z"></path>
<path d="M13.65 7.55c0.050 0 0.050 0.050 0 0 0-0.050 0-0.050 0 0z"></path>
<path d="M27.2 25.25c-0.45-0.3-1.4-0.6-1.55-2.65-0.45 0.3-0.3 2.3 0.75 2.65 1.25 0.3 2 1.1-0.3 1.85-1.4 0.45-1.7 0.6-2.95 1.7s-3.1 0.6-2.8-1.55c0.15-1.25 0.3-2.15 0-3.1-0.15-0.45-0.3-1.1-0.15-1.55 0.15-0.95 0.6-1.1 1.1-0.3 0.3 0.45 0.45 1.1 1.4 1.1 1.55 0.15 1.85-1.55 2.3-1.55s0.75-0.95 0.45-2.5c-0.3-1.7-1.25-4.35-2.5-5.6-0.95-1.1-1.55-2-2-3.4-0.3-1.1-0.45-2.15-0.45-3.25 0.15-1.4-0.6-3.25-1.85-4.2-0.75-0.6-2-0.95-3.1-0.95-0.6 0-1.25 0.15-1.7 0.45-1.85 1.1-2 2.5-2 4.050 0.15 1.4 0.15 3.25 0.3 4.8-0.15 0.75-1.25 2.15-1.85 3.1-0.95 0.95-1.4 2.65-2 4.2-0.3 0.75-0.95 1.1-0.95 2.15 0 0.3 0 0.95 0.3 0.75 1.1-0.95 2.3 1.25 4.35 4.35 0.45 0.45 1.7 3.1-0.6 3.4-0.75 0.15-2-0.45-3.25-0.75-1.1-0.3-2.15-0.45-2.8-0.6-0.45-0.15-0.6-0.3-0.6-0.45-0.15-0.45 0.45-1.1 0.45-1.55s-0.15-0.75-0.3-1.1c-0.3-0.45-0.3-0.75-0.15-0.95 0-0.15 0.3-0.15 0.6-0.15 0.45 0 1.1 0 1.4-0.3 0.45-0.3 0.6-0.95 0.45-1.7 0 0.75-0.15 1.1-0.75 1.4s-1.4 0.15-1.85 0.45c-0.45 0.45 0.15 1.55 0.15 2.3-0.15 0.6-0.75 1.25-0.45 1.85s1.55 0.6 2.8 0.95c2 0.3 3.1 1.1 4.050 1.1 1.25 0 1.55-1.4 3.55-1.4h3.8c1.4 0 0.95 0.75 1.85 1.25 0.75 0.45 2.15 0.3 2.5 0 0.45-0.45 1.55-1.4 2.5-1.85 1.050-0.6 3.85-1.55 1.85-2.45zM19.9 28.050c-0.45 0-0.45-0.3-0.3-0.75 0.15-0.3 0.3-0.95 0.3-1.4s0-0.75-0.15-0.75-0.3 0-0.6 0.45c-0.6 0.95-1.7 1.25-2.8 1.4-1.1 0-2.15 0-2.65-0.6-0.15-0.15-0.45 0.15-0.45 0.15-0.15 0 0.15 0.15 0.3 0.45 0.15 0.45 0.45 1.1-0.15 1.4 0-1.55-0.45-1.55-0.95-2.5 0.95 0 1.1-1.1 0.6-1.55-0.45-0.45-2.5-2-3.1-2.65-0.3-0.3-0.6-0.45-0.75-0.75-0.3-0.75-0.6-1.85-0.15-2.65v0.15c-0.3 1.7 0.6 2.95 0.95 2.3 0.15-0.45 0-1.4 0.15-2 0.15-1.25 1.25-3.55 1.85-3.7-0.75-1.25 0.75-2.3 0.75-3.55 0-0.75 0.6 0.95 1.4 1.4 0.75 0.3 1.55-0.75 2.95-1.55 0.3-0.15 0.75-0.3 0.75-0.45-0.15-0.6-1.7 0.95-2.95 0.95-0.6 0-0.95-0.15-1.1-0.3-0.75-0.6 0 0 1.1-0.3 0.45 0 0.6-0.15 1.1-0.3s0.95-0.45 1.55-0.6c0.45-0.15 0.3-0.45 0.15-0.45h-0.3c-0.3 0.45-1.4 0.6-1.7 0.75-0.45 0.15-0.95 0.3-1.55 0.3-0.95 0-0.6-0.45-1.4-0.95-0.3 0-0.15-0.45 0.15-0.6 0-0.15 0.45-0.3 0.6-0.6l0.45-0.45c0.15 0 0.15-1.25-0.45-1.25s-0.6 0.3-0.6 0.75 0.15 0.75 0.3 0.75 0 0.3-0.15 0.3-0.45-0.95-0.45-1.4c0-0.45 0.3-1.4 0.95-1.25 0.6 0 0.95 0.6 0.95 1.85 0 0.15 0.95-0.15 1.25 0.15 0.15 0.3-0.75-2 1.25-1.85 0.6 0 1.25 0.3 1.4 1.55 0 0 0.15 0.95-0.15 1.1-0.45 0.15-0.75 0-0.45-0.45 0.1-0.35 0.050-0.95-0.35-1.25 0.1 0.1 0.15 0.2 0.050 0.3 0 0.15-0.15 0.15-0.15 0.15 0-0.15 0-0.4-0.1-0.55h-0.050c0 0.1-0.1 0.1-0.050 0-0.1 0-0.15-0.050-0.3-0.050-0.75 0-0.75 1.55-0.45 1.55 0.15 0 0.75 0.3 1.25 0.45 1.25 0.3 0.3 1.1 0.45 2 0.15 1.1 0.95 0.75 1.55 3.55 0.15 0.15 0.75 0.3 1.25 2.5 0.45 1.85-0.15 3.4 1.1 3.25 0.3 0 0.6 0 0.75-0.6 0.45-1.4-0.15-3.1-0.75-4.35-0.45-0.6-0.75-1.1-0.95-1.25 0.75 0.45 1.7 1.85 1.85 2.8 0.15 1.25 0.45 1.85 0 3.25 0.15 0 0.75 0.3 0.75 0.6-0.65-0.5-2.65-0.65-2.65 0.6-0.3 0-0.6 0-0.75 0.3-0.75 0.95 0 2.65 0.15 3.55-0.15 0.95-0.35 1.7-0.5 2.65zM13.7 7.45c0 0 0.15 0.15 0.15 0.6-0.15 0-0.15-0.15-0.15-0.3 0-0.050-0.050-0.15-0.050-0.15-0.1-0.050-0.050-0.15 0.050-0.15z"></path>
<path d="M15.25 8.5c0.3 0 0.3 0.15 0.45 0.15 0.2-0.15 0.050-0.45-0.45-0.15z"></path>
</svg>
