<!-- Generated by IcoMoon.io -->
<svg version="1.1" xmlns="http://www.w3.org/2000/svg" width="32" height="32" viewBox="0 0 32 32">
<title>list</title>
<path d="M4.571 3.429c0 1.262-1.023 2.286-2.286 2.286s-2.286-1.023-2.286-2.286c0-1.262 1.023-2.286 2.286-2.286s2.286 1.023 2.286 2.286z"></path>
<path d="M30.857 4.571h-20.571c-0.631 0-1.143-0.512-1.143-1.143s0.512-1.143 1.143-1.143h20.571c0.631 0 1.143 0.512 1.143 1.143s-0.512 1.143-1.143 1.143z"></path>
<path d="M4.571 16c0 1.262-1.023 2.286-2.286 2.286s-2.286-1.023-2.286-2.286c0-1.262 1.023-2.286 2.286-2.286s2.286 1.023 2.286 2.286z"></path>
<path d="M30.857 17.143h-20.571c-0.631 0-1.143-0.512-1.143-1.143s0.512-1.143 1.143-1.143h20.571c0.631 0 1.143 0.512 1.143 1.143s-0.512 1.143-1.143 1.143z"></path>
<path d="M4.571 28.571c0 1.262-1.023 2.286-2.286 2.286s-2.286-1.023-2.286-2.286c0-1.262 1.023-2.286 2.286-2.286s2.286 1.023 2.286 2.286z"></path>
<path d="M30.857 29.714h-20.571c-0.631 0-1.143-0.512-1.143-1.143s0.512-1.143 1.143-1.143h20.571c0.631 0 1.143 0.512 1.143 1.143s-0.512 1.143-1.143 1.143z"></path>
</svg>
