<?xml version="1.0" encoding="UTF-8" standalone="no"?>
<!-- Created with Inkscape (http://www.inkscape.org/) -->

<svg
   xmlns:dc="http://purl.org/dc/elements/1.1/"
   xmlns:cc="http://creativecommons.org/ns#"
   xmlns:rdf="http://www.w3.org/1999/02/22-rdf-syntax-ns#"
   xmlns:svg="http://www.w3.org/2000/svg"
   xmlns="http://www.w3.org/2000/svg"
   xmlns:sodipodi="http://sodipodi.sourceforge.net/DTD/sodipodi-0.dtd"
   xmlns:inkscape="http://www.inkscape.org/namespaces/inkscape"
   id="svg2"
   version="1.1"
   inkscape:version="0.91+devel r14080 custom"
   width="512"
   height="512"
   sodipodi:docname="preferences-desktop-locale.svg"
   viewBox="0 0 512 512">
  <metadata
     id="metadata8">
    <rdf:RDF>
      <cc:Work
         rdf:about="">
        <dc:format>image/svg+xml</dc:format>
        <dc:type
           rdf:resource="http://purl.org/dc/dcmitype/StillImage" />
        <dc:title />
      </cc:Work>
    </rdf:RDF>
  </metadata>
  <defs
     id="defs6" />
  <sodipodi:namedview
     pagecolor="#ffffff"
     bordercolor="#666666"
     borderopacity="1"
     objecttolerance="10"
     gridtolerance="10"
     guidetolerance="10"
     inkscape:pageopacity="0"
     inkscape:pageshadow="2"
     inkscape:window-width="1920"
     inkscape:window-height="1008"
     id="namedview4"
     showgrid="false"
     inkscape:zoom="0.75390625"
     inkscape:cx="162.09978"
     inkscape:cy="170.14083"
     inkscape:window-x="0"
     inkscape:window-y="32"
     inkscape:window-maximized="1"
     inkscape:current-layer="svg2"
     inkscape:document-units="px" />
  <path
     inkscape:connector-curvature="0"
     id="path2996"
     d="M 155.85707,458.10464 C 132.10347,446.50444 113.62465,433.27783 94.571392,414.23814 15.768929,329.50397 9.7031737,201.6981 79.309867,113.43394 c 7.697178,-9.56037 24.199573,-25.983131 33.806313,-33.643168 28.39903,-22.6443 65.67506,-40.088309 97.37868,-45.570164 24.80441,-4.288917 64.86415,-4.294881 90.32865,-0.01344 31.5734,5.308546 69.43776,22.953267 97.81931,45.583607 9.60673,7.660037 26.10913,24.082805 33.8063,33.643165 26.31861,32.68936 44.38159,74.53495 47.50995,110.06385 1.3879,15.7625 1.3879,48.25869 0,64.02121 -3.11387,35.36434 -21.24711,77.26245 -47.62268,110.03548 -31.96366,39.71651 -80.91518,64.33147 -129.30975,78.81818 -48.87734,11.04583 -106.61147,1.27346 -147.16957,-18.26802 z"
     style="fill:#367bf0;fill-opacity:1;stroke-width:1.01702833"
     sodipodi:nodetypes="cccsssssssscc" />
  <path
     style="opacity:1;fill:#ffffff;fill-opacity:1;stroke:#585858;stroke-width:0;stroke-miterlimit:4;stroke-dasharray:none;stroke-opacity:1"
     d="m 234.01643,47.167152 c -2.53751,0.0489 -5.37791,0.364971 -8.97874,0.890488 -36.64328,5.347834 -72.60016,21.144636 -102.16974,44.882984 -7.70283,6.183799 -24.253239,22.265506 -27.309817,26.537346 l -1.746842,2.44154 2.161546,3.16445 c 1.188728,1.74092 2.161546,3.75847 2.161546,4.48362 0,3.79325 9.121517,4.2231 17.556447,0.82619 8.53904,-3.43886 13.41104,-3.60313 22.40184,-0.7541 5.41616,1.71629 8.32002,2.20326 10.43215,1.75175 6.51547,-1.39279 8.16062,-3.54825 9.99593,-13.09428 0.71801,-3.73459 2.1288,-7.94189 3.13571,-9.34915 3.1379,-4.38551 19.79183,-14.543774 41.1085,-25.075935 22.52337,-11.128372 28.43852,-12.957201 28.43852,-8.791873 0,2.551085 -4.22665,6.448136 -25.28325,23.310546 -13.28076,10.635412 -17.89682,15.055902 -17.89682,17.135582 0,0.59432 0.52387,1.79576 1.16586,2.66951 2.77215,3.77284 11.61649,1.37116 46.86155,-12.72795 40.55219,-16.222127 45.7833,-18.592453 46.1182,-20.892387 0.85627,-5.879985 -2.68027,-9.05898 -10.82533,-9.729128 -5.29927,-0.435997 -5.3401,-0.461202 -7.30231,-4.39204 -1.14642,-2.296572 -2.06012,-5.917223 -2.17915,-8.639886 -0.24512,-5.606157 -1.31379,-6.661144 -10.63951,-10.489064 -7.50837,-3.081954 -11.6238,-4.265789 -17.20629,-4.158213 z m 100.69089,48.441042 c -3.98849,0.172707 -9.95852,3.623679 -20.40852,10.681966 -5.71533,3.86035 -11.72889,8.39883 -13.36442,10.08571 -3.29356,3.39697 -3.30452,3.66135 -0.51447,13.72951 1.50027,5.41382 1.40595,8.57223 -0.33646,11.22952 -0.4153,0.63339 -7.45696,3.63144 -15.6492,6.66405 -8.19221,3.03262 -16.99166,6.57325 -19.55369,7.86826 -5.44058,2.75001 -11.2264,7.7135 -13.02404,11.17301 -1.92738,3.70914 -1.50564,10.41502 0.6553,10.41502 0.46794,0 5.22757,-2.02431 10.57496,-4.49726 9.33364,-4.31641 9.95516,-4.47643 15.57682,-4.03936 15.28203,1.18812 54.31569,19.13499 63.35777,29.13088 2.18948,2.42043 7.59411,9.13575 12.01077,14.92397 10.13994,13.28887 21.86751,25.4426 28.25463,29.28091 6.54702,3.93439 13.48047,5.52618 19.29351,4.42906 7.38018,-1.39287 9.55202,-4.86175 7.2182,-11.52959 -0.72433,-2.06941 -1.32312,-4.22886 -1.33018,-4.79733 -0.027,-2.17977 2.8048,-3.78994 6.6646,-3.78994 3.52409,0 4.53179,0.53735 10.29131,5.48128 9.33026,8.00903 20.61028,17.33211 26.65256,22.0284 6.62705,5.1508 9.76066,5.28439 12.10661,0.51247 3.54014,-7.201 3.18923,-20.6025 -1.08762,-41.61526 -3.51616,-17.27534 -12.81575,-43.06877 -20.07402,-55.67408 -6.77744,-11.77029 -39.91927,-46.68339 -52.06882,-54.85178 -6.04756,-4.065894 -6.85537,-4.359907 -11.90708,-4.347217 -4.83041,0.01217 -6.68513,0.61717 -17.07329,5.578707 -14.29276,6.82642 -15.02497,6.78414 -18.61668,-1.09898 -2.15228,-4.723861 -4.12929,-7.124315 -7.64855,-6.971926 z M 259.45421,197.80788 c -5.31274,0.0414 -10.63783,0.99198 -16.46883,2.83125 -20.6524,6.51433 -44.44748,31.83234 -44.36745,47.20566 0.0626,12.01877 12.41126,21.44912 38.75525,29.59657 6.54332,2.02366 15.1834,4.68868 19.19961,5.92166 4.98767,1.53123 8.10929,3.06328 9.84923,4.83436 6.4248,6.53973 12.31309,33.75816 15.03106,69.48152 1.85025,24.31883 4.9309,33.95729 11.78776,36.87443 3.23905,1.378 5.52034,0.99669 11.87383,-1.99142 10.09867,-4.7495 27.60202,-24.83344 47.8005,-54.84789 5.91878,-8.79518 11.91034,-17.45964 13.31551,-19.25365 1.45319,-1.85534 6.87693,-5.93013 12.57806,-9.45049 12.91712,-7.97613 14.03791,-9.32777 15.39295,-18.55023 1.27977,-8.71017 2.16897,-7.63175 -13.43681,-16.32694 -12.67023,-7.05955 -14.5433,-9.1368 -23.06497,-25.57281 -3.29149,-6.3484 -7.62116,-13.32894 -9.62034,-15.51438 l -3.63453,-3.97505 -12.77758,-2.52338 c -22.06132,-4.35631 -34.25723,-8.58548 -39.87613,-13.83083 -1.3329,-1.24429 -2.42994,-3.07743 -2.43736,-4.07247 -0.0217,-2.90216 -0.91301,-3.5848 -8.40558,-6.44388 -7.85165,-2.99608 -14.66352,-4.44522 -21.49418,-4.39203 z m -200.509348,1.13406 c -2.187653,0 -8.981369,20.63442 -11.404357,34.64138 -4.716826,27.26732 -0.896749,61.9452 10.126992,91.93276 2.999369,8.1591 12.492029,19.93184 20.173781,25.01943 3.208993,2.12531 3.550413,1.85911 3.550413,-2.77085 0,-5.29126 2.165427,-8.79404 13.12577,-21.21975 12.030209,-13.63862 17.184579,-25.61502 15.586599,-36.21971 -0.65835,-4.36897 -2.64091,-6.46973 -18.13742,-19.21859 -7.167275,-5.89646 -10.597175,-10.87229 -18.914019,-27.43758 -8.074409,-16.08238 -11.862783,-27.23391 -12.660207,-37.27193 -0.325703,-4.09998 -0.976623,-7.45516 -1.447552,-7.45516 z M 260.14864,426.90516 c -8.28801,0.13505 -17.37916,1.68306 -27.53869,4.5869 -6.72999,1.92359 -26.44846,8.77095 -36.21421,12.57402 l -2.64472,1.02884 3.35676,2.91114 c 9.07436,7.8694 26.89734,14.03789 47.7555,16.52762 5.85181,0.69851 19.5006,0.52578 27.5739,-0.34879 14.95909,-1.6205 34.64209,-6.22596 38.45205,-8.99842 1.54464,-1.12401 1.236,-1.63292 -4.87082,-8.05727 -13.28905,-13.98005 -27.63614,-20.52114 -45.86977,-20.22404 z"
     id="rect4161"
     inkscape:connector-curvature="0"
     sodipodi:nodetypes="ssscccsssssssssssssssssssssscssssssssssscsssssssssssssssssssssssssscccscssssssssssssssscccsssss" />
</svg>
