<!-- Generated by IcoMoon.io -->
<svg version="1.1" xmlns="http://www.w3.org/2000/svg" width="24" height="32" viewBox="0 0 24 32">
<title>lock</title>
<path d="M21 12h-1v-3c0.008-0.137 0.012-0.297 0.012-0.458 0-4.535-3.526-8.246-7.986-8.541-4.512 0.295-8.038 4.006-8.038 8.541 0 0.161 0.004 0.321 0.013 0.48l-0.001 2.978h-1c-1.657 0-3 1.343-3 3v14c0 1.657 1.343 3 3 3h18c1.657 0 3-1.343 3-3v-14c0-1.657-1.343-3-3-3zM6 9c-0.010-0.138-0.016-0.3-0.016-0.463 0-3.432 2.635-6.248 5.992-6.536 3.406 0.288 6.041 3.104 6.041 6.536 0 0.163-0.006 0.324-0.018 0.484l0.001 2.979h-12zM22 29c0 0.552-0.448 1-1 1h-18c-0.552 0-1-0.448-1-1v-14c0-0.552 0.448-1 1-1h18c0.552 0 1 0.448 1 1z"></path>
<path d="M12 19c-0.552 0-1 0.448-1 1v4c0 0.552 0.448 1 1 1s1-0.448 1-1v-4c0-0.552-0.448-1-1-1z"></path>
</svg>
