<!-- Generated by IcoMoon.io -->
<svg version="1.1" xmlns="http://www.w3.org/2000/svg" width="32" height="32" viewBox="0 0 32 32">
<title>log</title>
<path d="M28 3h-22.5c-0.55 0-1 0.45-1 1v3.5h2v-2.5h20.5v22h-20.5v-2.5h-2v3.5c0 0.55 0.45 1 1 1h22.5c0.55 0 1-0.45 1-1v-24c0-0.55-0.45-1-1-1z"></path>
<path d="M3 9.5h5.2v2h-5.2v-2z"></path>
<path d="M11.75 8.15h11.5v2h-11.5v-2z"></path>
<path d="M11.75 14.9h11.5v2h-11.5v-2z"></path>
<path d="M11.75 21.7h11.5v2h-11.5v-2z"></path>
<path d="M3 20.5h5.2v2h-5.2v-2z"></path>
<path d="M4.5 13.5h2v5h-2v-5z"></path>
</svg>
