<!-- Generated by IcoMoon.io -->
<svg version="1.1" xmlns="http://www.w3.org/2000/svg" width="32" height="32" viewBox="0 0 32 32">
<title>logo-turbo</title>
<path d="M24.684 5.928c0.034 0.034 0.066 0.066 0.1 0.1 0.509 0.509 0.972 1.050 1.394 1.622h1.672l-1 1c0.313 0.509 0.594 1.044 0.837 1.594l4.313-4.313-7.316-0.003z"></path>
<path d="M26.709 11.238h-3.547l-2.081 2.081c-0.363-0.441-0.781-0.838-1.244-1.188l2.616-2.616h3.413c-0.387-0.662-0.834-1.284-1.331-1.862h-8.391c-2.356 0-4.569 0.916-6.234 2.581s-2.581 3.878-2.581 6.234c0 1.837 0.716 3.566 2.016 4.866s3.028 2.016 4.866 2.016c2.941 0 5.331-2.391 5.331-5.331 0-2.256-1.834-4.094-4.094-4.094-1.709 0-3.103 1.391-3.103 3.103 0 1.275 1.037 2.313 2.313 2.313 0.925 0 1.678-0.753 1.678-1.678 0-0.647-0.525-1.172-1.172-1.172-0.422 0-0.762 0.341-0.762 0.762 0 0.475-0.384 0.859-0.859 0.859s-0.859-0.384-0.859-0.859c0-1.369 1.113-2.481 2.481-2.481 1.594 0 2.891 1.297 2.891 2.891 0 1.872-1.525 3.397-3.397 3.397-2.222 0-4.031-1.809-4.031-4.031 0-2.662 2.166-4.825 4.825-4.825 1.231 0 2.378 0.387 3.319 1.044 0.466 0.325 0.875 0.709 1.222 1.141 0.291 0.363 0.541 0.762 0.738 1.191 0.259 0.563 0.431 1.178 0.503 1.834 0.022 0.2 0.031 0.403 0.031 0.606 0 1.884-0.734 3.656-2.066 4.988-1.334 1.331-3.103 2.066-4.988 2.066-2.297 0-4.456-0.894-6.081-2.519s-2.519-3.784-2.519-6.081c0-1.425 0.278-2.803 0.828-4.103 0.528-1.256 1.288-2.384 2.256-3.35s2.094-1.725 3.35-2.256c1.3-0.55 2.681-0.828 4.103-0.828h6.594c-2.181-1.719-4.934-2.747-7.928-2.747-7.075 0-12.813 5.737-12.813 12.813s5.737 12.813 12.813 12.813 12.813-5.738 12.813-12.813c0-1.684-0.325-3.291-0.916-4.762zM22.512 16.128c-0.153-0.588-0.372-1.144-0.653-1.662l2.031-2.034h2.313l-3.691 3.697z"></path>
</svg>
