<!-- Generated by IcoMoon.io -->
<svg version="1.1" xmlns="http://www.w3.org/2000/svg" width="32" height="32" viewBox="0 0 32 32">
<title>logo-apk</title>
<path d="M16 2l-11.75 7v14l11.75 7 11.75-7v-14l-11.75-7zM16 4.894l9.322 5.553v1.037h-16.275c-0.078-0.012-1.997-0.256-2.366 2.072v-3.113l9.319-5.55zM21.65 14.406c0 0-0.031 0.344-0.212 0.931-0.166 0.528-0.503 0.794-1.031 0.787l-1.978 0.016 0.431-1.731h2.791v-0.003zM16 27.106l-9.322-5.553v-7.128h3.641l-1.938 7.766h2.203c0 0 0.825 0.191 1.234-1.462 0.447-1.769 1.662-6.269 1.675-6.306h2.378l-1.938 7.766h2.203c0 0 0.825 0.191 1.234-1.462 0.147-0.581 0.378-1.459 0.619-2.375v-0.003h2.872c2.009-0.125 3.291-1.272 3.841-3.444 0.303-1.203 0.506-2.128 0.622-2.713v9.356l-9.325 5.559z"></path>
</svg>
