<!-- Generated by IcoMoon.io -->
<svg version="1.1" xmlns="http://www.w3.org/2000/svg" width="32" height="32" viewBox="0 0 32 32">
<title>logo-store</title>
<path d="M28.247 14.25l0.369-1.956h-4.728v1.069h3.269l-0.228 1.069h-21.962l-0.228-1.069h14.353v-1.069h-15.813l0.369 1.956h-1.669l1.691 13.859c0.097 0.803 0.778 1.406 1.588 1.406h21.559c0.809 0 1.491-0.603 1.587-1.406l1.691-13.859h-1.847zM23.9 18.175c-0.684 3.719-3.947 6.544-7.863 6.544s-7.178-2.825-7.863-6.544c-0.053-0.278 0.166-0.538 0.45-0.538h0.694c0.216 0 0.403 0.15 0.447 0.363 0.594 2.919 3.178 5.122 6.269 5.122s5.675-2.203 6.269-5.122c0.044-0.212 0.231-0.363 0.447-0.363v0h0.7c0.284 0 0.5 0.256 0.45 0.538z"></path>
<path d="M9.959 13.619l-3.634-2.297c-0.213-0.134-0.278-0.416-0.144-0.631l2.294-3.634c0.134-0.213 0.416-0.278 0.631-0.144l3.634 2.294c0.213 0.134 0.278 0.416 0.144 0.631l-2.294 3.638c-0.137 0.216-0.419 0.278-0.631 0.144zM7.534 10.719l2.45 1.547 1.547-2.45-2.45-1.547-1.547 2.45z"></path>
<path d="M25.044 14.438h-1.409c0-1.344-1.009-2.213-2.212-2.213-1.081 0-2.212 0.841-2.212 2.213h-1.409c0-1.997 1.625-3.619 3.619-3.619s3.625 1.622 3.625 3.619z"></path>
<path d="M16.113 8.244l1.5-5.578c0.091-0.341 0.516-0.453 0.766-0.203l4.078 4.078c0.25 0.25 0.134 0.672-0.203 0.766l-5.578 1.5c-0.344 0.091-0.653-0.222-0.563-0.563zM18.406 4.106l-0.884 3.284 3.284-0.884-2.4-2.4z"></path>
</svg>
