<!-- Generated by IcoMoon.io -->
<svg version="1.1" xmlns="http://www.w3.org/2000/svg" width="32" height="32" viewBox="0 0 32 32">
<title>logo-bcs</title>
<path fill="#d8d8d8" d="M29.1 7.1l-12-6.9c-0.4-0.2-1-0.2-1.4 0l-12 6.9c0.1 0.2 0.2 0.4 0.3 0.7 0 0.2 0 0.4 0 0.7l11.6 6.7c0.4 0.2 1 0.2 1.4 0l12-6.9c0.3-0.2 0.5-0.6 0.3-0.9 0-0.1-0.1-0.2-0.2-0.3z"></path>
<path fill="#d8d8d8" d="M17.9 16.3l12-6.9c0.4-0.2 0.8 0 0.9 0.3 0 0.1 0.1 0.2 0.1 0.3v13.8c0 0.5-0.3 1-0.7 1.2l-12 6.9c-0.3 0.2-0.7 0.1-0.9-0.2-0.1-0.1-0.1-0.2-0.1-0.4v-13.8c-0.1-0.5 0.2-1 0.7-1.2z"></path>
<path fill="#494949" d="M29.7 9.4l-12 6.9c-0.4 0.2-0.7 0.7-0.7 1.2v13.8c0 0.7 0.5 0.8 1.1 0.6l2.3-1.3c1.7-1 3.4-4.3 3.4-4.4 0 0.3 0.1 0.6 0.1 0.9 0 0.2 0.1 0.3 0.3 0.3 0.1 0 0.2-0.1 0.3-0.1 1.3-2 0.3-4.8 0.2-5 0.1-0.9 0.2-1.9 0.5-2.8 0.5-1.9 1.8-3.5 3.5-4.5 1-0.6 1.8-1.6 2.2-2.7v-2.3c0-0.4-0.3-0.7-0.7-0.7-0.2 0-0.4 0-0.5 0.1zM21.6 17.3c0.1-0.7 0.5-1.4 1.1-1.8s1.1-0.1 1.1 0.5c-0.1 0.7-0.5 1.4-1.1 1.8-0.6 0.3-1.2 0.1-1.1-0.5z"></path>
<path fill="#494949" d="M15.1 16.3l-11.9-6.9c0.5-0.9 0.3-2-0.4-2.8-1.3 0.3-1 1.9-1 1.9-1.1-0.3-1.7 0.2-1.8 0.3 0.3 0.9 1.2 1.4 2.1 1.4v13.6c0 0.5 0.3 1 0.7 1.2l12 6.9c0.3 0.2 1 0.1 1-0.6s0-13.8 0-13.8c0-0.5-0.2-1-0.7-1.2z"></path>
</svg>
