<svg viewBox="0 0 1024 1156.557" version="1.1" xmlns="http://www.w3.org/2000/svg"><path  d="M982.3034605146406 258.74001774622894l-31.33274179236912-18.101153504880212-73.24223602484473-42.33540372670807-41.682342502218276-24.092280390417034c-19.37888198757764-11.201419698314108-43.244010647737355-11.215616681455192-62.622892635315-0.02839396628216504l-41.98047914818101 24.205856255545697-73.0150842945874 42.108251996450754-73.27062999112688 42.26441881100266-73.02928127772847 42.13664596273292-73.2564330079858 42.25022182786158-73.05767524401065 42.13664596273292-22.70097604259095 13.103815439219167c-31.261756876663707 18.0301685891748-50.527062999112694 51.393078970718726-50.527062999112694 87.48181011535048v47.73025732031943c0 5.962732919254659 3.1801242236024847 11.471162377994677 8.33362910381544 14.452528837622005l64.8092280390417 37.46583850931677 65.3061224489796 37.74977817213842c1.8740017746228927 1.0789707187222715 4.00354924578527 0.8518189884649512 5.551020408163265-0.2129547471162378 1.3487133984028392-0.9086069210292813 2.271517302573203-2.4418811002661935 2.271517302573203-4.301685891748003v-70.58740017746229c0-22.36024844720497 11.925465838509318-43.00266193433895 31.304347826086957-54.18988464951198l41.881100266193435-24.149068322981368 73.1002661934339-42.17923691215617 73.19964507542147-42.22182786157941 73.0860692102928-42.16503992901508 57.55456965394853-33.19254658385093c0.6104702750665484-0.354924578527063 1.2209405501330968-0.6814551907719609 1.831410825199645-0.9795918367346937l11.272404614019521-6.5022182786157945 73.0150842945874-42.108251996450754 41.98047914818101-24.205856255545697c19.37888198757764-11.187222715173025 43.25820763087844-11.173025732031943 62.622892635315 0.01419698314108252l19.22271517302573 11.116237799467614c-4.940550133096717-4.84117125110914-10.505767524401065-9.114463176574978-16.638864241348713-12.663708961845607Z"/><path  d="M924.5359361135759 931.3930789707186l-120.17746228926354 69.33806566104703h-0.02839396628216504l-72.88731144631767 42.02307009760426-146.25732031943213 84.40106477373558v-0.02839396628216504l-31.687666370896185 18.2715173025732c-25.85270629991127 14.87843833185448-57.66814551907719 14.87843833185448-83.50665483584739-0.02839396628216504l-104.47559893522627-60.39396628216504 0.0709849157054126-0.02839396628216504 73.29902395740905-42.30700976042591 72.9299023957409-42.065661047027504 73.37000887311446-42.30700976042591 72.9299023957409-42.065661047027504 73.34161490683229-42.30700976042591 46.73646850044366-26.93167701863354 146.37089618456076 84.42945874001775Z"/><path  d="M1024 331.0310559006211l-0.09937888198757765 494.7222715173026c0 7.779946761313221-1.093167701863354 15.403726708074533-3.137533274179237 22.672582076308785-5.834960070984916 20.656610470275066-19.492457852706302 38.61579414374445-38.61579414374445 49.60425909494232l-31.588287488908605 18.228926353149955 0.09937888198757765 0.0709849157054126-26.122448979591834 15.062999112688553-146.37089618456076-84.42945874001775 26.250221827861576-15.162377994676131 41.96628216503993-24.205856255545697c19.393078970718722-11.201419698314108 31.3469387755102-31.858030168589178 31.3469387755102-54.24667258207631v-365.01863354037266c0-13.047027506654835-6.970718722271517-25.100266193433896-18.228926353149955-31.616681455190772l-39.19787045252884-22.629991126885535c-9.086069210292813-5.252883762200533-20.145519077196095-5.5936113575865125-29.45874001774623-0.9937888198757763l11.272404614019521-6.516415261756876 73.00088731144632-42.09405501330967 41.994676131322095-24.205856255545697c19.393078970718722-11.201419698314108 43.25820763087844-11.15882874889086 62.622892635315 0.02839396628216504l19.22271517302573 11.10204081632653c15.843833185448092 15.50310559006211 25.100266193433896 36.912156166814555 25.057675244010646 59.641526175687666Z"/><path  d="M554.0088731144632 11.201419698314108c-25.824312333629106-14.906832298136646-57.63975155279503-14.93522626441881-83.46406388642413-0.02839396628216504l-31.659272404614022 18.257320319432118v-0.04259094942324756l-146.2857142857143 84.37267080745342-72.91570541259982 42.05146406388643-58.69032830523514 33.859804791481814-87.60958296362023 50.54125998225377 0.0709849157054126 0.04259094942324756-31.701863354037265 18.299911268855368C15.914818101153505 273.47648624667255 0 301.0328305235137 0 330.8606921029281v494.6512866015972c0 29.81366459627329 15.90062111801242 57.37000887311446 41.71073646850044 72.2768411712511l31.33274179236912 18.115350488021296 73.2564330079858 42.349600709849156 41.6681455190772 24.078083407275955c3.1233362910381546 1.80301685891748 6.360248447204969 3.3220940550133093 9.668145519077195 4.543034605146406l-9.100266193433896-5.252883762200533c-6.133096716947649-3.54924578527063-11.712511091393079-7.822537710736468-16.653061224489797-12.663708961845607-15.815439219165928-15.50310559006211-25.07187222715173-36.912156166814555-25.057675244010646-59.641526175687666l0.02839396628216504-134.75776397515529c-0.3691215616681455-2.072759538598048-0.5678793256433008-4.202307009760426-0.5678793256433008-6.360248447204969v-365.0044365572316c0-22.388642413487133 11.953859804791481-43.05944986690328 31.33274179236912-54.24667258207631l5.806566104702751-3.3504880212954746h0.01419698314108252s36.1455190771961-20.85536823425022 36.1455190771961-20.85536823425022l72.98669032830523-42.108251996450754 14.722271517302572-8.489795918367347 58.60514640638864-33.7888198757764 72.97249334516415-42.09405501330967 73.34161490683229-42.29281277728482 72.94409937888199-42.09405501330967 38.24667258207631-22.062111801242235 35.03815439219166-20.202307009760425 0.05678793256433008-0.02839396628216504L554.0088731144632 11.201419698314108Z"/><path  d="M631.6947648624667 762.5341614906832l-46.537710736468505 26.846495119787043-73.27062999112688 42.26441881100266-73.0150842945874 42.108251996450754-73.29902395740905 42.27861579414375-72.98669032830523 42.108251996450754-42.00887311446318 24.220053238686777c-16.255545696539485 9.370008873114463-35.67701863354037 10.87488908606921-52.940550133096714 4.5146406388642415l-9.100266193433896-5.252883762200533c-6.133096716947649-3.54924578527063-11.712511091393079-7.822537710736468-16.653061224489797-12.663708961845607-15.815439219165928-15.50310559006211-25.07187222715173-36.912156166814555-25.057675244010646-59.641526175687666l0.02839396628216504-134.75776397515529c1.8456078083407277 10.505767524401065 8.248447204968944 19.804791481810113 17.675244010647734 25.270629991126885l39.16947648624667 22.629991126885535c9.68234250221828 5.607808340727596 21.622005323868677 5.607808340727596 31.318544809228037 0l57.55456965394853-33.19254658385093 0.5252883762200532-0.2981366459627329 72.54658385093168-41.85270629991127 73.21384205856255-42.22182786157941 46.50931677018633-26.83229813664596 146.00177462289264 84.28748890860692 0.31233362910381546 0.17036379769299023Z"/><path  d="M731.4427684117126 598.9565217391304v47.70186335403727c0 36.10292812777285-19.26530612244898 69.45164152617569-50.527062999112694 87.48181011535048l-22.71517302573203 13.103815439219167-26.491570541259982 15.27595385980479-146.31410825199646-84.472049689441 26.59094942324756-15.346938775510205 41.89529724933452-24.163265306122447c19.36468500443656-11.173025732031943 31.304347826086957-31.82963620230701 31.304347826086957-54.18988464951198v-70.57320319432121c0-4.017746228926353 4.358473824312333-6.530612244897958 7.822537710736468-4.5146406388642415l65.29192546583852 37.73558118899734 64.83762200532387 37.48003549245785c5.153504880212955 2.9813664596273295 8.33362910381544 8.489795918367347 8.33362910381544 14.452528837622005Z"/></svg>