<svg viewBox="0 0 1024 1024" version="1.1" xmlns="http://www.w3.org/2000/svg"><g ><path d="M874.6666688 170.66666688C886.4487424 170.66666688 896 180.21792576 896 192L896 192 896 704C896 715.7820736 886.4487424 725.3333312 874.6666688 725.3333312L874.6666688 725.3333312 149.33333312 725.3333312C143.67538112 725.3333312 138.2491648 723.0857216 134.24838848 719.0849472 130.2476128 715.0841664 128 709.657952 128 704L128 704 128 192C128 186.342048 130.2476128 180.91583168 134.24838848 176.91505536 138.2491648 172.91427968 143.67538112 170.66666688 149.33333312 170.66666688L149.33333312 170.66666688ZM320 362.66666688L298.66666688 362.66666688C293.00871488 362.66666688 287.58249792 364.91427904 283.58172224 368.91505536 279.58094592 372.91583104 277.33333312 378.342048 277.33333312 384L277.33333312 384 277.33333312 576C277.33333312 581.657952 279.58094592 587.08416896 283.58172224 591.08494464 287.58249792 595.08572096 293.00871488 597.33333312 298.66666688 597.33333312L298.66666688 597.33333312 320 597.33333312C331.78207424 597.33333312 341.33333312 587.78207424 341.33333312 576L341.33333312 576 341.33333312 384C341.33333312 372.21792576 331.78207424 362.66666688 320 362.66666688L320 362.66666688ZM448 469.33333312L426.66666688 469.33333312C421.00871488 469.33333312 415.58249792 471.58094528 411.5817216 475.5817216 407.58094528 479.58249792 405.33333312 485.00871488 405.33333312 490.66666688L405.33333312 490.66666688 405.33333312 576C405.33333312 581.657952 407.58094592 587.08416896 411.58172224 591.08494464 415.58249792 595.08572096 421.00871488 597.33333312 426.66666688 597.33333312L426.66666688 597.33333312 448 597.33333312C459.78207424 597.33333312 469.33333312 587.78207424 469.33333312 576L469.33333312 576 469.33333312 490.66666688C469.33333312 485.00871488 467.08572096 479.58249792 463.08494464 475.58172224 459.08416896 471.58094592 453.657952 469.33333312 448 469.33333312L448 469.33333312ZM576 405.33333312L554.66666688 405.33333312C549.00871488 405.33333312 543.58249792 407.58094528 539.5817216 411.5817216 535.58094528 415.58249792 533.33333312 421.00871488 533.33333312 426.66666688L533.33333312 426.66666688 533.33333312 576C533.33333312 581.657952 535.58094592 587.08416896 539.58172224 591.08494464 543.58249792 595.08572096 549.00871488 597.33333312 554.66666688 597.33333312L554.66666688 597.33333312 576 597.33333312C587.78207424 597.33333312 597.33333312 587.78207424 597.33333312 576L597.33333312 576 597.33333312 426.66666688C597.33333312 421.00871488 595.08572096 415.58249792 591.08494464 411.58172224 587.08416896 407.58094592 581.657952 405.33333312 576 405.33333312L576 405.33333312ZM704 298.66666688L682.6666688 298.66666688C677.0087168 298.66666688 671.582496 300.91427904 667.5817216 304.91505536 663.5809472 308.91583104 661.3333312 314.342048 661.3333312 320L661.3333312 320 661.3333312 576C661.3333312 581.657952 663.5809472 587.08416896 667.5817216 591.08494464 671.582496 595.08572096 677.0087168 597.33333312 682.6666688 597.33333312L682.6666688 597.33333312 704 597.33333312C715.7820736 597.33333312 725.3333312 587.78207424 725.3333312 576L725.3333312 576 725.3333312 320C725.3333312 308.21792576 715.7820736 298.66666688 704 298.66666688L704 298.66666688Z"/><path d="M739.6266688 810.6666688L270.29333312 810.6666688C258.51125824 810.6666688 248.96 820.2179264 248.96 832 248.96 843.7820736 258.51125824 853.3333312 270.29333312 853.3333312L739.6266688 853.3333312C751.4087424 853.3333312 760.96 843.7820736 760.96 832 760.96 820.2179264 751.4087424 810.6666688 739.6266688 810.6666688L739.6266688 810.6666688Z"/></g></svg>