<!-- Generated by IcoMoon.io -->
<svg version="1.1" xmlns="http://www.w3.org/2000/svg" width="32" height="32" viewBox="0 0 32 32">
<title>logo-ticket</title>
<path d="M17.769 14.115c0 0.297-0.241 0.538-0.538 0.538s-0.538-0.241-0.538-0.538c0-0.297 0.241-0.538 0.538-0.538s0.538 0.241 0.538 0.538z"></path>
<path d="M29.538 0h-27.077c-1.358 0-2.462 1.104-2.462 2.462v27.077c0 1.358 1.104 2.462 2.462 2.462h27.077c1.358 0 2.462-1.104 2.462-2.462v-27.077c0-1.358-1.104-2.462-2.462-2.462zM18.231 18.077h-2l0.265-2.354c-0.612-0.277-1.035-0.892-1.035-1.608 0-0.977 0.792-1.769 1.769-1.769s1.769 0.792 1.769 1.769c0 0.715-0.423 1.331-1.035 1.608l0.265 2.354zM8.462 8c-0.338 0-0.615-0.277-0.615-0.615s0.277-0.615 0.615-0.615h17.385c0.338 0 0.615 0.277 0.615 0.615s-0.277 0.615-0.615 0.615h-17.385zM25.846 5.538h-17.231c-1.019 0-1.846 0.827-1.846 1.846s0.827 1.846 1.846 1.846h3.308v15.515l5.269-3.331 5.269 3.331v-15.515h3.385c0.338 0 0.615 0.277 0.615 0.615v17.231c0 0.338-0.277 0.615-0.615 0.615h-17.231c-1.696 0-3.077-1.381-3.077-3.077v-17.231c0-1.696 1.381-3.077 3.077-3.077h17.231c0.338 0 0.615 0.277 0.615 0.615s-0.277 0.615-0.615 0.615z"></path>
</svg>
