<svg viewBox="0 0 1024 1024" version="1.1" xmlns="http://www.w3.org/2000/svg"><g ><path  d="M490.0407424 456.006176C459.10136 456.1227232 434.108704 481.2879168 434.205136 512.2273696 434.3021248 543.1668192 459.4516128 568.17528 490.3911168 568.0981888 521.330624 568.0207392 546.35488 542.8869728 546.297152 511.947424 546.269232 497.0648192 540.3232288 482.8043808 529.7700736 472.3104032 519.2169184 461.8164256 504.9232672 455.9507008 490.0407424 456.006176L490.0407424 456.006176ZM781.4168736 511.947424C873.6351552 424.6712832 918.1144416 339.0775744 888.77704 287.97371232 871.8475712 258.74146304 832.8361888 244.86140192 779.7344416 244.86140096 732.0582688 246.25246688 684.7947616 254.1415104 639.2513984 268.31029248 608.9676288 145.38763072 556.7070976 64 496.9807744 64 437.2544512 64 384.9939168 145.38763072 354.8152992 268.31029248 309.30572032 254.1509312 262.07822976 246.26199456 214.43741024 244.86140096 161.23051008 244.86140096 122.32427808 258.74146208 105.28965728 287.97371232 75.11103968 339.0775744 120.43154208 424.6712832 212.64982656 511.947424 120.43154208 599.3287168 75.11104032 684.3966656 105.28965728 735.921136 122.32427808 765.1533856 161.23050912 779.0334464 214.43741024 779.0334464 262.0733744 777.6669504 309.3007584 769.813408 354.8152992 755.6897088 384.9939168 878.507216 437.3596032 960 496.9807744 960 556.6019456 960 608.9676288 878.507216 639.2513984 755.6897088 684.7659424 769.813408 731.9933248 777.6669504 779.6292896 779.0334464 832.2052768 779.0334464 871.7424224 765.0482336 888.6718912 735.921136 918.6402048 684.9224256 873.6351584 599.3287168 781.4168736 511.947424ZM214.43741024 723.0925952C173.84874688 723.0925952 157.3398864 713.2083104 154.29047904 707.9507104 143.77528128 689.8645696 173.42813856 626.2476224 255.13122528 549.3815264 278.47496416 568.7294912 303.81659104 587.972304 331.2612576 606.6893568 333.9952096 639.6019264 338.0961376 670.8320608 343.3537344 700.5900704 301.62931936 714.0177216 258.24349664 721.5907776 214.43741024 723.0925952L214.43741024 723.0925952ZM327.4757856 535.1860096C316.96058816 527.5099168 307.18145408 519.7286688 297.50747264 511.947424 306.9711504 504.166176 317.06574016 496.3849312 327.4757856 488.6036832L327.4757856 535.1860096ZM330.9458016 417.2054912C303.50113504 436.027696 278.3698128 455.2705088 254.71061792 474.6184736 236.49440512 457.8030336 219.3557344 439.8565984 203.3964528 420.8858112 150.294704 357.05856 149.87409664 322.8841696 153.97502304 315.7338336 157.0244304 310.58138656 173.42813856 300.59194912 214.12195456 300.59194912 257.9376896 302.082832 301.32981696 309.69238112 343.0382784 323.1996256 337.9909824 353.0627872 333.9952096 384.3980768 331.2612576 417.2054912L330.9458016 417.2054912ZM601.817296 378.6147168C594.982416 374.5137888 588.4629952 370.4128608 581.5229632 366.52224 574.5829344 362.631616 567.9583584 359.1616 561.1234784 355.4812832 573.0056544 350.5391392 584.7826752 345.8072992 596.454544 341.4960672 598.662736 353.3782432 600.870928 365.786176 602.132752 378.6147168L601.817296 378.6147168ZM496.6653184 120.04600384C517.695712 120.04600384 558.5998336 177.35383136 584.9929792 285.87067264 556.2514368 296.24566784 526.8088832 308.5133984 496.6653184 322.6738656 467.8362688 309.0944736 438.397632 296.84884288 408.4428096 285.975824 435.1514112 177.35383136 475.8452256 120.04600384 496.9807744 120.04600384L496.6653184 120.04600384ZM397.2966976 341.4960672C408.9685664 345.8072992 420.7455904 350.5391392 432.6277632 355.4812832 425.7928864 359.1616 419.0631584 362.631616 412.2282784 366.52224 405.3934016 370.4128608 398.6636736 374.5137888 391.9339488 378.6147168 393.5112288 365.786176 395.2988128 353.3782432 397.2966976 341.4960672ZM391.9339488 645.3852832C398.6636736 649.3810592 405.2882496 653.4819872 412.2282784 657.47776 419.1683104 661.473536 425.7928864 664.733248 432.6277632 668.5187168 420.7105408 673.4258112 408.9335168 678.052496 397.2966976 682.3987808 395.2988128 670.5166048 393.5112288 658.213824 391.9339488 645.3852832L391.9339488 645.3852832ZM497.0859264 903.9539968C476.0555296 903.9539968 435.2565632 846.6461696 408.8634176 738.024176 437.4647552 727.5089792 467.0124608 715.4165024 497.0859264 701.2209824 527.264544 715.4165024 556.7070976 727.6141312 585.4135872 738.024176 558.8101376 846.6461696 518.221472 903.9539968 496.9807744 903.9539968L497.0859264 903.9539968ZM596.875152 682.3987808C585.2383328 678.052496 573.461312 673.4258112 561.5440896 668.5187168 568.3789664 664.733248 575.1086944 661.368384 581.9435712 657.47776 588.778448 653.5871392 595.508176 649.3810592 602.237904 645.3852832 600.870928 658.213824 598.662736 670.516608 596.77 682.3987808L596.875152 682.3987808ZM491.7231744 623.9342784C430.0580992 623.181504 380.606656 572.7148608 381.1069824 511.0472192 381.6073056 449.3795744 431.8710848 399.7219488 493.5402592 399.9688928 555.2094304 400.2176832 605.0724128 450.2777504 605.077008 511.947424 604.965888 541.8147456 592.9727424 570.4098816 571.7449856 591.4206272 550.5172256 612.431376 521.8003648 624.130064 491.9334784 623.9342784L491.7231744 623.9342784ZM779.6292896 300.80225376C820.217952 300.80225376 836.7268128 310.7916912 839.6710688 315.94413824 850.1862656 334.1354304 820.533408 397.6472256 738.8303232 474.5133216 715.3814304 455.1653568 690.0398048 435.922544 662.7002912 417.2054912 659.9663392 384.3980768 655.8654112 353.0627872 650.6078112 323.3047776 692.3639872 309.8596064 735.786976 302.28624032 779.6292896 300.80225376ZM666.170304 488.7088384C676.685504 496.3849312 686.5697888 504.166176 696.2437696 512.052576 686.6749408 519.7286688 676.685504 527.5099168 666.170304 535.3963168L666.170304 511.947424C666.170304 503.9558752 666.380608 496.4900832 666.170304 488.7088384ZM839.8813728 707.9507104C836.8319648 713.2083104 820.323104 723.0925952 779.7344416 723.0925952 735.892128 721.608608 692.4691392 714.0352416 650.7129664 700.5900704 655.9705632 670.8320608 660.0714912 639.6019232 662.8054432 606.6893568 690.2501088 587.972304 715.3814304 568.7294912 739.0406272 549.2763776 757.1612672 566.1592768 774.2280096 584.1390528 790.1444864 603.1141888 843.4565408 666.94144 843.8771488 701.1158304 839.8813728 707.9507104L839.8813728 707.9507104Z"/><path  d="M264.91035904 819.9375648L246.71906688 857.7922784 208.65405152 875.9835712 246.71906688 894.7006208 264.91035904 932.5553344 283.2068032 894.7006208 321.1666688 876.5093312 283.2068032 858.3180384Z"/><path  d="M271.95554144 218.04764736L292.98593728 175.46109632 335.6776416 154.9564608 292.56532896 134.55697696 271.53493408 92.49618624 251.45090592 134.55697696 208.65405152 154.9564608 251.45090592 175.46109632Z"/><path  d="M750.291888 842.1246336L687.2007008 819.9375648 709.3877696 883.028752 687.2007008 946.1199392 750.291888 923.9328704 813.3830752 946.1199392 791.1960064 883.028752 813.3830752 819.9375648Z"/></g></svg>