<!-- Generated by IcoMoon.io -->
<svg version="1.1" xmlns="http://www.w3.org/2000/svg" width="32" height="32" viewBox="0 0 32 32">
<title>logo-artifactory</title>
<path d="M27.194 14.5l-2.997 1.722 0.003 1.325c0 0.359-0.191 0.688-0.5 0.869l-7.512 4.331v-2.653c0-0.716 0.381-1.375 1-1.731l9.5-5.488c0.666-0.384 0.666-1.347 0-1.731l-9.5-5.484c-0.619-0.359-1.381-0.359-2 0l-10 5.772c-0.619 0.356-1 1.019-1 1.731v6.141l12 6.928 10.019-5.794c0.619-0.359 0.997-1.019 0.997-1.731l-0.009-4.206zM8.875 15.903v2.928l-2-1.156v-2.928c0-0.713 0.378-1.372 0.997-1.728l8.597-4.994c0.478-0.278 1.087-0.116 1.366 0.363 0.275 0.478 0.113 1.091-0.366 1.372l-7.6 4.416c-0.616 0.356-0.994 1.016-0.994 1.728zM14.503 16.863c-0.616 0.356-0.994 1.016-0.994 1.728v2.928l-2-1.156v-2.928c0-0.712 0.381-1.369 0.997-1.728l8.597-4.994c0.478-0.278 1.087-0.116 1.366 0.363s0.116 1.091-0.366 1.372l-7.6 4.416z"></path>
</svg>
