<!-- Generated by IcoMoon.io -->
<svg version="1.1" xmlns="http://www.w3.org/2000/svg" width="32" height="32" viewBox="0 0 32 32">
<title>logo-experience</title>
<path d="M11.131 25l-5.019-3.553c-0.263-0.184-0.628-0.122-0.816 0.141l-0.334 0.472c-0.184 0.262-0.122 0.628 0.141 0.816l5.019 3.553c0.262 0.188 0.628 0.125 0.816-0.141l0.334-0.472c0.184-0.262 0.122-0.628-0.141-0.816z"></path>
<path d="M8.537 26.375l-3.594-2.547c-0.263-0.184-0.628-0.122-0.816 0.141l-0.334 0.472c-0.184 0.262-0.122 0.628 0.141 0.816l3.594 2.547c0.263 0.188 0.631 0.125 0.816-0.137l0.334-0.475c0.184-0.262 0.122-0.628-0.141-0.816z"></path>
<path d="M15.488 12.131c-0.759 0.759-1.053 1.809-0.881 2.794 0.634 0.134 1.272 0.269 1.769 0.731 0.028 0.028 0.056 0.053 0.081 0.078l1.934-0.656c0.169-0.056 0.35 0.034 0.409 0.2l0.103 0.3c0.056 0.169-0.034 0.35-0.2 0.409l-1.703 0.578c0.084 0.256 0.128 0.55 0.184 0.941 0.988 0.172 2.041-0.122 2.8-0.881 1.234-1.238 1.234-3.253-0.003-4.494-1.241-1.241-3.256-1.241-4.494 0z"></path>
<path d="M28.675 3.384c-0.394-0.394-1.031-0.394-1.422 0-0.303 0.303-0.372 0.747-0.209 1.116l-0.959 0.959c-1.884-0.347-9.597-1.222-14.725 6.334l-3.4 0.441-4.947 6.6 5.234 0.119c0.597 0.578 1.116 1.081 1.566 1.519l-1.391-0.984c-0.262-0.184-0.628-0.122-0.816 0.141l-0.334 0.472c-0.184 0.262-0.122 0.628 0.141 0.816l4.603 3.259c0.262 0.188 0.631 0.125 0.819-0.141l0.206-0.291c0.012 0.012 0.025 0.025 0.037 0.038l0.119 5.234 6.597-4.95 0.438-3.35c7.594-5.131 6.716-12.863 6.369-14.744l0.959-0.959c0.369 0.162 0.816 0.094 1.116-0.209 0.394-0.391 0.394-1.028 0-1.419zM20.637 17.288c-1.603 1.6-4.209 1.603-5.813 0s-1.603-4.213 0-5.813c1.603-1.6 4.213-1.603 5.813 0s1.603 4.213 0 5.813z"></path>
</svg>
