<svg id="图层_1" data-name="图层 1" xmlns="http://www.w3.org/2000/svg" viewBox="0 0 100 99.98"><defs><style>.cls-1{fill:#fff;}.cls-2{fill:#6b798e;}</style></defs><title>星海icon单色</title><path class="cls-1" d="M53,60.84A23,23,0,0,0,66.46,72a23,23,0,0,0,2.87-15.28A46.11,46.11,0,0,1,53,60.84Z"/><path class="cls-1" d="M53,60.84c-1,.07-2.11.11-3.17.11a46.19,46.19,0,0,1-25.26-7.49,46.5,46.5,0,0,1-17.54-21A46.37,46.37,0,1,0,96.37,50c0-.34,0-.68,0-1A23,23,0,0,0,53.48,38.35,23,23,0,0,1,66.46,72"/><path class="cls-1" d="M7.07,32.46a46.5,46.5,0,0,0,17.54,21A46.19,46.19,0,0,0,49.87,61c1.06,0,2.12,0,3.17-.11a46.11,46.11,0,0,0,16.29-4.16A23,23,0,0,0,53.48,38.35,23,23,0,0,1,96.35,49,46.37,46.37,0,0,0,7.07,32.46Z"/><path class="cls-2" d="M50,99.38A49.37,49.37,0,0,1,3.9,32.26c.11-.3.23-.61.35-.91a52.93,52.93,0,0,1,2.44-5.13l.6-1.09,2.58,6.15c.12.31.26.62.39.91l.08.19c.15.33.25.56.37.78s.27.59.41.85c.2.41.4.78.6,1.15s.37.7.57,1c.08.15.16.27.23.39.19.33.37.63.56.92s.4.64.4.64l.44.67.75,1.08.73,1,.17.23.09.11.92,1.13c.28.34.57.67.87,1s.88,1,1.34,1.44L19,45l.42.42c.22.23.44.43.67.64.38.38.76.72,1.15,1a43.4,43.4,0,0,0,5,3.79,43,43,0,0,0,23.6,7c.91,0,1.9,0,3-.11h.22a3,3,0,0,1,.18,6c-1.13.08-2.27.12-3.36.12A49,49,0,0,1,23,56c-.53-.34-1-.69-1.55-1.05s-.85-.61-1.27-.93l-.43-.31c-.44-.35-.85-.67-1.25-1s-.93-.77-1.37-1.16-.94-.86-1.38-1.27l-.06-.07c-.4-.38-.8-.76-1.18-1.16l-.05,0-.07-.09c-.37-.37-.74-.77-1.09-1.16s-.9-1-1.34-1.54-.75-.9-1.1-1.37l-.18-.23c-.23-.3-.47-.62-.7-1s-.36-.48-.54-.74l-.2-.28c-.24-.34-.47-.69-.69-1l-.78-1.23A43.34,43.34,0,1,0,93.34,50c0-.26,0-.51,0-.8a20,20,0,0,0-20-19.2,20.18,20.18,0,0,0-15.17,7l.74.38c7.79,4.14,12.92,11.38,13.41,18.87a23.13,23.13,0,0,1-6.7,18.26L64,75.9l.62-2A49,49,0,0,0,66.6,60.35a27.83,27.83,0,0,0-.26-3.2A16.63,16.63,0,0,0,66,55.39l-.17-.62a5.76,5.76,0,0,0-.18-.59c-.07-.23-.14-.43-.21-.62s-.16-.44-.25-.65-.15-.36-.22-.52c-.17-.41-.35-.78-.54-1.14s-.2-.39-.3-.57-.18-.31-.26-.46l-.07-.1c-.1-.18-.21-.36-.32-.52a6.1,6.1,0,0,0-.35-.53c-.11-.18-.22-.33-.32-.47L62.35,48c-.25-.33-.52-.65-.79-1s-.3-.33-.46-.49-.28-.3-.41-.43c-.35-.34-.67-.65-1-.94s-.6-.51-.9-.75-.68-.49-1-.73a5,5,0,0,0-.51-.34c-.41-.27-.81-.5-1.22-.72l-.46-.23-.34-.17-.5-.23a8.69,8.69,0,0,0-.8-.34c-.45-.18-.89-.33-1.33-.47L49,40.1l1.92-3.29A26.15,26.15,0,0,1,73.34,23.94c.3,0,.6,0,.9,0h0l.44,0,.93.06,1,.1c.48.06,1,.13,1.42.22.22,0,.46.09.71.14h0l.07,0,1,.24a22,22,0,0,1,2.32.72l.7.25c.51.21,1.19.49,1.85.81.37.18.76.38,1.13.59l1.08.63c.25.15.47.28.69.43a3.11,3.11,0,0,1,.27.18l.64.44,1,.75a26.43,26.43,0,0,1,4.08,4,25.79,25.79,0,0,1,5.77,15.24V49c0,.34,0,.68,0,1A49.44,49.44,0,0,1,50,99.38Z"/><path class="cls-2" d="M73.34,24.54c.28,0,.57,0,.86,0l.46,0c.3,0,.62,0,.92.06l.93.09c.47.06.93.13,1.38.22.27,0,.52.1.78.15h0q.49.11,1,.24A21.33,21.33,0,0,1,82,26c.23.08.47.16.69.25.61.24,1.21.5,1.8.79.38.17.75.37,1.11.57l1.06.61.66.42a2.2,2.2,0,0,1,.25.17c.22.14.43.29.64.45s.66.47,1,.73a25.55,25.55,0,0,1,4,3.94,25.23,25.23,0,0,1,5.65,14.9V49c0,.33,0,.66,0,1A48.81,48.81,0,0,1,1.19,50,48.32,48.32,0,0,1,4.45,32.48c.12-.32.25-.64.37-.95a49.38,49.38,0,0,1,2.4-5l2.1,5c.12.32.26.63.4.93a2.36,2.36,0,0,0,.12.28l.33.71c.14.29.27.58.43.87s.39.77.6,1.15.37.7.58,1a3.38,3.38,0,0,0,.24.41c.18.31.36.63.56.93.08.14.17.28.26.41.19.31.39.62.59.91s.5.72.75,1.08.5.67.75,1c.08.12.16.22.25.34.31.39.62.77.94,1.15s.58.69.89,1c.44.5.89,1,1.35,1.46l.65.65c.23.22.45.44.69.65.37.37.76.72,1.16,1.06a45.79,45.79,0,0,0,5.08,3.85,43.74,43.74,0,0,0,23.93,7.1c1,0,2,0,3-.11h.18a2.44,2.44,0,0,1,2.41,2.28,2.41,2.41,0,0,1-2.26,2.58c-1.14.08-2.26.12-3.33.12a48.47,48.47,0,0,1-26.59-7.89c-.51-.34-1-.68-1.52-1s-.85-.6-1.26-.91l-.44-.33-1.22-1c-.46-.38-.92-.76-1.35-1.15l0,0c-.45-.4-.9-.81-1.32-1.22a.23.23,0,0,1-.07-.07c-.41-.39-.82-.79-1.21-1.19l-.07-.07c-.37-.37-.73-.76-1.08-1.15s-.89-1-1.32-1.52-.74-.89-1.09-1.35l-.16-.21c-.25-.32-.48-.63-.7-1s-.36-.48-.54-.74a3,3,0,0,1-.2-.29c-.24-.33-.46-.67-.67-1s-.62-.95-.91-1.44-.42-.68-.61-1A43.94,43.94,0,1,0,93.94,50c0-.3,0-.59,0-.92A20.61,20.61,0,0,0,73.34,29.4a20.7,20.7,0,0,0-16.12,7.79c.48.23,1,.46,1.41.7,7,3.72,12.58,10.46,13.1,18.39v0a22.72,22.72,0,0,1-6.5,17.75,48.59,48.59,0,0,0,2-13.72.41.41,0,0,0,0-.11,25.25,25.25,0,0,0-.25-3.16,17.78,17.78,0,0,0-.38-1.82c-.06-.22-.12-.43-.17-.63s-.12-.42-.2-.64-.14-.41-.21-.62-.17-.46-.27-.68a4.93,4.93,0,0,0-.22-.53A12.47,12.47,0,0,0,64.93,51c-.1-.21-.21-.4-.32-.59s-.21-.37-.33-.57a6.1,6.1,0,0,0-.34-.54,4.72,4.72,0,0,0-.36-.55c-.09-.15-.21-.32-.33-.48l-.43-.57c-.26-.33-.53-.66-.81-1l-.5-.54a5.55,5.55,0,0,0-.42-.42,13.44,13.44,0,0,0-1-1c-.3-.27-.6-.51-.91-.76s-.7-.51-1.06-.76c-.18-.12-.36-.25-.55-.36a13.81,13.81,0,0,0-1.24-.72l-.47-.25c-.12-.07-.25-.12-.38-.18l-.5-.24-.82-.34c-.45-.18-.91-.34-1.36-.48l-2.92-.92,1.55-2.63a25.52,25.52,0,0,1,22-12.58m0-1.19a26.74,26.74,0,0,0-23,13.16l-1.55,2.64-.76,1.29,1.43.45,2.92.92a13.2,13.2,0,0,1,1.26.45,7,7,0,0,1,.76.31h0l0,0c.14.06.28.12.43.2l.35.16.44.24a11.36,11.36,0,0,1,1.19.69c.2.12.35.22.49.32.43.3.75.52,1,.74s.55.43.84.7a13.57,13.57,0,0,1,1,.92l.39.4.48.51c.26.3.51.61.75.92l.43.56.27.39,0,0,0,0c.1.14.2.29.29.44l0,0,0,0c.1.15.21.32.3.48l.08.13.22.38v0l0,0,.27.5c.21.4.38.75.53,1.11.08.18.14.33.2.49l0,0v0c.08.19.16.4.23.59s.14.39.19.56v0l0,0c.06.18.11.36.16.54s.12.41.17.61a15.7,15.7,0,0,1,.36,1.71,26.57,26.57,0,0,1,.24,3v.16A48.27,48.27,0,0,1,64.09,73.7l-1.24,4L66,75a23.8,23.8,0,0,0,6.9-18.69h0V56.2c-.5-7.7-5.76-15.12-13.73-19.36l-.06,0A19.6,19.6,0,0,1,73.34,30.6,19.41,19.41,0,0,1,92.73,49.13v.07c0,.29,0,.54,0,.8a42.75,42.75,0,0,1-85.5,0A43.49,43.49,0,0,1,8,41.94H8c.21.34.45.7.69,1l.2.29.56.78.71,1,.1.12.06.08c.36.47.74.93,1.12,1.39s.93,1.09,1.37,1.57.74.81,1.06,1.13a1.14,1.14,0,0,0,.15.16c.32.33.68.68,1.13,1.12a1.45,1.45,0,0,0,.18.17c.41.39.85.79,1.28,1.17h0l.06.06c.44.39.9.77,1.36,1.15s.77.62,1.15.92l.12.1.17.12.31.23c.33.26.8.61,1.28.94s1,.7,1.55,1.05a49.68,49.68,0,0,0,27.24,8.08c1.1,0,2.25,0,3.41-.12a3.61,3.61,0,0,0,3.37-3.85,3.63,3.63,0,0,0-3.6-3.39h-.26c-1,.07-2,.1-2.92.1a42.53,42.53,0,0,1-23.28-6.9,45.37,45.37,0,0,1-4.94-3.74c-.42-.36-.78-.69-1.12-1L19.86,45l-.43-.43-.22-.23c-.42-.42-.84-.88-1.3-1.4-.32-.34-.6-.67-.88-1l-.92-1.12-.06-.09-.13-.17,0,0,0,0-.73-1-.73-1.06c-.16-.23-.3-.45-.45-.68l-.13-.2-.24-.39c-.2-.31-.38-.6-.54-.89l0,0,0,0a2.28,2.28,0,0,1-.17-.3l0,0,0,0c-.2-.33-.37-.65-.53-1s-.43-.79-.59-1.14l0,0v0a8.26,8.26,0,0,1-.39-.79c-.13-.25-.23-.47-.33-.69l0-.12L10.82,32c-.15-.33-.28-.63-.4-.93l-2.1-5-1-2.28L6.17,25.93a50.88,50.88,0,0,0-2.45,5.15q-.21.5-.39,1A49.43,49.43,0,0,0,0,50a50,50,0,0,0,100,0c0-.36,0-.7,0-1v-.13h0a26.37,26.37,0,0,0-5.91-15.6,26.72,26.72,0,0,0-4.17-4.13c-.34-.27-.68-.52-1-.77l-.64-.45-.31-.2-.67-.43-1.11-.64c-.41-.23-.8-.43-1.18-.61-.64-.32-1.33-.6-1.86-.81l-.75-.28A23,23,0,0,0,80,24.18c-.31-.09-.64-.16-1-.23l-.11,0h-.1a6.1,6.1,0,0,0-.72-.14c-.4-.08-.87-.15-1.41-.22l-1-.1-1-.07-.46,0Z"/><path class="cls-2" d="M49.87,64A49,49,0,0,1,23,56c-.53-.34-1-.69-1.55-1.05s-.85-.61-1.27-.93l-.42-.31c-.45-.35-.86-.67-1.26-1s-.93-.77-1.37-1.16-.94-.86-1.38-1.27l-.06-.07c-.4-.38-.8-.76-1.18-1.16l-.05,0-.07-.09c-.37-.37-.74-.77-1.09-1.16s-.9-1-1.34-1.54-.75-.9-1.1-1.37l-.18-.23c-.23-.3-.47-.62-.7-1s-.36-.48-.54-.74l-.2-.28c-.24-.34-.47-.69-.69-1s-.62-1-.91-1.45a49,49,0,0,1-3.32-6.54L4,32.82l-.2-.19.14-.39.38-.93a51.89,51.89,0,0,1,2.42-5.09A49.41,49.41,0,0,1,95.58,31a48.81,48.81,0,0,1,3.8,18l0,.61h-.61l-5.44.18,0-.59A20,20,0,0,0,73.34,30a20.18,20.18,0,0,0-15.17,7l.74.38A26.27,26.27,0,0,1,72.32,56.19v.1l0,.19-.69,2.14-.92.78-.08,0c-1.06.49-2.14.94-3.2,1.35a49.06,49.06,0,0,1-14.16,3.08C52.1,63.94,51,64,49.87,64ZM10.37,32.44c.12.28.23.5.34.72s.27.59.41.85c.2.41.4.78.6,1.15s.37.7.57,1c.08.15.16.27.23.39.19.33.37.63.56.92s.18.29.26.42c.21.33.4.61.59.89l.74,1.08c.23.32.47.65.73,1,.07.11.12.17.17.24l.09.11c.29.38.59.76.91,1.12s.58.68.88,1,.88,1,1.34,1.44l.64.64s.52.51.67.64c.38.36.76.71,1.16,1a42.44,42.44,0,0,0,5,3.79,43,43,0,0,0,23.6,7c.91,0,1.9,0,3-.11a42.57,42.57,0,0,0,13-2.93l0-.11c-.06-.21-.12-.41-.19-.61s-.13-.4-.2-.6-.16-.44-.25-.65-.15-.37-.23-.53a11.77,11.77,0,0,0-.53-1.13c-.1-.22-.2-.39-.3-.57s-.22-.37-.33-.56-.21-.36-.32-.52-.23-.37-.35-.53l-.32-.47L62.35,48c-.25-.33-.52-.65-.79-1s-.3-.33-.46-.49l-.43-.44c-.33-.33-.65-.64-1-.93l-.9-.75c-.33-.25-.68-.49-1-.73-.17-.13-.35-.24-.52-.35-.4-.26-.8-.49-1.21-.71l-.46-.23-.34-.17L55,42.19l-.31-.14c-.29-.14-.55-.24-.81-.34-.45-.18-.89-.33-1.33-.47L49,40.1l1.92-3.29A26.15,26.15,0,0,1,73.34,23.94c.3,0,.6,0,.9,0h0l.44,0,.93.06,1,.1c.48.06,1,.13,1.42.22.22,0,.46.09.71.14h0l.07,0,1,.24a22,22,0,0,1,2.32.72l.7.25c.51.21,1.19.49,1.85.81.37.18.76.38,1.13.59l1.08.63.45.27a43.35,43.35,0,0,0-77,4.41Z"/><path class="cls-2" d="M50,1.19A48.8,48.8,0,0,1,98.79,48.93h0l-4.86.15A20.61,20.61,0,0,0,73.34,29.4a20.7,20.7,0,0,0-16.12,7.79c.48.23,1,.46,1.41.7a25.67,25.67,0,0,1,13.1,18.4h0l-.65,2-.73.62c-1,.47-2.1.92-3.17,1.33a48.15,48.15,0,0,1-14,3c-1.14.08-2.26.12-3.33.12a48.47,48.47,0,0,1-26.59-7.89c-.51-.34-1-.68-1.52-1s-.85-.6-1.26-.91l-.44-.33-1.22-1c-.46-.38-.92-.76-1.35-1.15l0,0c-.45-.4-.9-.81-1.32-1.22a.23.23,0,0,1-.07-.07c-.41-.39-.82-.79-1.21-1.19l-.07-.07c-.37-.37-.73-.76-1.08-1.15s-.89-1-1.32-1.52-.74-.89-1.09-1.35l-.16-.21c-.25-.32-.48-.63-.7-1s-.36-.48-.54-.74a3,3,0,0,1-.2-.29c-.24-.33-.46-.67-.67-1s-.62-.95-.91-1.44a48.93,48.93,0,0,1-3.28-6.46l-.38-.91h0l.38-.94a49.38,49.38,0,0,1,2.4-5A48.58,48.58,0,0,1,50,1.19m-.13,57.33c1,0,2,0,3-.11a43.25,43.25,0,0,0,13.68-3.17c-.06-.22-.12-.43-.17-.63s-.13-.43-.2-.64L66,53.35c-.08-.22-.17-.46-.27-.68s-.14-.36-.22-.53A12.47,12.47,0,0,0,64.93,51c-.1-.21-.21-.4-.32-.59s-.21-.37-.33-.57a6.1,6.1,0,0,0-.34-.54,6.49,6.49,0,0,0-.36-.55q-.15-.24-.33-.48l-.43-.57c-.26-.33-.53-.66-.81-1l-.5-.54q-.19-.21-.42-.42a13.44,13.44,0,0,0-1-1L59.14,44c-.34-.26-.7-.51-1.06-.76l-.55-.36a13.81,13.81,0,0,0-1.24-.72l-.47-.25c-.12-.07-.25-.12-.38-.18s-.33-.17-.5-.24l-.82-.34c-.45-.18-.91-.34-1.36-.48l-2.92-.92,1.55-2.63a25.52,25.52,0,0,1,22-12.58c.28,0,.57,0,.86,0l.46,0c.3,0,.62,0,.92.06l.93.09c.47.06.93.13,1.38.22.27,0,.52.1.78.15h0q.49.11,1,.24A21.33,21.33,0,0,1,82,26c.23.08.47.16.69.25.61.24,1.21.5,1.8.79.38.17.75.37,1.11.57l1.06.61.66.42a2.2,2.2,0,0,1,.25.17c.22.14.43.29.64.45s.66.47,1,.73A43.95,43.95,0,0,0,9.72,32.44h0a1.59,1.59,0,0,0,.12.27l.33.71c.14.29.27.58.43.87s.39.77.6,1.15.37.7.58,1a3.38,3.38,0,0,0,.24.41c.18.31.36.63.56.93.08.14.17.28.26.41.19.31.39.61.59.91s.5.72.75,1.08.49.67.75,1c.08.12.16.22.25.34.3.39.61.78.94,1.15s.58.69.89,1c.44.5.89,1,1.35,1.46l.65.65c.23.22.45.44.69.65s.76.71,1.16,1.06a45.79,45.79,0,0,0,5.08,3.85,43.74,43.74,0,0,0,23.93,7.1M50,0A49.9,49.9,0,0,0,6.17,25.93a50.88,50.88,0,0,0-2.45,5.15L3.34,32l-.3.73.4.4.29.7a49.56,49.56,0,0,0,3.36,6.62q.45.73.93,1.47c.21.34.45.7.69,1l.2.29.56.78.71,1,.1.12.06.08c.36.47.74.93,1.12,1.39s.93,1.09,1.37,1.57.74.81,1.06,1.13a1.14,1.14,0,0,0,.15.16c.32.33.68.68,1.13,1.12a1.45,1.45,0,0,0,.18.17c.41.39.85.79,1.28,1.17h0l.06.06c.44.39.9.77,1.36,1.15s.77.62,1.15.92l.12.1.17.12.31.23c.33.26.8.61,1.28.94s1,.7,1.55,1.05a49.68,49.68,0,0,0,27.24,8.08c1.1,0,2.25,0,3.41-.12a48.85,48.85,0,0,0,14.33-3.12c1.07-.4,2.16-.86,3.24-1.36L71,59.9l.12-.1.73-.61.26-.22.11-.33.64-2,.06-.18V56.2l0-.1A26.86,26.86,0,0,0,59.2,36.84l-.07,0A19.6,19.6,0,0,1,73.34,30.6,19.41,19.41,0,0,1,92.73,49.13l0,1.18,1.18,0,4.85-.15,1.19,0,0-1.18a49.35,49.35,0,0,0-3.85-18.18A49.84,49.84,0,0,0,50,0ZM11,32.44a42.77,42.77,0,0,1,74.59-6.12q-.33-.18-.66-.33c-.64-.32-1.33-.6-1.86-.81l-.75-.28A23,23,0,0,0,80,24.18c-.31-.09-.64-.16-1-.23l-.11,0h-.1a6.1,6.1,0,0,0-.72-.14c-.4-.08-.87-.15-1.41-.22l-1-.1-1-.07-.46,0h-.9a26.74,26.74,0,0,0-23,13.16l-1.55,2.64-.76,1.29,1.43.45,2.92.92a13.2,13.2,0,0,1,1.26.45,7,7,0,0,1,.76.31l0,0,0,0a2.36,2.36,0,0,1,.28.12l.15.08.33.15.44.24a11.36,11.36,0,0,1,1.19.69c.17.11.34.21.49.32.43.3.75.52,1,.74s.57.46.86.71.62.55,1,.91l.39.4.48.51c.26.3.51.61.75.92l.43.56c.1.13.19.27.28.41l0,0,0,0c.11.15.21.32.31.48s.23.35.32.51l.32.55.28.52c.21.4.38.75.53,1.11l.21.51c.1.24.18.45.25.64s.14.4.2.6,0,.12.07.19A42.19,42.19,0,0,1,52.8,57.22c-1,.07-2,.1-2.93.1a42.53,42.53,0,0,1-23.28-6.9,45.37,45.37,0,0,1-4.94-3.74c-.39-.34-.76-.68-1.13-1l-.45-.43L19.84,45c-.21-.2-.41-.41-.61-.62-.44-.44-.86-.9-1.32-1.42-.32-.34-.6-.67-.88-1s-.56-.67-.9-1.11l-.08-.1-.13-.17,0,0,0,0c-.25-.32-.48-.63-.71-1l-.73-1.06c-.2-.29-.39-.59-.58-.88l-.24-.39c-.2-.31-.38-.6-.54-.89l0,0,0,0a2.28,2.28,0,0,1-.17-.3l0,0,0,0c-.19-.32-.36-.65-.54-1s-.42-.77-.58-1.12l0,0v0a8.26,8.26,0,0,1-.39-.79L11,32.44Z"/><path class="cls-2" d="M80,39.35s8.45,29.71-12.61,49.48a4.08,4.08,0,0,0-.7,5.42c.75,1,1.7,1,3,1,.82,0,1.51-.7,2.21-1.19,1.29-.92,2.83-.8,3.92-1.79C98.06,72.13,80,39.35,80,39.35Z"/><circle class="cls-2" cx="52.38" cy="49.99" r="2.38"/><path class="cls-2" d="M34,29.09c0,6.94-1,12.56-2.15,12.56S29.73,36,29.73,29.09s1-12.57,2.16-12.57S34,22.15,34,29.09Z"/><path class="cls-2" d="M31.89,31.24c-5.64,0-10.22-1-10.22-2.15s4.58-2.16,10.22-2.16,10.21,1,10.21,2.16S37.53,31.24,31.89,31.24Z"/><path class="cls-2" d="M45.56,78.64c-.29,0-22.49-.6-35.83-9.42l4.89,11a57.26,57.26,0,0,0,17.85,2.64,68.84,68.84,0,0,0,13.38-1.24L58.42,78.9Z"/></svg>