<!-- Generated by IcoMoon.io -->
<svg version="1.1" xmlns="http://www.w3.org/2000/svg" width="32" height="32" viewBox="0 0 32 32">
<title>logo-perm</title>
<path d="M17.916 11.519c0 0.98-0.795 1.775-1.775 1.775s-1.775-0.795-1.775-1.775c0-0.98 0.795-1.775 1.775-1.775s1.775 0.795 1.775 1.775z"></path>
<path d="M28.406 3.972l-12.378-3.925-12.372 3.925c-0.466 0.147-0.778 0.578-0.775 1.069v15.619c0.025 0.106 0.609 2.678 3.138 5.169 1.947 1.916 6.616 4.378 8.65 5.444 0.319 0.166 0.469 0.228 0.603 0.303l0.603 0.3c0.159 0.084 0.444 0.081 0.603 0l0.603-0.3c1.191-0.581 6.703-3.534 8.953-5.747 2.534-2.491 3.119-5.063 3.141-5.169v-15.619c0.012-0.491-0.303-0.922-0.769-1.069zM16.184 29.453l-0.009-0.003h0.022c-0.009 0.003-0.012 0.003-0.012 0.003zM18.559 16.666c0.666 0 1.212 0.547 1.219 1.206 0 0.669-0.547 1.212-1.212 1.212h-1.212v0.756h0.909c0.669 0 1.212 0.547 1.212 1.212 0 0.669-0.547 1.212-1.212 1.212h-0.909v0.972c0 0.669-0.547 1.212-1.212 1.212-0.669 0-1.213-0.547-1.213-1.212v-7.734c-1.709-0.519-2.953-2.106-2.953-3.984 0-2.3 1.863-4.162 4.162-4.162s4.163 1.863 4.163 4.162c0 1.878-1.244 3.466-2.953 3.984v1.163h1.212z"></path>
</svg>
