<!-- Generated by IcoMoon.io -->
<svg version="1.1" xmlns="http://www.w3.org/2000/svg" width="32" height="32" viewBox="0 0 32 32">
<title>logo-environment</title>
<path d="M28.969 10v-2h-2.938v-1c0-0.553-0.447-1-1-1h-1.078v-3.016h-2v3.016h-2.656v-3.016h-2v3.016h-2.656v-3.016h-2v3.016h-2.656v-3.016h-2v3.016h-0.953c-0.553 0-1 0.447-1 1v1h-3.063v2h3.063v2.656h-3.063v2h3.063v2.656h-3.063v2h3.063v2.656h-3.063v2h3.063v1.031c0 0.553 0.447 1 1 1h0.953v2.984h2v-2.984h2.656v2.984h2v-2.984h2.656v2.984h2v-2.984h2.656v2.984h2v-2.984h1.078c0.553 0 1-0.447 1-1v-1.031h2.938v-2h-2.938v-2.656h2.938v-2h-2.938v-2.656h2.938v-2h-2.938v-2.656h2.938zM21.397 20.122c0 0.55-0.45 1-1 1h-8.275c-0.55 0-1-0.45-1-1v-8.316c0-0.55 0.45-1 1-1h8.275c0.55 0 1 0.45 1 1v8.316z"></path>
</svg>
