<!-- Generated by IcoMoon.io -->
<svg version="1.1" xmlns="http://www.w3.org/2000/svg" width="32" height="32" viewBox="0 0 32 32">
<title>logo-service</title>
<path d="M27.031 2.969h-22c-1.103 0-2 0.897-2 2v22c0 1.103 0.897 2 2 2h22c1.103 0 2-0.897 2-2v-22c0-1.103-0.897-2-2-2zM18.303 15.503l-2.291-1.203-2.291 1.203 0.438-2.55-1.85-1.806 2.559-0.372 1.144-2.319 1.147 2.319 2.559 0.372-1.853 1.806 0.438 2.55zM26.031 24.969c0 0.553-0.447 1-1 1h-18c-0.553 0-1-0.447-1-1v-18c0-0.553 0.447-1 1-1h2.813v18.234l6.188-3.909 6.188 3.909v-18.234h2.813c0.553 0 1 0.447 1 1v18z"></path>
</svg>
