<svg id="svg" version="1.1" xmlns="http://www.w3.org/2000/svg" xmlns:xlink="http://www.w3.org/1999/xlink" width="400" height="407.54716981132077" viewBox="0, 0, 400,407.54716981132077"><g id="svgg"><path id="path0" d="M123.867 65.467 C 123.343 65.990,123.556 268.996,124.080 269.520 C 124.589 270.029,172.464 270.257,173.767 269.757 C 174.339 269.538,174.400 265.432,174.400 227.381 C 174.400 199.474,174.536 185.163,174.804 184.998 C 175.427 184.613,176.686 185.149,176.954 185.913 C 177.086 186.291,177.742 187.320,178.410 188.200 C 179.078 189.080,179.795 190.205,180.003 190.700 C 180.210 191.195,180.547 191.600,180.751 191.600 C 180.955 191.600,181.310 192.140,181.540 192.800 C 181.770 193.460,182.136 194.000,182.352 194.000 C 182.569 194.000,182.866 194.378,183.013 194.839 C 183.159 195.301,183.621 196.021,184.039 196.439 C 184.458 196.858,184.800 197.451,184.800 197.757 C 184.800 198.064,185.070 198.418,185.400 198.545 C 185.730 198.671,186.000 198.968,186.000 199.205 C 186.000 199.441,186.720 200.588,187.600 201.754 C 188.480 202.919,189.200 204.081,189.200 204.336 C 189.200 204.591,189.386 204.800,189.613 204.800 C 189.840 204.800,190.155 205.119,190.313 205.508 C 190.471 205.898,192.220 208.619,194.200 211.555 C 196.180 214.490,197.980 217.187,198.200 217.546 C 198.420 217.906,198.825 218.344,199.100 218.520 C 199.375 218.696,199.600 218.997,199.600 219.190 C 199.600 219.572,205.876 229.071,206.695 229.929 C 206.973 230.219,207.200 230.714,207.200 231.029 C 207.200 231.343,207.344 231.600,207.520 231.600 C 207.696 231.600,208.816 233.085,210.008 234.900 C 211.201 236.715,212.320 238.380,212.494 238.600 C 213.352 239.682,214.800 242.080,214.800 242.418 C 214.800 242.628,214.975 242.800,215.190 242.800 C 215.404 242.800,215.860 243.295,216.202 243.900 C 216.998 245.307,217.813 246.549,219.800 249.386 C 220.680 250.642,222.030 252.636,222.800 253.816 C 223.570 254.997,224.785 256.790,225.500 257.801 C 226.215 258.813,226.800 259.726,226.800 259.832 C 226.800 259.937,227.520 260.934,228.400 262.048 C 229.280 263.161,230.000 264.236,230.000 264.436 C 230.000 264.636,230.315 265.142,230.700 265.560 C 231.085 265.977,231.850 266.962,232.400 267.749 L 233.400 269.178 259.900 269.189 L 286.400 269.200 286.400 268.200 C 286.400 267.650,286.211 267.200,285.980 267.200 C 285.748 267.200,285.296 266.570,284.974 265.800 C 284.652 265.030,284.212 264.400,283.995 264.400 C 283.778 264.400,283.600 264.215,283.600 263.988 C 283.600 263.762,282.880 262.666,282.000 261.552 C 281.120 260.439,280.400 259.283,280.400 258.984 C 280.400 258.685,280.171 258.296,279.890 258.120 C 279.434 257.834,278.125 256.051,277.600 255.000 C 276.933 253.666,270.949 244.944,270.520 244.680 C 270.234 244.504,270.000 244.127,270.000 243.842 C 270.000 243.557,269.640 242.998,269.200 242.600 C 268.760 242.202,268.400 241.734,268.400 241.560 C 268.400 241.387,266.330 238.172,263.800 234.417 C 261.270 230.662,259.200 227.502,259.200 227.395 C 259.200 227.288,258.885 226.870,258.500 226.466 C 258.115 226.062,257.580 225.387,257.312 224.966 C 257.043 224.545,256.185 223.300,255.404 222.200 C 254.623 221.100,253.722 219.631,253.402 218.937 C 253.082 218.242,252.676 217.612,252.500 217.537 C 252.325 217.461,251.126 215.780,249.836 213.800 C 246.033 207.960,245.428 207.059,244.870 206.413 C 243.961 205.361,236.800 194.321,236.800 193.971 C 236.800 193.789,236.554 193.496,236.254 193.320 C 235.954 193.144,235.408 192.460,235.041 191.800 C 234.673 191.140,233.022 188.710,231.371 186.400 C 229.720 184.090,228.157 181.705,227.897 181.100 C 227.637 180.495,227.289 180.000,227.123 180.000 C 226.956 180.000,226.540 179.505,226.198 178.900 C 225.856 178.295,225.266 177.334,224.888 176.764 C 224.510 176.194,223.705 174.982,223.100 174.072 C 221.964 172.362,221.699 171.033,222.406 170.596 C 222.629 170.458,223.086 169.773,223.420 169.073 C 224.576 166.655,225.245 165.600,225.622 165.600 C 225.830 165.600,226.000 165.375,226.001 165.100 C 226.001 164.825,226.721 163.563,227.601 162.296 C 228.480 161.028,229.200 159.910,229.200 159.811 C 229.200 159.712,230.190 158.177,231.400 156.400 C 232.610 154.623,233.600 153.095,233.600 153.005 C 233.600 152.914,234.185 152.002,234.900 150.977 C 237.050 147.896,237.574 147.060,238.206 145.700 C 238.539 144.985,238.988 144.400,239.205 144.400 C 239.422 144.400,239.600 144.196,239.600 143.946 C 239.600 143.696,240.975 141.401,242.655 138.846 C 244.335 136.291,246.180 133.480,246.755 132.600 C 247.330 131.720,247.935 130.940,248.100 130.867 C 248.265 130.793,248.401 130.523,248.402 130.267 C 248.404 130.010,249.213 128.630,250.200 127.200 C 251.187 125.770,251.996 124.375,251.998 124.100 C 251.999 123.825,252.186 123.600,252.413 123.600 C 252.639 123.600,252.946 123.285,253.093 122.900 C 253.359 122.207,254.862 119.795,255.540 118.975 C 255.734 118.741,256.123 118.111,256.406 117.575 C 256.688 117.039,257.028 116.510,257.160 116.400 C 257.653 115.989,259.200 113.619,259.200 113.274 C 259.200 113.076,259.803 112.124,260.540 111.158 C 261.277 110.191,262.179 108.860,262.545 108.200 C 263.236 106.953,263.981 105.747,264.506 105.022 C 265.530 103.608,266.800 101.517,266.800 101.244 C 266.800 101.068,267.160 100.598,267.600 100.200 C 268.040 99.802,268.400 99.262,268.400 99.000 C 268.400 98.738,268.760 98.198,269.200 97.800 C 269.640 97.402,270.000 96.847,270.000 96.567 C 270.000 96.286,270.225 95.819,270.500 95.529 C 270.945 95.058,272.327 92.974,273.410 91.139 C 273.624 90.776,274.880 88.848,276.200 86.855 C 277.520 84.863,279.320 82.029,280.200 80.558 C 281.080 79.087,282.115 77.549,282.500 77.142 C 282.885 76.734,283.200 76.278,283.200 76.129 C 283.200 75.980,284.042 74.616,285.070 73.096 C 286.583 70.861,286.832 70.265,286.370 69.973 C 285.744 69.577,236.056 69.449,234.106 69.839 C 233.273 70.005,232.623 70.558,231.956 71.667 C 231.430 72.541,230.775 73.500,230.500 73.799 C 230.225 74.098,230.000 74.523,230.000 74.743 C 230.000 74.963,229.753 75.390,229.452 75.691 C 229.150 75.992,228.606 76.815,228.242 77.520 C 227.877 78.224,227.404 78.800,227.190 78.800 C 226.975 78.800,226.800 79.078,226.800 79.417 C 226.800 79.756,226.080 81.009,225.200 82.200 C 224.320 83.391,223.600 84.457,223.600 84.567 C 223.600 84.678,222.610 86.223,221.400 88.000 C 220.190 89.777,219.200 91.307,219.200 91.400 C 219.200 91.493,218.229 92.996,217.041 94.739 C 215.854 96.483,214.762 98.290,214.614 98.755 C 214.467 99.220,214.188 99.600,213.995 99.600 C 213.641 99.600,212.951 100.705,211.809 103.100 C 211.468 103.815,211.015 104.400,210.802 104.400 C 210.589 104.400,210.306 104.837,210.172 105.371 C 210.038 105.904,209.584 106.652,209.164 107.033 C 208.744 107.413,208.388 107.921,208.373 108.162 C 208.358 108.403,207.546 109.680,206.568 111.000 C 205.590 112.320,204.620 113.795,204.413 114.278 C 204.206 114.761,203.398 116.064,202.618 117.174 C 201.838 118.284,201.200 119.346,201.200 119.534 C 201.200 119.722,200.840 120.202,200.400 120.600 C 199.960 120.998,199.600 121.462,199.600 121.631 C 199.600 121.799,198.786 123.166,197.792 124.669 C 196.797 126.171,195.762 127.736,195.492 128.146 C 195.221 128.557,194.685 129.305,194.300 129.809 C 193.915 130.314,193.600 130.868,193.600 131.042 C 193.600 131.388,191.681 134.302,190.926 135.102 C 190.666 135.379,190.338 135.964,190.199 136.402 C 190.060 136.841,189.790 137.200,189.600 137.200 C 189.410 137.200,189.141 137.557,189.002 137.993 C 188.717 138.890,184.803 145.031,183.834 146.100 C 183.485 146.485,183.200 146.952,183.200 147.139 C 183.200 147.325,182.840 147.893,182.400 148.400 C 181.960 148.907,181.600 149.537,181.600 149.799 C 181.600 150.061,181.240 150.602,180.800 151.000 C 180.360 151.398,180.000 151.861,180.000 152.028 C 180.000 152.506,175.977 158.400,175.651 158.400 C 174.427 158.400,174.400 157.378,174.400 111.563 C 174.400 70.098,174.339 65.662,173.767 65.443 C 172.901 65.110,124.200 65.133,123.867 65.467 " stroke="none" fill="none" fill-rule="evenodd"></path><path id="path1" d="M184.000 0.400 C 184.000 0.658,179.734 0.800,172.003 0.800 C 160.440 0.800,159.989 0.829,159.507 1.600 C 159.038 2.351,158.574 2.400,151.866 2.400 C 145.062 2.400,144.715 2.438,144.516 3.200 C 144.320 3.949,143.970 4.000,139.002 4.000 C 134.775 4.000,133.597 4.122,133.200 4.600 C 132.816 5.062,131.756 5.200,128.584 5.200 C 124.135 5.200,123.200 5.381,123.200 6.243 C 123.200 6.682,122.352 6.800,119.196 6.800 C 115.687 6.800,115.107 6.899,114.507 7.600 C 113.920 8.286,113.327 8.400,110.358 8.400 C 107.230 8.400,106.873 8.478,106.684 9.200 C 106.495 9.923,106.138 10.000,103.000 10.000 C 99.862 10.000,99.505 10.077,99.316 10.800 C 99.131 11.508,98.770 11.600,96.196 11.600 C 93.978 11.600,93.231 11.743,93.055 12.200 C 92.886 12.640,92.192 12.800,90.445 12.800 C 87.703 12.800,86.800 13.058,86.800 13.843 C 86.800 14.267,86.121 14.400,83.963 14.400 C 81.462 14.400,81.100 14.495,80.916 15.200 C 80.734 15.894,80.370 16.000,78.157 16.000 C 76.040 16.000,75.522 16.136,75.107 16.800 C 74.710 17.435,74.174 17.600,72.504 17.600 C 70.900 17.600,70.400 17.743,70.400 18.200 C 70.400 18.661,69.889 18.800,68.200 18.800 C 66.533 18.800,65.806 18.994,65.200 19.600 C 64.672 20.128,63.867 20.400,62.833 20.400 C 60.878 20.400,60.000 20.723,60.000 21.443 C 60.000 21.845,59.443 22.000,58.003 22.000 C 56.440 22.000,55.898 22.174,55.507 22.800 C 55.121 23.419,54.574 23.600,53.091 23.600 C 51.757 23.600,51.105 23.782,50.945 24.200 C 50.806 24.561,50.203 24.800,49.433 24.800 C 48.704 24.800,47.780 25.145,47.292 25.600 C 46.727 26.126,45.881 26.400,44.817 26.400 C 43.467 26.400,43.200 26.532,43.200 27.200 C 43.200 27.895,42.933 28.000,41.163 28.000 C 39.462 28.000,39.091 28.132,38.916 28.800 C 38.752 29.427,38.370 29.600,37.153 29.600 C 35.867 29.600,35.600 29.737,35.600 30.400 C 35.600 31.094,35.333 31.200,33.587 31.200 C 32.168 31.200,31.507 31.377,31.345 31.800 C 31.218 32.130,30.698 32.400,30.190 32.400 C 28.850 32.400,28.000 32.805,28.000 33.443 C 28.000 33.816,27.525 34.000,26.563 34.000 C 25.462 34.000,25.076 34.187,24.916 34.800 C 24.759 35.401,24.370 35.600,23.353 35.600 L 22.000 35.600 22.000 116.200 C 22.000 196.533,22.003 196.800,22.800 196.800 C 23.553 196.800,23.600 197.067,23.600 201.371 C 23.600 204.902,23.737 206.080,24.200 206.543 C 24.620 206.963,24.800 207.991,24.800 209.975 C 24.800 212.313,24.940 212.928,25.600 213.493 C 26.242 214.043,26.400 214.673,26.400 216.689 C 26.400 218.667,26.570 219.370,27.200 220.000 C 27.804 220.604,28.000 221.333,28.000 222.973 C 28.000 224.795,28.129 225.187,28.800 225.400 C 29.465 225.611,29.600 226.005,29.600 227.731 C 29.600 229.374,29.767 229.912,30.400 230.307 C 30.999 230.681,31.200 231.240,31.200 232.527 C 31.200 233.473,31.464 234.596,31.787 235.024 C 32.110 235.451,32.380 236.383,32.387 237.097 C 32.396 237.950,32.673 238.564,33.200 238.893 C 33.815 239.277,34.000 239.826,34.000 241.269 C 34.000 242.795,34.150 243.194,34.800 243.400 C 35.395 243.589,35.600 244.005,35.600 245.027 C 35.600 246.133,35.755 246.400,36.400 246.400 C 37.094 246.400,37.200 246.667,37.200 248.413 C 37.200 249.756,37.384 250.496,37.753 250.637 C 38.057 250.754,38.419 251.558,38.558 252.425 C 38.720 253.440,39.021 254.000,39.405 254.000 C 39.821 254.000,40.000 254.431,40.000 255.437 C 40.000 256.538,40.187 256.924,40.800 257.084 C 41.401 257.241,41.600 257.630,41.600 258.647 C 41.600 259.733,41.758 260.000,42.400 260.000 C 43.067 260.000,43.200 260.267,43.200 261.600 C 43.200 262.933,43.333 263.200,44.000 263.200 C 44.648 263.200,44.800 263.467,44.800 264.600 C 44.800 265.528,44.987 266.000,45.355 266.000 C 45.675 266.000,46.024 266.603,46.178 267.421 C 46.324 268.203,46.704 268.942,47.022 269.064 C 47.340 269.186,47.600 269.626,47.600 270.043 C 47.600 270.533,47.882 270.800,48.400 270.800 C 49.048 270.800,49.200 271.067,49.200 272.200 C 49.200 273.333,49.352 273.600,50.000 273.600 C 50.648 273.600,50.800 273.867,50.800 275.000 C 50.800 275.770,50.984 276.400,51.210 276.400 C 51.435 276.400,51.791 276.850,52.000 277.400 C 52.209 277.950,52.655 278.400,52.990 278.400 C 53.405 278.400,53.600 278.795,53.600 279.637 C 53.600 280.538,53.817 280.932,54.400 281.084 C 54.843 281.200,55.200 281.630,55.200 282.047 C 55.200 282.533,55.483 282.800,56.000 282.800 C 56.648 282.800,56.800 283.067,56.800 284.200 C 56.800 285.333,56.952 285.600,57.600 285.600 C 58.133 285.600,58.400 285.867,58.400 286.400 C 58.400 286.840,58.650 287.200,58.955 287.200 C 59.274 287.200,59.623 287.798,59.774 288.600 C 59.931 289.438,60.270 290.000,60.618 290.000 C 60.942 290.000,61.200 290.371,61.200 290.837 C 61.200 291.338,61.521 291.759,62.000 291.884 C 62.440 291.999,62.800 292.342,62.800 292.647 C 62.800 292.951,63.160 293.200,63.600 293.200 C 64.208 293.200,64.400 293.467,64.400 294.311 C 64.400 294.922,64.715 295.726,65.100 296.097 C 66.631 297.573,67.200 298.288,67.200 298.734 C 67.200 298.990,67.560 299.200,68.000 299.200 C 68.533 299.200,68.800 299.467,68.800 300.000 C 68.800 300.533,69.067 300.800,69.600 300.800 C 70.133 300.800,70.400 301.067,70.400 301.600 C 70.400 302.044,70.667 302.400,71.000 302.400 C 71.330 302.400,71.600 302.687,71.600 303.037 C 71.600 303.388,71.960 303.769,72.400 303.884 C 72.843 304.000,73.200 304.430,73.200 304.847 C 73.200 305.261,73.335 305.604,73.500 305.609 C 73.665 305.614,74.852 306.604,76.137 307.809 C 77.422 309.014,78.637 310.000,78.837 310.000 C 79.037 310.000,79.200 310.287,79.200 310.637 C 79.200 310.988,79.560 311.369,80.000 311.484 C 80.440 311.599,80.800 311.942,80.800 312.247 C 80.800 312.551,81.160 312.800,81.600 312.800 C 82.133 312.800,82.400 313.067,82.400 313.600 C 82.400 314.133,82.667 314.400,83.200 314.400 C 83.733 314.400,84.000 314.667,84.000 315.200 C 84.000 315.640,84.186 316.000,84.413 316.000 C 84.641 316.000,85.457 316.630,86.227 317.400 C 86.997 318.170,87.761 318.800,87.924 318.800 C 88.088 318.800,88.530 319.160,88.907 319.600 C 89.284 320.040,90.044 320.400,90.596 320.400 C 91.333 320.400,91.600 320.613,91.600 321.200 C 91.600 321.644,91.867 322.000,92.200 322.000 C 92.530 322.000,92.800 322.287,92.800 322.637 C 92.800 322.988,93.160 323.369,93.600 323.484 C 94.040 323.599,94.400 323.959,94.400 324.284 C 94.400 324.609,94.760 324.969,95.200 325.084 C 95.640 325.199,96.000 325.542,96.000 325.847 C 96.000 326.151,96.360 326.400,96.800 326.400 C 97.333 326.400,97.600 326.667,97.600 327.200 C 97.600 327.640,97.804 328.000,98.053 328.000 C 98.302 328.000,99.100 328.630,99.826 329.400 C 100.552 330.170,101.310 330.800,101.511 330.800 C 101.712 330.800,102.202 331.160,102.600 331.600 C 102.998 332.040,103.656 332.400,104.062 332.400 C 104.533 332.400,104.800 332.689,104.800 333.200 C 104.800 333.733,105.067 334.000,105.600 334.000 C 106.065 334.000,106.400 334.267,106.400 334.637 C 106.400 334.988,106.760 335.369,107.200 335.484 C 107.640 335.599,108.000 335.959,108.000 336.284 C 108.000 336.609,108.360 336.969,108.800 337.084 C 109.240 337.199,109.600 337.542,109.600 337.847 C 109.600 338.151,109.960 338.400,110.400 338.400 C 110.933 338.400,111.200 338.667,111.200 339.200 C 111.200 339.717,111.467 340.000,111.953 340.000 C 112.370 340.000,112.800 340.357,112.916 340.800 C 113.041 341.277,113.462 341.600,113.959 341.600 C 114.418 341.600,115.018 341.960,115.293 342.400 C 115.568 342.840,116.109 343.200,116.496 343.200 C 116.933 343.200,117.200 343.503,117.200 344.000 C 117.200 344.444,117.467 344.800,117.800 344.800 C 118.130 344.800,118.400 345.070,118.400 345.400 C 118.400 345.733,118.756 346.000,119.200 346.000 C 119.733 346.000,120.000 346.267,120.000 346.800 C 120.000 347.333,120.267 347.600,120.800 347.600 C 121.252 347.600,121.600 347.867,121.600 348.213 C 121.600 348.549,121.915 348.941,122.300 349.082 C 122.685 349.224,123.144 349.578,123.320 349.870 C 123.496 350.161,123.873 350.400,124.158 350.400 C 124.443 350.400,125.002 350.760,125.400 351.200 C 125.798 351.640,126.456 352.000,126.862 352.000 C 127.333 352.000,127.600 352.289,127.600 352.800 C 127.600 353.333,127.867 353.600,128.400 353.600 C 128.933 353.600,129.200 353.867,129.200 354.400 C 129.200 354.933,129.467 355.200,130.000 355.200 C 130.440 355.200,130.800 355.404,130.800 355.654 C 130.800 356.181,132.666 358.000,133.207 358.000 C 133.407 358.000,133.765 358.360,134.000 358.800 C 134.280 359.324,134.838 359.600,135.614 359.600 C 136.533 359.600,136.800 359.780,136.800 360.400 C 136.800 360.933,137.067 361.200,137.600 361.200 C 138.133 361.200,138.400 361.467,138.400 362.000 C 138.400 362.444,138.667 362.800,139.000 362.800 C 139.330 362.800,139.600 363.087,139.600 363.437 C 139.600 363.788,139.948 364.166,140.372 364.277 C 140.797 364.388,141.241 364.731,141.360 365.039 C 141.478 365.348,141.838 365.600,142.160 365.600 C 142.483 365.600,142.860 365.960,143.000 366.400 C 143.178 366.960,143.605 367.200,144.427 367.200 C 145.333 367.200,145.600 367.382,145.600 368.000 C 145.600 368.533,145.867 368.800,146.400 368.800 C 146.865 368.800,147.200 369.067,147.200 369.437 C 147.200 369.788,147.560 370.169,148.000 370.284 C 148.440 370.399,148.800 370.742,148.800 371.047 C 148.800 371.351,149.160 371.600,149.600 371.600 C 150.052 371.600,150.400 371.867,150.400 372.213 C 150.400 372.549,150.701 372.941,151.069 373.082 C 151.438 373.223,152.068 373.668,152.469 374.069 C 152.871 374.471,153.560 374.800,154.000 374.800 C 154.533 374.800,154.800 375.067,154.800 375.600 C 154.800 376.133,155.067 376.400,155.600 376.400 C 156.044 376.400,156.400 376.667,156.400 377.000 C 156.400 377.333,156.756 377.600,157.200 377.600 C 157.733 377.600,158.000 377.867,158.000 378.400 C 158.000 378.844,158.267 379.200,158.600 379.200 C 158.930 379.200,159.560 379.560,160.000 380.000 C 160.440 380.440,161.160 380.800,161.600 380.800 C 162.133 380.800,162.400 381.067,162.400 381.600 C 162.400 382.133,162.667 382.400,163.200 382.400 C 163.665 382.400,164.000 382.667,164.000 383.037 C 164.000 383.388,164.360 383.769,164.800 383.884 C 165.240 383.999,165.600 384.342,165.600 384.647 C 165.600 384.970,166.015 385.200,166.597 385.200 C 167.160 385.200,167.810 385.548,168.093 386.000 C 168.368 386.440,168.909 386.800,169.296 386.800 C 169.733 386.800,170.000 387.103,170.000 387.600 C 170.000 388.133,170.267 388.400,170.800 388.400 C 171.252 388.400,171.600 388.667,171.600 389.013 C 171.600 389.349,171.915 389.744,172.300 389.890 C 172.685 390.036,173.238 390.390,173.529 390.678 C 173.819 390.965,174.494 391.200,175.029 391.200 C 175.733 391.200,176.000 391.420,176.000 392.000 C 176.000 392.533,176.267 392.800,176.800 392.800 C 177.250 392.800,177.600 393.067,177.600 393.410 C 177.600 393.745,178.012 394.177,178.516 394.368 C 179.020 394.560,179.673 395.005,179.965 395.358 C 180.258 395.711,180.836 396.000,181.249 396.000 C 181.662 396.000,182.000 396.270,182.000 396.600 C 182.000 396.930,182.339 397.200,182.753 397.200 C 183.170 397.200,183.600 397.557,183.716 398.000 C 183.868 398.583,184.262 398.800,185.163 398.800 C 186.028 398.800,186.400 398.992,186.400 399.437 C 186.400 399.788,186.754 400.167,187.187 400.281 C 187.619 400.394,188.082 400.827,188.214 401.243 C 188.388 401.792,188.831 402.000,189.827 402.000 C 190.933 402.000,191.200 402.155,191.200 402.800 C 191.200 403.333,191.467 403.600,192.000 403.600 C 192.444 403.600,192.800 403.867,192.800 404.200 C 192.800 404.619,193.222 404.800,194.200 404.800 C 195.333 404.800,195.600 404.952,195.600 405.600 C 195.600 406.248,195.867 406.400,197.000 406.400 C 197.770 406.400,198.400 406.580,198.400 406.800 C 198.400 407.031,199.667 407.200,201.400 407.200 C 203.133 407.200,204.400 407.031,204.400 406.800 C 204.400 406.580,204.760 406.400,205.200 406.400 C 205.733 406.400,206.000 406.133,206.000 405.600 C 206.000 404.952,206.267 404.800,207.400 404.800 C 208.378 404.800,208.800 404.619,208.800 404.200 C 208.800 403.870,209.087 403.600,209.437 403.600 C 209.788 403.600,210.169 403.240,210.284 402.800 C 210.400 402.357,210.830 402.000,211.247 402.000 C 211.733 402.000,212.000 401.717,212.000 401.200 C 212.000 400.572,212.267 400.400,213.237 400.400 C 214.138 400.400,214.532 400.183,214.684 399.600 C 214.804 399.140,215.230 398.800,215.684 398.800 C 216.138 398.800,216.564 398.460,216.684 398.000 C 216.799 397.560,217.142 397.200,217.447 397.200 C 217.751 397.200,218.000 396.930,218.000 396.600 C 218.000 396.270,218.317 396.000,218.704 396.000 C 219.091 396.000,219.632 395.640,219.907 395.200 C 220.182 394.760,220.782 394.400,221.241 394.400 C 221.738 394.400,222.159 394.077,222.284 393.600 C 222.400 393.157,222.830 392.800,223.247 392.800 C 223.733 392.800,224.000 392.517,224.000 392.000 C 224.000 391.467,224.267 391.200,224.800 391.200 C 225.244 391.200,225.600 390.933,225.600 390.600 C 225.600 390.267,225.956 390.000,226.400 390.000 C 226.933 390.000,227.200 389.733,227.200 389.200 C 227.200 388.678,227.467 388.400,227.967 388.400 C 229.159 388.400,230.000 387.969,230.000 387.357 C 230.000 387.051,230.360 386.800,230.800 386.800 C 231.333 386.800,231.600 386.533,231.600 386.000 C 231.600 385.467,231.867 385.200,232.400 385.200 C 232.840 385.200,233.200 384.951,233.200 384.647 C 233.200 384.342,233.560 383.999,234.000 383.884 C 234.440 383.769,234.800 383.388,234.800 383.037 C 234.800 382.681,235.131 382.400,235.551 382.400 C 235.964 382.400,236.542 382.111,236.835 381.758 C 237.127 381.405,237.780 380.960,238.284 380.768 C 238.788 380.577,239.200 380.145,239.200 379.810 C 239.200 379.467,239.550 379.200,240.000 379.200 C 240.533 379.200,240.800 378.933,240.800 378.400 C 240.800 377.867,241.067 377.600,241.600 377.600 C 242.044 377.600,242.400 377.333,242.400 377.000 C 242.400 376.670,242.670 376.400,243.000 376.400 C 243.330 376.400,243.600 376.060,243.600 375.645 C 243.600 375.099,243.986 374.817,244.989 374.628 C 245.753 374.485,246.518 374.136,246.689 373.854 C 246.860 373.571,247.315 373.224,247.700 373.082 C 248.085 372.941,248.400 372.549,248.400 372.213 C 248.400 371.876,248.676 371.600,249.013 371.600 C 249.349 371.600,249.729 371.330,249.855 371.000 C 249.982 370.670,250.336 370.400,250.643 370.400 C 250.949 370.400,251.200 370.040,251.200 369.600 C 251.200 369.067,251.467 368.800,252.000 368.800 C 252.533 368.800,252.800 368.533,252.800 368.000 C 252.800 367.478,253.067 367.200,253.567 367.200 C 254.759 367.200,255.600 366.769,255.600 366.157 C 255.600 365.851,255.960 365.600,256.400 365.600 C 256.840 365.600,257.200 365.351,257.200 365.047 C 257.200 364.742,257.560 364.399,258.000 364.284 C 258.440 364.169,258.800 363.788,258.800 363.437 C 258.800 363.067,259.135 362.800,259.600 362.800 C 260.133 362.800,260.400 362.533,260.400 362.000 C 260.400 361.467,260.667 361.200,261.200 361.200 C 261.733 361.200,262.000 360.933,262.000 360.400 C 262.000 359.814,262.267 359.600,262.997 359.600 C 263.560 359.600,264.210 359.252,264.493 358.800 C 264.768 358.360,265.309 358.000,265.696 358.000 C 266.083 358.000,266.400 357.742,266.400 357.427 C 266.400 357.112,266.760 356.740,267.200 356.600 C 267.640 356.460,268.000 356.109,268.000 355.820 C 268.000 355.530,268.360 355.199,268.800 355.084 C 269.240 354.969,269.600 354.588,269.600 354.237 C 269.600 353.887,269.870 353.600,270.200 353.600 C 270.533 353.600,270.800 353.244,270.800 352.800 C 270.800 352.289,271.067 352.000,271.539 352.000 C 271.945 352.000,272.693 351.640,273.200 351.200 C 273.707 350.760,274.365 350.400,274.661 350.400 C 274.958 350.400,275.200 350.130,275.200 349.800 C 275.200 349.467,275.556 349.200,276.000 349.200 C 276.533 349.200,276.800 348.933,276.800 348.400 C 276.800 347.867,277.067 347.600,277.600 347.600 C 278.133 347.600,278.400 347.333,278.400 346.800 C 278.400 346.267,278.667 346.000,279.200 346.000 C 279.640 346.000,280.000 345.751,280.000 345.447 C 280.000 345.142,280.360 344.799,280.800 344.684 C 281.240 344.569,281.600 344.188,281.600 343.837 C 281.600 343.467,281.935 343.200,282.400 343.200 C 282.840 343.200,283.529 342.871,283.931 342.469 C 284.332 342.068,284.962 341.623,285.331 341.482 C 285.699 341.341,286.000 340.949,286.000 340.613 C 286.000 340.267,286.348 340.000,286.800 340.000 C 287.333 340.000,287.600 339.733,287.600 339.200 C 287.600 338.667,287.867 338.400,288.400 338.400 C 288.844 338.400,289.200 338.133,289.200 337.800 C 289.200 337.470,289.470 337.200,289.800 337.200 C 290.133 337.200,290.400 336.844,290.400 336.400 C 290.400 335.884,290.667 335.600,291.151 335.600 C 291.564 335.600,292.142 335.311,292.435 334.958 C 292.727 334.605,293.380 334.160,293.884 333.968 C 294.388 333.777,294.800 333.345,294.800 333.010 C 294.800 332.674,295.061 332.400,295.379 332.400 C 296.084 332.400,298.000 330.685,298.000 330.054 C 298.000 329.804,298.360 329.600,298.800 329.600 C 299.333 329.600,299.600 329.333,299.600 328.800 C 299.600 328.267,299.867 328.000,300.400 328.000 C 300.933 328.000,301.200 327.733,301.200 327.200 C 301.200 326.646,301.467 326.400,302.066 326.400 C 302.543 326.400,303.218 326.138,303.566 325.819 C 305.474 324.068,305.920 323.716,306.531 323.482 C 306.899 323.341,307.200 322.970,307.200 322.659 C 307.200 322.348,307.560 321.999,308.000 321.884 C 308.440 321.769,308.800 321.388,308.800 321.037 C 308.800 320.687,309.070 320.400,309.400 320.400 C 309.733 320.400,310.000 320.044,310.000 319.600 C 310.000 319.067,310.267 318.800,310.800 318.800 C 311.244 318.800,311.600 318.533,311.600 318.200 C 311.600 317.867,311.956 317.600,312.400 317.600 C 312.840 317.600,313.560 317.240,314.000 316.800 C 314.440 316.360,314.974 316.000,315.186 316.000 C 315.398 316.000,315.765 315.640,316.000 315.200 C 316.235 314.760,316.692 314.400,317.014 314.400 C 317.336 314.400,317.600 314.040,317.600 313.600 C 317.600 313.067,317.867 312.800,318.400 312.800 C 318.840 312.800,319.200 312.542,319.200 312.227 C 319.200 311.912,319.560 311.540,320.000 311.400 C 320.440 311.260,320.800 310.888,320.800 310.573 C 320.800 310.258,321.058 310.000,321.373 310.000 C 321.688 310.000,322.060 309.640,322.200 309.200 C 322.340 308.760,322.712 308.400,323.027 308.400 C 323.342 308.400,323.600 308.040,323.600 307.600 C 323.600 307.067,323.867 306.800,324.400 306.800 C 324.840 306.800,325.200 306.542,325.200 306.227 C 325.200 305.912,325.560 305.540,326.000 305.400 C 326.440 305.260,326.800 304.798,326.800 304.373 C 326.800 303.948,327.004 303.600,327.254 303.600 C 328.026 303.600,330.030 301.128,330.902 299.100 C 331.165 298.489,331.692 298.000,332.088 298.000 C 332.519 298.000,332.800 297.702,332.800 297.247 C 332.800 296.830,333.157 296.400,333.600 296.284 C 334.040 296.169,334.400 295.788,334.400 295.437 C 334.400 295.087,334.625 294.792,334.900 294.783 C 335.550 294.761,337.200 292.170,337.200 291.172 C 337.200 290.667,337.476 290.400,338.000 290.400 C 338.533 290.400,338.800 290.133,338.800 289.600 C 338.800 289.135,339.067 288.800,339.437 288.800 C 339.788 288.800,340.166 288.452,340.277 288.028 C 340.388 287.603,340.714 287.165,341.002 287.055 C 341.289 286.944,341.646 286.302,341.794 285.627 C 341.942 284.952,342.319 284.400,342.632 284.400 C 342.944 284.400,343.200 284.061,343.200 283.647 C 343.200 283.230,343.557 282.800,344.000 282.684 C 344.613 282.524,344.800 282.138,344.800 281.037 C 344.800 279.867,344.948 279.600,345.600 279.600 C 346.133 279.600,346.400 279.333,346.400 278.800 C 346.400 278.360,346.651 278.000,346.957 278.000 C 347.560 278.000,348.000 277.162,348.000 276.014 C 348.000 275.618,348.360 275.199,348.800 275.084 C 349.344 274.942,349.600 274.538,349.600 273.825 C 349.600 273.247,349.870 272.671,350.200 272.545 C 350.530 272.418,350.800 271.995,350.800 271.604 C 350.800 271.213,351.160 270.799,351.600 270.684 C 352.213 270.524,352.400 270.138,352.400 269.037 C 352.400 267.867,352.548 267.600,353.200 267.600 C 353.842 267.600,354.000 267.333,354.000 266.247 C 354.000 265.230,354.199 264.841,354.800 264.684 C 355.413 264.524,355.600 264.138,355.600 263.037 C 355.600 262.026,355.778 261.600,356.200 261.600 C 356.619 261.600,356.800 261.178,356.800 260.200 C 356.800 259.067,356.952 258.800,357.600 258.800 C 358.267 258.800,358.400 258.533,358.400 257.200 C 358.400 255.867,358.533 255.600,359.200 255.600 C 359.842 255.600,360.000 255.333,360.000 254.247 C 360.000 253.230,360.199 252.841,360.800 252.684 C 361.406 252.525,361.600 252.138,361.600 251.084 C 361.600 250.030,361.794 249.643,362.400 249.484 C 363.013 249.324,363.200 248.938,363.200 247.837 C 363.200 246.826,363.378 246.400,363.800 246.400 C 364.244 246.400,364.400 245.934,364.400 244.603 C 364.400 243.240,364.593 242.686,365.200 242.307 C 365.713 241.987,366.000 241.374,366.000 240.600 C 366.000 239.826,366.287 239.213,366.800 238.893 C 367.422 238.504,367.600 237.960,367.600 236.443 C 367.600 234.830,367.738 234.457,368.400 234.284 C 369.033 234.119,369.200 233.738,369.200 232.466 C 369.200 231.569,369.466 230.592,369.800 230.257 C 370.130 229.927,370.400 229.104,370.400 228.429 C 370.400 227.733,370.747 226.853,371.200 226.400 C 371.822 225.778,372.000 225.067,372.000 223.200 C 372.000 221.067,372.089 220.800,372.800 220.800 C 373.503 220.800,373.600 220.533,373.600 218.600 C 373.600 216.986,373.748 216.400,374.157 216.400 C 374.941 216.400,375.200 215.497,375.200 212.767 C 375.200 211.011,375.344 210.400,375.757 210.400 C 376.538 210.400,376.800 209.498,376.800 206.810 C 376.800 205.113,376.962 204.423,377.400 204.255 C 377.855 204.081,378.000 203.344,378.000 201.213 C 378.000 198.933,378.152 198.248,378.800 197.600 C 379.481 196.919,379.600 196.267,379.600 193.200 C 379.600 190.132,379.718 189.482,380.401 188.799 C 381.198 188.002,381.201 187.565,381.101 111.099 L 381.000 34.200 379.621 34.069 C 378.863 33.997,378.042 33.663,377.797 33.328 C 377.552 32.993,376.507 32.624,375.476 32.507 C 374.257 32.370,373.600 32.104,373.600 31.748 C 373.600 31.350,372.996 31.200,371.400 31.200 C 369.467 31.200,369.200 31.103,369.200 30.400 C 369.200 29.741,368.933 29.600,367.689 29.600 C 366.673 29.600,365.953 29.338,365.493 28.800 C 365.032 28.261,364.313 28.000,363.293 28.000 C 362.273 28.000,361.554 27.739,361.093 27.200 C 360.596 26.620,359.913 26.400,358.604 26.400 C 357.335 26.400,356.800 26.236,356.800 25.847 C 356.800 25.221,355.603 24.814,353.743 24.805 C 352.998 24.802,352.392 24.555,352.255 24.200 C 352.093 23.777,351.434 23.600,350.027 23.600 C 348.438 23.600,347.940 23.436,347.600 22.800 C 347.259 22.164,346.762 22.000,345.169 22.000 C 343.719 22.000,342.929 21.779,342.308 21.200 C 341.678 20.613,340.896 20.400,339.371 20.400 C 337.630 20.400,337.259 20.270,337.084 19.600 C 336.910 18.935,336.538 18.800,334.880 18.800 C 333.476 18.800,332.817 18.622,332.655 18.200 C 332.481 17.747,331.749 17.600,329.659 17.600 C 327.230 17.600,326.868 17.503,326.684 16.800 C 326.500 16.096,326.138 16.000,323.684 16.000 C 321.230 16.000,320.868 15.904,320.684 15.200 C 320.500 14.495,320.138 14.400,317.637 14.400 C 315.479 14.400,314.800 14.267,314.800 13.843 C 314.800 13.058,313.897 12.800,311.155 12.800 C 309.408 12.800,308.714 12.640,308.545 12.200 C 308.370 11.744,307.627 11.600,305.446 11.600 C 303.073 11.600,302.460 11.462,301.893 10.800 C 301.314 10.124,300.713 10.000,298.004 10.000 C 295.532 10.000,294.800 9.873,294.800 9.443 C 294.800 8.620,293.882 8.400,290.456 8.400 C 287.873 8.400,287.268 8.271,286.693 7.600 C 286.097 6.905,285.513 6.800,282.224 6.800 C 279.036 6.800,278.378 6.690,278.049 6.100 C 277.718 5.508,276.928 5.379,272.929 5.265 C 269.383 5.163,268.120 4.988,267.880 4.565 C 267.630 4.123,266.404 4.000,262.242 4.000 C 257.432 4.000,256.855 3.924,256.200 3.200 C 255.532 2.462,254.968 2.400,248.938 2.400 C 242.933 2.400,242.335 2.335,241.600 1.600 C 240.833 0.833,240.267 0.800,227.800 0.800 C 219.400 0.800,214.800 0.658,214.800 0.400 C 214.800 0.140,209.400 0.000,199.400 0.000 C 189.400 0.000,184.000 0.140,184.000 0.400 M174.760 64.300 L 175.609 65.000 175.704 110.800 C 175.765 139.691,175.939 156.305,176.175 155.800 C 176.382 155.360,177.147 154.147,177.875 153.104 C 178.604 152.061,179.200 151.054,179.200 150.866 C 179.200 150.678,179.560 150.198,180.000 149.800 C 180.440 149.402,180.800 148.931,180.800 148.753 C 180.800 148.576,181.790 146.977,183.000 145.200 C 184.210 143.423,185.200 141.796,185.200 141.585 C 185.200 141.373,185.515 140.869,185.900 140.465 C 186.833 139.485,187.492 138.469,188.213 136.900 C 188.542 136.185,188.985 135.600,189.198 135.600 C 189.411 135.600,189.698 135.150,189.836 134.600 C 189.974 134.050,190.245 133.600,190.438 133.600 C 190.631 133.600,191.052 132.970,191.374 132.200 C 191.696 131.430,192.109 130.800,192.292 130.800 C 192.475 130.800,192.848 130.305,193.120 129.700 C 194.040 127.658,194.842 126.400,195.222 126.400 C 195.430 126.400,195.600 126.200,195.600 125.956 C 195.600 125.338,198.060 121.600,198.467 121.600 C 198.650 121.600,198.800 121.268,198.800 120.862 C 198.800 120.456,199.160 119.798,199.600 119.400 C 200.040 119.002,200.400 118.443,200.400 118.158 C 200.400 117.873,200.629 117.496,200.908 117.320 C 201.188 117.144,201.645 116.550,201.924 116.000 C 202.789 114.296,203.446 113.234,204.088 112.503 C 204.428 112.116,204.829 111.395,204.980 110.900 C 205.130 110.405,205.427 110.000,205.640 110.000 C 205.852 110.000,206.146 109.685,206.293 109.300 C 206.441 108.915,206.978 107.970,207.488 107.200 C 207.998 106.430,208.636 105.464,208.907 105.054 C 209.178 104.643,209.690 103.923,210.045 103.454 C 210.400 102.984,210.817 102.195,210.972 101.700 C 211.127 101.205,211.419 100.800,211.622 100.800 C 211.824 100.800,212.268 100.215,212.609 99.500 C 213.770 97.064,214.443 96.000,214.822 96.000 C 215.030 96.000,215.200 95.785,215.200 95.522 C 215.200 94.932,217.212 91.918,217.899 91.480 C 218.174 91.304,218.400 90.811,218.400 90.384 C 218.400 89.956,218.760 89.382,219.200 89.107 C 219.640 88.832,220.000 88.285,220.000 87.891 C 220.000 87.497,220.263 87.074,220.585 86.950 C 220.906 86.827,221.285 86.362,221.426 85.918 C 221.567 85.473,222.654 83.683,223.841 81.939 C 225.029 80.196,226.000 78.684,226.000 78.580 C 226.000 78.477,226.638 77.484,227.418 76.374 C 228.198 75.264,229.004 73.916,229.208 73.378 C 229.413 72.840,229.765 72.400,229.990 72.400 C 230.216 72.400,230.401 72.175,230.402 71.900 C 230.403 71.625,230.955 70.811,231.630 70.092 L 232.856 68.784 260.442 68.892 C 290.273 69.009,289.898 68.980,287.982 71.020 C 287.552 71.477,287.200 71.977,287.200 72.130 C 287.200 72.283,286.570 73.305,285.800 74.400 C 285.030 75.495,284.400 76.546,284.400 76.734 C 284.400 76.922,284.040 77.402,283.600 77.800 C 283.160 78.198,282.800 78.738,282.800 79.000 C 282.800 79.262,282.440 79.802,282.000 80.200 C 281.560 80.598,281.200 81.078,281.200 81.266 C 281.200 81.454,280.611 82.461,279.891 83.504 C 279.171 84.547,278.365 85.895,278.099 86.500 C 277.834 87.105,277.453 87.600,277.252 87.600 C 277.051 87.600,276.774 88.050,276.636 88.600 C 276.498 89.150,276.199 89.600,275.972 89.600 C 275.744 89.600,275.370 90.140,275.140 90.800 C 274.910 91.460,274.550 92.000,274.340 92.000 C 274.130 92.000,273.770 92.540,273.540 93.200 C 273.310 93.860,272.959 94.400,272.761 94.400 C 272.562 94.400,272.400 94.670,272.400 95.000 C 272.400 95.330,272.040 95.960,271.600 96.400 C 271.160 96.840,270.800 97.316,270.800 97.459 C 270.800 97.601,270.125 98.722,269.300 99.950 C 268.475 101.178,267.706 102.366,267.592 102.591 C 266.832 104.080,265.463 106.000,265.160 106.000 C 264.962 106.000,264.800 106.332,264.800 106.738 C 264.800 107.144,264.440 107.802,264.000 108.200 C 263.560 108.598,263.200 109.138,263.200 109.400 C 263.200 109.662,262.840 110.202,262.400 110.600 C 261.960 110.998,261.600 111.553,261.600 111.833 C 261.600 112.114,261.286 112.657,260.903 113.040 C 260.117 113.825,259.506 114.799,258.605 116.700 C 258.266 117.415,257.829 118.000,257.634 118.000 C 257.438 118.000,257.090 118.495,256.860 119.100 C 256.630 119.705,255.715 121.190,254.827 122.400 C 253.940 123.610,252.949 125.185,252.627 125.900 C 252.305 126.615,251.891 127.200,251.708 127.200 C 251.525 127.200,251.159 127.695,250.895 128.300 C 250.631 128.905,250.057 129.940,249.619 130.600 C 249.182 131.260,248.524 132.340,248.156 133.000 C 247.789 133.660,247.317 134.311,247.108 134.446 C 246.733 134.689,246.124 135.650,245.116 137.595 C 244.832 138.141,244.285 138.906,243.900 139.295 C 243.515 139.683,243.200 140.270,243.200 140.600 C 243.200 140.930,243.032 141.200,242.827 141.200 C 242.622 141.200,242.340 141.559,242.201 141.998 C 242.062 142.436,241.730 143.021,241.464 143.298 C 241.198 143.574,240.405 144.700,239.701 145.800 C 238.997 146.900,238.236 148.017,238.011 148.283 C 237.785 148.549,237.600 148.868,237.600 148.992 C 237.600 149.293,235.533 152.462,234.901 153.129 C 234.625 153.419,234.400 153.886,234.400 154.167 C 234.400 154.447,234.040 155.002,233.600 155.400 C 233.160 155.798,232.800 156.357,232.800 156.642 C 232.800 156.927,232.571 157.304,232.292 157.480 C 232.012 157.656,231.555 158.250,231.276 158.800 C 230.411 160.504,229.754 161.566,229.112 162.297 C 228.772 162.684,228.371 163.405,228.220 163.900 C 228.070 164.395,227.773 164.800,227.560 164.800 C 227.348 164.800,227.057 165.115,226.912 165.500 C 226.768 165.885,226.048 167.061,225.312 168.114 C 223.091 171.293,223.137 171.858,225.950 176.022 C 227.298 178.017,228.400 179.777,228.400 179.935 C 228.400 180.093,228.760 180.530,229.200 180.907 C 229.640 181.284,230.000 181.836,230.000 182.134 C 230.000 182.432,230.360 183.002,230.800 183.400 C 231.240 183.798,231.600 184.366,231.600 184.662 C 231.600 184.958,231.762 185.200,231.960 185.200 C 232.268 185.200,233.841 187.416,234.348 188.564 C 234.437 188.765,235.204 189.845,236.053 190.964 C 236.902 192.084,237.597 193.225,237.598 193.500 C 237.599 193.775,237.786 194.000,238.013 194.000 C 238.239 194.000,238.546 194.315,238.693 194.700 C 238.996 195.491,240.531 197.901,241.294 198.785 C 241.847 199.425,242.486 200.455,243.284 201.995 C 243.568 202.541,244.032 203.261,244.315 203.595 C 245.798 205.340,246.800 206.759,246.800 207.115 C 246.800 207.335,247.070 207.618,247.400 207.745 C 247.730 207.871,248.000 208.223,248.000 208.525 C 248.000 208.828,248.360 209.402,248.800 209.800 C 249.240 210.198,249.600 210.669,249.600 210.847 C 249.600 211.024,250.590 212.623,251.800 214.400 C 253.010 216.177,254.000 217.804,254.000 218.015 C 254.000 218.227,254.189 218.400,254.420 218.400 C 254.652 218.400,255.104 219.030,255.426 219.800 C 255.748 220.570,256.185 221.200,256.398 221.200 C 256.611 221.200,256.898 221.650,257.036 222.200 C 257.174 222.750,257.415 223.200,257.572 223.200 C 257.882 223.200,260.000 226.295,260.000 226.747 C 260.000 226.898,260.360 227.330,260.800 227.707 C 261.240 228.084,261.600 228.636,261.600 228.934 C 261.600 229.232,261.960 229.802,262.400 230.200 C 262.840 230.598,263.200 231.166,263.200 231.462 C 263.200 231.758,263.389 232.000,263.620 232.000 C 263.852 232.000,264.304 232.630,264.626 233.400 C 264.948 234.170,265.367 234.800,265.559 234.800 C 265.750 234.800,266.013 235.115,266.144 235.500 C 266.274 235.885,267.003 237.010,267.764 238.000 C 268.525 238.990,269.159 239.929,269.173 240.087 C 269.218 240.575,272.568 245.381,273.099 245.720 C 273.375 245.896,273.600 246.273,273.600 246.558 C 273.600 246.843,273.960 247.402,274.400 247.800 C 274.840 248.198,275.200 248.738,275.200 249.000 C 275.200 249.262,275.560 249.802,276.000 250.200 C 276.440 250.598,276.800 251.138,276.800 251.400 C 276.800 251.662,277.160 252.202,277.600 252.600 C 278.040 252.998,278.400 253.470,278.400 253.649 C 278.400 253.918,280.998 257.949,282.106 259.400 C 283.037 260.619,284.400 262.888,284.400 263.218 C 284.400 263.428,284.548 263.600,284.729 263.600 C 285.085 263.600,287.200 266.670,287.200 267.187 C 287.200 267.360,287.470 267.726,287.800 268.000 C 288.586 268.652,288.568 269.850,287.767 270.157 C 287.419 270.291,274.841 270.400,259.815 270.400 L 232.496 270.400 230.549 267.500 C 229.478 265.905,228.464 264.420,228.295 264.200 C 227.412 263.047,226.000 260.720,226.000 260.416 C 226.000 260.224,225.833 260.007,225.628 259.933 C 225.224 259.789,220.000 252.102,220.000 251.652 C 220.000 251.501,219.640 251.070,219.200 250.693 C 218.760 250.316,218.400 249.736,218.400 249.404 C 218.400 249.072,218.250 248.800,218.068 248.800 C 217.885 248.800,217.480 248.315,217.168 247.721 C 216.855 247.128,216.177 246.183,215.660 245.621 C 215.143 245.060,214.443 244.060,214.105 243.400 C 213.767 242.740,212.980 241.551,212.357 240.758 C 211.734 239.964,211.043 238.839,210.822 238.258 C 210.601 237.676,210.235 237.200,210.010 237.200 C 209.784 237.200,209.600 236.958,209.600 236.662 C 209.600 236.366,209.256 235.813,208.836 235.433 C 208.416 235.052,207.962 234.304,207.828 233.771 C 207.694 233.237,207.404 232.800,207.182 232.800 C 206.961 232.800,206.609 232.350,206.400 231.800 C 206.191 231.250,205.853 230.800,205.649 230.800 C 205.445 230.800,205.090 230.260,204.860 229.600 C 204.630 228.940,204.264 228.400,204.048 228.400 C 203.831 228.400,203.534 228.022,203.387 227.561 C 203.241 227.099,202.779 226.379,202.361 225.961 C 201.942 225.542,201.600 224.949,201.600 224.643 C 201.600 224.336,201.330 223.982,201.000 223.855 C 200.670 223.729,200.400 223.377,200.400 223.075 C 200.400 222.772,200.040 222.198,199.600 221.800 C 199.160 221.402,198.800 220.862,198.800 220.600 C 198.800 220.338,198.440 219.798,198.000 219.400 C 197.560 219.002,197.200 218.434,197.200 218.138 C 197.200 217.842,197.038 217.600,196.840 217.600 C 196.537 217.600,195.168 215.680,194.408 214.191 C 193.935 213.263,191.032 208.970,190.627 208.600 C 190.387 208.380,189.960 207.750,189.679 207.200 C 188.580 205.049,188.034 204.251,187.429 203.912 C 187.083 203.719,186.800 203.327,186.800 203.042 C 186.800 202.757,186.440 202.198,186.000 201.800 C 185.560 201.402,185.200 200.862,185.200 200.600 C 185.200 200.338,184.840 199.798,184.400 199.400 C 183.960 199.002,183.600 198.526,183.600 198.343 C 183.600 198.160,182.610 196.582,181.400 194.835 C 180.190 193.088,179.200 191.506,179.200 191.318 C 179.200 191.131,178.885 190.680,178.500 190.317 C 177.491 189.365,176.982 188.693,176.265 187.370 C 175.684 186.296,175.631 189.658,175.616 228.224 C 175.602 263.866,175.514 270.365,175.032 271.024 C 174.481 271.778,173.745 271.800,148.997 271.800 L 123.529 271.800 122.765 270.856 C 121.970 269.874,121.516 66.133,122.306 64.966 C 123.177 63.679,124.249 63.624,149.056 63.612 C 172.148 63.601,173.972 63.650,174.760 64.300 " stroke="none" fill-rule="evenodd"></path><path id="path2" d="M123.900 64.832 C 123.005 65.353,122.787 269.427,123.680 270.320 C 124.374 271.014,173.626 271.014,174.320 270.320 C 174.687 269.953,174.800 260.087,174.800 228.353 C 174.800 180.343,174.578 183.112,178.000 188.460 C 178.990 190.008,180.023 191.572,180.295 191.937 C 181.485 193.529,183.649 196.742,184.649 198.400 C 185.246 199.390,186.695 201.503,187.867 203.096 C 189.040 204.689,190.000 206.146,190.000 206.334 C 190.000 206.522,190.360 207.002,190.800 207.400 C 191.240 207.798,191.600 208.338,191.600 208.600 C 191.600 208.862,191.960 209.402,192.400 209.800 C 192.840 210.198,193.200 210.671,193.200 210.851 C 193.200 211.031,194.374 212.848,195.808 214.889 C 199.082 219.547,200.544 221.688,200.800 222.200 C 201.008 222.615,205.554 229.496,206.086 230.200 C 206.252 230.420,206.841 231.166,207.394 231.858 C 207.947 232.550,208.400 233.214,208.400 233.334 C 208.400 233.550,213.197 240.815,213.594 241.200 C 213.707 241.310,214.678 242.737,215.750 244.370 C 216.823 246.004,217.858 247.534,218.051 247.770 C 218.962 248.886,221.257 252.306,221.694 253.200 C 221.963 253.750,222.412 254.344,222.692 254.520 C 222.971 254.696,223.200 255.073,223.200 255.358 C 223.200 255.643,223.560 256.202,224.000 256.600 C 224.440 256.998,224.800 257.495,224.800 257.704 C 224.800 257.913,225.253 258.650,225.806 259.342 C 227.118 260.983,226.970 260.772,230.147 265.507 L 232.895 269.600 260.091 269.600 L 287.287 269.600 287.036 268.602 C 286.898 268.053,285.466 265.668,283.854 263.302 C 277.114 253.412,274.800 249.918,274.800 249.629 C 274.800 249.461,274.440 248.998,274.000 248.600 C 273.560 248.202,273.200 247.717,273.200 247.522 C 273.200 247.167,271.625 244.776,271.144 244.400 C 270.851 244.172,267.200 238.764,267.200 238.560 C 267.200 238.399,263.894 233.488,263.592 233.200 C 263.477 233.090,261.047 229.490,258.193 225.200 C 255.338 220.910,252.912 217.310,252.801 217.200 C 252.691 217.090,251.771 215.740,250.757 214.200 C 247.423 209.134,245.981 207.024,244.608 205.200 C 243.863 204.210,243.241 203.203,243.227 202.962 C 243.212 202.721,242.840 202.198,242.400 201.800 C 241.960 201.402,241.600 200.862,241.600 200.600 C 241.600 200.338,241.240 199.798,240.800 199.400 C 240.360 199.002,240.000 198.428,240.000 198.125 C 240.000 197.823,239.730 197.471,239.400 197.345 C 239.070 197.218,238.800 196.918,238.800 196.679 C 238.800 196.272,236.895 193.243,236.361 192.800 C 236.228 192.690,235.911 192.203,235.656 191.718 C 235.276 190.998,231.664 185.734,230.495 184.200 C 229.089 182.354,223.168 173.183,222.881 172.408 C 222.431 171.191,222.611 170.880,232.228 156.200 C 234.148 153.268,234.401 152.861,235.356 151.152 C 235.772 150.409,236.222 149.710,236.356 149.600 C 236.846 149.198,238.400 146.822,238.400 146.474 C 238.400 146.276,239.003 145.324,239.740 144.358 C 240.477 143.391,241.422 141.991,241.840 141.248 C 243.216 138.799,243.464 138.413,244.136 137.671 C 244.501 137.267,244.800 136.823,244.800 136.684 C 244.800 136.545,245.790 134.977,247.000 133.200 C 248.210 131.423,249.200 129.892,249.200 129.797 C 249.200 129.703,249.896 128.584,250.747 127.313 C 251.598 126.041,253.332 123.380,254.600 121.400 C 255.868 119.420,257.242 117.312,257.653 116.716 C 258.064 116.120,258.400 115.445,258.400 115.216 C 258.400 114.987,258.584 114.800,258.810 114.800 C 259.035 114.800,259.392 114.347,259.602 113.794 C 259.961 112.851,261.508 110.443,262.040 110.000 C 262.172 109.890,262.513 109.350,262.798 108.800 C 263.351 107.732,267.009 102.044,270.852 96.276 C 272.143 94.338,273.200 92.669,273.200 92.567 C 273.200 92.369,275.259 89.131,275.596 88.800 C 276.022 88.382,277.600 86.022,277.600 85.803 C 277.600 85.577,278.422 84.284,283.831 76.000 C 287.725 70.037,287.704 70.084,286.802 69.601 C 286.323 69.345,276.610 69.200,259.880 69.200 C 229.921 69.200,232.779 68.821,230.350 73.111 C 229.636 74.370,228.931 75.490,228.782 75.600 C 228.633 75.710,228.172 76.409,227.756 77.152 C 226.831 78.808,226.507 79.323,224.992 81.557 C 224.336 82.524,223.620 83.604,223.400 83.957 C 223.180 84.311,222.350 85.590,221.554 86.800 C 215.808 95.546,214.565 97.492,214.281 98.189 C 214.105 98.622,213.834 99.072,213.679 99.189 C 213.338 99.445,211.347 102.439,211.144 103.000 C 211.065 103.220,209.219 106.100,207.041 109.400 C 204.864 112.700,202.504 116.300,201.797 117.400 C 197.778 123.656,195.268 127.534,194.579 128.556 C 194.151 129.192,193.620 129.998,193.400 130.347 C 189.568 136.424,184.218 144.700,182.905 146.585 C 182.297 147.457,181.280 149.069,180.644 150.168 C 180.009 151.267,178.884 153.027,178.144 154.079 C 177.405 155.131,176.800 156.152,176.800 156.347 C 176.800 156.542,176.543 156.916,176.228 157.177 C 174.847 158.322,174.800 156.774,174.800 110.616 L 174.800 65.180 173.774 64.790 C 172.348 64.248,124.834 64.288,123.900 64.832 M173.767 65.443 C 174.339 65.662,174.400 70.098,174.400 111.563 C 174.400 157.378,174.427 158.400,175.651 158.400 C 175.977 158.400,180.000 152.506,180.000 152.028 C 180.000 151.861,180.360 151.398,180.800 151.000 C 181.240 150.602,181.600 150.061,181.600 149.799 C 181.600 149.537,181.960 148.907,182.400 148.400 C 182.840 147.893,183.200 147.325,183.200 147.139 C 183.200 146.952,183.485 146.485,183.834 146.100 C 184.803 145.031,188.717 138.890,189.002 137.993 C 189.141 137.557,189.410 137.200,189.600 137.200 C 189.790 137.200,190.060 136.841,190.199 136.402 C 190.338 135.964,190.666 135.379,190.926 135.102 C 191.681 134.302,193.600 131.388,193.600 131.042 C 193.600 130.868,193.915 130.314,194.300 129.809 C 194.685 129.305,195.221 128.557,195.492 128.146 C 195.762 127.736,196.797 126.171,197.792 124.669 C 198.786 123.166,199.600 121.799,199.600 121.631 C 199.600 121.462,199.960 120.998,200.400 120.600 C 200.840 120.202,201.200 119.722,201.200 119.534 C 201.200 119.346,201.838 118.284,202.618 117.174 C 203.398 116.064,204.206 114.761,204.413 114.278 C 204.620 113.795,205.590 112.320,206.568 111.000 C 207.546 109.680,208.358 108.403,208.373 108.162 C 208.388 107.921,208.744 107.413,209.164 107.033 C 209.584 106.652,210.038 105.904,210.172 105.371 C 210.306 104.837,210.589 104.400,210.802 104.400 C 211.015 104.400,211.468 103.815,211.809 103.100 C 212.951 100.705,213.641 99.600,213.995 99.600 C 214.188 99.600,214.467 99.220,214.614 98.755 C 214.762 98.290,215.854 96.483,217.041 94.739 C 218.229 92.996,219.200 91.493,219.200 91.400 C 219.200 91.307,220.190 89.777,221.400 88.000 C 222.610 86.223,223.600 84.678,223.600 84.567 C 223.600 84.457,224.320 83.391,225.200 82.200 C 226.080 81.009,226.800 79.756,226.800 79.417 C 226.800 79.078,226.975 78.800,227.190 78.800 C 227.404 78.800,227.877 78.224,228.242 77.520 C 228.606 76.815,229.150 75.992,229.452 75.691 C 229.753 75.390,230.000 74.963,230.000 74.743 C 230.000 74.523,230.225 74.098,230.500 73.799 C 230.775 73.500,231.430 72.541,231.956 71.667 C 232.623 70.558,233.273 70.005,234.106 69.839 C 236.056 69.449,285.744 69.577,286.370 69.973 C 286.832 70.265,286.583 70.861,285.070 73.096 C 284.042 74.616,283.200 75.980,283.200 76.129 C 283.200 76.278,282.885 76.734,282.500 77.142 C 282.115 77.549,281.080 79.087,280.200 80.558 C 279.320 82.029,277.520 84.863,276.200 86.855 C 274.880 88.848,273.624 90.776,273.410 91.139 C 272.327 92.974,270.945 95.058,270.500 95.529 C 270.225 95.819,270.000 96.286,270.000 96.567 C 270.000 96.847,269.640 97.402,269.200 97.800 C 268.760 98.198,268.400 98.738,268.400 99.000 C 268.400 99.262,268.040 99.802,267.600 100.200 C 267.160 100.598,266.800 101.068,266.800 101.244 C 266.800 101.517,265.530 103.608,264.506 105.022 C 263.981 105.747,263.236 106.953,262.545 108.200 C 262.179 108.860,261.277 110.191,260.540 111.158 C 259.803 112.124,259.200 113.076,259.200 113.274 C 259.200 113.619,257.653 115.989,257.160 116.400 C 257.028 116.510,256.688 117.039,256.406 117.575 C 256.123 118.111,255.734 118.741,255.540 118.975 C 254.862 119.795,253.359 122.207,253.093 122.900 C 252.946 123.285,252.639 123.600,252.413 123.600 C 252.186 123.600,251.999 123.825,251.998 124.100 C 251.996 124.375,251.187 125.770,250.200 127.200 C 249.213 128.630,248.404 130.010,248.402 130.267 C 248.401 130.523,248.265 130.793,248.100 130.867 C 247.935 130.940,247.330 131.720,246.755 132.600 C 246.180 133.480,244.335 136.291,242.655 138.846 C 240.975 141.401,239.600 143.696,239.600 143.946 C 239.600 144.196,239.422 144.400,239.205 144.400 C 238.988 144.400,238.539 144.985,238.206 145.700 C 237.574 147.060,237.050 147.896,234.900 150.977 C 234.185 152.002,233.600 152.914,233.600 153.005 C 233.600 153.095,232.610 154.623,231.400 156.400 C 230.190 158.177,229.200 159.712,229.200 159.811 C 229.200 159.910,228.480 161.028,227.601 162.296 C 226.721 163.563,226.001 164.825,226.001 165.100 C 226.000 165.375,225.830 165.600,225.622 165.600 C 225.245 165.600,224.576 166.655,223.420 169.073 C 223.086 169.773,222.629 170.458,222.406 170.596 C 221.699 171.033,221.964 172.362,223.100 174.072 C 223.705 174.982,224.510 176.194,224.888 176.764 C 225.266 177.334,225.856 178.295,226.198 178.900 C 226.540 179.505,226.956 180.000,227.123 180.000 C 227.289 180.000,227.637 180.495,227.897 181.100 C 228.157 181.705,229.720 184.090,231.371 186.400 C 233.022 188.710,234.673 191.140,235.041 191.800 C 235.408 192.460,235.954 193.144,236.254 193.320 C 236.554 193.496,236.800 193.789,236.800 193.971 C 236.800 194.321,243.961 205.361,244.870 206.413 C 245.428 207.059,246.033 207.960,249.836 213.800 C 251.126 215.780,252.325 217.461,252.500 217.537 C 252.676 217.612,253.082 218.242,253.402 218.937 C 253.722 219.631,254.623 221.100,255.404 222.200 C 256.185 223.300,257.043 224.545,257.312 224.966 C 257.580 225.387,258.115 226.062,258.500 226.466 C 258.885 226.870,259.200 227.288,259.200 227.395 C 259.200 227.502,261.270 230.662,263.800 234.417 C 266.330 238.172,268.400 241.387,268.400 241.560 C 268.400 241.734,268.760 242.202,269.200 242.600 C 269.640 242.998,270.000 243.557,270.000 243.842 C 270.000 244.127,270.234 244.504,270.520 244.680 C 270.949 244.944,276.933 253.666,277.600 255.000 C 278.125 256.051,279.434 257.834,279.890 258.120 C 280.171 258.296,280.400 258.685,280.400 258.984 C 280.400 259.283,281.120 260.439,282.000 261.552 C 282.880 262.666,283.600 263.762,283.600 263.988 C 283.600 264.215,283.778 264.400,283.995 264.400 C 284.212 264.400,284.652 265.030,284.974 265.800 C 285.296 266.570,285.748 267.200,285.980 267.200 C 286.211 267.200,286.400 267.650,286.400 268.200 L 286.400 269.200 259.900 269.189 L 233.400 269.178 232.400 267.749 C 231.850 266.962,231.085 265.977,230.700 265.560 C 230.315 265.142,230.000 264.636,230.000 264.436 C 230.000 264.236,229.280 263.161,228.400 262.048 C 227.520 260.934,226.800 259.937,226.800 259.832 C 226.800 259.726,226.215 258.813,225.500 257.801 C 224.785 256.790,223.570 254.997,222.800 253.816 C 222.030 252.636,220.680 250.642,219.800 249.386 C 217.813 246.549,216.998 245.307,216.202 243.900 C 215.860 243.295,215.404 242.800,215.190 242.800 C 214.975 242.800,214.800 242.628,214.800 242.418 C 214.800 242.080,213.352 239.682,212.494 238.600 C 212.320 238.380,211.201 236.715,210.008 234.900 C 208.816 233.085,207.696 231.600,207.520 231.600 C 207.344 231.600,207.200 231.343,207.200 231.029 C 207.200 230.714,206.973 230.219,206.695 229.929 C 205.876 229.071,199.600 219.572,199.600 219.190 C 199.600 218.997,199.375 218.696,199.100 218.520 C 198.825 218.344,198.420 217.906,198.200 217.546 C 197.980 217.187,196.180 214.490,194.200 211.555 C 192.220 208.619,190.471 205.898,190.313 205.508 C 190.155 205.119,189.840 204.800,189.613 204.800 C 189.386 204.800,189.200 204.591,189.200 204.336 C 189.200 204.081,188.480 202.919,187.600 201.754 C 186.720 200.588,186.000 199.441,186.000 199.205 C 186.000 198.968,185.730 198.671,185.400 198.545 C 185.070 198.418,184.800 198.064,184.800 197.757 C 184.800 197.451,184.458 196.858,184.039 196.439 C 183.621 196.021,183.159 195.301,183.013 194.839 C 182.866 194.378,182.569 194.000,182.352 194.000 C 182.136 194.000,181.770 193.460,181.540 192.800 C 181.310 192.140,180.955 191.600,180.751 191.600 C 180.547 191.600,180.210 191.195,180.003 190.700 C 179.795 190.205,179.078 189.080,178.410 188.200 C 177.742 187.320,177.086 186.291,176.954 185.913 C 176.686 185.149,175.427 184.613,174.804 184.998 C 174.536 185.163,174.400 199.474,174.400 227.381 C 174.400 265.432,174.339 269.538,173.767 269.757 C 172.464 270.257,124.589 270.029,124.080 269.520 C 123.556 268.996,123.343 65.990,123.867 65.467 C 124.200 65.133,172.901 65.110,173.767 65.443 " stroke="none" fill="#84b4dc" fill-rule="evenodd"></path><path id="path3" d="M123.067 65.067 C 122.349 65.784,122.780 269.886,123.500 270.451 C 124.121 270.938,124.143 270.927,123.698 270.357 C 123.299 269.845,123.218 248.906,123.298 167.257 C 123.354 110.906,123.385 64.800,123.367 64.800 C 123.348 64.800,123.213 64.920,123.067 65.067 M174.993 111.000 C 174.993 136.080,175.041 146.399,175.100 133.931 C 175.159 121.463,175.159 100.943,175.100 88.331 C 175.041 75.719,174.993 85.920,174.993 111.000 M283.196 76.897 C 282.026 78.656,281.936 78.982,282.946 77.800 C 283.837 76.757,284.237 76.000,283.896 76.000 C 283.839 76.000,283.524 76.404,283.196 76.897 M225.500 80.214 C 224.501 81.550,224.631 81.923,225.646 80.633 C 226.111 80.042,226.426 79.495,226.346 79.418 C 226.266 79.341,225.885 79.700,225.500 80.214 M174.993 228.000 C 174.993 250.990,175.041 260.395,175.100 248.900 C 175.159 237.405,175.159 218.595,175.100 207.100 C 175.041 195.605,174.993 205.010,174.993 228.000 M198.399 219.100 C 198.922 219.815,199.413 220.400,199.489 220.400 C 199.793 220.400,198.801 218.900,198.145 218.367 C 197.713 218.016,197.810 218.296,198.399 219.100 M276.442 252.368 C 277.360 253.706,278.187 254.800,278.279 254.800 C 278.474 254.800,278.247 254.414,276.695 252.110 C 276.070 251.181,275.381 250.312,275.166 250.179 C 274.950 250.045,275.525 251.031,276.442 252.368 M246.500 269.900 C 253.925 269.961,266.075 269.961,273.500 269.900 C 280.925 269.839,274.850 269.789,260.000 269.789 C 245.150 269.789,239.075 269.839,246.500 269.900 M136.500 271.100 C 143.265 271.161,154.335 271.161,161.100 271.100 C 167.865 271.038,162.330 270.988,148.800 270.988 C 135.270 270.988,129.735 271.038,136.500 271.100 " stroke="none" fill="#74acd4" fill-rule="evenodd"></path><path id="path4" d="M123.400 64.078 C 122.960 64.327,122.468 64.727,122.306 64.966 C 121.516 66.133,121.970 269.874,122.765 270.856 L 123.529 271.800 148.997 271.800 C 173.745 271.800,174.481 271.778,175.032 271.024 C 175.514 270.365,175.602 263.866,175.616 228.224 C 175.631 189.658,175.684 186.296,176.265 187.370 C 176.982 188.693,177.491 189.365,178.500 190.317 C 178.885 190.680,179.200 191.131,179.200 191.318 C 179.200 191.506,180.190 193.088,181.400 194.835 C 182.610 196.582,183.600 198.160,183.600 198.343 C 183.600 198.526,183.960 199.002,184.400 199.400 C 184.840 199.798,185.200 200.338,185.200 200.600 C 185.200 200.862,185.560 201.402,186.000 201.800 C 186.440 202.198,186.800 202.760,186.800 203.048 C 186.800 203.336,187.160 203.765,187.600 204.000 C 188.142 204.290,188.400 204.295,188.400 204.014 C 188.400 203.786,188.250 203.600,188.068 203.600 C 187.885 203.600,187.480 203.105,187.168 202.500 C 186.536 201.276,186.436 201.130,185.006 199.342 C 184.453 198.650,184.000 197.984,184.000 197.861 C 184.000 197.739,182.904 196.055,181.565 194.119 C 180.226 192.184,178.398 189.482,177.502 188.116 C 176.606 186.749,175.722 185.725,175.537 185.839 C 175.351 185.954,175.200 204.812,175.200 227.747 C 175.200 263.125,175.114 269.565,174.632 270.224 C 173.840 271.307,125.370 271.666,123.744 270.600 L 122.800 269.982 122.800 167.605 C 122.800 66.797,122.812 65.222,123.574 64.814 C 125.224 63.931,174.305 64.276,174.786 65.174 C 175.064 65.694,175.200 80.818,175.200 111.350 C 175.200 136.322,175.349 156.845,175.532 156.958 C 175.851 157.155,176.553 156.145,182.596 146.800 C 184.090 144.490,185.962 141.614,186.756 140.409 C 187.550 139.204,188.290 138.034,188.400 137.809 C 188.510 137.584,189.635 135.827,190.900 133.904 C 192.165 131.981,193.200 130.226,193.200 130.004 C 193.200 129.782,193.363 129.600,193.562 129.600 C 193.761 129.600,194.496 128.587,195.195 127.348 C 195.894 126.110,196.635 124.895,196.843 124.648 C 197.051 124.402,197.788 123.300,198.482 122.200 C 199.175 121.100,200.610 118.880,201.671 117.266 C 202.732 115.653,203.600 114.267,203.600 114.187 C 203.600 114.106,204.185 113.203,204.900 112.179 C 205.615 111.156,206.380 110.033,206.600 109.684 C 206.820 109.335,207.945 107.624,209.100 105.882 C 210.255 104.140,211.200 102.587,211.200 102.430 C 211.200 102.273,211.920 101.179,212.800 100.000 C 213.680 98.821,214.400 97.714,214.400 97.540 C 214.400 97.245,217.539 92.438,218.017 92.000 C 218.542 91.520,219.944 88.800,219.667 88.800 C 219.119 88.800,218.400 89.742,218.400 90.460 C 218.400 90.845,218.174 91.304,217.899 91.480 C 217.212 91.918,215.200 94.932,215.200 95.522 C 215.200 95.785,215.030 96.000,214.822 96.000 C 214.443 96.000,213.770 97.064,212.609 99.500 C 212.268 100.215,211.824 100.800,211.622 100.800 C 211.419 100.800,211.127 101.205,210.972 101.700 C 210.817 102.195,210.400 102.984,210.045 103.454 C 209.690 103.923,209.178 104.643,208.907 105.054 C 208.636 105.464,207.998 106.430,207.488 107.200 C 206.978 107.970,206.441 108.915,206.293 109.300 C 206.146 109.685,205.852 110.000,205.640 110.000 C 205.427 110.000,205.130 110.405,204.980 110.900 C 204.829 111.395,204.428 112.116,204.088 112.503 C 203.446 113.234,202.789 114.296,201.924 116.000 C 201.645 116.550,201.188 117.144,200.908 117.320 C 200.629 117.496,200.400 117.873,200.400 118.158 C 200.400 118.443,200.040 119.002,199.600 119.400 C 199.160 119.798,198.800 120.456,198.800 120.862 C 198.800 121.268,198.650 121.600,198.467 121.600 C 198.060 121.600,195.600 125.338,195.600 125.956 C 195.600 126.200,195.430 126.400,195.222 126.400 C 194.842 126.400,194.040 127.658,193.120 129.700 C 192.848 130.305,192.475 130.800,192.292 130.800 C 192.109 130.800,191.696 131.430,191.374 132.200 C 191.052 132.970,190.631 133.600,190.438 133.600 C 190.245 133.600,189.974 134.050,189.836 134.600 C 189.698 135.150,189.411 135.600,189.198 135.600 C 188.985 135.600,188.542 136.185,188.213 136.900 C 187.492 138.469,186.833 139.485,185.900 140.465 C 185.515 140.869,185.200 141.373,185.200 141.585 C 185.200 141.796,184.210 143.423,183.000 145.200 C 181.790 146.977,180.800 148.576,180.800 148.753 C 180.800 148.931,180.440 149.402,180.000 149.800 C 179.560 150.198,179.200 150.678,179.200 150.866 C 179.200 151.054,178.604 152.061,177.875 153.104 C 177.147 154.147,176.382 155.360,176.175 155.800 C 175.939 156.305,175.765 139.691,175.704 110.800 L 175.609 65.000 174.760 64.300 C 173.710 63.434,124.908 63.223,123.400 64.078 M231.630 70.092 C 230.955 70.811,230.403 71.625,230.402 71.900 C 230.401 72.175,230.216 72.400,229.990 72.400 C 229.765 72.400,229.413 72.840,229.208 73.378 C 229.004 73.916,228.198 75.264,227.418 76.374 C 226.638 77.484,226.000 78.477,226.000 78.580 C 226.000 78.684,225.029 80.196,223.841 81.939 C 222.654 83.683,221.567 85.473,221.426 85.918 C 221.285 86.362,220.906 86.827,220.585 86.950 C 220.263 87.074,220.000 87.451,220.000 87.787 C 220.000 88.567,221.131 87.509,221.916 85.995 C 222.864 84.166,223.466 83.211,224.136 82.471 C 224.501 82.067,224.800 81.633,224.800 81.505 C 224.800 81.275,228.662 75.301,231.398 71.300 L 232.834 69.200 259.741 69.200 C 290.887 69.200,288.852 68.923,286.153 72.800 C 285.158 74.230,284.239 75.647,284.111 75.948 C 283.982 76.250,282.915 77.918,281.739 79.655 C 280.562 81.392,279.600 82.969,279.600 83.158 C 279.600 83.347,279.320 83.735,278.977 84.019 C 278.634 84.304,278.095 85.091,277.779 85.768 C 277.463 86.446,276.312 88.260,275.220 89.800 C 274.129 91.340,273.228 92.825,273.218 93.100 C 273.208 93.375,273.016 93.600,272.790 93.600 C 272.565 93.600,272.208 94.053,271.998 94.606 C 271.639 95.549,270.092 97.957,269.560 98.400 C 269.428 98.510,269.087 99.050,268.802 99.600 C 268.274 100.619,264.370 106.709,261.529 110.945 C 259.974 113.262,259.697 114.246,260.952 112.990 C 261.309 112.634,261.600 112.114,261.600 111.833 C 261.600 111.553,261.960 110.998,262.400 110.600 C 262.840 110.202,263.200 109.662,263.200 109.400 C 263.200 109.138,263.560 108.598,264.000 108.200 C 264.440 107.802,264.800 107.144,264.800 106.738 C 264.800 106.332,264.962 106.000,265.160 106.000 C 265.463 106.000,266.832 104.080,267.592 102.591 C 267.706 102.366,268.475 101.178,269.300 99.950 C 270.125 98.722,270.800 97.601,270.800 97.459 C 270.800 97.316,271.160 96.840,271.600 96.400 C 272.040 95.960,272.400 95.330,272.400 95.000 C 272.400 94.670,272.562 94.400,272.761 94.400 C 272.959 94.400,273.310 93.860,273.540 93.200 C 273.770 92.540,274.130 92.000,274.340 92.000 C 274.550 92.000,274.910 91.460,275.140 90.800 C 275.370 90.140,275.744 89.600,275.972 89.600 C 276.199 89.600,276.498 89.150,276.636 88.600 C 276.774 88.050,277.051 87.600,277.252 87.600 C 277.453 87.600,277.834 87.105,278.099 86.500 C 278.365 85.895,279.171 84.547,279.891 83.504 C 280.611 82.461,281.200 81.454,281.200 81.266 C 281.200 81.078,281.560 80.598,282.000 80.200 C 282.440 79.802,282.800 79.262,282.800 79.000 C 282.800 78.738,283.160 78.198,283.600 77.800 C 284.040 77.402,284.400 76.922,284.400 76.734 C 284.400 76.546,285.030 75.495,285.800 74.400 C 286.570 73.305,287.200 72.283,287.200 72.130 C 287.200 71.977,287.552 71.477,287.982 71.020 C 289.898 68.980,290.273 69.009,260.442 68.892 L 232.856 68.784 231.630 70.092 M259.064 114.729 C 258.699 115.133,258.400 115.576,258.400 115.714 C 258.400 115.852,257.947 116.647,257.393 117.482 C 255.834 119.831,255.712 120.019,253.817 123.000 C 252.839 124.540,251.484 126.565,250.806 127.500 C 250.129 128.434,249.455 129.514,249.308 129.900 C 249.160 130.285,248.086 132.002,246.920 133.715 C 245.754 135.429,244.800 136.976,244.800 137.153 C 244.800 137.331,244.440 137.802,244.000 138.200 C 243.560 138.598,243.200 139.065,243.200 139.238 C 243.200 139.411,242.120 141.150,240.800 143.104 C 239.480 145.058,238.400 146.868,238.400 147.128 C 238.400 147.388,238.265 147.603,238.100 147.608 C 237.935 147.612,237.260 148.520,236.600 149.627 C 235.408 151.625,232.399 156.323,228.722 161.929 C 227.665 163.541,226.800 164.930,226.800 165.017 C 226.800 165.553,228.016 164.573,228.232 163.863 C 228.376 163.388,228.772 162.684,229.112 162.297 C 229.754 161.566,230.411 160.504,231.276 158.800 C 231.555 158.250,232.012 157.656,232.292 157.480 C 232.571 157.304,232.800 156.927,232.800 156.642 C 232.800 156.357,233.160 155.798,233.600 155.400 C 234.040 155.002,234.400 154.447,234.400 154.167 C 234.400 153.886,234.625 153.419,234.901 153.129 C 235.533 152.462,237.600 149.293,237.600 148.992 C 237.600 148.868,237.785 148.549,238.011 148.283 C 238.236 148.017,238.997 146.900,239.701 145.800 C 240.405 144.700,241.198 143.574,241.464 143.298 C 241.730 143.021,242.062 142.436,242.201 141.998 C 242.340 141.559,242.622 141.200,242.827 141.200 C 243.032 141.200,243.200 140.930,243.200 140.600 C 243.200 140.270,243.515 139.683,243.900 139.295 C 244.285 138.906,244.832 138.141,245.116 137.595 C 246.124 135.650,246.733 134.689,247.108 134.446 C 247.317 134.311,247.789 133.660,248.156 133.000 C 248.524 132.340,249.182 131.260,249.619 130.600 C 250.057 129.940,250.631 128.905,250.895 128.300 C 251.159 127.695,251.525 127.200,251.708 127.200 C 251.891 127.200,252.305 126.615,252.627 125.900 C 252.949 125.185,253.940 123.610,254.827 122.400 C 255.715 121.190,256.625 119.719,256.849 119.132 C 257.073 118.545,257.513 117.965,257.828 117.845 C 258.143 117.724,258.400 117.374,258.400 117.066 C 258.400 116.759,258.781 116.024,259.246 115.433 C 260.215 114.201,260.065 113.623,259.064 114.729 M225.939 166.298 C 225.247 167.123,224.029 168.999,223.293 170.372 C 222.492 171.869,225.605 177.153,235.801 191.600 C 236.655 192.810,237.766 194.430,238.271 195.200 C 238.776 195.970,239.371 196.817,239.594 197.083 C 239.817 197.349,240.000 197.726,240.000 197.921 C 240.000 198.116,240.360 198.602,240.800 199.000 C 241.240 199.398,241.600 199.968,241.600 200.266 C 241.600 200.564,241.960 201.116,242.400 201.493 C 242.840 201.870,243.200 202.380,243.200 202.627 C 243.200 202.874,243.560 203.402,244.000 203.800 C 244.440 204.198,244.800 204.680,244.800 204.870 C 244.800 205.060,245.444 206.067,246.231 207.108 C 247.019 208.148,249.436 211.700,251.604 215.000 C 253.772 218.300,255.695 221.180,255.878 221.400 C 256.061 221.620,259.444 226.660,263.395 232.600 C 267.346 238.540,271.168 244.139,271.889 245.041 C 272.610 245.944,273.200 246.830,273.200 247.010 C 273.200 247.190,273.499 247.667,273.864 248.071 C 274.230 248.475,274.725 249.142,274.964 249.554 C 275.816 251.018,283.096 261.941,285.340 265.122 C 287.272 267.861,287.805 269.223,287.116 269.661 C 286.832 269.841,274.619 269.991,259.975 269.994 L 233.350 270.000 232.339 268.900 C 231.783 268.295,230.113 265.963,228.626 263.717 C 227.140 261.472,225.671 259.425,225.362 259.168 C 225.053 258.912,224.800 258.553,224.800 258.371 C 224.800 258.189,224.215 257.203,223.500 256.179 C 222.785 255.156,222.020 254.035,221.800 253.688 C 221.207 252.754,217.341 247.030,214.987 243.600 C 213.855 241.950,212.452 239.880,211.870 239.000 C 211.288 238.120,210.672 237.220,210.502 237.000 C 210.152 236.546,208.812 234.530,208.205 233.542 C 207.436 232.291,204.627 228.199,204.401 228.000 C 204.276 227.890,203.556 226.810,202.800 225.600 C 202.044 224.390,201.330 223.310,201.212 223.200 C 201.094 223.090,200.340 222.010,199.537 220.800 C 198.734 219.590,196.998 217.046,195.680 215.146 C 194.362 213.246,193.162 211.311,193.015 210.846 C 192.867 210.381,192.573 210.000,192.360 210.000 C 192.148 210.000,191.854 209.685,191.706 209.300 C 191.347 208.364,189.255 205.281,188.779 204.987 C 188.153 204.600,188.350 205.210,189.200 206.291 C 189.640 206.850,190.000 207.554,190.000 207.854 C 190.000 208.154,190.151 208.400,190.335 208.400 C 190.609 208.400,193.621 212.689,194.408 214.200 C 195.217 215.751,196.539 217.600,196.840 217.600 C 197.038 217.600,197.200 217.842,197.200 218.138 C 197.200 218.434,197.560 219.002,198.000 219.400 C 198.440 219.798,198.800 220.338,198.800 220.600 C 198.800 220.862,199.160 221.402,199.600 221.800 C 200.040 222.198,200.400 222.772,200.400 223.075 C 200.400 223.377,200.670 223.729,201.000 223.855 C 201.330 223.982,201.600 224.336,201.600 224.643 C 201.600 224.949,201.942 225.542,202.361 225.961 C 202.779 226.379,203.241 227.099,203.387 227.561 C 203.534 228.022,203.831 228.400,204.048 228.400 C 204.264 228.400,204.630 228.940,204.860 229.600 C 205.090 230.260,205.445 230.800,205.649 230.800 C 205.853 230.800,206.191 231.250,206.400 231.800 C 206.609 232.350,206.961 232.800,207.182 232.800 C 207.404 232.800,207.694 233.237,207.828 233.771 C 207.962 234.304,208.416 235.052,208.836 235.433 C 209.256 235.813,209.600 236.366,209.600 236.662 C 209.600 236.958,209.784 237.200,210.010 237.200 C 210.235 237.200,210.601 237.676,210.822 238.258 C 211.043 238.839,211.734 239.964,212.357 240.758 C 212.980 241.551,213.767 242.740,214.105 243.400 C 214.443 244.060,215.143 245.060,215.660 245.621 C 216.177 246.183,216.855 247.128,217.168 247.721 C 217.480 248.315,217.885 248.800,218.068 248.800 C 218.250 248.800,218.400 249.072,218.400 249.404 C 218.400 249.736,218.760 250.316,219.200 250.693 C 219.640 251.070,220.000 251.501,220.000 251.652 C 220.000 252.102,225.224 259.789,225.628 259.933 C 225.833 260.007,226.000 260.224,226.000 260.416 C 226.000 260.720,227.412 263.047,228.295 264.200 C 228.464 264.420,229.478 265.905,230.549 267.500 L 232.496 270.400 259.815 270.400 C 274.841 270.400,287.419 270.291,287.767 270.157 C 288.568 269.850,288.586 268.652,287.800 268.000 C 287.470 267.726,287.200 267.360,287.200 267.187 C 287.200 266.670,285.085 263.600,284.729 263.600 C 284.548 263.600,284.400 263.428,284.400 263.218 C 284.400 262.888,283.037 260.619,282.106 259.400 C 280.998 257.949,278.400 253.918,278.400 253.649 C 278.400 253.470,278.040 252.998,277.600 252.600 C 277.160 252.202,276.800 251.662,276.800 251.400 C 276.800 251.138,276.440 250.598,276.000 250.200 C 275.560 249.802,275.200 249.262,275.200 249.000 C 275.200 248.738,274.840 248.198,274.400 247.800 C 273.960 247.402,273.600 246.843,273.600 246.558 C 273.600 246.273,273.375 245.896,273.099 245.720 C 272.568 245.381,269.218 240.575,269.173 240.087 C 269.159 239.929,268.525 238.990,267.764 238.000 C 267.003 237.010,266.274 235.885,266.144 235.500 C 266.013 235.115,265.750 234.800,265.559 234.800 C 265.367 234.800,264.948 234.170,264.626 233.400 C 264.304 232.630,263.852 232.000,263.620 232.000 C 263.389 232.000,263.200 231.758,263.200 231.462 C 263.200 231.166,262.840 230.598,262.400 230.200 C 261.960 229.802,261.600 229.232,261.600 228.934 C 261.600 228.636,261.240 228.084,260.800 227.707 C 260.360 227.330,260.000 226.898,260.000 226.747 C 260.000 226.295,257.882 223.200,257.572 223.200 C 257.415 223.200,257.174 222.750,257.036 222.200 C 256.898 221.650,256.611 221.200,256.398 221.200 C 256.185 221.200,255.748 220.570,255.426 219.800 C 255.104 219.030,254.652 218.400,254.420 218.400 C 254.189 218.400,254.000 218.227,254.000 218.015 C 254.000 217.804,253.010 216.177,251.800 214.400 C 250.590 212.623,249.600 211.024,249.600 210.847 C 249.600 210.669,249.240 210.198,248.800 209.800 C 248.360 209.402,248.000 208.828,248.000 208.525 C 248.000 208.223,247.730 207.871,247.400 207.745 C 247.070 207.618,246.800 207.335,246.800 207.115 C 246.800 206.759,245.798 205.340,244.315 203.595 C 244.032 203.261,243.568 202.541,243.284 201.995 C 242.486 200.455,241.847 199.425,241.294 198.785 C 240.396 197.745,238.800 195.176,238.800 194.770 C 238.800 194.553,238.530 194.271,238.200 194.145 C 237.870 194.018,237.599 193.709,237.598 193.457 C 237.597 193.206,236.902 192.084,236.053 190.964 C 235.204 189.845,234.437 188.765,234.348 188.564 C 233.841 187.416,232.268 185.200,231.960 185.200 C 231.762 185.200,231.600 184.958,231.600 184.662 C 231.600 184.366,231.240 183.798,230.800 183.400 C 230.360 183.002,230.000 182.432,230.000 182.134 C 230.000 181.836,229.640 181.284,229.200 180.907 C 228.760 180.530,228.400 180.093,228.400 179.935 C 228.400 179.777,227.298 178.017,225.950 176.022 C 223.116 171.828,223.081 171.299,225.416 167.977 C 226.799 166.009,227.164 164.837,225.939 166.298 " stroke="none" fill="#4d98cd" fill-rule="evenodd"></path></g></svg>