<svg id="图层_1" data-name="图层 1" xmlns="http://www.w3.org/2000/svg" viewBox="0 0 512 512">
<defs>
<!-- <style>.cls-1{fill:#002c6d;}.cls-2{fill:#39b4ff;}.cls-3{fill:#0074ff;}</style> -->
</defs><title>未标题-1</title>
<path class="cls-1" d="M511.59,74,376.36,445.47a6.74,6.74,0,0,1-6.33,4.44H308.67a6.8,6.8,0,0,1-6.38-4.44L254.36,311.86,205.91,445.47a6.76,6.76,0,0,1-6.38,4.44H139.05a7,7,0,0,1-6.42-4.64L71.71,276.38,98,137.68v-.16L171.5,342.86,271.45,69.42A6.72,6.72,0,0,1,277.82,65h57.33a6.76,6.76,0,0,1,6.78,6.74,6.65,6.65,0,0,1-.41,2.33L292.21,208.16l49,136.8L442,69.38A6.71,6.71,0,0,1,448.24,65h57A6.76,6.76,0,0,1,512,71.73,6.66,6.66,0,0,1,511.59,74Z"/>
<path class="cls-2" d="M219.84,65,98,137.52,1.11,67.89A6.68,6.68,0,0,1,6.68,65Z"/>
<path class="cls-3" d="M98,137.52v.16L71.71,276.38l-3.59-9.92L.35,74a6.66,6.66,0,0,1,.76-6.13Z"/>
</svg>
