<!-- Generated by IcoMoon.io -->
<svg version="1.1" xmlns="http://www.w3.org/2000/svg" width="32" height="32" viewBox="0 0 32 32">
<title>logo-pipeline</title>
<path d="M25.188 3.413h-1.181v-1.913c0-0.206-0.169-0.375-0.375-0.375h-15.228c-0.206 0-0.375 0.169-0.375 0.375v6.116c0 0.206 0.169 0.375 0.375 0.375h15.228c0.206 0 0.375-0.169 0.375-0.375v-1.95h1.181c2.522 0.019 4.559 2.069 4.559 4.594 0 2.453-1.922 4.456-4.344 4.588-0.341-0.419-0.856-0.691-1.438-0.703v-1.2c0-0.206-0.169-0.375-0.375-0.375h-15.228c-0.206 0-0.375 0.169-0.375 0.375v1.916h-1.144c-3.766 0.016-6.813 3.075-6.813 6.844 0 3.619 2.803 6.575 6.353 6.828 0.344 0.506 0.925 0.841 1.584 0.841 0.019 0 0.041 0 0.059 0v1.128c0 0.206 0.169 0.375 0.375 0.375h15.228c0.206 0 0.375-0.169 0.375-0.375v-6.116c0-0.206-0.169-0.375-0.375-0.375h-15.228c-0.206 0-0.375 0.169-0.375 0.375v1.163c-0.019 0-0.041 0-0.059 0-0.609 0-1.153 0.288-1.503 0.731-2.344-0.209-4.181-2.178-4.181-4.575 0-2.525 2.037-4.575 4.559-4.594h1.144v1.95c0 0.206 0.169 0.375 0.375 0.375h15.228c0.206 0 0.375-0.169 0.375-0.378v-1.091c0.653-0.016 1.222-0.356 1.556-0.869 3.609-0.191 6.478-3.181 6.478-6.838 0-3.769-3.047-6.828-6.813-6.847z"></path>
</svg>
