<!-- Generated by IcoMoon.io -->
<svg version="1.1" xmlns="http://www.w3.org/2000/svg" width="32" height="32" viewBox="0 0 32 32">
<title>logo-measure</title>
<path d="M5 18.094c-0.553 0-1 0.447-1 1v4.438c0 0.553 0.447 1 1 1s1-0.447 1-1v-4.438c0-0.553-0.447-1-1-1z"></path>
<path d="M8.144 15.906c-0.553 0-1 0.447-1 1v6.625c0 0.553 0.447 1 1 1 0.55 0 1-0.447 1-1v-6.625c0-0.553-0.447-1-1-1z"></path>
<path d="M11.284 12.469c-0.553 0-1 0.447-1 1v10.063c0 0.553 0.447 1 1 1s1-0.447 1-1v-10.063c0-0.553-0.447-1-1-1z"></path>
<path d="M14.428 15.906c-0.553 0-1 0.447-1 1v6.625c0 0.553 0.447 1 1 1s1-0.447 1-1v-6.625c0-0.553-0.447-1-1-1z"></path>
<path d="M17.572 18.094c-0.553 0-1 0.447-1 1v4.438c0 0.553 0.447 1 1 1s1-0.447 1-1v-4.438c0-0.553-0.447-1-1-1z"></path>
<path d="M20.716 13.094c-0.553 0-1 0.447-1 1v9.438c0 0.553 0.447 1 1 1 0.55 0 1-0.447 1-1v-9.438c0-0.553-0.447-1-1-1z"></path>
<path d="M23.856 10.281c-0.553 0-1 0.447-1 1v12.25c0 0.553 0.447 1 1 1s1-0.447 1-1v-12.25c0-0.553-0.447-1-1-1z"></path>
<path d="M27 7.469c-0.553 0-1 0.447-1 1v15.063c0 0.553 0.447 1 1 1s1-0.447 1-1v-15.063c0-0.553-0.447-1-1-1z"></path>
</svg>
