<?xml version="1.0" encoding="utf-8"?>
<!-- Generator: Adobe Illustrator 24.0.1, SVG Export Plug-In . SVG Version: 6.00 Build 0)  -->
<svg version="1.1" id="图层_1" xmlns="http://www.w3.org/2000/svg" xmlns:xlink="http://www.w3.org/1999/xlink" x="0px" y="0px"
	 viewBox="0 0 54 54" style="enable-background:new 0 0 54 54;" xml:space="preserve">
<style type="text/css">
	
</style>
<title>Combined Shape Copy 7</title>
<g id="Page-1">
	<path id="Combined-Shape-Copy-7" class="st0" d="M44,0c5.52,0,10,4.48,10,10v34c0,5.52-4.48,10-10,10H10C4.48,54,0,49.52,0,44V10
		C0,4.48,4.48,0,10,0H44z M39.84,27.45c-2.46,0-4.42,0.83-5.82,2.53c-1.47,1.66-2.18,3.71-2.18,6.18c0,2.75,0.77,4.9,2.3,6.46
		c1.44,1.5,3.39,2.27,5.86,2.27c2.21,0,4.03-0.64,5.5-1.89c1.07-0.95,1.81-2.15,2.22-3.55l0.09-0.33h-3.65l-0.14,0.27
		c-0.41,0.79-0.85,1.37-1.34,1.75c-0.7,0.51-1.6,0.77-2.72,0.77c-1.31,0-2.34-0.42-3.04-1.22c-0.65-0.74-1.06-1.82-1.22-3.2
		l-0.03-0.32h12.38l0-0.4c-0.06-2.79-0.73-4.99-1.98-6.57C44.64,28.34,42.56,27.45,39.84,27.45z M29.02,27.41
		c-1.02,0-1.7,0.53-2.52,1.06c-0.51,0.31-1.13,1.53-1.58,2.36l-0.09,0.17l0-2.2c-1.08,0.64-2.14,1.17-3.17,1.58l-0.44,0.17l0,13.89
		h3.62v-8.52l0.01-0.28c0.05-1.28,0.47-2.31,1.31-3.11c0.77-0.77,1.63-1.41,2.59-1.41c0.77,0,1.46,0.03,2.29,0.29
		c0.41-1.14,0.97-2.12,1.7-2.94C31.91,27.81,30.89,27.41,29.02,27.41z M18.22,10H9v34.45h4.32V29.28h4.11c4.16,0,7.29-1.01,9.4-3.04
		S30,21.71,30,18.71c0-1.76-0.37-3.31-1.1-4.65c-0.73-1.34-1.82-2.35-3.25-3.04S21.73,10,18.22,10z M39.93,30.42
		c2.48,0,3.91,1.23,4.29,3.74l0.03,0.26h-8.51l0.06-0.3c0.24-1.17,0.67-2.06,1.29-2.68C37.79,30.74,38.72,30.42,39.93,30.42z
		 M17.91,13c2.82,0,4.71,0.53,5.66,1.58S25,17.02,25,18.74c0,1.97-0.59,2.71-1.78,4.13C22.03,24.29,19.58,25,15.86,25H13V13H17.91z"
		/>
</g>
</svg>
