<!-- Generated by IcoMoon.io -->
<svg version="1.1" xmlns="http://www.w3.org/2000/svg" width="32" height="32" viewBox="0 0 32 32">
<title>mail-setting</title>
<path d="M29.5 17.75l-0.3-0.5c-0.2-0.35-0.5-0.7-0.75-1l-1.6 0.55c-0.5-0.4-1.050-0.75-1.7-1l-0.35-1.65c-0.3-0.050-0.7-0.15-1.050-0.15h-0.95c-0.35 0-0.7 0.050-1.050 0.15l-0.35 1.65c-0.65 0.2-1.2 0.55-1.7 1l-1.6-0.55c-0.25 0.25-0.45 0.5-0.65 0.8l-0.5 0.9c-0.15 0.3-0.25 0.6-0.35 0.95l1.3 1.1c-0.050 0.3-0.1 0.65-0.1 0.95 0 0.35 0.050 0.65 0.1 1l-1.3 1.1c0.1 0.35 0.25 0.7 0.4 1.050l0.4 0.7c0.2 0.3 0.45 0.65 0.7 0.9l1.6-0.55c0.5 0.4 1.050 0.75 1.7 0.95l0.35 1.65c0.5 0.1 1 0.15 1.55 0.15s1.050-0.050 1.55-0.15l0.35-1.65c0.6-0.2 1.2-0.55 1.65-0.95l1.6 0.55c0.7-0.75 1.25-1.65 1.55-2.65l-1.3-1.1c0.050-0.3 0.1-0.65 0.1-0.95 0-0.35-0.050-0.65-0.1-0.95l1.3-1.1c-0.15-0.45-0.3-0.85-0.5-1.2zM27.3 20.3c0.050 0.25 0.050 0.45 0.050 0.7s0 0.5-0.050 0.7l-0.1 0.5 0.4 0.35 0.7 0.6c-0.1 0.2-0.2 0.4-0.3 0.55-0.1 0.2-0.2 0.35-0.35 0.5l-0.85-0.3-0.5-0.15-0.4 0.35c-0.35 0.3-0.8 0.55-1.25 0.7l-0.5 0.15-0.1 0.5-0.2 0.9c-0.2 0-0.4 0.050-0.65 0.050-0.2 0-0.4 0-0.6-0.050l-0.1-0.85-0.1-0.5-0.5-0.15c-0.45-0.15-0.85-0.4-1.25-0.7l-0.4-0.35-0.5 0.15-0.85 0.3c-0.050-0.1-0.1-0.15-0.15-0.25l-0.35-0.6c-0.050-0.1-0.1-0.15-0.1-0.25l0.7-0.6 0.4-0.35-0.1-0.5c-0.050-0.25-0.050-0.5-0.050-0.75s0-0.5 0.050-0.7l0.1-0.5-0.4-0.3-0.7-0.6c0-0.050 0.050-0.1 0.050-0.15l0.45-0.75c0.050-0.050 0.050-0.1 0.1-0.15l0.85 0.3 0.5 0.15 0.4-0.35c0.35-0.3 0.8-0.55 1.25-0.75l0.5-0.15 0.1-0.5 0.2-0.9c0.050 0 0.15 0 0.2 0h0.8c0.1 0 0.15 0 0.25 0l0.2 0.9 0.1 0.5 0.5 0.15c0.45 0.15 0.9 0.4 1.25 0.7l0.4 0.35 0.5-0.15 0.85-0.3c0.050 0.1 0.15 0.2 0.2 0.3l0.25 0.4c0.050 0.1 0.1 0.25 0.15 0.35l-0.7 0.6-0.4 0.35 0.050 0.55z"></path>
<path d="M23.3 18.55c-1.35 0-2.45 1.1-2.45 2.45s1.1 2.45 2.45 2.45 2.45-1.1 2.45-2.45-1.1-2.45-2.45-2.45zM23.3 22.3c-0.7 0-1.3-0.6-1.3-1.3s0.6-1.3 1.3-1.3 1.3 0.6 1.3 1.3-0.6 1.3-1.3 1.3z"></path>
<path d="M29.050 4h-26c-0.55 0-1 0.45-1 1v18c0 0.55 0.45 1 1 1h11.35v-2h-10.35v-14.8l10.35 6.9c0.5 0.35 1.1 0.5 1.65 0.5s1.15-0.15 1.65-0.5l10.35-6.9v6.95h2v-9.15c0-0.55-0.45-1-1-1zM16.6 12.45c-0.35 0.2-0.75 0.2-1.1 0l-9.65-6.45h20.4l-9.65 6.45z"></path>
</svg>
