<!-- Generated by IcoMoon.io -->
<svg version="1.1" xmlns="http://www.w3.org/2000/svg" width="32" height="32" viewBox="0 0 32 32">
<title>member-list</title>
<path d="M16 2c-7.731 0-14 6.269-14 14 0 1.841 0.356 3.597 1 5.209 0 0.012 0 0.028 0 0.041v6.75c0 0.553 0.447 1 1 1h6.75c0.012 0 0.028 0 0.041 0 1.609 0.647 3.369 1 5.209 1 7.731 0 14-6.269 14-14s-6.269-14-14-14zM24.484 24.484c-1.103 1.103-2.387 1.969-3.816 2.572-1.478 0.625-3.050 0.944-4.672 0.944s-3.194-0.316-4.672-0.944c-0.044-0.019-0.088-0.038-0.131-0.056h-6.194v-6.197c-0.019-0.044-0.037-0.087-0.056-0.131-0.625-1.478-0.944-3.050-0.944-4.672s0.316-3.194 0.944-4.672c0.603-1.428 1.469-2.713 2.572-3.816s2.387-1.969 3.816-2.572c1.478-0.625 3.050-0.944 4.672-0.944s3.194 0.316 4.672 0.944c1.428 0.603 2.712 1.469 3.816 2.572s1.969 2.388 2.572 3.816c0.625 1.478 0.944 3.050 0.944 4.672s-0.316 3.194-0.944 4.672c-0.609 1.428-1.475 2.709-2.578 3.813z"></path>
<path d="M8 15h16v2h-16v-2z"></path>
<path d="M10 10h12v2h-12v-2z"></path>
<path d="M10 20h12v2h-12v-2z"></path>
</svg>
