<!-- Generated by IcoMoon.io -->
<svg version="1.1" xmlns="http://www.w3.org/2000/svg" width="32" height="32" viewBox="0 0 32 32">
<title>mirror-depot</title>
<path d="M28.653 13.203c-0.756-0.472-1.722-0.903-3.188-0.641-0.272-1-0.947-1.887-2.012-2.65l-0.341-0.244-0.291 0.3c-0.512 0.531-0.875 1.316-0.994 2.156-0.081 0.584-0.078 1.422 0.328 2.313-1.647 0.463-3.169 0.472-3.188 0.472h-0.031v-2.425h-2.419v-4.841h-3.387v2.419h-4.841v2.419h-2.419v2.425h-2.747l-0.041 0.441c-0.009 0.103-0.019 0.197-0.028 0.284-0.031 0.3-0.056 0.559-0.056 1.022 0 2.022 0.759 3.887 2.134 5.256 0.772 0.769 1.722 1.366 2.828 1.775 1.194 0.444 2.566 0.669 4.078 0.669 2.159 0 4.147-0.381 5.906-1.137 1.45-0.622 2.756-1.497 3.884-2.603 1.25-1.225 2.253-2.7 2.988-4.387 0.425 0.003 1.081-0.031 1.744-0.259 1.063-0.366 1.828-1.094 2.278-2.169l0.159-0.378-0.347-0.216zM9.262 13.45h1.453v1.453h-1.453v-1.453zM15.553 14.903h-1.453v-1.453h1.453v1.453zM13.131 14.903h-1.453v-1.453h1.453v1.453zM17.972 13.45v1.453h-1.453v-1.453h1.453zM15.553 12.481h-1.453v-1.45h1.453v1.45zM14.1 8.613h1.453v1.45h-1.453v-1.45zM11.681 11.031h1.453v1.453h-1.453v-1.453zM9.262 11.031h1.453v1.453h-1.453v-1.453zM6.841 13.45h1.453v1.453h-1.453v-1.453zM24.525 15.25l-0.341-0.016-0.147 0.353c-0.966 2.344-4.072 7.8-11.997 7.8-2.050 0-3.647-0.431-4.859-1.119 0.859-0.172 1.975-0.556 2.916-1.413l-0.65-0.716c-1.225 1.113-2.862 1.272-3.422 1.294-1.456-1.325-2.056-3.125-2.056-4.778 0-0.341 0.016-0.553 0.038-0.778h14.963c0.081 0 2.050-0.009 4.050-0.694l0.581-0.2-0.331-0.519c-0.819-1.278-0.541-2.678-0.019-3.487 0.803 0.666 1.247 1.397 1.356 2.225l0.072 0.547 0.534-0.144c1.194-0.319 1.956-0.109 2.55 0.197-0.894 1.553-2.637 1.475-3.238 1.447z"></path>
<path d="M11.075 17.806c-0.8 0-1.453 0.65-1.453 1.453 0 0.8 0.65 1.453 1.453 1.453s1.453-0.65 1.453-1.453c0-0.803-0.653-1.453-1.453-1.453zM11.075 19.741c-0.266 0-0.484-0.216-0.484-0.484s0.216-0.484 0.484-0.484 0.484 0.216 0.484 0.484-0.216 0.484-0.484 0.484z"></path>
</svg>
