<!-- Generated by IcoMoon.io -->
<svg version="1.1" xmlns="http://www.w3.org/2000/svg" width="22" height="32" viewBox="0 0 22 32">
<title>mobile-shape</title>
<path d="M11 28v0z"></path>
<path d="M17 0h-12c-2.761 0-5 2.239-5 5v22c0 2.761 2.239 5 5 5h12c2.761 0 5-2.239 5-5v-22c0-2.761-2.239-5-5-5zM9 2h4c0.552 0 1 0.448 1 1s-0.448 1-1 1h-4c-0.552 0-1-0.448-1-1s0.448-1 1-1zM11 30c-1.105 0-2-0.895-2-2s0.895-2 2-2c1.105 0 2 0.895 2 2s-0.895 2-2 2zM19 23c0 0.552-0.448 1-1 1h-14c-0.552 0-1-0.448-1-1v-16c0-0.552 0.448-1 1-1h14c0.552 0 1 0.448 1 1z"></path>
</svg>
