<!-- Generated by IcoMoon.io -->
<svg version="1.1" xmlns="http://www.w3.org/2000/svg" width="22" height="32" viewBox="0 0 22 32">
<title>mobile</title>
<path d="M17 32h-12c-2.761 0-5-2.239-5-5v-22c0-2.761 2.239-5 5-5h12c2.761 0 5 2.239 5 5v22c0 2.761-2.239 5-5 5zM5 2c-1.657 0-3 1.343-3 3v22c0 1.657 1.343 3 3 3h12c1.657 0 3-1.343 3-3v-22c0-1.657-1.343-3-3-3z"></path>
<path d="M11 28c-1.105 0-2-0.895-2-2s0.895-2 2-2c1.105 0 2 0.895 2 2s-0.895 2-2 2z"></path>
<path d="M13 6h-4c-0.552 0-1-0.448-1-1s0.448-1 1-1h4c0.552 0 1 0.448 1 1s-0.448 1-1 1z"></path>
</svg>
