<svg width="32" height="32" viewBox="0 0 32 32" fill="none" xmlns="http://www.w3.org/2000/svg">
<path d="M6.86 32H25.14V30.48H26.67V1.52H25.14V0H6.86V1.52H5.33V30.48H6.86V32ZM16 1.52H19.05V3.05H16V1.52ZM12.95 1.52H14.48V3.05H12.95V1.52ZM6.86 3.05H11.43V4.57H20.57V3.05H25.14V28.95H6.86V3.05Z" fill="#C4C6CC"/>
<path d="M11.43 3.05H6.86V28.95H25.14V3.05H20.57V4.57H11.43V3.05Z" fill="white"/>
<path d="M20.57 15.24H22.09V16.76H20.57V15.24ZM19.05 19.81V21.33H22.09V18.29H20.57V19.81H19.05ZM19.05 16.76H20.57V18.29H19.05V16.76ZM19.05 10.67H20.57V13.71H22.09V9.14H19.05V10.67ZM16 12.19V15.24H19.05V13.71H17.52V12.19H16ZM16 16.76H17.52V18.29H16V16.76ZM14.48 9.14H17.52V10.67H14.48V9.14ZM14.48 19.81H17.52V21.33H14.48V19.81ZM12.95 15.24H14.48V18.29H12.95V15.24ZM12.95 12.19H14.48V13.71H12.95V12.19ZM11.43 18.29H9.9V21.33H12.95V19.81H11.43V18.29ZM9.9 15.24H11.43V16.76H9.9V15.24ZM11.43 10.67H12.95V9.14H9.9V13.71H11.43V10.67Z" fill="#3A84FF"/>
</svg>
