<!-- Generated by IcoMoon.io -->
<svg version="1.1" xmlns="http://www.w3.org/2000/svg" width="32" height="32" viewBox="0 0 32 32">
<title>monitors-cog</title>
<path d="M29.163 21.248l-0.875-0.171c-0.15-0.423-0.338-0.79-0.566-1.127l0.011 0.017 0.448-0.704c0.147-0.144 0.238-0.344 0.238-0.565s-0.091-0.422-0.238-0.565l-0-0-0.448-0.555c-0.138-0.133-0.326-0.215-0.533-0.215s-0.395 0.082-0.534 0.216l0-0-0.768 0.555c-0.306-0.176-0.659-0.328-1.031-0.439l-0.035-0.009-0.171-0.789c0.003-0.026 0.005-0.055 0.005-0.085 0-0.442-0.353-0.801-0.793-0.81h-0.79c-0.007-0-0.015-0-0.023-0-0.409 0-0.744 0.32-0.767 0.724l-0 0.002-0.171 0.875c-0.407 0.119-0.761 0.271-1.091 0.461l0.024-0.013-0.683-0.448c-0.142-0.143-0.337-0.233-0.554-0.235h-0c-0.002 0-0.004-0-0.006-0-0.223 0-0.424 0.090-0.571 0.235l0-0-0.576 0.533c-0.143 0.142-0.233 0.337-0.235 0.554v0c-0.001 0.013-0.001 0.028-0.001 0.043 0 0.179 0.065 0.343 0.173 0.47l-0.001-0.001 0.512 0.768c-0.18 0.318-0.333 0.687-0.44 1.075l-0.008 0.035-0.832 0.171c-0.438 0.012-0.789 0.37-0.789 0.81 0 0 0 0 0 0v-0 0.789c0 0.001 0 0.002 0 0.003 0 0.413 0.318 0.753 0.722 0.787l0.003 0 0.939 0.192c0.119 0.407 0.271 0.761 0.461 1.091l-0.013-0.024-0.491 0.747c-0.142 0.146-0.23 0.345-0.23 0.565s0.088 0.419 0.23 0.566l-0-0 0.576 0.555c0.138 0.133 0.326 0.215 0.533 0.215s0.395-0.082 0.534-0.216l-0 0 0.832-0.555c0.273 0.147 0.592 0.278 0.925 0.375l0.035 0.009 0.192 0.896c0 0.448 0.363 0.811 0.811 0.811v0h0.811c0.007 0 0.015 0 0.023 0 0.409 0 0.744-0.32 0.767-0.724l0-0.002 0.192-0.981c0.368-0.106 0.687-0.237 0.987-0.397l-0.027 0.013 0.768 0.512c0.146 0.142 0.345 0.23 0.565 0.23s0.419-0.088 0.566-0.23l-0 0 0.576-0.555c0.135-0.141 0.217-0.333 0.217-0.544s-0.083-0.403-0.218-0.544l0 0-0.597-0.768c0.177-0.306 0.329-0.66 0.439-1.032l0.009-0.035 0.853-0.171c0.448 0 0.811-0.363 0.811-0.811v-0.789c-0.010-0.417-0.334-0.756-0.744-0.789l-0.003-0zM23.467 24.405c-1.108 0-2.005-0.898-2.005-2.005s0.898-2.005 2.005-2.005c1.108 0 2.005 0.898 2.005 2.005v0c0 1.108-0.898 2.005-2.005 2.005v0z"></path>
<path d="M20.544 15.552c0.548-0.412 1.174-0.77 1.842-1.046l0.057-0.021-3.776-10.987c-0.058-0.172-0.217-0.293-0.405-0.293s-0.348 0.122-0.404 0.29l-0.001 0.003-4.053 18.709-4.757-12.352c-0.058-0.172-0.217-0.293-0.405-0.293s-0.348 0.122-0.404 0.29l-0.001 0.003-1.835 5.696c-0.056 0.174-0.216 0.298-0.405 0.299h-4.928c-0.589 0-1.067 0.478-1.067 1.067s0.478 1.067 1.067 1.067v0h6.528c0.189-0.001 0.349-0.125 0.404-0.296l0.001-0.003 0.789-2.496 5.035 13.205c0.058 0.172 0.217 0.293 0.405 0.293s0.348-0.122 0.404-0.29l0.001-0.003 3.989-18.347z"></path>
<path d="M32 26.667c0 0-0.478 0-1.067 0s-1.067 0-1.067 0c0 0 0.478 0 1.067 0s1.067 0 1.067 0z"></path>
</svg>
