<!-- Generated by IcoMoon.io -->
<svg version="1.1" xmlns="http://www.w3.org/2000/svg" width="32" height="32" viewBox="0 0 32 32">
<title>monitors</title>
<path d="M15.703 29.211c-0.062 0.184-0.233 0.314-0.434 0.314s-0.372-0.13-0.433-0.311l-0.001-0.003-5.394-14.080-0.869 2.674c-0.060 0.186-0.232 0.319-0.434 0.32h-6.994c-0.631 0-1.143-0.512-1.143-1.143s0.512-1.143 1.143-1.143v0h5.326c0.184-0.020 0.334-0.147 0.388-0.317l0.001-0.003 1.943-6.080c0.062-0.184 0.233-0.314 0.434-0.314s0.372 0.13 0.433 0.311l0.001 0.003 5.074 13.303 4.343-20.046c0.062-0.184 0.233-0.314 0.434-0.314s0.372 0.13 0.433 0.311l0.001 0.003 5.189 14.629c0.060 0.186 0.232 0.319 0.434 0.32h5.28c0.631 0 1.143 0.512 1.143 1.143s-0.512 1.143-1.143 1.143v0h-6.994c-0.203-0.001-0.374-0.134-0.433-0.317l-0.001-0.003-3.474-10.057z"></path>
</svg>
