<!-- Generated by IcoMoon.io -->
<svg version="1.1" xmlns="http://www.w3.org/2000/svg" width="32" height="32" viewBox="0 0 32 32">
<title>move</title>
<path d="M31.84 15.46c0 0 0 0 0 0s0 0 0 0v0c0 0 0 0 0 0s0 0 0 0 0 0 0 0 0 0 0 0c-0.020-0.020-0.020-0.040-0.020-0.040s0 0 0 0 0 0 0 0 0 0 0 0v0c0 0 0 0 0 0s0 0 0 0 0 0 0 0v0 0c0 0 0 0 0 0s0 0 0 0c-0.020-0.020-0.040-0.060-0.060-0.080l-5-5.5c-0.38-0.4-1-0.44-1.42-0.060s-0.44 1-0.060 1.42l3.48 3.82h-11.76v-11.76l3.82 3.48c0.42 0.38 1.040 0.34 1.42-0.060s0.34-1.040-0.060-1.42l-5.5-5c-0.040-0.020-0.060-0.040-0.080-0.060 0 0 0 0 0 0s0 0 0 0v0c0 0 0 0 0 0s0 0 0 0v0c0 0 0 0 0 0s0 0 0 0v0c0 0 0 0 0 0s-0.020-0.020-0.040-0.020c0 0 0 0 0 0s0 0 0 0 0 0 0 0 0 0 0 0 0 0 0 0v0c0 0 0 0 0 0s0 0 0 0c-0.32-0.2-0.76-0.2-1.080 0 0 0 0 0 0 0s0 0 0 0v0c0 0 0 0 0 0s0 0 0 0 0 0 0 0 0 0 0 0 0 0 0 0c-0.020 0-0.020 0.020-0.040 0.020 0 0 0 0 0 0v0c0 0 0 0 0 0s0 0 0 0v0c0 0 0 0 0 0s0 0 0 0v0c0 0 0 0 0 0s0 0 0 0c-0.060 0.020-0.080 0.040-0.12 0.060l-5.5 5c-0.4 0.38-0.44 1-0.060 1.42s1 0.44 1.42 0.060l3.82-3.48v11.7h-11.74l3.48-3.82c0.38-0.4 0.34-1.040-0.060-1.42s-1.040-0.34-1.42 0.060l-5 5.5c-0.16 0.18-0.26 0.42-0.26 0.68s0.1 0.5 0.26 0.68l5 5.5c0.38 0.42 1 0.44 1.42 0.060 0.4-0.38 0.44-1 0.060-1.42l-3.48-3.82h11.74v11.78l-3.82-3.48c-0.4-0.36-1.040-0.34-1.42 0.060s-0.34 1.040 0.060 1.42l5.5 5c0.2 0.18 0.44 0.26 0.68 0.26s0.48-0.080 0.68-0.26l5.5-5c0.42-0.38 0.44-1 0.060-1.42s-1-0.44-1.42-0.060l-3.82 3.48v-11.74h11.74l-3.48 3.82c-0.38 0.4-0.34 1.040 0.060 1.42s1.040 0.34 1.42-0.060l5-5.5c0.020-0.020 0.040-0.040 0.060-0.080 0 0 0 0 0 0s0 0 0 0v0 0c0 0 0 0 0 0s0 0 0 0 0 0 0 0v0c0 0 0 0 0 0s0 0 0 0 0 0 0 0 0.020-0.020 0.020-0.040c0 0 0 0 0 0s0 0 0 0 0 0 0 0 0 0 0 0v0c0 0 0 0 0 0s0 0 0 0c0.12-0.18 0.18-0.36 0.18-0.56s-0.060-0.38-0.16-0.54z"></path>
</svg>
