<!-- Generated by IcoMoon.io -->
<svg version="1.1" xmlns="http://www.w3.org/2000/svg" width="32" height="32" viewBox="0 0 32 32">
<title>myrepo</title>
<path d="M11.037 7l2 2.5h14.963v15.5h-24v-18h7.037zM12 5h-10v22h28v-19.5h-16l-2-2.5z"></path>
<path d="M18.903 18.031c0.678-0.716 1.097-1.684 1.097-2.75 0-2.209-1.791-4-4-4s-4 1.791-4 4c0 1.066 0.416 2.034 1.097 2.75-1.844 1.025-3.097 2.994-3.097 5.25h2c0-2.206 1.794-4 4-4s4 1.794 4 4h2c0-2.256-1.25-4.225-3.097-5.25zM14 15.281c0-1.103 0.897-2 2-2s2 0.897 2 2-0.897 2-2 2-2-0.897-2-2z"></path>
</svg>
