<!-- Generated by IcoMoon.io -->
<svg version="1.1" xmlns="http://www.w3.org/2000/svg" width="32" height="32" viewBox="0 0 32 32">
<title>new-download</title>
<path d="M28.031 12.219c-0.887-0.887-1.978-1.494-3.166-1.781-0.316-1.809-1.175-3.475-2.5-4.8-1.7-1.7-3.962-2.634-6.366-2.634s-4.666 0.938-6.363 2.637c-1.325 1.325-2.184 2.991-2.5 4.8-1.191 0.287-2.281 0.894-3.166 1.781-1.269 1.269-1.969 2.956-1.969 4.75v0.313c0 1.794 0.7 3.481 1.969 4.75s2.956 1.969 4.75 1.969h6.281v-8.012h2v8.009h6.281c1.794 0 3.481-0.7 4.75-1.969s1.969-2.956 1.969-4.75v-0.313c-0.003-1.794-0.703-3.481-1.972-4.75z"></path>
<path d="M17 24v2.166l1.828-1.828 1.416 1.413-4.244 4.244-4.244-4.244 1.416-1.413 1.828 1.828v-2.166z"></path>
</svg>
