<!-- Generated by IcoMoon.io -->
<svg version="1.1" xmlns="http://www.w3.org/2000/svg" width="55" height="32" viewBox="0 0 55 32">
<title>new</title>
<path fill="#00c873" d="M52.571 32h-50.286c-1.371 0-2.286-0.914-2.286-2.286v-27.429c0-1.371 0.914-2.286 2.286-2.286h50.286c1.371 0 2.286 0.914 2.286 2.286v27.429c0 1.371-0.914 2.286-2.286 2.286z"></path>
<path fill="#fff" d="M18.057 23.086h-2.971l-5.943-9.143c-0.229-0.457-0.457-0.686-0.686-1.143v0c0 0.457 0 1.143 0 2.286v7.771h-2.743v-13.714h3.2l5.714 8.686c0.457 0.686 0.686 0.914 0.686 1.143v0c0-0.229 0-0.914 0-1.829v-8h2.743v13.943zM28.343 23.086h-8.229v-13.943h7.771v2.514h-5.029v3.2h4.571v2.514h-4.571v3.2h5.257v2.514zM49.143 9.143l-3.657 13.943h-3.2l-2.286-8.914c-0.229-0.457-0.229-0.914-0.229-1.6v0c0 0.686-0.229 1.143-0.229 1.6l-2.514 8.914h-3.429l-3.886-13.943h3.2l2.057 9.371c0 0.457 0.229 0.914 0.229 1.6v0c0-0.457 0.229-0.914 0.229-1.6l2.743-9.371h2.971l2.286 9.371c0 0.457 0.229 0.914 0.229 1.371v0c0-0.457 0-0.914 0.229-1.6l2.057-9.143h3.2z"></path>
</svg>
