<!-- Generated by IcoMoon.io -->
<svg version="1.1" xmlns="http://www.w3.org/2000/svg" width="32" height="32" viewBox="0 0 32 32">
<title>newpage</title>
<path d="M17.218 20.376c-0.344 0.432-0.274 1.060 0.156 1.406 0.186 0.146 0.406 0.218 0.626 0.218 0.294 0 0.584-0.128 0.782-0.376l4-5c0.014-0.016 0.008-0.040 0.020-0.056 0.116-0.164 0.198-0.352 0.198-0.568s-0.082-0.404-0.2-0.568c-0.012-0.016-0.006-0.040-0.020-0.056l-4-5c-0.342-0.43-0.972-0.504-1.404-0.158-0.43 0.346-0.5 0.974-0.156 1.406l2.698 3.376h-17.918c-0.552 0-1 0.448-1 1s0.448 1 1 1h17.918l-2.7 3.376z"></path>
<path d="M29 1h-20c-1.656 0-3 1.346-3 3v3c0 0.552 0.446 1 1 1s1-0.448 1-1v-3c0-0.552 0.448-1 1-1h20c0.55 0 1 0.448 1 1v24c0 0.55-0.45 1-1 1h-20c-0.552 0-1-0.45-1-1v-5c0-0.552-0.448-1-1-1s-1 0.448-1 1v5c0 1.654 1.346 3 3 3h20c1.654 0 3-1.346 3-3v-24c0-1.654-1.346-3-3-3z"></path>
</svg>
