<!-- Generated by IcoMoon.io -->
<svg version="1.1" xmlns="http://www.w3.org/2000/svg" width="32" height="32" viewBox="0 0 32 32">
<title>next-shape</title>
<path d="M4.137 0.274c-0.189-0.165-0.436-0.268-0.707-0.274-0.633-0-1.144 0.512-1.144 1.143v29.714c0 0.631 0.512 1.143 1.143 1.143 0 0 0.001 0 0.001 0 0.269 0 0.516-0.095 0.709-0.253l18.284-14.833c0.262-0.211 0.428-0.532 0.428-0.891s-0.166-0.68-0.425-0.89z"></path>
<path d="M27.429 0c-0.631 0-1.143 0.512-1.143 1.143v29.714c0 0.631 0.512 1.143 1.143 1.143s1.143-0.512 1.143-1.143v-29.714c0-0.631-0.512-1.143-1.143-1.143z"></path>
</svg>
