<!-- Generated by IcoMoon.io -->
<svg version="1.1" xmlns="http://www.w3.org/2000/svg" width="32" height="32" viewBox="0 0 32 32">
<title>node</title>
<path d="M24.978 16.406c-0.578 0-1.125 0.122-1.622 0.344l-2.909-3.666c0.953-1.059 1.538-2.463 1.538-4.003 0-3.306-2.681-5.987-5.984-5.987s-5.984 2.681-5.984 5.984c0 1.541 0.581 2.944 1.537 4.003l-2.909 3.666c-0.497-0.222-1.044-0.344-1.622-0.344-2.203 0.003-3.991 1.788-3.991 3.994s1.788 3.991 3.991 3.991 3.991-1.788 3.991-3.991c0-0.903-0.3-1.738-0.806-2.406l2.909-3.666c0.578 0.319 1.216 0.547 1.891 0.656v6.194c-1.722 0.444-2.994 2.003-2.994 3.866 0 2.203 1.787 3.991 3.991 3.991s3.991-1.788 3.991-3.991c0-1.859-1.272-3.422-2.994-3.866v-6.194c0.672-0.113 1.313-0.341 1.891-0.656l2.909 3.666c-0.509 0.669-0.806 1.503-0.806 2.406 0 2.203 1.788 3.991 3.991 3.991s3.984-1.788 3.984-3.991-1.788-3.991-3.991-3.991zM7.022 22.391c-1.1 0-1.994-0.894-1.994-1.994s0.894-1.994 1.994-1.994 1.994 0.894 1.994 1.994c0 1.1-0.894 1.994-1.994 1.994zM17.994 25.041c0 1.1-0.894 1.994-1.994 1.994s-1.994-0.894-1.994-1.994c0-1.1 0.894-1.994 1.994-1.994s1.994 0.894 1.994 1.994zM18.822 11.9c-0.753 0.753-1.756 1.169-2.822 1.169s-2.066-0.416-2.822-1.169c-0.753-0.753-1.169-1.756-1.169-2.822s0.416-2.066 1.169-2.822c0.753-0.753 1.756-1.169 2.822-1.169s2.066 0.416 2.822 1.169 1.169 1.756 1.169 2.822-0.416 2.069-1.169 2.822zM24.978 22.391c-1.1 0-1.994-0.894-1.994-1.994s0.894-1.994 1.994-1.994c1.1 0 1.994 0.894 1.994 1.994 0.003 1.1-0.894 1.994-1.994 1.994z"></path>
</svg>
