<!-- Generated by IcoMoon.io -->
<svg version="1.1" xmlns="http://www.w3.org/2000/svg" width="26" height="32" viewBox="0 0 26 32">
<title>notification</title>
<path d="M12.978 28.007c-0.677 0-1.289-0.309-1.692-0.815h-2.251c0.256 0.724 0.706 1.371 1.299 1.861 0.743 0.615 1.683 0.952 2.647 0.952s1.904-0.337 2.647-0.952c0.59-0.487 1.040-1.136 1.296-1.861h-2.251c-0.409 0.503-1.018 0.815-1.695 0.815z"></path>
<path d="M23.87 24.56l-1.892-3.787v-6.756c0-2.401-0.937-4.661-2.635-6.356-1.218-1.218-2.722-2.042-4.358-2.413v-1.221c0-1.102-0.896-1.998-1.998-1.998v0c-1.102 0-1.998 0.896-1.998 1.998v1.221c-1.639 0.372-3.144 1.196-4.358 2.413-1.698 1.695-2.635 3.955-2.635 6.356v6.756l-1.892 3.784c-0.156 0.309-0.137 0.677 0.044 0.971s0.503 0.475 0.849 0.475h19.98c0.347 0 0.668-0.178 0.849-0.475 0.184-0.29 0.2-0.659 0.044-0.968zM4.614 24.008l1.274-2.551c0.069-0.137 0.106-0.29 0.106-0.446v-6.993c0-3.856 3.138-6.993 6.993-6.993s6.993 3.138 6.993 6.993v6.993c0 0.156 0.037 0.309 0.106 0.446l1.274 2.551h-16.746z"></path>
</svg>
