<svg xmlns="http://www.w3.org/2000/svg" viewBox="0 0 64 64"><defs><style>.cls-1{fill:#017fc4;}.cls-2{fill:#f4656b;}.cls-3{fill:#f1f2f3;}.cls-4{fill:#dcdcdc;}.cls-5{fill:#009af8;}.cls-6{fill:#f3ce48;}</style></defs><title>研发商店-彩色logo</title><g id="图层_78" data-name="图层 78"><rect class="cls-1" x="19.14" y="40.49" width="2.13" height="4.98" rx="1.07" ry="1.07" transform="translate(-14.17 10.21) rotate(-21.19)"/><circle class="cls-2" cx="45.55" cy="28.74" r="5.31"/><path class="cls-3" d="M20.71,19.77l-1.6,6.43H18l.53,2.14L18,30.48h1.07l1.6,6.43S37.85,35.3,43.2,45.47V11.21C37.85,21.38,20.71,19.77,20.71,19.77Z"/><rect class="cls-4" x="12.07" y="30.53" width="7.72" height="24.66" rx="3.86" ry="3.86" transform="translate(-14.41 8.66) rotate(-21.19)"/><rect class="cls-1" x="43.2" y="9.33" width="4.28" height="38.02" rx="2.14" ry="2.14"/><path class="cls-5" d="M21.9,37H9.83A5.81,5.81,0,0,1,4,31.24v-5.8a5.81,5.81,0,0,1,5.79-5.79H21.9Z"/><rect class="cls-1" x="19.43" y="19.65" width="2.47" height="17.38"/><path class="cls-6" d="M59.31,27.78H53.52a.72.72,0,0,0-.72.72.73.73,0,0,0,.72.73h5.79A.73.73,0,0,0,60,28.5.73.73,0,0,0,59.31,27.78Z"/><path class="cls-6" d="M52.1,34.63a.72.72,0,0,0-1,0,.71.71,0,0,0,0,1l4.09,4.1a.74.74,0,0,0,1,0,.72.72,0,0,0,0-1Z"/><path class="cls-6" d="M52.1,22.37l4.1-4.09a.73.73,0,0,0-1-1l-4.09,4.1a.71.71,0,0,0,0,1A.72.72,0,0,0,52.1,22.37Z"/></g></svg>