<!-- Generated by IcoMoon.io -->
<svg version="1.1" xmlns="http://www.w3.org/2000/svg" width="32" height="32" viewBox="0 0 32 32">
<title>ongoing</title>
<path d="M16 0c-8.836 0-16 7.164-16 16s7.164 16 16 16 16-7.164 16-16-7.164-16-16-16zM6.3 17c-0.552 0-1-0.448-1-1s0.448-1 1-1 1 0.448 1 1-0.448 1-1 1zM9.686 17c-0.552 0-1-0.448-1-1s0.448-1 1-1c0.552 0 1 0.448 1 1s-0.446 1-1 1zM26.732 16.026c-0.002 0.118-0.026 0.234-0.068 0.346-0.024 0.052-0.058 0.096-0.088 0.144-0.034 0.052-0.054 0.11-0.098 0.158l-6.362 7c-0.196 0.216-0.468 0.326-0.74 0.326-0.238 0-0.478-0.086-0.672-0.26-0.41-0.374-0.44-1.004-0.066-1.412l4.84-5.328h-10.312c-0.552 0-1-0.448-1-1s0.448-1 1-1h10.314l-4.844-5.328c-0.37-0.408-0.344-1.040 0.072-1.412 0.406-0.368 1.042-0.342 1.41 0.068l6.364 7c0.042 0.048 0.062 0.106 0.098 0.158 0.032 0.048 0.066 0.090 0.088 0.144 0.042 0.112 0.066 0.228 0.068 0.346 0 0.008 0.006 0.016 0.006 0.026s-0.010 0.014-0.010 0.024z"></path>
</svg>
