<!-- Generated by IcoMoon.io -->
<svg version="1.1" xmlns="http://www.w3.org/2000/svg" width="26" height="32" viewBox="0 0 26 32">
<title>order-shape</title>
<path d="M8.2 10h9.6c0.031 0.002 0.066 0.002 0.102 0.002 1.125 0 2.044-0.885 2.098-1.998l0-4.005c-0.054-1.117-0.972-2.002-2.098-2.002-0.036 0-0.072 0.001-0.107 0.003l-0.195-0c-0.054-1.117-0.972-2.002-2.098-2.002-0.036 0-0.072 0.001-0.107 0.003l-4.795-0c-0.031-0.002-0.066-0.003-0.102-0.003-1.126 0-2.044 0.885-2.098 1.998l-0.2 0.005c-0.025-0.001-0.054-0.002-0.083-0.002-1.129 0-2.052 0.883-2.116 1.996l-0 4.006c0.064 1.119 0.987 2.002 2.117 2.002 0.029 0 0.058-0.001 0.087-0.002z"></path>
<path d="M22.82 4h-0.82v6c0 1.105-0.895 2-2 2h-14c-1.105 0-2-0.895-2-2v-6h-0.82c-0.024-0.001-0.053-0.001-0.082-0.001-1.677 0-3.043 1.332-3.098 2.996l-0 22.005c0.055 1.669 1.421 3.001 3.098 3.001 0.029 0 0.057-0 0.086-0.001l19.636 0c0.024 0.001 0.053 0.001 0.082 0.001 1.677 0 3.043-1.332 3.098-2.996l0-22.005c-0.055-1.669-1.421-3.001-3.098-3.001-0.029 0-0.057 0-0.086 0.001zM19 26h-12c-0.552 0-1-0.448-1-1s0.448-1 1-1h12c0.552 0 1 0.448 1 1s-0.448 1-1 1zM19 22h-12c-0.552 0-1-0.448-1-1s0.448-1 1-1h12c0.552 0 1 0.448 1 1s-0.448 1-1 1zM19 18h-12c-0.552 0-1-0.448-1-1s0.448-1 1-1h12c0.552 0 1 0.448 1 1s-0.448 1-1 1z"></path>
</svg>
