<svg viewBox="0 0 1024 1024" version="1.1" xmlns="http://www.w3.org/2000/svg"><g fill="none"><path fill="#699DF4" d="M1024 512A512 512 0 0 1 512 1024 512 512 0 0 1 0 512 512 512 0 0 1 1024 512z"/><path fill="#FFF" d="M809.4466673777778 468.9333333333333L677.7933311999999 337.28 633.9133326222221 381.1666665244444 765.5600014222222 512.8133330488889 633.9133326222221 644.4666652444444 677.7933311999999 688.3466638222221 809.4466673777778 556.7000001422223 853.3333333333333 512.8133330488889 809.4466673777778 468.9333333333333ZM346.2000002844444 337.28L214.5466669511111 468.9333333333333 170.66666666666666 512.8133330488889 214.5466669511111 556.7000001422223 346.2000002844444 688.3466638222221 390.08 644.4666652444444 258.43333347555557 512.8133330488889 390.08 381.1666665244444 346.2000002844444 337.28ZM399.4979999288889 803.6553329777778L564.64 205.45999985777777 624.4533361777777 221.97199985777775 459.3113332622222 820.1686641777778 399.4979999288889 803.6553329777778Z"/></g></svg>