<!-- Generated by IcoMoon.io -->
<svg version="1.1" xmlns="http://www.w3.org/2000/svg" width="32" height="32" viewBox="0 0 32 32">
<title>panel-permission</title>
<path d="M2.82 12h24.46c1.525-0.107 2.721-1.37 2.721-2.913 0-0.030-0-0.061-0.001-0.091l0 0.004v-4c0.001-0.026 0.001-0.056 0.001-0.087 0-1.543-1.196-2.806-2.712-2.913l-0.009-0.001h-24.46c-1.57 0.055-2.821 1.34-2.821 2.918 0 0.029 0 0.057 0.001 0.086l-0-0.004v4c-0.001 0.024-0.001 0.053-0.001 0.082 0 1.578 1.252 2.864 2.816 2.918l0.005 0zM1.88 5c-0-0.006-0-0.013-0-0.021 0-0.527 0.416-0.957 0.938-0.979l0.002-0h24.46c0.524 0.022 0.94 0.452 0.94 0.979 0 0.007-0 0.015-0 0.022l0-0.001v4c0 0.006 0 0.014 0 0.021 0 0.527-0.416 0.957-0.938 0.979l-0.002 0h-24.46c-0.524-0.022-0.94-0.452-0.94-0.979 0-0.007 0-0.015 0-0.022l-0 0.001z"></path>
<path d="M16.78 28h-14c-0.524-0.022-0.94-0.452-0.94-0.979 0-0.007 0-0.015 0-0.022l-0 0.001v-10c-0-0.006-0-0.013-0-0.020 0-0.541 0.439-0.98 0.98-0.98 0 0 0 0 0 0h16c0.344-0.775 0.802-1.438 1.36-2l-0 0h-17.36c-1.57 0.055-2.821 1.34-2.821 2.918 0 0.029 0 0.057 0.001 0.086l-0-0.004v10c-0.001 0.024-0.001 0.053-0.001 0.082 0 1.578 1.252 2.864 2.816 2.918l0.005 0h12.84c0.328-0.765 0.703-1.422 1.141-2.031l-0.021 0.031z"></path>
<path d="M10.34 22c0 1.105-0.842 2-1.88 2s-1.88-0.895-1.88-2c0-1.105 0.842-2 1.88-2s1.88 0.895 1.88 2z"></path>
<path d="M16.92 22c0 1.105-0.842 2-1.88 2s-1.88-0.895-1.88-2c0-1.105 0.842-2 1.88-2s1.88 0.895 1.88 2z"></path>
<path d="M27.16 22.36c1.366-0.866 2.26-2.371 2.26-4.084 0-0.013-0-0.025-0-0.038v0.002c0.001-0.043 0.002-0.093 0.002-0.143 0-2.507-1.988-4.55-4.474-4.637l-0.008-0c-2.494 0.088-4.482 2.13-4.482 4.637 0 0.050 0.001 0.1 0.002 0.15l-0-0.007c-0 0.011-0 0.023-0 0.036 0 1.713 0.894 3.218 2.241 4.072l0.020 0.012c-2.853 1.098-4.841 3.816-4.841 6.999 0 0.043 0 0.085 0.001 0.127l-0-0.006c-0 0.006-0 0.013-0 0.020 0 0.269 0.213 0.489 0.479 0.5l0.001 0h13.14c0.268-0.011 0.48-0.23 0.48-0.5 0-0.007-0-0.014-0-0.021l0 0.001c0.001-0.038 0.001-0.083 0.001-0.129 0-3.175-1.979-5.889-4.77-6.974l-0.051-0.017z"></path>
</svg>
