<!-- Generated by IcoMoon.io -->
<svg version="1.1" xmlns="http://www.w3.org/2000/svg" width="32" height="32" viewBox="0 0 32 32">
<title>panel</title>
<path d="M3 12h26c1.657 0 3-1.343 3-3v0-4c0-1.657-1.343-3-3-3v0h-26c-1.657 0-3 1.343-3 3v0 4c0 1.657 1.343 3 3 3v0zM2 5c0-0.552 0.448-1 1-1v0h26c0.552 0 1 0.448 1 1v0 4c0 0.552-0.448 1-1 1v0h-26c-0.552 0-1-0.448-1-1v0z"></path>
<path d="M11 22.12c0 1.171-0.895 2.12-2 2.12s-2-0.949-2-2.12c0-1.171 0.895-2.12 2-2.12s2 0.949 2 2.12z"></path>
<path d="M18 22.12c0 1.171-0.895 2.12-2 2.12s-2-0.949-2-2.12c0-1.171 0.895-2.12 2-2.12s2 0.949 2 2.12z"></path>
<path d="M25 22.12c0 1.171-0.895 2.12-2 2.12s-2-0.949-2-2.12c0-1.171 0.895-2.12 2-2.12s2 0.949 2 2.12z"></path>
<path d="M28 16c1.105 0 2 0.895 2 2v0 8c0 1.105-0.895 2-2 2v0h-24c-1.105 0-2-0.895-2-2v0-8c0-1.105 0.895-2 2-2v0h24zM28 14h-24c-2.209 0-4 1.791-4 4v0 8c0 2.209 1.791 4 4 4v0h24c2.209 0 4-1.791 4-4v0-8c0-2.209-1.791-4-4-4v0z"></path>
</svg>
