<!-- Generated by IcoMoon.io -->
<svg version="1.1" xmlns="http://www.w3.org/2000/svg" width="32" height="32" viewBox="0 0 32 32">
<title>panels</title>
<path d="M15.56 0l-14.82 6c-0.38 0.196-0.636 0.585-0.636 1.035 0 0.401 0.203 0.754 0.512 0.962l0.004 0.003 14.82 7.9c0.159 0.086 0.349 0.136 0.55 0.136s0.391-0.050 0.556-0.139l-0.006 0.003 14.84-7.9c0.313-0.211 0.516-0.564 0.516-0.965 0-0.45-0.256-0.839-0.63-1.032l-0.006-0.003-14.82-6c-0.13-0.054-0.281-0.085-0.44-0.085s-0.31 0.031-0.448 0.088l0.008-0.003z"></path>
<path d="M16.4 2.22v0zM16 0c-0.066-0.013-0.142-0.021-0.22-0.021s-0.154 0.008-0.227 0.022l0.007-0.001-14.82 6c-0.38 0.196-0.636 0.585-0.636 1.035 0 0.401 0.203 0.754 0.512 0.962l0.004 0.003 14.82 7.9c0.159 0.086 0.349 0.136 0.55 0.136s0.391-0.050 0.556-0.139l-0.006 0.003 14.84-7.9c0.313-0.211 0.516-0.564 0.516-0.965 0-0.45-0.256-0.839-0.63-1.032l-0.006-0.003-14.82-6c-0.066-0.013-0.142-0.021-0.22-0.021s-0.154 0.008-0.227 0.022l0.007-0.001z"></path>
<path d="M16 24c-0.396-0.001-0.769-0.105-1.091-0.286l0.011 0.006-14.32-7.82c-0.355-0.198-0.591-0.571-0.591-1 0-0.63 0.511-1.141 1.141-1.141 0.202 0 0.391 0.052 0.556 0.144l-0.006-0.003 14.3 7.86 14.3-7.88c0.159-0.089 0.348-0.141 0.55-0.141 0.63 0 1.141 0.511 1.141 1.141 0 0.429-0.236 0.802-0.585 0.997l-0.006 0.003-14.32 7.9c-0.283 0.141-0.617 0.223-0.969 0.223-0.039 0-0.078-0.001-0.116-0.003l0.005 0z"></path>
<path d="M16 32c-0.396-0.001-0.769-0.105-1.091-0.286l0.011 0.006-14.32-7.88c-0.355-0.198-0.591-0.571-0.591-1 0-0.63 0.511-1.141 1.141-1.141 0.202 0 0.391 0.052 0.556 0.144l-0.006-0.003 14.3 7.88 14.3-7.88c0.159-0.089 0.348-0.141 0.55-0.141 0.63 0 1.141 0.511 1.141 1.141 0 0.429-0.236 0.802-0.585 0.997l-0.006 0.003-14.32 7.88c-0.312 0.175-0.683 0.278-1.079 0.28h-0.001z"></path>
</svg>
