<!-- Generated by IcoMoon.io -->
<svg version="1.1" xmlns="http://www.w3.org/2000/svg" width="32" height="32" viewBox="0 0 32 32">
<title>panel-shape</title>
<path d="M29 12h-26c-1.657 0-3-1.343-3-3v0-4c0-1.657 1.343-3 3-3v0h26c1.657 0 3 1.343 3 3v0 4c0 1.657-1.343 3-3 3v0z"></path>
<path d="M29 14h-26c-1.657 0-3 1.343-3 3v0 10c0 1.657 1.343 3 3 3v0h26c1.657 0 3-1.343 3-3v0-10c0-1.657-1.343-3-3-3v0zM9 24c-1.105 0-2-0.895-2-2s0.895-2 2-2c1.105 0 2 0.895 2 2v0c0 1.105-0.895 2-2 2v0zM16 24c-1.105 0-2-0.895-2-2s0.895-2 2-2c1.105 0 2 0.895 2 2v0c0 1.105-0.895 2-2 2v0zM23 24c-1.105 0-2-0.895-2-2s0.895-2 2-2c1.105 0 2 0.895 2 2v0c0 1.105-0.895 2-2 2v0z"></path>
</svg>
