<!-- Generated by IcoMoon.io -->
<svg version="1.1" xmlns="http://www.w3.org/2000/svg" width="32" height="32" viewBox="0 0 32 32">
<title>password</title>
<path d="M27 26h-22c-2.76 0-5-2.24-5-5v-10c0-2.76 2.24-5 5-5h22c2.76 0 5 2.24 5 5v10c0 2.76-2.24 5-5 5zM5 8c-1.66 0-3 1.34-3 3v10c0 1.66 1.34 3 3 3h22c1.66 0 3-1.34 3-3v-10c0-1.66-1.34-3-3-3h-22zM8 14c-1.1 0-2 0.9-2 2s0.9 2 2 2 2-0.9 2-2-0.9-2-2-2zM16 14c-1.1 0-2 0.9-2 2s0.9 2 2 2 2-0.9 2-2-0.9-2-2-2zM24 14c-1.1 0-2 0.9-2 2s0.9 2 2 2 2-0.9 2-2-0.9-2-2-2z"></path>
</svg>
