<!-- Generated by IcoMoon.io -->
<svg version="1.1" xmlns="http://www.w3.org/2000/svg" width="32" height="32" viewBox="0 0 32 32">
<title>performance</title>
<path d="M16 2.050c-7.7 0-13.95 6.25-13.95 13.95 0 7.75 6.25 14 13.95 14s13.95-6.25 13.95-14c0-7.7-6.25-13.95-13.95-13.95zM24.45 24.5c-1.1 1.1-2.4 1.95-3.8 2.55-1.5 0.6-3.050 0.95-4.65 0.95s-3.2-0.3-4.65-0.95c-1.45-0.6-2.7-1.45-3.8-2.55s-1.95-2.4-2.55-3.8c-0.65-1.5-1-3.050-1-4.7 0-1.6 0.3-3.2 0.95-4.65 0.6-1.45 1.45-2.7 2.55-3.8s2.4-1.95 3.8-2.55c1.5-0.6 3.050-0.95 4.65-0.95s3.2 0.3 4.65 0.95c1.45 0.6 2.7 1.45 3.8 2.55s1.95 2.4 2.55 3.8c0.6 1.5 0.95 3.050 0.95 4.65s-0.3 3.2-0.95 4.65c-0.5 1.45-1.4 2.75-2.5 3.85z"></path>
<path d="M16.050 6.85c-5.050 0-9.2 4.1-9.2 9.15h2c0-3.95 3.2-7.15 7.15-7.15s7.15 3.2 7.15 7.15h2c0.050-5.050-4.050-9.15-9.1-9.15z"></path>
<path d="M17 18.5v-5.75h-2v5.7c-1.35 0.4-2.35 1.7-2.35 3.2 0 1.85 1.5 3.35 3.35 3.35s3.35-1.5 3.35-3.35c-0.050-1.5-1-2.75-2.35-3.15zM16 23.4c-0.95 0-1.75-0.8-1.75-1.75s0.8-1.75 1.75-1.75c0.95 0 1.75 0.8 1.75 1.75s-0.8 1.75-1.75 1.75z"></path>
</svg>
