<?xml version="1.0" encoding="UTF-8"?>
<svg width="32px" height="32px" viewBox="0 0 32 32" version="1.1" xmlns="http://www.w3.org/2000/svg" xmlns:xlink="http://www.w3.org/1999/xlink">
    <title>权限</title>
    <g id="权限" stroke="none" stroke-width="1" fill="none" fill-rule="evenodd">
        <path d="M28.6506319,17.9978546 C30.3176226,19.6648453 30.3176226,22.3793369 28.6506319,24.0463276 C27.8171365,24.879823 26.7245818,25.2965707 25.6282726,25.2965707 C25.0089616,25.2965707 24.3908487,25.1635789 23.8192813,24.8975955 L23.7472763,24.9774396 L22.6747341,26.0486115 L23.6684322,27.0424056 L24.5117095,27.8464996 L23.6684322,28.7431866 L22.8409039,29.6428826 L21.9676511,28.7431866 L20.9727341,27.7486115 L19.0729443,29.6480172 L18.2316407,30.538753 L17.3721632,29.6480172 L16.5287341,28.7265735 L17.3721632,27.9472361 L22.0127427,23.31053 C20.9662232,21.6578506 21.1626953,19.4373181 22.6021588,17.9978546 C24.2691495,16.3308639 26.9836412,16.3308639 28.6506319,17.9978546 Z M16.1106567,2 C18.2281854,2 20.2218162,2.82598639 21.7161007,4.32402534 C23.2141397,5.8220643 24.040126,7.8119406 24.040126,9.92946934 C24.040126,12.0469981 23.2141397,14.0406289 21.7161007,15.5349133 C20.2887526,16.9658477 18.4092183,17.7835901 16.3949013,17.8539803 C16.3026916,17.8769819 16.2062226,17.8889746 16.1069022,17.8889746 C10.2010995,17.8889746 5.39911501,22.6909591 5.39911501,28.5967618 L5.39911501,29.794442 L3,29.794442 L3,28.5930073 C3,26.8246455 3.34541249,25.105092 4.0287285,23.4906641 C4.68951762,21.9287989 5.63564748,20.5283765 6.83708223,19.3231873 C8.04227146,18.1179981 9.44269384,17.1756227 11.004559,16.5148336 C11.1499323,16.4534462 11.2960935,16.394786 11.4430098,16.3388584 C11.1132628,16.0989929 10.7995506,15.8299908 10.5052127,15.5349133 C9.00717375,14.0368744 8.18118736,12.0469981 8.18118736,9.92946934 C8.18118736,7.8119406 9.00717375,5.81830981 10.5052127,4.32402534 C12.0032517,2.82974087 13.993128,2 16.1106567,2 Z M25.6282726,19.1467266 C25.1476987,19.1467266 24.6671248,19.3306963 24.3029399,19.6948812 C23.5708156,20.4270055 23.5708156,21.6134223 24.3029399,22.3455466 C25.0350642,23.0776709 26.221481,23.0776709 26.9536053,22.3455466 C27.6857296,21.6134223 27.6857296,20.4270055 26.9536053,19.6948812 C26.5856659,19.3306963 26.1088465,19.1467266 25.6282726,19.1467266 Z M16.1106567,4.4028695 C13.062016,4.4028695 10.5840569,6.88082867 10.5840569,9.92946934 C10.5840569,12.97811 13.062016,15.4560692 16.1106567,15.4560692 C19.1592974,15.4560692 21.6372565,12.97811 21.6372565,9.92946934 C21.6372565,6.88082867 19.1592974,4.4028695 16.1106567,4.4028695 Z" id="形状结合" fill="#63656E"></path>
    </g>
</svg>