<!-- Generated by IcoMoon.io -->
<svg version="1.1" xmlns="http://www.w3.org/2000/svg" width="32" height="32" viewBox="0 0 32 32">
<title>pie-chart</title>
<path d="M14.020 32c-7.72 0-14.020-6.3-14.020-14.020 0-7.28 5.68-13.42 12.94-13.98 0.28-0.020 0.56 0.080 0.76 0.26s0.32 0.46 0.32 0.74v12.98h12.98c0.28 0 0.54 0.12 0.74 0.32 0.18 0.2 0.28 0.48 0.26 0.76-0.56 7.26-6.7 12.94-13.98 12.94zM12.020 6.12c-5.7 0.98-10.020 5.98-10.020 11.86 0 6.62 5.4 12.020 12.020 12.020 5.88 0 10.88-4.32 11.84-10.020h-12.84c-0.56 0-1-0.44-1-1v-12.86zM30.94 16h-13.94c-0.56 0-1-0.44-1-1v-13.94c0-0.52 0.4-0.96 0.92-1 0.36-0.040 0.72-0.060 1.080-0.060 7.72 0 14 6.28 14 14 0 0.36-0.020 0.72-0.060 1.080-0.040 0.52-0.46 0.92-1 0.92zM18 14h12c0-6.62-5.38-12-12-12v12z"></path>
</svg>
