<!-- Generated by IcoMoon.io -->
<svg version="1.1" xmlns="http://www.w3.org/2000/svg" width="32" height="32" viewBox="0 0 32 32">
<title>pie-chart-shape</title>
<path d="M27 18h-12c-0.552 0-1-0.448-1-1v-12c0-0.001 0-0.001 0-0.002 0-0.552-0.448-1-1-1-0.021 0-0.042 0.001-0.063 0.002-7.27 0.556-12.96 6.594-12.96 13.961 0 1.544 0.25 3.029 0.711 4.417 1.363 4.228 4.704 7.57 8.933 8.934 1.388 0.46 2.873 0.71 4.417 0.71 7.367 0 13.405-5.69 13.959-12.915 0.005-0.070 0.006-0.097 0.006-0.124 0-0.263-0.1-0.503-0.264-0.684-0.181-0.185-0.434-0.299-0.714-0.299-0.009 0-0.018 0-0.027 0z"></path>
<path d="M18 0h-1.080c-0.518 0.042-0.922 0.472-0.922 0.997 0 0.022 0.001 0.044 0.002 0.066l-0 13.997c0 0.552 0.448 1 1 1h14c0.001 0 0.002 0 0.003 0 0.524 0 0.954-0.403 0.997-0.916 0-0.364 0-0.724 0-1.084 0-0.018 0-0.039 0-0.060 0-7.732-6.268-14-14-14-0 0-0 0-0 0z"></path>
</svg>
