<?xml version="1.0" encoding="UTF-8"?>
<svg width="64px" height="64px" viewBox="0 0 64 64" version="1.1" xmlns="http://www.w3.org/2000/svg" xmlns:xlink="http://www.w3.org/1999/xlink">
    <title>星级</title>
    <g id="蓝盾服务扩展商店" stroke="none" stroke-width="1" fill="none" fill-rule="evenodd">
        <g id="蓝盾服务扩展商店设计稿-第四批界面" transform="translate(-868.000000, -2175.000000)">
            <g id="编组-44" transform="translate(65.000000, 1942.000000)">
                <g id="星级" transform="translate(803.000000, 233.000000)">
                    <rect id="Rectangle-Copy-3" stroke="#EDEEF2" stroke-width="2" x="1" y="1" width="62" height="62" rx="31"></rect>
                    <g id="流水线" transform="translate(12.000000, 16.000000)" fill-rule="nonzero">
                        <g id="Group-7" fill="#383D49">
                            <path d="M20.6404332,11.3548387 L19.4484843,13.4193548 L10,13.4193548 L10,15.483871 L10,17.5483871 L10,18.5806452 L13,18.5806452 L15,18.5806452 L16.4686119,18.5806452 L15.276663,20.6451613 L13,20.6451613 L10,20.6451613 L9,20.6451613 C8.44771525,20.6451613 8,20.197446 8,19.6451613 L8,17.5483871 L6.5,17.5483871 C4.01471863,17.5483871 2,19.6280966 2,22.1935484 C2,24.7590001 4.01471863,26.8387097 6.5,26.8387097 L8,26.8387097 L8,23.7419355 C8,23.1718351 8.44771525,22.7096774 9,22.7096774 L32,22.7096774 C32.5522847,22.7096774 33,23.1718351 33,23.7419355 L33,30.9677419 C33,31.5378423 32.5522847,32 32,32 L9,32 C8.44771525,32 8,31.5378423 8,30.9677419 L8,28.9032258 L6.5,28.9032258 C2.91014913,28.9032258 0,25.8992009 0,22.1935484 C0,18.4878959 2.91014913,15.483871 6.5,15.483871 L8,15.483871 L8,12.3870968 C8,11.8169964 8.44771525,11.3548387 9,11.3548387 L20.6404332,11.3548387 Z M25.1504971,11.3548387 L32,11.3548387 C32.5522847,11.3548387 33,11.8169964 33,12.3870968 L33,19.6129032 C33,20.1830036 32.5522847,20.6451613 32,20.6451613 L19.8954651,20.6451613 L21.0874141,18.5806452 L31,18.5806452 L31,13.4193548 L24.0672864,13.4193548 L25.2320508,11.4019238 L25.1504971,11.3548387 Z M34,5.16129032 L34,3.09677419 C37.8659932,3.09677419 41,6.33187794 41,10.3225806 C41,14.3132834 37.8659932,17.5483871 34,17.5483871 L34,15.483871 C36.7614237,15.483871 39,13.1730826 39,10.3225806 C39,7.47207871 36.7614237,5.16129032 34,5.16129032 Z M9,0 L32,0 C32.5522847,0 33,0.462157678 33,1.03225806 L33,8.25806452 C33,8.8281649 32.5522847,9.29032258 32,9.29032258 L9,9.29032258 C8.44771525,9.29032258 8,8.8281649 8,8.25806452 L8,1.03225806 C8,0.462157678 8.44771525,0 9,0 Z M10,2.06451613 L10,7.22580645 L31,7.22580645 L31,2.06451613 L10,2.06451613 Z M10,24.7741935 L10,29.9354839 L31,29.9354839 L31,24.7741935 L10,24.7741935 Z" id="Combined-Shape"></path>
                        </g>
                        <path d="M33,13.4074074 L35,13.4074074 L35,18.5925926 L33,18.5925926 L33,13.4074074 Z M33,2 L35,2 L35,7.18518519 L33,7.18518519 L33,2 Z M6,24.8148148 L8,24.8148148 L8,30 L6,30 L6,24.8148148 Z M6,13.4074074 L8,13.4074074 L8,18.5925926 L6,18.5925926 L6,13.4074074 Z" id="Combined-Shape" fill="#3A84FF"></path>
                    </g>
                </g>
            </g>
        </g>
    </g>
</svg>