<!-- Generated by IcoMoon.io -->
<svg version="1.1" xmlns="http://www.w3.org/2000/svg" width="32" height="32" viewBox="0 0 32 32">
<title>pipeline</title>
<path d="M30 11c0-3.26-2.9-5.96-6.5-6h-1.5c0-1.66-1.34-3-3-3h-6c-1.66 0-3 1.34-3 3v2c0 1.66 1.34 3 3 3h6c1.66 0 3-1.34 3-3h1.5c2.48 0.020 4.5 1.82 4.5 4 0 2.040-1.76 3.7-4.020 3.96l0.34-0.68c0.24-0.5 0.040-1.1-0.44-1.34-0.5-0.24-1.1-0.040-1.34 0.44l-0.58 1.16c-0.22-1.44-1.46-2.54-2.96-2.54h-6c-1.66 0-3 1.34-3 3h-1.52c-3.58 0.040-6.48 2.74-6.48 6 0 3.1 2.6 5.64 5.92 5.94l-0.32 0.62c-0.24 0.5-0.040 1.1 0.44 1.34 0.14 0.080 0.3 0.1 0.44 0.1 0.36 0 0.72-0.2 0.9-0.56l0.62-1.26c0.12 1.58 1.42 2.82 3 2.82h6c1.66 0 3-1.34 3-3v-2c0-1.66-1.34-3-3-3h-6c-1.58 0-2.88 1.24-2.98 2.8l-0.62-1.24c-0.24-0.5-0.84-0.7-1.34-0.44-0.5 0.24-0.7 0.84-0.44 1.34l0.24 0.48c-2.18-0.3-3.86-1.96-3.86-3.94 0-2.18 2.020-3.98 4.5-4h1.5c0 1.66 1.34 3 3 3h6c1.6 0 2.9-1.26 2.98-2.82l0.56 1.1c0.18 0.36 0.52 0.56 0.9 0.56 0.16 0 0.3-0.040 0.44-0.1 0.5-0.24 0.7-0.84 0.44-1.34l-0.22-0.44c3.3-0.34 5.9-2.86 5.9-5.96zM20 7c0 0.56-0.44 1-1 1h-6c-0.56 0-1-0.44-1-1v-2c0-0.56 0.44-1 1-1h6c0.56 0 1 0.44 1 1v2zM12 25c0-0.56 0.44-1 1-1h6c0.56 0 1 0.44 1 1v2c0 0.56-0.44 1-1 1h-6c-0.56 0-1-0.44-1-1v-2zM20 17c0 0.56-0.44 1-1 1h-6c-0.56 0-1-0.44-1-1v-2c0-0.56 0.44-1 1-1h6c0.56 0 1 0.44 1 1v2z"></path>
</svg>
