<!-- Generated by IcoMoon.io -->
<svg version="1.1" xmlns="http://www.w3.org/2000/svg" width="32" height="32" viewBox="0 0 32 32">
<title>pipeline-shape</title>
<path d="M32 10.286c-0.198-3.83-3.352-6.86-7.214-6.86-0.076 0-0.151 0.001-0.226 0.003l-1.703-0c0-1.894-1.535-3.429-3.429-3.429h-6.857c-1.894 0-3.429 1.535-3.429 3.429v2.286c0 1.894 1.535 3.429 3.429 3.429h6.857c1.894 0 3.429-1.535 3.429-3.429h1.714c0.065-0.003 0.142-0.005 0.219-0.005 2.6 0 4.73 2.009 4.923 4.56-0.129 2.487-2.1 4.458-4.559 4.588l0.377-0.777c0.056-0.13 0.088-0.281 0.088-0.439 0-0.631-0.512-1.143-1.143-1.143-0.414 0-0.776 0.22-0.976 0.549l-0.643 1.285c-0.264-1.654-1.68-2.903-3.388-2.903-0.014 0-0.028 0-0.043 0l-6.855-0c-1.894 0-3.429 1.535-3.429 3.429h-1.737c-0.057-0.002-0.124-0.003-0.192-0.003-3.861 0-7.015 3.030-7.213 6.842 0.144 3.745 3.129 6.73 6.843 6.874l-0.329 0.709c-0.077 0.149-0.122 0.326-0.122 0.513 0 0.442 0.251 0.825 0.618 1.015 0.15 0.075 0.32 0.117 0.499 0.117 0.003 0 0.007-0 0.010-0 0 0 0.001 0 0.002 0 0.448 0 0.836-0.258 1.023-0.633l0.597-1.492c0.123 1.793 1.608 3.2 3.421 3.2 0.003 0 0.005 0 0.008 0h6.857c1.894 0 3.429-1.535 3.429-3.429v-2.286c0-1.894-1.535-3.429-3.429-3.429h-6.857c-0.002 0-0.005 0-0.008 0-1.813 0-3.298 1.407-3.42 3.189l-0.709-1.429c-0.204-0.334-0.566-0.554-0.979-0.554-0.631 0-1.143 0.512-1.143 1.143 0 0.159 0.032 0.31 0.091 0.447l0.271 0.541c-2.368-0.205-4.234-2.102-4.388-4.466 0.193-2.581 2.323-4.591 4.923-4.591 0.077 0 0.154 0.002 0.23 0.005l1.704-0c0 1.894 1.535 3.429 3.429 3.429h6.857c0.002 0 0.004 0 0.006 0 1.821 0 3.311-1.42 3.422-3.213l0.64 1.247c0.203 0.334 0.566 0.554 0.979 0.554 0.631 0 1.143-0.512 1.143-1.143 0-0.159-0.032-0.31-0.091-0.447l-0.249-0.495c3.651-0.202 6.556-3.131 6.719-6.773z"></path>
</svg>
