<!-- Generated by IcoMoon.io -->
<svg version="1.1" xmlns="http://www.w3.org/2000/svg" width="32" height="32" viewBox="0 0 32 32">
<title>play1</title>
<path d="M13.97 20.442l5.476-4.44-5.476-4.442z"></path>
<path d="M16 0c-8.822 0-16 7.178-16 16s7.178 16 16 16 16-7.178 16-16-7.178-16-16-16zM21.662 16.778l-8.064 6.538c-0.192 0.152-0.41 0.222-0.624 0.222-0.518 0-1.004-0.406-1.004-1v-13.076c0-0.596 0.486-1.002 1.004-1.002 0.214 0 0.432 0.070 0.624 0.224l8.064 6.538c0.492 0.402 0.492 1.154 0 1.556z"></path>
</svg>
