<!-- Generated by IcoMoon.io -->
<svg version="1.1" xmlns="http://www.w3.org/2000/svg" width="32" height="32" viewBox="0 0 32 32">
<title>play3</title>
<path d="M16 0c-8.82 0-16 7.18-16 16s7.18 16 16 16 16-7.18 16-16-7.18-16-16-16zM16 30c-7.72 0-14-6.28-14-14s6.28-14 14-14c7.72 0 14 6.28 14 14s-6.28 14-14 14zM13.6 8.68c-0.2-0.14-0.42-0.22-0.62-0.22-0.52 0-1 0.4-1 1v13.080c0 0.6 0.48 1 1 1 0.22 0 0.44-0.060 0.62-0.22l8.060-6.54c0.5-0.4 0.5-1.16 0-1.56l-8.060-6.54zM13.96 20.44v-8.88l5.48 4.44-5.48 4.44z"></path>
</svg>
