<!-- Generated by IcoMoon.io -->
<svg version="1.1" xmlns="http://www.w3.org/2000/svg" width="32" height="32" viewBox="0 0 32 32">
<title>plus-square</title>
<path d="M23 15h-6v-6c0-0.552-0.448-1-1-1s-1 0.448-1 1v6h-6c-0.552 0-1 0.448-1 1s0.448 1 1 1h6v6c0 0.552 0.448 1 1 1s1-0.448 1-1v-6h6c0.552 0 1-0.448 1-1s-0.448-1-1-1z"></path>
<path d="M27 0h-22c-2.761 0-5 2.239-5 5v22c0 2.761 2.239 5 5 5h22c2.761 0 5-2.239 5-5v-22c0-2.761-2.239-5-5-5zM30 27c0 1.657-1.343 3-3 3h-22c-1.657 0-3-1.343-3-3v-22c0-1.657 1.343-3 3-3h22c1.657 0 3 1.343 3 3z"></path>
</svg>
