<!-- Generated by IcoMoon.io -->
<svg version="1.1" xmlns="http://www.w3.org/2000/svg" width="32" height="32" viewBox="0 0 32 32">
<title>position</title>
<path d="M16 2c-7.731 0-14 6.269-14 14s6.269 14 14 14 14-6.269 14-14-6.269-14-14-14zM24.488 24.491c-1.103 1.103-2.387 1.969-3.816 2.572-1.172 0.497-2.403 0.8-3.672 0.903v-3.966h-2v3.966c-1.269-0.103-2.5-0.406-3.672-0.903-1.428-0.603-2.713-1.469-3.816-2.572s-1.969-2.387-2.572-3.816c-0.497-1.172-0.8-2.406-0.903-3.675h3.962v-2h-3.963c0.103-1.269 0.406-2.497 0.903-3.669 0.603-1.428 1.469-2.713 2.572-3.816s2.387-1.969 3.816-2.572c1.172-0.497 2.403-0.8 3.672-0.903v3.959h2v-3.959c1.269 0.103 2.5 0.406 3.672 0.903 1.428 0.603 2.712 1.469 3.816 2.572s1.969 2.388 2.572 3.816c0.494 1.172 0.797 2.4 0.903 3.669h-3.962v2h3.962c-0.103 1.269-0.406 2.503-0.903 3.675-0.603 1.428-1.469 2.712-2.572 3.816z"></path>
<path d="M16 12c-2.209 0-4 1.791-4 4s1.791 4 4 4 4-1.791 4-4-1.791-4-4-4zM16 18c-1.103 0-2-0.897-2-2s0.897-2 2-2 2 0.897 2 2-0.897 2-2 2z"></path>
</svg>
