<?xml version="1.0" encoding="UTF-8"?>
<svg width="14px" height="14px" viewBox="0 0 14 14" version="1.1" xmlns="http://www.w3.org/2000/svg" xmlns:xlink="http://www.w3.org/1999/xlink">
    <!-- Generator: Sketch 54.1 (76490) - https://sketchapp.com -->
    <title>zan</title>
    <desc>Created with Sketch.</desc>
    <g id="二期" stroke="none" stroke-width="1">
        <g id="模板详情-回复" transform="translate(-437.000000, -763.000000)">
            <g id="内容" transform="translate(83.000000, 134.000000)">
                <g id="用户评论" transform="translate(45.000000, 415.000000)">
                    <g id="用户评论-copy" transform="translate(0.000000, 141.000000)">
                        <g id="zan" transform="translate(309.000000, 73.000000)">
                            <rect id="矩形" fill="#000000" opacity="0" x="0" y="0" width="14" height="14"></rect>
                            <path d="M0.583333338,12.5416667 L2.91666666,12.5416667 L2.91666666,5.54166666 L0.583333338,5.54166666 L0.583333338,12.5416667 Z M13.4166667,6.125 C13.4166667,5.48041666 12.8945833,4.95833334 12.25,4.95833334 L8.56625,4.95833334 L9.12304166,2.2925 C9.135,2.23416666 9.14345832,2.17291666 9.14345834,2.10875 C9.14345834,1.86666666 9.04429168,1.64791666 8.88708334,1.49041666 L8.26583334,0.875 L4.42458334,4.71625 C4.21458334,4.92916666 4.08333334,5.22083334 4.08333334,5.54166666 L4.08333334,11.375 C4.08333334,12.0195833 4.60541668,12.5416667 5.25,12.5416667 L10.5,12.5416667 C10.9683241,12.5421118 11.3912857,12.2617848 11.5733333,11.8302917 L13.3320833,7.7175 C13.384875,7.58333334 13.4166667,7.44041666 13.4166667,7.29166666 L13.4166667,6.17458334 L13.4108333,6.16875 L13.4166667,6.125 L13.4166667,6.125 Z" id="形状" stroke="#979BA5" fill-rule="nonzero"></path>
                        </g>
                    </g>
                </g>
            </g>
        </g>
    </g>
</svg>