<!-- Generated by IcoMoon.io -->
<svg version="1.1" xmlns="http://www.w3.org/2000/svg" width="32" height="32" viewBox="0 0 32 32">
<title>project</title>
<path d="M25.4 14.44c-0.264-0.492-0.774-0.82-1.362-0.82-0.014 0-0.027 0-0.040 0.001l0.002-0h-10.42c-0.795 0-1.44 0.645-1.44 1.44s0.645 1.44 1.44 1.44h8c0.901-1.167 2.26-1.943 3.802-2.059l0.018-0.001z"></path>
<path d="M13.58 19.34c-0.795 0-1.44 0.645-1.44 1.44s0.645 1.44 1.44 1.44h7.62c-0.403-0.721-0.64-1.583-0.64-2.499 0-0 0-0 0-0.001v0q0-0.2 0-0.4z"></path>
<path d="M9.5 15.060c0 0.851-0.734 1.54-1.64 1.54s-1.64-0.689-1.64-1.54c0-0.851 0.734-1.54 1.64-1.54s1.64 0.689 1.64 1.54z"></path>
<path d="M2 25.86v-15.3c0.022-0.823 0.694-1.481 1.519-1.481 0.021 0 0.042 0 0.063 0.001l-0.003-0h24c0.018-0.001 0.039-0.001 0.061-0.001 0.826 0 1.498 0.659 1.519 1.479l0 0.002v4.98c0.998 0.756 1.714 1.838 1.993 3.085l0.007 0.035v-10c0-0.002 0-0.004 0-0.006 0-1.105-0.895-2-2-2-0.056 0-0.112 0.002-0.167 0.007l0.007-0h-12.24c-0.028 0.002-0.060 0.003-0.093 0.003-0.384 0-0.736-0.137-1.010-0.365l0.003 0.002s-0.52-0.82-1.44-2.22c-0.382-0.685-1.102-1.141-1.928-1.141-0.025 0-0.050 0-0.075 0.001l0.004-0h-9.56c-0.066-0.006-0.143-0.010-0.22-0.010-1.348 0-2.44 1.092-2.44 2.44 0 0.011 0 0.021 0 0.032l-0-0.002v21.42c0 2.64 2.12 2.32 2.12 2.32h16c0.28-0.687 0.616-1.28 1.016-1.823l-0.016 0.023h-15.62c-0.817-0.011-1.478-0.665-1.5-1.478l-0-0.002z"></path>
<path d="M9.5 20.76c0 0.851-0.734 1.54-1.64 1.54s-1.64-0.689-1.64-1.54c0-0.851 0.734-1.54 1.64-1.54s1.64 0.689 1.64 1.54z"></path>
<path d="M27.86 22.98c1.167-0.674 1.94-1.915 1.94-3.337 0-2.121-1.719-3.84-3.84-3.84s-3.84 1.719-3.84 3.84c0 1.422 0.773 2.663 1.921 3.327l0.018 0.010c-2.382 0.831-4.060 3.059-4.060 5.678 0 0.015 0 0.030 0 0.044v-0.002c0 0.232 0.188 0.42 0.42 0.42v0h11.26c0.232 0 0.42-0.188 0.42-0.42v0c-0.007-2.679-1.77-4.945-4.197-5.708l-0.043-0.012z"></path>
</svg>
