<!-- Generated by IcoMoon.io -->
<svg version="1.1" xmlns="http://www.w3.org/2000/svg" width="32" height="32" viewBox="0 0 32 32">
<title>atom-py</title>
<path d="M25.284 8.5h-1.784v-1.784c0-2.6-2.116-4.716-4.716-4.716h-5.231c-2.787 0-5.053 2.266-5.053 5.053v1.447h-1.784c-2.6 0-4.716 2.116-4.716 4.716v5.231c0 2.788 2.266 5.053 5.053 5.053h1.447v1.784c0 2.6 2.116 4.716 4.716 4.716h5.566c2.6 0 4.716-2.116 4.716-4.716v-1.784h1.784c2.6 0 4.716-2.116 4.716-4.716v-5.569c0.003-2.6-2.113-4.716-4.712-4.716zM8.5 20.053v1.447h-1.447c-1.684 0-3.053-1.369-3.053-3.053v-5.231c0-1.497 1.219-2.716 2.716-2.716h7.753v-2h-3.969v-1.447c0-1.684 1.369-3.053 3.053-3.053h5.231c1.497 0 2.716 1.219 2.716 2.716v5.566c0 1.497-1.219 2.716-2.716 2.716h-5.231c-2.787 0.003-5.053 2.269-5.053 5.056zM28 18.784c0 1.497-1.219 2.716-2.716 2.716h-8.044v2h4.259v1.784c0 1.497-1.219 2.716-2.716 2.716h-5.569c-1.497 0-2.716-1.219-2.716-2.716v-5.231c0-1.684 1.369-3.053 3.053-3.053h5.231c2.6 0 4.716-2.116 4.716-4.716v-1.784h1.784c1.497 0 2.716 1.219 2.716 2.716v5.569z"></path>
<path d="M13.625 6.625c0 0.552-0.448 1-1 1s-1-0.448-1-1c0-0.552 0.448-1 1-1s1 0.448 1 1z"></path>
<path d="M20.344 25.313c0 0.552-0.448 1-1 1s-1-0.448-1-1c0-0.552 0.448-1 1-1s1 0.448 1 1z"></path>
</svg>
