<!-- Generated by IcoMoon.io -->
<svg version="1.1" xmlns="http://www.w3.org/2000/svg" width="29" height="32" viewBox="0 0 29 32">
<title>qq-shape</title>
<path d="M26.5 14.48c0.071-0.309 0.111-0.663 0.111-1.027 0-1.127-0.388-2.163-1.039-2.982-0.096-2.835-1.284-5.383-3.152-7.25-1.937-1.969-4.623-3.196-7.596-3.22-0.046-0.001-0.095-0.001-0.145-0.001-5.859 0-10.609 4.744-10.62 10.6-0.465 0.44-0.761 1.054-0.78 1.738-0.249 0.428-0.396 0.937-0.396 1.481 0 0.106 0.006 0.211 0.017 0.315-0.011 0.080-0.016 0.188-0.016 0.297s0.005 0.217 0.016 0.323c-1.741 1.987-4.001 5.627-2.501 9.607 0.189 0.502 0.648 0.861 1.196 0.9 0.826-0.075 1.537-0.495 1.999-1.112 0.247 0.451 0.486 0.837 0.748 1.206-0.343 0.185-0.62 0.436-0.857 0.721-0.332 0.345-0.542 0.799-0.565 1.302-0.134 0.279-0.214 0.602-0.22 0.942-0.001 0.034-0.002 0.072-0.002 0.11 0 0.791 0.331 1.505 0.861 2.011 1.232 0.974 2.807 1.561 4.518 1.561 0.015 0 0.030-0 0.045-0h0.878c0.082 0.003 0.178 0.005 0.274 0.005 1.851 0 3.558-0.618 4.926-1.659l0.86 0.015c1.393 1.033 3.146 1.654 5.044 1.654 0.337 0 0.669-0.020 0.995-0.058 1.645-0.015 3.189-0.599 4.416-1.568 0.516-0.496 0.847-1.21 0.847-2.001 0-0.038-0.001-0.075-0.002-0.113-0.006-0.337-0.086-0.66-0.226-0.948-0.023-0.486-0.231-0.933-0.555-1.267-0.28-0.339-0.61-0.625-0.982-0.85 0.262-0.359 0.532-0.751 0.776-1.161 0.453 0.588 1.13 1.028 1.913 1.13l0.013 0.001c0.563-0.004 1.046-0.345 1.257-0.831 1.783-4.009-0.617-7.989-2.057-9.869z"></path>
</svg>
