<!-- Generated by IcoMoon.io -->
<svg version="1.1" xmlns="http://www.w3.org/2000/svg" width="29" height="32" viewBox="0 0 29 32">
<title>qq</title>
<path d="M9 32h-0.88c-1.684-0.018-3.229-0.603-4.455-1.572-0.516-0.496-0.847-1.21-0.847-2.001 0-0.038 0.001-0.075 0.002-0.113 0.006-0.337 0.086-0.66 0.226-0.948-0.006 0.010-0.006 0.005-0.006 0.001 0-0.529 0.205-1.010 0.541-1.368 0.242-0.29 0.518-0.541 0.825-0.75-0.225-0.344-0.464-0.73-0.678-1.131-0.495 0.567-1.206 0.987-2.017 1.062-0.563-0.038-1.022-0.397-1.208-0.89-1.483-4.009 0.757-7.59 2.497-9.63-0.010-0.093-0.015-0.201-0.015-0.31s0.005-0.217 0.016-0.323c-0.011-0.077-0.017-0.182-0.017-0.289 0-0.544 0.147-1.054 0.403-1.492 0.011-0.673 0.307-1.287 0.771-1.725 0.058-5.823 4.791-10.521 10.621-10.521 0.014 0 0.028 0 0.043 0 2.99 0.035 5.684 1.285 7.615 3.277 1.872 1.87 3.059 4.418 3.162 7.244 0.643 0.828 1.032 1.865 1.032 2.992 0 0.364-0.041 0.719-0.117 1.059 1.466 1.848 3.846 5.828 2.006 9.848-0.214 0.495-0.697 0.836-1.259 0.84h-0.001c-0.793-0.134-1.457-0.6-1.853-1.248-0.242 0.448-0.474 0.834-0.73 1.203 0.412 0.199 0.743 0.485 1.018 0.818 0.328 0.34 0.537 0.786 0.565 1.281 0.134 0.28 0.214 0.603 0.22 0.943 0.001 0.034 0.002 0.072 0.002 0.11 0 0.791-0.331 1.505-0.861 2.011-1.212 0.958-2.757 1.543-4.437 1.561-0.291 0.034-0.623 0.054-0.96 0.054-1.898 0-3.651-0.621-5.067-1.67l-0.957 0.016c-1.353 1.039-3.069 1.664-4.932 1.664-0.094 0-0.188-0.002-0.281-0.005zM5.36 27.12l0.52 0.32-1.1 0.88c0.024 0.236 0.11 0.448 0.242 0.623 0.895 0.656 2.019 1.052 3.237 1.057 0.274 0.042 0.589 0.066 0.909 0.066 1.52 0 2.914-0.538 4.002-1.434l0.289-0.271h0.62c0.185 0.013 0.402 0.021 0.62 0.021s0.435-0.008 0.649-0.023l0.411 0.002 0.32 0.3c1.071 0.891 2.461 1.432 3.977 1.432 0.333 0 0.66-0.026 0.978-0.076-0.019 0.005-0 0.005 0.019 0.005 1.205 0 2.318-0.39 3.221-1.051 0.105-0.131 0.179-0.316 0.179-0.519 0-0.053-0.005-0.105-0.015-0.156l-1.099-0.875 0.52-0.28c-0.288-0.219-0.63-0.385-1.001-0.476l-1.599-0.404 1.080-1.22c0.85-0.951 1.493-2.105 1.846-3.38l0.714-2.7 1.16 2.46c0.253 0.557 0.554 1.038 0.909 1.472 0.871-3.112-1.349-6.252-2.389-7.512l-0.38-0.44 0.2-0.54c0.089-0.26 0.141-0.561 0.141-0.873 0-0.72-0.274-1.376-0.723-1.87l-0.278-0.298v-0.4c-0.009-4.861-3.879-8.815-8.707-8.96-0.039-0.001-0.069-0.001-0.098-0.001-4.805 0-8.7 3.895-8.7 8.7 0 0.106 0.002 0.211 0.006 0.316l-0 0.585-0.5 0.4c-0.162 0.090-0.27 0.261-0.27 0.456 0 0.037 0.004 0.073 0.011 0.107l0.119 0.777-0.48 0.22c-0.011 0.078-0.017 0.168-0.017 0.26s0.006 0.182 0.018 0.27c0.015 0.196 0.065 0.386 0.143 0.561l0.236 0.569-0.42 0.46c-1.704 1.589-2.765 3.847-2.765 6.353 0 0.312 0.017 0.621 0.049 0.925 0.351-0.423 0.663-0.856 0.92-1.324l1.177-2.034 0.68 2.26c0.381 1.264 1.007 2.355 1.827 3.268l1.033 1.152-1.5 0.46c-0.356 0.066-0.672 0.199-0.949 0.386zM4.74 13.6v0z"></path>
</svg>
