<!-- Generated by IcoMoon.io -->
<svg version="1.1" xmlns="http://www.w3.org/2000/svg" width="32" height="32" viewBox="0 0 32 32">
<title>qrcode</title>
<path d="M0 15.044h15.062v-15.044h-15.062v15.044zM3.77 3.77h7.522v7.522h-7.522v-7.522zM5.646 5.646v3.77h3.77v-3.77h-3.77zM16.938 0v15.044h15.044v-15.044h-15.044zM20.69 11.292v-7.522h7.522v7.522h-7.522zM22.584 5.646v3.77h3.77v-3.77h-3.77zM0 31.982h15.062v-15.044h-15.062v15.044zM20.708 20.69h3.752v7.522h-3.77v-7.504h-3.752v-3.77h3.77v3.752zM3.77 20.69h7.522v7.522h-7.522v-7.522zM5.646 22.584v3.77h3.77v-3.77h-3.77zM16.938 28.23h3.77v3.77h-3.77v-3.77zM28.23 28.23v-3.77h3.752v7.522h-7.522v-3.752h3.77zM28.23 16.938h3.77v3.77h-3.77v-3.77z"></path>
</svg>
