<!-- Generated by IcoMoon.io -->
<svg version="1.1" xmlns="http://www.w3.org/2000/svg" width="32" height="32" viewBox="0 0 32 32">
<title>quanbu</title>
<path d="M28 4h-3v2h2v3.5h-22v-3.5h2v-2h-3c-0.553 0-1 0.447-1 1v23c0 0.553 0.447 1 1 1h24c0.553 0 1-0.447 1-1v-23c0-0.553-0.447-1-1-1zM5 27v-15.5h22v15.5h-22z"></path>
<path d="M13 4h6v2h-6v-2z"></path>
<path d="M9 3h2v4h-2v-4z"></path>
<path d="M21 3h2v4h-2v-4z"></path>
<path stroke-linejoin="miter" stroke-linecap="butt" stroke-miterlimit="10" stroke-width="0.375" stroke="#000" fill="#000" d="M8.094 23.734l2-8.969h1.072l2.003 8.966h-1.284l-0.378-1.928h-1.75l-0.378 1.928h-1.284zM11.266 20.597l-0.628-3.25h-0.025l-0.628 3.25h1.281z"></path>
<path stroke-linejoin="miter" stroke-linecap="butt" stroke-miterlimit="10" stroke-width="0.375" stroke="#000" fill="#000" d="M14.609 23.734v-8.969h1.284v7.681h2.544v1.284h-3.828z"></path>
<path stroke-linejoin="miter" stroke-linecap="butt" stroke-miterlimit="10" stroke-width="0.375" stroke="#000" fill="#000" d="M19.878 23.734v-8.969h1.284v7.681h2.544v1.284h-3.828z"></path>
</svg>
