<!-- Generated by IcoMoon.io -->
<svg version="1.1" xmlns="http://www.w3.org/2000/svg" width="32" height="32" viewBox="0 0 32 32">
<title>question-circle</title>
<path d="M22.16 12.060c0 1.8-0.78 3.5-2.14 4.66-0.28 0.24-0.6 0.4-0.92 0.58-1.040 0.56-2.1 1.14-2.1 3.7 0 0.56-0.44 1-1 1s-1-0.44-1-1c0-3.76 1.96-4.82 3.14-5.44 0.24-0.14 0.46-0.26 0.58-0.34 0.92-0.8 1.44-1.94 1.44-3.16 0-2.3-1.86-4.16-4.16-4.16-2.28 0-4.14 1.84-4.16 4.12 0 0.56-0.52 0.96-1 1-0.56 0-1-0.46-1-1 0.040-3.38 2.8-6.12 6.16-6.12 3.4 0 6.16 2.76 6.16 6.16zM16 24c-0.56 0-1 0.44-1 1s0.44 1 1 1c0.56 0 1-0.44 1-1s-0.44-1-1-1zM32 16c0 8.82-7.18 16-16 16s-16-7.18-16-16 7.18-16 16-16 16 7.18 16 16zM30 16c0-7.72-6.28-14-14-14s-14 6.28-14 14c0 7.72 6.28 14 14 14s14-6.28 14-14z"></path>
</svg>
