<!-- Generated by IcoMoon.io -->
<svg version="1.1" xmlns="http://www.w3.org/2000/svg" width="32" height="32" viewBox="0 0 32 32">
<title>question</title>
<path d="M26 10c0 2.92-1.26 5.68-3.48 7.58-0.38 0.32-0.84 0.6-1.34 0.9-1.86 1.1-4.18 2.48-4.18 7.52 0 0.56-0.44 1-1 1s-1-0.44-1-1c0-6.18 3.24-8.1 5.16-9.24 0.42-0.24 0.78-0.46 1.060-0.7 1.76-1.52 2.78-3.72 2.78-6.060 0-4.42-3.58-8-8-8-4.38 0-7.96 3.56-8 7.92 0 0.54-0.46 1-1 1 0 0 0 0 0 0-0.56 0-1-0.46-1-1.020 0.040-5.46 4.54-9.9 10-9.9 5.52 0 10 4.48 10 10zM16 30c-0.56 0-1 0.44-1 1s0.44 1 1 1 1-0.44 1-1c0-0.56-0.44-1-1-1z"></path>
</svg>
