<!-- Generated by IcoMoon.io -->
<svg version="1.1" xmlns="http://www.w3.org/2000/svg" width="32" height="32" viewBox="0 0 32 32">
<title>question-circle-shape</title>
<path d="M16 0c-8.837 0-16 7.163-16 16s7.163 16 16 16c8.837 0 16-7.163 16-16s-7.163-16-16-16zM16 26c-0.552 0-1-0.448-1-1s0.448-1 1-1c0.552 0 1 0.448 1 1s-0.448 1-1 1zM20 16.72c-0.268 0.214-0.569 0.407-0.891 0.567-1.244 0.55-2.076 1.744-2.076 3.132 0 0.198 0.017 0.392 0.049 0.581-0.003 0.532-0.451 0.98-1.003 0.98s-1-0.448-1-1c-0.021-0.177-0.033-0.381-0.033-0.589 0-2.13 1.252-3.968 3.060-4.818 0.256-0.121 0.446-0.234 0.625-0.362 0.872-0.759 1.427-1.884 1.427-3.139 0-2.297-1.863-4.16-4.16-4.16-2.272 0-4.118 1.821-4.159 4.083-0.040 0.539-0.464 0.964-0.996 1.004-0.556 0-1.004-0.447-1.004-1 0.020-3.387 2.77-6.125 6.16-6.125 3.402 0 6.16 2.758 6.16 6.16 0 1.871-0.834 3.548-2.152 4.678z"></path>
</svg>
