<?xml version="1.0" encoding="UTF-8"?>
<svg width="64px" height="64px" viewBox="0 0 64 64" version="1.1" xmlns="http://www.w3.org/2000/svg" xmlns:xlink="http://www.w3.org/1999/xlink">
    <title>星级</title>
    <g id="蓝盾服务扩展商店" stroke="none" stroke-width="1" fill="none" fill-rule="evenodd">
        <g id="蓝盾服务扩展商店设计稿-第四批界面" transform="translate(-640.000000, -2175.000000)">
            <g id="编组" transform="translate(65.000000, 1942.000000)">
                <g id="星级" transform="translate(575.000000, 233.000000)">
                    <g id="0228-gcloud-icon-06" transform="translate(13.000000, 13.000000)">
                        <path d="M18.5,-1.91846539e-13 C19.260756,-1.91846539e-13 19.951012,0.44144415 20.2752295,1.12453761 L24.9176796,10.7370179 L35.2966725,12.2711342 C36.0483175,12.3755232 36.6712338,12.9052438 36.9038606,13.6300334 C37.1347323,14.3493551 36.9426074,15.1399951 36.4079007,15.6671576 L30.6890472,21.3437329 L30.628984,21.405 L28.712984,20.512 L29.2644333,19.940173 L34.9979767,14.2486751 L24.6187989,12.7145533 C23.9668699,12.6220279 23.405616,12.2075965 23.1201589,11.6139306 L18.5000126,2.04758303 L13.880588,11.6123807 C13.594384,12.2075965 13.0331301,12.6220279 12.3869012,12.7137276 L2.00199594,14.2486406 L9.53303482,21.7345482 C9.99132838,22.1886784 10.2013192,22.8388519 10.0971909,23.4833449 L8.3317223,33.9761802 L17.5657892,29.0536069 C18.1490651,28.7367089 18.8509349,28.7367089 19.427236,29.0498531 L28.666478,33.9752564 L27.3404416,26.0435046 L27.216984,25.331 L29.419984,26.358 L30.6617939,33.791249 C30.7402635,34.5143103 30.422192,35.2249859 29.8288778,35.6424903 C29.228429,36.065015 28.4453124,36.1170942 27.7878905,35.7732922 L18.5000332,30.8219729 L9.20506171,35.7770133 C8.55468758,36.1170942 7.77157097,36.065015 7.17112223,35.6424903 C6.57780796,35.2249859 6.25973654,34.5143103 6.34620355,33.7333749 L8.12382231,23.1581129 C8.12425746,23.155419 8.12366795,23.1535938 8.1241835,23.1541029 L0.594528679,15.669561 C0.05739264,15.1399951 -0.134732344,14.3493551 0.0961394369,13.6300334 C0.328766188,12.9052438 0.95168251,12.3755232 1.69467047,12.2723751 L12.08231,10.7370361 L16.7218572,1.13062219 C17.048988,0.44144415 17.739244,-1.91846539e-13 18.5,-1.91846539e-13 Z" id="Combined-Shape" fill="#383D49" fill-rule="nonzero"></path>
                        <path d="M11,17 L15.0229885,16.3383459 C15.4591229,16.2648884 15.8351658,15.9556527 16.0287356,15.5112782 L18,11" id="路径" stroke="#3A84FF" stroke-width="2" stroke-linejoin="round"></path>
                    </g>
                    <rect id="Rectangle-Copy-3" stroke="#EDEEF2" stroke-width="2" x="1" y="1" width="62" height="62" rx="31"></rect>
                </g>
            </g>
        </g>
    </g>
</svg>