<svg xmlns="http://www.w3.org/2000/svg" viewBox="0 0 64 64"><defs><style>.cls-1{fill:#009af8;}.cls-2{fill:#017fc4;}.cls-3{fill:#4dc266;}.cls-4{fill:#f3ce48;}.cls-5{fill:#f4656b;}</style></defs><title>研发商店-彩色logo</title><g id="图层_78" data-name="图层 78"><path class="cls-1" d="M50.53,22.94a9.13,9.13,0,0,0-1.82.18,16.19,16.19,0,0,0-30.56-4.85A12,12,0,0,0,15.66,18a11.79,11.79,0,0,0-1.4,23.49l36.47.12h0a9.33,9.33,0,0,0-.2-18.66Z"/><circle class="cls-2" cx="17.28" cy="32" r="3.5"/><circle class="cls-2" cx="32.1" cy="32" r="3.5"/><circle class="cls-2" cx="46.37" cy="32" r="3.5"/><path class="cls-2" d="M17.28,36.67a4.61,4.61,0,0,1-1.93-.42V48.89H12.88a5.39,5.39,0,0,1,.37,1.93,5.33,5.33,0,0,1-.37,1.92H19.2V36.25A4.6,4.6,0,0,1,17.28,36.67Z"/><path class="cls-2" d="M32.1,36.67a4.53,4.53,0,0,1-1.92-.42V46.37a5.17,5.17,0,0,1,3.84,0V36.25A4.6,4.6,0,0,1,32.1,36.67Z"/><path class="cls-2" d="M48.29,48.89V36.25a4.53,4.53,0,0,1-1.92.42,4.6,4.6,0,0,1-1.92-.42V52.74h6.66a5.13,5.13,0,0,1-.38-1.92,5.19,5.19,0,0,1,.38-1.93Z"/><circle class="cls-3" cx="55.71" cy="50.82" r="4.12"/><circle class="cls-4" cx="32.1" cy="50.82" r="4.12"/><circle class="cls-5" cx="8.49" cy="50.82" r="4.12"/></g></svg>