<svg xmlns="http://www.w3.org/2000/svg" xmlns:xlink="http://www.w3.org/1999/xlink" viewBox="0 0 64 64"><defs><style>.cls-1{fill:none;}.cls-2{clip-path:url(#clip-path);}.cls-3{fill:#f8f8f8;}.cls-4{fill:#fa7133;}.cls-5{fill:#eee;}.cls-6{fill:#e4e4e4;}.cls-7{fill:#fff;}.cls-8{fill:#017fc4;}.cls-9{fill:#009af8;}.cls-10{fill:#9a6ce8;}.cls-11{fill:#4dc266;}</style><clipPath id="clip-path"><rect class="cls-1" x="6.04" y="6.05" width="52" height="52" rx="8.32" ry="8.32"/></clipPath></defs><title>研发商店-彩色logo</title><g id="图层_78" data-name="图层 78"><g class="cls-2"><rect class="cls-3" x="6.04" y="6.05" width="52" height="52" rx="8.32" ry="8.32"/><path class="cls-4" d="M48,21a3.82,3.82,0,1,0,3.82,3.82A3.83,3.83,0,0,0,48,21Zm0,6.15a2.27,2.27,0,0,1-2.34-2.33A2.33,2.33,0,0,1,48,22.43a2.27,2.27,0,0,1,2.33,2.34A2.32,2.32,0,0,1,48,27.1Z"/><path class="cls-5" d="M5.52,49.73H59.08a5.2,5.2,0,0,1,5.2,5.2v1.56a6.76,6.76,0,0,1-6.76,6.76h-52a6.76,6.76,0,0,1-6.76-6.76v0a6.76,6.76,0,0,1,6.76-6.76Z"/><path class="cls-6" d="M41.22,49.31H35.68V45H30.62v4.34H24.77v1.13H41.22Z"/><rect class="cls-7" x="16.71" y="24.77" width="32.57" height="20.05" rx="1.49" ry="1.49"/><path class="cls-8" d="M18.2,24.77H47.79a1.49,1.49,0,0,1,1.49,1.49V41.4a0,0,0,0,1,0,0H16.71a0,0,0,0,1,0,0V26.26A1.49,1.49,0,0,1,18.2,24.77Z"/><rect class="cls-9" x="18.29" y="26.17" width="29.41" height="13.82"/><rect class="cls-8" x="25.8" y="29.97" width="14.56" height="1.04"/><rect class="cls-8" x="25.8" y="33.09" width="11.44" height="1.04"/><rect class="cls-8" x="25.8" y="36.21" width="8.32" height="1.04"/><path class="cls-10" d="M15.9,35l-4.81-3a.59.59,0,0,1-.19-.83l3-4.81a.59.59,0,0,1,.83-.19l4.81,3a.61.61,0,0,1,.19.84l-3,4.81A.6.6,0,0,1,15.9,35Zm-3.21-3.84,3.24,2.05L18,29.93l-3.24-2.05Z"/><path class="cls-11" d="M23.7,20.05l2-7.32a.6.6,0,0,1,1-.26L32,17.82a.6.6,0,0,1-.26,1l-7.32,2A.6.6,0,0,1,23.7,20.05Zm3-5.42-1.16,4.31,4.31-1.16Z"/></g></g></svg>