<svg xmlns="http://www.w3.org/2000/svg" viewBox="0 0 64 64"><defs><style>.cls-1{fill:#017fc4;}.cls-2{fill:#009af8;}.cls-3{fill:#fff;}.cls-4{fill:#f4656b;}.cls-4,.cls-5,.cls-6{fill-rule:evenodd;}.cls-5{fill:#f3ce48;}.cls-6{fill:#4dc266;}</style></defs><title>研发商店-彩色logo</title><g id="图层_78" data-name="图层 78"><path class="cls-1" d="M55,54.12a28.27,28.27,0,1,0-46,0Z"/><path class="cls-2" d="M48.61,49.37a20.45,20.45,0,1,0-33.32,0Z"/><circle class="cls-1" cx="32.66" cy="45.09" r="4.28"/><circle class="cls-3" cx="32.66" cy="45.09" r="3.33"/><path class="cls-4" d="M55.49,36.22l1.83-.12-.06-.78c0-.26-.07-.52-.1-.78,0-.52-.15-1-.24-1.55l-1.8.35c.08.47.17.95.22,1.43,0,.24.07.49.09.73Z"/><path class="cls-4" d="M55.27,41.43l1.82.28a27.19,27.19,0,0,0,.28-3.12l-1.83-.06A23.51,23.51,0,0,1,55.27,41.43Z"/><path class="cls-4" d="M53.92,46.45l1.71.67a23.66,23.66,0,0,0,1-3l-1.78-.45A20.77,20.77,0,0,1,53.92,46.45Z"/><path class="cls-5" d="M49.48,22l1.36-1.23a27.26,27.26,0,0,0-2.24-2.19L47.4,20A24.91,24.91,0,0,1,49.48,22Z"/><path class="cls-4" d="M52.52,26.28l1.6-.9a25.23,25.23,0,0,0-1.7-2.64l-1.48,1.09A24.33,24.33,0,0,1,52.52,26.28Z"/><path class="cls-4" d="M54.56,31.06l1.75-.53c-.14-.5-.32-1-.49-1.49s-.37-1-.59-1.45l-1.68.74c.21.44.36.9.55,1.35S54.42,30.59,54.56,31.06Z"/><path class="cls-6" d="M36,14.59l.31-1.81a27.13,27.13,0,0,0-3.11-.34l-.09,1.83A25.29,25.29,0,0,1,36,14.59Z"/><path class="cls-6" d="M41,16l.7-1.69c-.49-.19-1-.4-1.47-.56l-.74-.25-.76-.21-.48,1.77.7.2.69.23C40.11,15.67,40.55,15.87,41,16Z"/><path class="cls-5" d="M45.55,18.56l1.06-1.5A26.13,26.13,0,0,0,44,15.41L43.08,17A24.24,24.24,0,0,1,45.55,18.56Z"/><path class="cls-6" d="M20.79,17l-.87-1.62a28.13,28.13,0,0,0-2.66,1.66l1.06,1.5A24.24,24.24,0,0,1,20.79,17Z"/><path class="cls-6" d="M25.63,15.1l-.49-1.77-.75.22-.75.25c-.5.16-1,.37-1.47.55l.71,1.7c.45-.18.9-.37,1.36-.52l.69-.23Z"/><path class="cls-6" d="M30.76,14.27l-.09-1.83a25.24,25.24,0,0,0-3.12.35l.32,1.81A23.24,23.24,0,0,1,30.76,14.27Z"/><path class="cls-6" d="M10.34,28.35l-1.68-.73c-.22.47-.39,1-.59,1.45s-.35,1-.49,1.49l1.75.53c.13-.47.31-.93.46-1.39S10.13,28.79,10.34,28.35Z"/><path class="cls-6" d="M13,23.84l-1.48-1.09a27,27,0,0,0-1.7,2.64l1.6.9A24.33,24.33,0,0,1,13,23.84Z"/><path class="cls-6" d="M16.48,20l-1.21-1.39A27.34,27.34,0,0,0,13,20.84l1.37,1.22A23.47,23.47,0,0,1,16.48,20Z"/><path class="cls-6" d="M9.09,43.71l-1.78.45a25.44,25.44,0,0,0,1,3L10,46.48A22.94,22.94,0,0,1,9.09,43.71Z"/><path class="cls-6" d="M8.36,38.55l-1.83.05a27.19,27.19,0,0,0,.28,3.12l1.82-.28A23.17,23.17,0,0,1,8.36,38.55Z"/><path class="cls-6" d="M8.78,33.37,7,33c-.1.51-.19,1-.25,1.55s-.12,1-.15,1.56l1.83.12c0-.48.07-1,.14-1.45S8.69,33.84,8.78,33.37Z"/><polygon class="cls-4" points="54.05 50.17 52.45 49.26 52.55 49.1 52.6 49.02 52.64 48.94 52.82 48.6 52.99 48.27 53.16 47.94 54.8 48.74 54.63 49.11 54.44 49.46 54.25 49.82 54.2 49.91 54.15 50 54.05 50.17"/><polygon class="cls-6" points="8.95 48.74 10.61 47.93 10.77 48.27 10.95 48.6 11.12 48.94 11.17 49.02 11.21 49.1 11.31 49.27 9.71 50.18 9.6 50 9.55 49.91 9.51 49.82 9.32 49.46 9.13 49.1 8.95 48.74"/><polygon class="cls-3" points="32.66 20.37 30.29 45.57 32.66 45.57 35.04 45.57 32.66 20.37"/><circle class="cls-2" cx="32.66" cy="45.09" r="1.71"/></g></svg>