<svg xmlns="http://www.w3.org/2000/svg" viewBox="0 0 64 64"><defs><style>.cls-1{fill:#009af8;}.cls-2{fill:#f1f2f3;}.cls-3{fill:#f4656b;}.cls-4{fill:#f3ce48;}</style></defs><title>研发商店-彩色logo</title><g id="图层_78" data-name="图层 78"><path class="cls-1" d="M51.83,51.83a28,28,0,0,1-34.2,4.22c-1.92-1.16-.68-5.1-2.34-6.76-1.47-1.47-5.8-.53-6.88-2.22a28,28,0,1,1,43.42,4.76Z"/><path class="cls-2" d="M50.56,23.46a1.09,1.09,0,0,0-.14-.38.49.49,0,0,0,0-.11h0l-.1-.12a1.12,1.12,0,0,0-1.57,0l-.1.12h0l-9.28,9.28a1.27,1.27,0,0,1-1.06.36l-5-.69h0a.72.72,0,0,1-.61-.61l-.69-5a1.25,1.25,0,0,1,.36-1.05l9.36-9.37h0l0,0a1.12,1.12,0,0,0,0-1.57A1.08,1.08,0,0,0,41,14a15.81,15.81,0,0,0-21,16.47h0c0,.22,0,.45.08.67a9.18,9.18,0,0,1-2.8,7.15l-8.8,8.8a28,28,0,0,0,9.21,9l8.84-8.84a9.21,9.21,0,0,1,6.9-2.65A15.82,15.82,0,0,0,50.56,23.46Z"/><path class="cls-2" d="M50.56,23.47a1.07,1.07,0,0,0-.14-.39.42.42,0,0,1,0-.1h0a.64.64,0,0,0-.1-.13,1.12,1.12,0,0,0-1.57,0,.64.64,0,0,0-.1.13h0l-9.28,9.27a1.27,1.27,0,0,1-1.06.36l-5-.69h0a.62.62,0,0,1-.39-.18L12.5,52.08a27.83,27.83,0,0,0,5.13,4l8.84-8.84a9.19,9.19,0,0,1,6.89-2.65,15.82,15.82,0,0,0,17.2-21.08Z"/><circle class="cls-3" cx="27.5" cy="37.05" r="3.37"/><path class="cls-4" d="M12.24,51.83c.51.51,1,1,1.58,1.45l9-9a1.78,1.78,0,0,0,0-2.51,1.76,1.76,0,0,0-2.51,0l-9,9C11.58,51.15,11.9,51.49,12.24,51.83Z"/></g></svg>