<svg xmlns="http://www.w3.org/2000/svg" viewBox="0 0 64 64"><defs><style>.cls-1{fill:#009af8;}.cls-2{fill:#017fc4;}.cls-3{fill:#f3ce48;}.cls-4{fill:#f4656b;}.cls-5{fill:#4dc266;}</style></defs><title>研发商店-彩色logo</title><g id="图层_78" data-name="图层 78"><path class="cls-1" d="M48.77,16.2a8.75,8.75,0,0,0-1.63.16A14.52,14.52,0,0,0,19.74,12a10.88,10.88,0,0,0-2.23-.24,10.57,10.57,0,0,0-1.26,21.06l32.7.11h0a8.37,8.37,0,0,0-.18-16.73Z"/><path class="cls-2" d="M46.54,39.69,33.26,26.41a1.8,1.8,0,0,0-2.54,0L17.44,39.69c-.7.7-.55,2.53,0,2.53h7.62V57.37a1.48,1.48,0,0,0,1.48,1.48h10.9a1.48,1.48,0,0,0,1.48-1.48V42.22h7.62C47.31,42.22,47.24,40.39,46.54,39.69Z"/><circle class="cls-3" cx="54.55" cy="37.3" r="2.06"/><circle class="cls-4" cx="11.22" cy="49.32" r="3.65"/><path class="cls-5" d="M49.34,55.85h-.9V55a1.05,1.05,0,1,0-2.1,0v.89h-.9a1.05,1.05,0,0,0,0,2.1h.9v.9a1,1,0,1,0,2.1,0V58h.9a1.05,1.05,0,0,0,0-2.1Z"/></g></svg>