<?xml version="1.0" encoding="UTF-8"?>
<svg width="15px" height="13px" viewBox="0 0 15 13" version="1.1" xmlns="http://www.w3.org/2000/svg" xmlns:xlink="http://www.w3.org/1999/xlink">
    <!-- Generator: Sketch 53 (72520) - https://sketchapp.com -->
    <title>已发的模型</title>
    <desc>Created with Sketch.</desc>
    <g id="二期" stroke="none" stroke-width="1" fill="none" fill-rule="evenodd">
        <g id="常规创建流程" transform="translate(-600.000000, -216.000000)" fill="#FFFFFF" fill-rule="nonzero">
            <g id="快捷创建规则" transform="translate(260.000000, 130.000000)">
                <g id="发布上线" transform="translate(320.000000, 54.000000)">
                    <g id="已发的模型" transform="translate(20.000000, 32.000000)">
                        <path d="M14.1981818,0.0436363636 L0.425454545,5.10818182 C0.23546101,5.17839376 0.100019488,5.34810534 0.0736992933,5.54893987 C0.0473790988,5.7497744 0.134515004,5.94865568 0.3,6.06545455 L4.06636364,8.71090909 L4.09090909,12.1636364 C4.09499865,12.3806871 4.2274099,12.57465 4.42806165,12.657515 C4.6287134,12.74038 4.85940251,12.6963701 5.01545455,12.5454545 L6.92454545,10.71 L9.41727273,12.4609091 C9.55309171,12.5562199 9.72490923,12.5845271 9.88412527,12.5378237 C10.0433413,12.4911204 10.1726424,12.3744851 10.2354545,12.2209091 L14.8909091,0.760909091 C14.9719571,0.561030591 14.9276135,0.332165057 14.7777785,0.177021004 C14.6279436,0.0218769513 14.4007601,-0.0304055798 14.1981818,0.0436363636 Z M11.6590909,2.14090909 L4.46181818,7.65545455 L1.77818182,5.77090909 L11.6590909,2.14090909 Z M5.18181818,10.8872727 L5.18181818,9.48272727 L6,10.0909091 L5.18181818,10.8872727 Z M5.40545455,8.31272727 L13.0418182,2.47090909 L9.48,11.1818182 L5.40545455,8.31272727 Z" id="形状"></path>
                    </g>
                </g>
            </g>
        </g>
    </g>
</svg>