<svg xmlns="http://www.w3.org/2000/svg" viewBox="0 0 64 64"><defs></defs><title>触发方式</title><g id="提醒"><rect class="cls-1" x="13.29" y="20.97" width="1.82" height="1.76"/><rect class="cls-1" x="13.29" y="17.44" width="1.82" height="1.76"/><rect class="cls-1" x="13.29" y="13.91" width="1.82" height="1.76"/><rect class="cls-1" x="16.94" y="13.91" width="1.82" height="1.76"/><rect class="cls-1" x="20.58" y="13.91" width="1.82" height="1.76"/><rect class="cls-1" x="52.48" y="39.47" width="1.82" height="1.76"/><rect class="cls-1" x="52.48" y="35.95" width="1.82" height="1.76"/><rect class="cls-1" x="52.48" y="32.42" width="1.82" height="1.76"/><rect class="cls-1" x="52.48" y="43" width="1.82" height="1.76"/><rect class="cls-1" x="52.48" y="46.52" width="1.82" height="1.76"/><rect class="cls-1" x="48.83" y="46.52" width="1.82" height="1.76"/><rect class="cls-1" x="45.19" y="46.52" width="1.82" height="1.76"/><rect class="cls-1" x="41.54" y="46.52" width="1.82" height="1.76"/><path class="cls-1" d="M33.79,22.85h9.59a.62.62,0,0,0,.6-.65V19.51h5.11a.62.62,0,0,0,.6-.64V13.69a.63.63,0,0,0-.6-.65h-9.6a.63.63,0,0,0-.6.65v2.69h-5.1a.63.63,0,0,0-.6.65V22.2A.63.63,0,0,0,33.79,22.85ZM41,15.13H47.6v2.3H44V17a.62.62,0,0,0-.6-.65H41Z"/><path class="cls-1" d="M55.21,6H27.87a2.69,2.69,0,0,0-2.73,2.65V25.37H8.73A2.69,2.69,0,0,0,6,28v18.5a2.69,2.69,0,0,0,2.73,2.65h10l-1.62,7H14.2V58H30.61V56.22H27.67l-1.62-7h10a2.69,2.69,0,0,0,2.73-2.65V38.59H49.75V36.83H46.81l-1.62-7h10A2.69,2.69,0,0,0,58,27.13V8.63A2.7,2.7,0,0,0,55.21,6ZM34.92,45.23H10.08V29.39H34.92ZM54,25.79H37.54a2.77,2.77,0,0,0-1.46-.42H29.14V10H54Z"/><path class="cls-1" d="M14.83,41.77h9.6a.63.63,0,0,0,.6-.65V38.43h5.1a.63.63,0,0,0,.6-.65V32.61a.63.63,0,0,0-.6-.65h-9.6a.63.63,0,0,0-.6.65v2.68h-5.1a.63.63,0,0,0-.6.65v5.18A.63.63,0,0,0,14.83,41.77ZM22,34h6.62v2.3H25v-.4a.63.63,0,0,0-.6-.65H22Z"/></g></svg>