<svg xmlns="http://www.w3.org/2000/svg" viewBox="0 0 64 64"><defs><style>.cls-1{fill:#009af8;}.cls-2{fill:#fff;}.cls-3{fill:#dcdcdc;}.cls-4{fill:#017fc4;}.cls-5{fill:#f4656b;}.cls-6{fill:#f3ce48;}</style></defs><title>研发商店-彩色logo</title><g id="图层_78" data-name="图层 78"><rect class="cls-1" x="9.81" y="9.97" width="44.09" height="50.04" rx="2.98" ry="2.98"/><polygon class="cls-2" points="44.06 54.65 13.68 54.65 13.68 12.95 50.02 12.95 50.02 49.28 44.06 54.65"/><rect class="cls-3" x="18.86" y="36.77" width="25.98" height="2.38"/><rect class="cls-3" x="18.86" y="40.94" width="17.32" height="2.38"/><rect class="cls-3" x="18.86" y="45.11" width="22.73" height="2.38"/><path class="cls-4" d="M35.26,9.37a3.88,3.88,0,1,0-7.15,0h-4.9v4.77H40.49V9.37Zm-3.58.11a1.6,1.6,0,1,1,1.6-1.6A1.6,1.6,0,0,1,31.68,9.48Z"/><path class="cls-5" d="M30.66,20.09a6.56,6.56,0,1,0,6.55,6.56H30.66Z"/><path class="cls-6" d="M39.59,25.46a7.74,7.74,0,0,0-7.74-7.75v7.75Z"/><polygon class="cls-3" points="44.06 49.28 44.06 54.65 50.02 49.28 44.06 49.28"/></g></svg>