<!-- Generated by IcoMoon.io -->
<svg version="1.1" xmlns="http://www.w3.org/2000/svg" width="32" height="32" viewBox="0 0 32 32">
<title>retry</title>
<path d="M13.503 10.819v10.366c0 0.425 0.494 0.656 0.819 0.384l6.219-5.181c0.238-0.203 0.238-0.572 0-0.772l-6.219-5.181c-0.325-0.272-0.819-0.041-0.819 0.384z"></path>
<path d="M26.428 8.238l-1.656 1.125c0.55 0.725 1.006 1.512 1.366 2.356 0.572 1.356 0.863 2.794 0.863 4.281s-0.291 2.925-0.863 4.281c-0.553 1.309-1.347 2.488-2.359 3.497s-2.188 1.803-3.497 2.359c-1.356 0.572-2.794 0.863-4.281 0.863s-2.925-0.291-4.281-0.863c-1.309-0.553-2.488-1.347-3.497-2.359-0.403-0.403-0.772-0.834-1.106-1.288v0c-0.169-0.228-0.325-0.466-0.475-0.703-0.006-0.009-0.013-0.022-0.019-0.031-0.028-0.044-0.053-0.087-0.081-0.134-0.019-0.031-0.037-0.063-0.056-0.094s-0.037-0.063-0.056-0.094c-0.034-0.059-0.066-0.119-0.1-0.178-0.003-0.006-0.006-0.012-0.013-0.022-0.169-0.309-0.319-0.628-0.459-0.953-0.178-0.422-0.331-0.853-0.453-1.291 0-0.006-0.003-0.009-0.003-0.016-0.019-0.072-0.037-0.141-0.056-0.212-0.009-0.038-0.019-0.075-0.028-0.113s-0.019-0.072-0.025-0.109c-0.013-0.050-0.025-0.1-0.034-0.15-0.003-0.012-0.006-0.028-0.009-0.041-0.166-0.762-0.25-1.55-0.25-2.347 0-1.094 0.159-2.162 0.466-3.181 0.003-0.009 0.006-0.022 0.009-0.031 0.016-0.056 0.034-0.109 0.053-0.166 0.013-0.037 0.025-0.075 0.037-0.113 0.009-0.031 0.022-0.063 0.031-0.094 0.022-0.059 0.041-0.119 0.063-0.181 0.003-0.012 0.009-0.022 0.013-0.034 0.059-0.162 0.125-0.325 0.191-0.488 0.138-0.328 0.291-0.647 0.459-0.956 0-0.003 0.003-0.006 0.003-0.006 0.041-0.072 0.078-0.144 0.119-0.216 0.009-0.016 0.019-0.034 0.028-0.050 0.031-0.056 0.066-0.113 0.1-0.169 0.019-0.031 0.041-0.066 0.059-0.097 0.025-0.041 0.050-0.081 0.075-0.119 0.031-0.047 0.063-0.097 0.094-0.144 0.016-0.025 0.031-0.047 0.047-0.072 0.041-0.063 0.084-0.125 0.128-0.184 0.006-0.009 0.013-0.019 0.019-0.028 0.297-0.422 0.625-0.825 0.984-1.206 0.016-0.019 0.034-0.037 0.050-0.053 0.003-0.003 0.006-0.006 0.009-0.009 0.059-0.063 0.119-0.122 0.178-0.181 1.012-1.009 2.188-1.803 3.497-2.359 1.356-0.572 2.794-0.862 4.281-0.862s2.925 0.291 4.281 0.862c0.072 0.031 0.144 0.063 0.219 0.094l-1.738 0.453 0.503 1.934 5.044-1.309-1.3-5.044-1.938 0.5 0.447 1.725c-0.731-0.341-1.488-0.612-2.266-0.813 0 0 0 0 0 0-0.066-0.016-0.134-0.034-0.2-0.050-0.003 0-0.006 0-0.009-0.003-0.066-0.016-0.134-0.031-0.2-0.047-0.022-0.006-0.047-0.009-0.069-0.016-0.038-0.009-0.075-0.016-0.116-0.025s-0.084-0.016-0.128-0.025c-0.016-0.003-0.034-0.006-0.050-0.009-0.050-0.009-0.103-0.019-0.153-0.028-0.003 0-0.006 0-0.009-0.003-0.75-0.134-1.522-0.206-2.313-0.206-7.175 0.006-12.997 5.828-12.997 13.006 0 0.862 0.084 1.706 0.244 2.522 0.006 0.025 0.009 0.050 0.016 0.075 0.013 0.056 0.022 0.113 0.034 0.169 0.009 0.047 0.019 0.091 0.031 0.134 0.006 0.022 0.009 0.041 0.016 0.063 0.212 0.919 0.528 1.813 0.937 2.663 0.003 0.003 0.003 0.006 0.006 0.009 0.019 0.038 0.037 0.075 0.056 0.113s0.037 0.075 0.056 0.113c0.016 0.031 0.031 0.063 0.047 0.094 0.028 0.056 0.059 0.113 0.088 0.166 0.006 0.012 0.013 0.025 0.019 0.034 2.194 4.078 6.5 6.847 11.45 6.847 7.178 0 13-5.822 13-13 0-2.909-0.956-5.597-2.572-7.762z"></path>
</svg>
