<?xml version="1.0" encoding="UTF-8"?>
<svg width="28px" height="28px" viewBox="0 0 28 28" version="1.1" xmlns="http://www.w3.org/2000/svg" xmlns:xlink="http://www.w3.org/1999/xlink">
    <title>已通过审核</title>
    <g id="流水线" stroke="none" stroke-width="1" fill="none" fill-rule="evenodd">
        <g id="蓝盾流水线--Stage审核功能设计调整" transform="translate(-1745.000000, -2197.000000)">
            <g id="已通过审核" transform="translate(1745.000000, 2197.000000)">
                <g id="编组-5">
                    <g id="编组-2" fill="#FFFFFF" stroke="#34DA7B">
                        <rect id="矩形" x="0.5" y="0.5" width="27" height="27" rx="13.5"></rect>
                    </g>
                    <g id="Group-7" transform="translate(7.000000, 6.000000)" fill="#34DA7B" fill-rule="nonzero">
                        <path d="M8.22588129,16.0007734 L1,16 L1,15 L7.38989569,15.0006599 C7.62850811,15.3665071 7.90949093,15.7021993 8.22588129,16.0007734 Z M7,0 C9.209139,0 11,1.790861 11,4 C11,5.23159032 10.4433934,6.33317821 9.56801119,7.06693277 C7.75009271,7.96340366 6.5,9.83571443 6.5,12 C6.5,12.7059159 6.63299002,13.3807704 6.87528236,14.0008756 L0,14 L0,10 L5,10 L4.99987956,7.46480154 C3.85840112,6.80443887 3.07353887,5.5961843 3.00489531,4.19964034 L3,4 C3,1.790861 4.790861,0 7,0 Z" id="Combined-Shape"></path>
                    </g>
                    <path d="M22.8878471,15 L21.5369471,15 C21.3538643,15 21.1797561,15.0924601 21.0720604,15.2509631 L18.7235,18.284397 L17.8522936,17.063053 C17.7445978,16.9064369 17.5722846,16.8120898 17.3874068,16.8120898 L16.1438217,16.8120898 C16.0271513,16.8120898 15.958944,16.9517234 16.0271513,17.0517313 L18.2636336,20.312365 C18.4915897,20.6463535 18.9636562,20.6463535 19.1916122,20.312365 L23.0027226,15.2396415 C23.0727249,15.1396336 23.0045176,15 22.8878471,15 Z" id="Path" fill="#34DA7B"></path>
                </g>
            </g>
        </g>
    </g>
</svg>