<?xml version="1.0" encoding="UTF-8"?>
<svg width="28px" height="28px" viewBox="0 0 28 28" version="1.1" xmlns="http://www.w3.org/2000/svg" xmlns:xlink="http://www.w3.org/1999/xlink">
    <title>未通过审核</title>
    <g id="流水线" stroke="none" stroke-width="1" fill="none" fill-rule="evenodd">
        <g id="蓝盾流水线--Stage审核功能设计调整" transform="translate(-1747.000000, -2071.000000)">
            <g id="未通过审核" transform="translate(1747.000000, 2071.000000)">
                <g id="编组-2" fill="#FFFFFF" stroke="#FF5656">
                    <rect id="矩形" x="0.5" y="0.5" width="27" height="27" rx="13.5"></rect>
                </g>
                <path d="M14.3898957,21.0006599 C14.6285081,21.3665071 14.9094909,21.7021993 15.2258813,22.0007734 L8,22 L8,21 L14.3898957,21.0006599 Z M21.1591677,16.0014863 C21.2226048,16.0014863 21.2745079,16.0535077 21.2745079,16.1203924 C21.2745079,16.1486326 21.2644157,16.1753864 21.2471146,16.1976813 L19.373,18.4984863 L19.3742772,18.5 L21.2471146,20.8023187 C21.2644157,20.8246136 21.2745079,20.8513674 21.2745079,20.8796076 C21.2745079,20.9331153 21.2412899,20.9771106 21.1955229,20.9925684 L21.1591677,20.9985137 L19.9316609,20.9940547 L18.637,19.4024863 L17.342847,20.9940547 L16.1153403,20.9985137 C16.0519031,20.9985137 16,20.9464923 16,20.8796076 C16,20.8513674 16.0100923,20.8246136 16.0273933,20.8023187 L17.9002307,18.5 L17.901,18.4984863 L16.0273933,16.1976813 C16.0187428,16.1865339 16.0118945,16.1742717 16.0072088,16.1612663 L16,16.1203924 C16,16.0668847 16.033218,16.0228894 16.078985,16.0074316 L16.1153403,16.0014863 L17.3442888,16.0059453 L18.637,17.5954863 L19.9302191,16.0059453 L21.1591677,16.0014863 Z M14,6 C16.209139,6 18,7.790861 18,10 C18,11.2315903 17.4433934,12.3331782 16.5680112,13.0669328 C14.7500927,13.9634037 13.5,15.8357144 13.5,18 C13.5,18.7059159 13.63299,19.3807704 13.8752824,20.0008756 L7,20 L7,16 L12,16 L11.9998796,13.4648015 C10.8584011,12.8044389 10.0735389,11.5961843 10.0048953,10.1996403 L10,10 C10,7.790861 11.790861,6 14,6 Z" id="形状结合" fill="#FF5656" fill-rule="nonzero"></path>
            </g>
        </g>
    </g>
</svg>