<!-- Generated by IcoMoon.io -->
<svg version="1.1" xmlns="http://www.w3.org/2000/svg" width="32" height="32" viewBox="0 0 32 32">
<title>risk</title>
<path d="M25 16c0-2.403-0.938-4.666-2.637-6.363s-3.959-2.638-6.363-2.638v0c-2.403 0-4.666 0.938-6.363 2.638s-2.638 3.959-2.638 6.363v11h-3v2h24v-2h-3v-11zM9 27v-11c0-1.869 0.728-3.628 2.050-4.95s3.081-2.050 4.95-2.050c1.869 0 3.628 0.728 4.95 2.050s2.050 3.081 2.050 4.95v11h-14z"></path>
<path d="M18.113 13.931l-1.413-1.412-3.494 3.494 2.809 2.809-2.166 2.409 1.488 1.337 3.434-3.819-2.738-2.738z"></path>
<path d="M15 2h2v4h-2z"></path>
<path d="M26 15h4v2h-4z"></path>
<path d="M2 15h4v2h-4z"></path>
<path d="M22.323 8.23l2.828-2.828 1.414 1.414-2.828 2.828z"></path>
<path d="M5.429 6.822l1.414-1.414 2.828 2.828-1.414 1.414z"></path>
</svg>
