<!-- Generated by IcoMoon.io -->
<svg version="1.1" xmlns="http://www.w3.org/2000/svg" width="32" height="32" viewBox="0 0 32 32">
<title>rtx-shape</title>
<path d="M14.82 5.38v0c1.72-0.72 1.1-1.62 0.46-2.16-1.443-1.007-3.168-1.714-5.034-1.992l-0.066-0.008c-5.972 2.378-10.126 8.087-10.18 14.773l-0 0.007c-0.013 0.236-0.020 0.512-0.020 0.79s0.007 0.554 0.021 0.828l-0.002-0.038c3.090-5.84 8.293-10.216 14.565-12.154l0.175-0.046zM32 16c-0.004-2.463-0.564-4.794-1.562-6.876l0.042 0.096c-1.494-1.437-3.472-2.379-5.667-2.558l-0.033-0.002c-1.58 0.14 0 2.72 0 2.72v0c0.988 1.462 1.869 3.136 2.56 4.905l0.060 0.175c1.11 2.744 1.754 5.927 1.754 9.261 0 0.464-0.012 0.925-0.037 1.383l0.003-0.064c1.78-2.522 2.854-5.653 2.88-9.034l0-0.006zM17.86 2.54v0l0.92 0.58c1.278 0.708 2.768 1.221 4.349 1.452l0.071 0.008 1.4 0.18c1.615 0.344 3.043 0.961 4.304 1.808l-0.044-0.028c-2.92-3.991-7.587-6.554-12.853-6.554-1.424 0-2.805 0.188-4.118 0.539l0.111-0.025c2.173 0.311 4.13 1.015 5.875 2.041l-0.075-0.041zM16.84 7.54c-7.083 1.678-12.889 6.176-16.275 12.213l-0.065 0.127c1.812 6.996 8.068 12.079 15.512 12.079 4.649 0 8.835-1.983 11.758-5.148l0.010-0.011c0.014-0.321 0.022-0.698 0.022-1.076 0-6.48-2.37-12.405-6.291-16.958l0.029 0.034c-0.928-0.903-2.197-1.459-3.596-1.459-0.391 0-0.772 0.044-1.138 0.126l0.034-0.007z"></path>
</svg>
