<!-- Generated by IcoMoon.io -->
<svg version="1.1" xmlns="http://www.w3.org/2000/svg" width="32" height="32" viewBox="0 0 32 32">
<title>rtx</title>
<path d="M16 2c-7.731 0-14 6.269-14 14s6.269 14 14 14 14-6.269 14-14-6.269-14-14-14zM20.672 4.944c1.428 0.603 2.712 1.469 3.816 2.572 0.097 0.097 0.194 0.2 0.288 0.3-0.913-0.303-1.859-0.509-2.825-0.616-0.416-0.044-0.837-0.072-1.259-0.078-0.709-0.013-1.4-0.247-1.966-0.678-1.469-1.128-3.031-1.872-4.291-2.344 0.516-0.066 1.037-0.1 1.563-0.1 1.625 0 3.197 0.316 4.675 0.944zM4.944 11.328c0.603-1.428 1.469-2.713 2.572-3.816 0.972-0.972 2.081-1.756 3.306-2.344 0.775 0.134 2.756 0.559 4.816 1.656 0.469 0.25 0.397 0.941-0.113 1.094-1.947 0.578-3.747 1.384-5.375 2.409-1.703 1.072-3.216 2.378-4.5 3.887-0.672 0.791-1.213 1.553-1.638 2.234-0.006-0.15-0.009-0.3-0.009-0.453-0.003-1.619 0.313-3.191 0.941-4.669zM20.672 27.056c-1.478 0.625-3.050 0.944-4.672 0.944s-3.194-0.316-4.672-0.944c-1.428-0.603-2.713-1.469-3.816-2.572s-1.969-2.387-2.572-3.816c-0.134-0.319-0.253-0.641-0.359-0.966 0.166-0.444 0.894-2.203 2.588-4.194 2.641-3.103 6.197-5.153 10.572-6.097v0c0.672-0.144 1.372 0.075 1.841 0.578 2.716 2.916 5.094 6.719 4.956 14.438-0.019 0.019-0.038 0.038-0.053 0.056-1.103 1.103-2.384 1.969-3.813 2.572zM27.056 20.672c-0.169 0.4-0.359 0.788-0.569 1.166-0.178-3.012-0.781-5.622-1.825-7.909-0.681-1.494-1.509-2.756-2.375-3.85-0.266-0.334 0.031-0.819 0.45-0.738 0.653 0.131 1.294 0.316 1.922 0.559 1.125 0.434 1.919 0.95 2.309 1.234 0.028 0.066 0.059 0.131 0.084 0.197 0.625 1.478 0.944 3.050 0.944 4.672s-0.313 3.191-0.941 4.669z"></path>
</svg>
