<!-- Generated by IcoMoon.io -->
<svg version="1.1" xmlns="http://www.w3.org/2000/svg" width="32" height="32" viewBox="0 0 32 32">
<title>safety</title>
<path d="M16 2c-5.219 1-12 2-12 2s0 7 0 15 12 11 12 11 12-3 12-11 0-15 0-15-6.781-1-12-2v0zM15.997 27.922c-0.906-0.272-2.95-0.959-4.991-2.15-1.528-0.891-2.731-1.878-3.572-2.928-0.966-1.209-1.438-2.466-1.438-3.844v-13.281c2.284-0.353 6.463-1.016 10-1.684 3.538 0.669 7.716 1.331 10 1.684v13.281c0 1.369-0.462 2.616-1.413 3.816-0.828 1.047-2.016 2.028-3.525 2.916-2.044 1.206-4.141 1.913-5.063 2.191v0z"></path>
<path d="M20.928 11.425l-6.319 6.322-3.537-3.537-1.412 1.416 4.95 4.95 7.731-7.734z"></path>
</svg>
