<!-- Generated by IcoMoon.io -->
<svg version="1.1" xmlns="http://www.w3.org/2000/svg" width="32" height="32" viewBox="0 0 32 32">
<title>save</title>
<path d="M27 0h-22c-2.761 0-5 2.239-5 5v22c0 2.761 2.239 5 5 5h22c2.761 0 5-2.239 5-5v-22c0-2.761-2.239-5-5-5zM24 2v10h-16v-10zM30 27c0 1.657-1.343 3-3 3h-22c-1.657 0-3-1.343-3-3v-22c0-1.657 1.343-3 3-3h1v11c0 0.552 0.448 1 1 1h18c0.552 0 1-0.448 1-1v-11h1c1.657 0 3 1.343 3 3z"></path>
<path d="M20 9c0.552 0 1-0.448 1-1v-2c0-0.552-0.448-1-1-1s-1 0.448-1 1v2c0 0.552 0.448 1 1 1z"></path>
</svg>
