<!-- Generated by IcoMoon.io -->
<svg version="1.1" xmlns="http://www.w3.org/2000/svg" width="25" height="32" viewBox="0 0 25 32">
<title>script-file</title>
<path d="M25.060 10.1v-0.1c-0.040-0.18-0.124-0.335-0.241-0.461l0.001 0.001-9.26-9.24c-0.12-0.139-0.275-0.243-0.453-0.298l-0.007-0.002h-12c-0.012-0-0.026-0-0.041-0-1.669 0-3.026 1.336-3.059 2.997l-0 0.003v26c0.034 1.664 1.39 3 3.059 3 0.014 0 0.029-0 0.043-0l-0.002 0h18.88c0.012 0 0.026 0 0.041 0 1.669 0 3.026-1.336 3.059-2.997l0-0.003v-18.76c-0.004-0.052-0.011-0.1-0.021-0.146l0.001 0.006zM15.84 3.42l5.82 5.82h-5.82zM21.98 30h-18.88c-0.012 0.001-0.027 0.001-0.042 0.001-0.565 0-1.026-0.441-1.058-0.998l-0-0.003v-26c0.032-0.559 0.494-1.001 1.058-1.001 0.015 0 0.029 0 0.044 0.001l-0.002-0h10.74v8.24c0 0.552 0.448 1 1 1v0h8.24v17.76c-0.032 0.559-0.494 1.001-1.058 1.001-0.015 0-0.029-0-0.044-0.001l0.002 0z"></path>
<path d="M16.98 16.6c-0.175-0.152-0.404-0.245-0.656-0.245-0.552 0-1 0.448-1 1 0 0.247 0.089 0.472 0.237 0.647l-0.001-0.001 2.6 2.6-2.6 2.6c-0.182 0.182-0.294 0.433-0.294 0.71 0 0.555 0.45 1.004 1.004 1.004 0.277 0 0.528-0.112 0.71-0.294l3.3-3.3c0.183-0.181 0.296-0.432 0.296-0.71s-0.113-0.529-0.296-0.71l-0-0z"></path>
<path d="M9.52 16.6c-0.181-0.183-0.432-0.296-0.71-0.296s-0.529 0.113-0.71 0.296l-0 0-3.3 3.4c-0.183 0.181-0.296 0.432-0.296 0.71s0.113 0.529 0.296 0.71l3.3 3.3c0.182 0.182 0.433 0.294 0.71 0.294 0.555 0 1.004-0.45 1.004-1.004 0-0.277-0.112-0.528-0.294-0.71l-2.6-2.6 2.6-2.7c0.177-0.18 0.286-0.427 0.286-0.7s-0.109-0.52-0.286-0.7l0 0z"></path>
<path d="M14.22 14.46c-0.077-0.021-0.165-0.033-0.256-0.033-0.457 0-0.843 0.307-0.962 0.726l-0.002 0.007-2.84 10.38c-0.021 0.077-0.033 0.165-0.033 0.256 0 0.457 0.307 0.843 0.726 0.962l0.007 0.002h0.26c0.463-0.005 0.85-0.324 0.959-0.753l0.002-0.007 2.84-10.32c0.021-0.077 0.033-0.165 0.033-0.256 0-0.457-0.307-0.843-0.726-0.962l-0.007-0.002z"></path>
</svg>
