<!-- Generated by IcoMoon.io -->
<svg version="1.1" xmlns="http://www.w3.org/2000/svg" width="29" height="32" viewBox="0 0 29 32">
<title>script-files</title>
<path d="M15.44 18c-0.182-0.182-0.433-0.294-0.71-0.294-0.555 0-1.004 0.45-1.004 1.004 0 0.277 0.112 0.528 0.294 0.71l2.26 2.26-2.26 2.32c-0.182 0.182-0.294 0.433-0.294 0.71 0 0.555 0.45 1.004 1.004 1.004 0.277 0 0.528-0.112 0.71-0.294v0l3.020-3.060c0.183-0.181 0.296-0.432 0.296-0.71s-0.113-0.529-0.296-0.71l-0-0z"></path>
<path d="M8.74 18c-0.181-0.183-0.432-0.296-0.71-0.296s-0.529 0.113-0.71 0.296l-0 0-2.96 2.94c-0.183 0.181-0.296 0.432-0.296 0.71s0.113 0.529 0.296 0.71l2.98 2.98c0.15 0.095 0.333 0.151 0.529 0.151 0.552 0 1-0.448 1-1 0-0.181-0.048-0.35-0.132-0.496l0.003 0.005-2.28-2.34 2.28-2.28c0.171-0.179 0.276-0.422 0.276-0.69s-0.105-0.511-0.277-0.69l0 0z"></path>
<path d="M12.92 16c-0.077-0.021-0.165-0.033-0.256-0.033-0.457 0-0.843 0.307-0.962 0.726l-0.002 0.007-2.56 9.3c-0.021 0.077-0.033 0.165-0.033 0.256 0 0.457 0.307 0.843 0.726 0.962l0.007 0.002h0.26c0.458-0.003 0.842-0.312 0.958-0.733l0.002-0.007 2.56-9.24c0.024-0.082 0.039-0.177 0.039-0.275 0-0.459-0.31-0.846-0.731-0.964l-0.007-0.002z"></path>
<path d="M28.9 9.18v-0.12c-0.040-0.18-0.124-0.335-0.241-0.461l0.001 0.001-8.34-8.3c-0.115-0.135-0.264-0.239-0.433-0.298l-0.007-0.002h-10.84c-0.012-0-0.026-0-0.040-0-1.555 0-2.817 1.249-2.84 2.798l-0 0.002v0.2h-3.28c-0.012-0-0.026-0-0.040-0-1.555 0-2.817 1.249-2.84 2.798l-0 0.002v23.4c0.022 1.551 1.285 2.8 2.84 2.8 0.014 0 0.028-0 0.042-0l-0.002 0h17c0.012 0 0.026 0 0.040 0 1.555 0 2.817-1.249 2.84-2.798l0-0.002v-0.2h3.26c0.012 0 0.026 0 0.040 0 1.555 0 2.817-1.249 2.84-2.798l0-0.002v-16.9c0.001-0.018 0.002-0.039 0.002-0.060s-0.001-0.042-0.002-0.063l0 0.003zM14.46 6.42l4.9 4.9h-4.9zM20.6 3.4l4.92 4.92h-5.060zM8.16 2.8c0.032-0.449 0.404-0.8 0.858-0.8 0.008 0 0.015 0 0.023 0l-0.001-0h9.56v5.68l-4.44-4.38c-0.125-0.115-0.281-0.199-0.453-0.239l-0.007-0.001h-5.54zM19.88 30h-17c-0.007 0-0.014 0-0.022 0-0.454 0-0.826-0.352-0.858-0.797l-0-0.003v-23.4c0.032-0.449 0.404-0.8 0.858-0.8 0.008 0 0.015 0 0.023 0l-0.001-0h9.58v7.3c0 0.552 0.448 1 1 1v0h7.3v15.88c-0.022 0.458-0.398 0.82-0.859 0.82-0.007 0-0.015-0-0.022-0l0.001 0zM26.040 27h-3.28v-14.7c0.001-0.018 0.002-0.039 0.002-0.060s-0.001-0.042-0.002-0.063l0 0.003v-0.18c-0.066-0.161-0.169-0.296-0.298-0.398l-0.002-0.002-1.3-1.3h5.74v15.9c-0.032 0.448-0.404 0.8-0.858 0.8-0.001 0-0.001 0-0.002 0h0z"></path>
</svg>
