<!-- Generated by IcoMoon.io -->
<svg version="1.1" xmlns="http://www.w3.org/2000/svg" width="32" height="32" viewBox="0 0 32 32">
<title>security</title>
<path d="M16 30.003l-0.059-0.003c-0.109-0.006-2.747-0.178-5.409-1.587-2.522-1.337-5.531-4.056-5.531-9.413v-7h22v7c0 5.356-3.009 8.075-5.531 9.413-2.663 1.409-5.297 1.581-5.409 1.587l-0.059 0.003zM7 14v5c0 3.5 1.503 6.072 4.469 7.644 2.075 1.1 4.153 1.322 4.531 1.353 0.375-0.034 2.509-0.266 4.587-1.381 2.928-1.575 4.413-4.137 4.413-7.616v-5h-18z"></path>
<path d="M25 4v4h-18v-4h0.481c0.737 1.481 2.269 2.5 4.031 2.5s3.294-1.019 4.031-2.5h0.903c0.731 1.497 2.272 2.531 4.047 2.531s3.316-1.034 4.047-2.531h0.459zM27 2h-4.012c0 0.009 0 0.022 0 0.031 0 1.381-1.119 2.5-2.5 2.5s-2.5-1.119-2.5-2.5c0-0.009 0-0.022 0-0.031h-3.978c0 1.381-1.119 2.5-2.5 2.5s-2.5-1.119-2.5-2.5h-4.009v8h22v-8z"></path>
</svg>
