<!-- Generated by IcoMoon.io -->
<svg version="1.1" xmlns="http://www.w3.org/2000/svg" width="32" height="32" viewBox="0 0 32 32">
<title>weixin</title>
<path d="M18.86 10.9c0 0.828-0.698 1.5-1.56 1.5s-1.56-0.672-1.56-1.5c0-0.828 0.698-1.5 1.56-1.5s1.56 0.672 1.56 1.5z"></path>
<path d="M11.16 10.9c0 0.828-0.698 1.5-1.56 1.5s-1.56-0.672-1.56-1.5c0-0.828 0.698-1.5 1.56-1.5s1.56 0.672 1.56 1.5z"></path>
<path d="M21.66 18.88c0 0.497-0.412 0.9-0.92 0.9s-0.92-0.403-0.92-0.9c0-0.497 0.412-0.9 0.92-0.9s0.92 0.403 0.92 0.9z"></path>
<path d="M29.74 26c1.369-1.325 2.228-3.169 2.26-5.214-0.144-3.428-2.418-6.283-5.523-7.29 0.178-0.378 0.317-0.821 0.317-1.296 0-0.141-0.012-0.279-0.036-0.414-1.058-5.666-6.638-9.786-13.298-9.786-7.46 0-13.46 5.22-13.46 11.64 0.040 3.361 1.58 6.354 3.982 8.345l-0.522 1.735c-0.068 0.212-0.108 0.457-0.108 0.711 0 1.325 1.075 2.4 2.4 2.4 0.389 0 0.756-0.093 1.081-0.257l3.166-1.654c1.026 0.242 2.203 0.38 3.413 0.38 0.002 0 0.005 0 0.007 0h0.88c0.409-0.023 0.786-0.147 1.11-0.346 1.695 2.298 4.396 3.767 7.44 3.767 0.053 0 0.105-0 0.157-0.001 0.658-0.002 1.308-0.067 1.937-0.19l1.535 0.831c0.311 0.158 0.679 0.251 1.068 0.251 1.325 0 2.4-1.075 2.4-2.4 0-0.254-0.039-0.498-0.112-0.728zM13.46 23.52c-0.005 0-0.012 0-0.018 0-1.276 0-2.509-0.183-3.674-0.523l-0.108 0.023-4.1 2.1 1.1-3.54h-0.1c-2.691-1.626-4.481-4.506-4.56-7.809-0-5.391 5.18-9.771 11.46-9.771 0.179-0.010 0.388-0.016 0.598-0.016 5.104 0 9.394 3.482 10.625 8.2l-0.463 0.076c-5.72 0-10.22 3.5-10.22 8.92 0.017 0.835 0.162 1.63 0.416 2.375zM27.28 25.4v0l0.68 2.12-2.54-1.28h-0.12c-0.66 0.19-1.419 0.3-2.203 0.3-0.006 0-0.012 0-0.018-0-0.184 0.019-0.399 0.029-0.616 0.029-3.347 0-6.102-2.529-6.461-5.78 0.323-3.343 3.096-5.911 6.468-5.911 0.186 0 0.371 0.008 0.553 0.023 0.135-0.015 0.319-0.023 0.506-0.023 3.372 0 6.144 2.568 6.468 5.855-0.053 1.994-1.119 3.701-2.693 4.653z"></path>
<path d="M26.24 18.88c0 0.497-0.412 0.9-0.92 0.9s-0.92-0.403-0.92-0.9c0-0.497 0.412-0.9 0.92-0.9s0.92 0.403 0.92 0.9z"></path>
</svg>
