<!-- Generated by IcoMoon.io -->
<svg version="1.1" xmlns="http://www.w3.org/2000/svg" width="32" height="32" viewBox="0 0 32 32">
<title>service</title>
<path d="M11.5 12.938c-0.828 0-1.5 0.672-1.5 1.5v1c0 0.828 0.672 1.5 1.5 1.5s1.5-0.672 1.5-1.5v-1c0-0.828-0.672-1.5-1.5-1.5z"></path>
<path d="M22 15.438v-1c0-0.828-0.672-1.5-1.5-1.5s-1.5 0.672-1.5 1.5v1c0 0.828 0.672 1.5 1.5 1.5s1.5-0.672 1.5-1.5z"></path>
<path d="M29 15h-1v-1c0-1.619-0.319-3.191-0.944-4.672-0.603-1.428-1.469-2.713-2.572-3.813-1.103-1.103-2.384-1.966-3.813-2.572-1.481-0.625-3.053-0.944-4.672-0.944s-3.191 0.319-4.672 0.944c-1.428 0.603-2.713 1.469-3.813 2.572-1.103 1.103-1.966 2.384-2.572 3.813-0.625 1.481-0.944 3.053-0.944 4.672v1h-1v6.125h3v-7.125c0-2.672 1.041-5.181 2.928-7.072 1.891-1.888 4.4-2.928 7.072-2.928s5.181 1.041 7.072 2.928 2.928 4.4 2.928 7.072v4c0 2.672-1.041 5.181-2.928 7.072-1.409 1.409-3.169 2.347-5.081 2.731-0.1-1.012-0.953-1.803-1.991-1.803-1.103 0-2 0.897-2 2v0c0 1.103 0.897 2 2 2 0 0 0 0 0 0v0c1.619 0 3.191-0.319 4.672-0.944 1.428-0.603 2.712-1.469 3.813-2.572 1.103-1.103 1.966-2.384 2.572-3.813 0.212-0.506 0.391-1.022 0.534-1.547h1.409v-6.125z"></path>
</svg>
