<!-- Generated by IcoMoon.io -->
<svg version="1.1" xmlns="http://www.w3.org/2000/svg" width="32" height="32" viewBox="0 0 32 32">
<title>sina-shape</title>
<path d="M24 15.12c0.193-0.396 0.306-0.861 0.306-1.353 0-0.87-0.354-1.658-0.926-2.227-1.002-0.779-2.278-1.248-3.663-1.248-1.079 0-2.092 0.285-2.966 0.783l0.030-0.015c0.068-0.264 0.107-0.567 0.107-0.88 0-1.132-0.514-2.144-1.321-2.815-0.697-0.353-1.513-0.557-2.376-0.557s-1.679 0.204-2.401 0.566c-11.889 6.746-10.789 13.586-10.789 13.706 0 4.4 6.38 8.4 13.4 8.4 0.285 0.018 0.618 0.028 0.953 0.028 4.713 0 8.962-1.983 11.959-5.16 1.016-1.137 1.632-2.635 1.632-4.276 0-0.407-0.038-0.806-0.11-1.192-0.613-1.767-2.019-3.16-3.791-3.748z"></path>
<path d="M26 13.5c0.133 0.059 0.288 0.093 0.451 0.093 0.468 0 0.87-0.282 1.046-0.686 0.257-0.518 0.406-1.12 0.406-1.757 0-2.209-1.791-4-4-4-0.642 0-1.248 0.151-1.786 0.42-0.362 0.178-0.622 0.567-0.622 1.017 0 0.63 0.51 1.14 1.14 1.14 0.138 0 0.271-0.025 0.393-0.070 0.2-0.090 0.443-0.143 0.698-0.143 0.983 0 1.78 0.797 1.78 1.78 0 0.255-0.054 0.498-0.15 0.717-0.051 0.118-0.083 0.268-0.083 0.426 0 0.481 0.298 0.893 0.72 1.060z"></path>
<path d="M23.72 3c-0.713 0.005-1.401 0.1-2.058 0.273-0.387 0.149-0.7 0.569-0.7 1.061 0 0.63 0.51 1.14 1.14 1.14 0.063 0 0.124-0.005 0.184-0.015 0.436-0.116 0.943-0.183 1.467-0.183 3.314 0 6 2.686 6 6 0 0.748-0.137 1.464-0.387 2.125-0.030 0.075-0.055 0.208-0.055 0.348 0 0.489 0.308 0.906 0.741 1.068 0.124 0.046 0.258 0.071 0.397 0.071 0.489 0 0.906-0.308 1.068-0.741 0.319-0.853 0.502-1.829 0.502-2.848 0-4.588-3.713-8.308-8.299-8.32z"></path>
</svg>
