<!-- Generated by IcoMoon.io -->
<svg version="1.1" xmlns="http://www.w3.org/2000/svg" width="32" height="32" viewBox="0 0 32 32">
<title>sina</title>
<path d="M13.42 29.48c-7 0-13.4-4-13.4-8.4-0.020-0.12-1.12-6.96 10.8-13.72 0.691-0.348 1.507-0.552 2.37-0.552s1.679 0.204 2.401 0.566c0.757 0.661 1.252 1.657 1.252 2.769 0 0.275-0.030 0.543-0.088 0.801l0.005-0.024c0.845-0.483 1.858-0.768 2.937-0.768 1.385 0 2.661 0.47 3.677 1.258 0.595 0.564 0.973 1.375 0.973 2.275 0 0.524-0.128 1.018-0.355 1.452 1.84 0.572 3.262 1.968 3.876 3.741 0.079 0.388 0.117 0.787 0.117 1.194 0 1.642-0.616 3.139-1.63 4.274-3 3.179-7.249 5.163-11.963 5.163-0.342 0-0.681-0.010-1.018-0.031zM13.42 8.84c-0.66 0.021-1.283 0.158-1.855 0.393-10.325 5.867-9.565 11.607-9.565 11.667 0 3.060 5.1 6.58 11.4 6.58 0.28 0.019 0.606 0.030 0.935 0.030 4.092 0 7.787-1.697 10.421-4.426 0.795-0.811 1.283-1.918 1.283-3.138 0-0.207-0.014-0.41-0.041-0.609-0.615-1.375-1.898-2.379-3.434-2.594l-1.143-0.223 0.58-1.68c0.66-1.28 0.2-1.72 0-1.88-0.634-0.418-1.412-0.667-2.248-0.667-0.755 0-1.463 0.203-2.072 0.558-0.5 0.269-1.98 1.049-2.78 0.209s-0.36-1.8 0-2.4 0-1.28-0.4-1.58c-0.233-0.156-0.52-0.25-0.829-0.25-0.060 0-0.12 0.004-0.178 0.010z"></path>
<path d="M26 13.5c0.133 0.059 0.288 0.093 0.451 0.093 0.468 0 0.87-0.282 1.046-0.686 0.257-0.518 0.406-1.12 0.406-1.757 0-2.209-1.791-4-4-4-0.642 0-1.248 0.151-1.786 0.42-0.362 0.178-0.622 0.567-0.622 1.017 0 0.63 0.51 1.14 1.14 1.14 0.138 0 0.271-0.025 0.393-0.070 0.2-0.090 0.443-0.143 0.698-0.143 0.983 0 1.78 0.797 1.78 1.78 0 0.255-0.054 0.498-0.15 0.717-0.054 0.122-0.089 0.277-0.089 0.44 0 0.468 0.282 0.87 0.686 1.046z"></path>
<path d="M23.72 3c-0.713 0.005-1.401 0.1-2.058 0.273-0.387 0.149-0.7 0.569-0.7 1.061 0 0.63 0.51 1.14 1.14 1.14 0.063 0 0.124-0.005 0.184-0.015 0.436-0.116 0.943-0.183 1.467-0.183 3.314 0 6 2.686 6 6 0 0.748-0.137 1.464-0.387 2.125-0.030 0.075-0.055 0.208-0.055 0.348 0 0.489 0.308 0.906 0.741 1.068 0.124 0.046 0.258 0.071 0.397 0.071 0.489 0 0.906-0.308 1.068-0.741 0.319-0.853 0.502-1.829 0.502-2.848 0-4.588-3.713-8.308-8.299-8.32z"></path>
</svg>
