<!-- Generated by IcoMoon.io -->
<svg version="1.1" xmlns="http://www.w3.org/2000/svg" width="32" height="32" viewBox="0 0 32 32">
<title>smile</title>
<path d="M8 11c0-0.82 0.68-1.5 1.5-1.5s1.5 0.68 1.5 1.5c0 0.82-0.68 1.5-1.5 1.5s-1.5-0.68-1.5-1.5zM32 16c0 8.82-7.18 16-16 16s-16-7.18-16-16 7.18-16 16-16 16 7.18 16 16zM30 16c0-7.72-6.28-14-14-14s-14 6.28-14 14c0 7.72 6.28 14 14 14s14-6.28 14-14zM22.5 9.5c-0.82 0-1.5 0.68-1.5 1.5s0.68 1.5 1.5 1.5 1.5-0.68 1.5-1.5c0-0.82-0.68-1.5-1.5-1.5zM23.14 16.020c-0.54-0.080-1.060 0.3-1.14 0.84-0.42 2.92-3 5.14-6 5.14-2.9 0-5.54-2.26-6.020-5.16-0.080-0.54-0.6-0.92-1.14-0.82-0.54 0.080-0.92 0.6-0.82 1.14 0.64 3.9 4.080 6.84 7.98 6.84 3.98 0 7.4-2.94 7.98-6.86 0.1-0.54-0.28-1.040-0.84-1.12z"></path>
</svg>
