<!-- Generated by IcoMoon.io -->
<svg version="1.1" xmlns="http://www.w3.org/2000/svg" width="32" height="32" viewBox="0 0 32 32">
<title>smile-shape</title>
<path d="M16 0c-8.837 0-16 7.163-16 16s7.163 16 16 16c8.837 0 16-7.163 16-16s-7.163-16-16-16zM9.5 9.5c0.828 0 1.5 0.672 1.5 1.5s-0.672 1.5-1.5 1.5c-0.828 0-1.5-0.672-1.5-1.5s0.672-1.5 1.5-1.5zM16 24c-4.012-0.044-7.33-2.962-7.993-6.791-0.015-0.097-0.020-0.152-0.020-0.209 0-0.559 0.453-1.013 1.013-1.013 0.503 0 0.92 0.366 0.999 0.847 0.531 2.905 3 5.085 5.992 5.166 0.027 0 0.049 0 0.070 0 3.010 0 5.503-2.217 5.934-5.107 0.080-0.527 0.503-0.901 1.013-0.901 0.046 0 0.092 0.003 0.137 0.009 0.48 0.074 0.846 0.488 0.846 0.988 0 0.053-0.004 0.106-0.012 0.157-0.62 3.895-3.954 6.842-7.978 6.854zM22.5 12.5c-0.828 0-1.5-0.672-1.5-1.5s0.672-1.5 1.5-1.5c0.828 0 1.5 0.672 1.5 1.5s-0.672 1.5-1.5 1.5z"></path>
</svg>
