<!-- Generated by IcoMoon.io -->
<svg version="1.1" xmlns="http://www.w3.org/2000/svg" width="32" height="32" viewBox="0 0 32 32">
<title>snapshot</title>
<path d="M29 23.45h-20.15l-0.4-0.4v-20.050h-2v3.55h-3.45v2h3.45v16.9h17.1v3.55h2v-3.55h3.45z"></path>
<path d="M23.55 21.4h2v-14.85h-15v2h13z"></path>
<path d="M14.678 15.7l1.361-1.325 1.395 1.433-1.361 1.325-1.395-1.433z"></path>
<path d="M11.917 18.343l1.361-1.325 1.395 1.433-1.361 1.325-1.395-1.433z"></path>
<path d="M17.418 12.987l1.361-1.325 1.395 1.433-1.361 1.325-1.395-1.433z"></path>
<path d="M20.179 10.345l1.361-1.325 1.395 1.433-1.361 1.325-1.395-1.433z"></path>
<path d="M9.176 21.056l1.361-1.325 1.395 1.433-1.361 1.325-1.395-1.433z"></path>
</svg>
