<!-- Generated by IcoMoon.io -->
<svg version="1.1" xmlns="http://www.w3.org/2000/svg" width="32" height="32" viewBox="0 0 32 32">
<title>speed-record</title>
<path d="M16 4c1.622 0 3.194 0.316 4.672 0.944 1.428 0.603 2.712 1.469 3.816 2.572s1.969 2.387 2.572 3.816c0.625 1.478 0.944 3.050 0.944 4.672s-0.316 3.194-0.944 4.672c-0.603 1.428-1.469 2.712-2.572 3.816s-2.387 1.969-3.816 2.572c-1.478 0.625-3.050 0.944-4.672 0.944s-3.194-0.316-4.672-0.944c-1.428-0.603-2.713-1.469-3.816-2.572s-1.969-2.387-2.572-3.816c-0.625-1.478-0.944-3.050-0.944-4.672s0.316-3.194 0.944-4.672c0.603-1.428 1.469-2.713 2.572-3.816s2.388-1.969 3.816-2.572c1.478-0.628 3.050-0.944 4.672-0.944zM16 2c-7.731 0-14 6.269-14 14s6.269 14 14 14 14-6.269 14-14-6.269-14-14-14v0z"></path>
<path d="M16.5 15.5v-7.5h-2.5v10h10v-2.5z"></path>
</svg>
