<!-- Generated by IcoMoon.io -->
<svg version="1.1" xmlns="http://www.w3.org/2000/svg" width="32" height="32" viewBox="0 0 32 32">
<title>speed-up</title>
<path d="M27 5v22h-22v-22h22zM29 3h-26v26h26v-26z"></path>
<path d="M24 10.813h-8v2h8z"></path>
<path d="M24 19.188h-8v2h8z"></path>
<path d="M10.178 11.744l-1.428-1.431-1.416 1.416 2.844 2.844 4.112-4.112-1.416-1.412z"></path>
<path d="M10.813 19.103c0.597 0 1.084 0.488 1.084 1.084s-0.488 1.084-1.084 1.084-1.084-0.488-1.084-1.084 0.488-1.084 1.084-1.084zM10.813 17.063c-1.725 0-3.125 1.4-3.125 3.125s1.4 3.125 3.125 3.125 3.125-1.4 3.125-3.125-1.4-3.125-3.125-3.125v0z"></path>
</svg>
