<!-- Generated by IcoMoon.io -->
<svg version="1.1" xmlns="http://www.w3.org/2000/svg" width="32" height="32" viewBox="0 0 32 32">
<title>star</title>
<path d="M24.56 32c-0.004 0-0.009 0-0.014 0-0.363 0-0.703-0.096-0.996-0.265l-7.55-4.175-7.6 4.16c-0.315 0.217-0.705 0.347-1.125 0.347-1.105 0-2-0.895-2-2 0-0.18 0.024-0.355 0.068-0.521l1.457-8.966-6.2-6.46c-0.433-0.369-0.705-0.915-0.705-1.525 0-1.057 0.82-1.923 1.859-1.995l8.526-1.3 3.84-8.1c0.287-0.775 1.020-1.318 1.88-1.318s1.593 0.542 1.875 1.304l3.785 8.014 8.58 1.36c1.044 0.074 1.862 0.939 1.862 1.995 0 0.599-0.263 1.136-0.68 1.503l-6.242 6.402 1.44 9.060c0.028 0.126 0.045 0.272 0.045 0.421 0 1.105-0.895 2-2 2-0.016 0-0.031-0-0.047-0.001zM16 25.56c0.004-0 0.009-0 0.014-0 0.363 0 0.703 0.096 0.996 0.265l7.51 4.175-1.34-9.080c-0.021-0.108-0.032-0.232-0.032-0.359 0-0.556 0.227-1.058 0.592-1.421l6.26-6.42-8.6-1.44c-0.702-0.099-1.28-0.551-1.555-1.167l-3.845-8.113-3.84 8.1c-0.28 0.629-0.858 1.081-1.549 1.179l-8.611 1.301 6.2 6.54c0.366 0.363 0.592 0.865 0.592 1.421 0 0.127-0.012 0.251-0.034 0.372l-1.398 9.088 7.64-4c0.274-0.228 0.615-0.385 0.989-0.439z"></path>
</svg>
