<?xml version="1.0" encoding="UTF-8"?>
<svg width="15px" height="15px" viewBox="0 0 15 15" version="1.1" xmlns="http://www.w3.org/2000/svg" xmlns:xlink="http://www.w3.org/1999/xlink">
    <!-- Generator: Sketch 52.2 (67145) - http://www.bohemiancoding.com/sketch -->
    <title>icon-fwkz</title>
    <desc>Created with Sketch.</desc>
    <g id="Page-1" stroke="none" stroke-width="1" fill="none" fill-rule="evenodd">
        <g id="Artboard" transform="translate(-107.000000, -328.000000)" fill="currentcolor" fill-rule="nonzero">
            <g id="编组-3">
                <g id="Group-4" transform="translate(88.000000, 88.000000)">
                    <g id="Group-3" transform="translate(0.000000, 228.000000)">
                        <g id="编组-7">
                            <g id="Group-30" transform="translate(16.000000, 11.000000)">
                                <path d="M4,11 L4,15 L8,15 L8,11 L4,11 Z M4,10 L8,10 C8.55228475,10 9,10.4477153 9,11 L9,15 C9,15.5522847 8.55228475,16 8,16 L4,16 C3.44771525,16 3,15.5522847 3,15 L3,11 C3,10.4477153 3.44771525,10 4,10 Z M11,11 L11,15 L15,15 L15,11 L11,11 Z M11,10 L15,10 C15.5522847,10 16,10.4477153 16,11 L16,15 C16,15.5522847 15.5522847,16 15,16 L11,16 C10.4477153,16 10,15.5522847 10,15 L10,11 C10,10.4477153 10.4477153,10 11,10 Z M4,4 L4,8 L8,8 L8,4 L4,4 Z M4,3 L8,3 C8.55228475,3 9,3.44771525 9,4 L9,8 C9,8.55228475 8.55228475,9 8,9 L4,9 C3.44771525,9 3,8.55228475 3,8 L3,4 C3,3.44771525 3.44771525,3 4,3 Z M14,2.17157288 L11.1715729,5 L14,7.82842712 L16.8284271,5 L14,2.17157288 Z M14.7071068,1.46446609 L17.5355339,4.29289322 C17.9260582,4.68341751 17.9260582,5.31658249 17.5355339,5.70710678 L14.7071068,8.53553391 C14.3165825,8.9260582 13.6834175,8.9260582 13.2928932,8.53553391 L10.4644661,5.70710678 C10.0739418,5.31658249 10.0739418,4.68341751 10.4644661,4.29289322 L13.2928932,1.46446609 C13.6834175,1.0739418 14.3165825,1.0739418 14.7071068,1.46446609 Z" id="icon-fwkz"></path>
                            </g>
                        </g>
                    </g>
                </g>
            </g>
        </g>
    </g>
</svg>