<?xml version="1.0" encoding="UTF-8"?>
<svg width="14px" height="16px" viewBox="0 0 14 16" version="1.1" xmlns="http://www.w3.org/2000/svg" xmlns:xlink="http://www.w3.org/1999/xlink">
    <!-- Generator: Sketch 52.4 (67378) - http://www.bohemiancoding.com/sketch -->
    <title>icon_lsxm</title>
    <desc>Created with Sketch.</desc>
    <g id="蓝盾服务扩展商店" stroke="none" stroke-width="1" fill="none" fill-rule="evenodd">
        <g id="研发商店" transform="translate(-106.000000, -205.000000)" fill="currentcolor" fill-rule="nonzero">
            <g id="Group-4" transform="translate(69.000000, 88.000000)">
                <g id="Group-2-Copy-2" transform="translate(19.000000, 105.000000)">
                    <g id="编组-7">
                        <g id="Group-29" transform="translate(16.000000, 11.000000)">
                            <path d="M11,2 L11,5 L7,5 L7,2 L3,2 L3,16 L15,16 L15,2 L11,2 Z M3,1 L15,1 C15.5522847,1 16,1.44771525 16,2 L16,16 C16,16.5522847 15.5522847,17 15,17 L3,17 C2.44771525,17 2,16.5522847 2,16 L2,2 C2,1.44771525 2.44771525,1 3,1 Z M8,2 L8,4 L10,4 L10,2 L8,2 Z M6,10 L12,10 L12,11 L6,11 L6,10 Z M6,12 L12,12 L12,13 L6,13 L6,12 Z M3,7 L15,7 L15,8 L3,8 L3,7 Z" id="icon_lsxm"></path>
                        </g>
                    </g>
                </g>
            </g>
        </g>
    </g>
</svg>
