<?xml version="1.0" encoding="UTF-8"?>
<svg width="14px" height="14px" viewBox="0 0 14 14" version="1.1" xmlns="http://www.w3.org/2000/svg" xmlns:xlink="http://www.w3.org/1999/xlink">
    <!-- Generator: Sketch 52.2 (67145) - http://www.bohemiancoding.com/sketch -->
    <title>icon_success_14</title>
    <desc>Created with Sketch.</desc>
    <g id="蓝盾服务扩展商店" stroke="none" stroke-width="1" fill="none" fill-rule="evenodd">
        <g id="蓝盾服务扩展商店设计稿-第二批界面" transform="translate(-866.000000, -4711.000000)" fill="#2DCB56">
            <g id="编组" transform="translate(64.000000, 4376.000000)">
                <path d="M809,335 C812.865625,335 816,338.134375 816,342 C816,345.865625 812.865625,349 809,349 C805.134375,349 802,345.865625 802,342 C802,338.134375 805.134375,335 809,335 Z M811.921875,339.515625 L811.189062,339.515625 C811.029687,339.515625 810.878125,339.592187 810.784375,339.723437 L808.328125,343.129687 L807.215625,341.585937 C807.121875,341.45625 806.971875,341.378125 806.810937,341.378125 L806.078125,341.378125 C805.976562,341.378125 805.917187,341.49375 805.976562,341.576562 L807.923437,344.276562 C808.121875,344.553125 808.532812,344.553125 808.73125,344.276562 L812.021875,339.714062 C812.082812,339.63125 812.023437,339.515625 811.921875,339.515625 Z" id="icon_success_14"></path>
            </g>
        </g>
    </g>
</svg>