<?xml version="1.0" encoding="utf-8"?>
<!-- Generator: Adobe Illustrator 22.1.0, SVG Export Plug-In . SVG Version: 6.00 Build 0)  -->
<svg version="1.1" xmlns="http://www.w3.org/2000/svg" xmlns:xlink="http://www.w3.org/1999/xlink" x="0px" y="0px"
	 viewBox="0 0 64 64" style="enable-background:new 0 0 64 64;" xml:space="preserve">
<g id="辅助线">
</g>
<g id="小">
	<g id="圆">
	</g>
	<g>
		<path d="M32,60C16.6,60,4,47.4,4,32C4,21.3,10.3,11.4,20,6.7C23.8,4.9,27.8,4,32,4c15.4,0,28,12.6,28,28
			S47.5,60,32,60z M32,15.9c-2.4,0-4.8,0.5-6.9,1.6c-5.6,2.7-9.2,8.4-9.2,14.5c0,8.9,7.2,16.1,16.1,16.1S48.1,40.9,48.1,32
			S40.9,15.9,32,15.9z"/>
	</g>
</g>
</svg>
