<?xml version="1.0" encoding="UTF-8"?>
<svg width="14px" height="14px" viewBox="0 0 14 14" version="1.1" xmlns="http://www.w3.org/2000/svg" xmlns:xlink="http://www.w3.org/1999/xlink">
    <!-- Generator: Sketch 52.2 (67145) - http://www.bohemiancoding.com/sketch -->
    <title>icon_i_14</title>
    <desc>Created with Sketch.</desc>
    <g id="蓝盾服务扩展商店" stroke="none" stroke-width="1" fill="none" fill-rule="evenodd">
        <g id="蓝盾服务扩展商店设计稿-第二批界面" transform="translate(-866.000000, -5054.000000)" fill="#C9C9C9" fill-rule="nonzero">
            <g id="编组" transform="translate(64.000000, 4376.000000)">
                <path d="M809,678 C812.865625,678 816,681.134375 816,685 C816,688.865625 812.865625,692 809,692 C805.134375,692 802,688.865625 802,685 C802,681.134375 805.134375,678 809,678 Z M808.25,682.25 C808.25,682.664214 808.585786,683 809,683 C809.414214,683 809.75,682.664214 809.75,682.25 C809.75,681.835786 809.414214,681.5 809,681.5 C808.585786,681.5 808.25,681.835786 808.25,682.25 Z M809.375,684 L808.625,684 C808.55625,684 808.5,684.05625 808.5,684.125 L808.5,688.375 C808.5,688.44375 808.55625,688.5 808.625,688.5 L809.375,688.5 C809.44375,688.5 809.5,688.44375 809.5,688.375 L809.5,684.125 C809.5,684.05625 809.44375,684 809.375,684 Z" id="icon_i_14"></path>
            </g>
        </g>
    </g>
</svg>