<?xml version="1.0" encoding="UTF-8"?>
<svg width="14px" height="14px" viewBox="0 0 14 14" version="1.1" xmlns="http://www.w3.org/2000/svg" xmlns:xlink="http://www.w3.org/1999/xlink">
    <!-- Generator: Sketch 52.2 (67145) - http://www.bohemiancoding.com/sketch -->
    <title>icon_sb_14</title>
    <desc>Created with Sketch.</desc>
    <g id="蓝盾服务扩展商店" stroke="none" stroke-width="1" fill="none" fill-rule="evenodd">
        <g id="蓝盾服务扩展商店设计稿-第二批界面" transform="translate(-866.000000, -4907.000000)" fill="#ED2F2F" fill-rule="nonzero">
            <g id="编组" transform="translate(64.000000, 4376.000000)">
                <path d="M809,531 C812.865625,531 816,534.134375 816,538 C816,541.865625 812.865625,545 809,545 C805.134375,545 802,541.865625 802,538 C802,534.134375 805.134375,531 809,531 Z M811.709375,535.528125 C811.709375,535.459375 811.653125,535.403125 811.584375,535.403125 L810.553125,535.407812 L809,537.259375 L807.448437,535.409375 L806.415625,535.404688 C806.346875,535.404688 806.290625,535.459375 806.290625,535.529688 C806.290625,535.559375 806.301563,535.5875 806.320312,535.610937 L808.353125,538.032812 L806.320312,540.453125 C806.301563,540.476562 806.290625,540.504688 806.290625,540.534375 C806.290625,540.603125 806.346875,540.659375 806.415625,540.659375 L807.448437,540.654688 L809,538.803125 L810.551563,540.653125 L811.582813,540.657812 C811.651562,540.657812 811.707813,540.603125 811.707813,540.532812 C811.707813,540.503125 811.696875,540.475 811.678125,540.451563 L809.648438,538.03125 L811.68125,535.609375 C811.7,535.5875 811.709375,535.557812 811.709375,535.528125 Z" id="icon_sb_14"></path>
            </g>
        </g>
    </g>
</svg>