<?xml version="1.0" encoding="UTF-8"?>
<svg width="17px" height="15px" viewBox="0 0 17 15" version="1.1" xmlns="http://www.w3.org/2000/svg" xmlns:xlink="http://www.w3.org/1999/xlink">
    <!-- Generator: Sketch 52.2 (67145) - http://www.bohemiancoding.com/sketch -->
    <title>icon-rqjx</title>
    <desc>Created with Sketch.</desc>
    <g id="Page-1" stroke="none" stroke-width="1" fill="none" fill-rule="evenodd">
        <g id="Artboard" transform="translate(-105.000000, -288.000000)" fill="currentcolor" fill-rule="nonzero">
            <path d="M109,296 C109.552285,296 110,296.447715 110,297 C110,297.552285 109.552285,298 109,298 C108.447715,298 108,297.552285 108,297 C108,296.447715 108.447715,296 109,296 Z M117,294 L119,294 L119,290 L119.5,290 C120.880712,290 122,291.119288 122,292.5 C122,293.709479 121.14112,294.718356 120,294.949991 L120,295.5 C120,299.642136 116.642136,303 112.5,303 C108.357864,303 105,299.642136 105,295.5 L105,294 L107,294 L107,291 L111,291 L111,288 L115,288 L115,291 L117,291 L117,294 Z M117,295 L114,295 L111,295 L107,295 L106,295 L106,295.5 C106,299.089851 108.910149,302 112.5,302 C116.089851,302 119,299.089851 119,295.5 L119,295 L117,295 Z M114,294 L116,294 L116,292 L115,292 L114,292 L114,294 Z M111,294 L113,294 L113,292 L111,292 L111,294 Z M110,294 L110,292 L108,292 L108,294 L110,294 Z M112,291 L114,291 L114,289 L112,289 L112,291 Z M120,291.085353 L120,293.915027 C120.588267,293.707642 121,293.145857 121,292.5 C121,291.846891 120.582596,291.291271 120,291.085353 Z" id="icon-rqjx"></path>
        </g>
    </g>
</svg>
