<?xml version="1.0" encoding="UTF-8"?>
<svg width="16px" height="18px" viewBox="0 0 16 18" version="1.1" xmlns="http://www.w3.org/2000/svg" xmlns:xlink="http://www.w3.org/1999/xlink">
    <!-- Generator: Sketch 52.4 (67378) - http://www.bohemiancoding.com/sketch -->
    <title>icon_lsxcj</title>
    <desc>Created with Sketch.</desc>
    <g id="蓝盾服务扩展商店" stroke="none" stroke-width="1" fill="none" fill-rule="evenodd">
        <g id="研发商店" transform="translate(-105.000000, -163.000000)" fill="currentcolor" fill-rule="nonzero">
            <g id="Group-4" transform="translate(69.000000, 88.000000)">
                <g id="Group-2-Copy-3" transform="translate(19.000000, 64.000000)">
                    <g id="编组-7">
                        <g id="Group-25-Copy" transform="translate(16.000000, 11.000000)">
                            <path d="M9,1.57735027 L2.57179677,5.28867513 L2.57179677,12.7113249 L9,16.4226497 L15.4282032,12.7113249 L15.4282032,5.28867513 L9,1.57735027 Z M16.4282032,4.71132487 L16.4282032,13.2886751 L9,17.5773503 L1.57179677,13.2886751 L1.57179677,4.71132487 L9,0.422649731 L16.4282032,4.71132487 Z M5.15192379,8.33493649 L4.65192379,7.46891109 L8.54903811,5.21891109 C9.50562335,4.66662634 10.7288042,4.99437665 11.2810889,5.95096189 C11.8333737,6.90754714 11.5056234,8.13072795 10.5490381,8.6830127 L7.95096189,10.1830127 C7.47266927,10.4591551 7.30879412,11.0707455 7.58493649,11.5490381 C7.86107887,12.0273307 8.47266927,12.1912059 8.95096189,11.9150635 L12.8480762,9.66506351 L13.3480762,10.5310889 L9.45096189,12.7810889 C8.49437665,13.3333737 7.27119584,13.0056234 6.71891109,12.0490381 C6.16662634,11.0924529 6.49437665,9.86927205 7.45096189,9.3169873 L10.0490381,7.8169873 C10.5273307,7.54084492 10.6912059,6.92925452 10.4150635,6.45096189 C10.1389211,5.97266927 9.52733073,5.80879412 9.04903811,6.08493649 L5.15192379,8.33493649 Z" id="icon_lsxcj"></path>
                        </g>
                    </g>
                </g>
            </g>
        </g>
    </g>
</svg>
