<!-- Generated by IcoMoon.io -->
<svg version="1.1" xmlns="http://www.w3.org/2000/svg" width="32" height="32" viewBox="0 0 32 32">
<title>task-registry</title>
<path d="M23.5 18.009c-3.038 0-5.5 2.462-5.5 5.5s2.462 5.5 5.5 5.5 5.5-2.462 5.5-5.5-2.462-5.5-5.5-5.5zM25.975 25.981c-0.663 0.663-1.541 1.025-2.475 1.025s-1.813-0.366-2.475-1.025c-0.663-0.663-1.025-1.541-1.025-2.475s0.366-1.813 1.025-2.475c0.663-0.663 1.541-1.025 2.475-1.025s1.813 0.366 2.475 1.025c0.663 0.663 1.025 1.541 1.025 2.475s-0.366 1.816-1.025 2.475z"></path>
<path d="M18.084 5v-2h-8v2h-7v24h15v-2h-13v-20h5v2h8v-2h5v10h2v-12h-7zM16.084 7h-4v-2h4v2z"></path>
<path d="M8.084 12h12.5v2h-12.5v-2z"></path>
<path d="M8.084 17h9.813v2h-9.813v-2z"></path>
<path d="M8.084 22h6v2h-6v-2z"></path>
<path d="M24.5 21.025h-2v1.484h-1.484v2h1.484v1.484h2v-1.484h1.484v-2h-1.484z"></path>
</svg>
