<!-- Generated by IcoMoon.io -->
<svg version="1.1" xmlns="http://www.w3.org/2000/svg" width="32" height="32" viewBox="0 0 32 32">
<title>telephone</title>
<path d="M7.356 4c0.219 0 0.944 0.259 1.8 1.066v0 0c0.869 0.816 1.497 1.806 1.769 2.791 0.041 0.147 0.063 0.347-0.094 0.716-0.172 0.403-0.484 0.834-0.759 1.213v0.006l-0.006 0.009c-0.406 0.563-0.794 1.094-0.922 1.731l-0.006 0.037c-0.088 0.466-0.031 0.978 0.162 1.528 0.191 0.537 0.516 1.131 0.997 1.816 0.637 0.906 1.575 1.991 2.706 3.137 0.963 0.975 2.050 1.981 3.066 2.834 1.006 0.847 1.762 1.4 2.247 1.647 0.403 0.206 0.825 0.309 1.247 0.309 0.563 0 1.094-0.175 1.625-0.538 0.281-0.194 0.556-0.431 0.906-0.75v0 0c0.303-0.278 0.616-0.566 0.931-0.741 0.137-0.075 0.291-0.109 0.472-0.109 0.159 0 0.341 0.028 0.534 0.081 0.478 0.128 1.053 0.419 1.669 0.837 1.084 0.741 1.969 1.659 2.181 1.887 0.019 0.056 0.072 0.278-0.019 0.759v0c-0.122 0.644-0.447 1.384-0.887 2.038-0.453 0.669-0.997 1.191-1.531 1.469v0c-0.294 0.153-0.581 0.231-0.853 0.231-0.184 0-0.363-0.034-0.547-0.106v0c-2.075-0.813-4.381-2.025-6.672-3.519-2.306-1.503-4.503-3.228-6.356-4.994-2.141-2.034-3.825-4.097-5.006-6.131-1.272-2.181-1.919-4.272-1.919-6.209 0-0.066 0.022-0.303 0.281-0.737v0 0c0.225-0.375 0.559-0.778 0.947-1.138l0.006-0.006c0.909-0.85 1.728-1.166 2.031-1.166zM7.356 2c-0.981 0-2.253 0.634-3.397 1.706-0.534 0.494-0.984 1.041-1.303 1.578-0.375 0.628-0.566 1.222-0.566 1.766 0.003 2.291 0.737 4.719 2.191 7.216 1.278 2.194 3.078 4.406 5.356 6.572 3.956 3.762 9.2 7.181 13.681 8.922 0.416 0.159 0.841 0.241 1.269 0.241 0.597 0 1.197-0.156 1.784-0.462 0.831-0.438 1.613-1.169 2.256-2.119 0.6-0.884 1.025-1.875 1.2-2.791 0.203-1.072 0.044-1.925-0.456-2.462v0l-0.003-0.003c-0.275-0.3-1.281-1.341-2.544-2.203-0.803-0.547-1.569-0.922-2.269-1.113-0.369-0.1-0.722-0.15-1.059-0.15-0.519 0-0.997 0.119-1.431 0.353-0.525 0.288-0.95 0.678-1.328 1.022-0.556 0.509-0.869 0.762-1.184 0.762-0.109 0-0.219-0.031-0.341-0.094-0.628-0.319-2.756-2.034-4.797-4.103-1.059-1.072-1.922-2.069-2.497-2.884-0.863-1.225-0.85-1.706-0.825-1.825 0.044-0.216 0.322-0.6 0.591-0.969 0.662-0.912 1.572-2.166 1.166-3.638-0.369-1.331-1.194-2.653-2.328-3.719-1.066-1-2.25-1.603-3.166-1.603v0z"></path>
<path d="M22 17c-0.553 0-1-0.447-1-1 0-2.756-2.244-5-5-5-0.553 0-1-0.447-1-1s0.447-1 1-1c1.869 0 3.628 0.728 4.95 2.050s2.050 3.081 2.050 4.95c0 0.553-0.447 1-1 1z"></path>
<path d="M26 17c-0.553 0-1-0.447-1-1 0-2.403-0.938-4.666-2.637-6.363s-3.959-2.638-6.363-2.638c-0.553 0-1-0.447-1-1s0.447-1 1-1c1.484 0 2.925 0.291 4.281 0.866 1.309 0.553 2.488 1.347 3.497 2.356s1.803 2.188 2.356 3.497c0.575 1.356 0.866 2.797 0.866 4.281 0 0.553-0.447 1-1 1z"></path>
</svg>
