<svg xmlns="http://www.w3.org/2000/svg" viewBox="0 0 64 64"><defs><style>.cls-1{fill:#009af8;}.cls-2{fill:#fff;}.cls-3{fill:#dcdcdc;}.cls-4{fill:#f3ce48;}.cls-5{fill:#f4656b;}.cls-6{fill:#4dc266;}.cls-7{fill:#017fc4;}</style></defs><title>研发商店-彩色logo</title><g id="图层_78" data-name="图层 78"><rect class="cls-1" x="9.08" y="3.91" width="45.54" height="56" rx="3.08" ry="3.08"/><rect class="cls-2" x="13.04" y="8.65" width="37.54" height="46.95"/><rect class="cls-3" x="18.39" y="12.96" width="26.84" height="2.46"/><rect class="cls-3" x="18.39" y="17.88" width="26.84" height="2.46"/><rect class="cls-3" x="18.39" y="22.8" width="6.69" height="2.46"/><rect class="cls-3" x="38.62" y="22.8" width="4.92" height="2.46"/><rect class="cls-3" x="40.46" y="28.34" width="3.08" height="2.46"/><rect class="cls-3" x="18.39" y="28.34" width="5.46" height="2.46"/><rect class="cls-3" x="18.39" y="33.88" width="6.07" height="2.46"/><rect class="cls-3" x="18.39" y="39.42" width="14.07" height="2.46"/><rect class="cls-3" x="18.39" y="44.34" width="14.07" height="2.46"/><path class="cls-4" d="M35.87,31.09H27.21a1.52,1.52,0,0,1-1.52-1.52h0a1.53,1.53,0,0,1,1.52-1.53h8.66a1.52,1.52,0,0,1,1.52,1.52h0A1.52,1.52,0,0,1,35.87,31.09Z"/><rect class="cls-5" x="27.54" y="22.49" width="10.46" height="3.08" rx="1.52" ry="1.52"/><rect class="cls-6" x="28.77" y="33.73" width="9.85" height="3.12" rx="1.52" ry="1.52"/><rect class="cls-7" x="36.75" y="37.49" width="3.08" height="6.77" transform="translate(-15.25 24.44) rotate(-29.81)"/><path class="cls-1" d="M43.65,47.21,41,48.74a1.23,1.23,0,0,1-1.68-.46l-2.65-4.7a1.24,1.24,0,0,1,.46-1.68l2.67-1.53a1.24,1.24,0,0,1,1.68.46l2.65,4.7A1.24,1.24,0,0,1,43.65,47.21Z"/><path class="cls-1" d="M37.22,39A10.15,10.15,0,1,1,41,25.14,10.17,10.17,0,0,1,37.22,39ZM28.33,23.47a7.74,7.74,0,1,0,10.56,2.87A7.76,7.76,0,0,0,28.33,23.47Z"/></g></svg>