<svg xmlns="http://www.w3.org/2000/svg" viewBox="0 0 64 64"><defs></defs><title>tdw</title><g id="提醒"><path class="cls-1" d="M55.8,18.17a7.09,7.09,0,0,0-10-10l3.61,3.61L46.9,14.23a23.51,23.51,0,0,0-29.84,0l-2.51-2.51,3.62-3.62a7.09,7.09,0,0,0-10,10l3.58-3.58L14.17,17a23.65,23.65,0,0,0,4.14,34.82l-2.68,2.68a2,2,0,0,0,0,2.83h0a2,2,0,0,0,2.83,0L21.87,54a23.67,23.67,0,0,0,19.84.2l3.23,3.22a2,2,0,0,0,2.82-2.83l-2.42-2.43A23.65,23.65,0,0,0,49.8,17l2.41-2.41ZM32,51.6a19,19,0,1,1,19-19A19,19,0,0,1,32,51.6Z"/><path class="cls-1" d="M41.38,30.62H36.12a4.62,4.62,0,0,0-2.12-2V20.41a2,2,0,1,0-4,0v8.24a4.67,4.67,0,1,0,6.35,6h5a2,2,0,1,0,0-4Z"/></g></svg>