<!-- Generated by IcoMoon.io -->
<svg version="1.1" xmlns="http://www.w3.org/2000/svg" width="32" height="32" viewBox="0 0 32 32">
<title>timer</title>
<path d="M24.188 9.228l2.353-2.353-1.416-1.416-2.522 2.522c-1.634-1.078-3.547-1.769-5.606-1.938v-2.044h3.375v-2h-8.747v2h3.375v2.041c-2.072 0.172-3.994 0.869-5.631 1.956l0.019-0.019-2.522-2.522-1.416 1.416 2.359 2.359c-2.344 2.191-3.809 5.309-3.809 8.769 0 6.628 5.372 12 12 12s12-5.372 12-12c0-3.463-1.466-6.581-3.813-8.772zM23.072 25.072c-0.919 0.919-1.988 1.641-3.178 2.144-1.234 0.519-2.544 0.784-3.894 0.784s-2.659-0.266-3.891-0.784c-1.191-0.503-2.259-1.225-3.178-2.144s-1.641-1.988-2.144-3.178c-0.522-1.234-0.787-2.544-0.787-3.894s0.266-2.659 0.784-3.891c0.503-1.191 1.225-2.259 2.144-3.178s1.988-1.641 3.178-2.144c1.234-0.522 2.544-0.787 3.894-0.787s2.659 0.266 3.891 0.784c1.191 0.503 2.259 1.225 3.178 2.144s1.641 1.988 2.144 3.178c0.522 1.234 0.788 2.544 0.788 3.894s-0.266 2.659-0.784 3.891c-0.503 1.191-1.225 2.262-2.144 3.181z"></path>
<path d="M17 12h-2v7h7v-2h-5z"></path>
</svg>
