<!-- Generated by IcoMoon.io -->
<svg version="1.1" xmlns="http://www.w3.org/2000/svg" width="32" height="32" viewBox="0 0 32 32">
<title>tlinux</title>
<path d="M28.392 16.592c0.176-0.152 0.32-0.336 0.464-0.52 0.632-0.768 1.2-1.568 1.384-2.568 0.16-0.84-0.008-1.544-0.92-1.952-0.576-0.256-1.184-0.264-1.792-0.192-1.544 0.184-2.952 0.776-4.296 1.544-0.008 0.048 0.008 0.080 0.064 0.056 0.336-0.144 0.664-0.296 1.008-0.424 0.968-0.352 1.952-0.616 3-0.456 0.76 0.12 1.28 0.632 1.28 1.352 0 0.752-0.336 1.384-0.76 2.008-0.192-0.624-0.376-1.208-0.552-1.792-0.032-0.104-0.048-0.208-0.2-0.2-0.584 0.008-1.16 0.016-1.744 0.016v0.008c0.336 1.096 0.664 2.2 1.016 3.296 0.064 0.216 0.032 0.336-0.136 0.48-0.848 0.72-1.744 1.36-2.744 1.864-1.232 0.624-2.504 1.128-3.928 1.056-0.448-0.024-0.864-0.136-1.208-0.44-0.352-0.32-0.432-0.744-0.392-1.256-0.296 0.92-0.056 1.84 0.888 2.208 0.296 0.112 0.6 0.176 0.912 0.192 1.32 0.056 2.536-0.328 3.72-0.848 1.096-0.472 2.112-1.080 3.064-1.8 0.192-0.144 0.24-0.096 0.296 0.104 0.056 0.216 0.128 0.424 0.184 0.64 0.040 0.136 0.096 0.208 0.256 0.2 0.488-0.016 0.984-0.008 1.472 0 0.184 0 0.208-0.048 0.152-0.224-0.208-0.648-0.4-1.296-0.6-1.944-0.032-0.144-0.040-0.272 0.112-0.408zM23.56 14.096c-0.232 0.888-0.4 1.792-0.704 2.664-0.392 1.128-1.208 1.4-2.272 1.2-0.344-0.064-0.504-0.288-0.52-0.648-0.008-0.256 0.040-0.496 0.096-0.744 0.24-0.976 0.48-1.96 0.728-2.936 0.040-0.16 0.008-0.184-0.136-0.184-0.432 0.008-0.856 0.008-1.288 0-0.12 0-0.176 0.048-0.2 0.16-0.296 1.216-0.608 2.424-0.88 3.64-0.192 0.864 0.184 1.528 0.976 1.768 0.608 0.184 1.232 0.184 1.848 0.032 0.424-0.104 0.808-0.304 1.224-0.536-0.048 0.224-0.080 0.416-0.12 0.632 0.584-0.264 1.136-0.52 1.688-0.76 0.088-0.040 0.128-0.104 0.152-0.2 0.392-1.576 0.784-3.144 1.184-4.72 0 0 0-0.008 0-0.008-0.32-0.008-0.64-0.016-0.968-0.016-0.64 0.016-0.632 0.016-0.808 0.656zM16.808 13.544c-0.936-0.192-1.808-0.008-2.616 0.48-0.144 0.088-0.256 0.104-0.416 0.048-0.336-0.136-0.696-0.224-1.032-0.36-0.208-0.080-0.264-0.024-0.312 0.176-0.416 1.696-0.84 3.392-1.264 5.088-0.048 0.184 0.008 0.208 0.168 0.208 0.4-0.008 0.808-0.016 1.208 0 0.176 0.008 0.232-0.064 0.264-0.224 0.128-0.552 0.264-1.112 0.408-1.664 0.152-0.592 0.264-1.208 0.544-1.76 0.2-0.4 0.504-0.696 0.944-0.824 0.336-0.096 0.688-0.112 1.032-0.056 0.52 0.080 0.672 0.296 0.656 0.832-0.008 0.192-0.032 0.376-0.080 0.56-0.24 0.96-0.48 1.92-0.728 2.88-0.048 0.184-0.040 0.288 0.192 0.256 0.184-0.024 0.376-0.008 0.56-0.008 0.104 0 0.216 0 0.32 0 0.488 0 0.496 0 0.608-0.48 0.272-1.088 0.552-2.176 0.792-3.28 0.224-1.016-0.24-1.672-1.248-1.872zM3.752 17.016c0.2-0.744 0.4-1.48 0.584-2.224 0.032-0.136 0.096-0.192 0.24-0.184 0.376 0.008 0.752 0 1.128 0.008 0.144 0 0.224-0.032 0.256-0.2 0.048-0.264 0.128-0.52 0.208-0.776 0.040-0.136 0.024-0.192-0.128-0.184-0.32 0.008-0.64 0-0.968 0-0.368 0-0.368 0-0.264-0.368 0.104-0.392 0.208-0.784 0.32-1.216-0.528 0.192-0.992 0.4-1.472 0.544-0.448 0.128-0.76 0.336-0.792 0.84-0.008 0.168-0.096 0.216-0.264 0.216-0.536 0-0.536 0.008-0.688 0.528-0.008 0.016-0.024 0.032-0.024 0.048-0.016 0.184-0.192 0.392-0.096 0.536 0.096 0.136 0.336 0.040 0.504 0.040 0.152 0 0.184 0.056 0.144 0.192-0.112 0.392-0.216 0.792-0.32 1.192-0.168 0.68-0.44 1.344-0.432 2.064 0.008 0.68 0.336 1.056 1.016 1.096 0.608 0.032 1.216 0.016 1.824 0.016 0.096 0 0.16-0.024 0.192-0.136 0.080-0.328 0.168-0.648 0.264-1.008-0.208 0-0.4-0.008-0.584 0-0.728 0.032-0.76-0.328-0.696-0.856 0.016-0.064 0.040-0.12 0.048-0.168zM9.304 11.12c-0.472 0.008-0.952 0.016-1.424 0-0.216-0.008-0.272 0.088-0.312 0.264-0.248 0.96-0.504 1.912-0.76 2.872-0.416 1.56-0.824 3.12-1.256 4.672-0.064 0.232 0.008 0.264 0.2 0.248 0.232-0.016 0.464 0 0.696 0 0.224 0 0.448-0.016 0.672 0.008 0.216 0.024 0.288-0.072 0.336-0.264 0.672-2.528 1.352-5.048 2.024-7.568 0.056-0.192 0.008-0.24-0.176-0.232zM11.616 13.488c-0.552 0-1.080 0.008-1.608-0.008-0.208-0.008-0.296 0.064-0.344 0.264-0.136 0.584-0.28 1.16-0.424 1.736-0.304 1.216-0.608 2.44-0.912 3.688 0.544 0 1.072-0.016 1.6 0.008 0.256 0.016 0.328-0.096 0.384-0.312 0.336-1.392 0.688-2.784 1.032-4.184 0.088-0.384 0.216-0.768 0.272-1.192zM10.848 13.28c0.6-0.040 1.152-0.52 1.312-1.104 0.128-0.48-0.136-0.952-0.584-1.040-0.736-0.144-1.576 0.536-1.6 1.296-0.040 0.608 0.448 0.872 0.872 0.848z"></path>
</svg>
