<!-- Generated by IcoMoon.io -->
<svg version="1.1" xmlns="http://www.w3.org/2000/svg" width="32" height="32" viewBox="0 0 32 32">
<title>tool</title>
<path d="M27 5v22h-22v-22h22zM29 3h-26v26h26v-26z"></path>
<path d="M10.875 7.338l-3.537 3.537 13.787 13.788 3.538-3.538-13.787-13.787zM10.653 8.972l-0.353-0.353 0.706-0.706 0.353 0.353-0.706 0.706zM10.653 10.387l-0.353-0.353 1.416-1.416 0.353 0.353-1.416 1.416zM12.066 10.387l-0.353-0.353 0.706-0.706 0.353 0.353-0.706 0.706zM12.775 11.094l-0.353-0.353 0.706-0.706 0.353 0.353-0.706 0.706zM12.775 12.509l-0.356-0.353 1.416-1.416 0.353 0.353-1.412 1.416zM14.188 12.509l-0.353-0.353 0.706-0.706 0.353 0.353-0.706 0.706zM14.894 13.216l-0.353-0.353 0.709-0.706 0.353 0.353-0.709 0.706zM14.894 14.631l-0.353-0.353 1.416-1.416 0.353 0.353-1.416 1.416zM16.309 14.631l-0.353-0.353 0.706-0.706 0.353 0.353-0.706 0.706zM17.016 15.338l-0.353-0.353 0.706-0.706 0.353 0.353-0.706 0.706zM17.016 16.75l-0.353-0.353 1.416-1.416 0.353 0.353-1.416 1.416zM18.431 16.75l-0.353-0.353 0.706-0.706 0.353 0.353-0.706 0.706zM19.137 17.459l-0.353-0.353 0.706-0.706 0.353 0.35-0.706 0.709zM19.137 18.872l-0.353-0.353 1.416-1.416 0.353 0.353-1.416 1.416zM20.553 18.872l-0.353-0.353 0.706-0.706 0.353 0.353-0.706 0.706zM21.259 19.581l-0.353-0.356 0.706-0.706 0.353 0.353-0.706 0.709zM21.259 20.994l-0.353-0.353 1.416-1.416 0.353 0.353-1.416 1.416zM22.672 20.994l-0.353-0.353 0.706-0.706 0.353 0.353-0.706 0.706zM23.381 21.7l-0.353-0.353 0.706-0.706 0.353 0.353-0.706 0.706z"></path>
<path d="M7.339 21.126l4.419-4.419 2.828 2.828-4.419 4.419-2.828-2.828z"></path>
<path d="M21.456 14.075l1.072-3.216-1.387-1.387-3.216 1.072-0.003-0.003-1.216 1.216 2.828 2.828 1.212-1.209 0.353 0.353-1.209 1.213 0.353 0.353 1.216-1.216z"></path>
<path d="M22.984 9.491c0.097-0.294-0.181-0.572-0.475-0.475l-0.841 0.281 1.034 1.034 0.281-0.841z"></path>
<path d="M10.519 24.308l4.419-4.419 0.354 0.354-4.419 4.419-0.354-0.354z"></path>
</svg>
