<?xml version="1.0" encoding="utf-8"?>
<!-- Generator: Adobe Illustrator 22.1.0, SVG Export Plug-In . SVG Version: 6.00 Build 0)  -->
<svg version="1.1" xmlns="http://www.w3.org/2000/svg" xmlns:xlink="http://www.w3.org/1999/xlink" x="0px" y="0px"
	 viewBox="0 0 64 64" style="enable-background:new 0 0 64 64;" xml:space="preserve">
<g id="辅助线">
</g>
<g id="小">
	<g id="圆">
		<path d="M32,4.1c-15.5,0-28,12.5-28,28s12.5,28,28,28c15.5,0,28-12.5,28-28S47.5,4.1,32,4.1z M40.2,39h-4.5v5.3
			c0,2-1.7,3.7-3.7,3.7s-3.7-1.7-3.7-3.7V39h-4.5c-1.9,0-2.9-2.3-1.5-3.7l8.2-8.2c0.8-0.8,2.2-0.8,3.1,0l8.2,8.2
			C43.1,36.6,42.1,39,40.2,39z M41.7,25.2H22.3c-1.5,0-2.8-1.3-2.8-2.8s1.3-2.8,2.8-2.8h19.4c1.5,0,2.8,1.3,2.8,2.8
			S43.2,25.2,41.7,25.2z"/>
	</g>
</g>
</svg>
