<!-- Generated by IcoMoon.io -->
<svg version="1.1" xmlns="http://www.w3.org/2000/svg" width="32" height="32" viewBox="0 0 32 32">
<title>tree-process-shape</title>
<path d="M16.5 10h-3v6.76h3c0.083 0.006 0.179 0.010 0.276 0.010 1.942 0 3.539-1.481 3.722-3.375-0.183-1.925-1.78-3.405-3.722-3.405-0.097 0-0.194 0.004-0.289 0.011z"></path>
<path d="M16 0c-8.837 0-16 7.163-16 16s7.163 16 16 16c8.837 0 16-7.163 16-16s-7.163-16-16-16zM16.5 18.76h-3v4.24c0 0.552-0.448 1-1 1s-1-0.448-1-1v-14c0-0.552 0.448-1 1-1h4c0.087-0.005 0.188-0.007 0.29-0.007 3.042 0 5.529 2.375 5.71 5.372-0.18 3.029-2.668 5.403-5.71 5.403-0.102 0-0.203-0.003-0.304-0.008z"></path>
</svg>
