<!-- Generated by IcoMoon.io -->
<svg version="1.1" xmlns="http://www.w3.org/2000/svg" width="32" height="32" viewBox="0 0 32 32">
<title>tree-Group</title>
<path d="M16 0c-8.82 0-16 7.18-16 16s7.18 16 16 16 16-7.18 16-16-7.18-16-16-16zM16 30c-7.72 0-14-6.28-14-14s6.28-14 14-14c7.72 0 14 6.28 14 14s-6.28 14-14 14zM22.58 15.26v6.82c0 0.28-0.22 0.5-0.5 0.5h-1c-0.28 0-0.5-0.22-0.5-0.5v-1.2c-1.2 1.3-2.92 2.040-4.84 2.040-3.34 0-6.74-2.58-6.74-7.54 0-4.4 2.92-7.46 7.080-7.46 3.94 0 5.36 2.14 6.16 3.98 0.060 0.14 0.060 0.3-0.020 0.44s-0.22 0.24-0.36 0.28l-1.040 0.16c-0.24 0.040-0.46-0.1-0.54-0.32-0.7-1.84-2.1-2.78-4.2-2.78-2.96 0-5.040 2.36-5.040 5.72 0 3.3 2.060 5.8 4.76 5.8 2.080 0 3.84-1.24 4.72-3.34v-1.36h-4.36c-0.28 0-0.5-0.24-0.5-0.5v-0.74c0-0.28 0.22-0.5 0.5-0.5h5.92c0.26 0 0.5 0.22 0.5 0.5z"></path>
</svg>
