<!-- Generated by IcoMoon.io -->
<svg version="1.1" xmlns="http://www.w3.org/2000/svg" width="32" height="32" viewBox="0 0 32 32">
<title>tree-group-shape</title>
<path d="M16 0c-8.837 0-16 7.163-16 16s7.163 16 16 16c8.837 0 16-7.163 16-16s-7.163-16-16-16zM22.58 22c0 0.276-0.224 0.5-0.5 0.5h-1c-0.276 0-0.5-0.224-0.5-0.5v-1.2c-1.182 1.235-2.843 2.002-4.684 2.002-0.055 0-0.11-0.001-0.164-0.002-3.743-0.091-6.749-3.154-6.749-6.918 0-0.17 0.006-0.338 0.018-0.504-0.010-0.109-0.015-0.263-0.015-0.418 0-3.844 3.116-6.96 6.96-6.96 0.019 0 0.038 0 0.057 0 0.146-0.013 0.318-0.021 0.493-0.021 2.604 0 4.821 1.659 5.651 3.979 0.041 0.102 0.057 0.173 0.057 0.248 0 0.249-0.183 0.456-0.421 0.494l-1.043 0.16c-0.026 0.005-0.055 0.008-0.085 0.008-0.211 0-0.389-0.136-0.454-0.324-0.503-1.679-2.031-2.88-3.84-2.88-0.127 0-0.253 0.006-0.377 0.018-2.761 0.105-4.973 2.382-4.973 5.175 0 0.191 0.010 0.38 0.031 0.567-0.002 3.277 1.998 5.777 4.758 5.777 2.162-0.017 4-1.387 4.709-3.305l0.011-1.395h-4.36c-0.276 0-0.5-0.224-0.5-0.5v-0.74c0-0.276 0.224-0.5 0.5-0.5h6c0.276 0 0.5 0.224 0.5 0.5z"></path>
</svg>
