<!-- Generated by IcoMoon.io -->
<svg version="1.1" xmlns="http://www.w3.org/2000/svg" width="32" height="32" viewBox="0 0 32 32">
<title>tree-application-shape</title>
<path d="M13.52 18h4.9l-2.48-8.14-2.42 8.14z"></path>
<path d="M16 0c-8.837 0-16 7.163-16 16s7.163 16 16 16c8.837 0 16-7.163 16-16s-7.163-16-16-16zM21.3 24h-0.3c-0.002 0-0.004 0-0.006 0-0.445 0-0.822-0.291-0.952-0.693l-1.002-3.307h-6l-1.040 3.3c-0.13 0.438-0.528 0.751-1 0.751-0.575 0-1.041-0.466-1.041-1.041 0-0.103 0.015-0.203 0.043-0.297l4.158-13.433c0.306-0.736 1.020-1.244 1.852-1.244 0.778 0 1.452 0.444 1.783 1.093l4.205 13.571c0.036 0.098 0.056 0.212 0.056 0.33 0 0.466-0.318 0.857-0.749 0.968z"></path>
</svg>
