<!-- Generated by IcoMoon.io -->
<svg version="1.1" xmlns="http://www.w3.org/2000/svg" width="32" height="32" viewBox="0 0 32 32">
<title>tree-module-shape</title>
<path d="M16 0c-8.837 0-16 7.163-16 16s7.163 16 16 16c8.837 0 16-7.163 16-16s-7.163-16-16-16zM22 24v0c-0.552 0-1-0.448-1-1l-0.1-12.8-4 9.18v0.14c-0.036 0.060-0.076 0.113-0.121 0.161-0.063 0.061-0.135 0.114-0.214 0.157l-0.005 0.003h-0.94l-0.2-0.14c-0.044-0.047-0.083-0.1-0.118-0.156l-0.002-0.144-4-9.12-0.3 12.72c0 0.552-0.448 1-1 1v0c-0.552 0-1-0.448-1-1l0.2-13.84c0.335-0.662 1.011-1.108 1.79-1.108s1.455 0.446 1.785 1.096l3.225 7.351 3.2-7.32c0.331-0.673 1.013-1.128 1.8-1.128s1.469 0.455 1.795 1.117l0.005 0.432 0.12 13.42c-0.009 0.517-0.409 0.938-0.916 0.98z"></path>
</svg>
