<!-- Generated by IcoMoon.io -->
<svg version="1.1" xmlns="http://www.w3.org/2000/svg" width="32" height="32" viewBox="0 0 32 32">
<title>tree-application</title>
<path d="M16 0c-8.82 0-16 7.18-16 16s7.18 16 16 16 16-7.18 16-16-7.18-16-16-16zM16 30c-7.72 0-14-6.28-14-14s6.28-14 14-14c7.72 0 14 6.28 14 14s-6.28 14-14 14zM17.8 9.14c-0.68-1.4-2.86-1.54-3.64 0.14l-4.12 13.42c-0.16 0.52 0.14 1.080 0.66 1.26 0.54 0.16 1.080-0.14 1.24-0.66l0.98-3.3c0.040-0.020 0.060 0 0.080 0h6c0.020 0 0.020 0 0.040 0l1.020 3.3c0.12 0.42 0.52 0.7 0.94 0.7 0.1 0 0.2-0.020 0.3-0.040 0.52-0.16 0.82-0.72 0.66-1.26l-4.16-13.56zM13.52 18l2.4-8.14 2.5 8.14h-4.9z"></path>
</svg>
