<!-- Generated by IcoMoon.io -->
<svg version="1.1" xmlns="http://www.w3.org/2000/svg" width="32" height="32" viewBox="0 0 32 32">
<title>tree-process</title>
<path d="M16 0c-8.82 0-16 7.18-16 16s7.18 16 16 16 16-7.18 16-16-7.18-16-16-16zM16 30c-7.72 0-14-6.28-14-14s6.28-14 14-14c7.72 0 14 6.28 14 14s-6.28 14-14 14zM16.5 8h-4c-0.56 0-1 0.44-1 1v14c0 0.56 0.44 1 1 1s1-0.44 1-1v-4.24h3c3.3 0 6-2.42 6-5.38s-2.7-5.38-6-5.38zM16.5 16.76h-3v-6.76h3c2.2 0 4 1.52 4 3.38s-1.8 3.38-4 3.38z"></path>
</svg>
