<!-- Generated by IcoMoon.io -->
<svg version="1.1" xmlns="http://www.w3.org/2000/svg" width="32" height="32" viewBox="0 0 32 32">
<title>tree-module</title>
<path d="M16 0c-8.82 0-16 7.18-16 16s7.18 16 16 16 16-7.18 16-16-7.18-16-16-16zM16 30c-7.72 0-14-6.28-14-14s6.28-14 14-14c7.72 0 14 6.28 14 14s-6.28 14-14 14zM22.88 9.56l0.12 13.42c0 0.56-0.44 1-1 1 0 0 0 0 0 0-0.54 0-1-0.44-1-1l-0.1-12.8-3.98 9.22c-0.020 0.060-0.060 0.080-0.1 0.14s-0.060 0.12-0.12 0.16c-0.060 0.060-0.14 0.12-0.22 0.16-0.020 0.020-0.040 0.040-0.080 0.060 0 0 0 0-0.020 0-0.080 0.040-0.16 0.040-0.26 0.060-0.040 0-0.080 0.020-0.12 0.020s-0.080-0.020-0.12-0.020c-0.1-0.020-0.18-0.020-0.26-0.060 0 0 0 0-0.020 0-0.040-0.020-0.060-0.060-0.1-0.080-0.080-0.040-0.14-0.080-0.2-0.14-0.060-0.040-0.080-0.1-0.12-0.16s-0.080-0.080-0.1-0.14l-3.98-9.12-0.1 12.72c0 0.56-0.46 1-1 1 0 0 0 0 0 0-0.56 0-1-0.46-1-1l0.2-13.84c0.68-1.42 2.92-1.42 3.58 0l3.22 7.34 3.2-7.32c0.7-1.48 2.92-1.44 3.6-0.040l0.080 0.42z"></path>
</svg>
