<!-- Generated by IcoMoon.io -->
<svg version="1.1" xmlns="http://www.w3.org/2000/svg" width="32" height="32" viewBox="0 0 32 32">
<title>un-full-screen</title>
<path d="M12 1v10c0 0.56-0.44 1-1 1h-10c-0.56 0-1-0.44-1-1s0.44-1 1-1h9v-9c0-0.56 0.44-1 1-1s1 0.44 1 1zM21 12h10c0.56 0 1-0.44 1-1s-0.44-1-1-1h-9v-9c0-0.56-0.44-1-1-1s-1 0.44-1 1v10c0 0.56 0.44 1 1 1zM11 20h-10c-0.56 0-1 0.44-1 1s0.44 1 1 1h9v9c0 0.56 0.44 1 1 1s1-0.44 1-1v-10c0-0.56-0.44-1-1-1zM31 20h-10c-0.56 0-1 0.44-1 1v10c0 0.56 0.44 1 1 1s1-0.44 1-1v-9h9c0.56 0 1-0.44 1-1s-0.44-1-1-1z"></path>
</svg>
