<!-- Generated by IcoMoon.io -->
<svg version="1.1" xmlns="http://www.w3.org/2000/svg" width="24" height="32" viewBox="0 0 24 32">
<title>unlock-shape</title>
<path d="M21.066 11.937h-15.047v-4.013c0-0.241 0.823-6.019 6.34-6.019 0 0 0 0 0 0 2.988 0 5.441 2.293 5.696 5.215 0.054 0.553 0.499 0.965 1.040 0.965 0.009 0 0.017-0 0.026-0 0.527-0.032 0.944-0.468 0.944-1.001 0-0.022-0.001-0.043-0.002-0.065-0.271-3.986-3.573-7.12-7.607-7.12-0.020 0-0.040 0-0.060 0-4.472 0.078-8.104 3.584-8.382 8l-0.001 4.037h-1.003c-1.662 0-3.009 1.347-3.009 3.009v14.044c0 1.662 1.347 3.009 3.009 3.009h18.056c1.662 0 3.009-1.347 3.009-3.009v-14.044c0-1.662-1.347-3.009-3.009-3.009zM13.041 23.975c0 0.554-0.449 1.003-1.003 1.003s-1.003-0.449-1.003-1.003v-4.013c0-0.554 0.449-1.003 1.003-1.003s1.003 0.449 1.003 1.003z"></path>
</svg>
