<!-- Generated by IcoMoon.io -->
<svg version="1.1" xmlns="http://www.w3.org/2000/svg" width="32" height="32" viewBox="0 0 32 32">
<title>up-shape</title>
<path d="M28 20.98c0-0.080-0.020-0.14-0.040-0.22-0.020-0.060-0.020-0.12-0.040-0.16s-0.040-0.080-0.060-0.1c-0.040-0.080-0.080-0.14-0.14-0.2 0 0 0 0 0-0.020l-11.14-12c-0.32-0.36-0.84-0.36-1.16 0l-11.14 12c0 0 0 0.020 0 0.020-0.060 0.060-0.080 0.12-0.12 0.2-0.020 0.040-0.060 0.080-0.080 0.12s-0.020 0.1-0.040 0.16c-0.020 0.040-0.040 0.12-0.040 0.2 0 0 0 0.020 0 0.020 0 0.060 0.020 0.1 0.020 0.14 0 0.080 0.020 0.14 0.040 0.22s0.060 0.14 0.1 0.2c0.020 0.040 0.040 0.080 0.060 0.12 0 0 0 0 0.020 0.020 0.040 0.060 0.1 0.1 0.16 0.14 0.040 0.020 0.080 0.060 0.12 0.080s0.080 0.020 0.12 0.040c0.060 0 0.12 0.040 0.2 0.040 0 0 0.020 0 0.020 0h22.28c0.12 0 0.24-0.020 0.34-0.080 0.020 0 0.020-0.020 0.040-0.020 0.1-0.060 0.18-0.12 0.26-0.2 0 0 0 0 0.020 0 0.020-0.040 0.040-0.080 0.060-0.12 0.040-0.060 0.080-0.12 0.1-0.2 0.020-0.060 0.020-0.14 0.040-0.22 0-0.060 0.020-0.1 0.020-0.14-0.020-0.020-0.020-0.040-0.020-0.040z"></path>
</svg>
