<!-- Generated by IcoMoon.io -->
<svg version="1.1" xmlns="http://www.w3.org/2000/svg" width="32" height="32" viewBox="0 0 32 32">
<title>upload</title>
<path d="M31 19c-0.552 0-1 0.448-1 1v8c0 0.552-0.448 1-1 1h-26c-0.552 0-1-0.448-1-1v-8c0-0.552-0.448-1-1-1s-1 0.448-1 1v8c0 1.657 1.343 3 3 3h26c1.657 0 3-1.343 3-3v-8c0-0.552-0.448-1-1-1z"></path>
<path d="M11.62 6.78l3.38-2.7v20c0 0.552 0.448 1 1 1s1-0.448 1-1v-20l3.38 2.7c0.171 0.139 0.39 0.223 0.63 0.223 0.554 0 1.003-0.449 1.003-1.003 0-0.314-0.145-0.595-0.371-0.779l-5.002-4.001c-0.155-0.123-0.354-0.198-0.57-0.198s-0.415 0.075-0.572 0.199l0.002-0.001-5 4c-0.228 0.185-0.373 0.466-0.373 0.78 0 0.554 0.449 1.003 1.003 1.003 0.239 0 0.459-0.084 0.632-0.224z"></path>
</svg>
