<svg xmlns="http://www.w3.org/2000/svg" viewBox="0 0 16 16" class="design-iconfont">
  <path d="M11.7192407,8 C11.9775603,8 12.2366048,8.03003102 12.2924288,8.03906257 C12.3843874,8.05468757 12.4614339,8.11481256 12.5005038,8.19703756 L12.5223254,8.26250006 L12.6209634,8.75781256 C12.638827,8.84843756 12.7001846,8.92578131 12.7856191,8.96171881 C12.9976521,9.05156256 13.1957049,9.16718756 13.3758941,9.3054688 C13.4318149,9.3476563 13.5004053,9.36699224 13.5682311,9.36149908 L13.6353045,9.3476563 L14.1090778,9.1867188 C14.2201427,9.14921881 14.3428578,9.1851563 14.4166422,9.2757813 L14.5458619,9.44511724 L14.5458619,9.44511724 L14.665179,9.6226563 L14.8096411,9.87343755 C14.8756587,10.0007813 14.9346862,10.1328125 14.9851702,10.2695313 C15.01748,10.3570313 15.0035619,10.4530313 14.9521645,10.5275313 L14.9067258,10.5789063 L14.5277071,10.9140625 C14.4578061,10.9757813 14.4236323,11.0679688 14.4345058,11.1609375 C14.4469326,11.2703125 14.4539227,11.3820313 14.4539227,11.4953125 C14.4539227,11.6109375 14.4469326,11.725 14.4329524,11.8367188 C14.4247973,11.9064453 14.4419813,11.9761719 14.4805724,12.0327149 L14.5261537,12.084375 L14.9028424,12.4179688 C14.9906069,12.4953125 15.0216741,12.61875 14.9805101,12.7289063 C14.8445915,13.0929688 14.6496455,13.428125 14.4080987,13.7226563 C14.3490712,13.7951563 14.2592251,13.8316563 14.1691802,13.8241563 L14.1020877,13.8101563 L13.6259843,13.6484375 C13.5382197,13.61875 13.441135,13.6351563 13.366574,13.6914063 C13.1894915,13.8257813 12.9953221,13.9398438 12.7879491,14.028125 C12.7232907,14.0556641 12.6721756,14.1056152 12.643123,14.1674316 L12.6217401,14.2328125 L12.5231021,14.7289063 C12.4998017,14.84375 12.4089304,14.9328125 12.2939822,14.9523438 C12.1068028,14.9835938 11.9149635,15 11.7192407,15 C11.5266246,15 11.3371153,14.984375 11.1530427,14.9539063 C11.0610841,14.9382813 10.9840376,14.8781563 10.9453653,14.7959313 L10.9239228,14.7304688 L10.8252847,14.2359375 C10.8074211,14.1453125 10.7460636,14.0679688 10.6606291,14.0320313 C10.4509261,13.9429688 10.25365,13.828125 10.0742374,13.6921875 C10.0183166,13.65 9.9497263,13.6306641 9.88190049,13.6361572 L9.8148271,13.65 L9.33794702,13.8125 C9.2276588,13.85 9.10572041,13.8148438 9.03193603,13.725 C8.9936639,13.6784982 8.83762678,13.4979733 8.71251434,13.2812817 C8.62496489,13.1296483 8.54063498,12.9468252 8.4595246,12.7328125 C8.42659347,12.6446875 8.43989019,12.5480625 8.49146159,12.4733375 L8.53719237,12.421875 L8.91388103,12.0890625 C8.98378201,12.0273438 9.01873251,11.9351563 9.00708234,11.8429688 C8.99232547,11.7296875 8.98533537,11.6132813 8.98533537,11.4953125 C8.98533537,11.3804688 8.99232547,11.2671875 9.00630567,11.1554688 C9.01504329,11.0857422 8.99756804,11.0160157 8.95879484,10.9594727 L8.91310435,10.9078125 L8.53563901,10.5742188 C8.44787444,10.496875 8.41680733,10.3734375 8.45797125,10.2632813 C8.49292174,10.1695313 8.53175562,10.078125 8.57369622,9.98906255 L8.57884171,9.9789063 L8.57884171,9.9789063 L8.5845697,9.96875005 L8.83310655,9.53593755 L8.84553339,9.51562505 C8.90300754,9.43281255 8.96281172,9.3523438 9.02649929,9.2742188 C9.08552679,9.2017188 9.17586993,9.16471881 9.26611366,9.1720188 L9.33328696,9.18593755 L9.807837,9.3476563 C9.89637825,9.3773438 9.99346296,9.3617188 10.068024,9.30468755 C10.2505433,9.16562506 10.4493727,9.04921881 10.6629591,8.95937506 C10.727035,8.93242193 10.7780045,8.88261725 10.8070207,8.82083746 L10.8283914,8.75546881 L10.9262528,8.26171881 C10.9487765,8.14609381 11.0404244,8.05703132 11.1561494,8.03828132 C11.2086862,8.02973268 11.4636193,8 11.7192407,8 Z M11.9367104,8.50000006 L11.4870141,8.50078131 L11.4761406,8.50156256 C11.4347825,8.50507819 11.3991039,8.52880865 11.3792622,8.56319586 L11.3650757,8.60078131 L11.2850779,9.00390631 L11.243914,9.21250005 C11.2382183,9.24062505 11.2228574,9.26562505 11.201283,9.28356487 L11.1646929,9.30468755 L10.9650867,9.37656255 C10.7757715,9.4445313 10.5978153,9.53754888 10.4338392,9.65363775 L10.2746203,9.7773438 L10.1130713,9.9148438 C10.0913243,9.9335938 10.0640543,9.94366324 10.0360939,9.94412621 L9.99423963,9.93750005 L9.7938568,9.8695313 L9.40551798,9.73750005 C9.35348058,9.7195313 9.29600643,9.7382813 9.26493932,9.7835938 C9.26416265,9.78437505 9.26338597,9.78593755 9.26260929,9.7867188 L9.25989092,9.7914063 L9.25717255,9.7960938 L9.02183922,10.20625 L9.01950919,10.2109375 L9.01717915,10.215625 L9.00629353,10.2543702 C9.00335672,10.2806885 9.00891482,10.3072998 9.02209407,10.3301026 L9.04746958,10.3609375 L9.35658729,10.634375 L9.51502953,10.7742188 C9.53625871,10.7934896 9.55023891,10.8190105 9.55489898,10.8466146 L9.55464009,10.8890625 L9.51813624,11.0976563 C9.49483591,11.228125 9.48318574,11.3625 9.48318574,11.4960938 C9.48318574,11.5867188 9.48836359,11.6773438 9.49894942,11.7668114 L9.51891291,11.9 L9.55619344,12.109375 C9.56137129,12.1375 9.55653863,12.1663195 9.54307622,12.1909722 L9.51658288,12.2242188 L9.35736396,12.3648438 L9.05057629,12.6367188 C9.00941238,12.6734375 8.99776221,12.7328125 9.02106254,12.7828125 C9.02805264,12.7976563 9.03581942,12.8125 9.04280952,12.8273438 L9.04475121,12.8308594 L9.0466929,12.834375 L9.22921215,13.1523438 C9.23076551,13.1546875 9.23231886,13.1570313 9.23387222,13.159375 C9.24552238,13.178125 9.2587259,13.196875 9.27115274,13.2148438 C9.29445307,13.2482422 9.33217048,13.2671387 9.37152619,13.2672486 L9.41095472,13.2609375 L9.80317693,13.128125 L10.0020064,13.0601563 C10.0289312,13.0507813 10.0582724,13.0514757 10.0845068,13.0613137 L10.1208381,13.0828125 L10.282387,13.21875 C10.4350042,13.3482422 10.6029122,13.4557617 10.7825068,13.5393311 L10.9658634,13.6148438 L11.1646929,13.6867188 C11.1916177,13.6966146 11.214055,13.715191 11.228553,13.7392072 L11.243914,13.7789063 L11.2850779,13.9875 L11.3650757,14.390625 C11.3751725,14.4453125 11.4209965,14.4851563 11.4761406,14.4898438 C11.5576917,14.496875 11.6392429,14.5000001 11.720794,14.5000001 C11.8054519,14.5000001 11.8901098,14.4960938 11.973991,14.4890625 C12.0147665,14.4855469 12.0502995,14.4618164 12.0701048,14.4274292 L12.0842792,14.3898438 L12.1650537,13.9835938 L12.2062176,13.7757813 C12.2119132,13.7476563 12.226929,13.7226563 12.2482732,13.7047164 L12.284662,13.6835938 L12.4827148,13.6109375 C12.6685349,13.5429688 12.843433,13.4512695 13.0047878,13.3371582 L13.1615311,13.215625 L13.32308,13.0789063 C13.344827,13.0601563 13.372097,13.0500868 13.4000574,13.0496239 L13.4419117,13.05625 L13.6415179,13.1242188 L14.0314101,13.2570313 C14.0834475,13.275 14.1409216,13.25625 14.1719887,13.2109375 C14.219366,13.1429688 14.2636367,13.0734375 14.3048006,13.0015625 C14.3475179,12.9273438 14.3871284,12.8523438 14.4228556,12.7757813 C14.4403308,12.7382813 14.4377095,12.6955078 14.4179407,12.6609741 L14.3925652,12.6296875 L14.0834475,12.3570313 L13.9250052,12.2171875 C13.903776,12.1979167 13.8897958,12.1723959 13.8851358,12.1447917 L13.8853947,12.1023438 L13.9218985,11.89375 C13.9451988,11.7632813 13.956849,11.6296875 13.956849,11.4953125 C13.956849,11.4072917 13.9516711,11.3192709 13.9415456,11.232176 L13.9226752,11.1023438 L13.8861713,10.8945313 C13.8815113,10.8658855 13.8865165,10.8372396 13.9000365,10.8127605 L13.9265586,10.7796875 L14.0842241,10.640625 L14.3933418,10.36875 C14.4345058,10.3320313 14.4469326,10.2734375 14.4236323,10.2234375 L14.3984873,10.169629 L14.3984873,10.169629 L14.3715949,10.1164063 L14.2380063,9.8835938 C14.2178127,9.85156255 14.1968424,9.8195313 14.1750954,9.7882813 C14.1517951,9.75429692 14.1136408,9.7348145 14.0740666,9.73477788 L14.0345168,9.7414063 L13.6461779,9.87343755 L13.4457951,9.9414063 C13.4188703,9.9507813 13.3895291,9.95008685 13.3632947,9.94024889 L13.3269634,9.91875005 L13.1654145,9.78125005 C13.0122148,9.65058599 12.8445981,9.54233404 12.6645302,9.45781255 L12.4803848,9.38125005 L12.282332,9.3085938 C12.2554072,9.29869797 12.233315,9.27977436 12.2190471,9.25575816 L12.2038875,9.2164063 L12.1627236,9.00781256 L12.0819492,8.60234381 C12.0710757,8.54843756 12.0260284,8.50781256 11.9716609,8.50312506 C11.9600108,8.50156256 11.9483606,8.50078131 11.9367104,8.50000006 Z M8,9.08559499 C8.07790192,9.08559499 8.15860479,9.08699838 8.24180648,9.08980391 L8.19407051,9.13828132 C8.11218649,9.23872775 8.03529541,9.34218757 7.96140008,9.44866078 L7.94542271,9.47477685 L7.72718085,9.85668745 C6.75784189,9.90210924 5.34893665,10.1801181 4.11875,10.7275 C3.040625,11.215 2.34152832,11.8167578 2.25835266,12.3319296 L2.25,12.43375 L2.25,13.75 L7.531,13.75 L7.54409277,13.7838951 C7.62385863,13.9752267 7.7059529,14.1440014 7.79037558,14.2902194 C7.83307547,14.3641745 7.87857701,14.4348531 7.92330442,14.4999018 L2.04166667,14.5 C1.77354167,14.5 1.54929167,14.3021503 1.50712292,14.0449457 L1.5,13.9572025 L1.5,12.32881 C1.5,10.17119 5.83333333,9.08559499 8,9.08559499 Z M11.7200174,10.2460938 C12.4066004,10.2460938 12.9627016,10.8054688 12.9627016,11.4960938 C12.9627016,12.1867188 12.4066004,12.7460938 11.7200174,12.7460938 C11.0334343,12.7460938 10.4773331,12.1867188 10.4773331,11.4960938 C10.4773331,10.8054688 11.0334343,10.2460938 11.7200174,10.2460938 Z M11.7200174,10.7460938 C11.3091549,10.7460938 10.9744068,11.0828125 10.9744068,11.4960938 C10.9744068,11.909375 11.3091549,12.2460938 11.7200174,12.2460938 C12.1308798,12.2460938 12.4656279,11.909375 12.4656279,11.4960938 C12.4656279,11.0828125 12.1308798,10.7460938 11.7200174,10.7460938 Z M8,1.5 C9.7875,1.5 11.2364583,2.9519833 11.2364583,4.74321503 C11.2364583,6.53444676 9.77395833,8 7.98645833,8 C6.11770833,8 4.628125,6.42588727 4.75,4.52609603 C4.85432099,2.97108173 6.08878601,1.69290159 7.63113389,1.51553342 L7.81041667,1.5 L8,1.5 Z M7.99293534,2.25 C7.93050873,2.25 7.88368876,2.25 7.8368688,2.265625 C6.60394313,2.328125 5.57390396,3.34375 5.49587069,4.578125 C5.44905072,5.28125 5.68315053,5.9375 6.16695681,6.453125 C6.65076309,6.96875 7.29063591,7.25 7.99293534,7.25 C9.3663209,7.25 10.49,6.125 10.49,4.75 C10.49,3.375 9.3663209,2.25 7.99293534,2.25 Z" fill="#63656E" fill-rule="evenodd"/>
</svg>
