<!-- Generated by IcoMoon.io -->
<svg version="1.1" xmlns="http://www.w3.org/2000/svg" width="29" height="32" viewBox="0 0 29 32">
<title>user</title>
<path d="M19.080 17.22c2.815-1.619 4.68-4.61 4.68-8.036 0-5.103-4.137-9.24-9.24-9.24s-9.24 4.137-9.24 9.24c0 3.426 1.865 6.417 4.635 8.013-5.801 1.987-9.94 7.41-9.955 13.802 0 0.554 0.448 1.002 1 1.002s1-0.448 1-1c0-6.92 5.61-12.53 12.53-12.53s12.53 5.61 12.53 12.53c0 0.552 0.448 1 1 1s1-0.448 1-1c-0.006-6.379-4.119-11.796-9.838-13.75zM7.28 9.22c0.011-3.99 3.248-7.22 7.24-7.22 3.999 0 7.24 3.241 7.24 7.24s-3.241 7.24-7.24 7.24c-3.999 0-7.24-3.241-7.24-7.24z"></path>
</svg>
