<!-- Generated by IcoMoon.io -->
<svg version="1.1" xmlns="http://www.w3.org/2000/svg" width="32" height="32" viewBox="0 0 32 32">
<title>vs-result</title>
<path d="M3 3v26h26v-26h-26zM27 27h-22v-15h22v15zM27 10h-22v-5h22v5z"></path>
<path d="M25 14.5h-6v2h6z"></path>
<path d="M9 6.5h-2v2h2z"></path>
<path d="M13 6.5h-2v2h2z"></path>
<path d="M17 6.5h-2v2h2z"></path>
<path d="M25 18.5h-6v2h6z"></path>
<path d="M25 22.5h-6v2h6z"></path>
<path d="M12 16.5v-1.984c-2.762 0-5 2.238-5 5s2.238 5 5 5c2.762 0 5-2.238 5-5h-2c0 1.653-1.347 3-3 3s-3-1.347-3-3c0-1.653 1.347-3 3-3z"></path>
<path d="M18.063 18.453c0-2.762-2.238-5-5-5v4.984l5 0.016z"></path>
</svg>
