<svg width="473" height="429" viewBox="0 0 473 429" fill="none" xmlns="http://www.w3.org/2000/svg">
<path fill-rule="evenodd" clip-rule="evenodd" d="M317.484 150.743H218.719L292.122 23.7567C318.976 -15.8914 360.452 0.803677 374.178 25.2484L462.307 177.934C475.283 200.398 475.283 228.075 462.307 250.538L370.804 408.95C363.899 420.902 351.139 428.266 337.331 428.266C323.523 428.266 310.764 420.903 303.859 408.951L271.161 352.35L245.872 307.539L294.509 223.477L333.421 295.85L384.52 212.961L333.001 123.319L317.484 150.743ZM87.5188 212.954L210.04 0.201227L154.331 0.20123C128.379 0.201231 104.399 14.0395 91.4233 36.5033L9.73184 177.928C-3.24395 200.392 -3.24395 228.068 9.73185 250.532L101.235 408.943C108.139 420.896 120.899 428.259 134.708 428.259C148.516 428.259 161.275 420.896 168.18 408.944L298.972 182.54H200.445L135.037 295.844L87.5188 212.954Z" fill="white"/>
<path fill-rule="evenodd" clip-rule="evenodd" d="M374.178 25.2484C360.452 0.803677 318.976 -15.8914 292.122 23.7567L218.719 150.743H317.484L333.001 123.319L384.52 212.961L333.421 295.85L294.509 223.477L245.872 307.539L271.161 352.35L303.859 408.951C310.764 420.903 323.523 428.266 337.331 428.266C351.139 428.266 363.899 420.902 370.804 408.95L462.307 250.538C475.283 228.075 475.283 200.398 462.307 177.934L374.178 25.2484ZM286.696 343.496L319.349 400.02C323.061 406.445 329.917 410.398 337.331 410.398C344.745 410.398 351.601 406.444 355.313 400.019L446.816 241.608C456.599 224.671 456.599 203.802 446.816 186.865L358.578 33.9903C354.295 26.3619 345.164 19.5722 335.465 18.1443C327.386 16.9548 317.024 19.1751 307.271 33.2778L249.7 132.876H307.049L332.879 87.2225L405.327 213.281L332.362 331.641L293.936 260.171L266.466 307.649L286.696 343.496ZM87.5188 212.954L210.04 0.201227L154.331 0.20123C128.379 0.201231 104.399 14.0395 91.4233 36.5033L9.73184 177.928C-3.24395 200.392 -3.24395 228.068 9.73185 250.532L101.235 408.943C108.139 420.896 120.899 428.259 134.708 428.259C148.516 428.259 161.275 420.896 168.18 408.944L298.972 182.54H200.445L135.037 295.844L87.5188 212.954ZM210.777 200.408L134.983 331.702L66.8966 212.934L179.117 18.0687L154.331 18.0687C134.773 18.0687 116.697 28.4974 106.914 45.4336L25.2228 186.858C15.4393 203.796 15.4393 224.664 25.2228 241.602L116.726 400.012C120.437 406.438 127.293 410.391 134.708 410.391C142.122 410.391 148.977 406.438 152.689 400.013L268 200.408H210.777Z" fill="white"/>
</svg>
