

<svg class="bk-icon" style="fill: #FF9C01;" viewBox="0 0 1024 1024" version="1.1" xmlns="http://www.w3.org/2000/svg">



























<g>
	<path fill="#FF9C01" d="M512,896c-51.9,0-102.1-10.1-149.4-30.2c-45.7-19.3-86.8-47-122.1-82.3s-63-76.4-82.3-122.1
		c-20-47.3-30.2-97.6-30.2-149.4s10.1-102.1,30.2-149.4c19.3-45.7,47-86.8,82.3-122.1s76.4-63,122.1-82.3
		c47.3-20,97.6-30.2,149.4-30.2s102.1,10.1,149.4,30.2c45.7,19.3,86.8,47,122.1,82.3s63,76.4,82.3,122.1
		c20,47.3,30.2,97.6,30.2,149.4s-10.1,102.1-30.2,149.4c-19.3,45.7-47,86.8-82.3,122.1s-76.4,63-122.1,82.3
		C614.1,885.9,563.9,896,512,896 M512,960c247.4,0,448-200.6,448-448S759.4,64,512,64S64,264.6,64,512S264.6,960,512,960L512,960z"></path>
	<g>
		<path fill="#FF9C01" d="M544,640 480,640 480,704 544,704 544,640 		z"></path>
	</g>
	<g>
		<path fill="#FF9C01" d="M544,320 480,320 480,576 544,576 544,320 		z"></path>
	</g>
</g>

























































</svg>
