<svg width="473" height="429" viewBox="0 0 473 429" fill="none" xmlns="http://www.w3.org/2000/svg">
<g opacity="0.4">
<path fill-rule="evenodd" clip-rule="evenodd" d="M317.484 150.977H218.719L292.122 23.9911C318.976 -15.6571 360.452 1.03805 374.178 25.4828L462.307 178.169C475.283 200.633 475.283 228.309 462.307 250.773L370.804 409.184C363.899 421.137 351.139 428.5 337.331 428.5C323.523 428.5 310.764 421.137 303.859 409.185L271.161 352.584L245.872 307.773L294.509 223.712L333.421 296.085L384.52 213.195L333.001 123.553L317.484 150.977ZM87.5188 213.189L210.04 0.435602L154.331 0.435605C128.379 0.435606 104.399 14.2739 91.4233 36.7376L9.73184 178.162C-3.24395 200.626 -3.24395 228.303 9.73185 250.766L101.235 409.177C108.139 421.13 120.899 428.493 134.708 428.493C148.516 428.493 161.275 421.131 168.18 409.179L298.972 182.775H200.445L135.037 296.078L87.5188 213.189Z" fill="white"/>
<path fill-rule="evenodd" clip-rule="evenodd" d="M374.178 25.4828C360.452 1.03805 318.976 -15.6571 292.122 23.9911L218.719 150.977H317.484L333.001 123.553L384.52 213.195L333.421 296.085L294.509 223.712L245.872 307.773L271.161 352.584L303.859 409.185C310.764 421.137 323.523 428.5 337.331 428.5C351.139 428.5 363.899 421.137 370.804 409.184L462.307 250.773C475.283 228.309 475.283 200.633 462.307 178.169L374.178 25.4828ZM286.696 343.73L319.349 400.254C323.061 406.679 329.917 410.632 337.331 410.632C344.745 410.632 351.601 406.679 355.313 400.254L446.816 241.842C456.599 224.905 456.599 204.036 446.816 187.099L358.578 34.2247C354.295 26.5963 345.164 19.8066 335.465 18.3787C327.386 17.1892 317.024 19.4095 307.271 33.5122L249.7 133.11H307.049L332.879 87.4569L405.327 213.515L332.362 331.875L293.936 260.406L266.466 307.884L286.696 343.73ZM87.5188 213.189L210.04 0.435602L154.331 0.435605C128.379 0.435606 104.399 14.2739 91.4233 36.7376L9.73184 178.162C-3.24395 200.626 -3.24395 228.303 9.73185 250.766L101.235 409.177C108.139 421.13 120.899 428.493 134.708 428.493C148.516 428.493 161.275 421.131 168.18 409.179L298.972 182.775H200.445L135.037 296.078L87.5188 213.189ZM210.777 200.642L134.983 331.937L66.8966 213.168L179.117 18.3031L154.331 18.3031C134.773 18.3031 116.697 28.7318 106.914 45.668L25.2228 187.093C15.4393 204.03 15.4393 224.899 25.2228 241.836L116.726 400.247C120.437 406.672 127.293 410.626 134.708 410.626C142.122 410.626 148.977 406.672 152.689 400.248L268 200.642H210.777Z" fill="white"/>
</g>
</svg>
