<svg width="1665" height="429" viewBox="0 0 1665 429" fill="none" xmlns="http://www.w3.org/2000/svg">
<path d="M1587.69 128.155H1649.69L1498.57 410.053H1423.01L1390.07 128.155H1452.07L1475.32 343.953L1587.69 128.155Z" fill="white"/>
<path fill-rule="evenodd" clip-rule="evenodd" d="M1380.05 120.355H1459.3L1480.46 315.226L1582.74 120.355H1664.17L1503.43 417.852H1415.08L1380.05 120.355ZM1399 137.177L1430.07 401.03H1493.37L1635.93 137.177H1592.94L1469.68 372.029L1444.18 137.177H1399Z" fill="white"/>
<path d="M1288.11 124.811C1315.32 124.811 1335.4 129.339 1348.35 138.394C1361.31 146.156 1367.79 160.385 1367.79 181.083C1367.79 188.845 1367.14 195.959 1365.85 202.428L1360.01 241.236C1356.13 263.227 1349 278.75 1338.64 287.806C1329.57 296.861 1314.67 301.389 1293.94 301.389H1185.11L1181.22 316.912C1179.93 325.967 1179.28 333.082 1179.28 338.256C1179.28 347.312 1181.87 353.133 1187.05 355.72C1192.23 358.307 1202.6 359.601 1218.15 359.601H1317.26L1297.83 410.052H1204.54C1173.45 410.052 1150.77 406.171 1136.52 398.409C1123.57 389.354 1117.09 374.477 1117.09 353.78C1117.09 344.724 1118.38 333.082 1120.98 318.852L1140.41 208.249C1144.3 190.138 1148.18 176.555 1152.07 167.5C1157.25 158.445 1163.08 151.33 1169.56 146.156C1177.33 138.394 1187.7 133.219 1200.66 130.632C1214.91 126.751 1233.05 124.811 1255.07 124.811H1288.11ZM1305.6 202.428V190.785C1305.6 185.611 1304.3 181.73 1301.71 179.143C1299.12 176.555 1290.7 175.262 1276.45 175.262H1241.47C1225.92 175.262 1215.55 178.496 1210.37 184.964C1206.49 190.138 1203.25 197.9 1200.66 208.249L1192.88 252.878H1278.39C1283.57 252.878 1288.11 252.231 1292 250.938C1295.88 248.351 1298.47 243.176 1299.77 235.415L1305.6 202.428Z" fill="white"/>
<path fill-rule="evenodd" clip-rule="evenodd" d="M1255.62 132.752C1234.03 132.752 1216.71 134.663 1203.44 138.275L1203.17 138.351L1202.88 138.408C1191.22 140.736 1182.47 145.261 1176.1 151.625L1175.77 151.955L1175.41 152.246C1170.04 156.535 1164.94 162.615 1160.22 170.761C1156.73 179.04 1153.06 191.786 1149.28 209.337L1129.88 319.781C1127.33 333.762 1126.13 344.843 1126.13 353.18C1126.13 371.815 1131.79 383.574 1141.58 390.609C1153.95 397.184 1174.72 400.997 1205.12 400.997H1292.58L1305.51 367.426H1218.72C1210.75 367.426 1203.9 367.096 1198.25 366.391C1192.76 365.706 1187.75 364.593 1183.88 362.661C1174.43 357.942 1171.45 347.939 1171.45 337.664C1171.45 331.901 1172.16 324.331 1173.48 315.136L1173.54 314.704L1179.13 292.387H1294.47C1314.28 292.387 1326.45 288.011 1333.2 281.272L1333.4 281.074L1333.61 280.889C1341.85 273.691 1348.46 260.448 1352.2 239.33L1358.05 200.447L1358.09 200.246C1359.25 194.412 1359.86 187.865 1359.86 180.569C1359.86 161.619 1354.05 150.829 1344.54 145.132L1344.28 144.98L1344.04 144.811C1333.2 137.234 1315.22 132.752 1288.64 132.752H1255.62ZM1199.3 121.936C1214.48 117.842 1233.33 115.897 1255.62 115.897H1288.64C1316.31 115.897 1338.38 120.418 1353.44 130.824C1369.65 140.672 1376.7 158.261 1376.7 180.569C1376.7 188.709 1376.03 196.315 1374.64 203.353L1368.81 242.16C1364.8 264.814 1357.24 282.498 1344.89 293.404C1333.51 304.623 1315.97 309.242 1294.47 309.242H1192.26L1190.08 317.954C1188.85 326.645 1188.29 333.158 1188.29 337.664C1188.29 345.491 1190.49 347.125 1191.39 347.578C1192.71 348.232 1195.47 349.058 1200.33 349.666C1205.05 350.254 1211.14 350.571 1218.72 350.571H1330.05L1304.13 417.851H1205.12C1173.7 417.851 1149.27 413.993 1133.11 405.19L1132.7 404.966L1132.31 404.697C1116.44 393.599 1109.29 375.681 1109.29 353.18C1109.29 343.421 1110.68 331.237 1113.31 316.785C1113.31 316.793 1113.31 316.776 1113.31 316.785L1132.78 205.95C1136.7 187.693 1140.73 173.48 1144.94 163.666L1145.13 163.223L1145.37 162.804C1150.85 153.217 1157.21 145.312 1164.54 139.363C1173.6 130.462 1185.36 124.766 1199.3 121.936ZM1204.38 179.175C1212.11 169.522 1226.01 166.323 1242.03 166.323H1276.99C1284.3 166.323 1290.44 166.65 1295.26 167.39C1297.67 167.76 1299.96 168.265 1302 168.983C1303.93 169.664 1306.28 170.755 1308.19 172.663C1312.92 177.386 1314.55 183.79 1314.55 190.266V202.643L1308.6 236.303C1307.16 244.85 1303.98 252.886 1297.19 257.407L1296.25 258.031L1295.19 258.386C1290.25 260.028 1284.79 260.756 1278.93 260.756H1183.45L1192.99 205.971L1193.07 205.672C1195.78 194.854 1199.36 185.852 1204.22 179.383L1204.38 179.175ZM1217.59 189.628C1214.74 193.478 1211.91 199.868 1209.47 209.477L1203.48 243.901H1278.93C1282.75 243.901 1285.92 243.495 1288.53 242.795C1289.57 241.674 1291.06 239.1 1291.99 233.485L1292.01 233.405L1297.71 201.163V190.266C1297.71 187.111 1297.07 185.629 1296.59 184.946C1296.53 184.927 1296.48 184.905 1296.41 184.882C1295.7 184.63 1294.51 184.327 1292.71 184.05C1289.11 183.497 1283.93 183.178 1276.99 183.178H1242.03C1227.11 183.178 1220.27 186.383 1217.59 189.628Z" fill="white"/>
<path d="M964.111 33.4453C1011.92 33.4453 1045.52 40.5633 1064.91 54.7993C1085.58 69.0353 1095.92 93.6247 1095.92 128.568C1095.92 147.98 1093.33 169.334 1088.17 192.63L1078.47 256.692C1073.3 289.046 1066.2 315.577 1057.15 336.284C1049.4 355.696 1039.71 371.227 1028.08 382.874C1016.45 393.228 1002.23 400.346 985.433 404.228C968.634 408.111 947.312 410.052 921.467 410.052H768.338L834.242 33.4453H964.111ZM1022.26 192.63C1027.43 170.629 1030.01 152.51 1030.01 138.274C1030.01 127.921 1028.08 119.508 1024.2 113.037C1021.62 105.272 1015.8 99.4486 1006.75 95.566C997.709 91.6835 980.264 89.7422 954.419 89.7422H890.454L845.872 355.696H907.899C932.451 355.696 950.543 353.755 962.173 349.873C975.095 344.696 984.787 336.284 991.248 324.636C999.001 311.694 1006.11 289.046 1012.57 256.692L1022.26 192.63Z" fill="white"/>
<path fill-rule="evenodd" clip-rule="evenodd" d="M827.274 25.646H964.409C1012.52 25.646 1048.5 32.6612 1070.22 48.4774C1093.96 64.8065 1104.83 92.4894 1104.83 128.869C1104.83 148.875 1102.17 170.689 1096.93 194.27L1087.27 257.842L1087.26 257.911C1082.02 290.517 1074.77 317.674 1065.35 339.168C1057.28 359.246 1047.03 375.733 1034.42 388.307L1034.24 388.481L1034.06 388.645C1021.24 399.997 1005.69 407.682 987.651 411.833C969.982 415.897 947.937 417.852 921.699 417.852H758.312L827.274 25.646ZM841.404 42.4622L778.355 401.036H921.699C947.23 401.036 967.895 399.121 983.876 395.445C999.39 391.876 1012.25 385.427 1022.71 376.226C1033.29 365.622 1042.37 351.248 1049.78 332.784L1049.88 332.535C1058.56 312.776 1065.52 287.097 1070.63 255.282C1070.64 255.27 1070.64 255.259 1070.64 255.247L1080.38 191.177L1080.44 190.896C1085.51 168.145 1088.01 147.483 1088.01 128.869C1088.01 95.6425 1078.2 74.3335 1060.6 62.2732L1060.39 62.1284C1043.27 49.6178 1011.99 42.4622 964.409 42.4622H841.404ZM883.521 81.7609H954.702C967.824 81.7609 978.996 82.25 988.146 83.2634C997.167 84.2624 1004.76 85.8245 1010.43 88.2428C1020.89 92.7149 1028.62 99.8245 1032.26 109.844C1036.84 117.856 1038.83 127.603 1038.83 138.544C1038.83 153.573 1036.12 172.228 1030.92 194.322L1021.2 258.234C1014.73 290.487 1007.41 314.264 998.871 328.517C991.411 341.837 980.188 351.447 965.586 357.268L965.356 357.36L965.122 357.437C952.133 361.753 932.886 363.672 908.11 363.672H836.038L883.521 81.7609ZM897.754 98.5771L855.936 346.856H908.11C932.331 346.856 949.25 344.934 959.579 341.557C970.699 337.071 978.791 329.982 984.236 320.213L984.373 319.968C991.318 308.43 998.212 287.167 1004.65 255.12L1014.38 191.125L1014.46 190.794C1019.56 169.173 1022 151.82 1022 138.544C1022 129.207 1020.23 122.465 1017.38 117.723L1016.9 116.931L1016.61 116.054C1014.94 111.059 1011.16 106.843 1003.81 103.705C1000.41 102.254 994.744 100.913 986.292 99.9772C977.971 99.0556 967.464 98.5771 954.702 98.5771H897.754Z" fill="white"/>
<path d="M668.603 124.811C695.811 124.811 715.893 129.339 728.849 138.394C741.805 146.156 748.283 160.385 748.283 181.083C748.283 188.845 747.635 195.959 746.339 202.428L740.509 241.236C736.622 263.227 729.496 278.75 719.132 287.806C710.062 296.861 695.163 301.389 674.433 301.389H565.602L561.715 316.912C560.42 325.967 559.772 333.082 559.772 338.256C559.772 347.312 562.363 353.133 567.546 355.72C572.728 358.307 583.093 359.601 598.64 359.601H697.754L678.32 410.052H585.036C553.942 410.052 531.269 406.171 517.017 398.409C504.061 389.354 497.583 374.477 497.583 353.78C497.583 344.724 498.879 333.082 501.47 318.852L520.904 208.249C524.791 190.138 528.678 176.555 532.564 167.5C537.747 158.445 543.577 151.33 550.055 146.156C557.829 138.394 568.194 133.219 581.15 130.632C595.401 126.751 613.54 124.811 635.565 124.811H668.603ZM686.094 202.428V190.785C686.094 185.611 684.798 181.73 682.207 179.143C679.616 176.555 671.194 175.262 656.943 175.262H621.961C606.414 175.262 596.049 178.496 590.867 184.964C586.98 190.138 583.741 197.9 581.15 208.249L573.376 252.878H658.886C664.068 252.878 668.603 252.231 672.49 250.938C676.377 248.351 678.968 243.176 680.263 235.415L686.094 202.428Z" fill="white"/>
<path fill-rule="evenodd" clip-rule="evenodd" d="M636.116 132.752C614.52 132.752 597.202 134.663 583.937 138.275L583.658 138.351L583.375 138.408C571.717 140.736 562.968 145.261 556.594 151.625L556.264 151.955L555.9 152.246C550.53 156.535 545.43 162.615 540.714 170.761C537.223 179.04 533.549 191.786 529.776 209.337L510.37 319.781C507.824 333.762 506.622 344.843 506.622 353.18C506.622 371.815 512.28 383.574 522.069 390.609C534.447 397.184 555.216 400.997 585.612 400.997H673.072L686.004 367.426H599.209C591.242 367.426 584.391 367.096 578.743 366.391C573.25 365.706 568.242 364.593 564.373 362.661C554.921 357.942 551.941 347.939 551.941 337.664C551.941 331.901 552.653 324.331 553.969 315.136L554.03 314.704L559.618 292.387H674.964C694.774 292.387 706.945 288.011 713.694 281.272L713.893 281.074L714.104 280.889C722.343 273.691 728.951 260.448 732.698 239.33L738.539 200.447L738.58 200.246C739.748 194.412 740.358 187.865 740.358 180.569C740.358 161.619 734.539 150.829 725.029 145.132L724.775 144.98L724.533 144.811C713.692 137.234 695.715 132.752 669.137 132.752H636.116ZM579.795 121.936C594.972 117.842 613.819 115.897 636.116 115.897H669.137C696.799 115.897 718.878 120.418 733.932 130.824C750.14 140.672 757.196 158.261 757.196 180.569C757.196 188.709 756.524 196.315 755.131 203.353L749.301 242.16C745.297 264.814 737.728 282.498 725.386 293.404C713.999 304.623 696.467 309.242 674.964 309.242H572.757L570.576 317.954C569.344 326.645 568.78 333.158 568.78 337.664C568.78 345.491 570.98 347.125 571.888 347.578C573.198 348.232 575.96 349.058 580.827 349.666C585.538 350.254 591.637 350.571 599.209 350.571H710.543L684.626 417.851H585.612C554.196 417.851 529.766 413.993 513.603 405.19L513.191 404.966L512.807 404.697C496.928 393.599 489.783 375.681 489.783 353.18C489.783 343.421 491.169 331.237 493.8 316.785C493.798 316.793 493.801 316.776 493.8 316.785L513.274 205.95C517.193 187.693 521.218 173.48 525.431 163.666L525.621 163.223L525.861 162.804C531.347 153.217 537.7 145.312 545.035 139.363C554.095 130.462 565.849 124.766 579.795 121.936ZM584.872 179.175C592.606 169.522 606.5 166.323 622.519 166.323H657.482C664.789 166.323 670.938 166.65 675.756 167.39C678.165 167.76 680.457 168.265 682.495 168.983C684.428 169.664 686.769 170.755 688.68 172.663C693.41 177.386 695.038 183.79 695.038 190.266V202.643L689.089 236.303C687.657 244.85 684.475 252.886 677.684 257.407L676.747 258.031L675.678 258.386C670.744 260.028 665.279 260.756 659.425 260.756H563.943L573.486 205.971L573.561 205.672C576.269 194.854 579.851 185.852 584.71 179.383L584.872 179.175ZM598.082 189.628C595.23 193.478 592.398 199.868 589.968 209.477L583.972 243.901H659.425C663.246 243.901 666.415 243.495 669.02 242.795C670.066 241.674 671.55 239.1 672.487 233.485L672.501 233.405L678.2 201.163V190.266C678.2 187.111 677.56 185.629 677.08 184.946C677.028 184.927 676.969 184.905 676.903 184.882C676.189 184.63 675.002 184.327 673.202 184.05C669.602 183.497 664.42 183.178 657.482 183.178H622.519C607.599 183.178 600.762 186.383 598.082 189.628Z" fill="white"/>
<path fill-rule="evenodd" clip-rule="evenodd" d="M317.484 150.977H218.719L292.122 23.9911C318.976 -15.6571 360.452 1.03805 374.178 25.4828L462.307 178.169C475.283 200.633 475.283 228.309 462.307 250.773L370.804 409.184C363.899 421.137 351.139 428.5 337.331 428.5C323.523 428.5 310.764 421.137 303.859 409.185L271.161 352.584L245.872 307.773L294.509 223.712L333.421 296.085L384.52 213.195L333.001 123.553L317.484 150.977ZM87.5188 213.189L210.04 0.435602L154.331 0.435605C128.379 0.435606 104.399 14.2739 91.4233 36.7376L9.73184 178.162C-3.24395 200.626 -3.24395 228.303 9.73185 250.766L101.235 409.177C108.139 421.13 120.899 428.493 134.708 428.493C148.516 428.493 161.275 421.131 168.18 409.179L298.972 182.775H200.445L135.037 296.078L87.5188 213.189Z" fill="white"/>
<path fill-rule="evenodd" clip-rule="evenodd" d="M374.178 25.4828C360.452 1.03805 318.976 -15.6571 292.122 23.9911L218.719 150.977H317.484L333.001 123.553L384.52 213.195L333.421 296.085L294.509 223.712L245.872 307.773L271.161 352.584L303.859 409.185C310.764 421.137 323.523 428.5 337.331 428.5C351.139 428.5 363.899 421.137 370.804 409.184L462.307 250.773C475.283 228.309 475.283 200.633 462.307 178.169L374.178 25.4828ZM286.696 343.73L319.349 400.254C323.061 406.679 329.917 410.632 337.331 410.632C344.745 410.632 351.601 406.679 355.313 400.254L446.816 241.842C456.599 224.905 456.599 204.036 446.816 187.099L358.578 34.2247C354.295 26.5963 345.164 19.8066 335.465 18.3787C327.386 17.1892 317.024 19.4095 307.271 33.5122L249.7 133.11H307.049L332.879 87.4569L405.327 213.515L332.362 331.875L293.936 260.406L266.466 307.884L286.696 343.73ZM87.5188 213.189L210.04 0.435602L154.331 0.435605C128.379 0.435606 104.399 14.2739 91.4233 36.7376L9.73184 178.162C-3.24395 200.626 -3.24395 228.303 9.73185 250.766L101.235 409.177C108.139 421.13 120.899 428.493 134.708 428.493C148.516 428.493 161.275 421.131 168.18 409.179L298.972 182.775H200.445L135.037 296.078L87.5188 213.189ZM210.777 200.642L134.983 331.937L66.8966 213.168L179.117 18.3031L154.331 18.3031C134.773 18.3031 116.697 28.7318 106.914 45.668L25.2228 187.093C15.4393 204.03 15.4393 224.899 25.2228 241.836L116.726 400.247C120.437 406.672 127.293 410.626 134.708 410.626C142.122 410.626 148.977 406.672 152.689 400.248L268 200.642H210.777Z" fill="white"/>
</svg>
