<!-- Generated by IcoMoon.io -->
<svg version="1.1" xmlns="http://www.w3.org/2000/svg" width="32" height="32" viewBox="0 0 32 32">
<title>weixin-shape</title>
<path d="M32 22.165c-0.339-3.543-3.3-6.292-6.904-6.292-0.183 0-0.365 0.007-0.544 0.021-0.158-0.018-0.368-0.028-0.581-0.028-3.606 0-6.568 2.752-6.902 6.271 0.337 3.571 3.298 6.319 6.901 6.319 0.183 0 0.365-0.007 0.544-0.021-0.022 0.002-0.020 0.002-0.018 0.002 0.571 0 1.13-0.054 1.671-0.158l0.649-0.119 0.64 0.32 1.707 0.875h0.192c0.235-0.001 0.425-0.192 0.425-0.427 0-0.046-0.007-0.090-0.020-0.131l-0.148-0.445-0.405-1.237 0.917-0.917c1.104-1.008 1.812-2.431 1.877-4.021zM22.123 21.099c-0.521-0.012-0.939-0.437-0.939-0.96 0-0.53 0.43-0.96 0.96-0.96s0.96 0.43 0.96 0.96c0 0 0 0 0 0 0 0.53-0.43 0.96-0.96 0.96-0.008 0-0.015-0-0.022-0zM27.008 21.099c-0.521-0.012-0.939-0.437-0.939-0.96 0-0.53 0.43-0.96 0.96-0.96s0.96 0.43 0.96 0.96c0 0 0 0 0 0 0 0.53-0.43 0.96-0.96 0.96-0.008 0-0.015-0-0.022-0z"></path>
<path d="M24.576 13.76c1.295 0.004 2.533 0.239 3.679 0.664l-0.074-0.024c0.25-0.386 0.399-0.859 0.399-1.366 0-0.151-0.013-0.298-0.038-0.441-1.128-6.065-7.080-10.459-14.184-10.459-7.957 0-14.357 5.568-14.357 12.416 0.042 3.585 1.686 6.777 4.247 8.902l-0.557 1.85c-0.073 0.227-0.115 0.487-0.115 0.758 0 1.414 1.146 2.56 2.56 2.56 0.415 0 0.807-0.099 1.153-0.274l3.377-1.764c1.094 0.258 2.35 0.405 3.641 0.405 0.002 0 0.005 0 0.008 0h0.938c0.437-0.025 0.838-0.157 1.184-0.369-0.93-1.224-1.488-2.772-1.504-4.449 0.334-4.726 4.246-8.43 9.024-8.43 0.218 0 0.433 0.008 0.647 0.023zM18.453 10.005c0.856 0.035 1.536 0.738 1.536 1.599 0 0.884-0.716 1.6-1.6 1.6s-1.599-0.716-1.6-1.599c0.012-0.887 0.733-1.601 1.621-1.601 0.015 0 0.030 0 0.045 0.001zM10.24 13.227c-0.856-0.035-1.536-0.738-1.536-1.599 0-0.884 0.716-1.6 1.6-1.6s1.599 0.716 1.6 1.599c-0.024 0.889-0.75 1.6-1.642 1.6-0.008 0-0.015-0-0.023-0z"></path>
</svg>
