<!-- Generated by IcoMoon.io -->
<svg version="1.1" xmlns="http://www.w3.org/2000/svg" width="32" height="32" viewBox="0 0 32 32">
<title>wetest</title>
<path d="M25 10.050c1.2-1.4 2.050-2.65 2.3-3.5 0 0-1.5-1.2-4.15-1.6v0c-2.45-0.45-4.85-0.050-4.85-0.050-1.1 0.9-2.25 2.4-3.3 4.15 0.75 0.25 1.1 0.4 2 0.7 2.050-0.050 6.1 0.15 8 0.3z"></path>
<path d="M9.55 20.35c-0.5 1.25-0.75 2.1-0.9 2.55-1.050 3.55 0.4 2.35 2.5 0.55 0.7-0.65 1.4-1.2 2.2-1.95-0.35-1-0.55-1.7-0.7-2.15-0.65 0.25-1.85 0.6-3.1 1z"></path>
<path d="M27.65 11c0 0-8.8-0.8-16-0.35-2.35 0.15-5.7 0.45-6.15 1 0 0-2.1 1.95-2.95 4.6v0c-1.2 3-0.35 5.15-0.35 5.15 5.85-0.25 19.4-6.6 25.050-9.1 2.25-1.050 0.4-1.3 0.4-1.3z"></path>
<path d="M11.65 9.95l3.55-0.1c-1.050-0.4-1.95-0.7-2.6-0.95-1.5-0.6-1 0.9-1 0.9s0.050 0.050 0.050 0.15z"></path>
<path d="M25 13.95c-1.95 1.050-8.1 3.9-11.65 5.1 0.95 3.050 2.45 6.1 4.85 8.3 0 0 3.55-0.6 7.35-4.050 3.8-3.4 4.3-5.8 4.3-5.8-1.1-1.3-2.75-2.4-4.85-3.55z"></path>
</svg>
