<!-- Generated by IcoMoon.io -->
<svg version="1.1" xmlns="http://www.w3.org/2000/svg" width="32" height="32" viewBox="0 0 32 32">
<title>atom-test</title>
<path d="M21.272 14.609l-1.744-5.756h-2.044l-2.188 7.075-1.525-4.688h-2.044l-1.088 3.369h-2.891v2.044h4.272l0.731-2.266 1.55 4.759h2.041l2.153-6.956 1.35 4.463h4.403v-2.044z"></path>
<path d="M27 7v14h-22v-14h22zM28 5h-24c-0.553 0-1 0.447-1 1v17h26v-17c0-0.553-0.447-1-1-1v0z"></path>
<path d="M19.688 24v1h-8v-1h-9.688v3c0 0.553 0.447 1 1 1h26c0.553 0 1-0.447 1-1v-3h-10.313z"></path>
</svg>
