<!-- Generated by IcoMoon.io -->
<svg version="1.1" xmlns="http://www.w3.org/2000/svg" width="32" height="32" viewBox="0 0 32 32">
<title>wiki</title>
<path stroke-linejoin="miter" stroke-linecap="butt" stroke-miterlimit="10" stroke-width="0.5" stroke="#000" fill="#000" d="M24.65 11c0 0-3.6 0-3.75 0-0.050 0-0.1 0.050-0.1 0.1s0 0.3 0 0.3c0 0.050 0 0.1 0.15 0.1s0.5 0.050 0.5 0.050c0.4 0.050 0.5 0.1 0.6 0.25 0.15 0.15 0.15 0.4 0.050 0.7l-3.15 8.2-0.1-0.050-2-4.5 0.050-0.1 1.65-3.35c0.2-0.35 0.4-0.7 0.45-0.8 0.15-0.25 0.25-0.35 0.75-0.35 0.1 0 0.15-0.050 0.15-0.15 0 0 0-0.3 0-0.35s0-0.050-0.050-0.050-2.85 0-2.85 0c-0.050 0-0.050 0-0.050 0.050v0.35c0 0.050 0 0.1 0 0.1 0 0.050 0.050 0.050 0.1 0.050s0.15 0 0.15 0c0.4 0.050 0.55 0.15 0.6 0.2 0.1 0.1 0.15 0.25-0.1 0.75l-1.25 2.75-1.15-2.55c-0.4-0.8-0.45-1.050 0.1-1.1l0.15-0.050c0.1 0 0.1-0.050 0.1-0.15 0 0 0-0.3 0-0.35s0-0.050-0.050-0.050-3 0-3.050 0-0.050 0-0.050 0.050v0.35c0 0.1 0.1 0.1 0.25 0.15 0.5 0.1 0.5 0.15 1.050 1.3 0.1 0.15 0.3 0.7 0.3 0.7l1.2 2.55c0 0 0.15 0.35 0.35 0.85l-1.75 3.8-0.1-0.050c0 0-2.7-6.2-3.45-8.3-0.1-0.2-0.1-0.4-0.1-0.45 0-0.2 0.2-0.35 0.5-0.35l0.55-0.050c0.1 0 0.3-0.050 0.3-0.15 0 0 0-0.3 0-0.35 0 0 0-0.050-0.050-0.050 0 0-4.1 0-4.15 0s-0.1 0.050-0.1 0.1 0 0.3 0 0.3c0 0.050 0.1 0.1 0.25 0.15 0.4 0.050 0.7 0.1 0.8 0.2 0.15 0.15 0.25 0.45 0.45 0.9 1 2.55 3.050 7.15 4.1 9.8 0.3 0.7 0.65 0.8 1.1-0.050 0.45-0.9 1.4-3 2.050-4.5 0.6 1.5 1.5 3.6 1.9 4.5 0.35 0.75 0.7 0.8 1.1 0.050 1-2.4 3.9-9.75 3.9-9.75 0.15-0.35 0.3-0.6 0.5-0.85 0.25-0.2 0.55-0.35 1.050-0.35 0.1 0 0.15-0.050 0.15-0.15v-0.35z"></path>
<path d="M16 4c6.6 0 12 5.4 12 12s-5.4 12-12 12-12-5.4-12-12 5.4-12 12-12zM16 2c-7.75 0-14 6.25-14 14s6.25 14 14 14 14-6.25 14-14-6.25-14-14-14v0z"></path>
</svg>
