<!-- Generated by IcoMoon.io -->
<svg version="1.1" xmlns="http://www.w3.org/2000/svg" width="32" height="32" viewBox="0 0 32 32">
<title>work-manage</title>
<path d="M18.36 27.28h-15.66c-0.006 0-0.014 0-0.021 0-0.428 0-0.777-0.336-0.799-0.758l-0-0.002v-10.64h7.5v0.88c0.033 0.979 0.835 1.761 1.819 1.761 0.021 0 0.043-0 0.064-0.001l-0.003 0h7.5c0.018 0.001 0.040 0.001 0.062 0.001 0.977 0 1.775-0.77 1.818-1.737l0-0.004v-0.9h7.5v1.44c0.715 0.197 1.34 0.464 1.918 0.8l-0.038-0.020v-9.38c-0.065-1.384-1.203-2.482-2.597-2.482-0.036 0-0.072 0.001-0.108 0.002l0.005-0h-4.8v-3.060c-0.183-1.25-1.248-2.198-2.534-2.198-0.108 0-0.214 0.007-0.318 0.020l0.012-0.001h-9.36c-0.086-0.010-0.185-0.016-0.286-0.016-1.285 0-2.35 0.947-2.532 2.182l-0.002 0.014v3.080h-4.8c-0.031-0.001-0.067-0.002-0.104-0.002-1.387 0-2.521 1.087-2.596 2.455l-0 0.007v17.8c0.065 1.384 1.203 2.482 2.597 2.482 0.036 0 0.072-0.001 0.108-0.002l-0.005 0h16.4c-0.291-0.493-0.542-1.063-0.725-1.663l-0.015-0.057zM18.74 16.76h-7.48v-3.5h7.5zM9.38 3.18c0-0.16 0.36-0.44 0.94-0.44h9.36c0.58 0 0.94 0.28 0.94 0.44v3.080h-11.24zM1.88 13.58v-4.86c0.022-0.424 0.371-0.76 0.799-0.76 0.007 0 0.015 0 0.022 0l-0.001-0h24.6c0.006-0 0.014-0 0.021-0 0.428 0 0.777 0.336 0.799 0.758l0 0.002v5.4h-7.5v-0.86c-0.043-0.971-0.841-1.741-1.818-1.741-0.022 0-0.043 0-0.065 0.001l0.003-0h-7.48c-0.018-0.001-0.040-0.001-0.061-0.001-0.984 0-1.786 0.782-1.819 1.758l-0 0.003v0.88h-7.5z"></path>
<path d="M31.34 23.92l-0.82-0.16c-0.108-0.396-0.251-0.741-0.432-1.063l0.012 0.023 0.42-0.66c0.138-0.135 0.224-0.322 0.224-0.53s-0.086-0.395-0.223-0.53l-0.52-0.52c-0.129-0.125-0.306-0.202-0.5-0.202s-0.371 0.077-0.5 0.202l0-0-0.7 0.48c-0.287-0.165-0.618-0.308-0.967-0.412l-0.033-0.008-0.16-0.74c-0.011-0.404-0.336-0.729-0.739-0.74l-0.001-0h-0.74c-0.006-0-0.014-0-0.021-0-0.384 0-0.697 0.3-0.719 0.678l-0 0.002-0.16 0.82c-0.382 0.111-0.713 0.254-1.023 0.432l0.023-0.012-0.64-0.42c-0.133-0.134-0.316-0.218-0.52-0.22h-0c-0.002 0-0.003-0-0.005-0-0.209 0-0.398 0.084-0.535 0.22l0-0-0.54 0.52c-0.134 0.133-0.218 0.316-0.22 0.52v0c-0.001 0.012-0.001 0.026-0.001 0.040 0 0.168 0.061 0.322 0.162 0.441l-0.001-0.001 0.48 0.72c-0.169 0.298-0.312 0.644-0.412 1.007l-0.008 0.033-0.78 0.16c-0.42 0-0.76 0.34-0.76 0.76v0 0.74c0 0.001 0 0.002 0 0.002 0 0.388 0.298 0.706 0.677 0.737l0.003 0 0.88 0.18c0.111 0.382 0.254 0.713 0.432 1.022l-0.012-0.022-0.46 0.7c-0.133 0.137-0.215 0.324-0.215 0.53s0.082 0.393 0.215 0.53l-0-0 0.54 0.52c0.129 0.125 0.306 0.202 0.5 0.202s0.371-0.077 0.5-0.202l-0 0 0.78-0.52c0.256 0.138 0.555 0.261 0.867 0.352l0.033 0.008 0.18 0.84c0 0.42 0.34 0.76 0.76 0.76h0.76c0.006 0 0.014 0 0.021 0 0.384 0 0.697-0.3 0.719-0.678l0-0.002 0.18-0.92c0.345-0.099 0.644-0.222 0.925-0.372l-0.025 0.012 0.72 0.48c0.137 0.133 0.324 0.215 0.53 0.215s0.393-0.082 0.53-0.215l-0 0 0.54-0.52c0.126-0.132 0.204-0.312 0.204-0.51s-0.078-0.378-0.204-0.51l0 0-0.56-0.8c0.166-0.287 0.309-0.618 0.412-0.967l0.008-0.033 0.8-0.16c0.42 0 0.76-0.34 0.76-0.76v-0.74c-0.009-0.391-0.313-0.709-0.697-0.74l-0.003-0zM26 26.88c-1.038 0-1.88-0.842-1.88-1.88s0.842-1.88 1.88-1.88c1.038 0 1.88 0.842 1.88 1.88v0c0 1.038-0.842 1.88-1.88 1.88v0z"></path>
</svg>
