<!-- Generated by IcoMoon.io -->
<svg version="1.1" xmlns="http://www.w3.org/2000/svg" width="32" height="32" viewBox="0 0 32 32">
<title>xcode</title>
<path d="M20.35 13.841c0 0-4.347 12.275-4.444 12.556-0.219 0.622-0.188 1.584 0.931 2.019s1.928-0.403 2.081-1.025c0.156-0.622 3.075-13.084 3.075-13.084l-1.644-0.466z"></path>
<path d="M22.059 15.084l-0.466 2.112 1.616-0.25-0.309-1.988z"></path>
<path d="M28.959 5.666c-0.188-0.125-0.869-0.341-0.869-0.341s-0.497-0.125-0.809 0.094-0.962-0.031-1.306-0.403-2.050-1.369-4.134-1.522c-2.081-0.156-4.475 0.372-5.191 1.212 0.653-0.188 3.262-0.403 4.194 0.466s0.938 1.584 0.966 2.344-0.191 2.037-0.191 2.037l-1.050 3.853 1.616 0.497 1.553-5.313c0 0 0.591-1.088 1.866-1.088s1.087 0.559 1.087 0.559 0.809 0.528 1.397 0.497c0.591-0.034 1.056-2.769 0.872-2.894z"></path>
<path d="M21.322 19.203c-0.125-0.056-0.272-0.003-0.331 0.122-0.153 0.331-0.125 0.488-0.069 0.719l0.006 0.022c0.056 0.225 0.319 0.353 0.719 0.55 0.212 0.103 0.45 0.222 0.578 0.328 0.181 0.15 0.256 0.587 0.262 0.831l0.012 0.594 0.416-0.425c0.031-0.034 0.8-0.834 0.781-1.978-0.012-0.766-0.45-1.288-0.706-1.531-0.322-0.303-0.691-0.484-0.966-0.472-0.45 0.019-0.712 0.316-0.797 0.488-0.059 0.125-0.009 0.272 0.116 0.331s0.272 0.009 0.331-0.116c0-0.003 0.103-0.197 0.369-0.206 0.091-0.003 0.337 0.084 0.606 0.337 0.203 0.191 0.541 0.597 0.55 1.178 0.009 0.469-0.15 0.875-0.313 1.163-0.066-0.212-0.169-0.431-0.344-0.575-0.172-0.141-0.428-0.269-0.675-0.391-0.159-0.078-0.394-0.194-0.462-0.256-0.038-0.156-0.044-0.194 0.041-0.378 0.056-0.128 0-0.278-0.125-0.334z"></path>
<path d="M19.709 15.059l-3.078-3.719c-0.291-0.35-0.747-0.516-1.194-0.438-0.366 0.066-0.656 0.313-0.784 0.659s-0.063 0.725 0.172 1.009l2.45 2.975 0.559-0.094-2.625-3.2c-0.122-0.147-0.156-0.344-0.091-0.522 0.066-0.181 0.219-0.306 0.406-0.341 0.272-0.050 0.547 0.053 0.722 0.266l2.953 3.581 0.466-0.094 0.044-0.084z"></path>
<path d="M7.375 25.038l-2.084-12.853 15.759-2.556 0.047-0.169c0 0 0.191-1.116 0.191-1.884l-18.278 2.966 2.722 16.781 9.478-1.541 0.747-2.134-8.581 1.391z"></path>
<path d="M24.234 8.806l-1.119 3.831 1.556 9.597-3.781 0.613-0.5 2.097 6.563-1.066-2.494-15.381c-0.15 0.175-0.225 0.309-0.225 0.309z"></path>
<path d="M11.843 13.441l0.714-1.801 1.848 0.733-0.714 1.801-1.848-0.733z"></path>
<path d="M8.801 20.989l2.953-7.304 1.843 0.745-2.953 7.304-1.843-0.745z"></path>
<path d="M8.728 21.206l-0.466 3.541 2.237-2.828z"></path>
<path d="M10.188 16.916l-3.634 0.559 0.309 1.991 2.394-0.375z"></path>
<path d="M19.544 15.456l-6.497 0.994-0.838 2.175 6.556-0.994z"></path>
</svg>
