<?xml version="1.0" encoding="UTF-8"?>
<svg width="14px" height="15px" viewBox="0 0 14 15" version="1.1" xmlns="http://www.w3.org/2000/svg" xmlns:xlink="http://www.w3.org/1999/xlink">
    <!-- Generator: Sketch 64 (93537) - https://sketch.com -->
    <title>noun_yaml file document icon_2604949</title>
    <desc>Created with Sketch.</desc>
    <g id="蓝盾服务扩展商店" stroke="none" stroke-width="1" fill="none" fill-rule="evenodd">
        <g id="蓝盾服务扩展商店设计稿-第一批界面" transform="translate(-799.000000, -6770.000000)" fill="#1592FF">
            <g id="编组-15" transform="translate(85.000000, 6652.000000)">
                <g id="已协作" transform="translate(708.000000, 116.000000)">
                    <g id="noun_yaml-file-document-icon_2604949" transform="translate(6.000000, 2.000000)">
                        <g id="编组">
                            <path d="M9.23332059,0.935276471 L2.04748235,0.935276471 L2.04748235,6.78638824 C2.04748235,6.96176118 1.90522888,7.10401412 1.72985647,7.10401412 C1.55448353,7.10401412 1.41223059,6.96176065 1.41223059,6.78638824 L1.41223059,0.617655882 C1.41223059,0.442282941 1.55448406,0.30003 1.72985647,0.30003 L9.44508,0.30003 C9.53001512,0.30003 9.61056274,0.333983294 9.67054906,0.393979676 L11.7300138,2.45344438 C11.7897081,2.51312815 11.8230672,2.59360297 11.8230672,2.67801715 L11.8230672,6.78638479 C11.8230672,6.96175774 11.6808138,7.10401412 11.5054414,7.10401412 C11.3300684,7.10401412 11.1878155,6.96175721 11.1878155,6.78638479 L11.1878155,2.88975538 L10.4752564,2.88975538 C10.1335052,2.88975538 9.82296548,2.7500865 9.59797607,2.52510715 C9.37299698,2.30011747 9.23332783,1.98957803 9.23332783,1.64782685 L9.23332783,0.935267735 L9.23332059,0.935276471 Z M2.04748235,14.0647412 L11.1878029,14.0647412 L11.1878029,12.4097471 C11.1878029,12.2343741 11.3300564,12.0921212 11.5054288,12.0921212 C11.6808018,12.0921212 11.8230547,12.2343746 11.8230547,12.4097471 L11.8230547,14.3823697 C11.8230547,14.5577426 11.6808012,14.6999956 11.5054288,14.6999956 L1.72984059,14.6999956 C1.55446765,14.6999956 1.41221471,14.5577421 1.41221471,14.3823697 L1.41221471,12.4097471 C1.41221471,12.2343741 1.55446818,12.0921212 1.72984059,12.0921212 C1.90521353,12.0921212 2.04746647,12.2343746 2.04746647,12.4097471 L2.04746647,14.0647412 L2.04748235,14.0647412 Z" id="形状"></path>
                            <polygon id="路径" points="3.54317647 3.94826471 9.69208235 3.94826471 9.69208235 4.47765 3.54317647 4.47765"></polygon>
                            <polygon id="路径" points="3.54317647 5.20455882 9.69208235 5.20455882 9.69208235 5.73394412 3.54317647 5.73394412"></polygon>
                            <polygon id="路径" points="3.54317647 2.69197059 7.89067941 2.69197059 7.89067941 3.22138235 3.54317647 3.22138235"></polygon>
                            <path d="M2.79503824,9.3174 L3.41451353,8.25428294 L4.03962706,8.25428294 L3.05159647,9.81423441 L3.05159647,10.9417994 L2.51033647,10.9417994 L2.51033647,9.81047294 L1.52607794,8.25428294 L2.16244676,8.25428294 L2.79504088,9.3174 L2.79503824,9.3174 Z M3.69108882,10.9417968 L4.73793706,8.25429088 L5.31173471,8.25429088 L6.38798382,10.9417968 L5.79729265,10.9417968 L5.56265285,10.3310859 L4.48826991,10.3310859 L4.26676112,10.9417968 L3.69108882,10.9417968 L3.69108882,10.9417968 Z M6.66831529,10.9417968 L6.66831529,8.25429088 L7.480515,8.25429088 L7.96796029,10.0876809 L8.44977794,8.25429088 L9.26384118,8.25429088 L9.26384118,10.9417968 L8.76012971,10.9417968 L8.76012971,8.82620382 L8.22638206,10.9417968 L7.70390029,10.9417968 L7.17202941,8.82620382 L7.17202941,10.9417968 L6.66831794,10.9417968 L6.66831529,10.9417968 Z M9.81760059,10.9417968 L9.81760059,8.27618206 L10.3601126,8.27618206 L10.3601126,10.4887579 L11.7091862,10.4887579 L11.7091862,10.9417968 L9.81760324,10.9417968 L9.81760059,10.9417968 Z M2.04745059,12.6214906 L11.1877712,12.6214906 L11.8230229,12.6214906 L12.8862432,12.6214906 C13.0031932,12.6214906 13.0980079,12.5266759 13.0980079,12.4097259 L13.0980079,6.78636706 C13.0980079,6.66941709 13.0031932,6.57460235 12.8862432,6.57460235 L11.8230229,6.57460235 L11.1877712,6.57460235 L2.04745059,6.57460235 L1.41219882,6.57460235 L0.348978529,6.57460235 C0.232028559,6.57460235 0.137213824,6.66941709 0.137213824,6.78636706 L0.137213824,12.4097259 C0.137213824,12.5266759 0.232028559,12.6214906 0.348978529,12.6214906 L1.41219882,12.6214906 L2.04745059,12.6214906 Z" id="形状"></path>
                            <polygon id="路径" points="5.01827647 8.88127059 4.65533824 9.87868235 5.38870588 9.87868235"></polygon>
                        </g>
                    </g>
                </g>
            </g>
        </g>
    </g>
</svg>