<?xml version="1.0" encoding="utf-8"?><svg xmlns="http://www.w3.org/2000/svg" xmlns:xlink="http://www.w3.org/1999/xlink"><symbol viewBox="0 0 32 32" id="CODE_GIT" xmlns="http://www.w3.org/2000/svg"><path d="M29.406 14.584L17.415 2.593c-.378-.378-.881-.584-1.416-.584s-1.037.209-1.416.584L2.592 14.584c-.378.378-.584.881-.584 1.416s.209 1.038.584 1.416l11.991 11.991c.391.391.903.584 1.416.584s1.025-.194 1.416-.584l11.991-11.991a2.003 2.003 0 0 0 0-2.831zM16 27.994L4.009 16l8.116-8.116 1.841 1.841A2.122 2.122 0 0 0 15 12.219v7.906A2.123 2.123 0 0 0 13.875 22c0 1.175.95 2.125 2.125 2.125s2.125-.95 2.125-2.125c0-.813-.456-1.519-1.125-1.875v-7.366l2.803 2.803a2.123 2.123 0 0 0 2.635 2.635l.009.009.019-.019a2.124 2.124 0 0 0-.625-4.156c-.225 0-.441.034-.644.1l-3.163-3.169a2.123 2.123 0 0 0-2.653-2.653L13.54 6.468l2.459-2.459L27.99 16 15.999 27.994z"/></symbol><symbol viewBox="0 0 32 32" id="CODE_GITLAB" xmlns="http://www.w3.org/2000/svg"><path d="M29.297 18.484L24.569 3.915a.964.964 0 0 0-1.825-.029l-3.359 9.369h-6.769L9.257 3.886a.965.965 0 0 0-1.825.028L2.704 18.483a.968.968 0 0 0 .35 1.078l12.381 9.003a.97.97 0 0 0 .566.184.97.97 0 0 0 .566-.184l12.381-9.003a.968.968 0 0 0 .35-1.078zM23.606 7.197l1.966 6.059h-4.137l2.172-6.059zm.475 7.991l-6.153 7.853 2.813-7.853h3.341zm-5.387 0L16 22.7l-2.694-7.512h5.388zm-4.616 7.856l-6.159-7.856h3.337l2.822 7.856zM8.394 7.197l2.172 6.059H6.428l1.966-6.059zm-2.691 8.287l6.594 8.416-7.544-5.488.95-2.928zM19.7 23.9l6.594-8.416.95 2.928L19.7 23.9z"/></symbol><symbol viewBox="0 0 32 32" id="CODE_SVN" xmlns="http://www.w3.org/2000/svg"><path d="M3 3.5V22h26V3.5H3zm7.531 7.659c-.094-.922 4.628-2.656 9.219-3.741a96.432 96.432 0 0 1 7.247-1.394v4.438c-6.591.394-16.331 2.028-16.466.697zm5.438 6.007C12.041 18.241 6.957 19.128 5 19.454v-4.653c2.647-.106 5.669-.553 6.959-.672 2.475-.225 10.228-1.331 10.737-.2.384.903-2.222 2.003-6.728 3.238zM22.606 5.5c-3.422.763-7.384 1.781-9.372 2.266C11.609 8.163 8 9.266 5 10.5v-5h17.606zM9.316 20a156.762 156.762 0 0 0 10.144-2.378c2.822-.769 5.406-1.594 7.541-2.412v4.791H9.317zM3 26.5h26v2H3v-2zM28.841 23.366c-.141 0-.153.1-.153.209v.972a.465.465 0 0 1-.134-.141 54.122 54.122 0 0 1-.584-.887c-.066-.103-.141-.188-.278-.147-.144.041-.144.159-.141.278v1.319c0 .1.031.184.144.194.122.012.166-.075.178-.178.006-.05.006-.1.009-.15v-.834a.113.113 0 0 1 .031-.006c.087.131.172.266.259.397.144.222.288.444.438.659.059.087.15.134.259.103.113-.031.131-.122.131-.225v-1.363c0-.106-.019-.2-.159-.2zM14.841 23.659c.209.009.419.006.628 0 .088-.003.188-.006.194-.137.003-.134-.103-.141-.188-.141a14.374 14.374 0 0 0-.881.003c-.203.009-.238.056-.244.259s0 .409 0 .613c0 .216-.003.428 0 .644.003.119.05.225.188.228.338.006.678.006 1.016 0 .081 0 .141-.047.141-.144-.003-.1-.063-.128-.147-.128h-.463c-.391 0-.387 0-.378-.387.003-.094.031-.119.122-.119.203.006.409.003.613 0 .088 0 .162-.028.159-.134-.003-.103-.075-.131-.162-.131h-.45c-.284 0-.281 0-.284-.281-.003-.106.022-.147.137-.144zM6.138 23.591c-.003-.113-.028-.225-.181-.225s-.172.106-.172.225v.462h.003c0 .166-.006.328 0 .494.013.303.162.506.428.578.131.034.263.05.4.041.322-.025.553-.184.6-.444.072-.394.028-.794.031-1.194a.156.156 0 0 0-.119-.156c-.066-.016-.131-.012-.181.038s-.053.116-.053.181c0 .303.006.609-.003.913-.006.266-.144.387-.394.381-.237-.006-.347-.125-.356-.384-.003-.056 0-.109 0-.166 0-.247.003-.497-.003-.744zM20.738 24.869c-.222.097-.434.022-.538-.197-.016-.031-.028-.063-.047-.094-.041-.072-.103-.091-.178-.072-.081.022-.109.078-.106.159.003.113.053.2.125.281.191.212.594.284.903.159.231-.094.353-.266.353-.503 0-.225-.106-.366-.356-.459-.094-.034-.191-.056-.284-.084s-.197-.041-.281-.097c-.134-.087-.131-.231.012-.306a.377.377 0 0 1 .128-.041c.191-.028.328.044.409.225.038.084.113.137.206.094.087-.041.109-.119.084-.216s-.081-.169-.156-.228a.667.667 0 0 0-.45-.125c-.059.003-.119.003-.178.009-.3.034-.491.241-.475.512.016.228.169.341.359.409.153.056.316.087.472.141.094.031.166.097.166.206-.003.106-.066.181-.169.225zM3.888 24.856a.392.392 0 0 1-.556-.178l-.047-.094c-.041-.081-.109-.1-.188-.075-.081.022-.1.087-.097.166a.417.417 0 0 0 .119.266c.247.278.834.3 1.103.041a.49.49 0 0 0-.112-.803c-.116-.059-.241-.091-.366-.125-.1-.025-.206-.041-.294-.1-.116-.078-.119-.197-.013-.284.147-.119.406-.078.516.078.028.041.053.084.081.125.041.069.103.075.169.056.063-.019.094-.069.097-.137a.346.346 0 0 0-.144-.297.643.643 0 0 0-.472-.134.72.72 0 0 0-.381.069c-.163.081-.263.206-.266.397-.006.197.081.331.256.419.181.091.381.113.566.181.091.034.166.087.172.2 0 .116-.056.184-.144.231zM12.222 25.163c.113 0 .188-.063.228-.163.053-.134.103-.269.153-.403.122-.331.241-.663.366-.994.028-.072.022-.134-.034-.191-.053-.053-.116-.056-.181-.038-.078.022-.094.1-.116.166l-.412 1.212a2.69 2.69 0 0 1-.047-.131l-.381-1.116c-.037-.113-.113-.163-.228-.131-.122.034-.131.137-.097.231.166.469.341.934.516 1.403a.247.247 0 0 0 .234.153zM23.016 23.553c0-.078-.022-.153-.106-.178-.063-.019-.131-.022-.181.028-.063.059-.066.141-.066.222v.775c0 .184-.006.369.003.553.006.109.05.216.184.209.128-.006.169-.1.169-.222-.003-.225 0-.447 0-.672-.003-.238-.003-.478-.003-.716zM10.084 23.753c-.037-.184-.15-.313-.334-.341a3.338 3.338 0 0 0-.847-.022c-.125.012-.178.087-.178.197-.003.444-.003.887 0 1.331 0 .128.066.212.2.212.284 0 .569.028.85-.025.209-.041.347-.159.394-.375.047-.222-.022-.347-.306-.534.169-.109.259-.247.222-.444zm-.825-.112c.103.012.206.006.309.028.106.022.169.078.169.194 0 .119-.05.203-.172.225-.072.012-.15.009-.222.012-.266-.003-.259-.003-.272-.269-.006-.153.034-.209.188-.191zm.3 1.222c-.075.009-.15 0-.225 0-.259.003-.259.003-.259-.253 0-.253 0-.256.25-.253.078 0 .159-.003.238.006.159.019.253.113.256.244.003.137-.097.238-.259.256zM18.491 23.794a.457.457 0 0 0-.381-.391 3.853 3.853 0 0 0-.803-.019c-.194.019-.234.066-.238.269-.003.413 0 .828 0 1.241 0 .034.006.069.012.103.016.1.069.172.178.163.113-.009.166-.078.166-.191 0-.159.003-.319 0-.478-.003-.075.022-.103.1-.106.172-.009.284.072.372.206.1.156.191.316.291.469.059.094.147.137.256.078.116-.059.087-.15.044-.244a1.443 1.443 0 0 0-.409-.547c.072-.031.128-.05.181-.078a.453.453 0 0 0 .231-.475zm-.529.315c-.087.019-.178.016-.266.025-.272-.003-.272-.003-.272-.284 0-.231-.028-.203.209-.203.109 0 .219-.006.325.025.119.031.175.113.175.228 0 .113-.066.184-.172.209zM25.556 25.131c.363-.094.575-.416.572-.875.012-.616-.378-.984-1.069-.878-.356.056-.566.328-.619.759-.087.706.434 1.169 1.116.994zm-.706-.54a.917.917 0 0 1-.034-.572c.063-.253.247-.391.5-.378.225.009.409.188.444.431a.966.966 0 0 1 .009.141c0 .159-.003.278-.056.387a.463.463 0 1 1-.863-.009z"/></symbol><symbol viewBox="0 0 25 32" id="android-shape" xmlns="http://www.w3.org/2000/svg"><path d="M8.804 8.625a.696.696 0 0 0 0-1.392c-.375 0-.679.321-.679.696s.304.696.679.696zm7.535 0c.375 0 .679-.321.679-.696s-.304-.696-.679-.696a.696.696 0 0 0 0 1.392zm-14.5 3.286c1 0 1.821.821 1.821 1.821v7.679c0 1.018-.804 1.839-1.821 1.839S0 22.429 0 21.411v-7.679c0-1 .821-1.821 1.839-1.821zm18.929.339v11.893a1.955 1.955 0 0 1-1.946 1.964h-1.339v4.054c0 1.018-.821 1.839-1.839 1.839s-1.839-.821-1.839-1.839v-4.054h-2.464v4.054A1.836 1.836 0 0 1 9.502 32c-1 0-1.821-.821-1.821-1.839l-.018-4.054H6.342a1.959 1.959 0 0 1-1.964-1.964V12.25h16.393zm-4.143-7.232c2.5 1.286 4.196 3.75 4.196 6.589H4.303c0-2.839 1.696-5.304 4.214-6.589L7.249 2.679a.26.26 0 0 1 .089-.357c.125-.054.286-.018.357.107l1.286 2.357c1.089-.482 2.304-.75 3.589-.75s2.5.268 3.589.75l1.286-2.357c.071-.125.232-.161.357-.107a.26.26 0 0 1 .089.357zm8.518 8.714v7.679a1.836 1.836 0 0 1-1.839 1.839c-1 0-1.821-.821-1.821-1.839v-7.679c0-1.018.821-1.821 1.821-1.821 1.018 0 1.839.804 1.839 1.821z"/></symbol><symbol viewBox="0 0 32 32" id="bugly" xmlns="http://www.w3.org/2000/svg"><path d="M28.031 13.216a6.685 6.685 0 0 0-3.166-1.781 8.939 8.939 0 0 0-2.5-4.8c-1.7-1.697-3.962-2.634-6.366-2.634s-4.666.938-6.363 2.637a8.939 8.939 0 0 0-2.5 4.8 6.662 6.662 0 0 0-3.166 1.781 6.675 6.675 0 0 0-1.969 4.75v.313c0 1.794.7 3.481 1.969 4.75s2.956 1.969 4.75 1.969h1.281v-2H8.72a4.723 4.723 0 0 1-4.719-4.719v-.313A4.723 4.723 0 0 1 8.72 13.25h.287a6.785 6.785 0 0 1-.006-.247c0-.053 0-.103.003-.153v-.041a2.313 2.313 0 0 1 .009-.181c.003-.037.003-.078.006-.116 0-.019.003-.037.003-.056l.009-.128.009-.078c.003-.019.003-.037.006-.059a6.918 6.918 0 0 1 2.006-4.141C12.368 6.728 14.127 6 15.996 6s3.628.728 4.95 2.05a6.97 6.97 0 0 1 1.831 3.197c.078.306.137.622.175.944.003.019.003.037.006.059l.009.078.009.128c0 .019.003.037.003.056.003.037.006.078.006.116 0 .012 0 .022.003.034.003.05.003.1.006.147v.041l.003.153c0 .084-.003.166-.006.247h.288a4.723 4.723 0 0 1 4.719 4.719v.313a4.723 4.723 0 0 1-4.719 4.719h-1.281v2h1.281c1.794 0 3.481-.7 4.75-1.969s1.969-2.956 1.969-4.75v-.313a6.692 6.692 0 0 0-1.972-4.753z"/><path d="M11.756 18.841l1.416 1.413L15 18.426v9.575h2v-9.575l1.828 1.828 1.416-1.413L16 14.597z"/></symbol><symbol viewBox="0 0 32 32" id="buildPushDockerImage" xmlns="http://www.w3.org/2000/svg"><path d="M16.966 13.153l-.003.003h-2.831v2.825h2.834zM20.434 13.153l-.009.003h-2.813v2.825h2.822zM13.481 9.609h-2.816v2.822h2.816zM16.966 9.609h-2.834v2.822h2.834zM16.966 5.987h-2.834v2.822h2.834zM7.116 13.156v2.825h2.822v-2.828l-.006.003zM13.481 13.153l-.019.003h-2.797v2.825h2.816z"/><path d="M29.65 14.675c-.944-.578-2.241-.653-3.325-.363l-.022.003c-.156-1.159-.875-2.1-1.819-2.825l-.369-.291-.297.363c-.578.653-.806 1.809-.734 2.675.069.653.281 1.306.647 1.813-.297.144-.666.291-.944.434a6.242 6.242 0 0 1-1.959.291H2.112l-.069.434a8.134 8.134 0 0 0 .656 4.128l.291.578c1.75 2.897 4.862 4.197 8.256 4.197 6.525 0 11.878-2.822 14.416-8.903 1.663.075 3.341-.363 4.128-1.953l.209-.363-.35-.219zM7.438 22.469a1.25 1.25 0 1 1-.002-2.498 1.25 1.25 0 0 1 .002 2.498z"/><path d="M6.469 13.153l-.037.003H3.635v2.825h2.834zM9.931 9.609H7.112v2.822h2.819zM8.063 21.219a.625.625 0 1 1-1.25 0 .625.625 0 0 1 1.25 0z"/></symbol><symbol viewBox="0 0 1024 1024" id="c++" xmlns="http://www.w3.org/2000/svg"><style>.st0{display:none}.agst1{fill:#737987;stroke:#737987}</style><g id="agc++"><path fill="#737987" stroke="#737987" class="agst1" d="M512 127.8l332.8 192.1v384.2L512 896.2 179.2 704.1V319.9L512 127.8h0m0-64c-11 0-22.1 2.9-32 8.6L147.2 264.5c-19.8 11.4-32 32.6-32 55.4v384.2c0 22.9 12.2 44 32 55.4L480 951.7c9.9 5.7 20.9 8.6 32 8.6 11.1 0 22.1-2.9 32-8.6l332.8-192.1c19.8-11.4 32-32.6 32-55.4V319.9c0-22.9-12.2-44-32-55.4L544 72.3c-9.9-5.7-21-8.5-32-8.5h0z"/><path fill="#737987" stroke="#737987" class="agst1" d="M375.3 448c17.1 0 33.2 6.7 45.3 18.7l45.3-45.3c-24.2-24.2-56.3-37.5-90.5-37.5s-66.3 13.3-90.5 37.5c-49.9 49.9-49.9 131.1 0 181 24.2 24.2 56.3 37.5 90.5 37.5s66.3-13.3 90.5-37.5l-45.3-45.3c-12.1 12.1-28.2 18.7-45.3 18.7-17.1 0-33.2-6.7-45.3-18.7-25-25-25-65.6 0-90.5 12.1-11.9 28.2-18.6 45.3-18.6zM553.5 442.5h-32V496H468v32h53.5v53.5h32V528H607v-32h-53.5zM786 496h-53.5v-53.5h-32V496H647v32h53.5v53.5h32V528H786z"/></g></symbol><symbol viewBox="0 0 32 32" id="cloudStone" xmlns="http://www.w3.org/2000/svg"><path d="M12.947 17.697l-5.322 5.328 1.416 1.416 5.322-5.328z"/><path d="M22.247 23.616l.003-.009c.297-.887.45-1.841.453-2.834.238-.219.478-.45.722-.691 2.506-2.5 4.331-5.469 5.137-8.356.4-1.434.525-2.769.372-3.963-.169-1.319-.669-2.403-1.484-3.216s-1.9-1.313-3.222-1.481c-1.197-.153-2.534-.028-3.972.372-2.897.806-5.872 2.625-8.378 5.125-.241.241-.472.481-.691.722a8.936 8.936 0 0 0-3.438.672c-.009.003-.016.009-.025.012a8.027 8.027 0 0 0-4.725 6.144l1.797-.703c.931-.366 2.016-.456 3.175-.278-.266 1.578-.003 3.075.778 4.366.103.175.206.319.291.434l1.447-1.444-.009-.016-.006-.009c-.603-.997-.747-2.153-.428-3.434.4-1.597 1.494-3.294 3.253-5.05 1.609-1.606 3.481-2.928 5.347-3.803l7.166 7.15c-.878 1.863-2.203 3.728-3.813 5.334-.303.303-.597.578-.884.834l-.097.084c-1.309 1.15-2.553 1.913-3.706 2.272l-.175.053c-1.541.431-2.713.084-3.609-.406l-1.469 1.462c1.194.759 2.441 1.137 3.728 1.137.347 0 .697-.028 1.05-.084.172 1.141.075 2.206-.284 3.122L15.832 29a8.048 8.048 0 0 0 6.416-5.384zM8.503 13.184a9.35 9.35 0 0 0-1.647-.15c-.069 0-.141 0-.209.003a6.164 6.164 0 0 1 2.769-1.528 11.062 11.062 0 0 0-.912 1.675zm12.209-7.79l.084-.025c2.306-.641 4.212-.425 5.231.594 1.022 1.019 1.238 2.922.594 5.219l-.025.084-5.884-5.872zm-1.921 18.05a11.04 11.04 0 0 0 1.681-.913 6.107 6.107 0 0 1-1.534 2.766 9.151 9.151 0 0 0-.147-1.853z"/></symbol><symbol viewBox="0 0 1024 1024" id="codeGitWebHookTrigger" xmlns="http://www.w3.org/2000/svg"><path class="aist2" d="M941 466.7L557.3 83c-12.1-12.1-28.2-18.7-45.3-18.7-17.1 0-33.2 6.7-45.3 18.7L83 466.7c-12.1 12.1-18.7 28.2-18.7 45.3 0 17.1 6.7 33.2 18.7 45.3L466.7 941c12.5 12.5 28.9 18.7 45.3 18.7s32.8-6.2 45.3-18.7L941 557.3c25-25 25-65.6 0-90.6zM512 895.8L128.3 512 388 252.3l58.9 58.9c-1.9 6.3-2.9 12.9-2.9 19.8 0 26 14.6 48.6 36 60v253c-21.4 11.4-36 34-36 60 0 37.6 30.4 68 68 68s68-30.4 68-68c0-26-14.6-48.6-36-60V408.3l89.7 89.7c-1.8 6-2.7 12.4-2.7 19 0 37.6 30.4 68 68 68 6.6 0 13-1 19-2.7l.3.3.6-.6c27.8-8.5 48-34.4 48-65 0-37.6-30.4-68-68-68-7.2 0-14.1 1.1-20.6 3.2L577.1 350.8c1.9-6.3 2.9-12.9 2.9-19.8 0-37.6-30.4-68-68-68-6.9 0-13.5 1-19.8 2.9L433.3 207l78.7-78.7L895.7 512 512 895.8z"/></symbol><symbol viewBox="0 0 64 64" id="codeGithubWebHookTrigger" xmlns="http://www.w3.org/2000/svg"><path class="ajcls-1" d="M3.74 32A27.39 27.39 0 0 1 6 21.16a27.88 27.88 0 0 1 6-8.95 28.28 28.28 0 0 1 8.94-6 27.83 27.83 0 0 1 21.76 0 27.37 27.37 0 0 1 14.91 14.9A27.49 27.49 0 0 1 59.74 32a27.14 27.14 0 0 1-5.33 16.43 27.55 27.55 0 0 1-13.7 10.14 1.06 1.06 0 0 1-.65-.16.56.56 0 0 1-.25-.33 3.91 3.91 0 0 1 0-.49.3.3 0 0 1-.05-.16v-7.02a7.75 7.75 0 0 0-2.35-5.68q6.28-1.09 9.4-4.68a12.75 12.75 0 0 0 3.12-8.67 12.12 12.12 0 0 0-3.06-8.25 11 11 0 0 0-.39-7.39 8.36 8.36 0 0 0-3.33.52 13.73 13.73 0 0 0-2.68 1.18c-.58.36-1.11.71-1.59 1a26.29 26.29 0 0 0-7.08-.88 25.76 25.76 0 0 0-7 .88c-.4-.3-.86-.61-1.39-1a15.09 15.09 0 0 0-2.76-1.26 8.66 8.66 0 0 0-3.65-.55 10.72 10.72 0 0 0-.33 7.5 12.26 12.26 0 0 0-3 8.25A12.79 12.79 0 0 0 16.76 40q3.06 3.56 9.4 4.71A7.77 7.77 0 0 0 24 48.56q-4.65 1.14-6.51-1.65-3.45-5-6.18-3.61c-.26.26-.22.52.11.8s.82.64 1.48 1.09a5.11 5.11 0 0 1 1.47 1.51 7.88 7.88 0 0 1 .3.79c.16.44.32.88.5 1.31a4.54 4.54 0 0 0 .93 1.39 6.16 6.16 0 0 0 1.58 1.29 7.32 7.32 0 0 0 2.49.77 14 14 0 0 0 3.61 0v5.5a2.12 2.12 0 0 1 0 .27.42.42 0 0 1-.11.27 1.05 1.05 0 0 1-.22.17.62.62 0 0 1-.35.08 4.28 4.28 0 0 1-.55-.05A27.48 27.48 0 0 1 9 48.36 27.18 27.18 0 0 1 3.74 32z"/></symbol><symbol viewBox="0 0 32 32" id="codeGitlabWebHookTrigger" xmlns="http://www.w3.org/2000/svg"><path d="M29.297 18.484L24.569 3.915a.964.964 0 0 0-1.825-.029l-3.359 9.369h-6.769L9.257 3.886a.965.965 0 0 0-1.825.028L2.704 18.483a.968.968 0 0 0 .35 1.078l12.381 9.003a.97.97 0 0 0 .566.184.97.97 0 0 0 .566-.184l12.381-9.003a.968.968 0 0 0 .35-1.078zM23.606 7.197l1.966 6.059h-4.137l2.172-6.059zm.475 7.991l-6.153 7.853 2.813-7.853h3.341zm-5.387 0L16 22.7l-2.694-7.512h5.388zm-4.616 7.856l-6.159-7.856h3.337l2.822 7.856zM8.394 7.197l2.172 6.059H6.428l1.966-6.059zm-2.691 8.287l6.594 8.416-7.544-5.488.95-2.928zM19.7 23.9l6.594-8.416.95 2.928L19.7 23.9z"/></symbol><symbol viewBox="0 0 1024 1024" id="codeSVNWebHookTrigger" xmlns="http://www.w3.org/2000/svg"><path class="alst2" d="M96 112v592h832V112H96zm241 245.1c-3-29.5 148.1-85 295-119.7 95.6-22.6 188.5-38 231.9-44.6v142C653 347.4 341.3 399.7 337 357.1zm174 192.2c-125.7 34.4-288.4 62.8-351 73.2V473.6c84.7-3.4 181.4-17.7 222.7-21.5 79.2-7.2 327.3-42.6 343.6-6.4 12.3 28.9-71.1 64.1-215.3 103.6zM723.4 176c-109.5 24.4-236.3 57-299.9 72.5-52 12.7-167.5 48-263.5 87.5V176h563.4zM298.1 640c86.6-17.4 202.3-42.8 324.6-76.1 90.3-24.6 173-51 241.3-77.2V640H298.1zM96 848h832v64H96zM922.9 747.7c-4.5 0-4.9 3.2-4.9 6.7v31.1c-2.1-1.4-3.2-2.9-4.3-4.5-6.3-9.4-12.6-18.9-18.7-28.4-2.1-3.3-4.5-6-8.9-4.7-4.6 1.3-4.6 5.1-4.5 8.9V799c0 3.2 1 5.9 4.6 6.2 3.9.4 5.3-2.4 5.7-5.7.2-1.6.2-3.2.3-4.8V768c.3-.1.7-.2 1-.2 2.8 4.2 5.5 8.5 8.3 12.7 4.6 7.1 9.2 14.2 14 21.1 1.9 2.8 4.8 4.3 8.3 3.3 3.6-1 4.2-3.9 4.2-7.2v-43.6c0-3.4-.6-6.4-5.1-6.4zM474.9 757.1c6.7.3 13.4.2 20.1 0 2.8-.1 6-.2 6.2-4.4.1-4.3-3.3-4.5-6-4.5-9.4-.2-18.8-.3-28.2.1-6.5.3-7.6 1.8-7.8 8.3-.2 6.5 0 13.1 0 19.6 0 6.9-.1 13.7 0 20.6.1 3.8 1.6 7.2 6 7.3 10.8.2 21.7.2 32.5 0 2.6 0 4.5-1.5 4.5-4.6-.1-3.2-2-4.1-4.7-4.1h-14.8c-12.5 0-12.4 0-12.1-12.4.1-3 1-3.8 3.9-3.8 6.5.2 13.1.1 19.6 0 2.8 0 5.2-.9 5.1-4.3-.1-3.3-2.4-4.2-5.2-4.2h-14.4c-9.1 0-9 0-9.1-9-.1-3.4.7-4.7 4.4-4.6zM196.4 754.9c-.1-3.6-.9-7.2-5.8-7.2-4.9 0-5.5 3.4-5.5 7.2v14.8h.1c0 5.3-.2 10.5 0 15.8.4 9.7 5.2 16.2 13.7 18.5 4.2 1.1 8.4 1.6 12.8 1.3 10.3-.8 17.7-5.9 19.2-14.2 2.3-12.6.9-25.4 1-38.2 0-2.2-1.3-4.4-3.8-5-2.1-.5-4.2-.4-5.8 1.2-1.6 1.6-1.7 3.7-1.7 5.8 0 9.7.2 19.5-.1 29.2-.2 8.5-4.6 12.4-12.6 12.2-7.6-.2-11.1-4-11.4-12.3-.1-1.8 0-3.5 0-5.3 0-7.9.1-15.9-.1-23.8zM663.6 795.8c-7.1 3.1-13.9.7-17.2-6.3-.5-1-.9-2-1.5-3-1.3-2.3-3.3-2.9-5.7-2.3-2.6.7-3.5 2.5-3.4 5.1.1 3.6 1.7 6.4 4 9 6.1 6.8 19 9.1 28.9 5.1 7.4-3 11.3-8.5 11.3-16.1 0-7.2-3.4-11.7-11.4-14.7-3-1.1-6.1-1.8-9.1-2.7-3-.9-6.3-1.3-9-3.1-4.3-2.8-4.2-7.4.4-9.8 1.2-.7 2.7-1.1 4.1-1.3 6.1-.9 10.5 1.4 13.1 7.2 1.2 2.7 3.6 4.4 6.6 3 2.8-1.3 3.5-3.8 2.7-6.9-.8-3.1-2.6-5.4-5-7.3-4.3-3.3-9.2-4.2-14.4-4-1.9.1-3.8.1-5.7.3-9.6 1.1-15.7 7.7-15.2 16.4.5 7.3 5.4 10.9 11.5 13.1 4.9 1.8 10.1 2.8 15.1 4.5 3 1 5.3 3.1 5.3 6.6-.1 3.4-2.1 5.8-5.4 7.2zM124.4 795.4c-6.8 3.7-14.3 1.2-17.8-5.7l-1.5-3c-1.3-2.6-3.5-3.2-6-2.4-2.6.7-3.2 2.8-3.1 5.3.1 3.4 1.7 6.1 3.8 8.5 7.9 8.9 26.7 9.6 35.3 1.3 8.2-7.9 6.4-20.5-3.6-25.7-3.7-1.9-7.7-2.9-11.7-4-3.2-.8-6.6-1.3-9.4-3.2-3.7-2.5-3.8-6.3-.4-9.1 4.7-3.8 13-2.5 16.5 2.5.9 1.3 1.7 2.7 2.6 4 1.3 2.2 3.3 2.4 5.4 1.8 2-.6 3-2.2 3.1-4.4.2-4-1.6-7.1-4.6-9.5-4.4-3.6-9.7-4.7-15.1-4.3-4.3-.2-8.4.2-12.2 2.2-5.2 2.6-8.4 6.6-8.5 12.7-.2 6.3 2.6 10.6 8.2 13.4 5.8 2.9 12.2 3.6 18.1 5.8 2.9 1.1 5.3 2.8 5.5 6.4 0 3.7-1.8 5.9-4.6 7.4zM391.1 805.2c3.6 0 6-2 7.3-5.2 1.7-4.3 3.3-8.6 4.9-12.9 3.9-10.6 7.7-21.2 11.7-31.8.9-2.3.7-4.3-1.1-6.1-1.7-1.7-3.7-1.8-5.8-1.2-2.5.7-3 3.2-3.7 5.3-4.3 12.6-8.6 25.3-13.2 38.8-.8-2.1-1.2-3.2-1.5-4.2-4.1-11.9-8.1-23.8-12.2-35.7-1.2-3.6-3.6-5.2-7.3-4.2-3.9 1.1-4.2 4.4-3.1 7.4 5.3 15 10.9 29.9 16.5 44.9 1.3 3 4 4.9 7.5 4.9zM736.5 753.7c0-2.5-.7-4.9-3.4-5.7-2-.6-4.2-.7-5.8.9-2 1.9-2.1 4.5-2.1 7.1v24.8c0 5.9-.2 11.8.1 17.7.2 3.5 1.6 6.9 5.9 6.7 4.1-.2 5.4-3.2 5.4-7.1-.1-7.2 0-14.3 0-21.5-.1-7.6-.1-15.3-.1-22.9zM322.7 760.1c-1.2-5.9-4.8-10-10.7-10.9-9-1.4-18.1-1.6-27.1-.7-4 .4-5.7 2.8-5.7 6.3-.1 14.2-.1 28.4 0 42.6 0 4.1 2.1 6.8 6.4 6.8 9.1 0 18.2.9 27.2-.8 6.7-1.3 11.1-5.1 12.6-12 1.5-7.1-.7-11.1-9.8-17.1 5.4-3.5 8.3-7.9 7.1-14.2zm-26.4-3.6c3.3.4 6.6.2 9.9.9 3.4.7 5.4 2.5 5.4 6.2 0 3.8-1.6 6.5-5.5 7.2-2.3.4-4.8.3-7.1.4-8.5-.1-8.3-.1-8.7-8.6-.2-4.9 1.1-6.7 6-6.1zm9.6 39.1c-2.4.3-4.8 0-7.2 0-8.3.1-8.3.1-8.3-8.1 0-8.1 0-8.2 8-8.1 2.5 0 5.1-.1 7.6.2 5.1.6 8.1 3.6 8.2 7.8.1 4.4-3.1 7.6-8.3 8.2zM591.7 761.4c-1.1-6.5-5.9-11.7-12.2-12.5-8.5-1-17.2-1.4-25.7-.6-6.2.6-7.5 2.1-7.6 8.6-.1 13.2 0 26.5 0 39.7 0 1.1.2 2.2.4 3.3.5 3.2 2.2 5.5 5.7 5.2 3.6-.3 5.3-2.5 5.3-6.1 0-5.1.1-10.2 0-15.3-.1-2.4.7-3.3 3.2-3.4 5.5-.3 9.1 2.3 11.9 6.6 3.2 5 6.1 10.1 9.3 15 1.9 3 4.7 4.4 8.2 2.5 3.7-1.9 2.8-4.8 1.4-7.8-3-6.6-6.9-12.5-13.1-17.5 2.3-1 4.1-1.6 5.8-2.5 5.5-3 8.4-9 7.4-15.2zm-16.9 10.1c-2.8.6-5.7.5-8.5.8-8.7-.1-8.7-.1-8.7-9.1 0-7.4-.9-6.5 6.7-6.5 3.5 0 7-.2 10.4.8 3.8 1 5.6 3.6 5.6 7.3 0 3.6-2.1 5.9-5.5 6.7zM817.8 804.2c11.6-3 18.4-13.3 18.3-28 .4-19.7-12.1-31.5-34.2-28.1-11.4 1.8-18.1 10.5-19.8 24.3-2.8 22.6 13.9 37.4 35.7 31.8zm-22.6-17.3c-2.4-5.9-2.6-12.1-1.1-18.3 2-8.1 7.9-12.5 16-12.1 7.2.3 13.1 6 14.2 13.8.3 1.9.3 3.8.3 4.5 0 5.1-.1 8.9-1.8 12.4-2.7 5.9-8.3 9.6-14.4 9.2-6.2-.5-10.8-3.7-13.2-9.5z"/></symbol><symbol viewBox="0 0 32 32" id="customizeArchiveGet" xmlns="http://www.w3.org/2000/svg"><path d="M22.856 13.728V6.959L16 3 9.144 6.959v6.769l-5.856 3.381v7.916l6.856 3.959L16 25.606l5.856 3.381 6.856-3.959v-7.919l-5.856-3.381zM16 5.313l4.856 2.803v5.606L16 16.525l-.006-.003v-5.606l-4.85-2.803L16 5.313zm-5.856 10.15L15 18.266v5.606l-4.85 2.8v-5.6l-4.862-2.806 4.856-2.803zm16.568 8.409l-4.844 2.797v-5.597l-4.866-2.809 4.853-2.803 4.856 2.803v5.609z"/></symbol><symbol viewBox="0 0 32 32" id="enterpriseSign" xmlns="http://www.w3.org/2000/svg"><path d="M18.25 21.925L16 20.378l-2.25 1.547v-4.681a5.528 5.528 0 0 1-1.5-.997v8.528L16 22.197l3.75 2.578v-8.528a5.552 5.552 0 0 1-1.5.997v4.681zM17.984 12.225a2 2 0 1 1-3.999.001 2 2 0 0 1 3.999-.001z"/><path d="M3 3v26h26V3H3zm17.519 7.081a5 5 0 0 0-9.044.01L6.381 4.997H25.6l-5.081 5.084zm-1.522 2.003a3.003 3.003 0 0 1-3.137 3.138 3.01 3.01 0 0 1-2.856-2.856 3.001 3.001 0 0 1 3.137-3.137 3.008 3.008 0 0 1 2.856 2.856zM5 27V6.447l6.006 6.006a4.998 4.998 0 1 0 9.988-.016L27 6.431V27H5z"/></symbol><symbol viewBox="0 0 32 32" id="fileArchive" xmlns="http://www.w3.org/2000/svg"><path d="M16 23.563a10.76 10.76 0 0 1-7.625-3.156 10.744 10.744 0 0 1-3.156-7.625 10.76 10.76 0 0 1 3.156-7.625A10.744 10.744 0 0 1 16 2.001a10.76 10.76 0 0 1 7.625 3.156 10.744 10.744 0 0 1 3.156 7.625 10.76 10.76 0 0 1-3.156 7.625A10.744 10.744 0 0 1 16 23.563zM16 4c-4.841 0-8.781 3.941-8.781 8.781S11.16 21.562 16 21.562c4.841 0 8.781-3.941 8.781-8.781S20.84 4 16 4zM5.219 28h21.563v2H5.219v-2z"/></symbol><symbol viewBox="0 0 64 64" id="finger-left" xmlns="http://www.w3.org/2000/svg"><style>.apst0{fill:#828d97}</style><g id="ap小"><path class="apst0" d="M55.5 20.2c-.1-.1-.2-.2-.3-.2-.1 0-.1-.1-.2-.1-.1-.1-.2-.1-.2-.2L41.9 11c-1.5-1-3.3-1.4-5.1-1-1.8.3-3.3 1.4-4.3 2.9-.7 1.1-1.1 2.4-1.1 3.7 0 1 .2 2 .7 2.9H10.8c-3.7 0-6.7 2.9-6.7 6.4s3 6.5 6.7 6.5h6.8c-.2.5-.3 1.1-.3 1.6 0 1.7.8 3.3 2.1 4.4-.6.9-.9 1.9-.9 2.9 0 1.2.4 2.3 1.1 3.3.6.7 1.3 1.4 2.1 1.8-.2.5-.3 1.1-.3 1.6 0 3.3 3 6 6.7 6H46c4 0 8.3-1.8 11.2-4.6 1.6-1.6 2.4-3.3 2.4-4.8V26.4c.3-3.4-2.1-5-4.1-6.2zm.4 24.5c0 .5-.9 1.9-2.8 3.2-2.1 1.4-4.6 2.2-6.8 2.2H28.4c-1.5 0-2.7-.9-2.7-2 0-.2.1-.5.2-.7h6.2c1-.1 1.9-.9 1.9-2s-.8-1.9-1.9-2h-5.4l-1.5-.1c-1.4-.1-2.5-1-2.5-2 0-.4.2-.9.6-1.3h6.8c1.1 0 2-.9 2-2s-.9-2-2-2h-5.9l-.7-.2c-1.2-.3-2-1.1-2-1.9 0-.6.4-1.2 1-1.5l6.7-.1h2.5c1 0 1.8-.8 1.8-1.8v-.4c0-1-.8-1.8-1.8-1.8H10.8c-1.5 0-2.7-1.1-2.7-2.4 0-1.4 1.2-2.4 2.7-2.4l19.6.1h8c1.1 0 2-.9 2-2 0-.8-.5-1.5-1.2-1.8-.1 0-.2-.1-.3-.1l-2.2-.8c-.8-.5-1.2-1.4-1.2-2.3 0-.5.2-1.1.5-1.5.8-1.2 2.5-1.6 3.8-.7L52.5 23s.1.1.2.1.1.1.2.1c.1.1.3.2.3.2l.1.1h.1c2.1 1.3 2.6 1.8 2.6 2.9l-.1 18.3z"/></g></symbol><symbol id="go" viewBox="0 0 64 64" xml:space="preserve" xmlns="http://www.w3.org/2000/svg"><style>.aqst0{fill:#727985}</style><g id="aq图层_65"><path class="aqst0" d="M51.6 32.3c-.8-.6-1.9-.9-2.9-.8-.2-5.8.3-11.7-1.2-17.3 5.6-2 1.3-9.7-3.6-6.6C40.6 4.5 35.9 4 31 4c-4.4.4-8.7 1.2-11.8 3.6-4.8-2.9-9.2 4.2-4.1 6.4-1.7 5.9-.3 11.8-.2 17.8-1-.1-2.1.2-2.9.8-.5.3-1.3 1.4-.4 1.8.1 1.7 1.7.9 2.5.4.3-.2.6-.2.8-.3-.3 5.8-1.7 13.3 1.5 18.4.6.9 1.3 1.7 2.1 2.4-1.2.9-3.3 2.1-2.2 3.8l.3.3c.1.2.7 1 1.9.3 1.1-.6 2.2-1.9 3.5-2.2 2.6 1.1 5.4 1.6 8 1.7 4 .1 8.6-.4 12.1-2.5l-.1.1c1.6.5 2.7 4 4.5 2.3 1.9-1.2-.4-3.6-1.7-4.3-.1 0-.1 0-.2.1.9-.9 1.7-1.9 2.3-3.1 2.7-5.3 2.2-11.8 1.8-17.6.1.1.4.1.7.3.8.5 2.4 1.3 2.5-.4 1-.4.1-1.5-.3-1.8zM47 9.8c.4.7.1 1.3-.4 1.7-.1-.2-.1-.3-.2-.5-.3-.7-.7-1.2-1.1-1.8.7-.2 1.4-.1 1.7.6zm-31.8.1c.4-.8 1.2-.8 2-.4-.5.7-1 1.4-1.4 2.3-.6-.5-1-1-.6-1.9zm30.3 40.6c-2.8 5.7-9.6 7.1-15.3 6.9-4.5-.2-9.8-1.7-12.3-5.9-3-5-1.6-12.3-1.3-17.8.3-6.5-1.7-13.1.4-19.5 2.1-6.6 7.9-8.1 14.2-8.6 5.8 0 11.2.9 14 6.6 2.5 6.5 1.6 13.4 2 20.2.2 5.9 1 12.7-1.7 18.1z"/><path class="aqst0" d="M32.3 12.8c1.1 6.7 12 4.9 10.5-1.8-1.4-6-10.9-4.3-10.5 1.8zm1.6.4c.2.6.8 1 1.4 1 .9 0 1.5-.8 1.5-1.7 0-.9-.7-1.7-1.5-1.7-.9 0-1.5.8-1.5 1.7v.3c0-.1 0-.1-.1-.2-.3-4.4 6.7-5.6 7.7-1.3 1.1 4.6-6.1 5.9-7.5 1.9zm1.7-.3c0-.2.2-.4.4-.4s.4.2.4.4-.2.4-.4.4c-.2.1-.4-.1-.4-.4zM29.7 12.4c-.4-7-11.8-5.6-10.4 1.5 1.5 5.8 10.8 4.3 10.4-1.5zm-9 1.2c0-.1 0-.1 0 0 .2.6.8 1.1 1.5 1.1.9 0 1.6-.8 1.6-1.7s-.7-1.7-1.6-1.7c-.8 0-1.5.7-1.6 1.5-.1-4.4 7.4-5 7.7-.3.3 4.1-6.5 5.2-7.6 1.1zm1.8-.3c0-.2.2-.4.4-.4s.4.2.4.4-.2.4-.4.4c-.2.1-.4-.1-.4-.4z"/><path class="aqst0" d="M33.8 17.5c.1-.2.1-.4.1-.6-.5-1.8-4.7-1.6-4.6.6v.1c-1.2.2-2.2 1.6-1.5 2.8.3.6.8.7 1.3.7-.5 1.7.6 4.5 2.3 2.2-.1-1 0-1.9.1-2.9-.3 0-.6.1-.9.2 0 .7-.1 1.4-.1 2.1-.2.9-.5-.8-.4-1.9.6-.2 1.3-.5 1.8-.4.5 0 .9.2 1.4.4-.1 0-.2-.1-.3-.1v2c0 .3-.1.4-.2.4-.1-.1-.2-.3-.2-.6v-1.9c-.2-.1-.4-.1-.6-.1h-.2c0 1-.2 1.9-.1 2.9.2.5.6.8 1.2.9.4-.1.8-.2 1-.6.2-.9 0-1.8 0-2.6.6.2 1.2.3 1.8-.3.9-1.4-.6-2.7-1.9-3.3z"/><path class="aqst0" d="M29.2 17.5c0-.4-.1-.5-.1-.6.1.1.1.6.1.6zM29.1 16.9z"/></g></symbol><symbol viewBox="0 0 120 120" id="go-neat" xmlns="http://www.w3.org/2000/svg"><g fill="#737987"><path d="M47 21.1c-10.1 4.6-16 13.7-16 25.1 0 4.7.4 6.8 1.3 6.9.6 0 2.2.2 3.4.5 2 .3 2.1.1 1.6-5.4-.9-10.6 5.8-20.7 15.9-23.7 7-2.1 10.4-1.9 16.3.9 6.3 2.9 11.2 8.4 12.7 14.2.7 2.4 1.5 4.4 1.9 4.4 1.7 0 1.8-2 .3-6.3C80.9 27.3 69 19 57.6 19c-4 0-7.7.8-10.6 2.1zm-5 7.5c-4.4 5-7 11.6-7 17.5 0 3.1-.4 4.8-1 4.4-1.6-1-1.1-9.7.9-14.1C36.5 33 43.3 25 44.8 25c.2 0-1 1.6-2.8 3.6z"/><path d="M88.8 31.6c4.1 3.2 4.1 6.3.2 10.7-7 8.1-26.8 14.9-43.5 15.1-16 .2-25.4-4-24.1-10.6.3-1.8 1.4-4.1 2.4-5.2 2.1-2.4-.2-1.3-3.6 1.8-3.9 3.4-4.4 5.2-2.8 9 1.7 4 7.1 7.9 13.6 9.7 2.5.7 6.3 2.9 8.6 4.9 5.9 5.4 11.9 7.4 20.1 6.8C70.5 73 77.9 68 83 58c1.1-2.1 4-5.3 6.6-7 10.4-7.2 11-15.1 1.4-20-5.3-2.7-6.2-2.5-2.2.6zm6.2 8.3c0 3-.8 3.9-9.4 11.2-6.1 5.2-19.4 9.7-31.4 10.6-9.4.7-11.6 2.1-8.6 5.5l1.9 2.1-3-1.6c-1.6-.8-4.3-2.8-5.8-4.5l-2.8-2.9 12.3-.6C55 59.4 63 58.4 66 57.5c13.2-3.7 26.1-12.1 27.6-18 .8-3.3 1.4-3.1 1.4.4zM78.3 60.8c-6.2 7.7-15.7 10.7-24.8 7.8-2.9-.9-5.8-2.3-6.5-3.1-1.1-1.3-.4-1.5 5.1-1.4 7.9.1 19.1-2.4 24.4-5.5 2.2-1.2 4.2-2.1 4.4-1.9.3.2-.9 2-2.6 4.1zM100.3 75.7c-.7.3-1.3 1.1-1.3 1.9 0 .8-.7 1.4-1.5 1.4s-1.5.4-1.5 1c0 .5.7 1 1.6 1 1.2 0 1.5.9 1.3 3.8-.2 2.1 0 4.3.5 5 1 1.6 5.9 1.6 5.3-.1-.2-.6-1-1.1-1.6-.9-.7.1-1.1-1.4-1.1-3.8 0-2.9.4-4 1.5-4 .8 0 1.5-.5 1.5-1 0-.6-.6-1-1.4-1-.8 0-1.6-.8-1.8-1.8-.2-1.1-.9-1.7-1.5-1.5zM14.8 81.5c-.8 1.8-.9 3.4-.2 5.3.8 2.3 1.5 2.7 4.7 2.7 2.7 0 3.6.4 3.2 1.3-.3.8-.5 1.6-.5 1.8 0 .2-.9.4-2 .4s-2-.5-2-1c0-.6-.7-1-1.6-1-.9 0-1.4.7-1.2 1.7.2 1.3 1.4 1.9 4.1 2.1 5.7.5 6.7-.9 6.7-8.9V79h-5c-4.4 0-5.2.3-6.2 2.5zm7.7.6C23.8 84 22.1 88 20 88c-1.6 0-2-.7-2-3.5s.4-3.5 1.9-3.5c1.1 0 2.3.5 2.6 1.1zM29.6 81.1c-2.7 4 0 9.9 4.7 9.9 5.3 0 8.5-6.3 5.1-10.1-2.4-2.6-7.8-2.5-9.8.2zm6.9 3.9c0 2.8-.4 3.5-2 3.5-1.3 0-2.1-.8-2.3-2.3-.5-3.4.5-5.4 2.5-5 1.3.2 1.8 1.3 1.8 3.8zM57 85.2c0 5.1.2 5.9 1.8 5.6 1.3-.3 1.7-1.3 1.7-4.8 0-3.8.3-4.5 2-4.5s2 .8 2.3 4.7c.2 3.5.7 4.8 1.8 4.8 1.2 0 1.4-1.2 1.2-5.8l-.3-5.7-5.2-.2-5.3-.1v6zM72.2 80.2c-2 2-1.5 8.6.7 9.8 2.8 1.5 6.7 1.2 8.1-.5 1.8-2.2.4-3.1-2.4-1.6-2.4 1.3-4.6.8-4.6-1 0-.5 1.8-.9 4-.9 3.5 0 4-.3 4-2.3 0-3.1-1.8-4.7-5.5-4.7-1.7 0-3.6.5-4.3 1.2zm6.3 1.8c.4.6-.5 1-2 1s-2.4-.4-2-1c.3-.6 1.2-1 2-1s1.7.4 2 1zM84.9 80.7c-1.3 1.5-1.1 1.6 2.4.9 2.3-.4 3.7-.3 3.7.4 0 .5-1 1-2.3 1-2.9 0-4.7 1.8-4.7 4.7 0 2.7 4.2 4.2 6.5 2.3 1-.9 1.5-.9 1.5-.1 0 .6.6 1.1 1.3 1.1 1.3 0 1.6-8.7.3-10.8-1.1-1.8-7.1-1.5-8.7.5zm6.1 5.7c0 .8-.5 1.8-1.1 2.2-1.4.8-3.3-1.1-2.5-2.5 1-1.6 3.6-1.3 3.6.3zM43 84.7c0 .9 1.8 1.3 5.5 1.3s5.5-.4 5.5-1.3c0-.8-1.8-1.2-5.5-1.2s-5.5.4-5.5 1.2z"/></g></symbol><symbol id="going" viewBox="0 0 64 64" xml:space="preserve" xmlns="http://www.w3.org/2000/svg"><style>.asst0{fill:#727985}</style><g id="as图层_66"><path class="asst0" d="M17.5 52.1v2.2h2s-.4.9-1.9.9-2-1.3-2-2.4c0-.8.6-2 1.9-2 1.6 0 1.9 1.3 1.9 1.3l2.2-1.2s-.9-2.5-4.2-2.5c-1.5 0-4.3 1.4-4.3 4.8 0 2.4 2.2 4.4 4.3 4.4 1.3 0 3.9-.6 4.5-3.4.2-.8.1-2.1.1-2.1h-4.5zM29.8 57.2h2.3v-6h-2.3zM47.6 48.6h2.5V54h-2.5zM25.8 50.9c-1.8 0-3.3 1.5-3.3 3.3s1.5 3.3 3.3 3.3 3.3-1.5 3.3-3.3-1.5-3.3-3.3-3.3zm0 4.4c-.6 0-1.1-.5-1.1-1.1s.5-1.1 1.1-1.1 1.1.5 1.1 1.1-.5 1.1-1.1 1.1zM30.9 48.4c-.7 0-1.3.6-1.3 1.3s.6 1.3 1.3 1.3c.7 0 1.3-.6 1.3-1.3s-.5-1.3-1.3-1.3zM48.9 54.4c-.8 0-1.5.7-1.5 1.5s.7 1.5 1.5 1.5 1.5-.7 1.5-1.5-.7-1.5-1.5-1.5zM37.1 51.1c-.9 0-1.6.2-1.9.7v-.6h-2.1v6h2.3v-3.4c0-.3.2-.8.8-.8s.7.5.7.8v3.4h2.3v-4s0-2.1-2.1-2.1zM44.4 51.2v.4s-.6-.5-1.6-.5c-1.1 0-2.8.8-2.8 3.2 0 2.5 2.1 2.9 3.1 2.9s1.6-.8 1.6-.8v.5s-.4 1-1.2 1-1-.6-1-.6h-2.4c0 .7.6 2.9 3.5 2.9s3.2-2.8 3.2-2.8v-6h-2.4v-.2zm-1 4c-.6 0-1.1-.5-1.1-1.1s.5-1.1 1.1-1.1 1.1.5 1.1 1.1-.5 1.1-1.1 1.1zM31.6 43.1c3.6-.5 6.3-1.5 6.3-1.5v8.2s5.9-3.1 10.6-13.5c4.2-9.2 4.2-13.2 4.2-13.2s-7.5.8-11.9.7c-4.1 0-10.8-.2-12-.5 2.2 3.7 5 5.7 5 5.7s-4.5 1.9-7.3-.3c-1.7-1.3-2-4-1.7-5.7.5-2.7 2.8-6.3 8.7-7.4 3.3-.6 7.1.1 9.7 3.4 1.3 1.7 1.8 3.5 1.8 3.8.2-.1.4-.2.8-.3 0-.6.1-4.1-3.3-6.8 1.7.9 3.8 3.5 4.2 6.4.3-.1.7-.3 1-.5-.1-1.1-.7-5.8-3.8-7.9 1.6.9 4.1 3 4.8 7.5.4-.2.7-.3 1.1-.5 0-.7-.2-3.6-2-5.9 1.1 1.2 2.4 3.5 2.7 5.6.7-.3 1.4-.6 2-.9 0-1.5-.4-6.6-4.6-10.4-5-4.5-10.8-5.4-16.4-4.7-5.6.6-13.9 4.3-17.9 12.5s-2.5 17.2 2.2 21.5c4.8 4.1 10.6 5.5 15.8 4.7z"/></g></symbol><symbol viewBox="0 0 32 32" id="iosCertInstall" xmlns="http://www.w3.org/2000/svg"><path d="M16 11a7.975 7.975 0 0 1 5.657 2.344 7.978 7.978 0 0 1 2.344 5.657 7.953 7.953 0 0 1-2.344 5.657A7.983 7.983 0 0 1 16 27.002a7.953 7.953 0 0 1-5.657-2.344 7.983 7.983 0 0 1-2.344-5.657 7.971 7.971 0 0 1 2.344-5.657A7.978 7.978 0 0 1 16 11zm0-2C10.478 9 6 13.478 6 19s4.478 10 10 10 10-4.478 10-10S21.522 9 16 9z"/><path d="M11.956 24.813l.762-4.494-3.269-3.175 4.509-.663 2.009-4.094 2.025 4.084 4.512.647-3.259 3.188.778 4.491-4.037-2.116-4.031 2.131zM26 3H6v7.078l1.847 1.537c.453-.5.95-.956 1.484-1.366L8 9.14V4.999h4v3.75c.641-.25 1.309-.441 2-.569V4.999h4V8.18c.691.128 1.359.319 2 .569v-3.75h4V9.14l-1.331 1.109a10.74 10.74 0 0 1 1.484 1.366L26 10.078V3z"/></symbol><symbol viewBox="0 0 32 32" id="ipaFileArchive" xmlns="http://www.w3.org/2000/svg"><path d="M4.603 12.528l-2.478 9.25a.376.376 0 0 0 .362.472h3.222a.373.373 0 0 0 .362-.278l2.478-9.25a.376.376 0 0 0-.363-.472H4.964a.373.373 0 0 0-.362.278zM26.666 9.863l-11.509 11.75a.375.375 0 0 0 .269.637h1.419c.1 0 .197-.041.269-.113l6.672-6.819c.269-.275.731-.012.631.359l-.406 1.516a.378.378 0 0 1-.363.278h-1.012a.384.384 0 0 0-.275.119l-1.172 1.25a.374.374 0 0 0 .275.631h1.447c.247 0 .425.234.363.472l-.494 1.837a.376.376 0 0 0 .363.472h3.222a.375.375 0 0 0 .363-.278l3.147-11.75a.376.376 0 0 0-.363-.472h-2.581a.349.349 0 0 0-.262.109z"/><path d="M18.772 16.428l.006-.006a4.227 4.227 0 0 0 1.031-1.722l.625-2.016a2.262 2.262 0 0 0-2.159-2.931H5.634a.373.373 0 0 0-.362.278l-.334 1.25a.376.376 0 0 0 .362.472h9.831c.847 0 1.463.803 1.244 1.622l-.131.491a1.873 1.873 0 0 1-1.809 1.387h-.075a.376.376 0 0 1-.363-.472l.55-2.056a.376.376 0 0 0-.363-.472h-3.219a.375.375 0 0 0-.363.278l-2.478 9.25a.376.376 0 0 0 .363.472h3.222a.375.375 0 0 0 .363-.278l1.191-4.444a.378.378 0 0 1 .363-.278h3.184a2.772 2.772 0 0 0 1.962-.825z"/></symbol><symbol viewBox="0 0 1024 1024" id="java" xmlns="http://www.w3.org/2000/svg"><style>.st0{display:none}.avst1{fill:#737987}</style><g id="avJAVA"><path class="avst1" d="M579.8 79.3c28.4 50.4 20.9 97.9-11.5 143.4-13.9 19.5-30.1 37.1-46.9 54.1-23.3 23.6-47.7 46.3-67 73.7-15.5 22-19 44.2-7 69.7 16.3 34.6 32.4 69.2 53 101.5 1.5 2.4 2.6 4.4 7.6 10.4-20-10-94.1-70-122.6-118.6-12.8-21.8-20.7-45.2-14.8-71 5-22.2 19-39.2 34.3-55 26.6-27.6 57.6-50.1 87.1-74.3 23.9-19.6 47.3-39.7 65.1-65.5 18-26.1 23.3-53.6 11-83.6 1.1-.2 8.9 10.1 11.7 15.2zM450.4 953.5c-57.4-7.5-113.5-20.3-167.5-41.8-1.6-.6-5.6-2.8-5.6-2.8s93.8 16.1 136.4 20.3c53.7 5.3 107.6 6 161.6 2.9 51.7-3 102.6-10.3 152.4-24.6 46.9-13.5 91.5-31.6 129.1-63.9 1.7-1.5 7.2-7.6 7.2-7.6s-3 33-27.8 56.3c-22.8 19.5-49.8 31.1-77.9 40.4-40.3 13.3-81.8 20.9-124 24.6-55.8 4.8-146.8 2.8-183.9-3.8z"/><path class="avst1" d="M321.4 776.4c-16.3-.3-32.2-.1-47.8 4.2-7.9 2.2-15.6 5-22.2 10-8.8 6.7-9.5 15.2-1.4 22.9 6.7 6.3 14.9 10.2 23.4 13.3 29 10.5 59.2 15.2 89.6 19 52.4 6.5 105.2 8.6 157.9 6.8 60.9-2.1 121.7-6.5 180.5-24.2 15.4-4.6 30.4-10.4 43.6-19.9 14-10.1 24.2-22.3 18.7-41.4-.4-1.5-2.7-6.1-2.7-6.1s15 4 27.6 16c12.5 12.7 12.1 31-.9 46.7-13.7 16.4-32.2 25.9-51.5 33.6-40.1 16-82.1 24-124.7 29.7-62 8.2-124.3 10.8-186.7 8.5-67.9-2.5-135.6-8.1-200.5-30.7-16.3-5.7-31.9-12.9-45.5-23.8-6.7-5.4-12.1-11.6-15.8-19.5-6.3-13.4-4.5-25.6 5.8-36.1 12.9-13.2 29-20.7 46.5-24.8 21.1-4.9 42.4-6.6 64.2-4.6 16.9 1.6 31.5 10 41.9 20.4zM688.9 546.1L633 589s-61 12-146.1 18.3c-34.4 2.1-68.7 4-103.1 2.8-38.4-1.4-76.9-3.4-114.3-13.5-10.5-2.8-20.5-6.7-29.8-12.3-17.9-10.9-19-28.4-2.3-41.1 16.1-12.3 35.3-16.2 54.5-20C326.5 516.3 408 513 408 513s-47 15.2-64.3 24c-4.4 2.2-8.6 5-12.4 8.1-5 4-4.7 7.6 1.8 10 8.9 3.2 18.2 4.4 27.4 5 54.5 3.8 109 3.2 163.5 1 39.6-1.6 79.1-4.6 118.5-9.4 13.6-1.6 46.4-5.6 46.4-5.6z"/><path class="avst1" d="M720.1 221.6s-74.8 39.9-121.4 92.9c-23.1 24.1-25.4 41.2-10.2 71 6.2 12.2 12.9 24.2 19.6 36.1 24.4 43.9 8.1 84.4-29.9 109.6C559 544 532 548.8 532 548.8s8.5-9.6 12.5-14.4c21.1-25.1 25.7-50.6 6.1-79.8-9.7-14.5-19.7-28.8-28.8-43.8-22.9-37.8-9.5-85.3 13.3-112.5 26.1-31.2 60.8-48.1 98.4-60.4 46.7-13.3 86.6-16.3 86.6-16.3zM461.7 655.1c46.5-.2 92.5-4.8 137.3-17.7 2.5-.7 6.9-2.4 6.9-2.4s4.1 3.1 6.2 4.5c13.3 8.4 45.5 30 45.5 30S614 689 554.3 697.9c-33.2 4.9-66.6 7.6-100.2 6.6-40.8-1.2-81.5-4.4-120.7-17.4-12.7-4.2-25.3-9-34.8-19.3-5.7-6.3-6.1-13-2.3-20.1 8.5-16.2 43.6-33.6 62.6-33.6 3 0 5 .9 5 .9s-5 4-8 13c-2.5 7.4 1.8 10.3 13.5 15.4 13.8 6.1 28.6 7.9 43.4 9.6 16.2 1.9 32.6 2.6 48.9 2.1zM457.4 792.7c-33.2-1.2-69.4-2.6-103.7-16-4.3-1.7-8.5-3.8-12.5-6.2-17.7-10.8-20.4-26-6.5-41.4 12.9-14.4 29.9-20.8 49-21.6 2.5-.1 8.2.6 8.2.6s-3 3-4.6 5.3c-4.2 6.2-1.2 10.4 4 13.8 8.6 5.6 18.5 6.9 28.3 8.2 30.9 4 61.7 1.4 92.4-2.3 23.7-2.8 47.3-7 69.8-15.6 1.8-.7 6.1-2.5 6.1-2.5s3.2 2.7 5.4 4.1C608.5 728.8 647 753 647 753s-5 2.9-8.1 4.5c-22.9 12.3-47.5 19.2-72.6 24.5-34.9 7.4-70.3 10.2-108.9 10.7zM685.3 705.9s62.9-53.1 80.2-84.8c5.6-10.3 9.8-21.2 10.4-33.1 1.3-24-11.4-41.8-34.4-49.4-12.2-4-36.9-2.8-36.9-2.8s53-28.1 83.3-18c25.3 8.4 38.4 27.7 41.3 53.6 4.8 41.9-13.1 68.2-46.3 92.6-28 20.7-97.6 41.9-97.6 41.9z"/></g></symbol><symbol viewBox="0 0 32 32" id="linuxPaasCodeCCScript" xmlns="http://www.w3.org/2000/svg"><path d="M27.15 3H4.85C3.831 3 3 3.831 3 4.85v22.3a1.852 1.852 0 0 0 2.516 1.728l9.878-3.797a1.7 1.7 0 0 1 1.216 0l9.875 3.794c.216.081.441.122.666.122a1.848 1.848 0 0 0 1.85-1.85V4.85c0-1.019-.831-1.85-1.85-1.85zM12.209 20.438a5.478 5.478 0 0 1-3.891-1.609c-2.144-2.144-2.144-5.634 0-7.778s5.634-2.144 7.778 0l-2.122 2.122c-.975-.975-2.559-.975-3.534 0s-.975 2.559 0 3.534a2.5 2.5 0 0 0 3.534 0l2.122 2.122a5.46 5.46 0 0 1-3.887 1.609zm9.188 0a5.478 5.478 0 0 1-3.891-1.609c-2.144-2.144-2.144-5.634 0-7.778s5.634-2.144 7.778 0l-2.122 2.122c-.975-.975-2.559-.975-3.534 0s-.975 2.559 0 3.534a2.5 2.5 0 0 0 3.534 0l2.122 2.122a5.461 5.461 0 0 1-3.887 1.609z"/></symbol><symbol viewBox="0 0 32 32" id="logo-gate" xmlns="http://www.w3.org/2000/svg"><path d="M25.962 11.926l-1.179-1.047-2.897-2.546-5.856 5.166v5.145l5.852-5.192 1.712 1.497v8.193H8.467v-8.275l10.354-9.228-2.831-2.483L4.629 13.209v13.773h22.804V13.209z"/></symbol><symbol viewBox="0 0 32 32" id="macos" xmlns="http://www.w3.org/2000/svg"><path d="M24.904 20.376c.768 1.08 1.64 1.776 2.632 2.088-.432 1.32-1.112 2.688-2.04 4.12-1.44 2.152-2.856 3.232-4.256 3.232-.52 0-1.296-.176-2.32-.528-.952-.352-1.784-.528-2.488-.528-.712 0-1.496.184-2.352.56-.896.352-1.632.528-2.208.528-1.68 0-3.328-1.424-4.952-4.264-1.624-2.8-2.432-5.56-2.432-8.272 0-2.504.616-4.56 1.848-6.152 1.272-1.6 2.84-2.392 4.704-2.392.408 0 .864.048 1.368.152s1.024.296 1.568.568c.576.312 1.056.536 1.424.656.376.12.664.184.864.184.24 0 .616-.056 1.12-.168s1.008-.312 1.512-.616c.544-.296 1.008-.52 1.4-.672s.792-.224 1.2-.224c1.304 0 2.48.352 3.528 1.056.56.368 1.128.92 1.704 1.64-.856.744-1.48 1.392-1.872 1.952-.728 1.04-1.088 2.176-1.088 3.4a6.15 6.15 0 0 0 1.136 3.68zM19.272 7.368c-.656.616-1.248 1.008-1.792 1.2-.184.056-.424.104-.712.152s-.624.088-.992.128c.016-1.632.448-3.048 1.288-4.232.84-1.192 2.224-2.008 4.144-2.448.04.184.064.312.08.392v.304c0 .672-.16 1.424-.472 2.256-.336.808-.848 1.56-1.544 2.248z"/></symbol><symbol viewBox="0 0 64 64" id="manualTrigger" xmlns="http://www.w3.org/2000/svg"><path class="azst0" d="M48.1 49.6h-1.4V49c0-.9.2-1.9.6-2.7l.3-.6c.6-1.2.9-2.6.9-4V31.5c0-1.6-.9-3-2.2-3.7-1.2-.6-2.6-.7-3.8-.1-.5-1-1.4-1.7-2.4-2.1-1-.3-2.2-.3-3.2.2-.5-.9-1.3-1.7-2.3-2-.1 0-.2 0-.3-.1 3.3-2.5 4.9-6.8 4-10.9C37.2 7.7 32.7 4 27.5 4c-5.2 0-9.7 3.7-10.8 8.8-1.1 5.1 1.6 10.3 6.4 12.3h.1v6.5l-1.1-1.8c-.7-1.2-1.8-2.1-3.1-2.4-1.3-.4-2.7-.2-3.9.5l-.9.5c-1.1.6-1.5 2-.9 3.1l7.4 14.7c.4.8.6 1.8.6 2.7v.5h-1.4c-.8 0-1.4.6-1.4 1.4v7.5c0 .8.6 1.4 1.4 1.4h28c.8 0 1.4-.6 1.4-1.4V51c.2-.8-.4-1.4-1.2-1.4zM19.7 15.1c0-3.8 2.7-7.1 6.5-7.8 3.8-.7 7.5 1.5 8.8 5.1 1.3 3.5-.1 7.5-3.3 9.4v-6.3c-.1-1-.5-2-1.2-2.7-.9-.9-2.1-1.3-3.3-1.2-2.2.2-4 2.1-3.9 4.4v5.8c-2.2-1.6-3.6-4-3.6-6.7zm-3.5 15.7l.5-.3c.5-.3 1.1-.4 1.7-.2.6.2 1.1.5 1.4 1.1l3.7 6.5c.3.6 1 .8 1.6.7.6-.2 1.1-.7 1.1-1.4V15.9c0-.8.5-1.4 1.3-1.5.4 0 .8.1 1.1.4.3.3.4.6.4 1v18.6c0 .8.6 1.4 1.4 1.4.8 0 1.4-.6 1.4-1.4v-6.5c0-.8.6-1.4 1.4-1.4s1.4.6 1.4 1.4v6.5c0 .8.6 1.4 1.4 1.4s1.4-.6 1.4-1.4v-4.7c0-.8.6-1.4 1.4-1.4s1.4.6 1.4 1.4v4.7c0 .8.6 1.4 1.4 1.4s1.4-.6 1.4-1.4v-2.8c0-.8.6-1.4 1.4-1.4s1.4.6 1.4 1.4v10.2c0 .9-.2 1.9-.6 2.7l-.3.6c-.6 1.2-.9 2.6-.9 4v.5H24.3v-.5c0-1.4-.3-2.8-.9-4l-7.2-14.3zM46.6 57H21.5v-4.6h25.1V57z"/><path class="azst0" d="M41.8 55.5h2c.4 0 .8-.3.8-.8s-.3-.8-.8-.8h-2c-.4 0-.8.3-.8.8s.3.8.8.8z"/></symbol><symbol viewBox="0 0 32 32" id="order" xmlns="http://www.w3.org/2000/svg"><path d="M25.82 4H23c0-1.1-.98-2-2.2-2h-.2c0-1.1-.98-2-2.2-2h-4.8c-1.22 0-2.2.9-2.2 2h-.2C9.98 2 9 2.9 9 4H6.18C4.42 4 3 5.34 3 7v22c0 1.66 1.42 3 3.18 3h19.64c1.76 0 3.18-1.34 3.18-3V7c0-1.66-1.42-3-3.18-3zM11.2 4h1.2c.56 0 1-.44 1-1l-.02-.92c.02-.02.08-.08.22-.08h4.8c.12 0 .2.04.2.02V3c0 .56.44 1 1 1h1.2c.12 0 .2.04.2.02v1l.02 2.9c-.02.02-.08.08-.22.08h-9.6c-.08 0-.16-.02-.18-.02S11 7.98 11 8l-.02-2.94c0-.02.02-.04.02-.06s-.02-.04-.02-.08v-.86c.02 0 .08-.06.22-.06zM27 29c0 .56-.52 1-1.18 1H6.18C5.52 30 5 29.56 5 29V7c0-.56.54-1 1.18-1H9v2c0 1.1.98 2 2.2 2h9.6c1.22 0 2.2-.9 2.2-2V6h2.82c.66 0 1.18.44 1.18 1v22z"/><path d="M22 16H10c-.56 0-1 .44-1 1s.44 1 1 1h12c.56 0 1-.44 1-1s-.44-1-1-1zM22 20H10c-.56 0-1 .44-1 1s.44 1 1 1h12c.56 0 1-.44 1-1s-.44-1-1-1zM22 24H10c-.56 0-1 .44-1 1s.44 1 1 1h12c.56 0 1-.44 1-1s-.44-1-1-1z"/></symbol><symbol id="pipeline" viewBox="0 0 1023 952" xml:space="preserve" xmlns="http://www.w3.org/2000/svg"><style>.bbst0{display:none}.bbst1{display:inline}.bbst2{fill:#3967e0}.bbst3{fill:#3f9}.bbst4{fill:#08b9ff}.bbst5,.bbst6{display:inline;fill:#3967e0}.bbst6{fill:#f8ffff}</style><g id="bbDINGSH_x5F_复制_2" class="bbst0"><g class="bbst1"><path class="bbst2" d="M768 122.3h-64v63h64c70.5.5 127.5 57.9 127.5 128.5s-57 127.9-127.5 128.5h-65v63h65c105.3-.5 190.5-86.1 190.5-191.5s-85.3-191-190.5-191.5zM255 825.3h65v-63h-65c-70.5-.5-127.5-57.9-127.5-128.5s57-127.9 127.5-128.5h65v-63h-65c-105.3.5-190.5 86.1-190.5 191.5s85.2 191 190.5 191.5z"/><circle class="bbst3" cx="286.5" cy="794.8" r="53.5"/><circle class="bbst3" cx="732.5" cy="475.8" r="53.5"/><path class="bbst4" d="M721.8 570.3H299c-6.6 0-12-5.4-12-12v-168c0-6.6 5.4-12 12-12h422.8c6.6 0 12 5.4 12 12v168c0 6.6-5.4 12-12 12zM723 250.3H300.2c-6.6 0-12-5.4-12-12v-168c0-6.6 5.4-12 12-12H723c6.6 0 12 5.4 12 12v168c0 6.6-5.5 12-12 12zM723 890.3H300.2c-6.6 0-12-5.4-12-12v-168c0-6.6 5.4-12 12-12H723c6.6 0 12 5.4 12 12v168c0 6.6-5.5 12-12 12z"/></g></g><g id="bb图层_5" class="bbst0"><path class="bbst5" d="M858.8 138.2L510.9 27.9 163.2 138.2c-13.1 4.1-21.9 16.3-21.8 30v439c.7 3 17.1 75.3 88.2 145.2 54.7 53.8 185.9 123 243.2 153 8.9 4.7 13.2 6.4 17 8.5l17 8.5c4.5 2.4 12.5 2.3 17 0l17-8.5c33.5-16.4 188.4-99.3 251.6-161.5 71.2-70 87.6-142.3 88.3-145.2v-439c.1-13.7-8.8-25.9-21.9-30zM515.2 854.4l-.2-.1h.6c-.2.1-.4.1-.4.1z"/><path class="bbst6" d="M582 493.3h-34v-32.7c48-14.6 83-59.2 83-112 0-64.6-52.4-117-117-117s-117 52.4-117 117c0 52.8 34.9 97.4 83 112V678c0 18.7 15.3 34 34 34s34-15.3 34-34v-27.3h25.5c18.7 0 34-15.3 34-34s-15.3-34-34-34H548v-21.4h34c18.7 0 34-15.3 34-34s-15.2-34-34-34zM464.1 348.6c0-27.5 22.3-49.9 49.9-49.9 27.5 0 49.9 22.3 49.9 49.9 0 27.5-22.3 49.9-49.9 49.9-27.5 0-49.9-22.4-49.9-49.9z"/></g><g id="bbDINGSH_x5F_复制_3"><path class="bbst2" d="M805 73.2h-73.2v72.1H805c80.7.6 145.9 66.2 145.9 147s-65.2 146.4-145.9 147h-74.4v72.1H805c120.5-.6 218-98.5 218-219.1S925.5 73.8 805 73.2zM218 877.6h74.4v-72.1H218c-80.7-.6-145.9-66.2-145.9-147s65.2-146.4 145.9-147h74.4v-72.1H218C97.5 440 0 537.9 0 658.5 0 779.2 97.5 877 218 877.6z"/><circle class="bbst3" cx="254" cy="842.7" r="61.2"/><circle class="bbst3" cx="764.4" cy="477.7" r="61.2"/><path class="bbst4" d="M753.9 585.9H266.6c-6.6 0-12-5.4-12-12V378.1c0-6.6 5.4-12 12-12h487.3c6.6 0 12 5.4 12 12v195.7c0 6.7-5.4 12.1-12 12.1zM755.2 219.7H267.9c-6.6 0-12-5.4-12-12V12c0-6.6 5.4-12 12-12h487.3c6.6 0 12 5.4 12 12v195.7c0 6.6-5.4 12-12 12zM755.2 952H267.9c-6.6 0-12-5.4-12-12V744.3c0-6.6 5.4-12 12-12h487.3c6.6 0 12 5.4 12 12V940c0 6.6-5.4 12-12 12z"/></g><g id="bb图层_5_x5F_复制" class="bbst0"><path class="bbst5" d="M908 89.4L511.9-36.2 116 89.4c-14.9 4.7-24.9 18.5-24.8 34.2v499.8c.8 3.4 19.5 85.7 100.4 165.4 62.3 61.3 211.7 140.1 276.8 174.2 10.2 5.3 15 7.3 19.3 9.7l19.3 9.6c5.1 2.7 14.2 2.6 19.3 0l19.3-9.6c38-18.6 214.4-113.1 286.4-183.9 81.1-79.7 99.8-162 100.5-165.4V123.6c.5-15.7-9.6-29.5-24.5-34.2zM516.9 904.8l-.3-.1h.7c-.3.1-.4.1-.4.1z"/><path class="bbst6" d="M592.9 495.6h-38.8v-37.2c54.7-16.6 94.5-67.4 94.5-127.5 0-73.6-59.6-133.2-133.2-133.2s-133.2 59.6-133.2 133.2c0 60.1 39.8 110.9 94.5 127.5v247.5c0 21.3 17.4 38.8 38.8 38.8 21.3 0 38.8-17.4 38.8-38.8v-31.1h29.1c21.3 0 38.8-17.4 38.8-38.8 0-21.3-17.4-38.8-38.8-38.8h-29.1V573H593c21.3 0 38.8-17.4 38.8-38.8-.1-21.1-17.6-38.6-38.9-38.6zM458.7 330.9c0-31.4 25.4-56.8 56.8-56.8s56.8 25.4 56.8 56.8-25.4 56.8-56.8 56.8-56.8-25.4-56.8-56.8z"/></g></symbol><symbol viewBox="0 0 32 32" id="placeholder" xmlns="http://www.w3.org/2000/svg"><path d="M25 3H7a4 4 0 0 0-4 4v18a4 4 0 0 0 4 4h18a4 4 0 0 0 4-4V7a4 4 0 0 0-4-4zm2.444 23.738l-4.028-4.028a9.965 9.965 0 0 0 2.572-6.209H28v8.5c0 .647-.206 1.247-.556 1.738zm-22.888 0A2.985 2.985 0 0 1 4 25v-8.5h2.013a9.965 9.965 0 0 0 2.572 6.209l-4.028 4.028zm0-21.475l4.028 4.028A9.965 9.965 0 0 0 6.012 15.5H3.999V7c0-.647.206-1.247.556-1.737zM20.975 15.5a4.983 4.983 0 0 0-1.103-2.666l2.837-2.838a8.978 8.978 0 0 1 2.278 5.5l-4.012.003zM16.5 12.031a3.949 3.949 0 0 1 1.953.809L16.5 14.793v-2.762zm-1 2.763l-1.953-1.953a3.934 3.934 0 0 1 1.953-.809v2.762zm-.706.706h-2.762a3.949 3.949 0 0 1 .809-1.953l1.953 1.953zm0 1l-1.953 1.953a3.934 3.934 0 0 1-.809-1.953h2.762zm.706.706v2.762a3.94 3.94 0 0 1-1.953-.809l1.953-1.953zm1 0l1.953 1.953a3.934 3.934 0 0 1-1.953.809v-2.762zm.706-.706h2.762a3.94 3.94 0 0 1-.809 1.953L17.206 16.5zm0-1l1.953-1.953c.444.569.722 1.238.809 1.953h-2.762zm1.96-3.372a4.98 4.98 0 0 0-2.666-1.103V7.012A8.982 8.982 0 0 1 22 9.29l-2.834 2.838zM15.5 11.025a4.983 4.983 0 0 0-2.666 1.103L10 9.294a8.953 8.953 0 0 1 5.5-2.278v4.009zm-3.372 1.809a4.98 4.98 0 0 0-1.103 2.666H7.012A8.982 8.982 0 0 1 9.29 10l2.838 2.834zm-4.422 6.669a8.953 8.953 0 0 1-.694-3.003h4.009a4.983 4.983 0 0 0 1.103 2.666L9.293 22a8.904 8.904 0 0 1-1.588-2.497zm5.128.369a4.98 4.98 0 0 0 2.666 1.103v4.009a8.96 8.96 0 0 1-5.5-2.278l2.834-2.834zm3.666 1.103a4.983 4.983 0 0 0 2.666-1.103l2.837 2.837a8.978 8.978 0 0 1-5.5 2.278l-.003-4.012zm3.372-1.809a4.98 4.98 0 0 0 1.103-2.666h4.009a8.96 8.96 0 0 1-2.278 5.5l-2.834-2.834zm6.116-3.666a9.965 9.965 0 0 0-2.572-6.209l4.028-4.028C27.794 5.754 28 6.354 28 7v8.5h-2.012zm.75-10.944L22.71 8.584a9.965 9.965 0 0 0-6.209-2.572V3.999h8.5c.647 0 1.247.206 1.738.556zM15.5 4v2.013a9.965 9.965 0 0 0-6.209 2.572L5.263 4.557A2.984 2.984 0 0 1 7 4.001h8.5zM5.263 27.444l4.028-4.028a9.965 9.965 0 0 0 6.209 2.572V28H7a2.98 2.98 0 0 1-1.737-.556zM16.5 28v-2.012a9.965 9.965 0 0 0 6.209-2.572l4.028 4.028a2.985 2.985 0 0 1-1.738.556h-8.5z"/></symbol><symbol viewBox="0 0 32 32" id="powerScript" xmlns="http://www.w3.org/2000/svg"><path d="M3 3v26h26V3H3zm24 2v4H5V5h22zM5 27V11h22v16H5z"/><path d="M16.938 21.688h6.469v2h-6.469v-2zM8.544 15.341l3.669 3.669-3.669 3.666 1.416 1.416 5.081-5.081-5.081-5.084zM6.625 5.969h2v2h-2v-2zM10.25 5.969h2v2h-2v-2zM13.875 5.969h2v2h-2v-2z"/></symbol><symbol viewBox="0 0 32 32" id="pyCompile" xmlns="http://www.w3.org/2000/svg"><path d="M25.284 8.5H23.5V6.716C23.5 4.116 21.384 2 18.784 2h-5.231A5.058 5.058 0 0 0 8.5 7.053V8.5H6.716A4.722 4.722 0 0 0 2 13.216v5.231A5.057 5.057 0 0 0 7.053 23.5H8.5v1.784c0 2.6 2.116 4.716 4.716 4.716h5.566c2.6 0 4.716-2.116 4.716-4.716V23.5h1.784c2.6 0 4.716-2.116 4.716-4.716v-5.569a4.717 4.717 0 0 0-4.712-4.716zM8.5 20.053V21.5H7.053A3.056 3.056 0 0 1 4 18.447v-5.231A2.72 2.72 0 0 1 6.716 10.5h7.753v-2H10.5V7.053A3.056 3.056 0 0 1 13.553 4h5.231A2.72 2.72 0 0 1 21.5 6.716v5.566a2.72 2.72 0 0 1-2.716 2.716h-5.231A5.062 5.062 0 0 0 8.5 20.054zM28 18.784a2.72 2.72 0 0 1-2.716 2.716H17.24v2h4.259v1.784A2.72 2.72 0 0 1 18.783 28h-5.569a2.72 2.72 0 0 1-2.716-2.716v-5.231A3.056 3.056 0 0 1 13.551 17h5.231c2.6 0 4.716-2.116 4.716-4.716V10.5h1.784a2.72 2.72 0 0 1 2.716 2.716v5.569z"/><path d="M13.625 6.625a1 1 0 1 1-2 0 1 1 0 0 1 2 0zM20.344 25.313a1 1 0 1 1-2 0 1 1 0 0 1 2 0z"/></symbol><symbol viewBox="0 0 64 64" id="remoteTrigger" xmlns="http://www.w3.org/2000/svg"><path class="bfcls-1" d="M13.29 20.97h1.82v1.76h-1.82zM13.29 17.44h1.82v1.76h-1.82zM13.29 13.91h1.82v1.76h-1.82zM16.94 13.91h1.82v1.76h-1.82zM20.58 13.91h1.82v1.76h-1.82zM52.48 39.47h1.82v1.76h-1.82zM52.48 35.95h1.82v1.76h-1.82zM52.48 32.42h1.82v1.76h-1.82zM52.48 43h1.82v1.76h-1.82zM52.48 46.52h1.82v1.76h-1.82zM48.83 46.52h1.82v1.76h-1.82zM45.19 46.52h1.82v1.76h-1.82zM41.54 46.52h1.82v1.76h-1.82zM33.79 22.85h9.59a.62.62 0 0 0 .6-.65v-2.69h5.11a.62.62 0 0 0 .6-.64v-5.18a.63.63 0 0 0-.6-.65h-9.6a.63.63 0 0 0-.6.65v2.69h-5.1a.63.63 0 0 0-.6.65v5.17a.63.63 0 0 0 .6.65zM41 15.13h6.6v2.3H44V17a.62.62 0 0 0-.6-.65H41z"/><path class="bfcls-1" d="M55.21 6H27.87a2.69 2.69 0 0 0-2.73 2.65v16.72H8.73A2.69 2.69 0 0 0 6 28v18.5a2.69 2.69 0 0 0 2.73 2.65h10l-1.62 7H14.2V58h16.41v-1.78h-2.94l-1.62-7h10a2.69 2.69 0 0 0 2.73-2.65v-7.98h10.97v-1.76h-2.94l-1.62-7h10a2.69 2.69 0 0 0 2.81-2.7V8.63A2.7 2.7 0 0 0 55.21 6zM34.92 45.23H10.08V29.39h24.84zM54 25.79H37.54a2.77 2.77 0 0 0-1.46-.42h-6.94V10H54z"/><path class="bfcls-1" d="M14.83 41.77h9.6a.63.63 0 0 0 .6-.65v-2.69h5.1a.63.63 0 0 0 .6-.65v-5.17a.63.63 0 0 0-.6-.65h-9.6a.63.63 0 0 0-.6.65v2.68h-5.1a.63.63 0 0 0-.6.65v5.18a.63.63 0 0 0 .6.65zM22 34h6.62v2.3H25v-.4a.63.63 0 0 0-.6-.65H22z"/></symbol><symbol viewBox="0 0 32 32" id="sendEmailNotify" xmlns="http://www.w3.org/2000/svg"><path d="M28.571 3.429H3.428A3.429 3.429 0 0 0-.001 6.858v18.286a3.429 3.429 0 0 0 3.429 3.429h25.143A3.429 3.429 0 0 0 32 25.144V6.858a3.429 3.429 0 0 0-3.429-3.429zM3.429 5.714h25.143c.631 0 1.143.512 1.143 1.143v2.857l-13.371 8.183a.614.614 0 0 1-.665-.001L2.287 9.715V6.858c0-.631.512-1.143 1.143-1.143zm25.142 20.572H3.428a1.143 1.143 0 0 1-1.143-1.143V12.389l12.183 7.451c.433.267.958.426 1.52.426s1.087-.158 1.533-.433l12.193-7.444v12.754c0 .631-.512 1.143-1.143 1.143z"/></symbol><symbol viewBox="0 0 38 32" id="sendRTXNotify" xmlns="http://www.w3.org/2000/svg"><path d="M21.52 26.526c-3.181 1.099-6.339 1.333-9.52.561-.866-.211-1.567-.117-2.316.304-1.076.608-2.199 1.146-3.345 1.684-1.099.515-2.152-.14-1.801-1.287.795-2.69-.211-4.538-1.918-6.62-4.421-5.45-3.088-13.193 2.76-17.731 6.643-5.146 16.819-4.421 22.596 1.661 2.409 2.526 3.602 5.591 3.439 9.24-.819-.257-1.567-.515-2.363-.281-.444.14-.398-.257-.398-.515.117-6.947-8.164-12.374-16.187-10.433-4.749 1.17-8.257 3.813-9.403 8.819-.725 3.228.14 6.222 2.456 8.491 1.708 1.684 2.947 3.158 1.263 5.731 1.357-.257 2.082-.912 2.877-1.404.795-.468 1.544-.608 2.433-.351 2.363.632 4.772.655 7.158.047.655-.164 1.099-.328 1.17.608.07.632.702.912 1.099 1.474z"/><path d="M27.439 17.45c.023-1.17.772-2.105 1.708-2.269 1.076-.187 2.035.14 2.386 1.193.538 1.637 1.006 3.251 2.292 4.491.211.187.211.515-.047.725-.257.187-.538.14-.749-.07-1.146-1.216-2.62-1.731-4.164-2.199-.889-.257-1.357-1.053-1.427-1.871zM25.31 25.45c.444-.094.819.023 1.146.374.982 1.029 2.222 1.497 3.556 1.848 1.614.444 2.246 1.895 1.474 3.251-.421.749-1.053 1.099-1.918 1.076s-1.591-.398-1.848-1.193c-.515-1.684-1.029-3.322-2.316-4.608-.14-.14-.07-.515-.094-.749zM35.766 21.427c1.053 0 1.965.725 2.152 1.754.187.982-.398 2.175-1.38 2.433-1.591.398-3.018.982-4.164 2.175-.234.257-.538.328-.795.023s-.14-.585.117-.819c1.146-1.099 1.684-2.48 2.058-3.977.234-1.029.936-1.591 2.012-1.591z"/><path d="M25.333 25.427c-1.24 1.099-2.222 1.263-3.181.515-.725-.561-.936-1.287-.795-2.175.14-.795.608-1.404 1.38-1.591 1.567-.398 3.018-.959 4.164-2.152.234-.257.538-.328.819-.047.257.257.117.515-.094.702-1.38 1.31-1.825 3.064-2.292 4.749-.023.023 0 0 0 0z"/></symbol><symbol viewBox="0 0 32 32" id="sendSmsNotify" xmlns="http://www.w3.org/2000/svg"><path d="M16 2C8.269 2 2 8.269 2 16c0 2.159.487 4.203 1.362 6.031l-1.406 8.012 8.012-1.406A13.959 13.959 0 0 0 15.999 30c7.731 0 14-6.269 14-14s-6.269-14-14-14zm8.484 22.484a11.94 11.94 0 0 1-3.816 2.572c-1.478.625-3.05.944-4.672.944a11.878 11.878 0 0 1-5.706-1.441l-5.884 1.034 1.034-5.887A11.932 11.932 0 0 1 3.999 16c0-1.622.316-3.194.944-4.672.603-1.428 1.469-2.713 2.572-3.816s2.388-1.969 3.816-2.572c1.478-.625 3.05-.944 4.672-.944s3.194.316 4.672.944c1.428.603 2.712 1.469 3.816 2.572s1.969 2.388 2.572 3.816c.625 1.478.944 3.05.944 4.672s-.316 3.194-.944 4.672a12.065 12.065 0 0 1-2.578 3.813z"/><path d="M7.759 17.337c.063.581.347.872.853.872.559-.012.838-.241.838-.684-.028-.394-.434-.65-1.213-.769-.65-.084-1.181-.322-1.597-.712s-.628-.853-.641-1.387c.006-.684.237-1.209.691-1.575.456-.369 1.084-.553 1.887-.559 1.606-.016 2.478.691 2.616 2.119H9.312c-.069-.506-.331-.756-.787-.753-.403.028-.622.216-.65.563.047.444.478.725 1.3.838.603.091 1.119.297 1.544.616s.641.775.644 1.369c-.034 1.469-.981 2.206-2.838 2.212-1.656.028-2.547-.688-2.666-2.144h1.9zM14.272 19.5h-1.759v-7h2.478l.991 4.341 1.006-4.341h2.444v7h-1.813v-2.691l.137-2.137-1.109 4.828h-1.369l-1.094-4.828h-.034l.119 2.137V19.5zM22.594 17.337c.063.581.347.872.853.872.559-.012.837-.241.837-.684-.028-.394-.434-.65-1.212-.769-.65-.084-1.181-.322-1.597-.712s-.628-.853-.641-1.387c.006-.684.238-1.209.691-1.575.456-.369 1.084-.553 1.887-.559 1.606-.016 2.478.691 2.616 2.119h-1.881c-.069-.506-.331-.756-.788-.753-.403.028-.622.216-.65.563.047.444.478.725 1.3.838.603.091 1.119.297 1.544.616s.641.775.644 1.369c-.034 1.469-.981 2.206-2.837 2.212-1.656.028-2.547-.688-2.666-2.144h1.9z"/></symbol><symbol viewBox="0 0 32 32" id="sendWechatNotify" xmlns="http://www.w3.org/2000/svg"><path d="M18.86 10.9c0 .828-.698 1.5-1.56 1.5s-1.56-.672-1.56-1.5.698-1.5 1.56-1.5 1.56.672 1.56 1.5zM11.16 10.9c0 .828-.698 1.5-1.56 1.5s-1.56-.672-1.56-1.5.698-1.5 1.56-1.5 1.56.672 1.56 1.5zM21.66 18.88c0 .497-.412.9-.92.9s-.92-.403-.92-.9.412-.9.92-.9.92.403.92.9z"/><path d="M29.74 26A7.396 7.396 0 0 0 32 20.786a8.01 8.01 0 0 0-5.523-7.29c.178-.378.317-.821.317-1.296a2.36 2.36 0 0 0-.036-.414C25.7 6.12 20.12 2 13.46 2 6 2 0 7.22 0 13.64a10.978 10.978 0 0 0 3.982 8.345L3.46 23.72a2.4 2.4 0 0 0 3.373 2.854l3.166-1.654a15.1 15.1 0 0 0 3.413.38h.887a2.366 2.366 0 0 0 1.11-.346 9.213 9.213 0 0 0 7.44 3.767l.157-.001a10.267 10.267 0 0 0 1.937-.19l1.535.831a2.4 2.4 0 0 0 3.356-2.877zm-16.28-2.48h-.018c-1.276 0-2.509-.183-3.674-.523l-.108.023-4.1 2.1 1.1-3.54h-.1C3.869 19.954 2.079 17.074 2 13.771 2 8.38 7.18 4 13.46 4c.179-.01.388-.016.598-.016 5.104 0 9.394 3.482 10.625 8.2l-.463.076c-5.72 0-10.22 3.5-10.22 8.92.017.835.162 1.63.416 2.375zm13.82 1.88l.68 2.12-2.54-1.28h-.12c-.66.19-1.419.3-2.203.3h-.018a6.502 6.502 0 0 1-7.077-5.751c.323-3.343 3.096-5.911 6.468-5.911.186 0 .371.008.553.023.135-.015.319-.023.506-.023a6.5 6.5 0 0 1 6.468 5.855 5.584 5.584 0 0 1-2.693 4.653z"/><path d="M26.24 18.88c0 .497-.412.9-.92.9s-.92-.403-.92-.9.412-.9.92-.9.92.403.92.9z"/></symbol><symbol viewBox="0 0 32 32" id="sensitiveScan" xmlns="http://www.w3.org/2000/svg"><path d="M25.82 4H23c0-1.1-.98-2-2.2-2h-.2c0-1.1-.98-2-2.2-2h-4.8c-1.22 0-2.2.9-2.2 2h-.2C9.98 2 9 2.9 9 4H6.18C4.42 4 3 5.34 3 7v22c0 1.66 1.42 3 3.18 3h19.64c1.76 0 3.18-1.34 3.18-3V7c0-1.66-1.42-3-3.18-3zM11.2 4h1.2c.56 0 1-.44 1-1l-.02-.92c.02-.02.08-.08.22-.08h4.8c.12 0 .2.04.2.02V3c0 .56.44 1 1 1h1.2c.12 0 .2.04.2.02v1l.02 2.9c-.02.02-.08.08-.22.08h-9.6c-.08 0-.16-.02-.18-.02S11 7.98 11 8l-.02-2.94c0-.02.02-.04.02-.06s-.02-.04-.02-.08v-.86c.02 0 .08-.06.22-.06zM27 29c0 .56-.52 1-1.18 1H6.18C5.52 30 5 29.56 5 29V7c0-.56.54-1 1.18-1H9v2c0 1.1.98 2 2.2 2h9.6c1.22 0 2.2-.9 2.2-2V6h2.82c.66 0 1.18.44 1.18 1v22z"/><path d="M22 16H10c-.56 0-1 .44-1 1s.44 1 1 1h12c.56 0 1-.44 1-1s-.44-1-1-1zM22 20H10c-.56 0-1 .44-1 1s.44 1 1 1h12c.56 0 1-.44 1-1s-.44-1-1-1zM22 24H10c-.56 0-1 .44-1 1s.44 1 1 1h12c.56 0 1-.44 1-1s-.44-1-1-1z"/></symbol><symbol viewBox="0 0 16 16" id="server" xmlns="http://www.w3.org/2000/svg"><path d="M15.273 16H.727A.727.727 0 0 1 0 15.273V.727C0 .325.325 0 .727 0h14.546c.401 0 .727.325.727.727v14.546a.728.728 0 0 1-.727.727zM8.727 2.182a.727.727 0 1 0 0 1.454.727.727 0 0 0 0-1.454zm2.182 0a.727.727 0 1 0 0 1.454.727.727 0 0 0 0-1.454zm2.182 0a.727.727 0 1 0 0 1.454.727.727 0 0 0 0-1.454zM2 1l.182.455a.727.727 0 0 0-.727.727v11.636c0 .402.325.727.727.727h5.623a.988.988 0 0 1-.101-.237L6.14 8.472l-.735 2.721c-.15.556-.573.926-.946.827a.469.469 0 0 1-.134-.06.704.704 0 0 1-.311.074H2.532a.713.713 0 0 1-.714-.713c0-.4.32-.719.714-.719h1.482c.034 0 .067.006.1.01l1.027-3.801c.126-.468.447-.8.768-.835a.628.628 0 0 1 .273-.158H1.455V4.364L1 1h1zm12.545 4.818H6.498c.275.068.52.309.609.642l1.747 6.522.946-3.53c.156-.582.597-.97.985-.865.085.022.159.07.223.132a.71.71 0 0 1 .888.288l.74 1.284a.698.698 0 0 1 .091.311h.741c.395 0 .714.32.714.714v.005c0 .394-.32.713-.714.713h-1.482a.713.713 0 0 1-.713-.713v-.005c0-.12.032-.232.084-.331l-.315-.547-.966 3.606a1.509 1.509 0 0 1-.24.501h3.982a.728.728 0 0 0 .727-.727v-8z" fill="#979BA5" fill-rule="nonzero"/></symbol><symbol viewBox="0 0 32 32" id="tiaozhuan" xmlns="http://www.w3.org/2000/svg"><path d="M25.584 5L11.378 19.206l1.416 1.416L27 6.416v3.247h2V4.004a1 1 0 0 0-1-1h-5.659v2l3.244-.003z"/><path d="M27 27H5V5h13V3H4a1 1 0 0 0-1 1v24a1 1 0 0 0 1 1h24a1 1 0 0 0 1-1V14h-2v13z"/></symbol><symbol viewBox="0 0 64 64" id="timerTrigger" xmlns="http://www.w3.org/2000/svg"><path class="bncls-1" d="M55.8 18.17a7.09 7.09 0 0 0-10-10l3.61 3.61-2.51 2.45a23.51 23.51 0 0 0-29.84 0l-2.51-2.51 3.62-3.62a7.09 7.09 0 0 0-10 10l3.58-3.58L14.17 17a23.65 23.65 0 0 0 4.14 34.82l-2.68 2.68a2 2 0 0 0 0 2.83 2 2 0 0 0 2.83 0L21.87 54a23.67 23.67 0 0 0 19.84.2l3.23 3.22a2 2 0 0 0 2.82-2.83l-2.42-2.43A23.65 23.65 0 0 0 49.8 17l2.41-2.41zM32 51.6a19 19 0 1 1 19-19 19 19 0 0 1-19 19z"/><path class="bncls-1" d="M41.38 30.62h-5.26a4.62 4.62 0 0 0-2.12-2v-8.21a2 2 0 1 0-4 0v8.24a4.67 4.67 0 1 0 6.35 6h5a2 2 0 1 0 0-4z"/></symbol><symbol viewBox="0 0 1024 1024" id="ue4" xmlns="http://www.w3.org/2000/svg"><style>.st0{display:none}.bost1{fill:#737987}</style><g id="bo图层_31"><path class="bost1" d="M512 128c51.9 0 102.2 10.1 149.5 30.2 45.7 19.3 86.8 47 122.1 82.3s63 76.4 82.3 122.1c20 47.3 30.2 97.6 30.2 149.5S886 614.3 865.9 661.6c-19.3 45.7-47 86.8-82.3 122.1s-76.4 63-122.1 82.3c-47.3 20-97.6 30.2-149.5 30.2S409.8 886.1 362.5 866c-45.7-19.3-86.8-47-122.1-82.3s-63-76.4-82.3-122.1c-20-47.3-30.2-97.6-30.2-149.5s10.1-102.2 30.2-149.5c19.3-45.7 47-86.8 82.3-122.1s76.4-63 122.1-82.3C409.8 138.1 460.1 128 512 128m0-64C264.6 64 64 264.6 64 512s200.6 448 448 448 448-200.6 448-448S759.4 64 512 64z"/><path class="bost1" d="M281.4 683.8c1.9-.9 3.3-.1 4.7.3 6.5 1.7 13.1 2.3 19.8 1.8 11.6-.9 18.9-8.2 19.7-19.8.1-1.9.1-3.8.1-5.7 0-68.9-.1-137.9.2-206.8 0-10.4-7.9-22.6-22.2-22.5-5.8 0-11.3 1-16.7 3.1-11.3 4.4-21.2 11.1-30.3 19-25.1 21.7-46.3 46.8-65.5 73.6-13.1 18.3-24.8 37.4-34.9 57.6-.7 1.3-1 2.9-2.7 3.5-1.8-.5-1.5-2-1.7-3.2-1.8-12-.9-24 .7-35.8 5.8-42 22.9-79.5 46.8-114.1 13.1-19 28.3-36.3 44-53.2 17.6-19 36-37.2 55.5-54.3 45-39.5 95.3-69.5 153.4-85.2 1.6-.4 3.2-1.4 5.2-.6-.3 2.2-2.3 2.8-3.7 3.8-11.7 8.3-22.5 17.6-31.5 28.8-8.8 11-16.1 22.9-18.5 36.9-2.4 13.6-2.3 27.3 1.6 40.7.9 3.1 2.3 6 4.2 8.7 5.3 7.3 12 9.5 20.5 6.6 7.8-2.7 7.9-2.7 7.9 6 0 57.1.1 114.3.1 171.4 0 29.7.1 59.4-.1 89.1 0 5.1 1.4 9.3 4.2 13.3 10.8 15.8 28.1 21.9 47.2 16.5 13-3.6 24.6-10.1 35.7-17.6 4.7-3.2 9.2-6.8 13.8-10.2 2.2-1.6 3.2-3.6 3.1-6.3-.1-1.9 0-3.8 0-5.7 0-69.9-.2-139.8 0-209.7.1-18.1-6.6-33.3-17.3-47.2-3.8-5-8.4-9.3-13.6-13-.7-.5-1.6-1.2-1.1-2.3.3-.8 1.2-.9 1.9-1 .7-.1 1.5-.2 2.3-.1 15.9.4 31.6 1.7 45.9 9.7 2.6 1.5 4.2.6 5.9-1.2 5.6-5.7 11.3-11.3 17.3-16.6 30.4-26.4 64.6-46.3 102.2-60.4 14.3-5.3 29-9.4 43.8-12.8 1.9-.4 4.4-2.1 5.7.1 1.1 1.8-1.4 3.2-2.6 4.6-19.4 23.4-38.4 47.2-56.1 72-5.8 8.1-11.2 16.3-16.3 24.8-2.2 3.7-3.2 7.6-3.6 11.9-1.2 13.7-1.2 27.4-1.2 41.1.1 47.4 0 94.8.4 142.3.2 17.9.8 35.8 1.1 53.7.1 4.8.7 9.5.8 14.2 0 3.7 1.7 6.1 4.6 8 6.7 4.3 14 5.8 21.8 4.9 11.2-1.3 21.4-5.3 31.1-10.8 18.4-10.4 34.3-23.9 49.2-38.7 3.7-3.7 7.5-7.4 11.7-11.5 1.5 3-.1 4.7-.9 6.3-5.6 11.5-12 22.5-18.6 33.4-22.7 37.3-50 70.9-82.1 100.5-16.4 15.1-34.3 28.4-53.3 40.1-4.4 2.7-4.6 2.7-8.9-.9-16.9-14.2-33.8-28.5-50.6-42.7-.3-.2-.6-.5-.9-.7-5.2-4.4-5.2-4.4-10 .7-19 20.3-38.1 40.5-57.1 60.7-1.8 2-3.8 2.9-6.5 2.5-46.4-6.1-91.1-18.1-132.9-39.7-19.6-10.1-37.5-22.6-53.4-37.9-6.3-6.1-12-12.8-17.3-19.7-1.1-1.2-2.4-2.2-2-4.3z"/><path class="bost1" d="M732.6 414.1c-8 0-16 .1-24 0-6.1-.1-6.6-.7-6-6.6.5-4.3 1.1-8.7 1.5-13 .4-3.3 1.4-6.2 3.4-9 17.1-24.3 34.2-48.6 51.1-73 2.6-3.7 5.4-5.2 9.9-5.2 5.3.1 10.7-.4 15.9-1.1 6.9-.9 13.2-3.5 18.4-8.5.8-.8 1.6-1.6 2.5-2.3 1.5-1 2.5-.6 2.7 1.2.1.7 0 1.5-.1 2.3l-8.1 59.4c-1.2 8.5-2.3 17-3.3 25.5-.6 4.5-.2 4.8 4.4 5 2.3.1 4.6.1 6.9.1 2.7.1 4.3 1.4 4 4.3-.7 5.9-1.4 11.7-2.2 17.6-.3 2.3-1.8 3.3-3.9 3.3-2.9.1-5.7.2-8.6.1-3-.1-4.6 1-4.9 4.1-.5 5.1-1.3 10.2-2 15.3-.3 2.6-.1 4.9 3 5.9 2.7.9 2.2 3.1 1.8 5.3-.4 2.5-1.9 3.6-4.3 3.6-5.7 0-11.4.1-17.1.1-3.2 0-6.5.1-9.7 0-4.5-.2-5.3-1.1-4.8-5.7.8-6.6 1.6-13.2 2.5-19.8.1-1.1.4-2.3.5-3.4.3-4.6-.3-5.3-5-5.4-8.2-.1-16.4 0-24.5-.1 0 .1 0 0 0 0zM771 340c-5.6 5.5-31.7 44.1-32.8 48.7h21.1c6 0 6.5-.4 7.2-6.2 1.4-10.9 2.6-21.9 3.7-32.8.4-3.1 1.5-6.2.8-9.7z"/></g></symbol><symbol viewBox="0 0 1024 1024" id="unity" xmlns="http://www.w3.org/2000/svg"><style>.st0{display:none}.bpst2{fill:#737987}</style><path class="bpst2" d="M443.4 743.1H322.8L96 512l226.8-231.1h120.6l60.5-104.5L817.6 96 904 407.5 843.5 512 904 616.5 817.6 928l-313.7-80.4-60.5-104.5m6.5-11.5l237 63.8-136.8-237.2H276.6l173.3 173.4m317.4 17.5L831 512l-63.8-237.1L630 512l137.3 237.1M449.9 292.4L276.6 465.8h273.5l136.7-237.1-236.9 63.7zm0 0" id="bpunity"/></symbol><symbol viewBox="0 0 32 32" id="unity3dBuild" xmlns="http://www.w3.org/2000/svg"><path d="M13.856 23.222h-3.769L2.999 16l7.088-7.222h3.769l1.891-3.266 9.803-2.513 2.7 9.734-1.891 3.266 1.891 3.266-2.7 9.734-9.803-2.512-1.891-3.266zm.203-.359l7.406 1.994-4.275-7.412H8.643l5.416 5.419zm9.919.546L25.969 16l-1.994-7.409L19.687 16l4.291 7.409zM14.059 9.137l-5.416 5.419h8.547l4.272-7.409-7.403 1.991z"/></symbol><symbol viewBox="0 0 16 16" id="web" xmlns="http://www.w3.org/2000/svg"><path d="M15.273 16H.727A.727.727 0 0 1 0 15.273V.727C0 .325.325 0 .727 0h14.546c.402 0 .727.325.727.727v14.546a.727.727 0 0 1-.727.727zM8.727 2.182a.727.727 0 1 0 0 1.454.727.727 0 0 0 0-1.454zm2.182 0a.727.727 0 1 0 0 1.454.727.727 0 0 0 0-1.454zm2.182 0a.727.727 0 1 0 0 1.454.727.727 0 0 0 0-1.454zm1.454 2.823H1.455v8.813c0 .402.325.727.727.727h11.636a.727.727 0 0 0 .727-.727V5.005zM3 6h10v3H3V6zm0 4h3v3H3v-3zm4 0h6v3H7v-3zM4 7v1h8V7H4zm0 4v1h1v-1H4zm4 0v1h4v-1H8z" fill="#979BA5" fill-rule="nonzero"/></symbol><symbol viewBox="0 0 32 32" id="wetest" xmlns="http://www.w3.org/2000/svg"><path d="M21.272 14.609l-1.744-5.756h-2.044l-2.188 7.075-1.525-4.688h-2.044l-1.088 3.369H7.748v2.044h4.272l.731-2.266 1.55 4.759h2.041l2.153-6.956 1.35 4.463h4.403v-2.044z"/><path d="M27 7v14H5V7h22zm1-2H4a1 1 0 0 0-1 1v17h26V6a1 1 0 0 0-1-1zM19.688 24v1h-8v-1H2v3a1 1 0 0 0 1 1h26a1 1 0 0 0 1-1v-3H19.687z"/></symbol><symbol viewBox="0 0 32 32" id="wetestElement" xmlns="http://www.w3.org/2000/svg"><path d="M25 10.05c1.2-1.4 2.05-2.65 2.3-3.5 0 0-1.5-1.2-4.15-1.6-2.45-.45-4.85-.05-4.85-.05-1.1.9-2.25 2.4-3.3 4.15.75.25 1.1.4 2 .7 2.05-.05 6.1.15 8 .3zM9.55 20.35c-.5 1.25-.75 2.1-.9 2.55-1.05 3.55.4 2.35 2.5.55.7-.65 1.4-1.2 2.2-1.95-.35-1-.55-1.7-.7-2.15-.65.25-1.85.6-3.1 1zM27.65 11s-8.8-.8-16-.35c-2.35.15-5.7.45-6.15 1 0 0-2.1 1.95-2.95 4.6-1.2 3-.35 5.15-.35 5.15 5.85-.25 19.4-6.6 25.05-9.1 2.25-1.05.4-1.3.4-1.3zM11.65 9.95l3.55-.1c-1.05-.4-1.95-.7-2.6-.95-1.5-.6-1 .9-1 .9s.05.05.05.15zM25 13.95c-1.95 1.05-8.1 3.9-11.65 5.1.95 3.05 2.45 6.1 4.85 8.3 0 0 3.55-.6 7.35-4.05 3.8-3.4 4.3-5.8 4.3-5.8-1.1-1.3-2.75-2.4-4.85-3.55z"/></symbol><symbol viewBox="0 0 32 32" id="xcodeBuild" xmlns="http://www.w3.org/2000/svg"><path d="M20.35 13.841s-4.347 12.275-4.444 12.556c-.219.622-.188 1.584.931 2.019s1.928-.403 2.081-1.025c.156-.622 3.075-13.084 3.075-13.084l-1.644-.466zM22.059 15.084l-.466 2.112 1.616-.25-.309-1.988zM28.959 5.666c-.188-.125-.869-.341-.869-.341s-.497-.125-.809.094-.962-.031-1.306-.403-2.05-1.369-4.134-1.522c-2.081-.156-4.475.372-5.191 1.212.653-.188 3.262-.403 4.194.466s.938 1.584.966 2.344-.191 2.037-.191 2.037l-1.05 3.853 1.616.497 1.553-5.313s.591-1.088 1.866-1.088 1.087.559 1.087.559.809.528 1.397.497c.591-.034 1.056-2.769.872-2.894zM21.322 19.203a.251.251 0 0 0-.331.122c-.153.331-.125.488-.069.719l.006.022c.056.225.319.353.719.55.212.103.45.222.578.328.181.15.256.587.262.831l.012.594.416-.425c.031-.034.8-.834.781-1.978-.012-.766-.45-1.288-.706-1.531-.322-.303-.691-.484-.966-.472a.94.94 0 0 0-.797.488c-.059.125-.009.272.116.331s.272.009.331-.116c0-.003.103-.197.369-.206.091-.003.337.084.606.337.203.191.541.597.55 1.178.009.469-.15.875-.313 1.163-.066-.212-.169-.431-.344-.575-.172-.141-.428-.269-.675-.391-.159-.078-.394-.194-.462-.256-.038-.156-.044-.194.041-.378a.254.254 0 0 0-.125-.334zM19.709 15.059l-3.078-3.719a1.269 1.269 0 0 0-1.194-.438c-.366.066-.656.313-.784.659s-.063.725.172 1.009l2.45 2.975.559-.094-2.625-3.2a.53.53 0 0 1 .315-.863.757.757 0 0 1 .722.266l2.953 3.581.466-.094.044-.084z"/><path d="M7.375 25.038L5.291 12.185 21.05 9.629l.047-.169s.191-1.116.191-1.884L3.01 10.542l2.722 16.781 9.478-1.541.747-2.134-8.581 1.391zM24.234 8.806l-1.119 3.831 1.556 9.597-3.781.613-.5 2.097 6.563-1.066-2.494-15.381c-.15.175-.225.309-.225.309z"/><path d="M11.843 13.441l.714-1.801 1.848.733-.714 1.801-1.848-.733zM8.801 20.989l2.953-7.304 1.843.745-2.953 7.304-1.843-.745zM8.728 21.206l-.466 3.541 2.237-2.828zM10.188 16.916l-3.634.559.309 1.991 2.394-.375zM19.544 15.456l-6.497.994-.838 2.175 6.556-.994z"/></symbol><symbol viewBox="0 0 64 64" id="zhiyunInstanceMaintenance" xmlns="http://www.w3.org/2000/svg"><path class="bvst0" d="M36.1 38.4C37.7 44 41.9 47 47.7 47c6.8 0 12.2-5.5 12.2-12.2 0-6.1-4.5-11.2-10.5-12.1-2.1-7.8-9.3-13.5-17.8-13.5-8.6 0-15.9 5.9-17.9 13.9C8.2 24.1 4 29 4 34.9 4 41.5 9.4 47 16 47c1.2 0 2.4-.2 3.5-.5 2.5 3.1 5.8 5.5 9.9 6.7 6.5 2.1 13.3.7 18.5-3.1-2.4 1.2-8.2 2.2-14 .6-4.1-1.1-7.8-3.4-10.2-6.6-2.6-3.5-2.6-3.8-2.6-3.8S18.9 42 16 42c-3.9 0-7.1-3.2-7.1-7.1 0-3.8 3-6.9 6.8-7.1h2.1v-.2c0-7.6 6.2-13.8 13.8-13.8 6 0 11.1 3.8 13 9.1.2.6.4 1.3.5 1.8.1.4.2 1.4.2 2.3 0 .5.5.9 1 .8h1.2c3.8 0 6.9 3.3 6.8 7.1-.1 3.6-3 6.6-6.6 6.7-3.1.1-5.5-2.1-6.7-4.8-.6-1.4-.6-3.1.2-4.9.5-1.2.8-2.6.8-4v-.1c0-1.1-.2-2.1-.4-2.9-1.3-4.3-5.2-7.5-9.9-7.6C25.9 17.2 21 22 21 27.8c0 5.7 4.5 10.3 10.2 10.5H31.5c1.2-.1 2.2-1.1 2.2-2.4 0-1.3-1.1-2.4-2.4-2.4h-.1c-3.2-.2-5.6-2.7-5.4-6.1.1-3 2.5-5.4 5.5-5.5 3.4-.1 5.8 2.3 5.8 5.7-.2 2.6-.6 2.7-1.3 4.8-.1 1.3-.5 3.4.3 6z"/></symbol><symbol viewBox="0 0 64 64" id="zhiyunPushFileElement" xmlns="http://www.w3.org/2000/svg"><path class="bwst0" d="M36.1 38.4C37.7 44 41.9 47 47.7 47c6.8 0 12.2-5.5 12.2-12.2 0-6.1-4.5-11.2-10.5-12.1-2.1-7.8-9.3-13.5-17.8-13.5-8.6 0-15.9 5.9-17.9 13.9C8.2 24.1 4 29 4 34.9 4 41.5 9.4 47 16 47c1.2 0 2.4-.2 3.5-.5 2.5 3.1 5.8 5.5 9.9 6.7 6.5 2.1 13.3.7 18.5-3.1-2.4 1.2-8.2 2.2-14 .6-4.1-1.1-7.8-3.4-10.2-6.6-2.6-3.5-2.6-3.8-2.6-3.8S18.9 42 16 42c-3.9 0-7.1-3.2-7.1-7.1 0-3.8 3-6.9 6.8-7.1h2.1v-.2c0-7.6 6.2-13.8 13.8-13.8 6 0 11.1 3.8 13 9.1.2.6.4 1.3.5 1.8.1.4.2 1.4.2 2.3 0 .5.5.9 1 .8h1.2c3.8 0 6.9 3.3 6.8 7.1-.1 3.6-3 6.6-6.6 6.7-3.1.1-5.5-2.1-6.7-4.8-.6-1.4-.6-3.1.2-4.9.5-1.2.8-2.6.8-4v-.1c0-1.1-.2-2.1-.4-2.9-1.3-4.3-5.2-7.5-9.9-7.6C25.9 17.2 21 22 21 27.8c0 5.7 4.5 10.3 10.2 10.5H31.5c1.2-.1 2.2-1.1 2.2-2.4 0-1.3-1.1-2.4-2.4-2.4h-.1c-3.2-.2-5.6-2.7-5.4-6.1.1-3 2.5-5.4 5.5-5.5 3.4-.1 5.8 2.3 5.8 5.7-.2 2.6-.6 2.7-1.3 4.8-.1 1.3-.5 3.4.3 6z"/></symbol><symbol viewBox="0 0 64 64" id="zhiyunUpdateAsyncEX" xmlns="http://www.w3.org/2000/svg"><path class="bxst0" d="M36.1 38.4C37.7 44 41.9 47 47.7 47c6.8 0 12.2-5.5 12.2-12.2 0-6.1-4.5-11.2-10.5-12.1-2.1-7.8-9.3-13.5-17.8-13.5-8.6 0-15.9 5.9-17.9 13.9C8.2 24.1 4 29 4 34.9 4 41.5 9.4 47 16 47c1.2 0 2.4-.2 3.5-.5 2.5 3.1 5.8 5.5 9.9 6.7 6.5 2.1 13.3.7 18.5-3.1-2.4 1.2-8.2 2.2-14 .6-4.1-1.1-7.8-3.4-10.2-6.6-2.6-3.5-2.6-3.8-2.6-3.8S18.9 42 16 42c-3.9 0-7.1-3.2-7.1-7.1 0-3.8 3-6.9 6.8-7.1h2.1v-.2c0-7.6 6.2-13.8 13.8-13.8 6 0 11.1 3.8 13 9.1.2.6.4 1.3.5 1.8.1.4.2 1.4.2 2.3 0 .5.5.9 1 .8h1.2c3.8 0 6.9 3.3 6.8 7.1-.1 3.6-3 6.6-6.6 6.7-3.1.1-5.5-2.1-6.7-4.8-.6-1.4-.6-3.1.2-4.9.5-1.2.8-2.6.8-4v-.1c0-1.1-.2-2.1-.4-2.9-1.3-4.3-5.2-7.5-9.9-7.6C25.9 17.2 21 22 21 27.8c0 5.7 4.5 10.3 10.2 10.5H31.5c1.2-.1 2.2-1.1 2.2-2.4 0-1.3-1.1-2.4-2.4-2.4h-.1c-3.2-.2-5.6-2.7-5.4-6.1.1-3 2.5-5.4 5.5-5.5 3.4-.1 5.8 2.3 5.8 5.7-.2 2.6-.6 2.7-1.3 4.8-.1 1.3-.5 3.4.3 6z"/></symbol></svg>