<?xml version="1.0" standalone="no"?>
  <!DOCTYPE svg PUBLIC "-//W3C//DTD SVG 1.1//EN" "http://www.w3.org/Graphics/SVG/1.1/DTD/svg11.dtd" >
  <svg>
  <metadata>
  Created by font-carrier
  </metadata>
  <defs>
  <font id="iconfont" horiz-adv-x="1024" vert-adv-y="1024" >
    <font-face
      
      font-family="iconfont"
      
      font-weight="400"
      
      font-stretch="normal"
      
      units-per-em="1024"
      
      ascent="812"
      
      descent="-212"
      
    />
      <missing-glyph />

      
      <glyph glyph-name="x" unicode="&#x78;" horiz-adv-x="100"
        d="M20 20 L50 20 L50 -20 Z" />
      

      
      <glyph glyph-name="uniE001" unicode="&#xE001;" d="M511.7-84.1C490-84.1 470.4-74.2 457.5-58H385.4C393.6-81.2 408-101.9 427-117.6 450.8-137.3 480.9-148.1 511.8-148.1S572.8-137.3 596.6-117.6C615.5-102 629.9-81.2 638.1-58H566C552.9-74.1 533.4-84.1 511.7-84.1ZM860.8 26.6L800.1 147.9 800 364.2C799.9 441.1 769.9 513.5 715.5 567.7 676.5 606.7 628.3 633 575.8 644.9L575.8 684C575.8 719.3 547.1 748 511.8 748L511.8 748C476.5 748 447.8 719.3 447.8 684L447.8 644.9C395.3 633 347.1 606.5 308.3 567.5 253.9 513.2 224 440.7 224 363.8L224.2 147.4 163.7 26.2C158.7 16.3 159.3 4.5 165.1-4.9 170.9-14.3 181.2-20.1 192.3-20.1L832.3-19.6C843.4-19.6 853.7-13.9 859.5-4.4 865.4 4.9 865.9 16.7 860.8 26.6Z"  horiz-adv-x="1024" vert-adv-y="1024"  />

      
      <glyph glyph-name="uniE002" unicode="&#xE002;" d="M878.08 684S562.4 748.96 512 748.96 147.68 684 147.68 684A23.68-23.68 0 0 0 129.76 661.12V320C129.76 194.72 211.04 36.64 311.36-33.12 311.36-33.12 463.84-148.48 514.56-148.48S714.56-34.08 714.56-34.08C816 35.52 896 194.72 896 320V661.12A23.36-23.36 0 0 0 878.08 684ZM472.8 164.32L311.68 325.6 368 382.08 472.64 277.44 688 492 744.48 435.36Z"  horiz-adv-x="1024" vert-adv-y="1024"  />

      
      <glyph glyph-name="uniE003" unicode="&#xE003;" d="M512 748C264.6 748 64 547.4 64 300S264.6-148 512-148 960 52.6 960 300 759.4 748 512 748ZM552 83.1H472V163.1H552V83.1ZM637.4 315C622.2 293.4 600.8 276.2 575.8 265.2 561.4 258.9 552.1 244.3 552.1 228V203H472.1V228C472.1 276.1 500.2 319.4 543.7 338.5 567.4 348.9 582.1 369.4 582.1 392 582.1 425.1 550.7 452 512.1 452S442.1 425.1 442.1 392H362.1C362.1 430.1 378.2 465.7 407.4 492.3 435.5 517.9 472.6 532 512 532S588.5 517.9 616.7 492.3C645.9 465.7 662 430.1 662 392 662 364.5 653.5 337.9 637.4 315Z"  horiz-adv-x="1024" vert-adv-y="1024"  />

      
      <glyph glyph-name="uniE004" unicode="&#xE004;" d="M238.56 556.96L238.56 556.96 636.64 556.96Q636.64 556.96 636.64 556.96L636.64 493.28Q636.64 493.28 636.64 493.28L238.56 493.28Q238.56 493.28 238.56 493.28L238.56 556.96Q238.56 556.96 238.56 556.96ZM238.56 174.72L238.56 174.72 457.92 174.72Q457.92 174.72 457.92 174.72L457.92 111.04Q457.92 111.04 457.92 111.04L238.56 111.04Q238.56 111.04 238.56 111.04L238.56 174.72Q238.56 174.72 238.56 174.72ZM238.56 365.92L238.56 365.92 572.64 365.92Q572.64 365.92 572.64 365.92L572.64 302.24Q572.64 302.24 572.64 302.24L238.56 302.24Q238.56 302.24 238.56 302.24L238.56 365.92Q238.56 365.92 238.56 365.92ZM715.04 309.6A212.64-212.64 0 1 0 928 96.96 212.8-212.8 0 0 0 715.04 309.6ZM715.04-51.68A148.64-148.64 0 1 1 864 96.96 148.8-148.8 0 0 1 715.04-52ZM160 652H716.32V359.04H780.32V684A32-32 0 0 0 748.32 716H128A32-32 0 0 0 96 684V-48.16A32-32 0 0 0 128-80.16H480.96V-16.16H160ZM736.96 200.48L688.96 201.44 686.08 68 795.52 68 795.52 116 735.04 116 736.96 200.48Z"  horiz-adv-x="1024" vert-adv-y="1024"  />

      
      <glyph glyph-name="uniE005" unicode="&#xE005;" d="M392 180V-52H160V180H392M424 244H128C110.3 244 96 229.7 96 212V-84C96-101.7 110.3-116 128-116H424C441.7-116 456-101.7 456-84V212C456 229.7 441.7 244 424 244L424 244ZM808 180V-52H576V180H808M840 244H544C526.3 244 512 229.7 512 212V-84C512-101.7 526.3-116 544-116H840C857.7-116 872-101.7 872-84V212C872 229.7 857.7 244 840 244L840 244ZM700.5 638.7L850.4 488.8 700.5 338.9 550.6 488.8 700.5 638.7M700.5 715.9C692.3 715.9 684.1 712.8 677.9 706.5L482.7 511.4C470.2 498.9 470.2 478.6 482.7 466.1L677.9 271C684.1 264.8 692.3 261.6 700.5 261.6S716.9 264.7 723.1 271L918.3 466.2C930.8 478.7 930.8 499 918.3 511.5L723.1 706.6C716.9 712.8 708.7 715.9 700.5 715.9L700.5 715.9ZM392 596V364H160V596H392M424 660H128C110.3 660 96 645.7 96 628V332C96 314.3 110.3 300 128 300H424C441.7 300 456 314.3 456 332V628C456 645.7 441.7 660 424 660L424 660Z"  horiz-adv-x="1024" vert-adv-y="1024"  />

      
      <glyph glyph-name="uniE006" unicode="&#xE006;" d="M611.2 223.2C617.6 221.6 625.6 218.4 632 216.8L638.4 213.6 683.2 264.8C659.2 276 633.6 285.6 606.4 290.4 716.8 341.6 766.4 474.4 715.2 584.8 664 695.2 531.2 744.8 420.8 693.6 310.4 642.4 260.8 509.6 312 399.2 334.4 351.2 372.8 312.8 420.8 290.4 230.4 247.2 96 79.2 96-114.4H160C160 80.8 316.8 237.6 512 237.6 545.6 237.6 579.2 232.8 611.2 223.2ZM353.6 492C353.6 578.4 424 650.4 512 650.4S670.4 580 670.4 492 600 333.6 512 333.6C425.6 333.6 353.6 405.6 353.6 492ZM920 236L836.8 319.2C824 332 804.8 332 792 319.2 792 319.2 792 319.2 792 319.2L537.6 66.4 478.4-77.6C473.6-92 480-108 494.4-112.8 500.8-114.4 507.2-114.4 512-112.8L665.6-61.6 920 192.8C931.2 204 931.2 223.2 920 236ZM632-7.2L568-28 592 29.6 739.2 176.8 776 140 632-7.2ZM824 184.8L784 223.2 814.4 252 852.8 213.6 824 184.8ZM731.2-52L731.2-52 931.2-52Q931.2-52 931.2-52L931.2-116Q931.2-116 931.2-116L731.2-116Q731.2-116 731.2-116L731.2-52Q731.2-52 731.2-52Z"  horiz-adv-x="1024" vert-adv-y="1024"  />

      
      <glyph glyph-name="uniE007" unicode="&#xE007;" d="M512 748C264.6 748 64 547.4 64 300S264.6-148 512-148 960 52.6 960 300 759.4 748 512 748ZM670.4 186.9L625.1 141.6 512 254.7 398.9 141.6 353.6 186.9 466.7 300 353.6 413.1 398.9 458.4 512 345.3 625.1 458.4 670.4 413.1 557.3 300 670.4 186.9Z"  horiz-adv-x="1024" vert-adv-y="1024"  />

      
      <glyph glyph-name="uniE008" unicode="&#xE008;" d="M512 684C563.9 684 614.1 673.9 661.4 653.8 707.1 634.5 748.2 606.8 783.5 571.5S846.5 495.1 865.8 449.4C885.8 402.1 896 351.8 896 300S885.9 197.9 865.8 150.6C846.5 104.9 818.8 63.8 783.5 28.5S707.1-34.5 661.4-53.8C614.1-73.8 563.8-84 512-84S409.9-73.9 362.6-53.8C316.9-34.5 275.8-6.8 240.5 28.5S177.5 104.9 158.2 150.6C138.2 197.9 128 248.2 128 300S138.1 402.1 158.2 449.4C177.5 495.1 205.2 536.2 240.5 571.5S316.9 634.5 362.6 653.8C409.9 673.9 460.1 684 512 684M512 748C264.6 748 64 547.4 64 300S264.6-148 512-148 960 52.6 960 300 759.4 748 512 748L512 748Z"  horiz-adv-x="1024" vert-adv-y="1024"  />

      
      <glyph glyph-name="uniE009" unicode="&#xE009;" d="M128.96 661.12A23.84-23.84 0 0 1 147.04 684S461.6 748.96 512 748.96 877.44 684 877.44 684A23.36-23.36 0 0 1 895.04 661.6V320C895.04 194.72 815.04 35.52 713.92-34.08 713.92-34.08 564.64-148.48 513.92-148.48S310.56-33.12 310.56-33.12C210.24 36.64 128.96 194.72 128.96 320ZM484.96 505.44L403.68 286.56A9.76-9.76 0 0 0 412.96 272.16H491.04A12-12 0 0 1 502.72 256.16L477.44 128.16C470.72 94.56 480.8 90.08 499.84 117.76L656 346.08C660.8 352.96 657.92 358.72 649.76 358.88L552.32 361.44A9.44-9.44 0 0 1 543.52 375.84L598.08 505.92A9.28-9.28 0 0 0 589.12 520H505.12A23.36-23.36 0 0 0 484.96 505.6Z"  horiz-adv-x="1024" vert-adv-y="1024"  />

      
      <glyph glyph-name="uniE00A" unicode="&#xE00A;" d="M608 746.08H160.96A32-32 0 0 0 128.96 714.08V-114.08A32-32 0 0 0 160.96-146.08L864-146.08A32-32 0 0 0 896-114.08V478.24ZM560 679.2L824 433.6H560ZM320 300H704V210.4H320ZM320 121.44H704V32.16H320Z"  horiz-adv-x="1024" vert-adv-y="1024"  />

      
      <glyph glyph-name="uniE00B" unicode="&#xE00B;" d="M825.6 652L591.4 379.2 576 361.2V337.5 51.5L448-12.5V336.7 360.4L432.6 378.4 197.7 652H825.6M895.2 716H128.1C100.8 716 86 683.9 103.8 663.2L384 336.7V-64.2C384-82.7 399.2-96.2 416-96.2 420.7-96.2 425.6-95.1 430.3-92.8L622.3 3.2C633.1 8.6 640 19.7 640 31.8V337.6L919.5 663.2C937.3 683.9 922.6 716 895.2 716L895.2 716Z"  horiz-adv-x="1024" vert-adv-y="1024"  />

      
      <glyph glyph-name="uniE00C" unicode="&#xE00C;" d="M512 684C563.9 684 614.2 673.9 661.5 653.8 707.2 634.5 748.3 606.8 783.6 571.5S846.6 495.1 865.9 449.4C885.9 402.1 896.1 351.8 896.1 299.9S886 197.7 865.9 150.4C846.6 104.7 818.9 63.6 783.6 28.3S707.2-34.7 661.5-54C614.2-74 563.9-84.2 512-84.2S409.8-74.1 362.5-54C316.8-34.7 275.7-7 240.4 28.3S177.4 104.7 158.1 150.4C138.1 197.7 127.9 248 127.9 299.9S138 402.1 158.1 449.4C177.4 495.1 205.1 536.2 240.4 571.5S316.8 634.5 362.5 653.8C409.8 673.9 460.1 684 512 684M512 748C264.6 748 64 547.4 64 300S264.6-148 512-148 960 52.6 960 300 759.4 748 512 748L512 748ZM704 332L544 332 544 492 480 492 480 332 320 332 320 268 480 268 480 108 544 108 544 268 704 268Z"  horiz-adv-x="1024" vert-adv-y="1024"  />

      
      <glyph glyph-name="uniE00D" unicode="&#xE00D;" d="M512 684C563.9 684 614.2 673.9 661.5 653.8 707.2 634.5 748.3 606.8 783.6 571.5S846.6 495.1 865.9 449.4C885.9 402.1 896.1 351.8 896.1 299.9S886 197.7 865.9 150.4C846.6 104.7 818.9 63.6 783.6 28.3S707.2-34.7 661.5-54C614.2-74 563.9-84.2 512-84.2S409.8-74.1 362.5-54C316.8-34.7 275.7-7 240.4 28.3S177.4 104.7 158.1 150.4C138.1 197.7 127.9 248 127.9 299.9S138 402.1 158.1 449.4C177.4 495.1 205.1 536.2 240.4 571.5S316.8 634.5 362.5 653.8C409.8 673.9 460.1 684 512 684M512 748C264.6 748 64 547.4 64 300S264.6-148 512-148 960 52.6 960 300 759.4 748 512 748L512 748ZM320 332L320 332 704 332Q704 332 704 332L704 268Q704 268 704 268L320 268Q320 268 320 268L320 332Q320 332 320 332Z"  horiz-adv-x="1024" vert-adv-y="1024"  />

      
      <glyph glyph-name="uniE00E" unicode="&#xE00E;" d="M706.08 423.04L511.04 619.36 312 423.2 356.96 377.76 478.72 497.6 478.72-16.32 542.72-16.32 542.72 496.8 660.64 377.92 706.08 423.04Z"  horiz-adv-x="1024" vert-adv-y="1024"  />

      
      <glyph glyph-name="uniE00F" unicode="&#xE00F;" d="M511.7-84.1C490-84.1 470.4-74.2 457.5-58H385.4C393.6-81.2 408-101.9 427-117.6 450.8-137.3 480.9-148.1 511.8-148.1S572.8-137.3 596.6-117.6C615.5-102 629.9-81.2 638.1-58H566C552.9-74.1 533.4-84.1 511.7-84.1ZM860.6 26.3L800 147.6V364C800 440.9 770 513.3 715.6 567.6 676.6 606.6 628.4 633 576 644.9V684C576 719.3 547.3 748 512 748L512 748C476.7 748 448 719.3 448 684V644.9C395.5 633 347.3 606.6 308.4 567.6 254 513.3 224 440.9 224 364V147.6L163.4 26.4C158.4 16.5 159 4.7 164.8-4.7 170.6-14.1 180.9-19.9 192-19.9H832C843.1-19.9 853.4-14.2 859.2-4.7 865.1 4.6 865.6 16.4 860.6 26.3ZM243.8 44L284.6 125.7C286.8 130.1 288 135 288 140V364C288 487.5 388.5 588 512 588S736 487.5 736 364V140C736 135 737.2 130.1 739.4 125.7L780.2 44H243.8Z"  horiz-adv-x="1024" vert-adv-y="1024"  />

      
      <glyph glyph-name="uniE010" unicode="&#xE010;" d="M305.76-72H302.56A48-48 0 0 1 262.4-50.24C170.08-42.88 97.28 39.84 97.28 141.76 97.28 247.2 177.28 332.96 275.04 333.76H305.76V386.08A10.08-10.08 0 0 1 315.52 396.48H709.76A10.08-10.08 0 0 1 719.52 386.08V354.08A48.8-48.8 0 0 1 759.52 332 125.28-125.28 0 0 0 869.28 460 124.48-124.48 0 0 0 750.4 588H720V533.76A10.08-10.08 0 0 1 710.24 523.36H315.52A10.08-10.08 0 0 1 305.76 533.76V705.6A10.08-10.08 0 0 1 315.52 716H709.76A10.08-10.08 0 0 1 719.52 705.6V652H750.4C848 652 928 565.92 928 460 928 357.76 853.44 274.08 759.36 268A48-48 0 0 1 720 247.36V215.36A10.24-10.24 0 0 1 710.24 204.8H315.52A10.24-10.24 0 0 1 305.76 215.36V269.6H275.04A124.64-124.64 0 0 0 156.16 141.6 125.6-125.6 0 0 0 262.72 13.6 48-48 0 0 1 302.56 34.88H305.76V66.88A10.08-10.08 0 0 1 315.52 77.28H709.76A10.08-10.08 0 0 1 719.52 66.88V-104.16A10.24-10.24 0 0 1 709.76-114.72H315.52A10.24-10.24 0 0 1 305.76-104.16Z"  horiz-adv-x="1024" vert-adv-y="1024"  />

      
      <glyph glyph-name="uniE011" unicode="&#xE011;" d="M128 714.72H448A32-32 0 0 1 480 682.72V362.72A32-32 0 0 1 448 330.72H128A32-32 0 0 1 96 362.72V682.72A32-32 0 0 1 128 714.72ZM575.04 714.72H895.04A32-32 0 0 1 927.04 682.72V362.72A32-32 0 0 1 895.04 330.72H575.04A32-32 0 0 1 543.04 362.72V682.72A32-32 0 0 1 575.04 714.72ZM575.04 268.16H895.04A32-32 0 0 1 927.04 236.16V-84A32-32 0 0 1 895.04-116H575.04A32-32 0 0 1 543.04-84V236A32-32 0 0 1 575.04 268ZM128 268H448A32-32 0 0 1 480 236V-84A32-32 0 0 1 448-116H128A32-32 0 0 1 96-84V236A32-32 0 0 1 128 268Z"  horiz-adv-x="1024" vert-adv-y="1024"  />

      
      <glyph glyph-name="uniE012" unicode="&#xE012;" d="M864 652V-52H160V652H864M896 716H128C110.3 716 96 701.7 96 684V-84C96-101.7 110.3-116 128-116H896C913.7-116 928-101.7 928-84V684C928 701.7 913.7 716 896 716L896 716ZM320 524L256 524 256 460 320 460 320 524ZM320 140L256 140 256 76 320 76 320 140ZM320 332L256 332 256 268 320 268 320 332ZM768 524L384 524 384 460 768 460 768 524ZM768 140L384 140 384 76 768 76 768 140ZM768 332L384 332 384 268 768 268 768 332Z"  horiz-adv-x="1024" vert-adv-y="1024"  />

      
      <glyph glyph-name="uniE013" unicode="&#xE013;" d="M416 647.04L416 647.04 896 647.04Q896 647.04 896 647.04L896 567.04Q896 567.04 896 567.04L416 567.04Q416 567.04 416 567.04L416 647.04Q416 647.04 416 647.04ZM416 341.44L416 341.44 896 341.44Q896 341.44 896 341.44L896 261.44Q896 261.44 896 261.44L416 261.44Q416 261.44 416 261.44L416 341.44Q416 341.44 416 341.44ZM416 36L416 36 896 36Q896 36 896 36L896-44Q896-44 896-44L416-44Q416-44 416-44L416 36Q416 36 416 36ZM224 574.4L224 26.56 128 26.56 304-148 304-4 304 26.56 304 574.4 304 583.2 304 748.96 128 574.4 224 574.4Z"  horiz-adv-x="1024" vert-adv-y="1024"  />

      
      <glyph glyph-name="uniE014" unicode="&#xE014;" d="M456 258.4V727.2C456 736.8 448 744.8 438.4 743.2 195.2 703.2 27.2 471.2 70.4 223.2 105.6 8.8 294.4-149.6 512-149.6 736-149.6 920 12 956.8 224.8 958.4 234.4 950.4 242.4 940.8 242.4H472C464 242.4 456 250.4 456 258.4ZM521.6 728.8V324C521.6 314.4 528 308 537.6 308H942.4C952 308 958.4 316 958.4 324 944 549.6 763.2 730.4 537.6 744.8 528 744.8 521.6 736.8 521.6 728.8Z"  horiz-adv-x="1024" vert-adv-y="1024"  />

      
      <glyph glyph-name="uniE015" unicode="&#xE015;" d="M89.44 97.12H210.4A16-16 0 0 1 226.4 81.12V-84H73.44V81.12A16-16 0 0 1 89.44 97.12ZM322.08 283.2H446.88A16-16 0 0 1 462.88 267.2V-84H306.56L306.56 267.04A16-16 0 0 1 322.08 283.2ZM570.72 212.48H693.6A16-16 0 0 1 709.6 196.48V-84H554.72V196.48A16-16 0 0 1 570.72 212.48ZM819.68 391.84H944A16-16 0 0 1 960 375.84V-84H803.68V375.84A16-16 0 0 1 819.68 391.84ZM64 276.8L426.24 590.72 634.24 398.72 830.4 613.44 759.2 684H944A16-16 0 0 1 960 668V500.48L889.6 568.64 633.6 276.32 424 480.96 114.08 208.96Z"  horiz-adv-x="1024" vert-adv-y="1024"  />

      
      <glyph glyph-name="uniE016" unicode="&#xE016;" d="M276.48 191.84L499.04 466.88A16-16 0 0 1 524 466.88L742.08 191.36A16-16 0 0 1 729.6 165.44L288.96 165.44A16-16 0 0 1 276.48 191.84Z"  horiz-adv-x="1024" vert-adv-y="1024"  />

      
      <glyph glyph-name="uniE017" unicode="&#xE017;" d="M539.4 684C544.9 683.6 550.4 683.1 555.8 682.5L568.5 619.1 575.6 583.7 609.5 571.4C641.8 559.7 671.4 542.5 697.7 520.2L725.3 496.8 759.6 508.4 820.7 529.1C826 522 831 514.6 835.8 507.2L853 477.4C857.2 469.4 861 461.2 864.6 452.9L815.9 410 788.9 386.3 795.1 350.9C798 334.4 799.5 317.5 799.5 300.6 799.5 283.4 798 266.3 795 249.6L788.7 214.1 815.8 190.3 864.4 147.6C858.5 134 851.8 120.7 844.3 107.8 837 95.2 828.9 83 820.2 71.3L758.9 92 724.7 103.6 697.1 80.3C671 58.3 641.6 41.3 609.7 29.7L575.8 17.4 568.7-17.9 556-81.4C541.2-83.1 526.4-84 511.5-84 496.9-84 482.4-83.2 468-81.6L455.4-18.4 448.3 17.1 414.3 29.3C382.2 40.8 352.5 57.9 326.3 80L298.7 103.2 264.6 91.6 203 70.9C198.8 76.5 194.8 82.2 190.9 88.1L166.9 129.7C164.1 135.3 161.5 141 158.9 146.8L207.3 189.4 234.5 213.3 228.1 248.9C225 265.8 223.5 283.2 223.5 300.6 223.5 317.7 225 334.9 228 351.6L234.3 387.1 207.2 410.9 158.6 453.6C160.3 457.5 162 461.3 163.8 465.1L194.8 518.8C197.3 522.4 199.8 525.9 202.4 529.5L263.6 508.8 297.9 497.2 325.5 520.6C352 543 381.9 560.3 414.4 571.9L448.5 584.1 455.6 619.6 468.2 682.8C473.3 683.4 478.5 683.8 483.6 684.2H539.4M541.6 748H481.4C458.4 746.5 436 743.2 414.1 738.4L392.8 632C352.7 617.6 316 596.2 284.1 569.2L181.3 604C166.5 588 153 570.8 140.6 552.8L107.1 494.8C97.8 475.4 89.8 455.3 83.3 434.5L164.9 362.8C161.3 342.6 159.4 321.8 159.4 300.6 159.4 279.1 161.3 258 165 237.6L83.5 165.9C90.7 142.9 99.8 120.7 110.4 99.5L136.4 54.5C150 33.9 165.2 14.4 181.9-3.7L284.9 31.1C316.5 4.5 352.9-16.6 392.5-30.9L413.8-137.3C445.2-144.3 477.9-148 511.4-148 545.3-148 578.3-144.2 610.1-137.1L631.4-30.5C670.7-16.2 706.8 4.8 738.2 31.3L841.1-3.5C885.5 44.6 919.5 102.5 939.5 166.5L858 238.2C861.6 258.4 863.5 279.2 863.5 300.5 863.5 321.5 861.7 342 858.2 361.9L939.9 433.7C931.9 459.6 921.5 484.5 909.2 508.1L890.6 540.2C876.3 562.8 860 584 842 603.7L739.2 569C707.6 595.9 671.1 617.2 631.3 631.6L610 738.1C587.8 743.1 564.9 746.5 541.6 748L541.6 748ZM511.5 396.5C564.4 396.5 607.5 353.4 607.5 300.5S564.4 204.5 511.5 204.5 415.5 247.6 415.5 300.5 458.6 396.5 511.5 396.5M511.5 460.5C423.1 460.5 351.5 388.9 351.5 300.5S423.1 140.5 511.5 140.5 671.5 212.1 671.5 300.5 599.9 460.5 511.5 460.5L511.5 460.5Z"  horiz-adv-x="1024" vert-adv-y="1024"  />

      
      <glyph glyph-name="uniE018" unicode="&#xE018;" d="M512 748C264.6 748 64 547.4 64 300S264.6-148 512-148 960 52.6 960 300 759.4 748 512 748ZM768 236H528 448V316 556H528V316H768V236Z"  horiz-adv-x="1024" vert-adv-y="1024"  />

      
      <glyph glyph-name="uniE019" unicode="&#xE019;" d="M512 684C563.9 684 614.2 673.9 661.5 653.8 707.2 634.5 748.3 606.8 783.6 571.5S846.6 495.1 865.9 449.4C885.9 402.1 896.1 351.8 896.1 299.9S886 197.7 865.9 150.4C846.6 104.7 818.9 63.6 783.6 28.3S707.2-34.7 661.5-54C614.2-74 563.9-84.2 512-84.2S409.8-74.1 362.5-54C316.8-34.7 275.7-7 240.4 28.3S177.4 104.7 158.1 150.4C138.1 197.7 127.9 248 127.9 299.9S138 402.1 158.1 449.4C177.4 495.1 205.1 536.2 240.4 571.5S316.8 634.5 362.5 653.8C409.8 673.9 460.1 684 512 684M512 748C264.6 748 64 547.4 64 300S264.6-148 512-148 960 52.6 960 300 759.4 748 512 748L512 748ZM528 316L528 556 448 556 448 316 448 236 528 236 768 236 768 316Z"  horiz-adv-x="1024" vert-adv-y="1024"  />

      
      <glyph glyph-name="uniE01A" unicode="&#xE01A;" d="M918.6-61.4L745.9 111.4C799.7 175.4 832 257.9 832 348 832 551.2 667.2 716 464 716S96 551.2 96 348 260.8-20 464-20C554.1-20 636.6 12.4 700.6 66.1L873.4-106.7C879.6-112.9 887.8-116.1 896-116.1S912.4-113 918.6-106.7C931.1-94.1 931.1-73.9 918.6-61.4ZM679 133C651.1 105.1 618.5 83.1 582.4 67.8 544.9 52 505.1 44 464 44S383.1 52 345.7 67.9C309.5 83.2 277 105.1 249 133 221.1 160.9 199.1 193.5 183.8 229.6 168 267.1 160 306.9 160 348S168 428.9 183.9 466.3C199.2 502.5 221.1 535 249.1 562.9 277 590.8 309.6 612.8 345.7 628.1 383.1 644 422.9 652 464 652S544.9 644 582.3 628.1C618.5 612.8 651 590.9 678.9 562.9S728.8 502.4 744.1 466.3C760 428.9 768 389.1 768 348S760 267.1 744.1 229.7C728.8 193.5 706.9 161 679 133Z"  horiz-adv-x="1024" vert-adv-y="1024"  />

      
      <glyph glyph-name="uniE01B" unicode="&#xE01B;" d="M512 748A448-448 0 1 1 64 300 448-448 0 0 1 512 748ZM493.92 409.44A156-156 0 0 0 416.8 367.2C392.48 344.32 418.24 323.2 432.8 339.68A82.56-82.56 0 0 1 473.28 367.84C484.32 370.08 490.88 366.56 492.64 357.44A118.88-118.88 0 0 1 488.16 316Q480.96 286.24 461.76 222.08 427.04 105.76 431.68 81.28A54.72-54.72 0 0 0 460.48 40.32 88-88 0 0 0 518.88 35.2 161.76-161.76 0 0 0 598.88 80.64C624.64 105.6 595.36 123.68 581.6 108.64A76.32-76.32 0 0 1 542.24 82.56C528 79.68 519.52 84.96 516.96 98.56A104.96-104.96 0 0 1 522.88 140Q582.24 342.88 576 372.16A46.24-46.24 0 0 0 550.4 405.76 89.6-89.6 0 0 0 493.92 409.44ZM561.76 449.28A49.92-49.92 0 1 0 512 499.04 49.76-49.76 0 0 0 561.76 449.28Z"  horiz-adv-x="1024" vert-adv-y="1024"  />

      
      <glyph glyph-name="uniE01C" unicode="&#xE01C;" d="M512 684C563.9 684 614.1 673.9 661.4 653.8 707.1 634.5 748.2 606.8 783.5 571.5S846.5 495.1 865.8 449.4C885.8 402.1 896 351.8 896 300S885.9 197.9 865.8 150.6C846.5 104.9 818.8 63.8 783.5 28.5S707.1-34.5 661.4-53.8C614.1-73.8 563.8-84 512-84S409.9-73.9 362.6-53.8C316.9-34.5 275.8-6.8 240.5 28.5S177.5 104.9 158.2 150.6C138.2 197.9 128 248.2 128 300S138.1 402.1 158.2 449.4C177.5 495.1 205.2 536.2 240.5 571.5S316.9 634.5 362.6 653.8C409.9 673.9 460.1 684 512 684M512 748C264.6 748 64 547.4 64 300S264.6-148 512-148 960 52.6 960 300 759.4 748 512 748L512 748ZM544 492L480 492 480 428 544 428 544 492ZM544 364L480 364 480 108 544 108 544 364Z"  horiz-adv-x="1024" vert-adv-y="1024"  />

      
      <glyph glyph-name="uniE01D" unicode="&#xE01D;" d="M818.7 652L364.1 197.4 409.4 152.1 864 606.7 864 502.8 928 502.8 928 683.9C928 701.6 913.7 715.9 896 715.9L714.9 715.9 714.9 651.9 818.7 652ZM864-52H160V652H576V716H128C110.3 716 96 701.7 96 684V-84C96-101.7 110.3-116 128-116H896C913.7-116 928-101.7 928-84V364H864V-52Z"  horiz-adv-x="1024" vert-adv-y="1024"  />

      
      <glyph glyph-name="uniE01E" unicode="&#xE01E;" d="M512 602.7L873.6-36H150.4L512 602.7M512 700C501.2 700 490.4 694.6 484.3 683.7L68.3-51.1C56-72.8 71.4-100 96-100H928C952.6-100 968-72.8 955.7-51.1L539.7 683.7C533.6 694.6 522.8 700 512 700L512 700ZM544 428L480 428 480 172 544 172 544 428ZM544 108L480 108 480 44 544 44 544 108Z"  horiz-adv-x="1024" vert-adv-y="1024"  />

      
      <glyph glyph-name="uniE01F" unicode="&#xE01F;" d="M512 748C264.6 748 64 547.4 64 300S264.6-148 512-148 960 52.6 960 300 759.4 748 512 748ZM544 108H480V172H544V108ZM544 236H480V492H544V236Z"  horiz-adv-x="1024" vert-adv-y="1024"  />

      
      <glyph glyph-name="uniE020" unicode="&#xE020;" d="M512-84C460.1-84 409.9-73.9 362.6-53.8 316.9-34.5 275.8-6.8 240.5 28.5S177.5 104.9 158.2 150.6C138.2 197.9 128 248.2 128 300S138.1 402.1 158.2 449.4C177.5 495.1 205.2 536.2 240.5 571.5S316.9 634.5 362.6 653.8C409.9 673.8 460.2 684 512 684S614.1 673.9 661.4 653.8C707.1 634.5 748.2 606.8 783.5 571.5S846.5 495.1 865.8 449.4C885.8 402.1 896 351.8 896 300S885.9 197.9 865.8 150.6C846.5 104.9 818.8 63.8 783.5 28.5S707.1-34.5 661.4-53.8C614.1-73.9 563.9-84 512-84M512-148C759.4-148 960 52.6 960 300S759.4 748 512 748 64 547.4 64 300 264.6-148 512-148L512-148ZM544 172L480 172 480 108 544 108 544 172ZM544 492L480 492 480 236 544 236 544 492Z"  horiz-adv-x="1024" vert-adv-y="1024"  />

      
      <glyph glyph-name="uniE021" unicode="&#xE021;" d="M353.2 588L398 532 417.2 508H448 896V12H128V588H353.2M384 652H96C78.3 652 64 637.7 64 620V-20C64-37.7 78.3-52 96-52H928C945.7-52 960-37.7 960-20V540C960 557.7 945.7 572 928 572H448L384 652 384 652Z"  horiz-adv-x="1024" vert-adv-y="1024"  />

      
      <glyph glyph-name="uniE022" unicode="&#xE022;" d="M921 428H864V540C864 557.7 849.7 572 832 572H448L384 652H96C78.3 652 64 637.7 64 620V-20C64-37.7 78.3-52 96-52H103 361.3 837.7C853-52 866.1-41.2 869.1-26.3L952.3 389.7C956.3 409.5 941.2 428 921 428ZM353.2 588L398 532 417.2 508H448 800V428H186.2C170.9 428 157.8 417.2 154.8 402.3L128 268V588H353.2ZM811.5 12H368 142.1L212.5 364H882L811.5 12Z"  horiz-adv-x="1024" vert-adv-y="1024"  />

      
      <glyph glyph-name="uniE023" unicode="&#xE023;" d="M512 746.56A448-448 0 1 0 960 300 446.88-446.88 0 0 0 512 746.56ZM643.2 221.12H572V60A16-16 0 0 1 556 44H469.28A16-16 0 0 1 453.28 60V131.36C453.28 133.12 453.28 134.72 453.28 136.48V221.12H380.8A34.4-34.4 0 0 1 356.8 280.16L488 411.2A36.8-36.8 0 0 1 537.6 411.2L668.8 280.16A35.36-35.36 0 0 1 643.2 221.12ZM697.28 440H326.4A16-16 0 0 1 310.4 456V515.52A16-16 0 0 1 326.4 531.52H697.28A16-16 0 0 1 713.28 515.52V456A16-16 0 0 1 697.28 440Z"  horiz-adv-x="1024" vert-adv-y="1024"  />

      
      <glyph glyph-name="uniE024" unicode="&#xE024;" d="M512 748C264.6 748 64 547.4 64 300 64 241.1 75.4 184.9 96 133.3 96 132.9 96 132.4 96 132V-84C96-101.7 110.3-116 128-116H344C344.4-116 344.9-116 345.3-116 396.8-136.7 453.1-148 512-148 759.4-148 960 52.6 960 300S759.4 748 512 748ZM783.5 28.5C748.2-6.8 707.1-34.5 661.4-53.8 614.1-73.8 563.8-84 511.9-84S409.7-73.9 362.4-53.8C361-53.2 359.6-52.6 358.2-52H234.8 160V22.8 146.3C159.4 147.7 158.8 149.1 158.2 150.5 138.2 197.8 128 248.1 128 300S138.1 402.2 158.2 449.5C177.5 495.2 205.2 536.3 240.5 571.6S316.9 634.6 362.6 653.9C409.9 673.9 460.2 684.1 512.1 684.1 564 684.1 614.3 674 661.6 653.9 707.3 634.6 748.4 606.9 783.7 571.6S846.7 495.2 866 449.5C886 402.2 896.2 351.9 896.2 300S886.1 197.8 866 150.5C846.5 104.8 818.8 63.8 783.5 28.5ZM256 332L256 332 768 332Q768 332 768 332L768 268Q768 268 768 268L256 268Q256 268 256 268L256 332Q256 332 256 332ZM320 492L320 492 704 492Q704 492 704 492L704 428Q704 428 704 428L320 428Q320 428 320 428L320 492Q320 492 320 492ZM320 172L320 172 704 172Q704 172 704 172L704 108Q704 108 704 108L320 108Q320 108 320 108L320 172Q320 172 320 172Z"  horiz-adv-x="1024" vert-adv-y="1024"  />

      
      <glyph glyph-name="uniE025" unicode="&#xE025;" d="M512 748C264.6 748 64 547.4 64 300S264.6-148 512-148 960 52.6 960 300 759.4 748 512 748ZM485.7 141.7L304.7 322.7 350 368 485.8 232.2 712 458.5 757.3 413.2 485.7 141.7Z"  horiz-adv-x="1024" vert-adv-y="1024"  />

      
      <glyph glyph-name="uniE026" unicode="&#xE026;" d="M512 684C563.9 684 614.1 673.9 661.4 653.8 707.1 634.5 748.2 606.8 783.5 571.5S846.5 495.1 865.8 449.4C885.8 402.1 896 351.8 896 300S885.9 197.9 865.8 150.6C846.5 104.9 818.8 63.8 783.5 28.5S707.1-34.5 661.4-53.8C614.1-73.8 563.8-84 512-84S409.9-73.9 362.6-53.8C316.9-34.5 275.8-6.8 240.5 28.5S177.5 104.9 158.2 150.6C138.2 197.9 128 248.2 128 300S138.1 402.1 158.2 449.4C177.5 495.1 205.2 536.2 240.5 571.5S316.9 634.5 362.6 653.8C409.9 673.9 460.1 684 512 684M512 748C264.6 748 64 547.4 64 300S264.6-148 512-148 960 52.6 960 300 759.4 748 512 748L512 748ZM485.7 232.2L350 368 304.7 322.7 485.7 141.7 757.3 413.3 712 458.5Z"  horiz-adv-x="1024" vert-adv-y="1024"  />

      

  </font>
</defs>
</svg>
