<svg width="0" height="0" style="position:absolute"><defs><svg id="codelib" viewBox="0 0 1024 1024" xmlns="http://www.w3.org/2000/svg"><style>.ast0{fill:#2c6ae5}.ast1{fill:#0f8df4}</style><path class="ast0" d="M96.2 638.8v-256l314.6-181.6v256zM927.8 382.2v256L613.2 819.8v-256z"/><path class="ast1" d="M927.8 382.8L613 201V64L411 564 96.2 382.2v256L411 820v140l202-503 314.8 181.8z"/></svg><svg id="ticket" viewBox="0 0 1024 1024" xmlns="http://www.w3.org/2000/svg"><style>.bst0{fill:#4d56c1}.bst1{fill:#fff}</style><path class="bst0" d="M864 928H160c-35.3 0-64-28.7-64-64V160c0-35.3 28.7-64 64-64h704c35.3 0 64 28.7 64 64v704c0 35.3-28.7 64-64 64z"/><path class="bst1" d="M768 304H316c-8.8 0-16-7.2-16-16s7.2-16 16-16h452c8.8 0 16 7.2 16 16s-7.2 16-16 16z"/><path class="bst1" d="M768 336h-88v403.4l-137-86.6-137 86.6V336h-86c-26.5 0-48-21.5-48-48s21.5-48 48-48h448c8.8 0 16-7.2 16-16s-7.2-16-16-16H320c-44.1 0-80 35.9-80 80v448c0 44.1 35.9 80 80 80h448c8.8 0 16-7.2 16-16V352c0-8.8-7.2-16-16-16z"/><path class="bst1" d="M590 463c0-25.4-20.6-46-46-46s-46 20.6-46 46c0 18.6 11 34.6 26.9 41.8L518 566h52l-6.9-61.2C579 497.6 590 481.6 590 463zm-46-14c7.7 0 14 6.3 14 14s-6.3 14-14 14-14-6.3-14-14 6.3-14 14-14z"/></svg></defs></svg>