<?xml version="1.0" encoding="UTF-8"?>
<svg width="16px" height="16px" viewBox="0 0 16 16" version="1.1" xmlns="http://www.w3.org/2000/svg" xmlns:xlink="http://www.w3.org/1999/xlink">
    <title>流程恢复</title>
    <g id="环境管理" stroke="none" stroke-width="1" fill="none" fill-rule="evenodd">
        <g id="节点与标签操作-交互说明" transform="translate(-2789, -5953)" fill-rule="nonzero">
            <g id="编组-3备份-21" transform="translate(1800, 5650)">
                <g id="Table/42px样例" transform="translate(264, 164)">
                    <g id="编组-3备份" transform="translate(472, 0)">
                        <g id="流程恢复" transform="translate(253, 139)">
                            <rect id="矩形" fill="#000000" opacity="0" x="0" y="0" width="16" height="16"></rect>
                            <path d="M14.4881449,13 C14.3015594,13 14.1307863,12.9066092 14.0422372,12.7586207 C12.3977551,10.0804598 10.0812491,9.82758621 7.2271239,9.80028736 L7.2271239,12.2255747 C7.2271239,12.4109195 7.10853144,12.5804598 6.92668967,12.6566092 C6.86027789,12.6853448 6.78912241,12.6982759 6.71480447,12.6982759 C6.58830585,12.6982759 6.46813216,12.6566092 6.37483942,12.579023 L1.175746,8.35632184 C1.06664094,8.26867816 1.00339163,8.1408046 1.0001103,8.00862069 C0.997066695,7.87643678 1.05715354,7.74712644 1.16309614,7.65517241 L6.36218956,3.12931034 C6.45706353,3.04597701 6.58198092,3 6.71322324,3 C6.78437872,3 6.85395296,3.01293103 6.9187835,3.04022989 C7.10695021,3.11781609 7.2271239,3.2887931 7.2271239,3.47557471 L7.2271239,5.52873563 C8.57117177,5.60201149 9.79978965,5.96695402 10.8813529,6.61350575 C11.8506486,7.19252874 12.6997706,7.99568966 13.4065817,9.00143678 C14.5561379,10.6350575 14.9482836,12.2528736 14.9893957,12.4324713 L14.9893957,12.433908 C15.0399951,12.6594828 14.9055903,12.8864943 14.6699867,12.9712644 L14.6684054,12.9712644 C14.6098998,12.9899425 14.549813,13 14.4881449,13 Z M6.20248505,11.1767241 L6.20248505,9.32327586 C6.20248505,9.06178161 6.43334504,8.84913793 6.71480447,8.84913793 C8.572753,8.84913793 10.0796679,8.93965517 11.3936723,9.38362069 C11.9565912,9.5704023 12.4815605,9.82902299 12.9590928,10.1551724 C12.824688,9.92528736 12.682377,9.70402299 12.5353224,9.49568966 C11.1074692,7.4841954 9.14990297,6.46408046 6.71480447,6.46408046 C6.57565599,6.46264368 6.4459949,6.41235632 6.3495397,6.32327586 C6.2530845,6.2341954 6.20090382,6.11494253 6.20248505,5.98850575 L6.20248505,4.57183908 L2.27628402,7.98706897 L6.20248505,11.1767241 Z" id="形状" fill="#3A84FF"></path>
                        </g>
                    </g>
                </g>
            </g>
        </g>
    </g>
</svg>