<?xml version="1.0" encoding="utf-8"?>
<!--
  ~ Tencent is pleased to support the open source community by making BK-CI 蓝鲸持续集成平台 available.
  ~
  ~ Copyright (C) 2019 THL A29 Limited, a Tencent company.  All rights reserved.
  ~
  ~ BK-CI 蓝鲸持续集成平台 is licensed under the MIT license.
  ~
  ~ A copy of the MIT License is included in this file.
  ~
  ~
  ~ Terms of the MIT License:
  ~ ---------------------------------------------------
  ~ Permission is hereby granted, free of charge, to any person obtaining a copy of this software and associated documentation files (the "Software"), to deal in the Software without restriction, including without limitation the rights to use, copy, modify, merge, publish, distribute, sublicense, and/or sell copies of the Software, and to permit persons to whom the Software is furnished to do so, subject to the following conditions:
  ~
  ~ The above copyright notice and this permission notice shall be included in all copies or substantial portions of the Software.
  ~
  ~ THE SOFTWARE IS PROVIDED "AS IS", WITHOUT WARRANTY OF ANY KIND, EXPRESS OR IMPLIED, INCLUDING BUT NOT LIMITED TO THE WARRANTIES OF MERCHANTABILITY, FITNESS FOR A PARTICULAR PURPOSE AND NONINFRINGEMENT. IN NO EVENT SHALL THE AUTHORS OR COPYRIGHT HOLDERS BE LIABLE FOR ANY CLAIM, DAMAGES OR OTHER LIABILITY, WHETHER IN AN ACTION OF CONTRACT, TORT OR OTHERWISE, ARISING FROM, OUT OF OR IN CONNECTION WITH THE SOFTWARE OR THE USE OR OTHER DEALINGS IN THE SOFTWARE.
  -->

<!-- Generator: Adobe Illustrator 22.1.0, SVG Export Plug-In . SVG Version: 6.00 Build 0)  -->
<svg version="1.1" xmlns="http://www.w3.org/2000/svg" xmlns:xlink="http://www.w3.org/1999/xlink" x="0px" y="0px"
	 viewBox="0 0 1024 1024" style="enable-background:new 0 0 1024 1024;" xml:space="preserve">
<style type="text/css">
	.st0{display:none;}
	.st1{fill:#737987;}
	.st2{fill:#7A8193;}
</style>
<g id="图层_6" class="st0">
</g>
<g id="反馈">
</g>
<g id="图层_2">
</g>
<g id="图层_3">
</g>
<g id="图层_4">
</g>
<g id="图层_5">
</g>
<g id="上传">
</g>
<g id="图层_8">
</g>
<g id="图层_9">
</g>
<g id="图层_10">
</g>
<g id="图层_11">
</g>
<g id="图层_12">
	<path class="st0" d="M865,960H161c-17.7,0-32-14.3-32-32V96c0-17.7,14.3-32,32-32h704c17.7,0,32,14.3,32,32v832
		C897,945.7,882.7,960,865,960z"/>
	<path class="st2" d="M832,128v767H192V128H832 M864,64H160c-17.7,0-32,14.3-32,32v831c0,17.7,14.3,32,32,32h704
		c17.7,0,32-14.3,32-32V96C896,78.3,881.7,64,864,64L864,64z"/>
	<g>
		<rect x="272" y="213.8" class="st2" width="480" height="148"/>
	</g>
	<g>
		<rect x="272" y="412.9" class="st2" width="480" height="48"/>
	</g>
	<g>
		<rect x="272" y="512.4" class="st2" width="480" height="48"/>
	</g>
	<g>
		<circle class="st2" cx="512" cy="760.1" r="48"/>
	</g>
	<g>
		<circle class="st2" cx="512" cy="635.8" r="24"/>
	</g>
</g>
</svg>
