<?xml version="1.0" encoding="UTF-8"?>
<svg width="32px" height="32px" viewBox="0 0 32 32" version="1.1" xmlns="http://www.w3.org/2000/svg" xmlns:xlink="http://www.w3.org/1999/xlink">
    <title>Icon/创作流logo</title>
    <defs>
        <linearGradient x1="81.7078317%" y1="100%" x2="36.9907337%" y2="23.4996752%" id="linearGradient-1">
            <stop stop-color="#8CF0B4" offset="0%"></stop>
            <stop stop-color="#3C78FA" offset="100%"></stop>
        </linearGradient>
    </defs>
    <g id="Icon/创作流logo" stroke="none" stroke-width="1" fill="none" fill-rule="evenodd">
        <path d="M15.3137732,14.250193 C14.3469175,14.2538351 13.565897,15.0402474 13.5689105,16.0071053 C13.5719414,16.9739631 14.3578629,17.7554775 15.3247224,17.7530684 C16.291582,17.7506481 17.07359,16.9652179 17.071786,15.998357 C17.0709135,15.5332756 16.8851009,15.0876369 16.5553148,14.7597001 C16.2255287,14.4317633 15.7788521,14.2484594 15.3137732,14.250193 L15.3137732,14.250193 Z M24.4192773,15.998357 C27.3010986,13.2709776 28.6910763,10.5961742 27.7742825,8.99917851 C27.2452366,8.08567072 26.0261309,7.65191881 24.3667013,7.65191878 C22.8768209,7.69538959 21.3998363,7.9419222 19.9766062,8.38469664 C19.0302384,4.54336346 17.3970968,2 15.5306492,2 C13.6642016,2 12.0310599,4.54336346 11.0879781,8.38469664 C9.66580376,7.9422166 8.18994468,7.69568733 6.70116907,7.65191878 C5.03845344,7.65191878 3.82263369,8.08567069 3.29030179,8.99917851 C2.34721999,10.5961742 3.76348569,13.2709776 6.64530708,15.998357 C3.76348569,18.7290224 2.34722001,21.3873958 3.29030179,22.9975355 C3.82263369,23.9110433 5.03845341,24.3447952 6.70116907,24.3447952 C8.18979295,24.3020922 9.6656487,24.056669 11.0879781,23.6153034 C12.0310599,27.4533505 13.6674876,30 15.5306492,30 C17.3938108,30 19.0302384,27.4533505 19.9766062,23.6153034 C21.3989357,24.056669 22.8747914,24.3020922 24.3634153,24.3447952 C26.0064149,24.3447952 27.2419507,23.9077573 27.7709966,22.9975355 C28.7075064,21.4038258 27.3010987,18.7290224 24.4192773,15.998357 Z M6.70116907,22.5966436 C5.43277334,22.5966436 4.91687145,22.2877597 4.82157747,22.1234597 C4.49297754,21.5582678 5.41962933,19.5702382 7.97285079,17.1681727 C8.70234263,17.7727966 9.49426847,18.3741345 10.3519143,18.9590424 C10.4373503,19.9875602 10.5655043,20.9635019 10.7298042,21.8934397 C9.42591623,22.3130538 8.07010927,22.5497118 6.70116907,22.5966436 L6.70116907,22.5966436 Z M10.2336183,16.7245628 C9.90501838,16.4846849 9.59942044,16.2415209 9.29710852,15.998357 C9.59284845,15.755193 9.90830438,15.5120291 10.2336183,15.2688651 L10.2336183,16.7245628 Z M10.3420563,13.0376716 C9.48441047,13.6258655 8.69905665,14.2272034 7.95970681,14.8318273 C7.39045016,14.3063448 6.8548667,13.7455187 6.35613915,13.1526816 C4.6967095,11.15808 4.68356552,10.0901303 4.81171947,9.8666823 C4.90701345,9.70566833 5.41962933,9.39349841 6.69131108,9.39349841 C8.0605528,9.4400885 9.41655678,9.67788691 10.7199462,10.0999883 C10.5622182,11.0332121 10.4373503,12.0124399 10.3519143,13.0376716 L10.3420563,13.0376716 Z M18.8067905,11.8317099 C18.5932005,11.7035559 18.3894686,11.5754019 18.1725926,11.45382 C17.9557167,11.332238 17.7486987,11.2238 17.5351087,11.1087901 C17.9064267,10.9543481 18.2744586,10.8064781 18.6392045,10.6717521 C18.7082105,11.0430701 18.7772165,11.430818 18.8166485,11.8317099 L18.8067905,11.8317099 Z M15.5207912,3.75143762 C16.177991,3.75143762 17.4562448,5.54230723 18.2810306,8.93345852 C17.3828574,9.25767712 16.4627776,9.6410437 15.5207912,10.0835583 C14.6198834,9.6592023 13.699926,9.27652634 12.7638378,8.9367445 C13.5984816,5.54230723 14.8701633,3.75143762 15.5306492,3.75143762 L15.5207912,3.75143762 Z M12.4155218,10.6717521 C12.7802677,10.8064781 13.1482997,10.9543481 13.5196176,11.1087901 C13.3060277,11.2238 13.0957237,11.332238 12.8821337,11.45382 C12.6685438,11.5754019 12.4582398,11.7035559 12.2479359,11.8317099 C12.2972259,11.430818 12.3530879,11.0430701 12.4155218,10.6717521 Z M12.2479359,20.1682901 C12.4582398,20.2931581 12.6652578,20.4213121 12.8821337,20.54618 C13.0990097,20.671048 13.3060277,20.772914 13.5196176,20.8912099 C13.1472044,21.0445566 12.7791724,21.1891405 12.4155218,21.3249619 C12.3530879,20.9536439 12.2972259,20.569182 12.2479359,20.1682901 L12.2479359,20.1682901 Z M15.5339352,28.2485624 C14.8767353,28.2485624 13.6017676,26.4576928 12.7769818,23.0632555 C13.6707736,22.7346556 14.5941394,22.3567657 15.5339352,21.9131557 C16.477017,22.3567657 17.3970968,22.7379416 18.2941746,23.0632555 C17.4628168,26.4576928 16.194421,28.2485624 15.5306492,28.2485624 L15.5339352,28.2485624 Z M18.6523485,21.3249619 C18.2886979,21.1891405 17.920666,21.0445566 17.5482528,20.8912099 C17.7618427,20.772914 17.9721467,20.667762 18.1857366,20.54618 C18.3993265,20.4245981 18.6096305,20.2931581 18.8199345,20.1682901 C18.7772165,20.569182 18.7082105,20.953644 18.6490625,21.3249619 L18.6523485,21.3249619 Z M15.3663492,19.4979462 C13.4393156,19.474422 11.893958,17.8973394 11.9095932,15.9702256 C11.9252283,14.0431117 13.4959714,12.4913109 15.4231331,12.4990279 C17.3502947,12.5068026 18.9085129,14.0711797 18.9086565,15.998357 C18.905184,16.9317108 18.5303982,17.8253088 17.8670308,18.4818946 C17.2036633,19.1384805 16.3062614,19.5040645 15.3729212,19.4979462 L15.3663492,19.4979462 Z M24.3634153,9.40007043 C25.631811,9.40007043 26.1477129,9.71224035 26.2397209,9.87325432 C26.5683208,10.4417322 25.641669,12.4264758 23.0884476,14.8285413 C22.3556697,14.2239174 21.5637439,13.6225795 20.7093841,13.0376716 C20.6239481,12.0124399 20.4957941,11.0332121 20.3314941,10.1032743 C21.6363746,9.6831127 22.993343,9.44644501 24.3634153,9.40007043 Z M20.817822,15.2721512 C21.146422,15.5120291 21.4553059,15.755193 21.7576178,16.001643 C21.4585919,16.2415209 21.146422,16.4846849 20.817822,16.7311349 L20.817822,15.998357 C20.817822,15.7486211 20.824394,15.5153151 20.817822,15.2721512 Z M26.2462929,22.1234597 C26.1509989,22.2877597 25.635097,22.5966436 24.3667013,22.5966436 C22.996629,22.550269 21.6396606,22.3136013 20.3347802,21.8934397 C20.4990801,20.9635019 20.6272341,19.9875601 20.7126701,18.9590424 C21.5703159,18.3741345 22.3556697,17.7727966 23.0950196,17.1648868 C23.6612896,17.6924774 24.1946253,18.2543454 24.6920152,18.8473184 C26.3580169,20.84192 26.3711609,21.9098697 26.2462929,22.1234597 L26.2462929,22.1234597 Z" id="形状" fill="url(#linearGradient-1)" fill-rule="nonzero"></path>
        <polygon id="路径" fill="#7369FF" fill-rule="nonzero" points="8.27844872 25.6230489 7.70997084 26.8060087 6.52043911 27.3744866 7.70997084 27.9593944 8.27844872 29.1423542 8.8502126 27.9593944 10.0364584 27.3909166 8.8502126 26.8224387"></polygon>
        <polygon id="路径" fill="#329B64" fill-rule="nonzero" points="8.49861067 6.81398898 9.15581054 5.48315926 10.4899263 4.8423894 9.14266653 4.20490553 8.48546669 2.89050582 7.85784081 4.20490553 6.52043911 4.8423894 7.85784081 5.48315926"></polygon>
        <polygon id="路径" fill="#0F78FF" fill-rule="nonzero" points="23.4466215 26.3163948 21.4750219 25.6230489 22.1683678 27.5946485 21.4750219 29.5662481 23.4466215 28.8729022 25.4182211 29.5662481 24.7248752 27.5946485 25.4182211 25.6230489"></polygon>
    </g>
</svg>